<?xml version="1.0" encoding="UTF-8" standalone="no"?>
<!-- Created with Inkscape (http://www.inkscape.org/) -->

<svg
   xmlns:dc="http://purl.org/dc/elements/1.1/"
   xmlns:cc="http://creativecommons.org/ns#"
   xmlns:rdf="http://www.w3.org/1999/02/22-rdf-syntax-ns#"
   xmlns:svg="http://www.w3.org/2000/svg"
   xmlns="http://www.w3.org/2000/svg"
   xmlns:sodipodi="http://sodipodi.sourceforge.net/DTD/sodipodi-0.dtd"
   xmlns:inkscape="http://www.inkscape.org/namespaces/inkscape"
   width="210mm"
   height="297mm"
   viewBox="0 0 744.09448819 1052.3622047"
   id="svg6008"
   version="1.1"
   inkscape:version="0.91 r13725"
   sodipodi:docname="blueSmall.svg">
  <defs
     id="defs6010" />
  <sodipodi:namedview
     id="base"
     pagecolor="#ffffff"
     bordercolor="#666666"
     borderopacity="1.0"
     inkscape:pageopacity="0.0"
     inkscape:pageshadow="2"
     inkscape:zoom="0.35"
     inkscape:cx="-120.71429"
     inkscape:cy="520"
     inkscape:document-units="px"
     inkscape:current-layer="layer1"
     showgrid="false"
     inkscape:window-width="1248"
     inkscape:window-height="1388"
     inkscape:window-x="1312"
     inkscape:window-y="24"
     inkscape:window-maximized="0" />
  <metadata
     id="metadata6013">
    <rdf:RDF>
      <cc:Work
         rdf:about="">
        <dc:format>image/svg+xml</dc:format>
        <dc:type
           rdf:resource="http://purl.org/dc/dcmitype/StillImage" />
        <dc:title></dc:title>
      </cc:Work>
    </rdf:RDF>
  </metadata>
  <g
     inkscape:label="Calque 1"
     inkscape:groupmode="layer"
     id="layer1">
    <path
       inkscape:connector-curvature="0"
       class="st0"
       d="m -28.260707,195.56935 c -2.2,0 -4.4,-0.1 -6.7,-0.4 l -0.1,0 c -12.7,-1.8 -25.1,-5.3 -36.8,-10.4 -11.300003,-4.7 -23.299993,-9.9 -33.899993,-17.3 -10.7,-7.4 -20,-16.8 -28.2,-25 -10.3,-10.3 -18.2,-19.9 -24.1,-29.4 l -1.8,-2.8 c -6,-9.4 -12.1,-19.2 -16.6,-30.000001 -3.3,-8 -4.7,-16.4 -5.9,-24.500001 -0.7,-4.3 -1.3,-8.3 -2.2,-12.2 l -0.2,-0.7 c -2.7,-11.6 -5.6,-23.6 -5.6,-36.7 0,-4 -0.7,-8.5000004 -1.4,-13.2000004 -1.3,-8.4999996 -2.7,-17.1999996 -0.6,-25.9999996 2.1,-9 6,-17.3 9.8,-25.4 1.6,-3.5 3.2,-6.8 4.5,-10 4.2,-10 10.5,-20.9 19.2,-33.299998 6.1,-8.6 14.3,-19.8 23.8,-29.3 6.3,-6.3 14.3,-9.4 21.5,-12.1 4.6,-1.8 9,-3.4 12.1,-5.7 3.1,-2.2 6.2,-5.1 9.39999,-8.1 5.6,-5.4 12.000003,-11.5 20.500003,-15 10,-4.1 20.6,-7.1 30.9,-10 1.5,-0.4 3,-0.8 4.6,-1.3 14.1,-4 26.7,-5.9 38.3,-5.9 13.2,0.1 26.2,2.2 38.7,6.4 7.9,2.6 14.1,7.9 19.6,12.6 4,3.4 7.8,6.7 11.4,8.1 3.2,1.3 8.4,1.2 13.5,1.1 8.2,-0.2 17.499997,-0.4 25.299997,4.8 7.5,5 13.5,11.8 19.2,18.3 2.7,3.1 5.2,5.9 7.8,8.5 2.8,2.8 5.80001,5.5 8.90001,8.4 6,5.5 12.1,11.2 17.4,17.7 7.5,9.199998 16.8,20.599998 22.1,33.299998 3.5,8.6 3.2,17.9 3,26.1 -0.2,4.8 -0.3,9.3 0.3,13.2 1.2,8.2 0.2,15.9 -0.7,23.3999996 -0.6,4.7 -1.1,9.1000004 -1.1,13.5000004 0,3.8 1.6,8.4 3.3,13.3 2.6,7.6 5.5,16.2 3.6,25.2 -1.9,8.7 -7,15.800001 -11.6,22.000001 -2.9,4 -5.7,7.8 -7.1,11.4 -1.6,3.7 -2.5,8.2 -3.5,12.800001 -1.6,7.5 -3.5,16 -8.4,23.3 -5.9,8.8 -13.6,16.3 -21,23.6 -1.5,1.5 -3.00001,3 -4.50001,4.5 -2.2,2.2 -4.4,4.6 -6.7,7.1 -6.3,6.8 -12.9,13.8 -21,19.2 -7.5,5 -16.399997,5.8 -24.099997,6.5 -5,0.5 -9.8,0.9 -13.3,2.3 -11.2,4.6 -22.9,8.2 -34.8,10.6 -11.3,2.3 -23,4.7 -36.1,4.7 -4.4,0 -9.1,0.7 -14,1.4 -5.6,0.6 -11,1.4 -16.7,1.4 z m -4,-20.2 c 5.2,0.7 11.1,-0.2 17.4,-1.1 5.4,-0.8 11,-1.6 17,-1.6 11.1,0 21.3,-2.1 32.1,-4.3 l 0.1,0 c 10.6,-2.1 21,-5.3 31,-9.4 6.3,-2.6 13.2,-3.2 19.2,-3.8 6,-0.5 11.599997,-1 14.899997,-3.2 6.1,-4 11.6,-9.9 17.4,-16.1 2.3,-2.5 4.8,-5.1 7.2,-7.6 1.5,-1.5 3.1,-3.1 4.7,-4.6 6.7,-6.6 13.60001,-13.4 18.40001,-20.5 2.8,-4.1 4.1,-10.1 5.5,-16.400001 1.2,-5.3 2.4,-10.8 4.6,-16.2 2.4,-5.8 6,-10.7 9.5,-15.500001 3.7,-5.1 7.2,-9.9 8.2,-14.5 0.8,-3.5 -1.1,-8.8 -3,-14.4 -2,-5.9 -4.4,-12.7 -4.4,-19.8 0,-5.6 0.6,-10.8000004 1.3,-15.9 0.8,-6.5 1.6,-12.6 0.7,-18.1 -0.8,-5.7 -0.6,-11.3 -0.5,-16.7 0.2,-6.8 0.4,-13.2 -1.5,-17.7 -4.1,-10 -12.4,-20.1 -19.1,-28.2 -4.4,-5.4 -9.80001,-10.399998 -15.50001,-15.599998 -3.1,-2.9 -6.4,-5.9 -9.5,-9 -3,-3 -5.9,-6.3 -8.7,-9.4 -5.2,-5.9 -10,-11.4 -15.3,-14.9 -2.6,-1.7 -8.299997,-1.6 -13.799997,-1.5 -6.8,0.1 -14.5,0.3 -21.5,-2.6 -6.5,-2.7 -11.7,-7.1 -16.8,-11.4 -4.5,-3.8 -8.7,-7.4 -12.9,-8.8 -10.4,-3.8 -21.3,-5.6 -32.3,-5.7 -9.7,0 -20.5,1.7 -32.8,5.2 -1.5,0.4 -3.1,0.9 -4.6,1.3 -9.7,2.7 -19.8,5.5 -28.6,9.2 -5.1,2.1 -9.6,6.4 -14.4,11 -3.6,3.4 -7.300003,7 -11.700003,10 -5.19999,3.6 -10.89999,5.8 -16.39999,7.9 -5.8,2.2 -11.2,4.3 -14.5,7.6 -8.4,8.5 -16,18.7 -21.6,26.699998 -7.9,11.1 -13.4,20.7 -17,29.4 -1.5,3.6 -3.2,7.3 -4.9,10.9 -3.3,7.1 -6.8,14.5 -8.5,21.5 -1.2,5 -0.2,11.5 0.9,18.3 0.8,5.2999996 1.7,10.7 1.7,16.3 0,10.8 2.4,21.1 5,32.1 l 0.2,0.7 c 1.1,4.6 1.8,9.2 2.5,13.7 1.1,7.200001 2.2,14.100001 4.6,19.900001 3.9,9.2 9.6,18.300001 15.1,27.000001 l 1.8,2.8 c 5.1,8.2 12.1,16.6 21.3,25.8 7.7,7.7 16.3,16.3 25.6,22.8 8.99999,6.3 19.799993,11 30.199993,15.3 l 0.1,0 c 10,4.5 20.7,7.5 31.6,9.1 z"
       id="path92"
       style="fill:#4165ff;fill-opacity:1" />
  </g>
</svg>
