<?xml version="1.0" encoding="UTF-8" standalone="no"?>
<!-- Created with Inkscape (http://www.inkscape.org/) -->

<svg
   xmlns:dc="http://purl.org/dc/elements/1.1/"
   xmlns:cc="http://creativecommons.org/ns#"
   xmlns:rdf="http://www.w3.org/1999/02/22-rdf-syntax-ns#"
   xmlns:svg="http://www.w3.org/2000/svg"
   xmlns="http://www.w3.org/2000/svg"
   xmlns:sodipodi="http://sodipodi.sourceforge.net/DTD/sodipodi-0.dtd"
   xmlns:inkscape="http://www.inkscape.org/namespaces/inkscape"
   width="210mm"
   height="297mm"
   viewBox="0 0 744.09448819 1052.3622047"
   id="svg6008"
   version="1.1"
   inkscape:version="0.91 r13725"
   sodipodi:docname="blueMedium.svg">
  <defs
     id="defs6010" />
  <sodipodi:namedview
     id="base"
     pagecolor="#ffffff"
     bordercolor="#666666"
     borderopacity="1.0"
     inkscape:pageopacity="0.0"
     inkscape:pageshadow="2"
     inkscape:zoom="0.35"
     inkscape:cx="-120.71429"
     inkscape:cy="520"
     inkscape:document-units="px"
     inkscape:current-layer="layer1"
     showgrid="false"
     inkscape:window-width="1248"
     inkscape:window-height="1388"
     inkscape:window-x="1312"
     inkscape:window-y="24"
     inkscape:window-maximized="0" />
  <metadata
     id="metadata6013">
    <rdf:RDF>
      <cc:Work
         rdf:about="">
        <dc:format>image/svg+xml</dc:format>
        <dc:type
           rdf:resource="http://purl.org/dc/dcmitype/StillImage" />
        <dc:title></dc:title>
      </cc:Work>
    </rdf:RDF>
  </metadata>
  <g
     inkscape:label="Calque 1"
     inkscape:groupmode="layer"
     id="layer1">
    <path
       inkscape:connector-curvature="0"
       class="st0"
       d="m -10.02811,258.04792 c -10.5,0 -21.2,-0.2 -31.8,-2.2 -10.8,-2 -21.1,-5.4 -31,-8.7 -2.4,-0.8 -4.7,-1.6 -7.1,-2.3 -10.6,-3.4 -24.4,-8.3 -37,-15.3 -2.8,-1.6 -5.7,-3.1 -8.7,-4.7 -8.5,-4.6 -17.4,-9.3 -25.4,-15.1 -6.8,-5 -12.1,-11.3 -17.2,-17.3 -3.4,-4.1 -6.7,-7.9 -10.1,-11.1 -1.5,-1.4 -3.1,-2.8 -4.6,-4.2 -8.1,-7.3 -16.5,-14.8 -23.3,-24.2 -2.5,-3.4 -6.4,-6.8 -10.5,-10.3 -6.4,-5.6 -13.7,-11.9 -17.7,-20.6 -3.5,-7.8 -5.5,-16.1 -7.3,-24.2 -1.2,-5.100001 -2.3,-9.900001 -3.7,-14.300001 -4.2,-13.1 -6.3,-27.4 -7.9,-39.7 l -0.1,-1.1 c -1.5,-11.9 -3.2,-25.3 -3.2,-38.4 0,-9.4 4.2,-17.6 7.9,-24.8 2.5,-4.9 4.8,-9.5 5.3,-13.4 0.6,-4.3 0.1,-9.2 -0.4,-14.3 -0.7,-7.9 -1.6,-16.9 1.3,-25.7 2.6,-8.1 5.9,-15.899999 9.1,-23.399999 1.9,-4.4 3.6,-8.5 5.3,-12.7 6.1,-15.7 11.9,-26.9 18.9,-36.4 l 0.1,-0.1 c 8.3,-11.2 18.3,-21 29.6,-29.1 6.8,-5 15.2,-6.8 22.7,-8.3 5.9,-1.2 11.5,-2.4 14.8,-4.8 2.6,-1.9 5.1,-7.6 7.2,-12.7 3.6,-8.4 7.7,-17.9 16.6,-22.6 7.9,-4.1 16.6,-5.9 24.9,-7.6 4.9,-1 9.6,-2 13.9,-3.3 5,-1.6 9.9,-3.7 15.2,-6 6.7,-2.8 13.5,-5.8 20.9,-7.8 1.2,-0.3 2.5,-0.7 3.7,-1.1 11.7,-3.4 25,-7.2 38,-7.2 10.3,0 19.3,5.1 27.1,9.5 4.5,2.6 8.8,5 12.5,6 7.4,2.1 14.1,5.3 20.5,8.3 5.2,2.5 10.1,4.8 15,6.4 4.1,1.3 9.8,0.8 15.8,0.3 7.5,-0.6 16,-1.4 24,1.4 13.8,4.7 26.4,13.9 36.5,21.2 3,2.2 6.4,4.3 10,6.5 8.1,5 17.3,10.7 23.8,18.8 5.4,6.6 10.2,13.7 14.9,20.5 2.7,4 5.3,7.7 7.9,11.3 5.3,7.2 6.7,16.1 7.9,24 0.9,5.9 1.8,11.4 4,14.9 2.2,3.5 5.6,6.9 9.1,10.5 6,6 12.7,12.799999 15.8,22.199999 0.7,2.1 1.4,4.2 2.1,6.4 3.5,10.3 7.4,22 8.4,33.8 0.8,9.2 -3.4,17.6 -7,25.1 -2.5,5.2 -5.2,10.5 -5.2,14.4 0,3.8 2.5,9 4.9,14.1 3.7,7.9 7.9,16.9 6.2,26.5 -1.6,9.1 -7.2,16.5 -12,23 -3.4,4.5 -6.6,8.7 -7.8,12.6 -1.4,4.2 -1.6,9.4 -1.9,14.800001 -0.4,7.9 -0.9,16.9 -5,24.9 -4.4,8.6 -10.4,16.3 -16.2,23.7 -2.4,3.1 -4.7,6 -6.8,8.9 -2.4,3.3 -4.7,7 -7.2,11 -4.7,7.6 -9.6,15.4 -16.2,21.8 -6.8,6.6 -16.1,8.7 -24.3,10.5 -5.6,1.3 -10.9,2.4 -14,4.7 -10.3,7.5 -21.2,14.2 -32.5,20 -1.7,0.9 -3.5,1.8 -5.2,2.8 -9.1,4.8 -18.5,9.8 -29.5,13.3 -4.4,1.4 -8.9,4.1 -13.7,7 -6.3,3.8 -13.5,8.1 -21.7,10 -11.6,2.8 -24.4,4.1 -40.3,4.1 -1.4,0 -2.8,0 -4.2,0 -1.3,-0.2 -2.7,-0.2 -4.1,-0.2 z m -183.2,-392.9 c -5.8,8.1 -10.9,17.9 -16.4,31.9 -1.7,4.5 -3.6,9 -5.5,13.3 -3.2,7.499999 -6.2,14.599999 -8.5,21.799999 -1.6,4.9 -1,11.1 -0.4,17.7 0.6,6 1.1,12.3 0.3,18.8 -0.9,7.3 -4.2,13.7 -7.3,19.9 -2.9,5.8 -5.7,11.2 -5.7,15.8 0,11.8 1.6,24.1 3.1,35.9 l 0.1,1.1 c 1.5,11.5 3.3,24.6 7,36.1 1.7,5.3 3,10.7 4.2,16 1.7,7.500001 3.3,14.500001 6,20.400001 2.1,4.7 7.2,9.1 12.6,13.7 4.8,4.1 9.7,8.4 13.5,13.7 5.6,7.7 12.8,14.2 20.5,21.1 1.6,1.4 3.2,2.9 4.8,4.3 4.4,4.1 8.3,8.6 11.9,13 4.5,5.4 8.8,10.5 13.7,14 6.9,5.1 15.1,9.4 23.1,13.7 3,1.6 6,3.2 9,4.9 11.1,6.2 23.7,10.6 33.5,13.8 2.4,0.8 4.8,1.6 7.2,2.4 9.3,3.1 18.8,6.3 28.3,8 10.1,1.9 20.9,1.9 32.3,1.8 1.4,0 2.8,0 4.2,0 14.2,0 25.5,-1.1 35.6,-3.5 5.2,-1.2 10.5,-4.4 16,-7.7 5.5,-3.3 11.2,-6.8 17.8,-8.9 9.3,-3 17.6,-7.4 26.3,-12 1.8,-0.9 3.6,-1.9 5.4,-2.8 10.4,-5.4 20.5,-11.6 29.9,-18.4 6.5,-4.7 14.4,-6.5 21.4,-8.1 5.9,-1.3 11.9,-2.7 14.6,-5.3 4.9,-4.8 8.9,-11.2 13.2,-18.1 2.5,-4 5.1,-8.2 8,-12.2 2.3,-3.2 4.8,-6.4 7.2,-9.5 5.5,-7 10.6,-13.6 14.2,-20.5 2.2,-4.2 2.5,-10.4 2.9,-16.9 0.4,-6.500001 0.7,-13.300001 2.9,-19.900001 2.3,-7 6.6,-12.8 10.8,-18.4 3.9,-5.2 7.6,-10.1 8.4,-14.5 0.6,-3.4 -2,-9 -4.6,-14.4 -3.2,-6.7 -6.8,-14.4 -6.8,-22.6 0,-8.5 3.8,-16.3 7.2,-23.2 2.6,-5.3 5.4,-10.9 5.1,-14.6 -0.8,-9.4 -4.1,-19.4 -7.4,-29 -0.8,-2.2 -1.5,-4.4 -2.2,-6.6 -1.6,-4.9 -6.1,-9.5 -10.9,-14.3 -4.2,-4.199999 -8.5,-8.599999 -11.9,-13.999999 -4.3,-6.9 -5.6,-15.1 -6.8,-22.4 -1,-6.2 -1.9,-12 -4.3,-15.3 -2.8,-3.9 -5.6,-7.9 -8.3,-11.8 -4.5,-6.5 -9.1,-13.2 -13.9,-19.2 -4.4,-5.4 -11.7,-10 -18.8,-14.4 -3.8,-2.3 -7.7,-4.8 -11.3,-7.4 -9.5,-6.9 -20.2,-14.7 -31.2,-18.5 -4,-1.4 -9.8,-0.9 -15.9,-0.4 -7.4,0.6 -15.8,1.4 -23.7,-1.2 -6.1,-2 -11.8,-4.7 -17.4,-7.3 -6,-2.8 -11.6,-5.5 -17.4,-7.1 -6.1,-1.7 -11.6,-4.9 -16.9,-7.9 -6.3,-3.6 -12.2,-6.9 -17.3,-6.9 -10.2,0 -22,3.4 -32.5,6.4 -1.3,0.4 -2.6,0.7 -3.8,1.1 -6.1,1.7 -12.1,4.3 -18.5,7 -5.4,2.3 -11.1,4.7 -16.9,6.6 -5.3,1.7 -10.8,2.8 -16,3.9 -7.3,1.5 -14.3,2.9 -19.7,5.7 -2.6,1.3 -5.3,7.6 -7.4,12.7 -3.2,7.4 -6.8,15.8 -13.8,21 -6.8,4.9 -15.1,6.7 -22.5,8.2 -6,1.3 -11.6,2.4 -15,4.9 -9.7,6.8 -18.1,15.1 -25.3,24.6 z"
       id="path103"
       style="fill:#4165ff;fill-opacity:1" />
  </g>
</svg>
