<?xml version="1.0" encoding="UTF-8" standalone="no"?>
<!-- Created with Inkscape (http://www.inkscape.org/) -->

<svg
   xmlns:dc="http://purl.org/dc/elements/1.1/"
   xmlns:cc="http://creativecommons.org/ns#"
   xmlns:rdf="http://www.w3.org/1999/02/22-rdf-syntax-ns#"
   xmlns:svg="http://www.w3.org/2000/svg"
   xmlns="http://www.w3.org/2000/svg"
   xmlns:sodipodi="http://sodipodi.sourceforge.net/DTD/sodipodi-0.dtd"
   xmlns:inkscape="http://www.inkscape.org/namespaces/inkscape"
   width="210mm"
   height="297mm"
   viewBox="0 0 744.09448819 1052.3622047"
   id="svg6008"
   version="1.1"
   inkscape:version="0.91 r13725"
   sodipodi:docname="greenBig.svg">
  <defs
     id="defs6010" />
  <sodipodi:namedview
     id="base"
     pagecolor="#ffffff"
     bordercolor="#666666"
     borderopacity="1.0"
     inkscape:pageopacity="0.0"
     inkscape:pageshadow="2"
     inkscape:zoom="0.35"
     inkscape:cx="-120.71429"
     inkscape:cy="520"
     inkscape:document-units="px"
     inkscape:current-layer="layer1"
     showgrid="false"
     inkscape:window-width="1248"
     inkscape:window-height="1388"
     inkscape:window-x="1312"
     inkscape:window-y="24"
     inkscape:window-maximized="0" />
  <metadata
     id="metadata6013">
    <rdf:RDF>
      <cc:Work
         rdf:about="">
        <dc:format>image/svg+xml</dc:format>
        <dc:type
           rdf:resource="http://purl.org/dc/dcmitype/StillImage" />
        <dc:title></dc:title>
      </cc:Work>
    </rdf:RDF>
  </metadata>
  <g
     inkscape:label="Calque 1"
     inkscape:groupmode="layer"
     id="layer1">
    <path
       inkscape:connector-curvature="0"
       class="st0"
       d="m -0.982537,228.48732 c -18.900004,0 -36.700004,-6.8 -52.400004,-12.7 -5.7,-2.2 -11,-4.2 -16.3,-5.9 -6.2,-2 -12.8,-3.6 -19.799999,-5.3 -16.6,-4 -33.7,-8.1 -47.90001,-18.5 -14.1,-10.2 -22.7,-25.1 -31.1,-39.5 -3.8,-6.6 -7.4,-12.8 -11.4,-18.3 -12.3,-16.9 -18.3,-35.899996 -24.09999,-54.3 -0.9,-2.9 -1.8,-5.8 -2.8,-8.7 -2,-6.3 -4.9,-12.6 -8,-19.4 -6.4,-13.9 -13.6,-29.7 -13.6,-47.5 0,-19 6.4,-35.7 12.6,-51.9 2.1,-5.6 4.1,-10.8 5.8,-15.999998 7.29999,-22.400002 14.99999,-44.100002 28.79999,-63.100002 3.3,-4.6 6.5,-9.4 9.9,-14.6 9.7,-14.9 19.8,-30.2 34.7,-41.1 15.20001,-11 38.50001,-25.9 63.900009,-34.1 15.8,-5.1 32.1,-2.8 47.9,-0.5 8.4,1.2 16.3,2.3 23.800004,2.3 7.4,0 15.1,-1 23.3,-2.1 15.9,-2.1 32.2,-4.2 48.100001,0.9 16.4,5.3 28.899996,17.5 39.899996,28.3 5.8,5.7 11.3,11.1 17,15.2 5.7,4.1 12.3,7.7 19.4,11.6 14.2,7.7 28.8,15.7 38.9,29.5 10.8,14.8 25.3,37.9 33.8,64.000002 5.1,15.599998 1.9,31.399998 -1.2,46.699998 -1.8,8.8 -3.4,17.1 -3.4,24.9 0,7.0000003 0.6,14 1.3,21.3 1.5,15.9 3,32.2 -2.3,48.4 -7.5,22.600004 -18.3,43.7 -32.3,62.8 -15.6,21.5 -36.5,37.9 -51,48.4 -4.6,3.3 -9.2,7.1 -14.1,11 -13.8,11.2 -28.099996,22.8 -45.799996,28.5 -19.400001,6.5 -43.500001,9.7 -71.600001,9.7 z m -50.500004,-428.9 c -4.8,0 -9.3,0.5 -13.4,1.8 -22.299999,7.2 -43.199999,20.6 -56.899999,30.6 -11.20001,8.2 -19.60001,21 -28.50001,34.6 -3.4,5.2 -6.9,10.6 -10.6,15.6 -11.7,16 -18.3,34.900002 -25.2,56.1 -1.9,5.8 -4.1,11.6 -6.3,17.2 -5.6,14.7 -10.89999,28.6 -10.89999,42.9 0,12.3 5.49999,24.4 11.29999,37.1 3.2,7.1 6.6,14.4 9.1,22.1 1,3 1.9,6 2.8,8.9 5.4,17.3 10.6,33.500004 20.5,47.2 4.7,6.5 8.8,13.6 12.8,20.4 7.4,12.7 14.4,24.7 24.20001,31.9 10.2,7.4 24.2,10.8 39.099999,14.4 7.1,1.7 14.5,3.5 21.6,5.8 5.8,1.9 11.7,4.1 17.4,6.3 14.3,5.5 29.2,11.1 43.500004,11.1 25.5,0 47,-2.8 63.9,-8.3 13.300001,-4.3 25.700001,-14.4 37.799997,-24.2 4.9,-4 10,-8.1 15.1,-11.8 20.7,-15.1 35.2,-28.7 45.5,-42.9 12.5,-17.099996 22.2,-35.9 28.8,-55.9 3.7,-11.2 2.4,-24.4 1.2,-38.4 -0.7,-7.6 -1.4,-15.4999997 -1.4,-23.6 0,-10.2 2,-20.2 3.9,-29.8 2.5,-12.7 4.9,-24.7 1.9,-34.1 -5.8,-17.999998 -16.5,-38.2 -30.2,-57 -6.8,-9.3 -18.3,-15.6 -30.6,-22.2 -7.4,-4 -15.1,-8.2 -22.1,-13.3 -7.2,-5.2 -13.6,-11.5 -19.799996,-17.6 -9.9,-9.7 -19.3,-18.8 -30.100001,-22.4 -10.5,-3.4 -23.4,-1.7 -37.2,0.1 -8.6,1.1 -17.5,2.3 -26.6,2.3 -9.300004,0 -18.500004,-1.3 -27.400004,-2.6 -8.2,-1.2 -16,-2.3 -23.2,-2.3 z"
       id="path81"
       style="fill:#009245;fill-opacity:1" />
  </g>
</svg>
