<?xml version="1.0" encoding="UTF-8" standalone="no"?>
<!-- Created with Inkscape (http://www.inkscape.org/) -->

<svg
   xmlns:dc="http://purl.org/dc/elements/1.1/"
   xmlns:cc="http://creativecommons.org/ns#"
   xmlns:rdf="http://www.w3.org/1999/02/22-rdf-syntax-ns#"
   xmlns:svg="http://www.w3.org/2000/svg"
   xmlns="http://www.w3.org/2000/svg"
   xmlns:sodipodi="http://sodipodi.sourceforge.net/DTD/sodipodi-0.dtd"
   xmlns:inkscape="http://www.inkscape.org/namespaces/inkscape"
   width="210mm"
   height="297mm"
   viewBox="0 0 744.09448819 1052.3622047"
   id="svg6008"
   version="1.1"
   inkscape:version="0.91 r13725"
   sodipodi:docname="greenMedium.svg">
  <defs
     id="defs6010" />
  <sodipodi:namedview
     id="base"
     pagecolor="#ffffff"
     bordercolor="#666666"
     borderopacity="1.0"
     inkscape:pageopacity="0.0"
     inkscape:pageshadow="2"
     inkscape:zoom="0.35"
     inkscape:cx="-120.71429"
     inkscape:cy="520"
     inkscape:document-units="px"
     inkscape:current-layer="layer1"
     showgrid="false"
     inkscape:window-width="1248"
     inkscape:window-height="1388"
     inkscape:window-x="1312"
     inkscape:window-y="24"
     inkscape:window-maximized="0" />
  <metadata
     id="metadata6013">
    <rdf:RDF>
      <cc:Work
         rdf:about="">
        <dc:format>image/svg+xml</dc:format>
        <dc:type
           rdf:resource="http://purl.org/dc/dcmitype/StillImage" />
        <dc:title></dc:title>
      </cc:Work>
    </rdf:RDF>
  </metadata>
  <g
     inkscape:label="Calque 1"
     inkscape:groupmode="layer"
     id="layer1">
    <path
       inkscape:connector-curvature="0"
       class="st0"
       d="m 0.3982889,222.37588 c -17.8999959,0 -34.4999959,-6.3 -50.4999959,-12.4 -5.7,-2.2 -11.1,-4.2 -16.5,-6 -6.4,-2.1 -13.1,-3.7 -20.2,-5.4 -16.000003,-3.9 -32.600003,-7.9 -45.900003,-17.6 -13.1,-9.5 -21.5,-23.9 -29.6,-37.8 -3.9,-6.7 -7.6,-13 -11.7,-18.7 -11.8,-16.2 -17.4,-33.899996 -23.3,-52.699996 -0.9,-2.9 -1.9,-5.9 -2.8,-8.8 -2.1,-6.6 -5.1,-13.100001 -8.3,-20.000001 -6.4,-14 -13.1,-28.6 -13.1,-45.1999997 0,-17.9999963 6.2,-34.1999963 12.2,-49.8999963 2.2,-5.6 4.2,-10.9 5.9,-16.3 7.4,-22.8 14.6,-43.199997 28,-61.499997 3.4,-4.7 6.6,-9.6 10.1,-14.8 9.5,-14.40001 19.2,-29.40001 33.3,-39.70001 14.8,-10.8 37.600003,-25.3 62.300003,-33.3 14.5,-4.7 30.3,-2.5 45.5,-0.3 8.2,1.2 16.699996,2.4 24.5999959,2.4 7.8,0 16.0000001,-1.1 24.1000001,-2.1 15.3,-2 31.1,-4 45.8,0.7 15.199999,4.9 26.6,16.1 37.700001,27 6,5.8 11.6,11.3 17.6,15.7 6,4.3 12.8,8 20,11.9 13.6,7.4 27.7,15.1 37.1,27.90001 10.5,14.5 24.8,36.999997 33,62.399997 4.6,14.2 1.6,29.3 -1.3,44 -1.7,8.7 -3.5,17.7 -3.5,25.8999963 0,7.2 0.7,14.6999997 1.3,21.8999997 1.4,15.3 2.9,31.1 -2,46.200001 -7.3,22 -17.9,42.599996 -31.5,61.299996 -11.5,15.9 -27.3,30.9 -49.7,47.2 -4.7,3.4 -9.4,7.2 -14.3,11.2 -13.4,10.9 -27.300002,22.1 -44.000001,27.6 -19.2,6.1 -42.8,9.2 -70.3000001,9.2 z m -50.5999959,-428.9 c -5.3,0 -10.4,0.6 -15.1,2.1 -22.9,7.5 -44.400003,21.2 -58.400003,31.3 -12,8.8 -21.1,22.6 -29.9,36.00001 -3.4,5.1 -6.8,10.4 -10.4,15.4 -12.2,16.7 -19,35.999997 -26,57.599997 -1.8,5.7 -4,11.4 -6.2,16.9 -5.6,14.7 -11.3,29.7 -11.3,44.9999963 0,13.4999997 5.7,26.0999997 11.8,39.3999997 3.2,6.9 6.5,14.1 8.8,21.500001 1,3 1.9,6 2.9,8.9 5.6,17.7 10.9,34.399996 21.3,48.699996 4.5,6.3 8.6,13.2 12.5,19.9 7.7,13.2 15,25.7 25.7,33.5 11.1,8.1 25.6,11.6 41.000003,15.3 7,1.7 14.3,3.5 21.2,5.7 5.7,1.8 11.5,4.1 17.2,6.2 14.8,5.6 30.1,11.5 45.4999959,11.5 26.1000001,0 48.1000001,-2.9 65.6000001,-8.6 14.299999,-4.6 27.099999,-15 39.500001,-25.1 4.8,-3.9 9.9,-8 14.9,-11.7 21.2,-15.4 36,-29.5 46.7,-44.1 12.8,-17.5 22.7,-36.799996 29.5,-57.399996 4,-12.400001 2.8,-26.100001 1.4,-40.600001 -0.7,-7.5 -1.4,-15.2999997 -1.4,-23.0999997 0,-9.6999963 1.9,-19.2999963 3.8,-28.6999963 2.7,-13.5 5.2,-26.2 1.7,-36.9 -6,-18.5 -17,-39.299997 -31,-58.499997 -7.5,-10.3 -19.6,-16.9 -32.4,-23.80001 -7.3,-4 -14.8,-8 -21.5,-12.9 -6.8,-5 -13.1,-11.1 -19.100001,-17 -10.400001,-10.2 -20.200001,-19.8 -32.2,-23.7 -11.7,-3.8 -25.3,-2 -39.7,-0.1 -8.5,1.1 -17.2000001,2.2 -25.9000001,2.2 -8.8999999,0 -17.8999959,-1.3 -26.5999959,-2.5 -8.3,-1.3 -16.3,-2.4 -23.9,-2.4 z"
       id="path70"
       style="fill:#009245;fill-opacity:1" />
  </g>
</svg>
