<?xml version="1.0" encoding="UTF-8" standalone="no"?>
<!-- Generator: Adobe Illustrator 19.1.1, SVG Export Plug-In . SVG Version: 6.00 Build 0)  -->

<svg
   xmlns:dc="http://purl.org/dc/elements/1.1/"
   xmlns:cc="http://creativecommons.org/ns#"
   xmlns:rdf="http://www.w3.org/1999/02/22-rdf-syntax-ns#"
   xmlns:svg="http://www.w3.org/2000/svg"
   xmlns="http://www.w3.org/2000/svg"
   xmlns:sodipodi="http://sodipodi.sourceforge.net/DTD/sodipodi-0.dtd"
   xmlns:inkscape="http://www.inkscape.org/namespaces/inkscape"
   version="1.1"
   x="0px"
   y="0px"
   width="206.29px"
   height="204.696px"
   viewBox="0 0 206.29 204.696"
   style="enable-background:new 0 0 206.29 204.696;"
   xml:space="preserve"
   id="svg3078"
   inkscape:version="0.48.4 r9939"
   sodipodi:docname="LineCircle3.svg"><metadata
     id="metadata3110"><rdf:RDF><cc:Work
         rdf:about=""><dc:format>image/svg+xml</dc:format><dc:type
           rdf:resource="http://purl.org/dc/dcmitype/StillImage" /></cc:Work></rdf:RDF></metadata><defs
     id="defs3108" /><sodipodi:namedview
     pagecolor="#ffffff"
     bordercolor="#666666"
     borderopacity="1"
     objecttolerance="10"
     gridtolerance="10"
     guidetolerance="10"
     inkscape:pageopacity="0"
     inkscape:pageshadow="2"
     inkscape:window-width="1537"
     inkscape:window-height="876"
     id="namedview3106"
     showgrid="true"
     inkscape:zoom="1.1529292"
     inkscape:cx="-49.509647"
     inkscape:cy="102.348"
     inkscape:window-x="63"
     inkscape:window-y="24"
     inkscape:window-maximized="1"
     inkscape:current-layer="svg3078"><inkscape:grid
       type="xygrid"
       id="grid4134" /></sodipodi:namedview><g
     id="g4762"
     transform="translate(-106.68478,-103.21536)"
     style="fill:#ffffff"><path
       inkscape:connector-curvature="0"
       id="path3081"
       d="M 4.75,102.53125 0,104.125 c 0,0 6.0969238,18.13675 13.40625,36.4375 3.654663,9.15038 7.620426,18.33579 11.3125,25.40625 1.846037,3.53523 3.622668,6.54069 5.34375,8.8125 1.721082,2.27181 3.187358,4.10932 5.875,4.40625 L 36.5,174.21875 c 0.313892,0.0347 -1.040407,-0.58335 -2.46875,-2.46875 -1.428343,-1.8854 -3.102334,-4.69903 -4.875,-8.09375 C 25.610918,156.86681 21.683962,147.75475 18.0625,138.6875 10.819576,120.553 4.75,102.53125 4.75,102.53125 z"
       style="font-size:medium;font-style:normal;font-variant:normal;font-weight:normal;font-stretch:normal;text-indent:0;text-align:start;text-decoration:none;line-height:normal;letter-spacing:normal;word-spacing:normal;text-transform:none;direction:ltr;block-progression:tb;writing-mode:lr-tb;text-anchor:start;baseline-shift:baseline;color:#000000;fill:#ffffff;fill-opacity:1;stroke:none;stroke-width:5;marker:none;visibility:visible;display:inline;overflow:visible;enable-background:accumulate;font-family:Sans;-inkscape-font-specification:Sans" /><path
       inkscape:connector-curvature="0"
       id="path3083"
       d="m 8.9375,78.4375 -4.625,1.875 c 0,0 10.549554,26.30617 22.5625,52.90625 6.006473,13.30004 12.368448,26.68135 18,36.9375 2.815776,5.12807 5.444553,9.45745 7.8125,12.6875 1.183973,1.61503 2.290605,2.95014 3.40625,4 1.115645,1.04986 2.223015,1.90235 3.78125,2.1875 L 60.75,184.125 c 0.12036,0.022 -0.452664,-0.18534 -1.21875,-0.90625 -0.766086,-0.72091 -1.742049,-1.85233 -2.8125,-3.3125 C 54.577849,176.9859 52.006864,172.77078 49.25,167.75 43.736271,157.70843 37.415652,144.39358 31.4375,131.15625 19.481196,104.68158 8.9375,78.4375 8.9375,78.4375 z"
       style="font-size:medium;font-style:normal;font-variant:normal;font-weight:normal;font-stretch:normal;text-indent:0;text-align:start;text-decoration:none;line-height:normal;letter-spacing:normal;word-spacing:normal;text-transform:none;direction:ltr;block-progression:tb;writing-mode:lr-tb;text-anchor:start;baseline-shift:baseline;color:#000000;fill:#ffffff;fill-opacity:1;stroke:none;stroke-width:5;marker:none;visibility:visible;display:inline;overflow:visible;enable-background:accumulate;font-family:Sans;-inkscape-font-specification:Sans" /><path
       inkscape:connector-curvature="0"
       id="path3085"
       d="m 15.4375,48.03125 -4.6875,1.75 c 0,0 14.184177,37.75558 30.8125,75.84375 8.314161,19.04409 17.210015,38.15868 25.34375,52.78125 4.066868,7.31128 7.936156,13.48656 11.5,18.03125 3.563844,4.54469 6.624935,7.74048 10.5625,8.25 l 0.625,-4.9375 c -0.963935,-0.12473 -3.967242,-2.22 -7.25,-6.40625 -3.282758,-4.18625 -7.068461,-10.19464 -11.0625,-17.375 C 63.293173,161.60804 54.405089,142.59104 46.125,123.625 29.564823,85.69292 15.4375,48.03125 15.4375,48.03125 z"
       style="font-size:medium;font-style:normal;font-variant:normal;font-weight:normal;font-stretch:normal;text-indent:0;text-align:start;text-decoration:none;line-height:normal;letter-spacing:normal;word-spacing:normal;text-transform:none;direction:ltr;block-progression:tb;writing-mode:lr-tb;text-anchor:start;baseline-shift:baseline;color:#000000;fill:#ffffff;fill-opacity:1;stroke:none;stroke-width:5;marker:none;visibility:visible;display:inline;overflow:visible;enable-background:accumulate;font-family:Sans;-inkscape-font-specification:Sans" /><path
       inkscape:connector-curvature="0"
       id="path3087"
       d="m 28.25,29.9375 -4.59375,1.90625 c 0,0 17.186372,41.492923 35.53125,83.71875 9.172439,21.11291 18.621195,42.4038 26.375,58.8125 3.876903,8.20435 7.329907,15.18371 10.125,20.34375 1.397547,2.58002 2.615903,4.71312 3.6875,6.34375 1.0716,1.63063 1.73515,2.73283 3.15625,3.625 l 2.65625,-4.25 c 0.27822,0.17467 -0.68483,-0.69437 -1.625,-2.125 -0.94017,-1.43063 -2.11102,-3.46223 -3.46875,-5.96875 -2.715465,-5.01304 -6.144543,-11.93479 -10,-20.09375 C 82.382837,155.93207 72.942686,134.68134 63.78125,113.59375 45.458378,71.418577 28.25,29.9375 28.25,29.9375 z"
       style="font-size:medium;font-style:normal;font-variant:normal;font-weight:normal;font-stretch:normal;text-indent:0;text-align:start;text-decoration:none;line-height:normal;letter-spacing:normal;word-spacing:normal;text-transform:none;direction:ltr;block-progression:tb;writing-mode:lr-tb;text-anchor:start;baseline-shift:baseline;color:#000000;fill:#ffffff;fill-opacity:1;stroke:none;stroke-width:5;marker:none;visibility:visible;display:inline;overflow:visible;enable-background:accumulate;font-family:Sans;-inkscape-font-specification:Sans" /><path
       inkscape:connector-curvature="0"
       id="path3089"
       d="m 44.375,15.0625 -4.5,2.15625 c 0,0 21.308601,44.536969 42.3125,89.4375 10.501949,22.45027 20.93574,44.98626 28.5625,62.09375 3.81338,8.55375 6.93359,15.76063 9,20.875 1.0332,2.55719 1.79903,4.59485 2.25,5.96875 0.22549,0.68695 0.35553,1.21724 0.40625,1.46875 0.0254,0.12576 0.0333,0.1818 0.0312,0.0625 -0.002,-0.1193 -0.19393,-0.49905 0.5,-1.34375 l 3.875,3.15625 c 0.7739,-0.94205 0.63157,-1.52142 0.625,-1.90625 -0.007,-0.38483 -0.064,-0.66617 -0.125,-0.96875 -0.12205,-0.60516 -0.30365,-1.24265 -0.5625,-2.03125 -0.51771,-1.57721 -1.32011,-3.6704 -2.375,-6.28125 -2.10977,-5.2217 -5.23689,-12.45008 -9.0625,-21.03125 C 107.66129,149.5564 97.227176,126.99536 86.71875,104.53125 65.701899,59.603031 44.375,15.0625 44.375,15.0625 z"
       style="font-size:medium;font-style:normal;font-variant:normal;font-weight:normal;font-stretch:normal;text-indent:0;text-align:start;text-decoration:none;line-height:normal;letter-spacing:normal;word-spacing:normal;text-transform:none;direction:ltr;block-progression:tb;writing-mode:lr-tb;text-anchor:start;baseline-shift:baseline;color:#000000;fill:#ffffff;fill-opacity:1;stroke:none;stroke-width:5;marker:none;visibility:visible;display:inline;overflow:visible;enable-background:accumulate;font-family:Sans;-inkscape-font-specification:Sans" /><path
       inkscape:connector-curvature="0"
       id="path3091"
       d="m 67.375,2.9375 -4.90625,1 c 0,0 19.663033,96.80917 79.5,187.5 l 4.15625,-2.75 C 86.911967,98.942328 67.375,2.9375 67.375,2.9375 z"
       style="font-size:medium;font-style:normal;font-variant:normal;font-weight:normal;font-stretch:normal;text-indent:0;text-align:start;text-decoration:none;line-height:normal;letter-spacing:normal;word-spacing:normal;text-transform:none;direction:ltr;block-progression:tb;writing-mode:lr-tb;text-anchor:start;baseline-shift:baseline;color:#000000;fill:#ffffff;fill-opacity:1;stroke:none;stroke-width:5;marker:none;visibility:visible;display:inline;overflow:visible;enable-background:accumulate;font-family:Sans;-inkscape-font-specification:Sans" /><path
       inkscape:connector-curvature="0"
       id="path3093"
       d="M 81.59375,0.9375 77.03125,3 c 0,0 18.360538,40.704405 37.1875,82.875 9.41348,21.0853 18.95825,42.52309 26.375,59.4375 3.70837,8.45721 6.88205,15.77641 9.25,21.34375 2.36795,5.56734 3.96494,9.52138 4.34375,10.6875 l 4.75,-1.53125 c -0.58094,-1.78838 -2.11919,-5.4962 -4.5,-11.09375 -2.38081,-5.59755 -5.5687,-12.93952 -9.28125,-21.40625 -7.4251,-16.93346 -16.95911,-38.4093 -26.375,-59.5 C 99.949462,41.631095 81.59375,0.9375 81.59375,0.9375 z"
       style="font-size:medium;font-style:normal;font-variant:normal;font-weight:normal;font-stretch:normal;text-indent:0;text-align:start;text-decoration:none;line-height:normal;letter-spacing:normal;word-spacing:normal;text-transform:none;direction:ltr;block-progression:tb;writing-mode:lr-tb;text-anchor:start;baseline-shift:baseline;color:#000000;fill:#ffffff;fill-opacity:1;stroke:none;stroke-width:5;marker:none;visibility:visible;display:inline;overflow:visible;enable-background:accumulate;font-family:Sans;-inkscape-font-specification:Sans" /><path
       inkscape:connector-curvature="0"
       id="path3095"
       d="M 102.25,1.71875 97.625,3.6875 c 0,0 17.66695,41.514553 36.09375,83.0625 9.2134,20.77397 18.6263,41.54902 26.125,57.1875 3.74935,7.81924 7.0041,14.32709 9.5625,18.96875 1.2792,2.32083 2.36984,4.17158 3.3125,5.53125 0.47133,0.67983 0.89771,1.22805 1.375,1.71875 0.47729,0.4907 0.8872,1.18721 2.46875,1.25 l 0.1875,-4.96875 c 1.20061,0.0477 1.08495,0.40159 0.9375,0.25 -0.14745,-0.15159 -0.46304,-0.54462 -0.84375,-1.09375 -0.76142,-1.09825 -1.8274,-2.85293 -3.0625,-5.09375 -2.4702,-4.48164 -5.70921,-10.94343 -9.4375,-18.71875 -7.45658,-15.55064 -16.85928,-36.31147 -26.0625,-57.0625 -18.40645,-41.502053 -36.03125,-83 -36.03125,-83 z"
       style="font-size:medium;font-style:normal;font-variant:normal;font-weight:normal;font-stretch:normal;text-indent:0;text-align:start;text-decoration:none;line-height:normal;letter-spacing:normal;word-spacing:normal;text-transform:none;direction:ltr;block-progression:tb;writing-mode:lr-tb;text-anchor:start;baseline-shift:baseline;color:#000000;fill:#ffffff;fill-opacity:1;stroke:none;stroke-width:5;marker:none;visibility:visible;display:inline;overflow:visible;enable-background:accumulate;font-family:Sans;-inkscape-font-specification:Sans" /><path
       inkscape:connector-curvature="0"
       id="path3097"
       d="m 124.0625,0 -4.6875,1.75 c 0,0 13.85827,36.817897 28.625,73.5625 7.38337,18.372302 14.96835,36.72954 21.21875,50.5 3.1252,6.88523 5.90576,12.60832 8.1875,16.6875 1.14087,2.03959 2.14437,3.65179 3.09375,4.875 0.47469,0.61161 0.93573,1.13672 1.5,1.59375 0.56427,0.45703 1.32915,1.02223 2.625,0.90625 l -0.4375,-4.96875 c 0.83704,-0.0749 1.04449,0.24885 0.96875,0.1875 -0.0757,-0.0614 -0.35361,-0.35105 -0.6875,-0.78125 -0.66779,-0.8604 -1.61258,-2.32831 -2.6875,-4.25 -2.14984,-3.84337 -4.90465,-9.49303 -8,-16.3125 C 167.59055,110.11106 159.99451,91.775323 152.625,73.4375 137.88598,36.761853 124.0625,0 124.0625,0 z"
       style="font-size:medium;font-style:normal;font-variant:normal;font-weight:normal;font-stretch:normal;text-indent:0;text-align:start;text-decoration:none;line-height:normal;letter-spacing:normal;word-spacing:normal;text-transform:none;direction:ltr;block-progression:tb;writing-mode:lr-tb;text-anchor:start;baseline-shift:baseline;color:#000000;fill:#ffffff;fill-opacity:1;stroke:none;stroke-width:5;marker:none;visibility:visible;display:inline;overflow:visible;enable-background:accumulate;font-family:Sans;-inkscape-font-specification:Sans" /><path
       inkscape:connector-curvature="0"
       id="path3099"
       d="M 144.3125,6.8125 139.75,8.84375 c 0,0 14.66043,33.087965 29.4375,65.9375 7.38854,16.424768 14.82204,32.78652 20.4375,44.9375 2.80773,6.07549 5.1526,11.09608 6.84375,14.5625 0.84558,1.73321 1.52417,3.06847 2.03125,4 0.25354,0.46576 0.45302,0.81283 0.6875,1.15625 0.11724,0.17171 0.16864,0.3413 0.5625,0.6875 0.19693,0.1731 0.45656,0.5264 1.46875,0.625 0.50609,0.0493 1.24386,-0.12278 1.75,-0.5 0.50614,-0.37722 0.72698,-0.81614 0.84375,-1.125 l -4.65625,-1.78125 c 0.11109,-0.29383 0.31557,-0.72339 0.8125,-1.09375 0.49693,-0.37036 1.22536,-0.51681 1.71875,-0.46875 0.98678,0.0961 1.21731,0.42389 1.375,0.5625 0.31538,0.27722 0.26521,0.30352 0.25,0.28125 -0.0304,-0.0445 -0.22095,-0.32094 -0.4375,-0.71875 -0.4331,-0.79562 -1.07632,-2.11137 -1.90625,-3.8125 -1.65985,-3.40225 -4.01196,-8.40882 -6.8125,-14.46875 C 188.55518,105.50514 181.13509,89.135857 173.75,72.71875 158.97982,39.884535 144.3125,6.8125 144.3125,6.8125 z"
       style="font-size:medium;font-style:normal;font-variant:normal;font-weight:normal;font-stretch:normal;text-indent:0;text-align:start;text-decoration:none;line-height:normal;letter-spacing:normal;word-spacing:normal;text-transform:none;direction:ltr;block-progression:tb;writing-mode:lr-tb;text-anchor:start;baseline-shift:baseline;color:#000000;fill:#ffffff;fill-opacity:1;stroke:none;stroke-width:5;marker:none;visibility:visible;display:inline;overflow:visible;enable-background:accumulate;font-family:Sans;-inkscape-font-specification:Sans" /><path
       inkscape:connector-curvature="0"
       id="path3101"
       d="m 164.5625,15.5 -3.71875,3.34375 c -0.0688,-0.07598 0.35879,0.518328 0.8125,1.375 0.45371,0.856672 1.03469,2.044304 1.6875,3.46875 1.30562,2.848892 2.95461,6.695473 4.8125,11.1875 3.71578,8.984054 8.28337,20.538853 12.84375,32.03125 4.56038,11.492397 9.11545,22.911558 12.78125,31.65625 1.8329,4.37235 3.44649,8.07306 4.75,10.8125 0.65175,1.36972 1.2055,2.51548 1.71875,3.40625 0.51325,0.89077 0.59075,1.44842 1.84375,2.28125 l 2.78125,-4.15625 c 0.75313,0.50058 0.11833,0.0685 -0.28125,-0.625 -0.39958,-0.69349 -0.94289,-1.76033 -1.5625,-3.0625 -1.23922,-2.60433 -2.83874,-6.25813 -4.65625,-10.59375 -3.63501,-8.671246 -8.15938,-20.072647 -12.71875,-31.5625 -4.55937,-11.489853 -9.13447,-23.049867 -12.875,-32.09375 -1.87026,-4.521942 -3.55252,-8.421119 -4.90625,-11.375 -0.67687,-1.476941 -1.2541,-2.723411 -1.78125,-3.71875 -0.52715,-0.995339 -0.88486,-1.660773 -1.53125,-2.375 z"
       style="font-size:medium;font-style:normal;font-variant:normal;font-weight:normal;font-stretch:normal;text-indent:0;text-align:start;text-decoration:none;line-height:normal;letter-spacing:normal;word-spacing:normal;text-transform:none;direction:ltr;block-progression:tb;writing-mode:lr-tb;text-anchor:start;baseline-shift:baseline;color:#000000;fill:#ffffff;fill-opacity:1;stroke:none;stroke-width:5;marker:none;visibility:visible;display:inline;overflow:visible;enable-background:accumulate;font-family:Sans;-inkscape-font-specification:Sans" /><path
       inkscape:connector-curvature="0"
       id="path3103"
       d="m 187.59375,38.96875 -4.875,1.15625 c 0,0 3.09875,13.097708 7.25,26.46875 2.07563,6.685521 4.42185,13.427783 6.8125,18.75 1.19533,2.661109 2.38167,4.991044 3.65625,6.8125 1.27458,1.821456 2.53612,3.339883 4.71875,3.84375 l 1.125,-4.875 c 0.12938,0.02987 -0.77614,-0.452042 -1.75,-1.84375 -0.97386,-1.391708 -2.09953,-3.477077 -3.21875,-5.96875 -2.23844,-4.983345 -4.51925,-11.606271 -6.5625,-18.1875 -4.0865,-13.162458 -7.15625,-26.15625 -7.15625,-26.15625 z"
       style="font-size:medium;font-style:normal;font-variant:normal;font-weight:normal;font-stretch:normal;text-indent:0;text-align:start;text-decoration:none;line-height:normal;letter-spacing:normal;word-spacing:normal;text-transform:none;direction:ltr;block-progression:tb;writing-mode:lr-tb;text-anchor:start;baseline-shift:baseline;color:#000000;fill:#ffffff;fill-opacity:1;stroke:none;stroke-width:5;marker:none;visibility:visible;display:inline;overflow:visible;enable-background:accumulate;font-family:Sans;-inkscape-font-specification:Sans" /></g><g
     id="Calque_1" /></svg>