<?xml version="1.0" encoding="UTF-8" standalone="no"?>
<!-- Generator: Adobe Illustrator 19.1.1, SVG Export Plug-In . SVG Version: 6.00 Build 0)  -->

<svg
   xmlns:dc="http://purl.org/dc/elements/1.1/"
   xmlns:cc="http://creativecommons.org/ns#"
   xmlns:rdf="http://www.w3.org/1999/02/22-rdf-syntax-ns#"
   xmlns:svg="http://www.w3.org/2000/svg"
   xmlns="http://www.w3.org/2000/svg"
   xmlns:sodipodi="http://sodipodi.sourceforge.net/DTD/sodipodi-0.dtd"
   xmlns:inkscape="http://www.inkscape.org/namespaces/inkscape"
   version="1.1"
   x="0px"
   y="0px"
   width="202.227px"
   height="203.391px"
   viewBox="0 0 202.227 203.391"
   style="enable-background:new 0 0 202.227 203.391;"
   xml:space="preserve"
   id="svg3044"
   inkscape:version="0.91 r13725"
   sodipodi:docname="LineCircle2.svg"><metadata
     id="metadata3076"><rdf:RDF><cc:Work
         rdf:about=""><dc:format>image/svg+xml</dc:format><dc:type
           rdf:resource="http://purl.org/dc/dcmitype/StillImage" /></cc:Work></rdf:RDF></metadata><defs
     id="defs3074" /><sodipodi:namedview
     pagecolor="#ffffff"
     bordercolor="#666666"
     borderopacity="1"
     objecttolerance="10"
     gridtolerance="10"
     guidetolerance="10"
     inkscape:pageopacity="0"
     inkscape:pageshadow="2"
     inkscape:window-width="1855"
     inkscape:window-height="1056"
     id="namedview3072"
     showgrid="true"
     inkscape:zoom="1.1603266"
     inkscape:cx="-200.09479"
     inkscape:cy="101.6955"
     inkscape:window-x="65"
     inkscape:window-y="24"
     inkscape:window-maximized="1"
     inkscape:current-layer="svg3044"><inkscape:grid
       type="xygrid"
       id="grid4836" /></sodipodi:namedview><g
     id="Calque_1" /><path
     style="color:#000000;font-style:normal;font-variant:normal;font-weight:normal;font-stretch:normal;font-size:medium;line-height:normal;font-family:sans-serif;text-indent:0;text-align:start;text-decoration:none;text-decoration-line:none;text-decoration-style:solid;text-decoration-color:#000000;letter-spacing:normal;word-spacing:normal;text-transform:none;direction:ltr;block-progression:tb;writing-mode:lr-tb;baseline-shift:baseline;text-anchor:start;white-space:normal;clip-rule:nonzero;display:inline;overflow:visible;visibility:visible;opacity:1;isolation:auto;mix-blend-mode:normal;color-interpolation:sRGB;color-interpolation-filters:linearRGB;solid-color:#000000;solid-opacity:1;fill:#b74137;fill-opacity:1;fill-rule:nonzero;stroke:none;stroke-width:5;stroke-linecap:round;stroke-linejoin:round;stroke-miterlimit:10;stroke-dasharray:none;stroke-dashoffset:0;stroke-opacity:1;color-rendering:auto;image-rendering:auto;shape-rendering:auto;text-rendering:auto;enable-background:accumulate"
     d="m -80.056641,-65.261719 a 2.50025,2.50025 0 0 0 -2.466797,1.646485 c 0,0 -6.774635,17.89233 -12.722656,36.679687 -2.97401,9.393679 -5.742546,19.0056743 -7.369136,26.81445325 -0.8133,3.90438945 -1.348,7.34726865 -1.45704,10.19531275 -0.10903,2.848044 -0.1365,5.232638 1.75391,7.166015 a 2.5005836,2.5005836 0 1 0 3.576172,-3.496093 c 0.220783,0.2258 -0.424475,-1.114896 -0.333984,-3.478516 0.09049,-2.3636199 0.574498,-5.6179787 1.355469,-9.3671875 1.561942,-7.4984177 4.295195,-17.0158785 7.242187,-26.3242185 5.893985,-18.616681 12.63086,-36.419922 12.63086,-36.419922 a 2.50025,2.50025 0 0 0 -2.208985,-3.416016 z"
     id="path3149"
     inkscape:connector-curvature="0" /><path
     style="color:#000000;font-style:normal;font-variant:normal;font-weight:normal;font-stretch:normal;font-size:medium;line-height:normal;font-family:sans-serif;text-indent:0;text-align:start;text-decoration:none;text-decoration-line:none;text-decoration-style:solid;text-decoration-color:#000000;letter-spacing:normal;word-spacing:normal;text-transform:none;direction:ltr;block-progression:tb;writing-mode:lr-tb;baseline-shift:baseline;text-anchor:start;white-space:normal;clip-rule:nonzero;display:inline;overflow:visible;visibility:visible;opacity:1;isolation:auto;mix-blend-mode:normal;color-interpolation:sRGB;color-interpolation-filters:linearRGB;solid-color:#000000;solid-opacity:1;fill:#b74137;fill-opacity:1;fill-rule:nonzero;stroke:none;stroke-width:5;stroke-linecap:round;stroke-linejoin:round;stroke-miterlimit:10;stroke-dasharray:none;stroke-dashoffset:0;stroke-opacity:1;color-rendering:auto;image-rendering:auto;shape-rendering:auto;text-rendering:auto;enable-background:accumulate"
     d="m -61.734375,-81.082031 a 2.50025,2.50025 0 0 0 -2.369141,1.783203 c 0,0 -8.510755,27.040733 -16.082031,55.228516 -3.785638,14.0938906 -7.338335,28.4705917 -9.484375,39.972656 -1.07302,5.751032 -1.797478,10.774227 -2.013672,14.773437 -0.108097,1.999605 -0.09381,3.74058 0.103516,5.259766 0.197326,1.519186 0.497099,2.869803 1.521484,4.078125 a 2.5005616,2.5005616 0 1 0 3.814453,-3.234375 c 0.07913,0.09333 -0.241454,-0.445093 -0.376953,-1.488281 -0.135499,-1.043189 -0.166091,-2.537826 -0.06836,-4.345704 0.195464,-3.615754 0.884977,-8.494291 1.935547,-14.125 2.10114,-11.2614172 5.630648,-25.5663111 9.398437,-39.59375 7.535578,-28.054876 16.021485,-55.02539 16.021485,-55.02539 a 2.50025,2.50025 0 0 0 -2.400391,-3.283203 z"
     id="path3151"
     inkscape:connector-curvature="0" /><path
     style="color:#000000;font-style:normal;font-variant:normal;font-weight:normal;font-stretch:normal;font-size:medium;line-height:normal;font-family:sans-serif;text-indent:0;text-align:start;text-decoration:none;text-decoration-line:none;text-decoration-style:solid;text-decoration-color:#000000;letter-spacing:normal;word-spacing:normal;text-transform:none;direction:ltr;block-progression:tb;writing-mode:lr-tb;baseline-shift:baseline;text-anchor:start;white-space:normal;clip-rule:nonzero;display:inline;overflow:visible;visibility:visible;opacity:1;isolation:auto;mix-blend-mode:normal;color-interpolation:sRGB;color-interpolation-filters:linearRGB;solid-color:#000000;solid-opacity:1;fill:#b74137;fill-opacity:1;fill-rule:nonzero;stroke:none;stroke-width:5;stroke-linecap:round;stroke-linejoin:round;stroke-miterlimit:10;stroke-dasharray:none;stroke-dashoffset:0;stroke-opacity:1;color-rendering:auto;image-rendering:auto;shape-rendering:auto;text-rendering:auto;enable-background:accumulate"
     d="m -37.349609,-100.54297 a 2.50025,2.50025 0 0 0 -2.410157,1.728517 c 0,0 -12.971688,38.161692 -24.255859,78.160156 -5.642086,19.99923242 -10.864978,40.45273 -13.84375,56.917969 -1.489386,8.232619 -2.422226,15.458369 -2.546875,21.232422 -0.124649,5.774053 0.203441,10.180175 2.925781,13.070312 a 2.50025,2.50025 0 1 0 3.640625,-3.427734 c -0.666442,-0.70752 -1.683177,-4.214559 -1.568359,-9.533203 0.114817,-5.318645 1.006036,-12.365981 2.46875,-20.451172 2.925428,-16.170382 8.117365,-36.5338993 13.736328,-56.451172 11.237927,-39.834545 24.177734,-77.908203 24.177734,-77.908203 a 2.50025,2.50025 0 0 0 -2.324218,-3.337892 z"
     id="path3153"
     inkscape:connector-curvature="0" /><path
     style="color:#000000;font-style:normal;font-variant:normal;font-weight:normal;font-stretch:normal;font-size:medium;line-height:normal;font-family:sans-serif;text-indent:0;text-align:start;text-decoration:none;text-decoration-line:none;text-decoration-style:solid;text-decoration-color:#000000;letter-spacing:normal;word-spacing:normal;text-transform:none;direction:ltr;block-progression:tb;writing-mode:lr-tb;baseline-shift:baseline;text-anchor:start;white-space:normal;clip-rule:nonzero;display:inline;overflow:visible;visibility:visible;opacity:1;isolation:auto;mix-blend-mode:normal;color-interpolation:sRGB;color-interpolation-filters:linearRGB;solid-color:#000000;solid-opacity:1;fill:#b74137;fill-opacity:1;fill-rule:nonzero;stroke:none;stroke-width:5;stroke-linecap:round;stroke-linejoin:round;stroke-miterlimit:10;stroke-dasharray:none;stroke-dashoffset:0;stroke-opacity:1;color-rendering:auto;image-rendering:auto;shape-rendering:auto;text-rendering:auto;enable-background:accumulate"
     d="m -16.078125,-106.32617 a 2.50025,2.50025 0 0 0 -2.349609,1.80859 c 0,0 -13.004491,42.994558 -25.583985,87.281252 -6.289747,22.1433467 -12.474046,44.609049 -16.878906,62.214844 -2.20243,8.802897 -3.95908,16.385794 -5.068359,22.148437 -0.55464,2.881322 -0.9494,5.301754 -1.154297,7.242188 -0.204898,1.940433 -0.396807,3.200155 0.136719,4.791015 a 2.50025,2.50025 0 1 0 4.740234,-1.589844 c 0.104454,0.311459 -0.08406,-0.973339 0.0957,-2.675781 0.179767,-1.702442 0.551005,-4.023028 1.089844,-6.822265 1.077677,-5.598474 2.821472,-13.126657 5.011719,-21.88086 4.380493,-17.508405 10.553735,-39.9437628 16.835937,-62.060547 12.564403,-44.233567 25.560547,-87.201169 25.560547,-87.201169 a 2.50025,2.50025 0 0 0 -2.435547,-3.25586 z"
     id="path3155"
     inkscape:connector-curvature="0" /><path
     style="color:#000000;font-style:normal;font-variant:normal;font-weight:normal;font-stretch:normal;font-size:medium;line-height:normal;font-family:sans-serif;text-indent:0;text-align:start;text-decoration:none;text-decoration-line:none;text-decoration-style:solid;text-decoration-color:#000000;letter-spacing:normal;word-spacing:normal;text-transform:none;direction:ltr;block-progression:tb;writing-mode:lr-tb;baseline-shift:baseline;text-anchor:start;white-space:normal;clip-rule:nonzero;display:inline;overflow:visible;visibility:visible;opacity:1;isolation:auto;mix-blend-mode:normal;color-interpolation:sRGB;color-interpolation-filters:linearRGB;solid-color:#000000;solid-opacity:1;fill:#b74137;fill-opacity:1;fill-rule:nonzero;stroke:none;stroke-width:5;stroke-linecap:round;stroke-linejoin:round;stroke-miterlimit:10;stroke-dasharray:none;stroke-dashoffset:0;stroke-opacity:1;color-rendering:auto;image-rendering:auto;shape-rendering:auto;text-rendering:auto;enable-background:accumulate"
     d="m 5.890625,-107.48633 a 2.50025,2.50025 0 0 0 -2.4980469,1.93945 c 0,0 -11.7267874,47.94933 -23.9453121,95.9902394 -6.109263,24.0204546 -12.342966,48.0651496 -17.289063,66.1308596 -2.473048,9.032855 -4.625634,16.576396 -6.269531,21.841797 -0.821949,2.6327 -1.520818,4.704274 -2.042969,6.052734 -0.246128,0.635628 -0.445879,1.0792 -0.570312,1.322266 a 2.50025,2.50025 0 0 0 2.166015,4.324218 c 1.195715,-0.237998 1.45058,-0.774377 1.689453,-1.076172 0.238874,-0.301794 0.380778,-0.553472 0.525391,-0.826171 0.289226,-0.5454 0.551854,-1.165453 0.851562,-1.939453 0.599417,-1.548001 1.315099,-3.679238 2.154297,-6.367188 1.678397,-5.375901 3.837381,-12.9499 6.31836,-22.011719 4.961956,-18.123638 11.19947,-42.183483 17.3125,-66.2187498 C -3.4809714,-56.394753 8.2480469,-104.35937 8.2480469,-104.35938 A 2.50025,2.50025 0 0 0 5.890625,-107.48633 Z M -46.46875,85.591797 a 2.50025,2.50025 0 0 0 -0.109375,0.08008 c 0.03086,-0.03175 0.06555,-0.04633 0.109375,-0.08008 z"
     id="path3157"
     inkscape:connector-curvature="0" /><path
     style="color:#000000;font-style:normal;font-variant:normal;font-weight:normal;font-stretch:normal;font-size:medium;line-height:normal;font-family:sans-serif;text-indent:0;text-align:start;text-decoration:none;text-decoration-line:none;text-decoration-style:solid;text-decoration-color:#000000;letter-spacing:normal;word-spacing:normal;text-transform:none;direction:ltr;block-progression:tb;writing-mode:lr-tb;baseline-shift:baseline;text-anchor:start;white-space:normal;clip-rule:nonzero;display:inline;overflow:visible;visibility:visible;opacity:1;isolation:auto;mix-blend-mode:normal;color-interpolation:sRGB;color-interpolation-filters:linearRGB;solid-color:#000000;solid-opacity:1;fill:#b74137;fill-opacity:1;fill-rule:nonzero;stroke:none;stroke-width:5;stroke-linecap:round;stroke-linejoin:round;stroke-miterlimit:10;stroke-dasharray:none;stroke-dashoffset:0;stroke-opacity:1;color-rendering:auto;image-rendering:auto;shape-rendering:auto;text-rendering:auto;enable-background:accumulate"
     d="m 31.453125,-102.85742 a 2.50025,2.50025 0 0 0 -2.154297,1.36133 c 0,0 -46.176748,87.328279 -57.388672,195.400387 a 2.5006306,2.5006306 0 1 0 4.97461,0.515625 C -12.02022,-12.525291 33.71875,-99.160156 33.71875,-99.160156 a 2.50025,2.50025 0 0 0 -2.265625,-3.697264 z"
     id="path3159"
     inkscape:connector-curvature="0" /><path
     style="color:#000000;font-style:normal;font-variant:normal;font-weight:normal;font-stretch:normal;font-size:medium;line-height:normal;font-family:sans-serif;text-indent:0;text-align:start;text-decoration:none;text-decoration-line:none;text-decoration-style:solid;text-decoration-color:#000000;letter-spacing:normal;word-spacing:normal;text-transform:none;direction:ltr;block-progression:tb;writing-mode:lr-tb;baseline-shift:baseline;text-anchor:start;white-space:normal;clip-rule:nonzero;display:inline;overflow:visible;visibility:visible;opacity:1;isolation:auto;mix-blend-mode:normal;color-interpolation:sRGB;color-interpolation-filters:linearRGB;solid-color:#000000;solid-opacity:1;fill:#b74137;fill-opacity:1;fill-rule:nonzero;stroke:none;stroke-width:5;stroke-linecap:round;stroke-linejoin:round;stroke-miterlimit:10;stroke-dasharray:none;stroke-dashoffset:0;stroke-opacity:1;color-rendering:auto;image-rendering:auto;shape-rendering:auto;text-rendering:auto;enable-background:accumulate"
     d="m 43.458984,-94.863281 a 2.50025,2.50025 0 0 0 -2.292968,1.880859 c 0,0 -11.605709,43.10472 -23.777344,87.654297 C 11.302854,16.946663 5.0740137,39.583937 0.08789062,57.367188 -2.4051709,66.258813 -4.5873361,73.937262 -6.2851562,79.744141 -7.9829764,85.551019 -9.2549229,89.62361 -9.7011719,90.765625 a 2.50025,2.50025 0 1 0 4.65625,1.820313 c 0.6843708,-1.751404 1.8515582,-5.599104 3.5585938,-11.4375 C 0.22070744,75.310041 2.4064745,67.618436 4.9023438,58.716797 9.8940822,40.913519 16.12356,18.270733 22.210938,-4.0097656 34.385693,-48.570762 45.994141,-91.681641 45.994141,-91.681641 a 2.50025,2.50025 0 0 0 -2.535157,-3.18164 z"
     id="path3161"
     inkscape:connector-curvature="0" /><path
     style="color:#000000;font-style:normal;font-variant:normal;font-weight:normal;font-stretch:normal;font-size:medium;line-height:normal;font-family:sans-serif;text-indent:0;text-align:start;text-decoration:none;text-decoration-line:none;text-decoration-style:solid;text-decoration-color:#000000;letter-spacing:normal;word-spacing:normal;text-transform:none;direction:ltr;block-progression:tb;writing-mode:lr-tb;baseline-shift:baseline;text-anchor:start;white-space:normal;clip-rule:nonzero;display:inline;overflow:visible;visibility:visible;opacity:1;isolation:auto;mix-blend-mode:normal;color-interpolation:sRGB;color-interpolation-filters:linearRGB;solid-color:#000000;solid-opacity:1;fill:#b74137;fill-opacity:1;fill-rule:nonzero;stroke:none;stroke-width:5;stroke-linecap:round;stroke-linejoin:round;stroke-miterlimit:10;stroke-dasharray:none;stroke-dashoffset:0;stroke-opacity:1;color-rendering:auto;image-rendering:auto;shape-rendering:auto;text-rendering:auto;enable-background:accumulate"
     d="m 58.990234,-81.230469 a 2.50025,2.50025 0 0 0 -2.333984,1.832031 c 0,0 -12.651864,43.295023 -24.738281,87.1093755 C 25.87476,29.618114 19.973286,51.65356 15.859375,68.501953 13.80242,76.92615 12.192248,84.046128 11.228516,89.257812 c -0.481866,2.605843 -0.804644,4.723913 -0.9375,6.373047 -0.06643,0.824568 -0.09128,1.523013 -0.0332,2.205079 0.05808,0.682065 -0.08376,1.470352 1.09961,2.521482 a 2.50025,2.50025 0 0 0 3.884766,-3.035154 c -0.01446,-0.232067 -0.01696,-0.668313 0.0332,-1.291016 0.107312,-1.332067 0.403887,-3.349231 0.86914,-5.865234 C 17.075037,85.13401 18.671395,78.064379 20.716797,69.6875 24.807601,52.933741 30.699795,30.923993 36.736328,9.0410156 48.809395,-34.724939 61.457031,-77.996094 61.457031,-77.996094 a 2.50025,2.50025 0 0 0 -2.466797,-3.234375 z"
     id="path3163"
     inkscape:connector-curvature="0" /><path
     style="color:#000000;font-style:normal;font-variant:normal;font-weight:normal;font-stretch:normal;font-size:medium;line-height:normal;font-family:sans-serif;text-indent:0;text-align:start;text-decoration:none;text-decoration-line:none;text-decoration-style:solid;text-decoration-color:#000000;letter-spacing:normal;word-spacing:normal;text-transform:none;direction:ltr;block-progression:tb;writing-mode:lr-tb;baseline-shift:baseline;text-anchor:start;white-space:normal;clip-rule:nonzero;display:inline;overflow:visible;visibility:visible;opacity:1;isolation:auto;mix-blend-mode:normal;color-interpolation:sRGB;color-interpolation-filters:linearRGB;solid-color:#000000;solid-opacity:1;fill:#b74137;fill-opacity:1;fill-rule:nonzero;stroke:none;stroke-width:5;stroke-linecap:round;stroke-linejoin:round;stroke-miterlimit:10;stroke-dasharray:none;stroke-dashoffset:0;stroke-opacity:1;color-rendering:auto;image-rendering:auto;shape-rendering:auto;text-rendering:auto;enable-background:accumulate"
     d="m 77.095703,-68.833984 a 2.50025,2.50025 0 0 0 -2.408203,1.730468 c 0,0 -12.629723,37.242227 -24.501953,75.0214848 C 44.249432,26.807598 38.502616,45.82711 34.607422,60.439453 c -1.947597,7.306172 -3.430814,13.500283 -4.251953,18.101563 -0.41057,2.300639 -0.661967,4.190418 -0.703125,5.738281 -0.02058,0.773931 0.0018,1.456802 0.148437,2.167969 0.146687,0.711166 0.375438,1.635426 1.451172,2.367187 a 2.50025,2.50025 0 0 0 3.4375,-3.541015 c -0.02061,-0.15564 -0.05122,-0.404058 -0.03906,-0.861329 0.02895,-1.088757 0.240117,-2.824543 0.626953,-4.992187 0.77367,-4.335288 2.233114,-10.455016 4.162109,-17.691406 C 43.297444,47.255734 49.030103,28.272149 54.955078,9.4179688 66.805029,-28.290391 79.421875,-65.498047 79.421875,-65.498047 a 2.50025,2.50025 0 0 0 -2.326172,-3.335937 z"
     id="path3165"
     inkscape:connector-curvature="0" /><path
     style="color:#000000;font-style:normal;font-variant:normal;font-weight:normal;font-stretch:normal;font-size:medium;line-height:normal;font-family:sans-serif;text-indent:0;text-align:start;text-decoration:none;text-decoration-line:none;text-decoration-style:solid;text-decoration-color:#000000;letter-spacing:normal;word-spacing:normal;text-transform:none;direction:ltr;block-progression:tb;writing-mode:lr-tb;baseline-shift:baseline;text-anchor:start;white-space:normal;clip-rule:nonzero;display:inline;overflow:visible;visibility:visible;opacity:1;isolation:auto;mix-blend-mode:normal;color-interpolation:sRGB;color-interpolation-filters:linearRGB;solid-color:#000000;solid-opacity:1;fill:#b74137;fill-opacity:1;fill-rule:nonzero;stroke:none;stroke-width:5;stroke-linecap:round;stroke-linejoin:round;stroke-miterlimit:10;stroke-dasharray:none;stroke-dashoffset:0;stroke-opacity:1;color-rendering:auto;image-rendering:auto;shape-rendering:auto;text-rendering:auto;enable-background:accumulate"
     d="m 88.246094,-50.582031 a 2.50025,2.50025 0 0 0 -2.304688,1.867187 c 0,0 -9.616619,34.898525 -19.011718,69.671875 -4.69755,17.386675 -9.339571,34.741885 -12.699219,47.699219 -1.679824,6.478667 -3.038274,11.854436 -3.927735,15.607422 -0.44473,1.876493 -0.770425,3.338966 -0.96875,4.380859 -0.09916,0.520947 -0.168725,0.913884 -0.205078,1.328125 -0.01818,0.207121 -0.06366,0.35953 0.02148,0.876953 0.04257,0.258712 3.79e-4,0.70007 0.720703,1.417969 0.360162,0.358949 1.035443,0.703315 1.666015,0.732422 0.630573,0.02911 1.096717,-0.171084 1.382813,-0.335938 a 2.50025,2.50025 0 0 0 1.246094,-2.59375 c 0.02247,-0.149957 0.02999,-0.229049 0.08008,-0.492187 0.16939,-0.889886 0.485376,-2.320351 0.921875,-4.162109 0.872996,-3.683517 2.226822,-9.043786 3.902343,-15.50586 3.351044,-12.924147 7.992142,-30.269871 12.6875,-47.648437 9.390718,-34.757133 19.003907,-69.646485 19.003907,-69.646485 a 2.50025,2.50025 0 0 0 -2.515625,-3.197265 z"
     id="path3167"
     inkscape:connector-curvature="0" /><path
     style="color:#000000;font-style:normal;font-variant:normal;font-weight:normal;font-stretch:normal;font-size:medium;line-height:normal;font-family:sans-serif;text-indent:0;text-align:start;text-decoration:none;text-decoration-line:none;text-decoration-style:solid;text-decoration-color:#000000;letter-spacing:normal;word-spacing:normal;text-transform:none;direction:ltr;block-progression:tb;writing-mode:lr-tb;baseline-shift:baseline;text-anchor:start;white-space:normal;clip-rule:nonzero;display:inline;overflow:visible;visibility:visible;opacity:1;isolation:auto;mix-blend-mode:normal;color-interpolation:sRGB;color-interpolation-filters:linearRGB;solid-color:#000000;solid-opacity:1;fill:#b74137;fill-opacity:1;fill-rule:nonzero;stroke:none;stroke-width:5;stroke-linecap:round;stroke-linejoin:round;stroke-miterlimit:10;stroke-dasharray:none;stroke-dashoffset:0;stroke-opacity:1;color-rendering:auto;image-rendering:auto;shape-rendering:auto;text-rendering:auto;enable-background:accumulate"
     d="m 98.517578,-30.257812 a 2.50025,2.50025 0 0 0 -2.585937,2.65625 c -0.005,-0.10235 -0.04808,0.637725 -0.240235,1.58789 -0.192155,0.950165 -0.498394,2.220831 -0.896484,3.736328 -0.796179,3.030994 -1.964347,7.049277 -3.375,11.701172 -2.821307,9.3037902 -6.610977,21.148582 -10.369141,32.927734 -3.758163,11.779153 -7.48513,23.493098 -10.193359,32.580079 -1.354115,4.54349 -2.453212,8.424138 -3.181641,11.36914 -0.364214,1.472502 -0.63501,2.706421 -0.802734,3.720703 -0.167724,1.014283 -0.464572,1.506906 -0.02344,2.945313 A 2.50025,2.50025 0 1 0 71.628906,71.5 c 0.265148,0.864567 0.0452,0.127533 0.175782,-0.662109 0.130577,-0.789643 0.378357,-1.936057 0.724609,-3.335938 0.692504,-2.799761 1.778352,-6.637248 3.121094,-11.142578 2.685483,-9.010659 6.40673,-20.711735 10.164062,-32.488281 3.757332,-11.776546 7.55053,-23.63034594 10.390625,-32.996094 1.420048,-4.682874 2.600261,-8.740119 3.425781,-11.882812 0.412761,-1.571347 0.737681,-2.91166 0.960941,-4.015626 0.22326,-1.103965 0.38114,-1.86208 0.33398,-2.824218 a 2.50025,2.50025 0 0 0 -2.408202,-2.410156 z"
     id="path3169"
     inkscape:connector-curvature="0" /><path
     style="color:#000000;font-style:normal;font-variant:normal;font-weight:normal;font-stretch:normal;font-size:medium;line-height:normal;font-family:sans-serif;text-indent:0;text-align:start;text-decoration:none;text-decoration-line:none;text-decoration-style:solid;text-decoration-color:#000000;letter-spacing:normal;word-spacing:normal;text-transform:none;direction:ltr;block-progression:tb;writing-mode:lr-tb;baseline-shift:baseline;text-anchor:start;white-space:normal;clip-rule:nonzero;display:inline;overflow:visible;visibility:visible;opacity:1;isolation:auto;mix-blend-mode:normal;color-interpolation:sRGB;color-interpolation-filters:linearRGB;solid-color:#000000;solid-opacity:1;fill:#b74137;fill-opacity:1;fill-rule:nonzero;stroke:none;stroke-width:5;stroke-linecap:round;stroke-linejoin:round;stroke-miterlimit:10;stroke-dasharray:none;stroke-dashoffset:0;stroke-opacity:1;color-rendering:auto;image-rendering:auto;shape-rendering:auto;text-rendering:auto;enable-background:accumulate"
     d="m 101.70508,1.2910156 a 2.50025,2.50025 0 0 0 -2.359377,1.4355469 c 0,0 -5.896628,12.0916985 -11.162109,25.0644535 -2.632741,6.486377 -5.109885,13.186667 -6.634766,18.818359 -0.762441,2.815846 -1.294015,5.357522 -1.46289,7.574219 -0.168876,2.216697 -0.163567,4.214991 1.205078,5.988281 A 2.50025,2.50025 0 1 0 85.25,57.117188 C 85.331129,57.222303 84.943234,56.256198 85.072266,54.5625 85.201298,52.868802 85.661105,50.552574 86.375,47.916016 87.80279,42.6429 90.224736,36.057067 92.816406,29.671875 97.999748,16.901491 103.83984,4.9179687 103.83984,4.9179688 a 2.50025,2.50025 0 0 0 -2.13476,-3.6269532 z"
     id="path3171"
     inkscape:connector-curvature="0" /></svg>