<?xml version="1.0" encoding="UTF-8" standalone="no"?>
<!-- Generator: Adobe Illustrator 19.1.1, SVG Export Plug-In . SVG Version: 6.00 Build 0)  -->

<svg
   xmlns:dc="http://purl.org/dc/elements/1.1/"
   xmlns:cc="http://creativecommons.org/ns#"
   xmlns:rdf="http://www.w3.org/1999/02/22-rdf-syntax-ns#"
   xmlns:svg="http://www.w3.org/2000/svg"
   xmlns="http://www.w3.org/2000/svg"
   xmlns:sodipodi="http://sodipodi.sourceforge.net/DTD/sodipodi-0.dtd"
   xmlns:inkscape="http://www.inkscape.org/namespaces/inkscape"
   version="1.1"
   x="0px"
   y="0px"
   width="206.29px"
   height="204.696px"
   viewBox="0 0 206.29 204.696"
   style="enable-background:new 0 0 206.29 204.696;"
   xml:space="preserve"
   id="svg3078"
   inkscape:version="0.91 r13725"
   sodipodi:docname="LineCircle3.svg"><metadata
     id="metadata3110"><rdf:RDF><cc:Work
         rdf:about=""><dc:format>image/svg+xml</dc:format><dc:type
           rdf:resource="http://purl.org/dc/dcmitype/StillImage" /></cc:Work></rdf:RDF></metadata><defs
     id="defs3108" /><sodipodi:namedview
     pagecolor="#ffffff"
     bordercolor="#666666"
     borderopacity="1"
     objecttolerance="10"
     gridtolerance="10"
     guidetolerance="10"
     inkscape:pageopacity="0"
     inkscape:pageshadow="2"
     inkscape:window-width="1855"
     inkscape:window-height="1056"
     id="namedview3106"
     showgrid="true"
     inkscape:zoom="1.1529292"
     inkscape:cx="-262.44552"
     inkscape:cy="206.43071"
     inkscape:window-x="65"
     inkscape:window-y="24"
     inkscape:window-maximized="1"
     inkscape:current-layer="svg3078"><inkscape:grid
       type="xygrid"
       id="grid4134" /></sodipodi:namedview><g
     id="Calque_1" /><path
     style="color:#000000;font-style:normal;font-variant:normal;font-weight:normal;font-stretch:normal;font-size:medium;line-height:normal;font-family:sans-serif;text-indent:0;text-align:start;text-decoration:none;text-decoration-line:none;text-decoration-style:solid;text-decoration-color:#000000;letter-spacing:normal;word-spacing:normal;text-transform:none;direction:ltr;block-progression:tb;writing-mode:lr-tb;baseline-shift:baseline;text-anchor:start;white-space:normal;clip-rule:nonzero;display:inline;overflow:visible;visibility:visible;opacity:1;isolation:auto;mix-blend-mode:normal;color-interpolation:sRGB;color-interpolation-filters:linearRGB;solid-color:#000000;solid-opacity:1;fill:#ffffff;fill-opacity:1;fill-rule:nonzero;stroke:none;stroke-width:2;stroke-linecap:round;stroke-linejoin:round;stroke-miterlimit:10;stroke-dasharray:none;stroke-dashoffset:0;stroke-opacity:1;color-rendering:auto;image-rendering:auto;shape-rendering:auto;text-rendering:auto;enable-background:accumulate"
     d="m -88.257812,-11.34375 a 1.0001,1.0001 0 0 0 -0.904297,1.330078 c 0,0 6.09536,18.106546 13.384765,36.357422 3.644703,9.125438 7.586324,18.285328 11.234375,25.271484 1.824026,3.493079 3.569865,6.441771 5.203125,8.597657 1.633261,2.155886 3.080006,3.646303 4.867188,3.84375 a 1.0002469,1.0002469 0 1 0 0.220703,-1.988282 c -0.586568,-0.0648 -1.977976,-1.063132 -3.494141,-3.064453 -1.516165,-2.001321 -3.230713,-4.877578 -5.02539,-8.314453 -3.589355,-6.87375 -7.517015,-15.995704 -11.148438,-25.087891 -7.262845,-18.1843735 -13.347656,-36.251953 -13.347656,-36.251953 a 1.0001,1.0001 0 0 0 -0.990234,-0.693359 z"
     id="path3149"
     inkscape:connector-curvature="0" /><path
     style="color:#000000;font-style:normal;font-variant:normal;font-weight:normal;font-stretch:normal;font-size:medium;line-height:normal;font-family:sans-serif;text-indent:0;text-align:start;text-decoration:none;text-decoration-line:none;text-decoration-style:solid;text-decoration-color:#000000;letter-spacing:normal;word-spacing:normal;text-transform:none;direction:ltr;block-progression:tb;writing-mode:lr-tb;baseline-shift:baseline;text-anchor:start;white-space:normal;clip-rule:nonzero;display:inline;overflow:visible;visibility:visible;opacity:1;isolation:auto;mix-blend-mode:normal;color-interpolation:sRGB;color-interpolation-filters:linearRGB;solid-color:#000000;solid-opacity:1;fill:#ffffff;fill-opacity:1;fill-rule:nonzero;stroke:none;stroke-width:2;stroke-linecap:round;stroke-linejoin:round;stroke-miterlimit:10;stroke-dasharray:none;stroke-dashoffset:0;stroke-opacity:1;color-rendering:auto;image-rendering:auto;shape-rendering:auto;text-rendering:auto;enable-background:accumulate"
     d="m -83.960938,-35.285156 a 1.0001,1.0001 0 0 0 -0.925781,1.384765 c 0,0 10.550922,26.289104 22.546875,52.851563 5.997977,13.281229 12.354967,26.63049 17.951172,36.822266 2.798103,5.095887 5.403292,9.399966 7.703125,12.537109 1.149917,1.568571 2.221645,2.845701 3.232422,3.796875 1.010777,0.951173 1.94925,1.613643 3.003906,1.80664 a 1.0001,1.0001 0 1 0 0.359375,-1.966796 c -0.383218,-0.07013 -1.121233,-0.47728 -1.992187,-1.296875 -0.870954,-0.819596 -1.885727,-2.014855 -2.990235,-3.521485 -2.209014,-3.01326 -4.787962,-7.265387 -7.5625,-12.318359 C -48.183842,44.704603 -54.530929,31.385052 -60.517578,18.128906 -72.490875,-8.3833848 -83.03125,-34.644531 -83.03125,-34.644531 a 1.0001,1.0001 0 0 0 -0.929688,-0.640625 z"
     id="path3151"
     inkscape:connector-curvature="0" /><path
     style="color:#000000;font-style:normal;font-variant:normal;font-weight:normal;font-stretch:normal;font-size:medium;line-height:normal;font-family:sans-serif;text-indent:0;text-align:start;text-decoration:none;text-decoration-line:none;text-decoration-style:solid;text-decoration-color:#000000;letter-spacing:normal;word-spacing:normal;text-transform:none;direction:ltr;block-progression:tb;writing-mode:lr-tb;baseline-shift:baseline;text-anchor:start;white-space:normal;clip-rule:nonzero;display:inline;overflow:visible;visibility:visible;opacity:1;isolation:auto;mix-blend-mode:normal;color-interpolation:sRGB;color-interpolation-filters:linearRGB;solid-color:#000000;solid-opacity:1;fill:#ffffff;fill-opacity:1;fill-rule:nonzero;stroke:none;stroke-width:2;stroke-linecap:round;stroke-linejoin:round;stroke-miterlimit:10;stroke-dasharray:none;stroke-dashoffset:0;stroke-opacity:1;color-rendering:auto;image-rendering:auto;shape-rendering:auto;text-rendering:auto;enable-background:accumulate"
     d="m -77.460938,-65.755859 a 1.0001,1.0001 0 0 0 -0.957031,1.363281 c 0,0 14.149933,37.71061 30.757813,75.751953 8.30394,19.020672 17.218555,38.123956 25.308594,52.667969 4.045019,7.272006 7.879856,13.402683 11.359374,17.839844 3.4795185,4.43716 6.5150713,7.297324 9.5605474,7.691406 a 1.0005263,1.0005263 0 1 0 0.2578125,-1.984375 C -3.0298522,87.334051 -6.0508849,84.926594 -9.4179688,80.632812 -12.785053,76.339031 -16.587628,70.274322 -20.603516,63.054688 -28.635291,48.615419 -37.537814,29.55 -45.828125,10.560547 -62.408747,-27.41836 -76.546875,-65.09375 -76.546875,-65.09375 a 1.0001,1.0001 0 0 0 -0.914063,-0.662109 z"
     id="path3153"
     inkscape:connector-curvature="0" /><path
     style="color:#000000;font-style:normal;font-variant:normal;font-weight:normal;font-stretch:normal;font-size:medium;line-height:normal;font-family:sans-serif;text-indent:0;text-align:start;text-decoration:none;text-decoration-line:none;text-decoration-style:solid;text-decoration-color:#000000;letter-spacing:normal;word-spacing:normal;text-transform:none;direction:ltr;block-progression:tb;writing-mode:lr-tb;baseline-shift:baseline;text-anchor:start;white-space:normal;clip-rule:nonzero;display:inline;overflow:visible;visibility:visible;opacity:1;isolation:auto;mix-blend-mode:normal;color-interpolation:sRGB;color-interpolation-filters:linearRGB;solid-color:#000000;solid-opacity:1;fill:#ffffff;fill-opacity:1;fill-rule:nonzero;stroke:none;stroke-width:2;stroke-linecap:round;stroke-linejoin:round;stroke-miterlimit:10;stroke-dasharray:none;stroke-dashoffset:0;stroke-opacity:1;color-rendering:auto;image-rendering:auto;shape-rendering:auto;text-rendering:auto;enable-background:accumulate"
     d="m -64.644531,-83.769531 a 1.0001,1.0001 0 0 0 -0.910157,1.396484 c 0,0 17.192974,41.488588 35.53125,83.6992189 9.169139,21.1053161 18.624297,42.3900181 26.3652349,58.7714841 3.87046872,8.190733 7.3108265,15.153592 10.0820312,20.269532 1.3856024,2.557969 2.6025973,4.65398 3.6347659,6.224609 1.032168,1.570629 1.774245,2.599757 2.685547,3.171875 a 1.0008929,1.0008929 0 0 0 1.064453,-1.695313 C 13.577021,87.922977 12.710065,86.982819 11.730469,85.492188 10.750872,84.001556 9.5532705,81.944585 8.1835938,79.416016 5.4442403,74.358877 2.012281,67.41672 -1.8496094,59.244141 -9.5733902,42.898982 -19.022763,21.624482 -28.1875,0.52929688 -46.516974,-41.661073 -63.707031,-83.138672 -63.707031,-83.138672 a 1.0001,1.0001 0 0 0 -0.9375,-0.630859 z"
     id="path3155"
     inkscape:connector-curvature="0" /><path
     style="color:#000000;font-style:normal;font-variant:normal;font-weight:normal;font-stretch:normal;font-size:medium;line-height:normal;font-family:sans-serif;text-indent:0;text-align:start;text-decoration:none;text-decoration-line:none;text-decoration-style:solid;text-decoration-color:#000000;letter-spacing:normal;word-spacing:normal;text-transform:none;direction:ltr;block-progression:tb;writing-mode:lr-tb;baseline-shift:baseline;text-anchor:start;white-space:normal;clip-rule:nonzero;display:inline;overflow:visible;visibility:visible;opacity:1;isolation:auto;mix-blend-mode:normal;color-interpolation:sRGB;color-interpolation-filters:linearRGB;solid-color:#000000;solid-opacity:1;fill:#ffffff;fill-opacity:1;fill-rule:nonzero;stroke:none;stroke-width:2;stroke-linecap:round;stroke-linejoin:round;stroke-miterlimit:10;stroke-dasharray:none;stroke-dashoffset:0;stroke-opacity:1;color-rendering:auto;image-rendering:auto;shape-rendering:auto;text-rendering:auto;enable-background:accumulate"
     d="m -48.429688,-98.519531 a 1.0001,1.0001 0 0 0 -0.933593,1.445312 c 0,0 21.328153,44.52085 42.3359372,89.4296878 C 3.4765484,14.809888 13.901063,37.362377 21.535156,54.486328 c 3.817047,8.561976 6.936207,15.769445 9.015625,20.916016 1.03971,2.573285 1.820023,4.633465 2.291016,6.068359 0.235496,0.717447 0.392722,1.283018 0.464844,1.640625 0.02969,0.147191 0.03683,0.227755 0.04102,0.28125 a 1.0001,1.0001 0 0 0 1.72461,0.951172 c 0.333551,-0.406022 0.287188,-0.692187 0.283203,-0.925781 -0.004,-0.233594 -0.03757,-0.45164 -0.08789,-0.701172 -0.100651,-0.499065 -0.276547,-1.111033 -0.52539,-1.869141 C 34.244501,79.33144 33.454632,77.247095 32.40625,74.652344 30.309485,69.462841 27.183266,62.244822 23.361328,53.671875 15.717453,36.525982 5.2896857,13.967769 -5.2167969,-8.4921875 -26.229762,-53.412101 -47.560547,-97.939453 -47.560547,-97.939453 a 1.0001,1.0001 0 0 0 -0.869141,-0.580078 z"
     id="path3157"
     inkscape:connector-curvature="0" /><path
     style="color:#000000;font-style:normal;font-variant:normal;font-weight:normal;font-stretch:normal;font-size:medium;line-height:normal;font-family:sans-serif;text-indent:0;text-align:start;text-decoration:none;text-decoration-line:none;text-decoration-style:solid;text-decoration-color:#000000;letter-spacing:normal;word-spacing:normal;text-transform:none;direction:ltr;block-progression:tb;writing-mode:lr-tb;baseline-shift:baseline;text-anchor:start;white-space:normal;clip-rule:nonzero;display:inline;overflow:visible;visibility:visible;opacity:1;isolation:auto;mix-blend-mode:normal;color-interpolation:sRGB;color-interpolation-filters:linearRGB;solid-color:#000000;solid-opacity:1;fill:#ffffff;fill-opacity:1;fill-rule:nonzero;stroke:none;stroke-width:2;stroke-linecap:round;stroke-linejoin:round;stroke-miterlimit:10;stroke-dasharray:none;stroke-dashoffset:0;stroke-opacity:1;color-rendering:auto;image-rendering:auto;shape-rendering:auto;text-rendering:auto;enable-background:accumulate"
     d="m -25.681641,-111.22852 a 1.0001,1.0001 0 0 0 -0.960937,1.2129 c 0,0 19.6138877,96.567473 79.263672,186.974604 a 1.0002598,1.0002598 0 1 0 1.669922,-1.101562 C -5.1091945,-14.171447 -24.683594,-110.41406 -24.683594,-110.41406 a 1.0001,1.0001 0 0 0 -0.998047,-0.81446 z"
     id="path3159"
     inkscape:connector-curvature="0" /><path
     style="color:#000000;font-style:normal;font-variant:normal;font-weight:normal;font-stretch:normal;font-size:medium;line-height:normal;font-family:sans-serif;text-indent:0;text-align:start;text-decoration:none;text-decoration-line:none;text-decoration-style:solid;text-decoration-color:#000000;letter-spacing:normal;word-spacing:normal;text-transform:none;direction:ltr;block-progression:tb;writing-mode:lr-tb;baseline-shift:baseline;text-anchor:start;white-space:normal;clip-rule:nonzero;display:inline;overflow:visible;visibility:visible;opacity:1;isolation:auto;mix-blend-mode:normal;color-interpolation:sRGB;color-interpolation-filters:linearRGB;solid-color:#000000;solid-opacity:1;fill:#ffffff;fill-opacity:1;fill-rule:nonzero;stroke:none;stroke-width:2;stroke-linecap:round;stroke-linejoin:round;stroke-miterlimit:10;stroke-dasharray:none;stroke-dashoffset:0;stroke-opacity:1;color-rendering:auto;image-rendering:auto;shape-rendering:auto;text-rendering:auto;enable-background:accumulate"
     d="m -11.302734,-112.69531 a 1.0001,1.0001 0 0 0 -0.867188,1.42383 c 0,0 18.3493242,40.69725 37.177734,82.871089 9.414206,21.08692 18.947936,42.542763 26.367188,59.462891 3.709626,8.460064 6.889908,15.786879 9.261719,21.363281 2.371811,5.576402 3.951175,9.4597 4.390625,10.8125 a 1.0001,1.0001 0 1 0 1.902344,-0.617187 C 66.409385,61.019394 64.855468,57.231067 62.478516,51.642578 60.101563,46.054089 56.918328,38.72364 53.207031,30.259766 45.784438,13.332018 36.249155,-8.1277153 26.833984,-29.216797 8.0036437,-71.39496 -10.347656,-112.09375 -10.347656,-112.09375 a 1.0001,1.0001 0 0 0 -0.955078,-0.60156 z"
     id="path3161"
     inkscape:connector-curvature="0" /><path
     style="color:#000000;font-style:normal;font-variant:normal;font-weight:normal;font-stretch:normal;font-size:medium;line-height:normal;font-family:sans-serif;text-indent:0;text-align:start;text-decoration:none;text-decoration-line:none;text-decoration-style:solid;text-decoration-color:#000000;letter-spacing:normal;word-spacing:normal;text-transform:none;direction:ltr;block-progression:tb;writing-mode:lr-tb;baseline-shift:baseline;text-anchor:start;white-space:normal;clip-rule:nonzero;display:inline;overflow:visible;visibility:visible;opacity:1;isolation:auto;mix-blend-mode:normal;color-interpolation:sRGB;color-interpolation-filters:linearRGB;solid-color:#000000;solid-opacity:1;fill:#ffffff;fill-opacity:1;fill-rule:nonzero;stroke:none;stroke-width:2;stroke-linecap:round;stroke-linejoin:round;stroke-miterlimit:10;stroke-dasharray:none;stroke-dashoffset:0;stroke-opacity:1;color-rendering:auto;image-rendering:auto;shape-rendering:auto;text-rendering:auto;enable-background:accumulate"
     d="m 9.3320312,-111.96094 a 1.0001,1.0001 0 0 0 -0.8984374,1.4043 c 0,0 17.6574262,41.499022 36.0781252,83.033202 9.210349,20.7670906 18.611591,41.542167 26.097656,57.154297 3.743033,7.806066 7.00517,14.320409 9.537109,18.914063 1.26597,2.296827 2.34609,4.109382 3.234375,5.390625 0.444143,0.640621 0.836509,1.148144 1.214844,1.537109 0.378336,0.388966 0.686692,0.769173 1.433594,0.798828 a 1.0001,1.0001 0 1 0 0.07813,-1.998046 c 0.365964,0.01453 0.168275,0.05801 -0.07813,-0.195313 -0.2464,-0.253323 -0.596011,-0.692911 -1.003906,-1.28125 -0.81579,-1.176677 -1.878624,-2.953928 -3.126953,-5.21875 -2.496659,-4.529643 -5.75172,-11.024002 -9.486329,-18.8125 C 64.942892,13.18863 55.546122,-7.5760732 46.339844,-28.333984 27.927287,-69.849807 10.275391,-111.33984 10.275391,-111.33984 a 1.0001,1.0001 0 0 0 -0.9433598,-0.6211 z"
     id="path3163"
     inkscape:connector-curvature="0" /><path
     style="color:#000000;font-style:normal;font-variant:normal;font-weight:normal;font-stretch:normal;font-size:medium;line-height:normal;font-family:sans-serif;text-indent:0;text-align:start;text-decoration:none;text-decoration-line:none;text-decoration-style:solid;text-decoration-color:#000000;letter-spacing:normal;word-spacing:normal;text-transform:none;direction:ltr;block-progression:tb;writing-mode:lr-tb;baseline-shift:baseline;text-anchor:start;white-space:normal;clip-rule:nonzero;display:inline;overflow:visible;visibility:visible;opacity:1;isolation:auto;mix-blend-mode:normal;color-interpolation:sRGB;color-interpolation-filters:linearRGB;solid-color:#000000;solid-opacity:1;fill:#ffffff;fill-opacity:1;fill-rule:nonzero;stroke:none;stroke-width:2;stroke-linecap:round;stroke-linejoin:round;stroke-miterlimit:10;stroke-dasharray:none;stroke-dashoffset:0;stroke-opacity:1;color-rendering:auto;image-rendering:auto;shape-rendering:auto;text-rendering:auto;enable-background:accumulate"
     d="m 31.152344,-113.7832 a 1.0001,1.0001 0 0 0 -0.955078,1.36523 c 0,0 13.837283,36.799521 28.595703,73.523439 7.37921,18.361958 14.988216,36.7045388 21.220703,50.435547 3.116244,6.865504 5.884785,12.573593 8.126953,16.582031 1.121084,2.004219 2.105802,3.580942 2.970703,4.695312 0.432451,0.557186 0.830339,0.999565 1.248047,1.337891 0.417708,0.338326 0.888938,0.64074 1.544922,0.582031 a 1.0001371,1.0001371 0 1 0 -0.179688,-1.992187 c 0.197172,-0.01765 0.116829,0.03552 -0.105468,-0.144532 C 93.396843,32.421511 93.067539,32.07642 92.691406,31.591797 91.939142,30.622552 90.981422,29.103541 89.886719,27.146484 87.697312,23.232371 84.938289,17.55209 81.833984,10.712891 75.625376,-2.9655088 68.022105,-21.292457 60.648438,-39.640625 45.901102,-76.33696 32.068359,-113.12109 32.068359,-113.12109 a 1.0001,1.0001 0 0 0 -0.916015,-0.66211 z"
     id="path3165"
     inkscape:connector-curvature="0" /><path
     style="color:#000000;font-style:normal;font-variant:normal;font-weight:normal;font-stretch:normal;font-size:medium;line-height:normal;font-family:sans-serif;text-indent:0;text-align:start;text-decoration:none;text-decoration-line:none;text-decoration-style:solid;text-decoration-color:#000000;letter-spacing:normal;word-spacing:normal;text-transform:none;direction:ltr;block-progression:tb;writing-mode:lr-tb;baseline-shift:baseline;text-anchor:start;white-space:normal;clip-rule:nonzero;display:inline;overflow:visible;visibility:visible;opacity:1;isolation:auto;mix-blend-mode:normal;color-interpolation:sRGB;color-interpolation-filters:linearRGB;solid-color:#000000;solid-opacity:1;fill:#ffffff;fill-opacity:1;fill-rule:nonzero;stroke:none;stroke-width:2;stroke-linecap:round;stroke-linejoin:round;stroke-miterlimit:10;stroke-dasharray:none;stroke-dashoffset:0;stroke-opacity:1;color-rendering:auto;image-rendering:auto;shape-rendering:auto;text-rendering:auto;enable-background:accumulate"
     d="m 51.400391,-106.82812 a 1.0001,1.0001 0 0 0 -0.875,1.41796 c 0,0 14.683977,33.082798 29.458984,65.927738 7.387503,16.42247 14.79706,32.7860879 20.408205,44.9277345 2.80557,6.0708235 5.16003,11.0840835 6.8418,14.5312495 0.84088,1.723584 1.51315,3.052606 1.99804,3.94336 0.24245,0.445377 0.43221,0.775539 0.60547,1.029297 0.0866,0.126878 0.14314,0.225592 0.32422,0.384765 0.0905,0.07959 0.19883,0.231301 0.61133,0.271485 0.20625,0.02009 0.50572,-0.04432 0.71094,-0.197266 0.20521,-0.152945 0.30119,-0.336793 0.3496,-0.464844 a 1.0001,1.0001 0 0 0 -0.39648,-1.210937 c -0.0983,-0.15125 -0.24489,-0.392222 -0.44922,-0.767578 -0.4553,-0.836392 -1.12046,-2.154484 -1.95508,-3.865235 -1.66924,-3.421501 -4.02152,-8.429541 -6.82422,-14.4941402 C 96.603594,-7.5237294 89.194719,-23.883328 81.808594,-40.302734 67.036344,-73.141547 52.353516,-106.2207 52.353516,-106.2207 a 1.0001,1.0001 0 0 0 -0.953125,-0.60742 z"
     id="path3167"
     inkscape:connector-curvature="0" /><path
     style="color:#000000;font-style:normal;font-variant:normal;font-weight:normal;font-stretch:normal;font-size:medium;line-height:normal;font-family:sans-serif;text-indent:0;text-align:start;text-decoration:none;text-decoration-line:none;text-decoration-style:solid;text-decoration-color:#000000;letter-spacing:normal;word-spacing:normal;text-transform:none;direction:ltr;block-progression:tb;writing-mode:lr-tb;baseline-shift:baseline;text-anchor:start;white-space:normal;clip-rule:nonzero;display:inline;overflow:visible;visibility:visible;opacity:1;isolation:auto;mix-blend-mode:normal;color-interpolation:sRGB;color-interpolation-filters:linearRGB;solid-color:#000000;solid-opacity:1;fill:#ffffff;fill-opacity:1;fill-rule:nonzero;stroke:none;stroke-width:2;stroke-linecap:round;stroke-linejoin:round;stroke-miterlimit:10;stroke-dasharray:none;stroke-dashoffset:0;stroke-opacity:1;color-rendering:auto;image-rendering:auto;shape-rendering:auto;text-rendering:auto;enable-background:accumulate"
     d="m 72.056641,-97.494141 a 1.0001,1.0001 0 0 0 -0.679688,1.681641 c 0.145783,0.161084 0.557463,0.787275 1.033203,1.685547 0.47574,0.898272 1.052864,2.093009 1.712891,3.533203 1.320053,2.880389 2.968474,6.741186 4.830078,11.242188 3.723208,9.002003 8.303204,20.568912 12.863281,32.060546 4.560077,11.491634 9.101244,22.908202 12.757814,31.63086 1.82828,4.361329 3.43453,8.0471859 4.71875,10.7460935 0.64211,1.3494538 1.20249,2.4516156 1.68164,3.2832031 0.47915,0.83158754 0.72774,1.35820962 1.37891,1.79101565 a 1.0002484,1.0002484 0 1 0 1.10742,-1.66601565 c 0.15129,0.1005561 -0.32023,-0.3723267 -0.75391,-1.125 -0.43368,-0.7526732 -0.98012,-1.8201451 -1.60937,-3.1425781 -1.25851,-2.644866 -2.85757,-6.3135165 -4.67969,-10.6601565 -3.64425,-8.693279 -8.182515,-20.105086 -12.742189,-31.595703 -4.559673,-11.490616 -9.139941,-23.060003 -12.873047,-32.085937 -1.866552,-4.512968 -3.522029,-8.388163 -4.861328,-11.310547 -0.669649,-1.461193 -1.258555,-2.684933 -1.763672,-3.638672 -0.505116,-0.953739 -0.886517,-1.612678 -1.318359,-2.089844 a 1.0001,1.0001 0 0 0 -0.802734,-0.339844 z"
     id="path3169"
     inkscape:connector-curvature="0" /><path
     style="color:#000000;font-style:normal;font-variant:normal;font-weight:normal;font-stretch:normal;font-size:medium;line-height:normal;font-family:sans-serif;text-indent:0;text-align:start;text-decoration:none;text-decoration-line:none;text-decoration-style:solid;text-decoration-color:#000000;letter-spacing:normal;word-spacing:normal;text-transform:none;direction:ltr;block-progression:tb;writing-mode:lr-tb;baseline-shift:baseline;text-anchor:start;white-space:normal;clip-rule:nonzero;display:inline;overflow:visible;visibility:visible;opacity:1;isolation:auto;mix-blend-mode:normal;color-interpolation:sRGB;color-interpolation-filters:linearRGB;solid-color:#000000;solid-opacity:1;fill:#ffffff;fill-opacity:1;fill-rule:nonzero;stroke:none;stroke-width:2;stroke-linecap:round;stroke-linejoin:round;stroke-miterlimit:10;stroke-dasharray:none;stroke-dashoffset:0;stroke-opacity:1;color-rendering:auto;image-rendering:auto;shape-rendering:auto;text-rendering:auto;enable-background:accumulate"
     d="m 94.511719,-75.105469 a 1.0001,1.0001 0 0 0 -0.921875,1.244141 c 0,0 3.096688,13.054814 7.228516,26.363281 2.06591,6.654234 4.38743,13.371241 6.73242,18.591797 1.1725,2.610278 2.34688,4.844578 3.53125,6.537109 1.18437,1.692532 2.34887,2.921878 3.83789,3.265625 a 1.0001,1.0001 0 1 0 0.44922,-1.947265 c -0.56422,-0.130253 -1.58436,-0.944211 -2.64844,-2.464844 -1.06408,-1.520633 -2.20169,-3.668434 -3.34375,-6.210937 -2.2841,-5.085008 -4.59547,-11.752718 -6.64843,-18.365235 -4.105928,-13.225034 -7.193364,-26.230469 -7.193364,-26.230469 a 1.0001,1.0001 0 0 0 -1.023437,-0.783203 z"
     id="path3171"
     inkscape:connector-curvature="0" /></svg>