<?xml version="1.0" encoding="UTF-8" standalone="no"?>
<!-- Generator: Adobe Illustrator 19.1.1, SVG Export Plug-In . SVG Version: 6.00 Build 0)  -->

<svg
   xmlns:dc="http://purl.org/dc/elements/1.1/"
   xmlns:cc="http://creativecommons.org/ns#"
   xmlns:rdf="http://www.w3.org/1999/02/22-rdf-syntax-ns#"
   xmlns:svg="http://www.w3.org/2000/svg"
   xmlns="http://www.w3.org/2000/svg"
   xmlns:sodipodi="http://sodipodi.sourceforge.net/DTD/sodipodi-0.dtd"
   xmlns:inkscape="http://www.inkscape.org/namespaces/inkscape"
   version="1.1"
   x="0px"
   y="0px"
   width="202.227px"
   height="203.391px"
   viewBox="0 0 202.227 203.391"
   style="enable-background:new 0 0 202.227 203.391;"
   xml:space="preserve"
   id="svg3010"
   inkscape:version="0.91 r13725"
   sodipodi:docname="LineCircle1.svg"><metadata
     id="metadata3042"><rdf:RDF><cc:Work
         rdf:about=""><dc:format>image/svg+xml</dc:format><dc:type
           rdf:resource="http://purl.org/dc/dcmitype/StillImage" /></cc:Work></rdf:RDF></metadata><defs
     id="defs3040" /><sodipodi:namedview
     pagecolor="#ffffff"
     bordercolor="#666666"
     borderopacity="1"
     objecttolerance="10"
     gridtolerance="10"
     guidetolerance="10"
     inkscape:pageopacity="0"
     inkscape:pageshadow="2"
     inkscape:window-width="1855"
     inkscape:window-height="1056"
     id="namedview3038"
     showgrid="true"
     inkscape:zoom="1.1603266"
     inkscape:cx="-200.09479"
     inkscape:cy="101.6955"
     inkscape:window-x="65"
     inkscape:window-y="24"
     inkscape:window-maximized="1"
     inkscape:current-layer="svg3010"><inkscape:grid
       type="xygrid"
       id="grid4852" /></sodipodi:namedview><g
     id="Calque_1" /><path
     style="color:#000000;font-style:normal;font-variant:normal;font-weight:normal;font-stretch:normal;font-size:medium;line-height:normal;font-family:sans-serif;text-indent:0;text-align:start;text-decoration:none;text-decoration-line:none;text-decoration-style:solid;text-decoration-color:#000000;letter-spacing:normal;word-spacing:normal;text-transform:none;direction:ltr;block-progression:tb;writing-mode:lr-tb;baseline-shift:baseline;text-anchor:start;white-space:normal;clip-rule:nonzero;display:inline;overflow:visible;visibility:visible;opacity:1;isolation:auto;mix-blend-mode:normal;color-interpolation:sRGB;color-interpolation-filters:linearRGB;solid-color:#000000;solid-opacity:1;fill:#000000;fill-opacity:1;fill-rule:nonzero;stroke:none;stroke-width:5;stroke-linecap:round;stroke-linejoin:round;stroke-miterlimit:4;stroke-dasharray:none;stroke-dashoffset:0;stroke-opacity:1;color-rendering:auto;image-rendering:auto;shape-rendering:auto;text-rendering:auto;enable-background:accumulate"
     d="m -79.587891,-61.931641 a 2.50025,2.50025 0 0 0 -2.466797,1.646485 c 0,0 -6.774637,17.89233 -12.722656,36.679687 -2.974009,9.393679 -5.744506,19.0056744 -7.371096,26.8144534 -0.81329,3.9043894 -1.34604,7.3472686 -1.45508,10.1953126 -0.10903,2.848044 -0.1365,5.232638 1.75391,7.166015 a 2.5005836,2.5005836 0 1 0 3.576172,-3.496093 c 0.220783,0.2258 -0.424475,-1.114896 -0.333984,-3.478516 0.09049,-2.36362 0.574498,-5.6179785 1.355469,-9.3671874 1.561941,-7.4984177 4.295196,-17.0158786 7.242187,-26.3242186 5.893984,-18.616681 12.63086,-36.419922 12.63086,-36.419922 a 2.50025,2.50025 0 0 0 -2.208985,-3.416016 z"
     id="path3149"
     inkscape:connector-curvature="0" /><path
     style="color:#000000;font-style:normal;font-variant:normal;font-weight:normal;font-stretch:normal;font-size:medium;line-height:normal;font-family:sans-serif;text-indent:0;text-align:start;text-decoration:none;text-decoration-line:none;text-decoration-style:solid;text-decoration-color:#000000;letter-spacing:normal;word-spacing:normal;text-transform:none;direction:ltr;block-progression:tb;writing-mode:lr-tb;baseline-shift:baseline;text-anchor:start;white-space:normal;clip-rule:nonzero;display:inline;overflow:visible;visibility:visible;opacity:1;isolation:auto;mix-blend-mode:normal;color-interpolation:sRGB;color-interpolation-filters:linearRGB;solid-color:#000000;solid-opacity:1;fill:#000000;fill-opacity:1;fill-rule:nonzero;stroke:none;stroke-width:5;stroke-linecap:round;stroke-linejoin:round;stroke-miterlimit:4;stroke-dasharray:none;stroke-dashoffset:0;stroke-opacity:1;color-rendering:auto;image-rendering:auto;shape-rendering:auto;text-rendering:auto;enable-background:accumulate"
     d="m -61.265625,-77.751953 a 2.50025,2.50025 0 0 0 -2.369141,1.783203 c 0,0 -8.510755,27.040734 -16.082031,55.228516 -3.785638,14.0938906 -7.338335,28.4705919 -9.484375,39.972656 -1.07302,5.751032 -1.797478,10.774227 -2.013672,14.773437 -0.108097,1.999606 -0.09381,3.74058 0.103516,5.259766 0.197326,1.519186 0.497099,2.869803 1.521484,4.078125 a 2.5005616,2.5005616 0 1 0 3.814453,-3.234375 c 0.07913,0.09333 -0.241454,-0.445093 -0.376953,-1.488281 -0.135499,-1.043189 -0.168044,-2.537826 -0.07031,-4.345703 0.195464,-3.615755 0.88693,-8.494292 1.9375,-14.125 2.10114,-11.261418 5.628695,-25.564359 9.396484,-39.591797 7.535578,-28.054877 16.023438,-55.027344 16.023438,-55.027344 a 2.50025,2.50025 0 0 0 -2.400391,-3.283203 z"
     id="path3151"
     inkscape:connector-curvature="0" /><path
     style="color:#000000;font-style:normal;font-variant:normal;font-weight:normal;font-stretch:normal;font-size:medium;line-height:normal;font-family:sans-serif;text-indent:0;text-align:start;text-decoration:none;text-decoration-line:none;text-decoration-style:solid;text-decoration-color:#000000;letter-spacing:normal;word-spacing:normal;text-transform:none;direction:ltr;block-progression:tb;writing-mode:lr-tb;baseline-shift:baseline;text-anchor:start;white-space:normal;clip-rule:nonzero;display:inline;overflow:visible;visibility:visible;opacity:1;isolation:auto;mix-blend-mode:normal;color-interpolation:sRGB;color-interpolation-filters:linearRGB;solid-color:#000000;solid-opacity:1;fill:#000000;fill-opacity:1;fill-rule:nonzero;stroke:none;stroke-width:5;stroke-linecap:round;stroke-linejoin:round;stroke-miterlimit:4;stroke-dasharray:none;stroke-dashoffset:0;stroke-opacity:1;color-rendering:auto;image-rendering:auto;shape-rendering:auto;text-rendering:auto;enable-background:accumulate"
     d="m -36.882812,-97.212891 a 2.50025,2.50025 0 0 0 -2.408204,1.728516 c 0,0 -12.971688,38.161692 -24.255859,78.160156 -5.642086,19.9992325 -10.864978,40.45273 -13.84375,56.917969 -1.489386,8.23262 -2.424179,15.458369 -2.548828,21.232422 -0.124649,5.774053 0.205394,10.180175 2.927734,13.070312 a 2.50025,2.50025 0 1 0 3.640625,-3.427734 c -0.666442,-0.70752 -1.683177,-4.214558 -1.568359,-9.533203 0.114817,-5.318645 1.006036,-12.365981 2.46875,-20.451172 2.925428,-16.170382 8.117365,-36.5338992 13.736328,-56.451172 C -47.496448,-55.801342 -34.558594,-93.875 -34.558594,-93.875 a 2.50025,2.50025 0 0 0 -2.324218,-3.337891 z"
     id="path3153"
     inkscape:connector-curvature="0" /><path
     style="color:#000000;font-style:normal;font-variant:normal;font-weight:normal;font-stretch:normal;font-size:medium;line-height:normal;font-family:sans-serif;text-indent:0;text-align:start;text-decoration:none;text-decoration-line:none;text-decoration-style:solid;text-decoration-color:#000000;letter-spacing:normal;word-spacing:normal;text-transform:none;direction:ltr;block-progression:tb;writing-mode:lr-tb;baseline-shift:baseline;text-anchor:start;white-space:normal;clip-rule:nonzero;display:inline;overflow:visible;visibility:visible;opacity:1;isolation:auto;mix-blend-mode:normal;color-interpolation:sRGB;color-interpolation-filters:linearRGB;solid-color:#000000;solid-opacity:1;fill:#000000;fill-opacity:1;fill-rule:nonzero;stroke:none;stroke-width:5;stroke-linecap:round;stroke-linejoin:round;stroke-miterlimit:4;stroke-dasharray:none;stroke-dashoffset:0;stroke-opacity:1;color-rendering:auto;image-rendering:auto;shape-rendering:auto;text-rendering:auto;enable-background:accumulate"
     d="m -15.609375,-102.99609 a 2.50025,2.50025 0 0 0 -2.349609,1.80859 c 0,0 -13.006444,42.994556 -25.585938,87.28125 -6.289747,22.1433471 -12.472093,44.609049 -16.876953,62.214844 -2.20243,8.802897 -3.961033,16.385794 -5.070313,22.148437 -0.554639,2.881322 -0.947446,5.301754 -1.152343,7.242188 -0.204898,1.940433 -0.396807,3.200155 0.136719,4.791015 a 2.50025,2.50025 0 1 0 4.740234,-1.589843 c 0.104454,0.311458 -0.08406,-0.973339 0.0957,-2.675782 0.179767,-1.702442 0.551005,-4.023028 1.089844,-6.822265 1.077677,-5.598474 2.819519,-13.126657 5.009765,-21.88086 4.380494,-17.508405 10.555689,-39.9437625 16.837891,-62.060546 12.564404,-44.233569 25.560547,-87.201172 25.560547,-87.201172 a 2.50025,2.50025 0 0 0 -2.435547,-3.255856 z"
     id="path3155"
     inkscape:connector-curvature="0" /><path
     style="color:#000000;font-style:normal;font-variant:normal;font-weight:normal;font-stretch:normal;font-size:medium;line-height:normal;font-family:sans-serif;text-indent:0;text-align:start;text-decoration:none;text-decoration-line:none;text-decoration-style:solid;text-decoration-color:#000000;letter-spacing:normal;word-spacing:normal;text-transform:none;direction:ltr;block-progression:tb;writing-mode:lr-tb;baseline-shift:baseline;text-anchor:start;white-space:normal;clip-rule:nonzero;display:inline;overflow:visible;visibility:visible;opacity:1;isolation:auto;mix-blend-mode:normal;color-interpolation:sRGB;color-interpolation-filters:linearRGB;solid-color:#000000;solid-opacity:1;fill:#000000;fill-opacity:1;fill-rule:nonzero;stroke:none;stroke-width:5;stroke-linecap:round;stroke-linejoin:round;stroke-miterlimit:4;stroke-dasharray:none;stroke-dashoffset:0;stroke-opacity:1;color-rendering:auto;image-rendering:auto;shape-rendering:auto;text-rendering:auto;enable-background:accumulate"
     d="m 6.359375,-104.15625 a 2.50025,2.50025 0 0 0 -2.4980469,1.93945 c 0,0 -11.7267875,47.949328 -23.9453121,95.9902375 -6.109263,24.0204545 -12.342966,48.0651495 -17.289063,66.1308595 -2.473048,9.032855 -4.625634,16.576396 -6.269531,21.841797 -0.821949,2.6327 -1.520818,4.704274 -2.042969,6.052734 -0.246574,0.63678 -0.449886,1.081581 -0.574219,1.324219 a 2.50025,2.50025 0 0 0 2.169922,4.322265 c 1.195715,-0.237998 1.45058,-0.774377 1.689453,-1.076171 0.238874,-0.301795 0.380778,-0.553473 0.525391,-0.826172 0.289226,-0.5454 0.551854,-1.165453 0.851562,-1.939453 0.599417,-1.548 1.315099,-3.679238 2.154297,-6.367188 1.678396,-5.3759 3.837382,-12.947946 6.31836,-22.009766 4.961956,-18.123638 11.19947,-42.185435 17.3125,-66.2207026 C -3.0122215,-53.064675 8.7167969,-101.0293 8.7167969,-101.0293 A 2.50025,2.50025 0 0 0 6.359375,-104.15625 Z M -45.998047,88.919922 a 2.50025,2.50025 0 0 0 -0.113281,0.08398 c 0.03173,-0.03281 0.06768,-0.04904 0.113281,-0.08398 z"
     id="path3157"
     inkscape:connector-curvature="0" /><path
     style="color:#000000;font-style:normal;font-variant:normal;font-weight:normal;font-stretch:normal;font-size:medium;line-height:normal;font-family:sans-serif;text-indent:0;text-align:start;text-decoration:none;text-decoration-line:none;text-decoration-style:solid;text-decoration-color:#000000;letter-spacing:normal;word-spacing:normal;text-transform:none;direction:ltr;block-progression:tb;writing-mode:lr-tb;baseline-shift:baseline;text-anchor:start;white-space:normal;clip-rule:nonzero;display:inline;overflow:visible;visibility:visible;opacity:1;isolation:auto;mix-blend-mode:normal;color-interpolation:sRGB;color-interpolation-filters:linearRGB;solid-color:#000000;solid-opacity:1;fill:#000000;fill-opacity:1;fill-rule:nonzero;stroke:none;stroke-width:5;stroke-linecap:round;stroke-linejoin:round;stroke-miterlimit:4;stroke-dasharray:none;stroke-dashoffset:0;stroke-opacity:1;color-rendering:auto;image-rendering:auto;shape-rendering:auto;text-rendering:auto;enable-background:accumulate"
     d="m 31.919922,-99.527344 a 2.50025,2.50025 0 0 0 -2.154297,1.361328 c 0,0 -46.174796,87.328285 -57.386719,195.400391 A 2.50025,2.50025 0 1 0 -22.648438,97.75 C -11.553424,-9.1952115 34.1875,-95.830078 34.1875,-95.830078 a 2.50025,2.50025 0 0 0 -2.267578,-3.697266 z"
     id="path3159"
     inkscape:connector-curvature="0" /><path
     style="color:#000000;font-style:normal;font-variant:normal;font-weight:normal;font-stretch:normal;font-size:medium;line-height:normal;font-family:sans-serif;text-indent:0;text-align:start;text-decoration:none;text-decoration-line:none;text-decoration-style:solid;text-decoration-color:#000000;letter-spacing:normal;word-spacing:normal;text-transform:none;direction:ltr;block-progression:tb;writing-mode:lr-tb;baseline-shift:baseline;text-anchor:start;white-space:normal;clip-rule:nonzero;display:inline;overflow:visible;visibility:visible;opacity:1;isolation:auto;mix-blend-mode:normal;color-interpolation:sRGB;color-interpolation-filters:linearRGB;solid-color:#000000;solid-opacity:1;fill:#000000;fill-opacity:1;fill-rule:nonzero;stroke:none;stroke-width:5;stroke-linecap:round;stroke-linejoin:round;stroke-miterlimit:4;stroke-dasharray:none;stroke-dashoffset:0;stroke-opacity:1;color-rendering:auto;image-rendering:auto;shape-rendering:auto;text-rendering:auto;enable-background:accumulate"
     d="m 43.927734,-91.533203 a 2.50025,2.50025 0 0 0 -2.292968,1.880859 c 0,0 -11.607662,43.104721 -23.779297,87.6542971 C 11.769651,20.276741 5.5427637,42.914015 0.55664062,60.697266 -1.9364209,69.588891 -4.1185861,77.26734 -5.8164062,83.074219 -7.5142264,88.881097 -8.788126,92.953687 -9.234375,94.095703 a 2.5006197,2.5006197 0 1 0 4.6582031,1.820313 c 0.6843707,-1.751404 1.8515582,-5.599103 3.5585938,-11.4375 C 0.68945743,78.640119 2.8752245,70.948514 5.3710938,62.046875 10.362832,44.243597 16.59231,21.600811 22.679688,-0.6796875 34.854443,-45.240684 46.462891,-88.351563 46.462891,-88.351562 a 2.50025,2.50025 0 0 0 -2.535157,-3.181641 z"
     id="path3161"
     inkscape:connector-curvature="0" /><path
     style="color:#000000;font-style:normal;font-variant:normal;font-weight:normal;font-stretch:normal;font-size:medium;line-height:normal;font-family:sans-serif;text-indent:0;text-align:start;text-decoration:none;text-decoration-line:none;text-decoration-style:solid;text-decoration-color:#000000;letter-spacing:normal;word-spacing:normal;text-transform:none;direction:ltr;block-progression:tb;writing-mode:lr-tb;baseline-shift:baseline;text-anchor:start;white-space:normal;clip-rule:nonzero;display:inline;overflow:visible;visibility:visible;opacity:1;isolation:auto;mix-blend-mode:normal;color-interpolation:sRGB;color-interpolation-filters:linearRGB;solid-color:#000000;solid-opacity:1;fill:#000000;fill-opacity:1;fill-rule:nonzero;stroke:none;stroke-width:5;stroke-linecap:round;stroke-linejoin:round;stroke-miterlimit:4;stroke-dasharray:none;stroke-dashoffset:0;stroke-opacity:1;color-rendering:auto;image-rendering:auto;shape-rendering:auto;text-rendering:auto;enable-background:accumulate"
     d="M 59.458984,-77.900391 A 2.50025,2.50025 0 0 0 57.125,-76.068359 c 0,0 -12.653817,43.296976 -24.740234,87.111328 -6.043209,21.907176 -11.94273,43.94067 -16.056641,60.789062 -2.056955,8.424197 -3.667128,15.544175 -4.630859,20.75586 -0.481866,2.605842 -0.804644,4.723912 -0.9375,6.373047 -0.06643,0.824567 -0.09128,1.523012 -0.0332,2.205082 0.05808,0.68206 -0.08376,1.47035 1.09961,2.52148 a 2.50025,2.50025 0 0 0 3.884766,-3.03516 c -0.01446,-0.23209 -0.01696,-0.666417 0.0332,-1.289059 0.107312,-1.332066 0.403887,-3.349231 0.86914,-5.865234 0.930506,-5.032006 2.526864,-12.10359 4.572266,-20.480469 4.090804,-16.753758 9.982998,-38.763507 16.019531,-60.646484 12.073067,-43.765954 24.71875,-87.03711 24.71875,-87.03711 a 2.50025,2.50025 0 0 0 -2.464844,-3.234375 z"
     id="path3163"
     inkscape:connector-curvature="0" /><path
     style="color:#000000;font-style:normal;font-variant:normal;font-weight:normal;font-stretch:normal;font-size:medium;line-height:normal;font-family:sans-serif;text-indent:0;text-align:start;text-decoration:none;text-decoration-line:none;text-decoration-style:solid;text-decoration-color:#000000;letter-spacing:normal;word-spacing:normal;text-transform:none;direction:ltr;block-progression:tb;writing-mode:lr-tb;baseline-shift:baseline;text-anchor:start;white-space:normal;clip-rule:nonzero;display:inline;overflow:visible;visibility:visible;opacity:1;isolation:auto;mix-blend-mode:normal;color-interpolation:sRGB;color-interpolation-filters:linearRGB;solid-color:#000000;solid-opacity:1;fill:#000000;fill-opacity:1;fill-rule:nonzero;stroke:none;stroke-width:5;stroke-linecap:round;stroke-linejoin:round;stroke-miterlimit:4;stroke-dasharray:none;stroke-dashoffset:0;stroke-opacity:1;color-rendering:auto;image-rendering:auto;shape-rendering:auto;text-rendering:auto;enable-background:accumulate"
     d="m 77.564453,-65.503906 a 2.50025,2.50025 0 0 0 -2.408203,1.730468 c 0,0 -12.629723,37.24418 -24.501953,75.023438 -5.936115,18.889629 -11.682931,37.909141 -15.578125,52.521484 -1.947597,7.306172 -3.432767,13.49833 -4.253906,18.09961 -0.41057,2.300639 -0.660014,4.190418 -0.701172,5.738281 -0.02058,0.773931 0.0018,1.458755 0.148437,2.169922 0.146687,0.711166 0.375438,1.633473 1.451172,2.365234 a 2.50025,2.50025 0 0 0 3.4375,-3.541015 c -0.02061,-0.15564 -0.05122,-0.404058 -0.03906,-0.861328 0.02895,-1.088757 0.240117,-2.824544 0.626953,-4.992188 0.77367,-4.335288 2.233114,-10.455015 4.162109,-17.691406 3.857991,-14.472782 9.59065,-33.456367 15.515625,-52.310547 11.849951,-37.70836 24.466797,-74.916016 24.466797,-74.916016 a 2.50025,2.50025 0 0 0 -2.326172,-3.335937 z"
     id="path3165"
     inkscape:connector-curvature="0" /><path
     style="color:#000000;font-style:normal;font-variant:normal;font-weight:normal;font-stretch:normal;font-size:medium;line-height:normal;font-family:sans-serif;text-indent:0;text-align:start;text-decoration:none;text-decoration-line:none;text-decoration-style:solid;text-decoration-color:#000000;letter-spacing:normal;word-spacing:normal;text-transform:none;direction:ltr;block-progression:tb;writing-mode:lr-tb;baseline-shift:baseline;text-anchor:start;white-space:normal;clip-rule:nonzero;display:inline;overflow:visible;visibility:visible;opacity:1;isolation:auto;mix-blend-mode:normal;color-interpolation:sRGB;color-interpolation-filters:linearRGB;solid-color:#000000;solid-opacity:1;fill:#000000;fill-opacity:1;fill-rule:nonzero;stroke:none;stroke-width:5;stroke-linecap:round;stroke-linejoin:round;stroke-miterlimit:4;stroke-dasharray:none;stroke-dashoffset:0;stroke-opacity:1;color-rendering:auto;image-rendering:auto;shape-rendering:auto;text-rendering:auto;enable-background:accumulate"
     d="m 88.714844,-47.251953 a 2.50025,2.50025 0 0 0 -2.304688,1.867187 c 0,0 -9.616619,34.898525 -19.011718,69.671875 -4.69755,17.386675 -9.339571,34.741886 -12.699219,47.699219 -1.679824,6.478667 -3.038274,11.854436 -3.927735,15.607422 -0.44473,1.876493 -0.770425,3.338966 -0.96875,4.380859 -0.09916,0.520947 -0.168725,0.913884 -0.205078,1.328125 -0.01818,0.207121 -0.06366,0.35953 0.02148,0.876954 0.04257,0.258711 3.79e-4,0.70007 0.720703,1.417968 0.360162,0.35895 1.035443,0.703316 1.666015,0.732422 0.630573,0.02911 1.096717,-0.171084 1.382813,-0.335937 a 2.50025,2.50025 0 0 0 1.246094,-2.59375 c 0.02247,-0.149957 0.02999,-0.22905 0.08008,-0.492188 0.16939,-0.889886 0.485376,-2.320351 0.921875,-4.162109 0.872996,-3.683517 2.226822,-9.043786 3.902343,-15.50586 3.351044,-12.924147 7.992142,-30.269871 12.6875,-47.648437 9.390718,-34.7571329 19.003907,-69.646485 19.003907,-69.646485 a 2.50025,2.50025 0 0 0 -2.515625,-3.197265 z"
     id="path3167"
     inkscape:connector-curvature="0" /><path
     style="color:#000000;font-style:normal;font-variant:normal;font-weight:normal;font-stretch:normal;font-size:medium;line-height:normal;font-family:sans-serif;text-indent:0;text-align:start;text-decoration:none;text-decoration-line:none;text-decoration-style:solid;text-decoration-color:#000000;letter-spacing:normal;word-spacing:normal;text-transform:none;direction:ltr;block-progression:tb;writing-mode:lr-tb;baseline-shift:baseline;text-anchor:start;white-space:normal;clip-rule:nonzero;display:inline;overflow:visible;visibility:visible;opacity:1;isolation:auto;mix-blend-mode:normal;color-interpolation:sRGB;color-interpolation-filters:linearRGB;solid-color:#000000;solid-opacity:1;fill:#000000;fill-opacity:1;fill-rule:nonzero;stroke:none;stroke-width:5;stroke-linecap:round;stroke-linejoin:round;stroke-miterlimit:4;stroke-dasharray:none;stroke-dashoffset:0;stroke-opacity:1;color-rendering:auto;image-rendering:auto;shape-rendering:auto;text-rendering:auto;enable-background:accumulate"
     d="m 98.986328,-26.927734 a 2.50025,2.50025 0 0 0 -2.585937,2.65625 c -0.005,-0.10235 -0.04808,0.637725 -0.240235,1.58789 -0.192155,0.950165 -0.498394,2.220832 -0.896484,3.736328 -0.796179,3.030994 -1.964347,7.049277 -3.375,11.7011722 -2.821307,9.3037903 -6.610977,21.1485818 -10.369141,32.9277348 -3.758163,11.779153 -7.48513,23.493098 -10.193359,32.580078 -1.354115,4.54349 -2.453212,8.426091 -3.181641,11.371093 -0.364214,1.472502 -0.63501,2.704468 -0.802734,3.71875 -0.167724,1.014283 -0.464573,1.506906 -0.02344,2.945313 a 2.50025,2.50025 0 1 0 4.779297,-1.466797 c 0.265148,0.864567 0.0452,0.127533 0.175782,-0.662109 0.130577,-0.789643 0.378357,-1.936057 0.724609,-3.335938 0.692504,-2.799761 1.776399,-6.637248 3.119141,-11.142578 2.685483,-9.010659 6.408683,-20.709782 10.166015,-32.486328 3.757332,-11.776546 7.55053,-23.6322987 10.390625,-32.9980469 1.420048,-4.6828741 2.600261,-8.7401181 3.425782,-11.8828121 0.41276,-1.571347 0.73768,-2.91166 0.96094,-4.015625 0.22326,-1.103966 0.38114,-1.860127 0.33398,-2.822266 a 2.50025,2.50025 0 0 0 -2.408202,-2.412109 z"
     id="path3169"
     inkscape:connector-curvature="0" /><path
     style="color:#000000;font-style:normal;font-variant:normal;font-weight:normal;font-stretch:normal;font-size:medium;line-height:normal;font-family:sans-serif;text-indent:0;text-align:start;text-decoration:none;text-decoration-line:none;text-decoration-style:solid;text-decoration-color:#000000;letter-spacing:normal;word-spacing:normal;text-transform:none;direction:ltr;block-progression:tb;writing-mode:lr-tb;baseline-shift:baseline;text-anchor:start;white-space:normal;clip-rule:nonzero;display:inline;overflow:visible;visibility:visible;opacity:1;isolation:auto;mix-blend-mode:normal;color-interpolation:sRGB;color-interpolation-filters:linearRGB;solid-color:#000000;solid-opacity:1;fill:#000000;fill-opacity:1;fill-rule:nonzero;stroke:none;stroke-width:5;stroke-linecap:round;stroke-linejoin:round;stroke-miterlimit:4;stroke-dasharray:none;stroke-dashoffset:0;stroke-opacity:1;color-rendering:auto;image-rendering:auto;shape-rendering:auto;text-rendering:auto;enable-background:accumulate"
     d="m 102.17383,4.6210938 a 2.50025,2.50025 0 0 0 -2.359377,1.4355468 c 0,0 -5.896629,12.0916984 -11.162109,25.0644534 -2.63274,6.486377 -5.111838,13.186667 -6.636719,18.818359 -0.76244,2.815846 -1.292062,5.357522 -1.460937,7.574219 -0.168876,2.216697 -0.163567,4.214992 1.205078,5.988281 a 2.50025,2.50025 0 1 0 3.958984,-3.054687 c 0.08113,0.105115 -0.306766,-0.86099 -0.177734,-2.554688 0.129031,-1.693698 0.586886,-4.009926 1.300781,-6.646484 1.42779,-5.273116 3.851689,-11.858949 6.443359,-18.244141 C 98.468497,20.231569 104.30859,8.2480469 104.30859,8.2480469 a 2.50025,2.50025 0 0 0 -2.13476,-3.6269531 z"
     id="path3171"
     inkscape:connector-curvature="0" /></svg>