<?xml version="1.0" encoding="utf-8"?>
<!-- Generator: Adobe Illustrator 19.1.1, SVG Export Plug-In . SVG Version: 6.00 Build 0)  -->
<svg version="1.1" baseProfile="basic" id="Calque_1"
	 xmlns="http://www.w3.org/2000/svg" xmlns:xlink="http://www.w3.org/1999/xlink" x="0px" y="0px" width="98.57px"
	 height="101.08px" viewBox="0 0 98.57 101.08" xml:space="preserve">
<g>
	<path style="fill:#1A1A1A;" d="M2.5,71.92c-0.18,0-0.36-0.05-0.53-0.15c-4.16-2.65-0.65-31.69,0.53-40.53
		c0.07-0.55,0.57-0.93,1.12-0.86c0.55,0.07,0.93,0.58,0.86,1.12C2.17,48.95,0.96,68.66,3.05,70.08C3.5,70.38,3.64,71,3.34,71.46
		C3.15,71.76,2.83,71.92,2.5,71.92z"/>
	<path style="fill:#1A1A1A;" d="M10.97,81.46c-0.21,0-0.42-0.06-0.59-0.2c-4.8-3.56-1.53-50.25-0.83-59.57
		c0.04-0.55,0.53-0.97,1.07-0.92c0.55,0.04,0.96,0.52,0.92,1.07c-2.03,26.9-2.58,55.88,0.03,57.81c0.44,0.33,0.54,0.96,0.21,1.4
		C11.57,81.32,11.27,81.46,10.97,81.46z"/>
	<path style="fill:#1A1A1A;" d="M20.31,94.59c-0.19,0-0.38-0.05-0.55-0.17c-8.33-5.52-1.58-76.64-0.79-84.74
		c0.05-0.55,0.53-0.95,1.09-0.9c0.55,0.05,0.95,0.54,0.9,1.09c-2.96,30.1-5.61,79.22-0.1,82.87c0.46,0.3,0.59,0.93,0.28,1.39
		C20.95,94.43,20.64,94.59,20.31,94.59z"/>
	<path style="fill:#1A1A1A;" d="M26.62,97.88c-0.33,0-0.64-0.16-0.83-0.46c-2.8-4.54,1.77-78.13,2.71-92.83
		c0.04-0.55,0.5-0.96,1.06-0.93c0.55,0.04,0.97,0.51,0.93,1.06c-2.16,33.64-4.89,88.27-3.01,91.66c0.26,0.47,0.11,1.09-0.36,1.37
		C26.97,97.83,26.79,97.88,26.62,97.88z"/>
	<path style="fill:#1A1A1A;" d="M37,100.14c-0.38,0-0.74-0.22-0.91-0.59c-0.16-0.35-0.1-0.73,0.11-1.02
		c1.21-3.88,2.21-59.89,2.59-96.89c0.01-0.55,0.45-0.99,1-0.99c0,0,0.01,0,0.01,0c0.55,0.01,1,0.46,0.99,1.01
		c0,0.24-0.25,24.45-0.72,48.45c-0.96,49.17-1.75,49.53-2.66,49.94C37.28,100.12,37.14,100.14,37,100.14z"/>
	<path style="fill:#1A1A1A;" d="M46.99,101.08c-0.5,0-0.93-0.37-0.99-0.87C39.4,48.12,51.46,1.21,51.59,0.75
		c0.14-0.54,0.69-0.85,1.22-0.71c0.53,0.14,0.85,0.69,0.71,1.22c-0.12,0.46-12.09,47.01-5.54,98.7c0.07,0.55-0.32,1.05-0.87,1.12
		C47.08,101.07,47.04,101.08,46.99,101.08z"/>
	<path style="fill:#1A1A1A;" d="M55.41,97.86c-0.05,0-0.09,0-0.14-0.01c-0.55-0.08-0.93-0.59-0.85-1.13
		c0.85-5.9,3.75-92.41,3.78-93.28c0.02-0.54,0.46-0.97,1-0.97c0.01,0,0.02,0,0.03,0c0.55,0.02,0.98,0.48,0.97,1.03
		C60.08,7.07,57.26,91,56.4,97C56.33,97.5,55.9,97.86,55.41,97.86z"/>
	<path style="fill:#1A1A1A;" d="M65.89,98.84c-0.16,0-0.32-0.04-0.48-0.12c-0.92-0.5-2.19-1.19-0.4-46.25
		c0.87-21.97,2.08-44.06,2.09-44.28c0.03-0.55,0.51-1,1.05-0.94c0.55,0.03,0.97,0.5,0.94,1.05c-1.85,33.72-4.02,84.96-2.49,88.84
		c0.29,0.31,0.37,0.78,0.16,1.17C66.59,98.65,66.24,98.84,65.89,98.84z"/>
	<path style="fill:#1A1A1A;" d="M73.94,91.05c-0.12,0-0.24-0.02-0.36-0.07c-1.18-0.46-2.8-1.08,0.16-40.45
		c1.43-19.1,3.3-38.29,3.32-38.49c0.05-0.55,0.54-0.94,1.09-0.9c0.55,0.05,0.95,0.54,0.9,1.09c-2.73,27.93-6.34,73.28-4.51,77
		c0.35,0.26,0.5,0.73,0.33,1.16C74.72,90.81,74.34,91.05,73.94,91.05z"/>
	<path style="fill:#1A1A1A;" d="M83.41,90.72c-0.14,0-0.28-0.03-0.42-0.09c-0.85-0.39-1.03-0.47,0.2-36.13
		c0.59-17.3,1.28-34.78,1.29-34.96c0.02-0.55,0.53-0.99,1.04-0.96c0.55,0.02,0.98,0.49,0.96,1.04c-1.04,26.47-2.45,66.41-2.13,69.69
		c0.17,0.38,0.08,0.83-0.23,1.13C83.92,90.63,83.66,90.72,83.41,90.72z"/>
	<path style="fill:#1A1A1A;" d="M89.76,80.06c-0.34,0-0.68-0.18-0.87-0.5c-0.66-1.14-0.29-7.35,1.25-26.72
		c0.81-10.25,1.83-23.01,1.43-24.41c-0.15-0.53,0.16-1.08,0.69-1.24c0.53-0.15,1.08,0.16,1.24,0.69c0.48,1.66-0.21,10.63-1.36,25.12
		c-0.85,10.71-1.91,24.03-1.48,25.62c0.22,0.46,0.06,1.03-0.4,1.3C90.11,80.01,89.94,80.06,89.76,80.06z"/>
	<path style="fill:#1A1A1A;" d="M94.94,72.02c-0.22,0-0.45-0.07-0.63-0.22c-3.42-2.78,0.88-23.03,2.28-29.17
		c0.12-0.54,0.66-0.88,1.2-0.75c0.54,0.12,0.88,0.66,0.75,1.2c-2.74,12.01-4.65,25.81-2.97,27.18c0.43,0.35,0.49,0.98,0.14,1.41
		C95.52,71.89,95.23,72.02,94.94,72.02z"/>
</g>
</svg>
