<?xml version="1.0" encoding="UTF-8" standalone="no"?>
<!-- Generator: Adobe Illustrator 19.1.1, SVG Export Plug-In . SVG Version: 6.00 Build 0)  -->

<svg
   xmlns:dc="http://purl.org/dc/elements/1.1/"
   xmlns:cc="http://creativecommons.org/ns#"
   xmlns:rdf="http://www.w3.org/1999/02/22-rdf-syntax-ns#"
   xmlns:svg="http://www.w3.org/2000/svg"
   xmlns="http://www.w3.org/2000/svg"
   xmlns:sodipodi="http://sodipodi.sourceforge.net/DTD/sodipodi-0.dtd"
   xmlns:inkscape="http://www.inkscape.org/namespaces/inkscape"
   version="1.1"
   x="0px"
   y="0px"
   width="206.29px"
   height="204.696px"
   viewBox="0 0 206.29 204.696"
   style="enable-background:new 0 0 206.29 204.696;"
   xml:space="preserve"
   id="svg3146"
   inkscape:version="0.91 r13725"
   sodipodi:docname="LineCircle5.svg"><metadata
     id="metadata3178"><rdf:RDF><cc:Work
         rdf:about=""><dc:format>image/svg+xml</dc:format><dc:type
           rdf:resource="http://purl.org/dc/dcmitype/StillImage" /></cc:Work></rdf:RDF></metadata><defs
     id="defs3176" /><sodipodi:namedview
     pagecolor="#ffffff"
     bordercolor="#666666"
     borderopacity="1"
     objecttolerance="10"
     gridtolerance="10"
     guidetolerance="10"
     inkscape:pageopacity="0"
     inkscape:pageshadow="2"
     inkscape:window-width="1855"
     inkscape:window-height="1056"
     id="namedview3174"
     showgrid="true"
     inkscape:zoom="1.6304881"
     inkscape:cx="-78.669921"
     inkscape:cy="153.58984"
     inkscape:window-x="65"
     inkscape:window-y="24"
     inkscape:window-maximized="1"
     inkscape:current-layer="LineCircle5"><inkscape:grid
       type="xygrid"
       id="grid3260" /></sodipodi:namedview><g
     id="LineCircle5"><path
       style="color:#000000;font-style:normal;font-variant:normal;font-weight:normal;font-stretch:normal;font-size:medium;line-height:normal;font-family:sans-serif;text-indent:0;text-align:start;text-decoration:none;text-decoration-line:none;text-decoration-style:solid;text-decoration-color:#000000;letter-spacing:normal;word-spacing:normal;text-transform:none;direction:ltr;block-progression:tb;writing-mode:lr-tb;baseline-shift:baseline;text-anchor:start;white-space:normal;clip-rule:nonzero;display:inline;overflow:visible;visibility:visible;opacity:1;isolation:auto;mix-blend-mode:normal;color-interpolation:sRGB;color-interpolation-filters:linearRGB;solid-color:#000000;solid-opacity:1;fill:#4e6ebb;fill-opacity:1;fill-rule:nonzero;stroke:none;stroke-width:5;stroke-linecap:round;stroke-linejoin:round;stroke-miterlimit:10;stroke-dasharray:none;stroke-dashoffset:0;stroke-opacity:1;color-rendering:auto;image-rendering:auto;shape-rendering:auto;text-rendering:auto;enable-background:accumulate"
       d="m -98.324219,-2.8632812 a 2.50025,2.50025 0 0 0 -2.259761,3.32812495 c 0,0 6.104732,18.13479425 13.414058,36.43554725 3.654663,9.150376 7.604801,18.339694 11.296875,25.410156 1.846037,3.535231 3.616808,6.534831 5.337891,8.806641 1.721082,2.271809 3.210795,4.134712 5.898437,4.43164 a 2.500455,2.500455 0 1 0 0.548828,-4.970703 c 0.313893,0.03468 -1.034547,-0.595071 -2.46289,-2.480469 -1.428344,-1.885397 -3.117959,-4.70684 -4.890625,-8.101562 -3.545332,-6.789445 -7.464476,-15.883923 -11.085938,-24.951172 -7.242924,-18.134498 -13.318359,-36.1738282 -13.318359,-36.1738282 a 2.50025,2.50025 0 0 0 -2.478516,-1.734375 z"
       id="path3149"
       inkscape:connector-curvature="0" /><path
       style="color:#000000;font-style:normal;font-variant:normal;font-weight:normal;font-stretch:normal;font-size:medium;line-height:normal;font-family:sans-serif;text-indent:0;text-align:start;text-decoration:none;text-decoration-line:none;text-decoration-style:solid;text-decoration-color:#000000;letter-spacing:normal;word-spacing:normal;text-transform:none;direction:ltr;block-progression:tb;writing-mode:lr-tb;baseline-shift:baseline;text-anchor:start;white-space:normal;clip-rule:nonzero;display:inline;overflow:visible;visibility:visible;opacity:1;isolation:auto;mix-blend-mode:normal;color-interpolation:sRGB;color-interpolation-filters:linearRGB;solid-color:#000000;solid-opacity:1;fill:#4e6ebb;fill-opacity:1;fill-rule:nonzero;stroke:none;stroke-width:5;stroke-linecap:round;stroke-linejoin:round;stroke-miterlimit:10;stroke-dasharray:none;stroke-dashoffset:0;stroke-opacity:1;color-rendering:auto;image-rendering:auto;shape-rendering:auto;text-rendering:auto;enable-background:accumulate"
       d="m -93.964844,-26.804688 a 2.50025,2.50025 0 0 0 -2.314453,3.464844 c 0,0 10.55932,26.3081186 22.572266,52.908203 6.006473,13.300043 12.372354,26.669633 18.003906,36.925782 2.815776,5.128074 5.440647,9.47307 7.808594,12.703125 1.183973,1.615027 2.298418,2.952095 3.414062,4.001953 1.115645,1.049857 2.203484,1.904302 3.761719,2.189453 a 2.50025,2.50025 0 1 0 0.898438,-4.917969 c 0.12036,0.02203 -0.468289,-0.191197 -1.234376,-0.912109 -0.766086,-0.720912 -1.738143,-1.856233 -2.808593,-3.316406 -2.140901,-2.920348 -4.700167,-7.133513 -7.457031,-12.154297 C -56.834041,54.046321 -63.172238,40.747098 -69.150391,27.509766 -81.106695,1.0351004 -91.638672,-25.203125 -91.638672,-25.203125 a 2.50025,2.50025 0 0 0 -2.326172,-1.601563 z"
       id="path3151"
       inkscape:connector-curvature="0" /><path
       style="color:#000000;font-style:normal;font-variant:normal;font-weight:normal;font-stretch:normal;font-size:medium;line-height:normal;font-family:sans-serif;text-indent:0;text-align:start;text-decoration:none;text-decoration-line:none;text-decoration-style:solid;text-decoration-color:#000000;letter-spacing:normal;word-spacing:normal;text-transform:none;direction:ltr;block-progression:tb;writing-mode:lr-tb;baseline-shift:baseline;text-anchor:start;white-space:normal;clip-rule:nonzero;display:inline;overflow:visible;visibility:visible;opacity:1;isolation:auto;mix-blend-mode:normal;color-interpolation:sRGB;color-interpolation-filters:linearRGB;solid-color:#000000;solid-opacity:1;fill:#4e6ebb;fill-opacity:1;fill-rule:nonzero;stroke:none;stroke-width:5;stroke-linecap:round;stroke-linejoin:round;stroke-miterlimit:10;stroke-dasharray:none;stroke-dashoffset:0;stroke-opacity:1;color-rendering:auto;image-rendering:auto;shape-rendering:auto;text-rendering:auto;enable-background:accumulate"
       d="m -87.429688,-57.275391 a 2.50025,2.50025 0 0 0 -2.392578,3.410157 c 0,0 14.158787,37.738001 30.78711,75.826172 8.314161,19.044085 17.239312,38.172351 25.373047,52.794921 4.066867,7.311285 7.92639,13.492416 11.490234,18.03711 3.563844,4.544694 6.611263,7.742431 10.548828,8.251951 a 2.50025,2.50025 0 1 0 0.640625,-4.958982 c -0.963935,-0.124733 -3.973101,-2.192659 -7.255859,-6.378907 C -21.521039,85.520784 -25.29893,79.506528 -29.292969,72.326172 -37.281046,57.965461 -46.173036,38.925024 -54.453125,19.958984 -71.013302,-17.973095 -85.142578,-55.621094 -85.142578,-55.621094 a 2.50025,2.50025 0 0 0 -2.28711,-1.654297 z"
       id="path3153"
       inkscape:connector-curvature="0" /><path
       style="color:#000000;font-style:normal;font-variant:normal;font-weight:normal;font-stretch:normal;font-size:medium;line-height:normal;font-family:sans-serif;text-indent:0;text-align:start;text-decoration:none;text-decoration-line:none;text-decoration-style:solid;text-decoration-color:#000000;letter-spacing:normal;word-spacing:normal;text-transform:none;direction:ltr;block-progression:tb;writing-mode:lr-tb;baseline-shift:baseline;text-anchor:start;white-space:normal;clip-rule:nonzero;display:inline;overflow:visible;visibility:visible;opacity:1;isolation:auto;mix-blend-mode:normal;color-interpolation:sRGB;color-interpolation-filters:linearRGB;solid-color:#000000;solid-opacity:1;fill:#4e6ebb;fill-opacity:1;fill-rule:nonzero;stroke:none;stroke-width:5;stroke-linecap:round;stroke-linejoin:round;stroke-miterlimit:10;stroke-dasharray:none;stroke-dashoffset:0;stroke-opacity:1;color-rendering:auto;image-rendering:auto;shape-rendering:auto;text-rendering:auto;enable-background:accumulate"
       d="m -74.664062,-75.289062 a 2.50025,2.50025 0 0 0 -2.275391,3.490234 c 0,0 17.196137,41.496829 35.541015,83.722656 9.17244,21.112914 18.630961,42.405757 26.384766,58.814453 3.876903,8.204349 7.3240473,15.18371 10.1191408,20.34375 1.3975467,2.58002 2.6295743,4.703358 3.7011718,6.333985 1.07159752,1.630627 1.71952709,2.725014 3.140625,3.617184 A 2.50025,2.50025 0 1 0 4.6054688,96.798828 C 4.8836917,96.973497 3.9245426,96.100555 2.984375,94.669922 2.0442074,93.239289 0.85968572,91.207691 -0.49804688,88.701172 -3.2135121,83.688134 -6.6386839,76.76248 -10.494141,68.603516 -18.205054,52.285587 -27.651064,31.019227 -36.8125,9.9316406 -55.135372,-32.243532 -72.320312,-73.712891 -72.320312,-73.712891 a 2.50025,2.50025 0 0 0 -2.34375,-1.576171 z"
       id="path3155"
       inkscape:connector-curvature="0" /><path
       style="color:#000000;font-style:normal;font-variant:normal;font-weight:normal;font-stretch:normal;font-size:medium;line-height:normal;font-family:sans-serif;text-indent:0;text-align:start;text-decoration:none;text-decoration-line:none;text-decoration-style:solid;text-decoration-color:#000000;letter-spacing:normal;word-spacing:normal;text-transform:none;direction:ltr;block-progression:tb;writing-mode:lr-tb;baseline-shift:baseline;text-anchor:start;white-space:normal;clip-rule:nonzero;display:inline;overflow:visible;visibility:visible;opacity:1;isolation:auto;mix-blend-mode:normal;color-interpolation:sRGB;color-interpolation-filters:linearRGB;solid-color:#000000;solid-opacity:1;fill:#4e6ebb;fill-opacity:1;fill-rule:nonzero;stroke:none;stroke-width:5;stroke-linecap:round;stroke-linejoin:round;stroke-miterlimit:10;stroke-dasharray:none;stroke-dashoffset:0;stroke-opacity:1;color-rendering:auto;image-rendering:auto;shape-rendering:auto;text-rendering:auto;enable-background:accumulate"
       d="m -58.382812,-90.037109 a 2.50025,2.50025 0 0 0 -2.333985,3.609375 c 0,0 21.326179,44.519391 42.330078,89.4199215 10.5019496,22.4502655 20.9240248,44.9979745 28.550781,62.1054685 3.813379,8.553747 6.929685,15.750863 8.996094,20.865235 1.033205,2.557186 1.804887,4.602659 2.25586,5.976562 0.21317,0.649431 0.338938,1.122414 0.396484,1.388672 a 2.50025,2.50025 0 0 0 4.417969,1.966797 c 0.773901,-0.942048 0.631565,-1.517509 0.625,-1.902344 -0.0066,-0.384834 -0.05616,-0.670077 -0.117188,-0.972656 C 26.616234,91.814764 26.426822,91.169463 26.167969,90.380859 25.650263,88.803651 24.851762,86.700695 23.796875,84.089844 21.6871,78.868142 18.556075,71.641722 14.730469,63.060547 7.0792567,45.898197 -3.3489963,23.337157 -13.857422,0.87304688 -34.874273,-44.055172 -56.207031,-88.587891 -56.207031,-88.587891 a 2.50025,2.50025 0 0 0 -2.175781,-1.449218 z M 21.886719,93.007812 a 2.50025,2.50025 0 0 0 -0.03516,0.132813 c 0.0037,-0.04458 0.02244,-0.07825 0.03516,-0.132813 z"
       id="path3157"
       inkscape:connector-curvature="0" /><path
       style="color:#000000;font-style:normal;font-variant:normal;font-weight:normal;font-stretch:normal;font-size:medium;line-height:normal;font-family:sans-serif;text-indent:0;text-align:start;text-decoration:none;text-decoration-line:none;text-decoration-style:solid;text-decoration-color:#000000;letter-spacing:normal;word-spacing:normal;text-transform:none;direction:ltr;block-progression:tb;writing-mode:lr-tb;baseline-shift:baseline;text-anchor:start;white-space:normal;clip-rule:nonzero;display:inline;overflow:visible;visibility:visible;opacity:1;isolation:auto;mix-blend-mode:normal;color-interpolation:sRGB;color-interpolation-filters:linearRGB;solid-color:#000000;solid-opacity:1;fill:#4e6ebb;fill-opacity:1;fill-rule:nonzero;stroke:none;stroke-width:5;stroke-linecap:round;stroke-linejoin:round;stroke-miterlimit:10;stroke-dasharray:none;stroke-dashoffset:0;stroke-opacity:1;color-rendering:auto;image-rendering:auto;shape-rendering:auto;text-rendering:auto;enable-background:accumulate"
       d="m -35.708984,-102.74805 a 2.50025,2.50025 0 0 0 -2.404297,3.031253 c 0,0 19.645454,96.8111254 79.482422,187.501953 a 2.50025,2.50025 0 1 0 4.173828,-2.751953 C -13.670064,-4.711969 -33.212891,-100.71094 -33.212891,-100.71094 a 2.50025,2.50025 0 0 0 -2.496093,-2.03711 z"
       id="path3159"
       inkscape:connector-curvature="0" /><path
       style="color:#000000;font-style:normal;font-variant:normal;font-weight:normal;font-stretch:normal;font-size:medium;line-height:normal;font-family:sans-serif;text-indent:0;text-align:start;text-decoration:none;text-decoration-line:none;text-decoration-style:solid;text-decoration-color:#000000;letter-spacing:normal;word-spacing:normal;text-transform:none;direction:ltr;block-progression:tb;writing-mode:lr-tb;baseline-shift:baseline;text-anchor:start;white-space:normal;clip-rule:nonzero;display:inline;overflow:visible;visibility:visible;opacity:1;isolation:auto;mix-blend-mode:normal;color-interpolation:sRGB;color-interpolation-filters:linearRGB;solid-color:#000000;solid-opacity:1;fill:#4e6ebb;fill-opacity:1;fill-rule:nonzero;stroke:none;stroke-width:5;stroke-linecap:round;stroke-linejoin:round;stroke-miterlimit:10;stroke-dasharray:none;stroke-dashoffset:0;stroke-opacity:1;color-rendering:auto;image-rendering:auto;shape-rendering:auto;text-rendering:auto;enable-background:accumulate"
       d="m -21.369141,-104.21289 a 2.50025,2.50025 0 0 0 -2.167968,3.55664 c 0,0 18.3468657,40.696592 37.173828,82.867188 9.413481,21.0852971 18.948489,42.538712 26.365234,59.453124 3.708373,8.457207 6.887905,15.780321 9.255859,21.347657 2.367955,5.567336 3.964943,9.525282 4.34375,10.691406 a 2.50025,2.50025 0 1 0 4.753907,-1.544922 C 57.774526,70.369827 56.238229,66.652242 53.857422,61.054688 51.476615,55.457133 48.292627,48.122981 44.580078,39.65625 37.15498,22.722788 27.619019,1.2625774 18.203125,-19.828125 -0.62866299,-62.00953 -18.978516,-102.71094 -18.978516,-102.71094 a 2.50025,2.50025 0 0 0 -2.390625,-1.50195 z"
       id="path3161"
       inkscape:connector-curvature="0" /><path
       style="color:#000000;font-style:normal;font-variant:normal;font-weight:normal;font-stretch:normal;font-size:medium;line-height:normal;font-family:sans-serif;text-indent:0;text-align:start;text-decoration:none;text-decoration-line:none;text-decoration-style:solid;text-decoration-color:#000000;letter-spacing:normal;word-spacing:normal;text-transform:none;direction:ltr;block-progression:tb;writing-mode:lr-tb;baseline-shift:baseline;text-anchor:start;white-space:normal;clip-rule:nonzero;display:inline;overflow:visible;visibility:visible;opacity:1;isolation:auto;mix-blend-mode:normal;color-interpolation:sRGB;color-interpolation-filters:linearRGB;solid-color:#000000;solid-opacity:1;fill:#4e6ebb;fill-opacity:1;fill-rule:nonzero;stroke:none;stroke-width:5;stroke-linecap:round;stroke-linejoin:round;stroke-miterlimit:10;stroke-dasharray:none;stroke-dashoffset:0;stroke-opacity:1;color-rendering:auto;image-rendering:auto;shape-rendering:auto;text-rendering:auto;enable-background:accumulate"
       d="m -0.703125,-103.48047 a 2.50025,2.50025 0 0 0 -2.2421875,3.51172 c 0,0 17.6591355,41.50674 36.0859375,83.054688 9.213401,20.7739731 18.616534,41.554877 26.115234,57.193359 3.74935,7.819241 7.017772,14.34662 9.576172,18.988281 1.279201,2.320831 2.37375,4.163771 3.316407,5.523438 0.471328,0.679833 0.893806,1.235865 1.371093,1.726562 0.477287,0.490697 0.867668,1.191111 2.449219,1.253906 a 2.50025,2.50025 0 0 0 1.080078,-4.810546 C 76.8906,62.790748 76.613938,62.455075 76.257812,61.941406 75.496394,60.843153 74.446036,59.094333 73.210938,56.853516 70.740741,52.37188 67.493916,45.892509 63.765625,38.117188 56.309044,22.566544 46.914161,1.8096201 37.710938,-18.941406 19.30449,-60.443459 1.6542969,-101.92578 1.6542969,-101.92578 a 2.50025,2.50025 0 0 0 -2.3574219,-1.55469 z"
       id="path3163"
       inkscape:connector-curvature="0" /><path
       style="color:#000000;font-style:normal;font-variant:normal;font-weight:normal;font-stretch:normal;font-size:medium;line-height:normal;font-family:sans-serif;text-indent:0;text-align:start;text-decoration:none;text-decoration-line:none;text-decoration-style:solid;text-decoration-color:#000000;letter-spacing:normal;word-spacing:normal;text-transform:none;direction:ltr;block-progression:tb;writing-mode:lr-tb;baseline-shift:baseline;text-anchor:start;white-space:normal;clip-rule:nonzero;display:inline;overflow:visible;visibility:visible;opacity:1;isolation:auto;mix-blend-mode:normal;color-interpolation:sRGB;color-interpolation-filters:linearRGB;solid-color:#000000;solid-opacity:1;fill:#4e6ebb;fill-opacity:1;fill-rule:nonzero;stroke:none;stroke-width:5;stroke-linecap:round;stroke-linejoin:round;stroke-miterlimit:10;stroke-dasharray:none;stroke-dashoffset:0;stroke-opacity:1;color-rendering:auto;image-rendering:auto;shape-rendering:auto;text-rendering:auto;enable-background:accumulate"
       d="m 21.183594,-105.30273 a 2.50025,2.50025 0 0 0 -2.390625,3.41211 c 0,0 13.840691,36.810079 28.607422,73.554682 7.383365,18.372302 14.995698,36.7256306 21.246093,50.496094 3.125198,6.885232 5.903809,12.616133 8.185547,16.695313 1.14087,2.03959 2.144372,3.659598 3.09375,4.882812 0.47469,0.611607 0.925969,1.126952 1.490235,1.583985 0.564266,0.457032 1.325243,1.026131 2.621093,0.910156 a 2.50025,2.50025 0 0 0 0.414063,-4.917969 C 84.336366,41.206883 84.155051,41.032702 83.875,40.671875 83.207213,39.811474 82.27023,38.335748 81.195312,36.414062 79.045477,32.570692 76.294568,26.913221 73.199219,20.09375 67.00852,6.4548074 59.410525,-11.861395 52.041016,-30.199219 37.301997,-66.874866 23.472656,-103.65039 23.472656,-103.65039 a 2.50025,2.50025 0 0 0 -2.289062,-1.65234 z"
       id="path3165"
       inkscape:connector-curvature="0" /><path
       style="color:#000000;font-style:normal;font-variant:normal;font-weight:normal;font-stretch:normal;font-size:medium;line-height:normal;font-family:sans-serif;text-indent:0;text-align:start;text-decoration:none;text-decoration-line:none;text-decoration-style:solid;text-decoration-color:#000000;letter-spacing:normal;word-spacing:normal;text-transform:none;direction:ltr;block-progression:tb;writing-mode:lr-tb;baseline-shift:baseline;text-anchor:start;white-space:normal;clip-rule:nonzero;display:inline;overflow:visible;visibility:visible;opacity:1;isolation:auto;mix-blend-mode:normal;color-interpolation:sRGB;color-interpolation-filters:linearRGB;solid-color:#000000;solid-opacity:1;fill:#4e6ebb;fill-opacity:1;fill-rule:nonzero;stroke:none;stroke-width:5;stroke-linecap:round;stroke-linejoin:round;stroke-miterlimit:10;stroke-dasharray:none;stroke-dashoffset:0;stroke-opacity:1;color-rendering:auto;image-rendering:auto;shape-rendering:auto;text-rendering:auto;enable-background:accumulate"
       d="m 41.34375,-98.347656 a 2.50025,2.50025 0 0 0 -2.189453,3.544922 c 0,0 14.683867,33.086011 29.460937,65.935546 7.388536,16.424768 14.800559,32.7904243 20.416016,44.941407 2.807728,6.075491 5.164315,11.09413 6.855469,14.560547 0.845577,1.733208 1.520259,3.072381 2.027343,4.003906 0.253543,0.465763 0.449116,0.812829 0.683594,1.15625 0.117239,0.17171 0.180364,0.319815 0.574219,0.666016 0.196928,0.1731 0.442891,0.540068 1.455075,0.638671 0.5061,0.0493 1.24777,-0.111064 1.75391,-0.488281 0.50614,-0.377217 0.7387,-0.82786 0.85547,-1.136719 a 2.50025,2.50025 0 0 0 -0.67969,-2.796875 c -0.0777,-0.130223 -0.12187,-0.194303 -0.25,-0.429687 -0.4331,-0.795621 -1.09586,-2.103562 -1.92578,-3.804688 C 98.721009,25.041108 96.37085,20.036493 93.570312,13.976562 87.969238,1.8567012 80.560871,-14.500861 73.175781,-30.917969 58.405602,-63.752184 43.724609,-96.830078 43.724609,-96.830078 a 2.50025,2.50025 0 0 0 -2.380859,-1.517578 z"
       id="path3167"
       inkscape:connector-curvature="0" /><path
       style="color:#000000;font-style:normal;font-variant:normal;font-weight:normal;font-stretch:normal;font-size:medium;line-height:normal;font-family:sans-serif;text-indent:0;text-align:start;text-decoration:none;text-decoration-line:none;text-decoration-style:solid;text-decoration-color:#000000;letter-spacing:normal;word-spacing:normal;text-transform:none;direction:ltr;block-progression:tb;writing-mode:lr-tb;baseline-shift:baseline;text-anchor:start;white-space:normal;clip-rule:nonzero;display:inline;overflow:visible;visibility:visible;opacity:1;isolation:auto;mix-blend-mode:normal;color-interpolation:sRGB;color-interpolation-filters:linearRGB;solid-color:#000000;solid-opacity:1;fill:#4e6ebb;fill-opacity:1;fill-rule:nonzero;stroke:none;stroke-width:5;stroke-linecap:round;stroke-linejoin:round;stroke-miterlimit:10;stroke-dasharray:none;stroke-dashoffset:0;stroke-opacity:1;color-rendering:auto;image-rendering:auto;shape-rendering:auto;text-rendering:auto;enable-background:accumulate"
       d="m 61.966797,-89.007812 a 2.50025,2.50025 0 0 0 -1.703125,4.201171 c -0.06876,-0.07598 0.366604,0.524188 0.820312,1.38086 0.453708,0.856671 1.022973,2.032585 1.675782,3.457031 1.305618,2.848892 2.950702,6.699379 4.808593,11.191406 3.715784,8.984055 8.293136,20.546666 12.853516,32.039063 4.56038,11.492397 9.103731,22.913511 12.769531,31.6582029 1.832901,4.37234588 3.442587,8.0711081 4.746094,10.8105469 0.651753,1.3697193 1.223079,2.4959455 1.736328,3.3867187 0.513252,0.8907735 0.596612,1.4581885 1.849612,2.2910155 a 2.50025,2.50025 0 1 0 2.76758,-4.1640624 c 0.75312,0.5005776 0.11442,0.070441 -0.28516,-0.6230468 C 103.60628,5.9276062 103.07274,4.8841986 102.45312,3.5820312 101.2139,0.97769653 99.618287,-2.678049 97.800781,-7.0136719 94.165769,-15.684918 89.62773,-27.092178 85.068359,-38.582031 80.508989,-50.071884 75.928029,-61.64557 72.1875,-70.689453 c -1.870264,-4.521942 -3.527126,-8.407447 -4.880859,-11.361328 -0.676867,-1.476941 -1.277539,-2.719505 -1.804688,-3.714844 -0.527148,-0.995339 -0.884864,-1.682257 -1.53125,-2.396484 a 2.50025,2.50025 0 0 0 -2.003906,-0.845703 z"
       id="path3169"
       inkscape:connector-curvature="0" /><path
       style="color:#000000;font-style:normal;font-variant:normal;font-weight:normal;font-stretch:normal;font-size:medium;line-height:normal;font-family:sans-serif;text-indent:0;text-align:start;text-decoration:none;text-decoration-line:none;text-decoration-style:solid;text-decoration-color:#000000;letter-spacing:normal;word-spacing:normal;text-transform:none;direction:ltr;block-progression:tb;writing-mode:lr-tb;baseline-shift:baseline;text-anchor:start;white-space:normal;clip-rule:nonzero;display:inline;overflow:visible;visibility:visible;opacity:1;isolation:auto;mix-blend-mode:normal;color-interpolation:sRGB;color-interpolation-filters:linearRGB;solid-color:#000000;solid-opacity:1;fill:#4e6ebb;fill-opacity:1;fill-rule:nonzero;stroke:none;stroke-width:5;stroke-linecap:round;stroke-linejoin:round;stroke-miterlimit:10;stroke-dasharray:none;stroke-dashoffset:0;stroke-opacity:1;color-rendering:auto;image-rendering:auto;shape-rendering:auto;text-rendering:auto;enable-background:accumulate"
       d="m 84.433594,-66.623047 a 2.50025,2.50025 0 0 0 -2.302735,3.107422 c 0,0 3.104606,13.089896 7.25586,26.460937 2.075627,6.685521 4.40622,13.439502 6.796875,18.761719 1.195327,2.661109 2.395337,4.961748 3.669922,6.783203 1.274584,1.8214561 2.545884,3.3652737 4.728514,3.869141 a 2.5006105,2.5006105 0 1 0 1.125,-4.873047 c 0.12938,0.02987 -0.78199,-0.46962 -1.75586,-1.861328 -0.97386,-1.391708 -2.08781,-3.475124 -3.20703,-5.966797 -2.238438,-4.983345 -4.538783,-11.614083 -6.582031,-18.195312 -4.086496,-13.162459 -7.167968,-26.132813 -7.167968,-26.132813 a 2.50025,2.50025 0 0 0 -2.560547,-1.953125 z"
       id="path3171"
       inkscape:connector-curvature="0" /></g><g
     id="Calque_1" /></svg>