<?xml version="1.0" encoding="UTF-8" standalone="no"?>
<!-- Generator: Adobe Illustrator 19.1.1, SVG Export Plug-In . SVG Version: 6.00 Build 0)  -->

<svg
   xmlns:dc="http://purl.org/dc/elements/1.1/"
   xmlns:cc="http://creativecommons.org/ns#"
   xmlns:rdf="http://www.w3.org/1999/02/22-rdf-syntax-ns#"
   xmlns:svg="http://www.w3.org/2000/svg"
   xmlns="http://www.w3.org/2000/svg"
   xmlns:sodipodi="http://sodipodi.sourceforge.net/DTD/sodipodi-0.dtd"
   xmlns:inkscape="http://www.inkscape.org/namespaces/inkscape"
   version="1.1"
   x="0px"
   y="0px"
   width="202.227px"
   height="203.391px"
   viewBox="0 0 202.227 203.391"
   style="enable-background:new 0 0 202.227 203.391;"
   xml:space="preserve"
   id="svg3044"
   inkscape:version="0.48.4 r9939"
   sodipodi:docname="LineCircle2.svg"><metadata
     id="metadata3076"><rdf:RDF><cc:Work
         rdf:about=""><dc:format>image/svg+xml</dc:format><dc:type
           rdf:resource="http://purl.org/dc/dcmitype/StillImage" /></cc:Work></rdf:RDF></metadata><defs
     id="defs3074" /><sodipodi:namedview
     pagecolor="#ffffff"
     bordercolor="#666666"
     borderopacity="1"
     objecttolerance="10"
     gridtolerance="10"
     guidetolerance="10"
     inkscape:pageopacity="0"
     inkscape:pageshadow="2"
     inkscape:window-width="1537"
     inkscape:window-height="876"
     id="namedview3072"
     showgrid="true"
     inkscape:zoom="1.1603266"
     inkscape:cx="101.1135"
     inkscape:cy="101.6955"
     inkscape:window-x="63"
     inkscape:window-y="24"
     inkscape:window-maximized="1"
     inkscape:current-layer="svg3044"><inkscape:grid
       type="xygrid"
       id="grid4836" /></sodipodi:namedview><g
     id="g4838"
     transform="translate(-13.78922,-4.3091314)"><path
       inkscape:connector-curvature="0"
       id="path3047"
       d="m -83.611857,-44.522708 c 0,0 -2.514359,18.945748 -4.03125,38.5937496 -0.758445,9.824 -1.286773,19.8071204 -1.09375,27.7812504 0.09651,3.98706 0.36431,7.48306 0.90625,10.28125 0.541941,2.79819 1.063066,5.10997 3.34375,6.5625 l 2.6875,-4.21875 c 0.266185,0.16953 -0.675237,-0.99025 -1.125,-3.3125 -0.449762,-2.32225 -0.719824,-5.57766 -0.8125,-9.40625 -0.185351,-7.65718 0.310946,-17.5465004 1.0625,-27.2812504 1.50311,-19.4694976 4.03125,-38.3437496 4.03125,-38.3437496 l -4.96875,-0.65625 z"
       style="font-size:medium;font-style:normal;font-variant:normal;font-weight:normal;font-stretch:normal;text-indent:0;text-align:start;text-decoration:none;line-height:normal;letter-spacing:normal;word-spacing:normal;text-transform:none;direction:ltr;block-progression:tb;writing-mode:lr-tb;text-anchor:start;baseline-shift:baseline;color:#000000;fill:#b74137;fill-opacity:1;stroke:none;stroke-width:5;marker:none;visibility:visible;display:inline;overflow:visible;enable-background:accumulate;font-family:Sans;-inkscape-font-specification:Sans" /><path
       inkscape:connector-curvature="0"
       id="path3049"
       d="m -69.236857,-63.991458 c 0,0 -2.13524,28.266474 -3.09375,57.4374996 -0.479255,14.58551 -0.683863,29.3738104 -0.15625,41.0625004 0.263807,5.84434 0.706701,10.9002 1.40625,14.84375 0.349775,1.97177 0.774629,3.69054 1.3125,5.125 0.537871,1.43446 1.133836,2.68146 2.40625,3.625 l 2.96875,-4.03125 c 0.09816,0.0728 -0.318149,-0.38997 -0.6875,-1.375 -0.369351,-0.98503 -0.746263,-2.40479 -1.0625,-4.1875 -0.632474,-3.56543 -1.085463,-8.49669 -1.34375,-14.21875 -0.516574,-11.44412 -0.320745,-26.1707604 0.15625,-40.6875004 0.95399,-29.0334736 3.0625,-57.2187496 3.0625,-57.2187496 l -4.96875,-0.375 z"
       style="font-size:medium;font-style:normal;font-variant:normal;font-weight:normal;font-stretch:normal;text-indent:0;text-align:start;text-decoration:none;line-height:normal;letter-spacing:normal;word-spacing:normal;text-transform:none;direction:ltr;block-progression:tb;writing-mode:lr-tb;text-anchor:start;baseline-shift:baseline;color:#000000;fill:#b74137;fill-opacity:1;stroke:none;stroke-width:5;marker:none;visibility:visible;display:inline;overflow:visible;enable-background:accumulate;font-family:Sans;-inkscape-font-specification:Sans" /><path
       inkscape:connector-curvature="0"
       id="path3051"
       d="m -49.986857,-88.553958 c 0,0 -3.925884,40.139305 -5.8125,81.6562496 -0.943308,20.7584704 -1.377231,41.8513204 -0.53125,58.5625004 0.422991,8.35559 1.151267,15.59902 2.34375,21.25 1.192483,5.65098 2.503972,9.86759 5.8125,12.0625 l 2.78125,-4.15625 c -0.809972,-0.53734 -2.620319,-3.73222 -3.71875,-8.9375 -1.098431,-5.20528 -1.834584,-12.26279 -2.25,-20.46875 -0.830831,-16.41192 -0.408192,-37.42035 0.53125,-58.0937504 1.878884,-41.3468046 5.84375,-81.3749996 5.84375,-81.3749996 l -5,-0.5 z"
       style="font-size:medium;font-style:normal;font-variant:normal;font-weight:normal;font-stretch:normal;text-indent:0;text-align:start;text-decoration:none;line-height:normal;letter-spacing:normal;word-spacing:normal;text-transform:none;direction:ltr;block-progression:tb;writing-mode:lr-tb;text-anchor:start;baseline-shift:baseline;color:#000000;fill:#b74137;fill-opacity:1;stroke:none;stroke-width:5;marker:none;visibility:visible;display:inline;overflow:visible;enable-background:accumulate;font-family:Sans;-inkscape-font-specification:Sans" /><path
       inkscape:connector-curvature="0"
       id="path3053"
       d="m -30.518107,-98.960208 c 0,0 -2.859197,44.82504 -5.03125,90.8124996 -1.086026,22.9937304 -1.998186,46.2912604 -2.28125,64.4375004 -0.141532,9.07312 -0.137398,16.8549 0.09375,22.71875 0.115574,2.93193 0.2892,5.37636 0.53125,7.3125 0.24205,1.93614 0.33707,3.19724 1.21875,4.625 l 4.25,-2.625 c 0.17268,0.27963 -0.287641,-0.92635 -0.5,-2.625 -0.212359,-1.69865 -0.387719,-4.02661 -0.5,-6.875 -0.224563,-5.69678 -0.234499,-13.44582 -0.09375,-22.46875 0.281498,-18.04585 1.196526,-41.28385 2.28125,-64.2500004 2.169447,-45.9322896 5.03125,-90.7187496 5.03125,-90.7187496 l -5,-0.34375 z"
       style="font-size:medium;font-style:normal;font-variant:normal;font-weight:normal;font-stretch:normal;text-indent:0;text-align:start;text-decoration:none;line-height:normal;letter-spacing:normal;word-spacing:normal;text-transform:none;direction:ltr;block-progression:tb;writing-mode:lr-tb;text-anchor:start;baseline-shift:baseline;color:#000000;fill:#b74137;fill-opacity:1;stroke:none;stroke-width:5;marker:none;visibility:visible;display:inline;overflow:visible;enable-background:accumulate;font-family:Sans;-inkscape-font-specification:Sans" /><path
       inkscape:connector-curvature="0"
       id="path3055"
       d="m -9.4868566,-104.92896 c 0,0 -0.502548,49.376529 -1.4687504,98.9375016 -0.483101,24.7804904 -1.075881,49.5952204 -1.78125,68.3125004 -0.352685,9.35864 -0.753707,17.21739 -1.15625,22.71875 -0.201271,2.75068 -0.392185,4.91182 -0.59375,6.34375 -0.100783,0.71596 -0.215784,1.25188 -0.28125,1.5 -0.03273,0.12406 -0.05079,0.20168 0,0.0937 0.05079,-0.10793 0.03562,-0.54803 1.03125,-1 l 2.09375,4.5313 c 1.110314,-0.50403 1.211122,-1.05805 1.375,-1.40625 0.163878,-0.3482 0.265009,-0.63907 0.3437504,-0.9375 0.157482,-0.59687 0.259308,-1.27187 0.375,-2.09375 0.231384,-1.64376 0.450756,-3.87911 0.65625,-6.6875 0.410988,-5.61678 0.771185,-13.48636 1.125,-22.875 0.707631,-18.77728 1.329101,-43.61049 1.8125,-68.4062504 0.966798,-49.5915266 1.46875,-98.9687516 1.46875,-98.9687516 l -5,-0.0625 z"
       style="font-size:medium;font-style:normal;font-variant:normal;font-weight:normal;font-stretch:normal;text-indent:0;text-align:start;text-decoration:none;line-height:normal;letter-spacing:normal;word-spacing:normal;text-transform:none;direction:ltr;block-progression:tb;writing-mode:lr-tb;text-anchor:start;baseline-shift:baseline;color:#000000;fill:#b74137;fill-opacity:1;stroke:none;stroke-width:5;marker:none;visibility:visible;display:inline;overflow:visible;enable-background:accumulate;font-family:Sans;-inkscape-font-specification:Sans" /><path
       inkscape:connector-curvature="0"
       id="path3057"
       d="m 16.669393,-106.86646 c 0,0 -25.1117926,95.555782 -11.4374996,203.343752 l 4.9687496,-0.625 C -3.3310636,-10.811738 21.481893,-105.58521 21.481893,-105.58521 l -4.8125,-1.28125 z"
       style="font-size:medium;font-style:normal;font-variant:normal;font-weight:normal;font-stretch:normal;text-indent:0;text-align:start;text-decoration:none;line-height:normal;letter-spacing:normal;word-spacing:normal;text-transform:none;direction:ltr;block-progression:tb;writing-mode:lr-tb;text-anchor:start;baseline-shift:baseline;color:#000000;fill:#b74137;fill-opacity:1;stroke:none;stroke-width:5;marker:none;visibility:visible;display:inline;overflow:visible;enable-background:accumulate;font-family:Sans;-inkscape-font-specification:Sans" /><path
       inkscape:connector-curvature="0"
       id="path3059"
       d="m 30.138143,-101.27271 c 0,0 -1.47247,44.599541 -3.1875,90.750002 -0.85752,23.07523 -1.78505,46.54872 -2.59375,65 -0.40435,9.22564 -0.76185,17.20914 -1.09375,23.25 -0.3319,6.04086 -0.66909,10.28637 -0.84375,11.5 l 4.96875,0.71875 c 0.26784,-1.86112 0.51005,-5.8951 0.84375,-11.96875 0.3337,-6.07365 0.72019,-14.04522 1.125,-23.28125 0.80961,-18.47206 1.73602,-41.95011 2.59375,-65.03125 1.71547,-46.162289 3.1875,-90.781252 3.1875,-90.781252 l -5,-0.15625 z"
       style="font-size:medium;font-style:normal;font-variant:normal;font-weight:normal;font-stretch:normal;text-indent:0;text-align:start;text-decoration:none;line-height:normal;letter-spacing:normal;word-spacing:normal;text-transform:none;direction:ltr;block-progression:tb;writing-mode:lr-tb;text-anchor:start;baseline-shift:baseline;color:#000000;fill:#b74137;fill-opacity:1;stroke:none;stroke-width:5;marker:none;visibility:visible;display:inline;overflow:visible;enable-background:accumulate;font-family:Sans;-inkscape-font-specification:Sans" /><path
       inkscape:connector-curvature="0"
       id="path3061"
       d="m 48.325643,-91.585208 c 0,0 -2.48201,45.053545 -4.28125,90.4687496 -0.89962,22.7076004 -1.60911,45.5012204 -1.78125,62.8437504 -0.0861,8.67126 -0.0287,15.98699 0.21875,21.28125 0.12372,2.64713 0.28539,4.77016 0.53125,6.40625 0.12293,0.81805 0.25703,1.50531 0.46875,2.15625 0.21172,0.65094 0.2335,1.46435 1.625,2.21875 l 2.40625,-4.40625 c 1.05637,0.57271 0.78417,0.82613 0.71875,0.625 -0.0654,-0.20113 -0.18195,-0.68297 -0.28125,-1.34375 -0.19859,-1.32157 -0.38055,-3.35037 -0.5,-5.90625 -0.2389,-5.11176 -0.27309,-12.34619 -0.1875,-20.96875 0.17117,-17.24513 0.88262,-40.03623 1.78125,-62.71875038 1.79726,-45.36504462 4.28125,-90.37499962 4.28125,-90.37499962 l -5,-0.28125 z"
       style="font-size:medium;font-style:normal;font-variant:normal;font-weight:normal;font-stretch:normal;text-indent:0;text-align:start;text-decoration:none;line-height:normal;letter-spacing:normal;word-spacing:normal;text-transform:none;direction:ltr;block-progression:tb;writing-mode:lr-tb;text-anchor:start;baseline-shift:baseline;color:#000000;fill:#b74137;fill-opacity:1;stroke:none;stroke-width:5;marker:none;visibility:visible;display:inline;overflow:visible;enable-background:accumulate;font-family:Sans;-inkscape-font-specification:Sans" /><path
       inkscape:connector-curvature="0"
       id="path3063"
       d="m 68.669393,-83.710208 c 0,0 -3.81722,39.135443 -6.78125,78.6249996 -1.48202,19.7447804 -2.75086,39.5721904 -3.21875,54.6875004 -0.23395,7.55766 -0.24748,13.92633 0,18.59375 0.12374,2.33371 0.28157,4.23337 0.59375,5.75 0.15609,0.75832 0.35155,1.43461 0.65625,2.09375 0.3047,0.65914 0.72351,1.50102 1.9375,1.96875 l 1.8125,-4.65625 c 0.78411,0.30211 0.82214,0.68221 0.78125,0.59375 -0.0409,-0.0885 -0.17146,-0.46662 -0.28125,-1 -0.21958,-1.06677 -0.41466,-2.80121 -0.53125,-5 -0.23317,-4.39758 -0.20046,-10.70203 0.0312,-18.1875 0.46342,-14.97094 1.73952,-34.76103 3.21875,-54.4687504 2.95847,-39.4154426 6.78125,-78.4999996 6.78125,-78.4999996 l -5,-0.5 z"
       style="font-size:medium;font-style:normal;font-variant:normal;font-weight:normal;font-stretch:normal;text-indent:0;text-align:start;text-decoration:none;line-height:normal;letter-spacing:normal;word-spacing:normal;text-transform:none;direction:ltr;block-progression:tb;writing-mode:lr-tb;text-anchor:start;baseline-shift:baseline;color:#000000;fill:#b74137;fill-opacity:1;stroke:none;stroke-width:5;marker:none;visibility:visible;display:inline;overflow:visible;enable-background:accumulate;font-family:Sans;-inkscape-font-specification:Sans" /><path
       inkscape:connector-curvature="0"
       id="path3065"
       d="m 83.825643,-68.366458 c 0,0 -1.42034,36.18848 -2.65625,72.1874996 -0.61796,17.9995104 -1.17695,35.9306004 -1.5,49.3125004 -0.16153,6.69095 -0.26912,12.23683 -0.28125,16.09375 -0.006,1.92846 -0.0127,3.44032 0.0312,4.5 0.022,0.52984 0.0661,0.9321 0.125,1.34375 0.0294,0.20582 0.0181,0.35924 0.21875,0.84375 0.10034,0.24226 0.16632,0.68362 1.03125,1.21875 0.43247,0.26756 1.16064,0.45897 1.78125,0.34375 0.62061,-0.11522 1.04022,-0.43063 1.28125,-0.65625 l -3.4375,-3.65625 c 0.22931,-0.21464 0.64068,-0.51188 1.25,-0.625 0.60932,-0.11312 1.32839,0.0829 1.75,0.34375 0.84323,0.5217 0.8884,0.93101 0.96875,1.125 0.1607,0.38799 0.0976,0.37044 0.0937,0.34375 -0.008,-0.0534 -0.0437,-0.39121 -0.0625,-0.84375 -0.0376,-0.90508 -0.0372,-2.35724 -0.0312,-4.25 0.0119,-3.78552 0.12014,-9.32619 0.28125,-16 0.32223,-13.34763 0.88233,-31.29013 1.5,-49.2812504 1.23534,-35.9822296 2.65625,-72.1249996 2.65625,-72.1249996 l -5,-0.21875 z"
       style="font-size:medium;font-style:normal;font-variant:normal;font-weight:normal;font-stretch:normal;text-indent:0;text-align:start;text-decoration:none;line-height:normal;letter-spacing:normal;word-spacing:normal;text-transform:none;direction:ltr;block-progression:tb;writing-mode:lr-tb;text-anchor:start;baseline-shift:baseline;color:#000000;fill:#b74137;fill-opacity:1;stroke:none;stroke-width:5;marker:none;visibility:visible;display:inline;overflow:visible;enable-background:accumulate;font-family:Sans;-inkscape-font-specification:Sans" /><path
       inkscape:connector-curvature="0"
       id="path3067"
       d="m 103.16939,-51.460208 -4.812497,1.375 c -0.0282,-0.09848 0.0959,0.656031 0.125,1.625 0.0291,0.968969 0.0116,2.277427 -0.0312,3.84375 -0.0856,3.132646 -0.30988,7.305406 -0.625,12.15625 -0.63023,9.701688 -1.61458,22.080945 -2.59375,34.4062496 -0.97917,12.3253104 -1.93066,24.5976404 -2.5,34.0625004 -0.28467,4.73243 -0.49212,8.74773 -0.53125,11.78125 -0.0196,1.51676 -0.005,2.78664 0.0625,3.8125 0.0675,1.02586 -0.10073,1.57472 0.65625,2.875 l 4.31245,-2.53125 c 0.45498,0.78153 0.0838,0.11113 0.0312,-0.6875 -0.0525,-0.79863 -0.0811,-1.96431 -0.0625,-3.40625 0.0372,-2.88389 0.21772,-6.86982 0.5,-11.5625 0.56456,-9.38535 1.5523,-21.61493 2.531247,-33.9375004 0.97895,-12.32257 1.95932,-24.7337196 2.59375,-34.4999996 0.31721,-4.88314 0.53623,-9.095681 0.625,-12.34375 0.0444,-1.624035 0.065,-2.999216 0.0312,-4.125 -0.0338,-1.125784 -0.0477,-1.917643 -0.3125,-2.84375 z"
       style="font-size:medium;font-style:normal;font-variant:normal;font-weight:normal;font-stretch:normal;text-indent:0;text-align:start;text-decoration:none;line-height:normal;letter-spacing:normal;word-spacing:normal;text-transform:none;direction:ltr;block-progression:tb;writing-mode:lr-tb;text-anchor:start;baseline-shift:baseline;color:#000000;fill:#b74137;fill-opacity:1;stroke:none;stroke-width:5;marker:none;visibility:visible;display:inline;overflow:visible;enable-background:accumulate;font-family:Sans;-inkscape-font-specification:Sans" /><path
       inkscape:connector-curvature="0"
       id="path3069"
       d="m 108.57564,-21.303958 c 0,0 -2.98078,13.1068636 -5.15625,26.9374996 -1.08773,6.9153204 -1.98415,14.0127604 -2.1875,19.8437504 -0.10167,2.9155 -0.0275,5.49049 0.3125,7.6875 0.34002,2.19701 0.79495,4.1472 2.53125,5.5625 l 3.15625,-3.875 c 0.1028,0.0838 -0.49021,-0.75887 -0.75,-2.4375 -0.25979,-1.67863 -0.3452,-4.0514 -0.25,-6.78125 0.1904,-5.4597 1.05423,-12.41132 2.125,-19.2187504 2.14153,-13.614864 5.09375,-26.6249996 5.09375,-26.6249996 l -4.875,-1.09375 z"
       style="font-size:medium;font-style:normal;font-variant:normal;font-weight:normal;font-stretch:normal;text-indent:0;text-align:start;text-decoration:none;line-height:normal;letter-spacing:normal;word-spacing:normal;text-transform:none;direction:ltr;block-progression:tb;writing-mode:lr-tb;text-anchor:start;baseline-shift:baseline;color:#000000;fill:#b74137;fill-opacity:1;stroke:none;stroke-width:5;marker:none;visibility:visible;display:inline;overflow:visible;enable-background:accumulate;font-family:Sans;-inkscape-font-specification:Sans" /></g><g
     id="Calque_1" /></svg>