<?xml version="1.0" encoding="UTF-8" standalone="no"?>
<!-- Generator: Adobe Illustrator 19.1.1, SVG Export Plug-In . SVG Version: 6.00 Build 0)  -->

<svg
   xmlns:dc="http://purl.org/dc/elements/1.1/"
   xmlns:cc="http://creativecommons.org/ns#"
   xmlns:rdf="http://www.w3.org/1999/02/22-rdf-syntax-ns#"
   xmlns:svg="http://www.w3.org/2000/svg"
   xmlns="http://www.w3.org/2000/svg"
   xmlns:sodipodi="http://sodipodi.sourceforge.net/DTD/sodipodi-0.dtd"
   xmlns:inkscape="http://www.inkscape.org/namespaces/inkscape"
   version="1.1"
   x="0px"
   y="0px"
   width="202.227px"
   height="203.391px"
   viewBox="0 0 202.227 203.391"
   style="enable-background:new 0 0 202.227 203.391;"
   xml:space="preserve"
   id="svg3112"
   inkscape:version="0.91 r13725"
   sodipodi:docname="LineCircle4.svg"><metadata
     id="metadata3144"><rdf:RDF><cc:Work
         rdf:about=""><dc:format>image/svg+xml</dc:format><dc:type
           rdf:resource="http://purl.org/dc/dcmitype/StillImage" /></cc:Work></rdf:RDF></metadata><defs
     id="defs3142" /><sodipodi:namedview
     pagecolor="#ffffff"
     bordercolor="#666666"
     borderopacity="1"
     objecttolerance="10"
     gridtolerance="10"
     guidetolerance="10"
     inkscape:pageopacity="0"
     inkscape:pageshadow="2"
     inkscape:window-width="1855"
     inkscape:window-height="1056"
     id="namedview3140"
     showgrid="true"
     inkscape:zoom="1.1603266"
     inkscape:cx="-351.77621"
     inkscape:cy="101.6955"
     inkscape:window-x="65"
     inkscape:window-y="24"
     inkscape:window-maximized="1"
     inkscape:current-layer="svg3112"><inkscape:grid
       type="xygrid"
       id="grid4118" /></sodipodi:namedview><g
     id="Calque_1" /><path
     style="color:#000000;font-style:normal;font-variant:normal;font-weight:normal;font-stretch:normal;font-size:medium;line-height:normal;font-family:sans-serif;text-indent:0;text-align:start;text-decoration:none;text-decoration-line:none;text-decoration-style:solid;text-decoration-color:#000000;letter-spacing:normal;word-spacing:normal;text-transform:none;direction:ltr;block-progression:tb;writing-mode:lr-tb;baseline-shift:baseline;text-anchor:start;white-space:normal;clip-rule:nonzero;display:inline;overflow:visible;visibility:visible;opacity:1;isolation:auto;mix-blend-mode:normal;color-interpolation:sRGB;color-interpolation-filters:linearRGB;solid-color:#000000;solid-opacity:1;fill:#ffffff;fill-opacity:1;fill-rule:nonzero;stroke:none;stroke-width:5;stroke-linecap:round;stroke-linejoin:round;stroke-miterlimit:10;stroke-dasharray:none;stroke-dashoffset:0;stroke-opacity:1;color-rendering:auto;image-rendering:auto;shape-rendering:auto;text-rendering:auto;enable-background:accumulate"
     d="m -100.32422,-2.1679688 a 2.50025,2.50025 0 0 0 -2.25976,3.328125 c 0,0 6.104732,18.1328438 13.414058,36.4335938 3.654663,9.150375 7.604801,18.339696 11.296875,25.410156 1.846037,3.535231 3.616808,6.536785 5.337891,8.808594 1.721082,2.271809 3.210795,4.132759 5.898437,4.429688 a 2.50025,2.50025 0 1 0 0.548828,-4.96875 c 0.313892,0.03468 -1.034547,-0.595072 -2.46289,-2.480469 -1.428344,-1.885397 -3.117959,-4.708794 -4.890625,-8.103516 C -76.986738,53.900009 -80.905882,44.807482 -84.527344,35.740234 -91.770268,17.60574 -97.845703,-0.43554688 -97.845703,-0.43554688 a 2.50025,2.50025 0 0 0 -2.478517,-1.73242192 z"
     id="path3149"
     inkscape:connector-curvature="0" /><path
     style="color:#000000;font-style:normal;font-variant:normal;font-weight:normal;font-stretch:normal;font-size:medium;line-height:normal;font-family:sans-serif;text-indent:0;text-align:start;text-decoration:none;text-decoration-line:none;text-decoration-style:solid;text-decoration-color:#000000;letter-spacing:normal;word-spacing:normal;text-transform:none;direction:ltr;block-progression:tb;writing-mode:lr-tb;baseline-shift:baseline;text-anchor:start;white-space:normal;clip-rule:nonzero;display:inline;overflow:visible;visibility:visible;opacity:1;isolation:auto;mix-blend-mode:normal;color-interpolation:sRGB;color-interpolation-filters:linearRGB;solid-color:#000000;solid-opacity:1;fill:#ffffff;fill-opacity:1;fill-rule:nonzero;stroke:none;stroke-width:5;stroke-linecap:round;stroke-linejoin:round;stroke-miterlimit:10;stroke-dasharray:none;stroke-dashoffset:0;stroke-opacity:1;color-rendering:auto;image-rendering:auto;shape-rendering:auto;text-rendering:auto;enable-background:accumulate"
     d="m -95.964844,-26.109375 a 2.50025,2.50025 0 0 0 -2.314453,3.462891 c 0,0 10.55932,26.3100729 22.572266,52.910156 6.006473,13.300041 12.372354,26.669633 18.003906,36.925781 2.815776,5.128074 5.440647,9.473071 7.808594,12.703125 1.183973,1.615027 2.298418,2.952096 3.414062,4.001953 1.115645,1.049857 2.203484,1.904303 3.761719,2.189453 a 2.50025,2.50025 0 1 0 0.898438,-4.917968 c 0.12036,0.02202 -0.468289,-0.191198 -1.234376,-0.91211 -0.766086,-0.720911 -1.738143,-1.858185 -2.808593,-3.318359 -2.140901,-2.920348 -4.700167,-7.131559 -7.457031,-12.152344 C -58.834041,54.741634 -65.172238,41.44241 -71.150391,28.205078 -83.106695,1.7304146 -93.638672,-24.507813 -93.638672,-24.507812 a 2.50025,2.50025 0 0 0 -2.326172,-1.601563 z"
     id="path3151"
     inkscape:connector-curvature="0" /><path
     style="color:#000000;font-style:normal;font-variant:normal;font-weight:normal;font-stretch:normal;font-size:medium;line-height:normal;font-family:sans-serif;text-indent:0;text-align:start;text-decoration:none;text-decoration-line:none;text-decoration-style:solid;text-decoration-color:#000000;letter-spacing:normal;word-spacing:normal;text-transform:none;direction:ltr;block-progression:tb;writing-mode:lr-tb;baseline-shift:baseline;text-anchor:start;white-space:normal;clip-rule:nonzero;display:inline;overflow:visible;visibility:visible;opacity:1;isolation:auto;mix-blend-mode:normal;color-interpolation:sRGB;color-interpolation-filters:linearRGB;solid-color:#000000;solid-opacity:1;fill:#ffffff;fill-opacity:1;fill-rule:nonzero;stroke:none;stroke-width:5;stroke-linecap:round;stroke-linejoin:round;stroke-miterlimit:10;stroke-dasharray:none;stroke-dashoffset:0;stroke-opacity:1;color-rendering:auto;image-rendering:auto;shape-rendering:auto;text-rendering:auto;enable-background:accumulate"
     d="m -89.429688,-56.580078 a 2.50025,2.50025 0 0 0 -2.392578,3.410156 c 0,0 14.158787,37.738004 30.78711,75.826172 8.314161,19.044084 17.239312,38.172353 25.373047,52.794922 4.066867,7.311284 7.92639,13.492415 11.490234,18.037109 3.563844,4.544694 6.611263,7.742439 10.548828,8.251949 a 2.50025,2.50025 0 1 0 0.640625,-4.95898 c -0.963935,-0.124732 -3.973101,-2.192659 -7.255859,-6.378906 -3.282758,-4.186247 -7.060649,-10.200504 -11.054688,-17.38086 -7.988077,-14.36071 -16.880067,-33.401148 -25.160156,-52.367187 -16.560177,-37.932078 -30.689453,-75.580078 -30.689453,-75.580078 a 2.50025,2.50025 0 0 0 -2.28711,-1.654297 z"
     id="path3153"
     inkscape:connector-curvature="0" /><path
     style="color:#000000;font-style:normal;font-variant:normal;font-weight:normal;font-stretch:normal;font-size:medium;line-height:normal;font-family:sans-serif;text-indent:0;text-align:start;text-decoration:none;text-decoration-line:none;text-decoration-style:solid;text-decoration-color:#000000;letter-spacing:normal;word-spacing:normal;text-transform:none;direction:ltr;block-progression:tb;writing-mode:lr-tb;baseline-shift:baseline;text-anchor:start;white-space:normal;clip-rule:nonzero;display:inline;overflow:visible;visibility:visible;opacity:1;isolation:auto;mix-blend-mode:normal;color-interpolation:sRGB;color-interpolation-filters:linearRGB;solid-color:#000000;solid-opacity:1;fill:#ffffff;fill-opacity:1;fill-rule:nonzero;stroke:none;stroke-width:5;stroke-linecap:round;stroke-linejoin:round;stroke-miterlimit:10;stroke-dasharray:none;stroke-dashoffset:0;stroke-opacity:1;color-rendering:auto;image-rendering:auto;shape-rendering:auto;text-rendering:auto;enable-background:accumulate"
     d="m -76.664062,-74.59375 a 2.50025,2.50025 0 0 0 -2.275391,3.490234 c 0,0 17.196137,41.496832 35.541015,83.722657 9.17244,21.112912 18.630961,42.405757 26.384766,58.814453 3.876903,8.204348 7.3240472,15.18371 10.1191408,20.34375 1.3975467,2.58002 2.6295742,4.701404 3.7011718,6.332031 1.0715976,1.630627 1.719527,2.726975 3.14062503,3.619145 A 2.50025,2.50025 0 1 0 2.6054688,97.494141 C 2.8836916,97.66881 1.9245427,96.793914 0.984375,95.363281 0.04420729,93.932648 -1.1403142,91.903003 -2.4980469,89.396484 -5.2135122,84.383447 -8.6386838,77.455839 -12.494141,69.296875 -20.205054,52.978947 -29.651064,31.714539 -38.8125,10.626953 -57.135372,-31.548218 -74.320312,-73.017578 -74.320312,-73.017578 a 2.50025,2.50025 0 0 0 -2.34375,-1.576172 z"
     id="path3155"
     inkscape:connector-curvature="0" /><path
     style="color:#000000;font-style:normal;font-variant:normal;font-weight:normal;font-stretch:normal;font-size:medium;line-height:normal;font-family:sans-serif;text-indent:0;text-align:start;text-decoration:none;text-decoration-line:none;text-decoration-style:solid;text-decoration-color:#000000;letter-spacing:normal;word-spacing:normal;text-transform:none;direction:ltr;block-progression:tb;writing-mode:lr-tb;baseline-shift:baseline;text-anchor:start;white-space:normal;clip-rule:nonzero;display:inline;overflow:visible;visibility:visible;opacity:1;isolation:auto;mix-blend-mode:normal;color-interpolation:sRGB;color-interpolation-filters:linearRGB;solid-color:#000000;solid-opacity:1;fill:#ffffff;fill-opacity:1;fill-rule:nonzero;stroke:none;stroke-width:5;stroke-linecap:round;stroke-linejoin:round;stroke-miterlimit:10;stroke-dasharray:none;stroke-dashoffset:0;stroke-opacity:1;color-rendering:auto;image-rendering:auto;shape-rendering:auto;text-rendering:auto;enable-background:accumulate"
     d="m -60.382812,-89.341797 a 2.50025,2.50025 0 0 0 -2.333985,3.609375 c 0,0 21.326179,44.519394 42.330078,89.419922 10.5019496,22.450264 20.9240248,44.997975 28.5507815,62.105469 3.8133785,8.553746 6.9296845,15.750862 8.9960935,20.865234 1.033205,2.557186 1.804887,4.60266 2.25586,5.976563 0.21317,0.64943 0.338938,1.122414 0.396484,1.388672 a 2.50025,2.50025 0 0 0 4.417969,1.966796 c 0.773901,-0.942048 0.631565,-1.517509 0.625,-1.902343 -0.0066,-0.384835 -0.05616,-0.670077 -0.117188,-0.972657 C 24.616234,92.510076 24.426822,91.862823 24.167969,91.074219 23.650263,89.497011 22.851762,87.396007 21.796875,84.785156 19.6871,79.563454 16.556075,72.337034 12.730469,63.755859 5.0792567,46.593511 -5.3489963,24.032468 -15.857422,1.5683594 -36.874273,-43.359858 -58.207031,-87.892578 -58.207031,-87.892578 a 2.50025,2.50025 0 0 0 -2.175781,-1.449219 z M 19.886719,93.699219 a 2.50025,2.50025 0 0 0 -0.03516,0.136719 c 0.0037,-0.04548 0.02206,-0.08077 0.03516,-0.136719 z"
     id="path3157"
     inkscape:connector-curvature="0" /><path
     style="color:#000000;font-style:normal;font-variant:normal;font-weight:normal;font-stretch:normal;font-size:medium;line-height:normal;font-family:sans-serif;text-indent:0;text-align:start;text-decoration:none;text-decoration-line:none;text-decoration-style:solid;text-decoration-color:#000000;letter-spacing:normal;word-spacing:normal;text-transform:none;direction:ltr;block-progression:tb;writing-mode:lr-tb;baseline-shift:baseline;text-anchor:start;white-space:normal;clip-rule:nonzero;display:inline;overflow:visible;visibility:visible;opacity:1;isolation:auto;mix-blend-mode:normal;color-interpolation:sRGB;color-interpolation-filters:linearRGB;solid-color:#000000;solid-opacity:1;fill:#ffffff;fill-opacity:1;fill-rule:nonzero;stroke:none;stroke-width:5;stroke-linecap:round;stroke-linejoin:round;stroke-miterlimit:10;stroke-dasharray:none;stroke-dashoffset:0;stroke-opacity:1;color-rendering:auto;image-rendering:auto;shape-rendering:auto;text-rendering:auto;enable-background:accumulate"
     d="m -37.708984,-102.05273 a 2.50025,2.50025 0 0 0 -2.404297,3.031246 c 0,0 19.645454,96.811135 79.482422,187.501953 a 2.50025,2.50025 0 1 0 4.173828,-2.753907 C -15.670064,-4.0185994 -35.212891,-100.01758 -35.212891,-100.01758 a 2.50025,2.50025 0 0 0 -2.496093,-2.03515 z"
     id="path3159"
     inkscape:connector-curvature="0" /><path
     style="color:#000000;font-style:normal;font-variant:normal;font-weight:normal;font-stretch:normal;font-size:medium;line-height:normal;font-family:sans-serif;text-indent:0;text-align:start;text-decoration:none;text-decoration-line:none;text-decoration-style:solid;text-decoration-color:#000000;letter-spacing:normal;word-spacing:normal;text-transform:none;direction:ltr;block-progression:tb;writing-mode:lr-tb;baseline-shift:baseline;text-anchor:start;white-space:normal;clip-rule:nonzero;display:inline;overflow:visible;visibility:visible;opacity:1;isolation:auto;mix-blend-mode:normal;color-interpolation:sRGB;color-interpolation-filters:linearRGB;solid-color:#000000;solid-opacity:1;fill:#ffffff;fill-opacity:1;fill-rule:nonzero;stroke:none;stroke-width:5;stroke-linecap:round;stroke-linejoin:round;stroke-miterlimit:10;stroke-dasharray:none;stroke-dashoffset:0;stroke-opacity:1;color-rendering:auto;image-rendering:auto;shape-rendering:auto;text-rendering:auto;enable-background:accumulate"
     d="m -23.369141,-103.51758 a 2.50025,2.50025 0 0 0 -2.167968,3.556642 c 0,0 18.3468657,40.696594 37.173828,82.867188 9.413481,21.0852968 18.948489,42.538714 26.365234,59.453125 3.708373,8.457206 6.887905,15.780321 9.255859,21.347656 2.367955,5.567335 3.964943,9.52333 4.34375,10.689453 a 2.50025,2.50025 0 1 0 4.753907,-1.542968 C 55.774526,71.065141 54.238229,67.347553 51.857422,61.75 49.476615,56.152447 46.292627,48.818293 42.580078,40.351562 35.15498,23.418102 25.619019,1.9578892 16.203125,-19.132812 -2.628663,-61.314216 -20.978516,-102.01563 -20.978516,-102.01562 a 2.50025,2.50025 0 0 0 -2.390625,-1.50196 z"
     id="path3161"
     inkscape:connector-curvature="0" /><path
     style="color:#000000;font-style:normal;font-variant:normal;font-weight:normal;font-stretch:normal;font-size:medium;line-height:normal;font-family:sans-serif;text-indent:0;text-align:start;text-decoration:none;text-decoration-line:none;text-decoration-style:solid;text-decoration-color:#000000;letter-spacing:normal;word-spacing:normal;text-transform:none;direction:ltr;block-progression:tb;writing-mode:lr-tb;baseline-shift:baseline;text-anchor:start;white-space:normal;clip-rule:nonzero;display:inline;overflow:visible;visibility:visible;opacity:1;isolation:auto;mix-blend-mode:normal;color-interpolation:sRGB;color-interpolation-filters:linearRGB;solid-color:#000000;solid-opacity:1;fill:#ffffff;fill-opacity:1;fill-rule:nonzero;stroke:none;stroke-width:5;stroke-linecap:round;stroke-linejoin:round;stroke-miterlimit:10;stroke-dasharray:none;stroke-dashoffset:0;stroke-opacity:1;color-rendering:auto;image-rendering:auto;shape-rendering:auto;text-rendering:auto;enable-background:accumulate"
     d="m -2.703125,-102.78516 a 2.50025,2.50025 0 0 0 -2.2421875,3.511722 c 0,0 17.6591355,41.506741 36.0859375,83.054688 9.213401,20.7739735 18.616534,41.554878 26.115234,57.193359 3.74935,7.819241 7.017772,14.34662 9.576172,18.988282 1.279201,2.32083 2.37375,4.16377 3.316407,5.523437 0.471328,0.679834 0.893806,1.235865 1.371093,1.726563 0.477287,0.490697 0.867668,1.191111 2.449219,1.253906 A 2.50025,2.50025 0 0 0 75.048828,63.65625 C 74.8906,63.48606 74.613938,63.150387 74.257812,62.636719 73.496394,61.538466 72.446036,59.789646 71.210938,57.548828 68.740741,53.067193 65.493916,46.587822 61.765625,38.8125 54.309044,23.261857 44.914161,2.5049325 35.710938,-18.246094 17.30449,-59.748146 -0.34570312,-101.23242 -0.34570312,-101.23242 a 2.50025,2.50025 0 0 0 -2.35742188,-1.55274 z"
     id="path3163"
     inkscape:connector-curvature="0" /><path
     style="color:#000000;font-style:normal;font-variant:normal;font-weight:normal;font-stretch:normal;font-size:medium;line-height:normal;font-family:sans-serif;text-indent:0;text-align:start;text-decoration:none;text-decoration-line:none;text-decoration-style:solid;text-decoration-color:#000000;letter-spacing:normal;word-spacing:normal;text-transform:none;direction:ltr;block-progression:tb;writing-mode:lr-tb;baseline-shift:baseline;text-anchor:start;white-space:normal;clip-rule:nonzero;display:inline;overflow:visible;visibility:visible;opacity:1;isolation:auto;mix-blend-mode:normal;color-interpolation:sRGB;color-interpolation-filters:linearRGB;solid-color:#000000;solid-opacity:1;fill:#ffffff;fill-opacity:1;fill-rule:nonzero;stroke:none;stroke-width:5;stroke-linecap:round;stroke-linejoin:round;stroke-miterlimit:10;stroke-dasharray:none;stroke-dashoffset:0;stroke-opacity:1;color-rendering:auto;image-rendering:auto;shape-rendering:auto;text-rendering:auto;enable-background:accumulate"
     d="m 19.183594,-104.60742 a 2.50025,2.50025 0 0 0 -2.390625,3.41211 c 0,0 13.840691,36.810082 28.607422,73.554685 7.383365,18.3723014 14.995698,36.7256302 21.246093,50.496094 3.125198,6.885232 5.903809,12.616132 8.185547,16.695312 1.14087,2.03959 2.144372,3.659598 3.09375,4.882813 0.47469,0.611607 0.925969,1.126952 1.490235,1.583984 0.564266,0.457032 1.325243,1.026132 2.621093,0.910156 a 2.50025,2.50025 0 0 0 0.414063,-4.917968 C 82.336366,41.902195 82.155051,41.728015 81.875,41.367188 81.207213,40.506786 80.27023,39.03106 79.195312,37.109375 77.045477,33.266004 74.294568,27.608534 71.199219,20.789062 65.008521,7.15012 57.410525,-11.166083 50.041016,-29.503906 35.301997,-66.179553 21.472656,-102.95508 21.472656,-102.95508 a 2.50025,2.50025 0 0 0 -2.289062,-1.65234 z"
     id="path3165"
     inkscape:connector-curvature="0" /><path
     style="color:#000000;font-style:normal;font-variant:normal;font-weight:normal;font-stretch:normal;font-size:medium;line-height:normal;font-family:sans-serif;text-indent:0;text-align:start;text-decoration:none;text-decoration-line:none;text-decoration-style:solid;text-decoration-color:#000000;letter-spacing:normal;word-spacing:normal;text-transform:none;direction:ltr;block-progression:tb;writing-mode:lr-tb;baseline-shift:baseline;text-anchor:start;white-space:normal;clip-rule:nonzero;display:inline;overflow:visible;visibility:visible;opacity:1;isolation:auto;mix-blend-mode:normal;color-interpolation:sRGB;color-interpolation-filters:linearRGB;solid-color:#000000;solid-opacity:1;fill:#ffffff;fill-opacity:1;fill-rule:nonzero;stroke:none;stroke-width:5;stroke-linecap:round;stroke-linejoin:round;stroke-miterlimit:10;stroke-dasharray:none;stroke-dashoffset:0;stroke-opacity:1;color-rendering:auto;image-rendering:auto;shape-rendering:auto;text-rendering:auto;enable-background:accumulate"
     d="m 39.34375,-97.652344 a 2.50025,2.50025 0 0 0 -2.189453,3.544922 c 0,0 14.683867,33.086012 29.460937,65.935547 7.388536,16.424768 14.800559,32.7904237 20.416016,44.941406 2.807728,6.075492 5.164315,11.094131 6.855469,14.560547 0.845577,1.733208 1.520259,3.070428 2.027343,4.001953 0.253543,0.465763 0.449116,0.814783 0.683594,1.158203 0.117239,0.171711 0.180364,0.319815 0.574219,0.666016 0.196928,0.1731 0.442891,0.538116 1.455078,0.636719 0.506094,0.0493 1.247767,-0.109111 1.753907,-0.486328 0.50614,-0.377218 0.7387,-0.827861 0.85547,-1.136719 a 2.50025,2.50025 0 0 0 -0.67969,-2.796875 c -0.0777,-0.13022 -0.12169,-0.195931 -0.25,-0.431641 -0.433103,-0.79562 -1.095856,-2.103561 -1.925781,-3.804687 C 96.721009,25.734467 94.37085,20.731806 91.570312,14.671875 85.969238,2.5520136 78.560871,-13.805549 71.175781,-30.222656 56.405602,-63.056871 41.724609,-96.134766 41.724609,-96.134766 a 2.50025,2.50025 0 0 0 -2.380859,-1.517578 z"
     id="path3167"
     inkscape:connector-curvature="0" /><path
     style="color:#000000;font-style:normal;font-variant:normal;font-weight:normal;font-stretch:normal;font-size:medium;line-height:normal;font-family:sans-serif;text-indent:0;text-align:start;text-decoration:none;text-decoration-line:none;text-decoration-style:solid;text-decoration-color:#000000;letter-spacing:normal;word-spacing:normal;text-transform:none;direction:ltr;block-progression:tb;writing-mode:lr-tb;baseline-shift:baseline;text-anchor:start;white-space:normal;clip-rule:nonzero;display:inline;overflow:visible;visibility:visible;opacity:1;isolation:auto;mix-blend-mode:normal;color-interpolation:sRGB;color-interpolation-filters:linearRGB;solid-color:#000000;solid-opacity:1;fill:#ffffff;fill-opacity:1;fill-rule:nonzero;stroke:none;stroke-width:5;stroke-linecap:round;stroke-linejoin:round;stroke-miterlimit:10;stroke-dasharray:none;stroke-dashoffset:0;stroke-opacity:1;color-rendering:auto;image-rendering:auto;shape-rendering:auto;text-rendering:auto;enable-background:accumulate"
     d="m 59.966797,-88.3125 a 2.50025,2.50025 0 0 0 -1.703125,4.201172 c -0.06876,-0.07598 0.366604,0.524188 0.820312,1.380859 0.453708,0.856672 1.022973,2.032585 1.675782,3.457031 1.305618,2.848893 2.950702,6.69938 4.808593,11.191407 3.715784,8.984054 8.293137,20.546665 12.853516,32.039062 4.560379,11.492397 9.103732,22.913512 12.769531,31.6582034 1.8329,4.37234586 3.442589,8.0711083 4.746094,10.8105468 0.651753,1.3697193 1.22308,2.4959458 1.736328,3.3867188 0.513248,0.890773 0.596609,1.458187 1.84961,2.291016 a 2.50025,2.50025 0 1 0 2.767582,-4.1640629 c 0.75312,0.5005789 0.11442,0.070441 -0.28516,-0.6230469 -0.39958,-0.6934877 -0.93313,-1.736895 -1.55274,-3.0390624 C 99.213906,1.6730088 97.618286,-1.9827364 95.800781,-6.3183594 92.165771,-14.989605 87.627729,-26.396865 83.068359,-37.886719 78.50899,-49.376572 73.928029,-60.950257 70.1875,-69.994141 c -1.870264,-4.521941 -3.527126,-8.409399 -4.880859,-11.363281 -0.676867,-1.476941 -1.277539,-2.717551 -1.804688,-3.71289 -0.527148,-0.99534 -0.884864,-1.682258 -1.53125,-2.396485 A 2.50025,2.50025 0 0 0 59.966797,-88.3125 Z"
     id="path3169"
     inkscape:connector-curvature="0" /><path
     style="color:#000000;font-style:normal;font-variant:normal;font-weight:normal;font-stretch:normal;font-size:medium;line-height:normal;font-family:sans-serif;text-indent:0;text-align:start;text-decoration:none;text-decoration-line:none;text-decoration-style:solid;text-decoration-color:#000000;letter-spacing:normal;word-spacing:normal;text-transform:none;direction:ltr;block-progression:tb;writing-mode:lr-tb;baseline-shift:baseline;text-anchor:start;white-space:normal;clip-rule:nonzero;display:inline;overflow:visible;visibility:visible;opacity:1;isolation:auto;mix-blend-mode:normal;color-interpolation:sRGB;color-interpolation-filters:linearRGB;solid-color:#000000;solid-opacity:1;fill:#ffffff;fill-opacity:1;fill-rule:nonzero;stroke:none;stroke-width:5;stroke-linecap:round;stroke-linejoin:round;stroke-miterlimit:10;stroke-dasharray:none;stroke-dashoffset:0;stroke-opacity:1;color-rendering:auto;image-rendering:auto;shape-rendering:auto;text-rendering:auto;enable-background:accumulate"
     d="m 82.433594,-65.927734 a 2.50025,2.50025 0 0 0 -2.302735,3.107422 c 0,0 3.104607,13.089896 7.25586,26.460937 2.075626,6.685521 4.406221,13.439502 6.796875,18.761719 1.195326,2.661108 2.395338,4.961747 3.669922,6.783203 1.274583,1.8214555 2.545884,3.3652726 4.728514,3.8691405 a 2.5006103,2.5006103 0 0 0 1.125,-4.8730465 c 0.12938,0.02987 -0.78199,-0.46962 -1.75586,-1.861329 -0.97386,-1.391708 -2.087811,-3.475124 -3.207029,-5.966796 -2.238438,-4.983346 -4.538784,-11.614084 -6.582032,-18.195313 -4.086494,-13.162458 -7.167968,-26.132812 -7.167968,-26.132812 a 2.50025,2.50025 0 0 0 -2.560547,-1.953125 z"
     id="path3171"
     inkscape:connector-curvature="0" /></svg>