<?xml version="1.0" encoding="utf-8"?>
<!-- Generator: Adobe Illustrator 19.1.1, SVG Export Plug-In . SVG Version: 6.00 Build 0)  -->
<svg version="1.1" id="Calque_7" xmlns="http://www.w3.org/2000/svg" xmlns:xlink="http://www.w3.org/1999/xlink" x="0px" y="0px"
	 width="1920px" height="1080px" viewBox="851 -463.7 1920 1080" style="enable-background:new 851 -463.7 1920 1080;"
	 xml:space="preserve">
<style type="text/css">
	.st0{fill:none;stroke:#4E6EBB;stroke-width:5;stroke-miterlimit:10;}
	.st1{fill:none;stroke:#FFFFFF;stroke-width:5;stroke-miterlimit:10;}
	.st2{fill:none;stroke:#B74137;stroke-width:5;stroke-miterlimit:10;}
	.st3{fill:none;stroke:#1A1A1A;stroke-width:5;stroke-miterlimit:10;}
	.st4{fill:#B74137;}
	.st5{fill:#1A1A1A;}
	.st6{fill:#FFFFFF;}
	.st7{fill:#4E6EBB;}
</style>
<g id="Linecircle5">
	<path class="st0" d="M1946.6,461.2c0,0,24.4,72.3,33.9,73.4"/>
	<path class="st0" d="M1950.9,437.2c0,0,42.2,105.1,53.7,107.2"/>
	<path class="st0" d="M1957.4,406.8c0,0,56.6,150.8,76.2,153.3"/>
	<path class="st0" d="M1970.2,388.8c0,0,68.8,165.9,77.9,171.7"/>
	<path class="st0" d="M1986.4,374c0,0,85.3,178.1,82.8,181.2"/>
	<path class="st0" d="M2009.2,361.3c0,0,19.6,96.4,79.1,186.6"/>
	<path class="st0" d="M2023.6,359.8c0,0,73.4,162.8,77.2,174.6"/>
	<path class="st0" d="M2044.2,360.6c0,0,70.6,166,76.7,166.2"/>
	<path class="st0" d="M2066,358.8c0,0,55.3,147.2,62.7,146.5"/>
	<path class="st0" d="M2086.3,365.7c0,0,58.7,132.3,59.5,130.4"/>
	<path class="st0" d="M2107,375c4.6,5.1,36.8,93.2,40.8,95.8"/>
	<path class="st0" d="M2129.4,397.4c0,0,12.4,52.1,20.6,54"/>
</g>
<g id="LineCircl4">
	<path class="st1" d="M1046.2,271.8c0,0-10.1,75.7-2,80.8"/>
	<path class="st1" d="M1060.6,252.2c0,0-8.5,112.9,0.9,119.9"/>
	<path class="st1" d="M1079.9,227.7c0,0-15.8,160.3,0.7,171.2"/>
	<path class="st1" d="M1099.3,217.2c0,0-11.5,179.2-5.8,188.4"/>
	<path class="st1" d="M1120.4,211.1c0,0-2,197.5-5.7,199.1"/>
	<path class="st1" d="M1146.4,209.7c0,0-25,95.2-11.4,202.4"/>
	<path class="st1" d="M1160,214.8c0,0-6,178.5-7.7,190.8"/>
	<path class="st1" d="M1178.2,224.5c0,0-9.9,180.1-4.5,183"/>
	<path class="st1" d="M1198.5,232.5c0,0-15.3,156.5-8.4,159.1"/>
	<path class="st1" d="M1213.7,247.7c0,0-5.7,144.7-4.2,143.3"/>
	<path class="st1" d="M1228.1,265.2c1.9,6.6-8.1,99.8-5.7,104"/>
	<path class="st1" d="M1238.4,295.2c0,0-11.9,52.2-5.4,57.6"/>
</g>
<g id="LineCircle3">
	<path class="st1" d="M2308-22.9c0,0,24.4,72.3,33.9,73.4"/>
	<path class="st1" d="M2312.2-46.8c0,0,42.2,105.1,53.7,107.2"/>
	<path class="st1" d="M2318.7-77.3c0,0,56.6,150.8,76.2,153.3"/>
	<path class="st1" d="M2331.6-95.3c0,0,68.8,165.9,77.9,171.7"/>
	<path class="st1" d="M2347.7-110c0,0,85.3,178.1,82.8,181.2"/>
	<path class="st1" d="M2370.5-122.8c0,0,19.6,96.4,79.1,186.6"/>
	<path class="st1" d="M2384.9-124.2c0,0,73.4,162.8,77.2,174.6"/>
	<path class="st1" d="M2405.5-123.5c0,0,70.6,166,76.7,166.2"/>
	<path class="st1" d="M2427.3-125.3c0,0,55.3,147.2,62.7,146.5"/>
	<path class="st1" d="M2447.6-118.4c0,0,58.7,132.3,59.5,130.4"/>
	<path class="st1" d="M2468.3-109c4.6,5.1,36.8,93.2,40.8,95.8"/>
	<path class="st1" d="M2490.7-86.6c0,0,12.4,52.1,20.6,54"/>
</g>
<g id="LineCircle2">
	<path class="st2" d="M2473.5-225.6c0,0-10.1,75.7-2,80.8"/>
	<path class="st2" d="M2487.9-245.2c0,0-8.5,112.9,0.9,119.9"/>
	<path class="st2" d="M2507.1-269.7c0,0-15.8,160.3,0.7,171.2"/>
	<path class="st2" d="M2526.6-280.2c0,0-11.5,179.2-5.8,188.4"/>
	<path class="st2" d="M2547.6-286.3c0,0-2,197.5-5.7,199.1"/>
	<path class="st2" d="M2573.7-287.6c0,0-25,95.2-11.4,202.4"/>
	<path class="st2" d="M2587.3-282.6c0,0-6,178.5-7.7,190.8"/>
	<path class="st2" d="M2605.4-272.8c0,0-9.9,180.1-4.5,183"/>
	<path class="st2" d="M2625.8-264.8c0,0-15.3,156.5-8.4,159.1"/>
	<path class="st2" d="M2640.9-249.6c0,0-5.7,144.7-4.2,143.3"/>
	<path class="st2" d="M2655.4-232.1c1.9,6.6-8.1,99.8-5.7,104"/>
	<path class="st2" d="M2665.6-202.1c0,0-11.9,52.2-5.4,57.6"/>
</g>
<g id="Linecircle1">
	<path class="st3" d="M2111.7-355.2c0,0-10.1,75.7-2,80.8"/>
	<path class="st3" d="M2126.1-374.8c0,0-8.5,112.9,0.9,119.9"/>
	<path class="st3" d="M2145.4-399.3c0,0-15.8,160.3,0.7,171.2"/>
	<path class="st3" d="M2164.9-409.8c0,0-11.5,179.2-5.8,188.4"/>
	<path class="st3" d="M2185.9-415.9c0,0-2,197.5-5.7,199.1"/>
	<path class="st3" d="M2211.9-417.2c0,0-25,95.2-11.4,202.4"/>
	<path class="st3" d="M2225.5-412.2c0,0-6,178.5-7.7,190.8"/>
	<path class="st3" d="M2243.7-402.4c0,0-9.9,180.1-4.5,183"/>
	<path class="st3" d="M2264-394.5c0,0-15.3,156.5-8.4,159.1"/>
	<path class="st3" d="M2279.2-379.3c0,0-5.7,144.7-4.2,143.3"/>
	<path class="st3" d="M2293.6-361.8c1.9,6.6-8.1,99.8-5.7,104"/>
	<path class="st3" d="M2303.9-331.8c0,0-11.9,52.2-5.4,57.6"/>
</g>
<path id="BlackLine" d="M2677.4,341.5c-0.4,0-0.7-0.1-1.1-0.2l-1727-562.9c-1.8-0.6-2.8-2.6-2.2-4.4c0.6-1.8,2.6-2.8,4.4-2.2
	l1727,562.9c1.8,0.6,2.8,2.6,2.2,4.4C2680.2,340.6,2678.8,341.5,2677.4,341.5z"/>
<path id="RedArc_1_" class="st4" d="M1112.7-173.1c20.6-62.6,84.6-97.7,143.1-78.5s89.1,85.5,68.6,148.1L1112.7-173.1z"/>
<path id="bottomBlack1" class="st5" d="M1325.2-104.4c-20.6,62.6-84.6,97.7-143.1,78.5c-58.4-19.2-89.1-85.5-68.6-148.1
	L1325.2-104.4z"/>
<path id="BottomWhite1" class="st6" d="M1302.7-111.9c-16.3,49.5-67.4,77.1-114.1,61.7c-46.7-15.4-71.5-67.9-55.2-117.4
	L1302.7-111.9z"/>
<path id="BottomBlue1" class="st7" d="M1283.7-118.1c-12.3,37.3-50.7,58.1-85.9,46.5s-53.8-51.2-41.6-88.4L1283.7-118.1z"/>
<path id="BottomBlck1" class="st5" d="M1261.7-125.5c-8.2,24.8-34.1,38.7-57.8,31c-23.7-7.7-36.2-34.1-28-58.9L1261.7-125.5z"/>
<path id="TopWhit1" class="st6" d="M1176-153.7c8.3-24.8,34.3-38.6,57.9-30.8c23.7,7.8,36.1,34.2,27.7,59L1176-153.7z"/>
<path class="st5" d="M1261.2-123.7c20.1-62.7,83.8-98.4,142.4-79.6c58.6,18.7,89.8,84.8,69.7,147.5L1261.2-123.7z"/>
<path class="st6" d="M1283.8-116.5c15.9-49.6,66.7-77.6,113.6-62.7s72,67.4,56.1,117L1283.8-116.5z"/>
<path class="st7" d="M1302.8-110.4c12-37.4,50.3-58.5,85.6-47.2s54.2,50.7,42.3,88.1L1302.8-110.4z"/>
<path class="st5" d="M1324.9-103.2c8-24.9,33.8-39,57.6-31.5s36.5,33.8,28.4,58.7L1324.9-103.2z"/>
<path class="st4" d="M1410.8-75.6c-8.1,24.9-34,38.9-57.7,31.3s-36.3-33.9-28.2-58.8L1410.8-75.6z"/>
<path id="E" class="st5" d="M1622.9-6.3c-20.6,62.6-84.6,97.7-143.1,78.5s-89.1-85.5-68.6-148.1L1622.9-6.3z"/>
<path id="D" class="st6" d="M1600.4-13.8c-16.3,49.5-67.4,77.1-114.1,61.7c-46.7-15.4-71.5-67.9-55.2-117.4L1600.4-13.8z"/>
<path id="C" class="st7" d="M1581.4-20c-12.3,37.3-50.7,58.1-85.9,46.5c-35.2-11.6-53.8-51.2-41.6-88.4L1581.4-20z"/>
<path id="B_1_" class="st5" d="M1559.4-27.4c-8.2,24.8-34.1,38.7-57.8,31c-23.7-7.7-36.2-34.1-28-58.9L1559.4-27.4z"/>
<path id="A_1_" class="st6" d="M1473.7-55.7c8.3-24.8,34.3-38.6,57.9-30.8c23.7,7.8,36.1,34.2,27.7,59L1473.7-55.7z"/>
<path class="st5" d="M1858,70.3c20.4-62.6,84.3-97.9,142.8-78.9c58.5,19,89.4,85.2,69,147.9L1858,70.3z"/>
<path class="st6" d="M1880.5,77.6c16.1-49.5,67.1-77.3,113.9-62.1s71.7,67.7,55.5,117.2L1880.5,77.6z"/>
<path class="st7" d="M1899.5,83.8c12.1-37.3,50.6-58.2,85.8-46.8s54,51,41.8,88.3L1899.5,83.8z"/>
<path class="st5" d="M1921.5,91.1c8.2-24.9,34-38.8,57.7-31.2s36.3,34,28.1,58.9L1921.5,91.1z"/>
<path class="st4" d="M2007.3,119.1c-8.3,24.8-34.1,38.7-57.8,31s-36.2-34.1-27.9-59L2007.3,119.1z"/>
<path id="AE" class="st5" d="M1922,89.4c-19.9,62.8-83.5,98.6-142.2,80.1c-58.6-18.6-90.1-84.5-70.2-147.3L1922,89.4z"/>
<path id="AD" class="st6" d="M1899.4,82.2c-15.7,49.6-66.5,77.8-113.4,63s-72.2-67.1-56.5-116.8L1899.4,82.2z"/>
<path id="AC" class="st7" d="M1880.3,76.1c-11.8,37.4-50.1,58.6-85.4,47.4c-35.3-11.2-54.4-50.6-42.5-88L1880.3,76.1z"/>
<path id="AB" class="st5" d="M1858.3,69c-8,24.9-33.7,39.1-57.5,31.6c-23.8-7.5-36.6-33.7-28.6-58.6L1858.3,69z"/>
<path id="AA" class="st6" d="M1772.3,41.7c8.1-24.9,33.8-39,57.6-31.4c23.7,7.5,36.4,33.8,28.4,58.7L1772.3,41.7z"/>
<path class="st5" d="M1560-26.9c20.4-62.6,84.3-97.9,142.8-78.9c58.5,19,89.4,85.2,69,147.9L1560-26.9z"/>
<path class="st6" d="M1582.4-19.5c16.1-49.5,67.1-77.3,113.9-62.1c46.8,15.2,71.7,67.7,55.5,117.2L1582.4-19.5z"/>
<path class="st7" d="M1601.5-13.4c12.1-37.3,50.6-58.2,85.8-46.8c35.2,11.5,54,51,41.8,88.3L1601.5-13.4z"/>
<path class="st5" d="M1623.5-6.1c8.2-24.9,34-38.8,57.7-31.2c23.7,7.6,36.3,34,28.1,58.9L1623.5-6.1z"/>
<path class="st4" d="M1709.3,22c-8.3,24.8-34.1,38.7-57.8,31c-23.7-7.7-36.2-34.1-27.9-59L1709.3,22z"/>
<path class="st5" d="M2219.9,187.6c-20.6,62.6-84.6,97.7-143.1,78.5c-58.4-19.2-89.1-85.5-68.6-148.1L2219.9,187.6z"/>
<path class="st6" d="M2197.4,180.1c-16.3,49.5-67.4,77.1-114.1,61.7c-46.7-15.4-71.5-67.9-55.2-117.4L2197.4,180.1z"/>
<path class="st7" d="M2178.4,173.9c-12.3,37.3-50.7,58.1-85.9,46.5s-53.8-51.2-41.6-88.4L2178.4,173.9z"/>
<path class="st5" d="M2156.4,166.5c-8.2,24.8-34.1,38.7-57.8,31c-23.7-7.7-36.2-34.1-28-58.9L2156.4,166.5z"/>
<path class="st6" d="M2070.7,138.2c8.3-24.8,34.3-38.6,57.9-30.8s36.1,34.2,27.7,59L2070.7,138.2z"/>
<path id="BlackArc_1_" d="M2306.6,215.8c20.6-62.6,84.6-97.7,143.1-78.5c58.4,19.2,89.1,85.5,68.6,148.1L2306.6,215.8z"/>
<path class="st5" d="M2517.6,285.6c-20.6,62.6-84.6,97.7-143.1,78.5c-58.4-19.2-89.1-85.5-68.6-148.1L2517.6,285.6z"/>
<path class="st6" d="M2495.2,278.2c-16.3,49.5-67.4,77.1-114.1,61.7s-71.5-67.9-55.2-117.4L2495.2,278.2z"/>
<path class="st7" d="M2476.1,272c-12.3,37.3-50.7,58.1-85.9,46.5s-53.8-51.2-41.6-88.4L2476.1,272z"/>
<path class="st5" d="M2454.2,264.6c-8.2,24.8-34.1,38.7-57.8,31s-36.2-34.1-28-58.9L2454.2,264.6z"/>
<path class="st6" d="M2368.5,236.3c8.3-24.8,34.3-38.6,57.9-30.8s36.1,34.2,27.7,59L2368.5,236.3z"/>
<path class="st5" d="M2156,168.3c20.1-62.7,83.8-98.4,142.4-79.6c58.6,18.7,89.8,84.8,69.7,147.5L2156,168.3z"/>
<path class="st6" d="M2178.5,175.5c15.9-49.6,66.7-77.6,113.6-62.7s72,67.4,56.1,117L2178.5,175.5z"/>
<path id="bleu4top" class="st7" d="M2197.6,181.6c12-37.4,50.3-58.5,85.6-47.2c35.3,11.3,54.2,50.7,42.3,88.1L2197.6,181.6z"/>
<path id="blk4bottom" class="st5" d="M2219.6,188.8c8-24.9,33.8-39,57.5-31.5c23.7,7.5,36.5,33.8,28.4,58.7L2219.6,188.8z"/>
<path id="rd4" class="st4" d="M2305.5,216.4c-8.1,24.9-34,38.9-57.7,31.3c-23.7-7.6-36.3-33.9-28.2-58.8L2305.5,216.4z"/>
</svg>
