<?xml version="1.0" encoding="UTF-8" standalone="no"?>
<!-- Created with Inkscape (http://www.inkscape.org/) -->

<svg
   xmlns:dc="http://purl.org/dc/elements/1.1/"
   xmlns:cc="http://creativecommons.org/ns#"
   xmlns:rdf="http://www.w3.org/1999/02/22-rdf-syntax-ns#"
   xmlns:svg="http://www.w3.org/2000/svg"
   xmlns="http://www.w3.org/2000/svg"
   xmlns:sodipodi="http://sodipodi.sourceforge.net/DTD/sodipodi-0.dtd"
   xmlns:inkscape="http://www.inkscape.org/namespaces/inkscape"
   width="210mm"
   height="297mm"
   viewBox="0 0 744.09448819 1052.3622047"
   id="svg8659"
   version="1.1"
   inkscape:version="0.91 r13725"
   sodipodi:docname="psych1.svg">
  <defs
     id="defs8661" />
  <sodipodi:namedview
     id="base"
     pagecolor="#ffffff"
     bordercolor="#666666"
     borderopacity="1.0"
     inkscape:pageopacity="0.0"
     inkscape:pageshadow="2"
     inkscape:zoom="0.35"
     inkscape:cx="-92.666354"
     inkscape:cy="291.42857"
     inkscape:document-units="px"
     inkscape:current-layer="layer1"
     showgrid="false"
     inkscape:window-width="928"
     inkscape:window-height="1028"
     inkscape:window-x="992"
     inkscape:window-y="24"
     inkscape:window-maximized="0" />
  <metadata
     id="metadata8664">
    <rdf:RDF>
      <cc:Work
         rdf:about="">
        <dc:format>image/svg+xml</dc:format>
        <dc:type
           rdf:resource="http://purl.org/dc/dcmitype/StillImage" />
        <dc:title></dc:title>
      </cc:Work>
    </rdf:RDF>
  </metadata>
  <g
     inkscape:label="Calque 1"
     inkscape:groupmode="layer"
     id="layer1">
    <path
       inkscape:connector-curvature="0"
       class="st0"
       d="m -50.470359,94.294197 c -18.60095,-24.571613 19.51951,-41.335424 50.0618,-37.890804 28.9348,3.214974 44.091125,19.289864 34.675832,46.846817 -14.697042,43.40221 -59.247452,25.0309 -84.737632,-8.956013 z"
       id="path5"
       style="fill:#ffffff;fill-opacity:1" />
    <path
       inkscape:connector-curvature="0"
       class="st0"
       d="m 3.954621,129.8886 c -17.68238,0 -39.26866,-13.31919 -55.34355,-34.675833 l 0,0 c -7.11888,-9.415293 -5.51139,-16.993456 -2.75569,-21.586281 7.11888,-12.40063 31.23121,-20.667713 53.9657,-17.912023 16.53417,1.83713 28.24588,7.807806 34.216551,17.223099 5.28175,8.267086 5.741032,18.830585 1.377848,31.231218 -5.052109,14.92668 -14.237759,23.88269 -26.408749,25.71982 -1.60749,-0.22964 -3.21498,0 -5.05211,0 z m -53.50642,-36.283323 c 17.2231,22.734493 40.41687,36.283323 58.09925,33.527633 11.25242,-1.83713 19.74915,-10.10422 24.571616,-24.11234 4.133543,-11.711706 3.674261,-21.586281 -1.148206,-29.164443 -5.51139,-8.726369 -16.76381,-14.23776 -32.60906,-16.074894 -21.81593,-2.52605 -45.0097,5.052112 -51.66929,16.993459 -3.21498,5.741032 -2.29642,12.170988 2.75569,18.830585 l 0,0 z"
       id="path7"
       style="fill:#ffffff;fill-opacity:1" />
    <path
       inkscape:connector-curvature="0"
       class="st0"
       d="M 73.765574,66.277964 C 47.127185,86.256756 31.281941,45.839893 32.659784,12.771543 c 0.918566,-26.86803 18.600944,-41.33543 43.861486,-31.92014 43.63184,16.30453 31.46085,59.70674 -2.755696,85.426561 z"
       id="path9"
       style="fill:#ffffff;fill-opacity:1" />
    <path
       inkscape:connector-curvature="0"
       class="st0"
       d="m 60.216738,72.70792 c -2.755695,0 -5.281749,-0.688923 -7.807803,-1.83713 C 37.711893,63.292628 30.822651,35.276393 31.511578,12.771543 c 0.459283,-14.23776 5.741032,-25.49018 14.467401,-31.23121 8.267086,-5.51139 19.060226,-5.97068 31.001573,-1.60749 16.534172,6.20031 26.408748,16.76381 28.475518,30.54229 2.75569,18.3713 -9.41529,40.64651 -31.001572,56.951038 l 0,0 c -4.822467,3.444619 -9.644934,5.281749 -14.23776,5.281749 z m 1.607489,-93.464007 c -5.51139,0 -10.333857,1.37785 -14.4674,4.13355 -8.267087,5.51139 -13.089554,15.84525 -13.548836,29.39408 -0.918565,22.04557 6.200314,48.913596 19.519509,56.032476 5.970673,3.214978 12.630271,2.066771 19.74915,-3.44462 l 0,0 c 20.667716,-15.615606 32.60906,-36.972246 30.08301,-54.654626 -1.83713,-12.85991 -11.252424,-22.73449 -26.868032,-28.70516 -5.052108,-1.83713 -9.874575,-2.7557 -14.467401,-2.7557 z"
       id="path11"
       style="fill:#ffffff;fill-opacity:1" />
    <path
       inkscape:connector-curvature="0"
       class="st0"
       d="m -79.634799,-43.720207 c 26.63838,-19.97879 41.10578,20.43807 39.72794,53.73606 -0.91857,26.86803 -17.2231,41.56507 -42.483641,32.14978 -43.63184,-16.53418 -31.46085,-60.16602 2.755701,-85.88584 z"
       id="path13"
       style="fill:#ffffff;fill-opacity:1" />
    <path
       inkscape:connector-curvature="0"
       class="st0"
       d="m -67.923099,46.069533 c -4.59282,0 -9.64493,-0.91857 -14.926681,-2.98534 -21.127,-7.8078 -27.09767,-21.127 -28.47552,-30.77193 -2.75569,-18.60094 9.41529,-40.87615 31.00157,-56.95104 l 0,0 c 7.807811,-5.97067 15.156331,-7.11888 21.586281,-3.67426 14.23776,7.34852 20.89736,35.5944 19.97879,58.32889 -0.45928,14.69704 -5.74103,25.94946 -14.23776,31.69049 -4.36318,2.98534 -9.18565,4.36319 -14.92668,4.36319 z m -11.02278,-88.87118 c -20.667721,15.61561 -32.609061,37.20189 -30.083011,54.88427 1.83713,13.08955 11.25242,22.96413 27.09767,28.9348 10.793141,4.13354 20.438081,3.67426 27.556961,-1.14821 8.03744,-5.28175 12.63027,-16.07489 13.31919,-30.0830099 0.91857,-22.0455601 -5.51139,-49.1432301 -18.83058,-56.2621101 -5.51139,-2.75569 -11.94135,-1.60749 -19.06023,3.67426 l 0,0 z"
       id="path15"
       style="fill:#ffffff;fill-opacity:1" />
    <path
       inkscape:connector-curvature="0"
       class="st0"
       d="m 42.764001,-68.062187 c 18.600944,24.57162 -19.06023,41.56507 -49.83216,37.89081 -28.9348,-3.21498 -43.86148,-19.51951 -34.44619,-47.07646 14.92668,-43.172553 58.78817,-24.801263 84.27835,9.18565 z"
       id="path17"
       style="fill:#ffffff;fill-opacity:1" />
    <path
       inkscape:connector-curvature="0"
       class="st0"
       d="m 1.428571,-28.334247 c -2.7557,0 -5.51139,-0.22964 -8.49673,-0.45928 -16.30453,-1.83713 -28.01624,-7.8078 -33.98691,-16.99345 -5.28175,-8.26709 -5.74103,-19.06023 -1.60749,-31.6905 5.05211,-14.926693 14.00812,-23.653053 25.94947,-25.490183 18.3713,-2.98534 42.48363,11.02278 60.166014,34.446193 l 0,0 c 7.11888,9.64493 5.511391,17.22309 2.755695,21.81592 -5.970673,10.79314 -25.030899,18.3713 -44.780049,18.3713 z m -12.85991,-73.025933 c -1.60749,0 -3.21498,0.22965 -4.82247,0.45929 -11.25242,1.83713 -19.28987,9.87457 -24.11234,24.112333 -4.13354,11.94135 -3.67426,21.81592 1.37785,29.62373 5.51139,8.72637 16.76382,14.23776 32.14978,16.07489 21.58628,2.52605 44.550412,-5.05211 51.43965,-16.76382 3.444619,-5.97067 2.526054,-12.40063 -2.755695,-19.28986 C 26.229831,-88.27062 5.562111,-101.36018 -11.431339,-101.36018 Z"
       id="path19"
       style="fill:#ffffff;fill-opacity:1" />
    <path
       inkscape:connector-curvature="0"
       class="st0"
       d="m 84.099432,112.20622 c -16.993455,12.63027 -12.630271,33.98691 6.429956,42.94292 18.141662,8.49673 28.934802,-5.0521 32.609062,-24.57161 4.13354,-23.42341 -22.27521,-31.231223 -39.039018,-18.37131 z"
       id="path21"
       style="fill:#ffffff;fill-opacity:1" />
    <path
       inkscape:connector-curvature="0"
       class="st0"
       d="m 100.86324,158.8234 c -3.44462,0 -7.118874,-0.91856 -10.793135,-2.75569 -10.104216,-4.59283 -16.534172,-13.08955 -17.682379,-22.27521 -0.918565,-8.49672 2.985337,-16.76381 10.793141,-22.50484 9.644934,-7.34852 22.964123,-8.49673 31.920133,-2.7557 7.34852,4.59283 10.5635,12.63027 8.72637,22.27521 -2.29641,13.08955 -7.8078,22.2752 -15.15632,26.1791 -2.06677,1.14821 -4.82247,1.83713 -7.80781,1.83713 z m 1.14821,-51.66928 c -5.97067,0 -12.170986,2.06677 -17.223094,5.97067 -7.348521,5.51139 -10.793141,12.63027 -10.104217,20.43807 0.918565,8.49673 6.889239,16.07489 16.304531,20.43808 6.42995,2.98533 12.17099,3.21498 16.99345,0.68892 6.6596,-3.44462 11.71171,-12.17099 13.77848,-24.57162 1.60749,-8.72637 -1.14821,-15.84524 -7.8078,-19.74915 -3.21498,-2.06677 -7.57817,-3.21497 -11.94135,-3.21497 z"
       id="path23"
       style="fill:#ffffff;fill-opacity:1" />
    <path
       inkscape:connector-curvature="0"
       class="st0"
       d="m 122.44952,-96.07843 c 12.40063,16.534183 33.29799,16.534183 40.64651,-2.75569 7.80781,-20.20842 -5.51139,-29.85336 -26.63839,-35.36475 -21.35664,-5.51139 -26.40874,21.58628 -14.00812,38.12044 z"
       id="path25"
       style="fill:#ffffff;fill-opacity:1" />
    <path
       inkscape:connector-curvature="0"
       class="st0"
       d="m 143.80617,-82.988867 c -8.03745,0 -16.30454,-4.592833 -22.27521,-12.400633 l 0,0 c -7.57816,-10.33386 -9.18565,-25.03089 -3.21498,-33.75726 3.9039,-5.97067 10.5635,-8.03745 18.60095,-5.97067 14.92668,3.9039 23.88269,9.18565 27.78659,16.76381 2.7557,5.51139 2.7557,12.40062 -0.22964,20.20842 -3.44462,8.72637 -9.87457,14.237763 -17.68238,15.385973 -1.1482,-0.22964 -2.06677,-0.22964 -2.98533,-0.22964 z M 123.36809,-96.76735 c 6.20031,8.26709 14.69704,12.63027 22.96413,11.48206 7.11888,-0.91856 12.63027,-5.97067 15.84525,-13.77847 2.75569,-7.34852 2.98534,-13.31919 0.45928,-18.3713 -3.44462,-6.88923 -12.17099,-11.94134 -26.17911,-15.6156 -8.95601,-2.29642 -13.77847,1.37785 -16.07489,5.05211 -5.51139,8.03744 -4.13354,21.81591 2.98534,31.2312 l 0,0 z"
       id="path27"
       style="fill:#ffffff;fill-opacity:1" />
    <path
       inkscape:connector-curvature="0"
       class="st0"
       d="m -80.78301,-106.87156 c 16.993451,-12.63027 12.170991,-32.60906 -6.88924,-41.56507 -18.14166,-8.49673 -27.55695,3.67426 -31.23121,23.42341 -4.36319,23.4234 21.12699,31.00157 38.12045,18.14166 z"
       id="path29"
       style="fill:#ffffff;fill-opacity:1" />
    <path
       inkscape:connector-curvature="0"
       class="st0"
       d="m -98.69503,-99.52305 c -4.59283,0 -9.18565,-1.1482 -12.85991,-3.44461 -7.11888,-4.36318 -10.33386,-12.63026 -8.49673,-22.04556 2.52606,-13.31919 7.11888,-21.81592 14.00812,-25.26054 5.28175,-2.75569 11.48206,-2.29641 18.83058,1.14821 10.333861,4.82246 16.993461,13.08955 17.912021,22.04556 0.91857,8.03745 -2.98533,15.61561 -10.793141,21.58627 l 0,0 c -5.51139,3.9039 -12.40063,5.97067 -18.60094,5.97067 z m 0.22964,-50.29143 c -2.29641,0 -4.59282,0.45929 -6.42996,1.60749 -5.97067,3.21498 -10.56349,11.25243 -12.8599,23.65306 -1.60749,8.72636 0.91856,15.84524 7.34852,19.74914 8.03744,5.0521 19.97879,3.9039 28.9348,-2.75569 l 0,0 c 7.118881,-5.28175 10.563491,-12.17099 9.874571,-19.51951 -0.91856,-8.03744 -7.11888,-15.61561 -16.763811,-19.97879 -3.67426,-1.83713 -7.11888,-2.7557 -10.10422,-2.7557 z"
       id="path31"
       style="fill:#ffffff;fill-opacity:1" />
    <path
       inkscape:connector-curvature="0"
       class="st0"
       d="m -69.989869,203.14417 c -22.734491,-30.31265 23.19377,-49.14323 60.85494,-45.00969 35.5944,4.13354 54.424984,22.50485 42.94292,56.26211 -18.14166,53.27679 -72.56665,30.5423 -103.79786,-11.25242 z"
       id="path33"
       style="fill:#ffffff;fill-opacity:1" />
    <path
       inkscape:connector-curvature="0"
       class="st0"
       d="m -3.164259,246.54638 c -21.58628,0 -47.99503,-16.53418 -67.74418,-42.71328 l 0,0 c -8.72636,-11.48207 -6.65959,-20.43808 -3.67426,-25.94947 9.64494,-16.76381 40.87615,-23.65305 65.44777,-20.89736 20.43807,2.29642 35.13512,9.4153 42.253996,20.66772 6.200315,9.64493 6.659597,22.2752 1.607489,37.20189 -6.200315,18.14166 -17.223095,28.9348 -31.690495,31.23121 -1.83713,0.45929 -3.9039,0.45929 -6.20032,0.45929 z m -65.90705,-44.09113 c 21.127,28.24588 50.0618,44.78005 71.87773,41.33543 13.77847,-2.29641 24.11233,-12.40063 29.853363,-29.62373 4.822467,-14.23776 4.363185,-26.1791 -1.377843,-35.13511 -6.6596,-10.5635 -20.66772,-17.45274 -40.41687,-19.51951 -26.86803,-2.98534 -55.34355,5.74103 -63.38099,19.74915 -3.90391,6.88924 -2.7557,14.92668 3.44461,23.19377 l 0,0 z"
       id="path35"
       style="fill:#ffffff;fill-opacity:1" />
    <path
       inkscape:connector-curvature="0"
       class="st0"
       d="m -180.90661,-74.262497 c 24.57162,-18.371313 38.3501,18.83058 36.05368,49.37287 -2.06677,26.86803 -16.99345,42.48364 -42.25399,33.2979901 -41.79472,-14.6970401 -26.40875,-58.0992501 6.20031,-82.6708601 z"
       id="path37"
       style="fill:#ffffff;fill-opacity:1" />
    <path
       inkscape:connector-curvature="0"
       class="st0"
       d="m -173.55809,12.312263 c -4.36318,0 -8.95601,-0.91857 -14.00811,-2.7556999 -14.92669,-5.2817501 -23.65306,-14.6970401 -25.71983,-27.0976701 -2.75569,-18.14166 9.87458,-41.33543 31.6905,-57.63996 9.18565,-6.88924 16.30453,-5.51139 20.43807,-3.21498 13.3192,7.34852 18.83059,33.06835 17.45274,53.50642 -1.14821,15.61561 -6.6596,27.32731 -15.61561,33.0683501 -4.13354,2.7556899 -8.95601,4.1335399 -14.23776,4.1335399 z m 5.05211,-90.24902 c -3.67426,0 -7.57816,1.60748 -11.7117,4.59282 l 0,0 c -21.127,15.84525 -33.52763,38.12045 -30.77194,55.34355 1.83713,11.48206 10.10422,20.20843 24.11234,25.2605401 10.5635,3.6742599 19.28987,3.4446199 26.40875,-1.14821 8.26708,-5.2817501 13.31919,-16.3045301 14.4674,-31.2312101 1.60749,-19.97879 -4.13355,-44.78005 -16.07489,-51.43965 -2.06677,-0.91856 -4.13355,-1.37784 -6.42996,-1.37784 z"
       id="path39"
       style="fill:#ffffff;fill-opacity:1" />
    <path
       inkscape:connector-curvature="0"
       class="st0"
       d="m 66.876336,-198.95771 c 19.74915,26.40875 -20.897357,44.09113 -53.506415,39.26866 -32.60907,-4.59283 -50.29145,-20.66772 -39.95759,-51.89893 15.84525,-47.76539 65.447768,-24.80126 93.464005,12.63027 z"
       id="path41"
       style="fill:#ffffff;fill-opacity:1" />
    <path
       inkscape:connector-curvature="0"
       class="st0"
       d="m 24.392701,-157.62228 c -3.67426,0 -7.57817,-0.22964 -11.25243,-0.68892 -19.74915,-2.7557 -33.06834,-9.4153 -39.4983,-19.9788 -5.51139,-8.72636 -5.97067,-19.97879 -1.37784,-33.52762 5.28174,-15.84525 14.69704,-25.26054 27.32731,-27.32731 20.20843,-3.21498 48.224668,12.85991 68.20346,39.4983 7.578162,10.33385 5.741032,18.3713 2.985336,23.19377 -6.889238,11.25242 -26.179106,18.83058 -46.387536,18.83058 z M 5.102831,-237.3078 c -1.83713,0 -3.44462,0.22964 -5.05211,0.45928 -11.94135,2.06677 -20.43807,10.5635 -25.49018,25.71982 -4.13355,12.85991 -3.9039,23.42341 1.1482,31.6905 5.97068,9.87457 18.83059,16.07489 37.66118,18.83058 22.504841,3.21498 47.995024,-4.59282 55.113904,-16.76381 3.67426,-6.20031 2.755695,-13.31919 -2.755696,-20.66772 l 0,0 C 48.04575,-221.92184 23.933411,-237.3078 5.102831,-237.3078 Z"
       id="path43"
       style="fill:#ffffff;fill-opacity:1" />
    <path
       inkscape:connector-curvature="0"
       class="st0"
       d="m 190.88263,88.323528 c -30.54229,22.964132 -48.68396,-23.882694 -47.30611,-62.003145 1.14821,-31.00158 21.58629,-48.9136 50.52109,-37.89081 50.29144,19.0602201 36.05368,70.49987 -3.21498,99.893955 z"
       id="path45"
       style="fill:#ffffff;fill-opacity:1" />
    <path
       inkscape:connector-curvature="0"
       class="st0"
       d="m 175.49666,95.672047 c -2.98533,0 -5.97067,-0.68892 -8.95601,-2.29641 -16.99345,-8.956011 -25.0309,-41.105794 -23.88269,-67.055254 0.68892,-16.7638199 6.88924,-30.08301 17.2231,-36.97225 9.41529,-6.20031 21.58628,-6.88924 34.90548,-1.83713 19.06022,7.11888 30.31264,19.5195101 32.60906,35.5944 2.98533,21.81592 -10.79314,47.765387 -35.5944,66.366331 l 0,0 c -5.74104,4.133543 -11.25243,6.200313 -16.30454,6.200313 z m 2.29642,-109.309254 c -6.20032,0 -11.94135,1.60749 -16.76382,4.82247 -9.87457,6.6596 -15.6156,19.06023 -16.30453,35.13512 -0.91856,25.49018 7.34852,56.721395 22.73449,64.75884 6.88924,3.674264 14.4674,2.296414 22.73449,-3.903902 24.11233,-18.141661 37.66117,-43.172558 34.67583,-64.069918 -2.06677,-15.1563299 -12.85991,-26.86803 -31.00157,-33.75727 -5.5114,-1.83713 -11.02279,-2.98534 -16.07489,-2.98534 z"
       id="path47"
       style="fill:#ffffff;fill-opacity:1" />
    <path
       inkscape:connector-curvature="0"
       class="st0"
       d="m -198.58899,53.647693 c 19.28987,-14.4674 30.31265,14.697043 29.16445,38.809378 -0.91857,19.978789 -13.54884,31.920139 -32.37942,24.801259 -31.92014,-11.7117 -22.04557,-44.780051 3.21497,-63.610637 z"
       id="path49"
       style="fill:#ffffff;fill-opacity:1" />
    <path
       inkscape:connector-curvature="0"
       class="st0"
       d="m -191.69975,120.47331 c -3.44462,0 -6.88924,-0.68892 -10.79314,-2.06677 -15.15632,-5.51139 -19.51951,-15.15633 -20.43807,-22.275213 -2.06677,-14.008114 7.34852,-31.460852 23.42341,-43.631844 l 0,0 c 7.34852,-5.51139 12.85991,-4.59282 16.30453,-2.75569 10.5635,5.51139 15.38597,25.949464 14.69704,42.483636 -0.45928,11.252421 -4.59282,19.978791 -11.48206,24.571621 -3.21498,2.52605 -7.34852,3.67426 -11.71171,3.67426 z m 2.98534,-69.581307 c -2.98534,0 -5.97067,1.1482 -9.18565,3.67426 l 0,0 c -15.38597,11.48206 -24.57162,28.245874 -22.50485,41.335424 1.37785,9.185653 8.03745,16.304533 19.06023,20.438083 7.8078,2.98533 14.92668,2.52605 20.43807,-1.14821 6.20032,-4.13354 10.10422,-12.17099 10.5635,-22.734489 0.68893,-15.845249 -4.13354,-35.364758 -13.54883,-40.416868 -1.60749,-0.68892 -3.21498,-1.1482 -4.82247,-1.1482 z"
       id="path51"
       style="fill:#ffffff;fill-opacity:1" />
    <path
       inkscape:connector-curvature="0"
       class="st0"
       d="m -174.47665,-190.69062 c 19.28987,-14.46741 30.54229,15.38596 29.39408,39.72794 -0.91856,19.97879 -13.08955,31.69049 -31.92014,24.57161 -32.14978,-12.17098 -22.50484,-45.23933 2.52606,-64.29955 z"
       id="path53"
       style="fill:#ffffff;fill-opacity:1" />
    <path
       inkscape:connector-curvature="0"
       class="st0"
       d="m -166.43921,-123.17609 c -3.44462,0 -7.11888,-0.68892 -10.79314,-2.06677 -15.38596,-5.74103 -19.97879,-15.61561 -20.89735,-22.96413 -2.06678,-14.23776 7.11888,-31.23121 23.19377,-43.17256 l 0,0 c 7.11888,-5.51139 12.85991,-4.36318 16.30453,-2.52605 10.79314,5.74103 15.84525,26.40875 14.92668,43.17256 -0.45928,11.48206 -4.59283,20.20843 -11.48206,24.57162 -3.44462,2.06677 -7.11888,2.98533 -11.25243,2.98533 z m -7.34852,-66.59597 c -15.15632,11.48206 -24.11233,28.01624 -22.2752,41.10579 1.37785,9.64493 8.03744,16.99346 19.51951,21.127 7.8078,2.98534 14.69704,2.75569 19.97879,-0.91857 6.20031,-4.13354 9.87457,-12.17098 10.33386,-22.73448 0.68892,-16.30453 -4.13355,-36.05369 -13.77848,-41.10579 -4.13354,-2.06678 -8.72637,-1.14821 -13.77848,2.52605 l 0,0 z"
       id="path55"
       style="fill:#ffffff;fill-opacity:1" />
    <path
       inkscape:connector-curvature="0"
       class="st0"
       d="m -94.1022,84.419626 c -12.17099,-16.304531 -33.98691,-14.926684 -41.33543,4.133543 -7.80781,20.208431 4.82246,29.853371 25.94946,34.675841 22.04556,5.0521 27.55695,-22.50485 15.38597,-38.809384 z"
       id="path57"
       style="fill:#ffffff;fill-opacity:1" />
    <path
       inkscape:connector-curvature="0"
       class="st0"
       d="m -104.43606,125.06614 c -1.83713,0 -3.44462,-0.22965 -5.51139,-0.68893 -14.23776,-3.21498 -22.96413,-8.49673 -26.86803,-15.61561 -2.98534,-5.74103 -2.98534,-12.630273 0.22964,-20.667714 3.44462,-8.95601 10.33386,-14.697042 18.60094,-15.845248 9.18565,-1.148207 18.3713,2.985336 24.80126,11.482064 7.57816,10.104215 8.95601,24.571618 2.98534,33.757268 -3.44462,5.05211 -8.26709,7.57817 -14.23776,7.57817 z m -10.33386,-50.750731 c -0.91856,0 -1.83713,0 -2.75569,0.229642 -7.57817,1.148206 -13.77848,6.200314 -16.76382,14.4674 -2.98533,7.348526 -2.98533,13.778479 -0.22964,18.830589 3.44462,6.6596 11.94135,11.48206 25.49018,14.4674 7.57816,1.60749 13.54884,-0.45928 17.2231,-5.97067 5.28175,-8.26709 4.13354,-21.815933 -2.7557,-31.001579 -5.74103,-7.11888 -13.08955,-11.022782 -20.20843,-11.022782 z"
       id="path59"
       style="fill:#ffffff;fill-opacity:1" />
    <path
       inkscape:connector-curvature="0"
       class="st0"
       d="m -165.06136,187.98785 c -13.77848,-17.68238 13.3192,-29.62373 35.5944,-27.55696 21.58628,2.06677 32.8387,12.40063 26.40875,32.83871 -10.10422,32.14978 -42.71328,19.06022 -62.00315,-5.28175 z"
       id="path61"
       style="fill:#ffffff;fill-opacity:1" />
    <path
       inkscape:connector-curvature="0"
       class="st0"
       d="m -125.10378,213.47803 c -12.85991,0 -28.70516,-9.41529 -40.87614,-24.80126 -5.5114,-6.88924 -4.36319,-12.40063 -2.52606,-15.84525 5.51139,-10.10421 24.57162,-14.92668 39.26866,-13.54883 12.85991,1.1482 21.58628,5.28175 25.94946,11.94134 3.90391,5.74104 4.36319,13.3192 1.37785,22.50485 -3.44462,11.02278 -9.87457,17.68238 -18.83058,19.51951 -1.37785,0.22964 -2.7557,0.22964 -4.36319,0.22964 z m -9.87457,-52.12857 c -14.00812,0 -27.55696,5.05211 -31.46086,12.63027 -2.29641,4.13354 -1.37784,8.49673 2.29642,13.31919 l 0,0 c 13.08955,16.53418 30.31265,25.94947 42.94292,23.65306 8.03744,-1.37785 13.77847,-7.57817 16.99345,-17.91202 2.75569,-8.49673 2.29641,-15.38597 -1.14821,-20.66772 -3.9039,-5.97067 -12.17098,-9.64493 -24.34197,-10.79314 -1.60749,-0.22964 -3.44462,-0.22964 -5.28175,-0.22964 z"
       id="path63"
       style="fill:#ffffff;fill-opacity:1" />
    <path
       inkscape:connector-curvature="0"
       class="st0"
       d="m 65.498488,223.58225 c -13.778477,-17.68238 12.630271,-29.62373 34.905472,-27.55696 21.58628,2.06677 33.52763,13.08956 27.32731,33.98691 -9.64493,31.92015 -42.942914,18.14167 -62.232782,-6.42995 z"
       id="path65"
       style="fill:#ffffff;fill-opacity:1" />
    <path
       inkscape:connector-curvature="0"
       class="st0"
       d="m 106.37463,249.76135 c -13.089547,0 -29.623719,-9.87457 -41.794707,-25.26054 l 0,0 c -5.511391,-7.11888 -4.363185,-12.63027 -2.526054,-16.07489 5.51139,-10.10422 23.882693,-14.69704 38.579731,-13.31919 12.63027,1.1482 21.81592,5.51139 26.40875,12.40063 3.9039,5.97067 4.59283,13.77847 1.83713,22.96413 -3.21498,10.79314 -9.41529,17.22309 -18.14166,18.83058 -1.37785,0.22964 -2.98534,0.45928 -4.36319,0.45928 z M 66.417053,222.89332 c 13.089553,16.53418 31.231207,26.63839 43.861487,24.11234 7.8078,-1.37785 13.31919,-7.34852 16.30453,-17.45274 2.52605,-8.49673 2.06677,-15.61561 -1.60749,-20.89736 -4.13354,-6.42995 -12.85991,-10.33386 -24.80126,-11.48206 -15.615606,-1.60749 -31.690495,3.9039 -36.283321,11.94135 -2.066772,4.36318 -1.377848,8.95601 2.526054,13.77847 l 0,0 z"
       id="path67"
       style="fill:#ffffff;fill-opacity:1" />
    <path
       inkscape:connector-curvature="0"
       class="st0"
       d="m 186.2898,182.24681 c -19.28986,14.69705 -29.62372,-14.00811 -28.70516,-38.12045 0.68893,-19.97879 12.17099,-30.77193 31.23122,-24.11233 31.92014,11.02278 22.50485,42.94292 -2.52606,62.23278 z"
       id="path69"
       style="fill:#ffffff;fill-opacity:1" />
    <path
       inkscape:connector-curvature="0"
       class="st0"
       d="m 176.41523,187.29892 c -2.29641,0 -3.9039,-0.68892 -5.51139,-1.37784 -10.33386,-5.28175 -15.15633,-25.26055 -14.4674,-42.02436 0.45928,-11.02278 4.13354,-19.51951 10.5635,-23.88269 5.74103,-3.9039 13.31919,-4.36319 22.04556,-1.37785 15.15633,5.28175 19.74915,14.69704 20.66772,21.58628 2.06677,13.54884 -6.88924,30.54229 -22.96413,42.94292 l 0,0 c -3.90391,3.21498 -7.34853,4.13354 -10.33386,4.13354 z m 2.06677,-68.20346 c -3.9039,0 -7.11888,0.91857 -10.10422,2.98534 -5.74103,3.9039 -9.18565,11.7117 -9.64493,22.04556 -0.68892,15.84525 3.9039,35.13512 13.31919,39.95759 3.90391,2.06677 8.49673,1.1482 13.54884,-2.7557 l 0,0 c 15.38597,-11.94135 24.11234,-27.7866 22.04557,-40.64651 -1.37785,-8.95601 -8.03745,-15.84525 -19.28988,-19.74915 -3.44461,-1.37785 -6.88923,-1.83713 -9.87457,-1.83713 z"
       id="path71"
       style="fill:#ffffff;fill-opacity:1" />
    <path
       inkscape:connector-curvature="0"
       class="st0"
       d="m 204.66111,-49.461247 c -19.28987,14.69705 -30.54229,-13.77847 -29.62373,-38.120453 0.68892,-19.97878 13.31919,-30.54228 32.37943,-24.11232 31.69049,11.48205 22.04556,43.172553 -2.7557,62.232773 z"
       id="path73"
       style="fill:#ffffff;fill-opacity:1" />
    <path
       inkscape:connector-curvature="0"
       class="st0"
       d="m 194.55689,-44.179497 c -2.29641,0 -4.13354,-0.68892 -5.74103,-1.37784 -10.5635,-5.51139 -15.61561,-25.71983 -15.15633,-41.794723 0.45929,-10.79314 4.13355,-19.06022 10.79314,-23.4234 5.97068,-4.13354 14.00813,-4.59282 23.19378,-1.60749 15.15632,5.28175 19.51951,14.46739 20.66771,21.35663 2.06677,13.548843 -6.88924,30.312653 -22.96413,42.713283 -4.13354,2.98534 -7.8078,4.13354 -10.79314,4.13354 z m 2.06678,-67.973813 c -4.13355,0 -7.80781,1.14821 -10.79315,3.21498 -5.97067,3.90389 -9.41529,11.7117 -9.64493,21.81591 -0.68893,15.385973 4.13354,34.675843 13.77847,39.727953 4.13355,2.06677 8.95602,1.37784 14.00813,-2.7557 l 0,0 c 15.38596,-11.94135 24.11233,-27.78659 22.04556,-40.416873 -1.37785,-8.95601 -8.03744,-15.6156 -19.28987,-19.51949 -3.67426,-1.60749 -7.11888,-2.06678 -10.10421,-2.06678 z"
       id="path75"
       style="fill:#ffffff;fill-opacity:1" />
    <path
       inkscape:connector-curvature="0"
       class="st0"
       d="m 151.84361,-189.54242 c 13.54884,17.91202 -14.00812,29.85337 -36.28332,27.09767 -21.35664,-2.75569 -33.297988,-14.4674 -26.40875,-34.90547 10.79314,-31.6905 44.09112,-17.2231 62.69207,7.8078 z"
       id="path77"
       style="fill:#ffffff;fill-opacity:1" />
    <path
       inkscape:connector-curvature="0"
       class="st0"
       d="m 122.21988,-160.83726 c -2.29641,0 -4.59282,-0.22964 -6.88924,-0.45928 -12.63027,-1.60749 -21.586274,-6.20031 -26.1791,-13.31919 -3.903902,-6.20032 -4.363184,-14.00812 -1.148206,-22.96413 3.67426,-10.79314 10.333856,-17.2231 19.060226,-18.60095 13.77848,-2.29641 32.37942,8.49673 45.69862,25.94947 l 0,0 c 5.28175,7.11888 4.13354,12.63027 2.06677,16.30453 -4.59283,7.8078 -18.37131,13.08955 -32.60907,13.08955 z m -11.25242,-53.50642 c -1.14821,0 -2.29641,0 -3.44462,0.22964 -8.03744,1.37785 -13.778474,7.11888 -17.223093,17.2231 -2.755696,8.49673 -2.526055,15.61561 0.918565,21.127 4.133548,6.6596 12.630268,10.79314 24.571618,12.40063 15.6156,2.06677 32.14978,-3.21498 37.20189,-11.71171 2.52605,-4.13354 1.83713,-8.72637 -1.83713,-13.77847 l 0,0 c -11.71171,-15.38597 -27.55696,-25.49019 -40.18723,-25.49019 z"
       id="path79"
       style="fill:#ffffff;fill-opacity:1" />
    <path
       inkscape:connector-curvature="0"
       class="st0"
       d="m -58.737449,-213.88439 c 13.54884,17.91202 -12.85991,29.62372 -35.135111,26.63838 -21.35664,-2.75569 -33.29799,-14.69704 -26.86803,-35.36475 10.10421,-31.23122 43.402201,-16.30453 62.003141,8.72637 z"
       id="path81"
       style="fill:#ffffff;fill-opacity:1" />
    <path
       inkscape:connector-curvature="0"
       class="st0"
       d="m -86.98333,-185.63852 c -2.29641,0 -4.59282,-0.22964 -7.11887,-0.45928 -12.40063,-1.60749 -21.58628,-6.20031 -26.17911,-13.31919 -4.13354,-6.20032 -4.59282,-14.23776 -1.60749,-23.42341 3.44462,-10.5635 9.64494,-16.76382 18.14166,-18.14166 13.54884,-2.29642 32.379421,8.72637 45.928261,26.40874 5.51139,7.34852 4.13354,12.85991 2.06677,16.30453 -4.36319,7.57817 -17.45274,12.63027 -31.231221,12.63027 z m -12.85991,-53.50641 c -1.1482,0 -2.29641,0 -3.44462,0.22964 -7.57816,1.37785 -13.08955,6.88924 -16.30453,16.53417 -2.75569,8.49673 -2.29641,15.84525 1.37785,21.58628 4.13355,6.6596 12.63027,11.02278 24.57162,12.40063 15.156321,1.83713 31.460851,-2.98534 36.053681,-11.02278 2.29641,-4.13355 1.60749,-8.72637 -2.06677,-13.77848 -11.71171,-15.61561 -27.786601,-25.94946 -40.187231,-25.94946 z"
       id="path83"
       style="fill:#ffffff;fill-opacity:1" />
    <path
       inkscape:connector-curvature="0"
       class="st0"
       d="m 141.28011,235.98288 c 15.15633,-11.25243 37.43153,-8.03745 36.51297,10.79314 -1.14821,23.8827 -14.23776,28.9348 -37.89082,29.16445 -21.127,0.22964 -14.00812,-28.47553 1.37785,-39.95759 z"
       id="path85"
       style="fill:#ffffff;fill-opacity:1" />
    <path
       inkscape:connector-curvature="0"
       class="st0"
       d="m 139.67262,277.08867 c -6.6596,0 -11.48206,-2.98533 -13.31919,-8.26708 -3.21498,-9.64494 3.44462,-25.71983 14.23776,-33.75728 l 0,0 c 9.41529,-6.88924 21.58628,-8.72637 30.08301,-4.36318 5.74103,2.98533 8.72636,8.72637 8.49672,16.07489 -1.1482,24.80126 -15.15632,29.85337 -39.03902,30.31265 -0.22964,0 -0.45928,0 -0.45928,0 z m 2.29641,-40.18723 c -10.10421,7.57817 -16.53417,22.27521 -13.54883,31.23122 1.60749,4.59283 5.51139,6.88924 11.48206,6.6596 22.96413,-0.22964 35.5944,-4.82247 36.74261,-28.01624 0.45928,-8.03745 -3.67426,-12.17099 -7.34852,-14.00812 -7.34852,-4.13355 -18.60095,-2.29641 -27.32732,4.13354 l 0,0 z"
       id="path87"
       style="fill:#ffffff;fill-opacity:1" />
    <path
       inkscape:connector-curvature="0"
       class="st0"
       d="m 189.0455,200.84776 c 14.92669,-11.02278 36.05368,-8.72637 35.5944,9.87457 -0.68892,22.96413 -14.23776,27.32732 -37.20189,28.01624 -20.20843,0.45929 -13.54884,-26.63839 1.60749,-37.89081 z"
       id="path89"
       style="fill:#ffffff;fill-opacity:1" />
    <path
       inkscape:connector-curvature="0"
       class="st0"
       d="m 186.74909,239.65714 c -6.20032,0 -10.5635,-2.7557 -12.40063,-7.57816 -3.21498,-9.18566 3.21497,-24.34198 14.00811,-32.14979 l 0,0 c 9.18566,-6.88923 21.12701,-8.72636 29.16445,-4.82246 5.51139,2.98533 8.49673,8.49672 8.26709,15.6156 -0.68893,23.42342 -14.69704,28.24588 -38.3501,28.93481 -0.22964,0 -0.45928,0 -0.68892,0 z m 2.98533,-37.89082 c -9.87457,7.34853 -16.07489,21.35664 -13.08955,29.62373 1.37785,4.13354 5.05211,6.20032 10.79314,6.20032 23.42342,-0.68893 35.36476,-5.05211 36.05369,-26.86804 0.22964,-6.42995 -2.29642,-11.02278 -7.11888,-13.54883 -7.11888,-3.67426 -17.91202,-1.83713 -26.6384,4.59282 l 0,0 z"
       id="path91"
       style="fill:#ffffff;fill-opacity:1" />
    <path
       inkscape:connector-curvature="0"
       class="st0"
       d="m -214.20459,134.02215 c 11.25242,14.92668 11.25242,38.35009 -7.11888,36.28332 -25.49019,-2.98534 -29.16445,-15.15633 -31.46086,-40.64651 -1.60749,-20.66771 27.09767,-11.02278 38.57974,4.36319 z"
       id="path93"
       style="fill:#ffffff;fill-opacity:1" />
    <path
       inkscape:connector-curvature="0"
       class="st0"
       d="m -219.02706,171.45367 c -0.68892,0 -1.60749,0 -2.52605,-0.22964 -26.17911,-2.98533 -30.08301,-15.6156 -32.37943,-41.56507 -0.68892,-7.8078 2.98534,-10.79314 5.97068,-12.17099 8.95601,-3.44462 25.94946,4.36319 34.44619,15.84525 7.57816,10.10422 10.10422,24.34198 5.74103,32.14978 -1.60749,2.7557 -4.82246,5.97067 -11.25242,5.97067 z m -23.88269,-52.58785 c -1.60749,0 -2.98534,0.22964 -4.13355,0.68892 -3.44462,1.37785 -5.05211,4.59283 -4.59282,9.64494 2.06677,25.26054 5.74103,36.7426 30.31265,39.72794 5.28175,0.68892 9.41529,-1.14821 11.7117,-4.82247 4.13354,-7.11888 1.60749,-19.97879 -5.51139,-29.62372 -6.6596,-8.72637 -19.28987,-15.61561 -27.78659,-15.61561 z"
       id="path95"
       style="fill:#ffffff;fill-opacity:1" />
    <path
       inkscape:connector-curvature="0"
       class="st0"
       d="m -174.24701,183.8543 c 11.02278,14.69705 10.10422,39.03902 -8.26709,37.20189 -24.57161,-2.52605 -27.78659,-16.07489 -29.39408,-40.64651 -1.14821,-20.20843 26.40875,-11.48206 37.66117,3.44462 z"
       id="path97"
       style="fill:#ffffff;fill-opacity:1" />
    <path
       inkscape:connector-curvature="0"
       class="st0"
       d="m -180.67697,222.43404 c -0.68892,0 -1.37784,0 -2.06677,0 -25.94946,-2.52605 -28.9348,-17.45274 -30.31265,-41.79471 -0.45928,-8.03745 3.21498,-11.25243 6.42996,-12.40063 8.72637,-3.21498 24.80126,4.13354 33.06834,15.15632 l 0,0 c 7.34852,9.87458 9.64494,24.11234 4.82247,32.37942 -2.29641,4.36319 -6.42996,6.6596 -11.94135,6.6596 z m -20.89735,-52.8175 c -1.37785,0 -2.7557,0.22965 -4.13355,0.68893 -3.67426,1.37785 -5.28175,4.82247 -5.0521,10.10421 1.60748,25.26055 4.82246,37.20189 28.24587,39.72795 5.51139,0.45928 9.4153,-1.37785 11.94135,-5.51139 4.36318,-7.57817 2.06677,-20.66772 -4.82247,-29.85337 l 0,0 c -6.20031,-8.72637 -18.14166,-15.15633 -26.1791,-15.15633 z"
       id="path99"
       style="fill:#ffffff;fill-opacity:1" />
    <path
       inkscape:connector-curvature="0"
       class="st0"
       d="m -133.83014,-239.37457 c -15.15633,11.25242 -38.12046,8.26708 -36.97225,-10.5635 1.37785,-23.8827 15.38596,-27.7866 39.03902,-28.01624 21.12699,-0.45928 13.54883,27.32731 -2.06677,38.57974 z"
       id="path101"
       style="fill:#ffffff;fill-opacity:1" />
    <path
       inkscape:connector-curvature="0"
       class="st0"
       d="m -152.89037,-231.79641 c -3.9039,0 -7.8078,-0.91857 -10.79314,-2.52606 -5.74103,-3.21497 -8.49673,-8.72636 -8.26709,-15.84524 1.37785,-23.8827 15.15633,-28.70516 40.18723,-28.93481 8.72637,0 12.17098,4.36319 13.31919,8.03745 3.21498,9.41529 -3.67426,24.80126 -14.69704,32.8387 -5.97067,4.13355 -13.08955,6.42996 -19.74915,6.42996 z m 21.58628,-45.00969 c 0,0 -0.22964,0 -0.22964,0 -24.34198,0.22964 -36.97225,4.59282 -38.12045,26.86803 -0.45929,6.20031 2.06677,11.02278 6.88923,13.77847 7.57817,4.13355 19.51951,2.52606 28.24588,-3.9039 10.10422,-7.34852 16.76382,-21.81592 13.77848,-30.31265 -1.14821,-4.36318 -4.82247,-6.42995 -10.5635,-6.42995 z"
       id="path103"
       style="fill:#ffffff;fill-opacity:1" />
    <path
       inkscape:connector-curvature="0"
       class="st0"
       d="m -181.36589,-204.00982 c -15.15632,11.02278 -35.13512,8.26709 -34.44619,-10.33386 0.91856,-22.96412 13.31919,-27.78659 36.28332,-28.24587 20.43807,-0.22964 13.54884,27.32731 -1.83713,38.57973 z"
       id="path105"
       style="fill:#ffffff;fill-opacity:1" />
    <path
       inkscape:connector-curvature="0"
       class="st0"
       d="m -199.73719,-196.43166 c -3.44462,0 -6.42996,-0.68892 -9.18565,-2.06677 -5.5114,-2.98533 -8.26709,-8.49673 -8.03745,-15.84525 0.91857,-23.88269 14.4674,-28.9348 37.43153,-29.16444 6.6596,-0.22964 11.25242,2.7557 12.85991,8.03745 3.21498,9.41529 -3.67426,24.80125 -14.23776,32.60906 l 0,0 c -5.97067,4.13354 -12.63027,6.42995 -18.83058,6.42995 z m 20.66771,-44.78004 c 0,0 -0.22964,0 -0.22964,0 -22.2752,0.45928 -34.44619,4.82246 -35.36476,27.09766 -0.22964,6.42996 2.06678,11.25243 6.88924,13.77848 6.88924,3.67426 17.2231,1.83713 25.71983,-4.36318 l 0,0 c 9.87457,-7.11888 16.30453,-21.58628 13.31919,-30.08301 -1.37785,-4.36318 -5.05211,-6.42995 -10.33386,-6.42995 z"
       id="path107"
       style="fill:#ffffff;fill-opacity:1" />
    <path
       inkscape:connector-curvature="0"
       class="st0"
       d="m 208.10573,-134.19887 c -10.79314,-15.15632 -10.33386,-39.26866 8.03744,-36.7426 25.49019,3.67426 29.16445,16.53417 30.77194,42.25399 1.37784,20.43808 -27.55696,10.10422 -38.80938,-5.51139 z"
       id="path109"
       style="fill:#ffffff;fill-opacity:1" />
    <path
       inkscape:connector-curvature="0"
       class="st0"
       d="m 237.27017,-116.05721 c -9.41529,0 -22.96413,-7.57816 -30.08301,-17.45273 -7.57816,-10.5635 -9.64493,-24.80126 -4.82246,-32.83871 2.06677,-3.21498 5.97067,-6.88924 14.00812,-5.74103 25.26054,3.67426 30.083,15.84525 31.92013,43.4022 0.45929,7.80781 -3.21497,10.79314 -6.42995,11.94135 -1.37785,0.45928 -2.98534,0.68892 -4.59283,0.68892 z m -23.88269,-53.9657 c -4.13354,0 -7.11888,1.60749 -9.18565,4.82247 -4.36319,7.11888 -2.29641,20.66771 4.59282,30.31265 l 0,0 c 7.80781,10.79314 23.8827,18.83058 31.92014,15.84525 3.44462,-1.14821 5.05211,-4.36319 4.82247,-9.64494 -1.60749,-25.26054 -5.05211,-37.66117 -29.85337,-41.33543 -0.68892,0.22964 -1.37785,0 -2.29641,0 z"
       id="path111"
       style="fill:#ffffff;fill-opacity:1" />
    <path
       inkscape:connector-curvature="0"
       class="st0"
       d="m 169.52599,-185.17923 c -10.5635,-14.92669 -9.41529,-37.20189 8.72637,-34.90548 24.57162,3.21498 27.09767,14.92668 28.01624,39.72794 0.91856,20.20844 -25.94947,10.5635 -36.74261,-4.82246 z"
       id="path113"
       style="fill:#ffffff;fill-opacity:1" />
    <path
       inkscape:connector-curvature="0"
       class="st0"
       d="m 196.62367,-167.95614 c -8.95602,0 -21.35665,-7.11888 -28.24589,-16.76381 -7.11888,-9.87458 -8.95601,-23.19377 -4.59282,-30.77193 2.06677,-3.44462 6.20031,-7.11888 14.23776,-5.97068 25.0309,3.21498 28.01624,14.92669 29.16444,40.64651 0.22965,8.03745 -3.44461,11.02278 -6.65959,12.17099 -0.91857,0.45928 -2.29642,0.68892 -3.9039,0.68892 z m -20.89737,-51.21 c -4.36318,0 -7.57816,1.83713 -9.64493,5.0521 -4.13354,6.88924 -2.29641,19.06023 4.36318,28.24588 l 0,0 c 7.34853,10.33386 22.04557,17.91202 29.62374,15.15633 3.67426,-1.14821 5.28174,-4.59283 5.0521,-9.87458 -1.1482,-25.0309 -3.9039,-35.5944 -27.09767,-38.57973 -0.91857,0 -1.60749,0 -2.29642,0 z"
       id="path115"
       style="fill:#ffffff;fill-opacity:1" />
    <path
       inkscape:connector-curvature="0"
       class="st0"
       d="M 45.519696,96.131327 C 36.563686,84.189985 33.119067,72.937562 30.363371,63.75191 25.770541,48.595583 23.014851,39.409933 0.969291,36.883883 c -23.65306,-2.7557 -29.62373,5.97067 -38.80938,19.06022 -5.51139,8.037449 -12.40063,17.912024 -24.80126,27.327316 l -2.75569,-3.67426 c 11.94134,-8.95601 18.14166,-18.141662 23.65305,-26.179106 9.18565,-13.54884 16.53417,-24.11234 42.94292,-21.127 25.0309,2.7557 28.70516,14.92668 33.297984,30.08301 2.755695,9.185651 5.970673,19.74915 14.467401,31.001574 l -3.44462,2.75569 z"
       id="path117"
       style="fill:#ffffff;fill-opacity:1" />
    <path
       inkscape:connector-curvature="0"
       class="st0"
       d="M 61.824227,80.056441 C 51.949652,66.966888 41.615794,60.07765 32.659784,54.336613 18.192381,44.691683 6.710321,37.343163 7.628881,9.0972831 8.547451,-14.326127 21.177721,-17.770747 35.874762,-21.904287 c 9.185652,-2.52606 19.519509,-5.28175 30.083009,-13.3192 l 2.755695,3.67426 c -11.252423,8.49673 -22.504846,11.48207 -31.690497,14.00812 -14.926688,4.13355 -24.112338,6.6596 -24.801258,26.6383901 -0.91857,25.4901799 8.49673,31.6904999 22.964128,41.1057899 9.415292,6.20032 19.978791,13.089555 30.312649,26.868032 l -3.674261,2.985336 z"
       id="path119"
       style="fill:#ffffff;fill-opacity:1" />
    <path
       inkscape:connector-curvature="0"
       class="st0"
       d="m -71.367719,58.699803 -2.75569,-3.67426 c 11.02278,-8.26709 21.81592,-11.48207 31.23121,-14.23776 14.4674,-4.13354 24.11234,-6.88924 25.0309,-27.32731 0.91857,-25.71983 -8.49673,-32.37943 -22.73449,-42.254 -8.95601,-6.20031 -19.28986,-13.31919 -29.39408,-26.86803 l 3.67426,-2.7557 c 9.64493,12.85992 19.51951,19.74915 28.24588,25.94947 14.23776,9.87457 25.71982,17.91202 24.57162,46.1579 -0.91857,23.65305 -13.54884,27.32731 -28.24588,31.46085 -8.95601,2.7557 -19.06023,5.74104 -29.62373,13.54884 z"
       id="path121"
       style="fill:#ffffff;fill-opacity:1" />
    <path
       inkscape:connector-curvature="0"
       class="st0"
       d="m -0.867839,-4.451547 c -2.52606,0 -5.28175,-0.22965 -8.26709,-0.45929 -25.0309,-2.75569 -28.9348,-15.15632 -33.52763,-30.77193 -2.75569,-9.41529 -5.97067,-19.97879 -14.4674,-31.23121 l 3.67426,-2.7557 c 8.95601,11.94135 12.40063,23.42341 15.15633,32.60906 4.59282,15.15633 7.57816,25.0309 29.62372,27.55696 23.65305,2.75569 29.62373,-6.20032 38.57974,-19.97879 5.511389,-8.26709 12.400627,-18.60095 25.030898,-28.01624 l 2.755695,3.67426 c -11.941346,8.95601 -18.371302,18.60094 -23.882693,26.86803 -8.03745,12.40063 -14.69704,22.50485 -34.67583,22.50485 z"
       id="path123"
       style="fill:#ffffff;fill-opacity:1" />
    <path
       inkscape:connector-curvature="0"
       class="st0"
       d="m -132.68194,74.545051 c -4.82247,-6.429956 -10.10421,-10.104217 -14.69704,-13.089554 -7.57816,-5.052104 -14.23776,-9.644934 -13.08955,-24.801254 1.1482,-13.77848 8.72637,-15.84525 16.99345,-18.14167 5.05211,-1.37784 10.5635,-2.98533 16.30453,-7.34852 l 2.7557,3.67426 c -6.42996,4.82247 -12.85991,6.6596 -17.91202,8.03745 -8.26709,2.29641 -12.85991,3.44462 -13.54884,14.00812 -0.91856,12.40063 3.44462,15.6156 11.02278,20.66771 4.59283,3.214981 10.33386,6.889241 15.84525,14.008121 l -3.67426,2.985337 z"
       id="path125"
       style="fill:#ffffff;fill-opacity:1" />
    <path
       inkscape:connector-curvature="0"
       class="st0"
       d="m -63.559909,156.06771 c -1.83713,0 -3.67426,-0.22964 -5.97068,-0.68892 -14.008121,-2.98534 -16.074891,-10.10422 -18.371301,-18.14167 -1.37785,-5.0521 -2.98534,-10.79314 -7.8078,-16.99345 l 3.67426,-2.7557 c 5.28175,6.88924 7.11888,13.3192 8.49672,18.37131 2.29642,7.8078 3.44462,12.63027 14.926691,14.92668 9.87457,2.06677 12.17098,-1.37785 16.30453,-7.8078 2.52605,-4.13355 5.74103,-8.95601 11.7117,-13.54884 l 2.7557,3.67426 c -5.28175,3.9039 -8.26709,8.49673 -10.79314,12.40063 -3.44462,5.51139 -6.6596,10.5635 -14.92668,10.5635 z"
       id="path127"
       style="fill:#ffffff;fill-opacity:1" />
    <path
       inkscape:connector-curvature="0"
       class="st0"
       d="m -154.95714,86.94568 c -6.42996,-8.726369 -13.08956,-13.089553 -18.83059,-16.993455 -9.64493,-6.429956 -17.22309,-11.482062 -16.76381,-30.771932 0.22964,-15.84525 8.49673,-18.3713 17.91202,-21.35664 5.51139,-1.60749 11.94135,-3.67426 18.3713,-8.4967299 l 2.7557,3.6742599 c -7.11888,5.28175 -14.23776,7.57817 -19.74915,9.18566 -9.4153,2.75569 -14.4674,4.36318 -14.69705,16.99345 -0.22964,16.76381 5.74104,20.897357 14.69705,26.86803 5.74103,3.903902 13.08955,8.726369 19.97879,18.141662 l -3.67426,2.755695 z"
       id="path129"
       style="fill:#ffffff;fill-opacity:1" />
    <path
       inkscape:connector-curvature="0"
       class="st0"
       d="m -73.664129,185.46179 c -2.29641,0 -4.59283,-0.45928 -7.578161,-1.1482 -17.91202,-4.82247 -20.66772,-13.08956 -24.11234,-23.65306 -2.06677,-6.20031 -4.59282,-13.31919 -10.56349,-21.35663 l 3.67426,-2.7557 c 6.65959,8.72637 9.18565,16.53417 11.25242,22.73449 3.44462,9.87457 5.51139,16.30453 21.126991,20.66771 11.25243,3.21498 14.00812,-1.1482 18.83059,-8.95601 2.98534,-4.82246 6.88924,-10.79314 13.77848,-15.84525 l 2.75569,3.67426 c -6.20031,4.59283 -9.64493,10.10422 -12.63027,14.69705 -4.13354,6.20031 -7.8078,11.94134 -16.53417,11.94134 z"
       id="path131"
       style="fill:#ffffff;fill-opacity:1" />
    <path
       inkscape:connector-curvature="0"
       class="st0"
       d="m 46.20862,170.53511 c -1.607489,0 -3.214978,-0.22964 -5.281749,-0.45928 -14.23776,-2.29642 -16.53417,-9.18565 -19.28987,-17.2231 -1.60749,-4.82247 -3.44462,-10.10422 -7.8078,-15.84525 l 3.67426,-2.75569 c 4.82247,6.42995 6.88924,12.40063 8.49673,17.22309 2.75569,8.03745 4.13354,12.40063 15.615603,14.00812 10.793141,1.60749 13.319195,-2.06677 17.682379,-8.95601 2.755696,-4.36318 6.200315,-9.64493 12.630271,-14.69704 l 2.755695,3.67426 c -5.970673,4.36318 -8.95601,9.18565 -11.482064,13.31919 -3.903902,6.20032 -7.348521,11.71171 -16.993455,11.71171 z"
       id="path133"
       style="fill:#ffffff;fill-opacity:1" />
    <path
       inkscape:connector-curvature="0"
       class="st0"
       d="m 119.92347,112.89515 -2.7557,-3.67426 c 6.20032,-4.59283 11.94135,-6.42996 16.53418,-8.03745 7.57816,-2.526053 12.17099,-3.903903 13.54884,-14.467401 1.37784,-10.333858 -2.7557,-12.859912 -9.64494,-16.993455 -4.59283,-2.755696 -10.10422,-5.970674 -14.92668,-12.630271 l 3.67426,-2.7557 c 4.36318,5.741037 9.18565,8.726373 13.77847,11.252428 6.88924,4.133543 13.54884,8.037445 11.71171,21.356639 -1.83713,13.3192 -8.72637,15.61561 -16.76382,18.14166 -4.59282,2.06678 -9.87457,3.67426 -15.15632,7.80781 z"
       id="path135"
       style="fill:#ffffff;fill-opacity:1" />
    <path
       inkscape:connector-curvature="0"
       class="st0"
       d="m 52.868217,204.52202 c -1.377847,0 -2.755695,0 -4.363184,-0.22964 -16.304531,-1.37785 -18.600942,-10.33386 -21.356642,-20.43808 -1.60749,-6.20031 -3.44462,-13.08955 -8.72637,-20.20843 l 3.67426,-2.75569 c 5.74104,7.8078 7.80781,15.38596 9.644938,21.58628 2.755696,9.87457 4.363185,15.84524 17.223097,16.99345 14.926683,1.37785 18.830585,-4.36318 24.571617,-13.31919 3.67426,-5.51139 8.267086,-12.40063 16.763814,-18.83059 l 2.755695,3.67426 c -7.807804,5.74103 -11.941347,12.17099 -15.615607,17.68238 -5.511391,8.49673 -10.333858,15.84525 -24.571618,15.84525 z"
       id="path137"
       style="fill:#ffffff;fill-opacity:1" />
    <path
       inkscape:connector-curvature="0"
       class="st0"
       d="m 139.21334,134.71107 -2.7557,-3.67426 c 8.03745,-5.97067 15.61561,-8.26709 21.58629,-10.10422 9.64493,-2.98533 15.38596,-4.59282 18.14166,-18.3713 2.29641,-11.94135 -2.52606,-14.926686 -10.33386,-19.749153 -5.05211,-3.214978 -11.48206,-6.889239 -16.99346,-14.23776 l 3.67426,-2.755695 c 5.05211,6.659597 10.79315,10.104216 15.84525,13.089553 8.26709,5.052108 15.61561,9.415293 12.63027,24.571615 -3.21497,16.53418 -11.7117,19.06023 -21.35664,22.04557 -6.20031,1.60749 -13.08955,3.67426 -20.43807,9.18565 z"
       id="path139"
       style="fill:#ffffff;fill-opacity:1" />
    <path
       inkscape:connector-curvature="0"
       class="st0"
       d="m 131.86482,-9.962947 -2.7557,-3.67426 c 6.20032,-4.59282 12.40063,-6.42995 17.2231,-8.03744 8.03745,-2.29641 12.40063,-3.67426 13.31919,-14.23776 0.91857,-11.94135 -3.67426,-14.69704 -11.02278,-19.28987 -4.82246,-2.98533 -10.79314,-6.65959 -16.30453,-14.00812 l 3.67426,-2.75569 c 4.82247,6.6596 10.33386,9.87457 15.15633,12.85991 7.8078,4.82247 14.4674,8.72637 13.31919,23.65305 -1.1482,13.54884 -8.26708,15.84525 -16.53417,18.3713 -5.05211,1.37785 -10.33386,2.98534 -16.07489,7.11888 z"
       id="path141"
       style="fill:#ffffff;fill-opacity:1" />
    <path
       inkscape:connector-curvature="0"
       class="st0"
       d="m 102.24109,-108.01976 c -5.28175,-6.88924 -6.88923,-13.54884 -8.267083,-18.83059 -2.066771,-8.03744 -3.444619,-12.85991 -14.467401,-15.15632 -9.415292,-2.06677 -11.711705,1.60749 -15.845248,8.26708 -2.526054,4.13355 -5.741032,9.4153 -11.711706,14.00812 l -2.755695,-3.67426 c 5.281749,-3.9039 8.267086,-8.72637 10.563499,-12.63027 4.133543,-6.6596 8.037445,-13.08955 20.667715,-10.33386 13.778479,2.98534 15.845249,10.10422 17.912019,18.37131 1.37785,5.0521 2.98534,11.02278 7.57816,17.22309 l -3.67426,2.7557 z"
       id="path143"
       style="fill:#ffffff;fill-opacity:1" />
    <path
       inkscape:connector-curvature="0"
       class="st0"
       d="m 158.50321,-8.585097 -2.7557,-3.67426 c 7.11888,-5.28175 14.4674,-7.34852 20.20844,-9.18565 9.64493,-2.75569 14.92668,-4.13354 15.15632,-16.53417 0.22964,-16.76381 -5.74103,-20.89736 -14.92668,-27.09767 -5.74104,-3.9039 -12.85991,-8.95601 -19.74915,-17.91202 l 3.67426,-2.755703 c 6.42995,8.496733 12.85991,13.089563 18.60094,16.993463 9.64493,6.65959 17.2231,11.94134 16.76382,31.00157 -0.22964,15.61561 -8.72637,17.91202 -18.37131,20.66771 -5.74103,1.83713 -12.17099,3.67427 -18.60094,8.49673 z"
       id="path145"
       style="fill:#ffffff;fill-opacity:1" />
    <path
       inkscape:connector-curvature="0"
       class="st0"
       d="m 117.62706,-134.19887 c -6.42996,-8.49673 -8.95601,-15.84525 -11.25243,-21.58628 -3.67426,-9.87457 -5.97067,-15.84525 -21.356633,-19.97879 -11.252423,-2.98534 -13.778477,0.91856 -18.600944,8.26709 -2.985337,4.59282 -6.659597,10.33385 -13.319194,15.38596 l -2.755696,-3.67426 c 5.970674,-4.59283 9.415293,-9.64493 12.170988,-14.23776 5.052108,-7.57816 9.185652,-14.23776 23.653052,-10.33386 17.682377,4.82247 20.667717,12.85992 24.571617,22.96413 2.29641,5.97067 4.59282,12.63027 10.5635,20.43808 l -3.67426,2.75569 z"
       id="path147"
       style="fill:#ffffff;fill-opacity:1" />
    <path
       inkscape:connector-curvature="0"
       class="st0"
       d="m -13.957399,-128.45784 c -5.05211,-6.65959 -6.88924,-12.85991 -8.49673,-17.68238 -2.52605,-7.8078 -3.9039,-12.63027 -15.38596,-14.23776 -10.79314,-1.60748 -13.3192,2.29642 -17.68238,9.18566 -2.7557,4.59282 -6.20031,10.10421 -12.85991,14.92668 l -2.52606,-3.67426 c 5.97068,-4.36319 8.95601,-9.41529 11.71171,-13.77848 4.36318,-7.34852 8.26709,-13.54883 22.2752,-11.25242 14.23776,2.29641 16.53418,9.41529 19.06023,17.45274 1.60749,4.82246 3.21498,10.33385 7.8078,16.30453 l -3.9039,2.75569 z"
       id="path149"
       style="fill:#ffffff;fill-opacity:1" />
    <path
       inkscape:connector-curvature="0"
       class="st0"
       d="m -122.80736,-49.001957 c -4.13355,-5.51139 -8.49673,-8.49673 -12.40063,-11.25243 -6.6596,-4.59282 -12.17099,-8.49672 -10.5635,-22.04556 1.83713,-13.319193 8.26708,-15.385963 15.84525,-17.682383 4.59282,-1.37785 9.64493,-2.98533 15.15632,-7.11887 l 2.7557,3.67425 c -6.20032,4.59283 -11.94135,6.42996 -16.53418,7.80781 -7.34852,2.29641 -11.25242,3.44462 -12.63027,13.778473 -1.37784,10.79314 2.06678,13.3192 8.49673,17.68238 3.9039,2.7557 8.95601,5.97068 13.54884,12.17099 l -3.67426,2.98534 z"
       id="path151"
       style="fill:#ffffff;fill-opacity:1" />
    <path
       inkscape:connector-curvature="0"
       class="st0"
       d="m -17.402019,-156.01479 c -5.74103,-7.57816 -8.03744,-14.92668 -9.64493,-20.66772 -2.98534,-9.41529 -4.59283,-15.15632 -18.14166,-16.30453 -14.92669,-1.37785 -18.3713,3.9039 -24.34198,12.85991 -3.67426,5.5114 -8.03744,12.40063 -16.534171,18.83059 l -2.7557,-3.67426 c 7.80781,-5.97067 11.941351,-12.17099 15.385971,-17.68238 5.74103,-8.95601 10.79314,-16.53417 28.47552,-14.92668 16.53417,1.60749 19.06023,9.87457 22.04556,19.51951 1.83713,5.74103 3.9039,12.40063 8.95601,19.28986 l -3.44462,2.7557 z"
       id="path153"
       style="fill:#ffffff;fill-opacity:1" />
    <path
       inkscape:connector-curvature="0"
       class="st0"
       d="m -150.59396,-58.876537 c -4.82247,-6.42995 -10.10421,-10.10421 -14.69704,-13.08955 -7.8078,-5.28175 -14.69704,-10.10422 -11.71171,-25.490183 3.21498,-16.76381 11.48207,-19.28986 21.127,-22.04556 5.97068,-1.83713 12.63027,-3.9039 19.97879,-9.41529 l 2.7557,3.67426 c -8.03745,5.97067 -15.38597,8.26709 -21.35664,10.10422 -9.41529,2.98533 -15.15632,4.59282 -17.91202,18.60093 -2.52605,12.630273 1.83713,15.385973 9.64493,20.897363 4.59283,3.21498 10.5635,7.11888 15.84525,14.23776 l -3.67426,2.52605 z"
       id="path155"
       style="fill:#ffffff;fill-opacity:1" />
    <path
       inkscape:connector-curvature="0"
       class="st0"
       d="m 176.87451,-124.55393 c -5.51139,0 -11.25242,-2.52606 -16.76381,-9.87458 -6.20032,-7.8078 -8.72637,-16.30453 -6.6596,-22.73449 1.14821,-3.9039 4.59283,-9.18565 14.00812,-11.7117 13.77848,-3.9039 20.20843,-5.28175 29.62373,6.65959 5.05211,6.42996 7.11888,11.94135 6.42995,17.2231 -0.68892,4.59283 -3.44461,8.95601 -8.49672,12.63027 -5.5114,4.36319 -11.48207,7.80781 -18.14167,7.80781 z m 4.36319,-42.48364 c -3.21498,0 -7.11888,1.1482 -12.63028,2.52605 -5.97067,1.60749 -9.41529,4.59283 -10.79314,8.72637 -1.60748,5.05211 0.45929,11.94135 5.74104,18.60094 8.26708,10.5635 15.84524,10.79314 28.70516,1.14821 3.9039,-2.98534 6.20032,-6.20031 6.6596,-9.41529 0.45928,-3.9039 -1.37785,-8.49673 -5.51139,-13.77848 -4.36319,-5.74103 -7.57817,-7.8078 -12.17099,-7.8078 z"
       id="path157"
       style="fill:#ffffff;fill-opacity:1" />
    <path
       inkscape:connector-curvature="0"
       class="st0"
       d="m -170.57275,165.71264 c -5.51139,0 -10.10422,-2.52605 -15.84525,-9.41529 -5.05211,-6.42996 -7.34852,-11.71171 -6.6596,-16.76381 0.45929,-4.36319 3.21498,-8.49673 8.26709,-12.17099 12.40063,-9.41529 22.50485,-12.40063 33.98691,1.83713 l 0,0 c 6.6596,8.26708 8.95601,16.30453 6.88924,22.73449 -1.14821,3.67426 -4.36319,8.72636 -13.3192,11.25242 -5.28175,1.60749 -9.64493,2.52605 -13.31919,2.52605 z m 3.67426,-41.79471 c -4.13354,0 -8.95601,2.29641 -15.15632,7.11888 -3.90391,2.98534 -6.20032,5.97067 -6.6596,9.18565 -0.45928,3.67426 1.37785,7.8078 5.74103,13.31919 7.57816,9.64494 11.48206,8.95601 24.34198,5.28175 5.51139,-1.60748 8.95601,-4.36318 10.33385,-8.26708 1.60749,-5.05211 -0.68892,-11.71171 -6.20031,-18.60095 -4.13354,-5.28175 -8.03745,-8.03744 -12.40063,-8.03744 z"
       id="path159"
       style="fill:#ffffff;fill-opacity:1" />
    <path
       inkscape:connector-curvature="0"
       class="st0"
       d="m -150.36432,-177.83071 c -2.29641,0 -4.59282,-0.45929 -6.65959,-1.14821 -4.59283,-1.60749 -10.33386,-5.97067 -13.08956,-16.76381 -3.44462,-13.54884 -4.59282,-21.127 7.57816,-29.62373 5.97068,-4.13354 11.48207,-5.74103 16.53418,-4.82247 4.82246,0.91857 9.41529,4.36319 13.08955,10.10422 8.49673,12.63027 14.00812,25.94947 -1.60749,36.74261 l 0,0 c -5.05211,3.67426 -10.5635,5.51139 -15.84525,5.51139 z m 1.60749,-47.99503 c -3.21498,0 -6.88924,1.37785 -11.02278,4.13354 -9.64493,6.88924 -9.18565,11.25243 -5.74103,24.80126 1.83713,7.11888 5.28175,11.71171 10.33386,13.54884 5.28175,1.83713 11.94134,0.45928 18.14166,-3.90391 l 0,0 c 10.33386,-7.11888 10.5635,-15.15632 0.45928,-30.54229 -2.98534,-4.59282 -6.42996,-7.34852 -10.10422,-8.03744 -0.68892,0 -1.37784,0 -2.06677,0 z"
       id="path161"
       style="fill:#ffffff;fill-opacity:1" />
    <path
       inkscape:connector-curvature="0"
       class="st0"
       d="m 154.59931,230.70113 c -0.68893,0 -1.14821,0 -1.83713,-0.22964 -4.36319,-0.68893 -8.26709,-3.67427 -12.63028,-9.4153 -9.64493,-13.31919 -15.38596,-23.65305 -0.68892,-34.90547 l 0,0 c 7.34852,-5.51139 14.69704,-7.57817 21.127,-5.51139 4.13354,1.37784 9.87457,5.28175 12.85991,15.84524 l 0.45928,1.83713 c 3.44462,11.94135 5.28175,17.91202 -6.42995,26.63839 -4.82247,3.90391 -9.18565,5.74104 -12.85991,5.74104 z m -12.40064,-40.87615 c -11.02278,8.49672 -7.8078,15.15632 1.83714,28.47552 3.44462,4.82246 6.42995,7.11888 9.41529,7.57816 2.98534,0.45928 6.6596,-0.91857 11.25242,-4.59283 9.18565,-6.88924 8.26709,-10.10421 4.82247,-21.81592 l -0.45928,-1.83713 c -2.06677,-6.88924 -5.51139,-11.25242 -9.87458,-12.85991 -5.05211,-1.14821 -11.02278,0.45928 -16.99346,5.05211 l 0,0 z"
       id="path163"
       style="fill:#ffffff;fill-opacity:1" />
    <path
       inkscape:connector-curvature="0"
       class="st0"
       d="m -162.30566,236.6718 -4.59283,-0.45928 c 0.68892,-6.88924 -1.14821,-12.40063 -2.75569,-17.45274 -2.52606,-8.26709 -5.05211,-16.07489 6.88923,-22.50485 15.38597,-8.26708 22.96413,-4.13354 31.92014,0.68893 5.74103,2.98533 11.94135,6.42995 21.81592,8.03744 l -0.68892,4.59283 c -10.5635,-1.60749 -17.68238,-5.28175 -23.42341,-8.49673 -8.72637,-4.82247 -14.4674,-7.8078 -27.55695,-0.68892 -8.49673,4.59282 -7.34853,8.72637 -4.82247,16.99345 1.83713,5.05211 3.9039,11.48207 3.21498,19.28987 z"
       id="path165"
       style="fill:#ffffff;fill-opacity:1" />
    <path
       inkscape:connector-curvature="0"
       class="st0"
       d="m 224.6399,-75.640347 -4.59282,0 c 0,-6.20032 -1.60749,-11.022783 -2.98534,-15.156333 -2.52605,-7.34852 -4.82247,-14.00811 4.82247,-22.04555 10.10421,-8.72637 16.53417,-5.74103 23.88269,-2.52605 4.36318,1.83713 9.41529,4.13354 16.30453,4.59282 l -0.22964,4.59282 c -7.8078,-0.45928 -13.3192,-2.98533 -17.91202,-4.82246 -7.11888,-3.21498 -11.25242,-4.82247 -19.06023,1.83713 -7.11888,6.20031 -5.97067,10.10421 -3.44462,17.22309 1.37785,3.9039 3.21498,9.415293 3.21498,16.304533 z"
       id="path167"
       style="fill:#ffffff;fill-opacity:1" />
    <path
       inkscape:connector-curvature="0"
       class="st0"
       d="m 146.56186,-197.57986 c -5.51139,0 -9.41529,-2.98534 -13.77848,-6.42996 -3.9039,-2.98534 -8.49673,-6.42995 -15.38596,-8.49673 l 1.1482,-4.36318 c 7.80781,2.29641 12.85991,6.20031 16.99346,9.18565 6.20031,4.82247 10.10422,7.57816 19.28987,2.98534 8.03744,-4.13355 7.57816,-8.26709 6.42995,-15.84525 -0.68892,-4.59283 -1.37784,-10.5635 0,-17.45274 l 4.36319,1.14821 c -1.37785,5.97067 -0.68893,11.25242 0,15.84525 1.1482,7.57816 2.06677,14.92668 -8.95601,20.43807 -3.67426,2.06677 -7.11888,2.98534 -10.10422,2.98534 z"
       id="path169"
       style="fill:#ffffff;fill-opacity:1" />
    <path
       inkscape:connector-curvature="0"
       class="st0"
       d="m 212.46891,197.40314 c -4.36318,0 -8.72636,-1.60749 -13.31919,-7.8078 -8.03745,-10.5635 -5.51139,-16.99346 -2.52605,-24.34198 1.83713,-4.36318 3.9039,-9.41529 4.13354,-16.53417 l 4.59282,0.22964 c -0.22964,7.8078 -2.52605,13.54883 -4.36318,18.14166 -2.98534,7.11888 -4.59283,11.48206 1.83713,19.97879 5.74103,7.34852 9.64493,6.42996 16.76381,4.82247 4.59283,-1.14821 10.10422,-2.29641 17.2231,-1.37785 l -0.68893,4.59283 c -6.20031,-0.91857 -11.25242,0.22964 -15.6156,1.37784 -2.52605,0.22965 -5.28175,0.91857 -8.03745,0.91857 z"
       id="path171"
       style="fill:#ffffff;fill-opacity:1" />
    <path
       inkscape:connector-curvature="0"
       class="st0"
       d="m 121.53096,282.14078 c 0,-8.03744 2.06677,-13.54884 3.67426,-18.14166 2.52605,-7.11889 4.13354,-11.25243 -2.7557,-19.51951 -5.97067,-7.34853 -9.87457,-6.42996 -16.76381,-4.82247 -4.36318,0.91856 -9.64493,2.29641 -16.53417,1.60749 l 0.459283,-4.59283 c 6.200317,0.68893 10.793137,-0.45928 15.156327,-1.60749 7.34852,-1.83713 13.54883,-3.21498 21.35663,6.20032 8.49673,10.33385 6.20032,16.76381 3.44462,24.11234 -1.60748,4.36318 -3.44462,9.41529 -3.44462,16.53417 l -4.59282,0.22964 z"
       id="path173"
       style="fill:#ffffff;fill-opacity:1" />
    <path
       inkscape:connector-curvature="0"
       class="st0"
       d="m -193.76652,-145.22165 -4.59283,-0.45928 c 0.91857,-7.57817 3.44462,-12.85991 5.28175,-17.2231 3.21498,-6.88924 5.05211,-11.02278 -0.68892,-20.20843 -5.05211,-7.80781 -8.95601,-7.11888 -16.07489,-5.74103 -4.59283,0.91856 -10.5635,1.83713 -17.68238,0.22964 l 0.91857,-4.59283 c 6.20031,1.37785 11.48206,0.45928 15.84525,-0.22964 7.11888,-1.37785 14.00811,-2.52605 20.66771,7.8078 7.11888,11.25243 4.36319,17.45274 1.14821,24.57162 -1.83713,4.36319 -4.13355,8.95601 -4.82247,15.84525 z"
       id="path175"
       style="fill:#ffffff;fill-opacity:1" />
    <path
       inkscape:connector-curvature="0"
       class="st0"
       d="m -232.11661,119.78439 c -3.90391,0 -7.34852,-1.60749 -11.02279,-3.21498 -4.36318,-2.06677 -9.18565,-4.13355 -16.07489,-4.82247 l 0.45929,-4.59282 c 7.8078,0.68892 13.08955,3.21497 17.68238,5.0521 7.11888,3.21498 10.79314,5.05211 19.06022,-1.60749 7.34852,-5.97067 6.20032,-9.87457 4.13355,-16.993453 -1.37785,-4.363184 -2.98534,-9.644934 -2.7557,-16.534172 l 4.59283,0.229641 c -0.22965,6.200315 1.1482,10.79314 2.52605,14.926683 2.29641,7.348518 4.13354,13.778481 -5.74103,21.815921 -5.05211,4.36319 -9.18565,5.74104 -12.85991,5.74104 z"
       id="path177"
       style="fill:#ffffff;fill-opacity:1" />
    <path
       inkscape:connector-curvature="0"
       class="st0"
       d="m -79.634799,-231.33713 c -6.200321,-1.60749 -11.022791,-0.91856 -15.385971,-0.45928 -7.11888,0.91856 -13.54884,1.60748 -19.74915,-8.95601 -6.88924,-11.25242 -3.9039,-16.99346 -0.22964,-23.65305 2.06677,-3.90391 4.59283,-8.49673 5.51139,-15.38597 l 4.59282,0.68892 c -1.1482,7.57817 -3.9039,12.85992 -5.97067,16.99346 -3.44462,6.42995 -5.28175,10.10422 0.22964,19.28987 4.82247,8.03744 8.49673,7.57816 15.38597,6.65959 4.36318,-0.45928 9.87457,-1.1482 16.993451,0.68893 l -1.37784,4.13354 z"
       id="path179"
       style="fill:#ffffff;fill-opacity:1" />
  </g>
</svg>
