<?xml version="1.0" encoding="UTF-8" standalone="no"?>
<!-- Created with Inkscape (http://www.inkscape.org/) -->

<svg
   xmlns:dc="http://purl.org/dc/elements/1.1/"
   xmlns:cc="http://creativecommons.org/ns#"
   xmlns:rdf="http://www.w3.org/1999/02/22-rdf-syntax-ns#"
   xmlns:svg="http://www.w3.org/2000/svg"
   xmlns="http://www.w3.org/2000/svg"
   xmlns:sodipodi="http://sodipodi.sourceforge.net/DTD/sodipodi-0.dtd"
   xmlns:inkscape="http://www.inkscape.org/namespaces/inkscape"
   width="210mm"
   height="297mm"
   viewBox="0 0 744.09448819 1052.3622047"
   id="svg8659"
   version="1.1"
   inkscape:version="0.91 r13725"
   sodipodi:docname="psych2.svg">
  <defs
     id="defs8661" />
  <sodipodi:namedview
     id="base"
     pagecolor="#ffffff"
     bordercolor="#666666"
     borderopacity="1.0"
     inkscape:pageopacity="0.0"
     inkscape:pageshadow="2"
     inkscape:zoom="0.35"
     inkscape:cx="-92.666354"
     inkscape:cy="291.42857"
     inkscape:document-units="px"
     inkscape:current-layer="layer1"
     showgrid="false"
     inkscape:window-width="928"
     inkscape:window-height="1028"
     inkscape:window-x="992"
     inkscape:window-y="24"
     inkscape:window-maximized="0" />
  <metadata
     id="metadata8664">
    <rdf:RDF>
      <cc:Work
         rdf:about="">
        <dc:format>image/svg+xml</dc:format>
        <dc:type
           rdf:resource="http://purl.org/dc/dcmitype/StillImage" />
        <dc:title></dc:title>
      </cc:Work>
    </rdf:RDF>
  </metadata>
  <g
     inkscape:label="Calque 1"
     inkscape:groupmode="layer"
     id="layer1">
    <path
       inkscape:connector-curvature="0"
       class="st0"
       d="m -85.7,38.224224 c 0,-15.9 4.099997,-11.9 17.599997,-8.9 10.400001,2.3 38.900001,-15.1 47.900001,-6.7 9.4,8.9 23.6,32.2 24.3,41 0.7,9.4 -44.1,-3.6 -55.4,4.2 -12,8.3 -8.1,36.599996 -16.700001,32.299996 C -76.700003,95.824221 -98.9,88.724221 -103.2,76.924224 c -3.4,-9.6 17.5,-27.3 17.5,-38.7 z"
       id="path190"
       style="fill:#ffffff;fill-opacity:1" />
    <path
       inkscape:connector-curvature="0"
       class="st0"
       d="m -66.300003,101.22422 c -0.6,0 -1.2,-0.2 -1.8,-0.5 -1.7,-0.9 -3.9,-1.8 -6.5,-2.9 C -84.7,93.424221 -100,86.924224 -103.5,77.224224 c -2,-5.4 3.1,-12.8 8.4,-20.7 4.4,-6.5 9,-13.2 9,-18.3 0,-6.7 0.7,-9.9 2.6,-11.3 1.999997,-1.6 5.199997,-0.7 10.099997,0.5 1.7,0.4 3.5,0.9 5.6,1.4 4.2,0.9 11.600001,-1.5 19.400001,-4.1 11.5,-3.8 23.3,-7.6 28.7,-2.5 9.3,8.8 23.8,32.1 24.4,41.4 0.1,0.9 -0.2,1.6 -0.8,2.2 -2.8,2.7 -12.4,1.9 -23.5,1 -12.1,-1.1 -25.9,-2.2 -31.3,1.5 -5.9,4.1 -7.9,13.5 -9.5,20.999997 -1.2,5.8 -2.2,10.399999 -4.600001,11.599999 -0.5,0.2 -0.9,0.3 -1.3,0.3 z m -14.4,-74.099996 c -1,0 -1.699997,0.2 -2.299997,0.7 -1.5,1.2 -2.2,4.3 -2.2,10.5 0,5.5 -4.7,12.3 -9.2,18.9 -5,7.3 -10.1,14.8 -8.3,19.7 3.4,9.2 18.4,15.699997 28.399997,19.999996 2.6,1.1 4.8,2.1 6.5,2.9 0.9,0.4 1.6,0.5 2.2,0.2 2,-1 3.000001,-5.599999 4.100001,-10.899999 1.6,-7.699997 3.7,-17.299997 9.9,-21.599997 5.7,-3.9 19.6,-2.7 31.9,-1.7 10.4,0.9 20.2,1.8 22.7,-0.7 0.4,-0.4 0.6,-0.9 0.5,-1.5 -0.7,-8.9 -15.2,-32.3 -24.1,-40.7 -5,-4.7 -17.1,-0.8 -27.8,2.7 -7.9,2.6 -15.400001,5.1 -19.900001,4.1 -2.1,-0.5 -4,-1 -5.7,-1.4 -2.7,-0.6 -5,-1.2 -6.7,-1.2 z"
       id="path192"
       style="fill:#ffffff;fill-opacity:1" />
    <path
       inkscape:connector-curvature="0"
       class="st0"
       d="m 14.199998,121.12422 c -17.3,0 -52.6,-55.399996 -49,-69.999996 2.7,-11 17.6,-34.9 25.9,-45.1 7.6,-9.4 39.900001,10.2 48.400001,9.8 8.8,-0.4 39.5,-16 46.3,-5.4 7.7,11.8 -20.1,34.8 -23.1,43.7 -3.2,9.8 9.6,52.599996 -1.7,57.599996 -9.3,4 -35.000001,9.4 -46.800001,9.4 z"
       id="path194"
       style="fill:#ffffff;fill-opacity:1" />
    <path
       inkscape:connector-curvature="0"
       class="st0"
       d="m 14.199998,121.62422 c -8.6,0 -19.8,-12.6 -25.8,-20.1 -13.3,-16.899996 -26,-41.199996 -23.7,-50.499996 2.7,-11 17.4,-34.7 26,-45.3 5.2,-6.4 20.7,-0.2 33.2,4.7 6.800001,2.7 12.700001,5 15.600001,4.9 2.6,-0.1 7.3,-1.6 12.8,-3.4 12.9,-4.2 29.1,-9.4 34,-1.8 5.3,8.2 -5.4,21.1 -14,31.5 -4.3,5.2 -8,9.7 -9,12.6 -1.2,3.6 -0.1,12.2 1.1,21.3 2,15.599997 4.3,33.299996 -3.1,36.499996 -9.8,4.3 -35.700001,9.6 -47.100001,9.6 z m -16.2,-117.699996 c -2.8,0 -5.1,0.7 -6.5,2.4 -8.4,10.3 -23.2,34.2 -25.8,44.9 -1.9,8 9.1,31.2 23.6,49.699996 9.9,12.6 18.9999996,19.8 25,19.8 12.1,0 37.700001,-5.5 46.600001,-9.4 6.7,-2.9 4.4,-20.999999 2.5,-35.499996 -1.2,-9.6 -2.3,-18 -1,-21.8 1,-3.1 4.8,-7.6 9.2,-12.9 8.4,-10.2 18.9,-22.8 14,-30.3 -4.6,-7 -20.9,-1.7 -32.9,2.2 -5.5,1.8 -10.3,3.3 -13,3.5 -3.1,0.1 -9.1,-2.2 -16.000001,-5 -8.8,-3.6 -18.9,-7.6 -25.7,-7.6 z"
       id="path196"
       style="fill:#ffffff;fill-opacity:1" />
    <path
       inkscape:connector-curvature="0"
       class="st0"
       d="m -37.700002,-68.775776 c 17.3,0 -14.7,-6.4 -18.3,8.4 -2.7,11.2 13.8,22.4 5.6,32.6 -7.6,9.4 -4.9,4.3 -13.400001,4.8 -8.8,0.4 15.000001,-4 8.200001,-14.6 -7.6,-11.9 -67.999998,-11.4 -65.099998,-20.5 3.2,-10 34.5,-19.4 45.799997,-24.5 9.3,-4.300004 25.300001,13.8 37.200001,13.8 z"
       id="path198"
       style="fill:#ffffff;fill-opacity:1" />
    <path
       inkscape:connector-curvature="0"
       class="st0"
       d="m -56.700002,-21.575776 c -0.5,0 -1,-0.1 -1.7,-0.3 -1.1,-0.3 -2.6,-0.8 -5.400001,-0.6 -1.8,0.1 -2.4,0 -2.5,-0.5 -0.2,-0.6 0.4,-0.9 2.2,-1.8 2.800001,-1.4 8.000001,-4 9.000001,-7.7 0.4,-1.5 0.1,-3.2 -1,-4.8 -3.8,-5.9 -21.700001,-8.8 -37.599998,-11.3 -13.5,-2.2 -25.2,-4 -27.4,-7.5 -0.4,-0.7 -0.5,-1.3 -0.3,-2.1 2.5,-7.9 21.7,-15.3 35.7,-20.6 4.199997,-1.6 7.799997,-3 10.399997,-4.2 5.3,-2.400004 12.300001,1.8 19.700001,6.3 4.2,2.5 8.5,5.1 12.5,6.5 3.8,-0.6 7.3,-0.4 8.8,-0.2 1.2,0.2 2,0.4 2,1.1 0,0.4 -0.1,1 -5.6,1 -1.7,0 -3.5,-0.4 -5.3,-1 -1.5,0.2 -3.1,0.6 -4.6,1.2 -4.4,1.6 -7.1,4.2 -7.9,7.8 -1.1,4.8 1.4,9.7 3.9,14.4 3.2,6.1 6.4,12.4 1.6,18.4 -3.6,4.7 -5,5.9 -6.5,5.9 z m -6.1,-2 c 2.3,0 3.6,0.4 4.7,0.7 2.1,0.6 2.4,0.7 7.3,-5.3 4.4,-5.4 1.4,-11.2 -1.7,-17.3 -2.5,-4.9 -5.2,-10 -3.9,-15.1 1.4,-5.7 6.5,-8.3 11.7,-9.4 -3.6,-1.5 -7.4,-3.8 -11.1,-6 -7.2,-4.3 -14.000001,-8.400004 -18.800001,-6.3 -2.6,1.2 -6.2,2.6 -10.399997,4.2 -13.8,5.3 -32.7,12.6 -35.1,20 -0.1,0.4 -0.1,0.8 0.2,1.2 1.9,3.1 13.9,5 26.7,7.1 15.999997,2.5 34.199998,5.4 38.199998,11.8 1.2,1.9 1.6,3.8 1.1,5.6 -1.2,4.2 -6.6,6.9 -9.600001,8.4 -0.3,0.1 -0.6,0.3 -0.9,0.4 0.2,0 0.4,0 0.6,0 0.3,0.1 0.700001,0 1.000001,0 z m 22.5,-46 c 0.9,0.2 1.8,0.3 2.6,0.3 1.7,0 2.8,-0.1 3.5,-0.1 -1.3,-0.2 -3.5,-0.4 -6.1,-0.2 z"
       id="path200"
       style="fill:#ffffff;fill-opacity:1" />
    <path
       inkscape:connector-curvature="0"
       class="st0"
       d="m 75.999999,-29.475776 c 0,15.9 -26.9,40.5 -40.5,37.6 -10.500001,-2.3 -19.600001,-27.4 -28.600001,-35.9 -9.4,-8.9 -3.8,-20.6 -4.5,-29.6 -0.7,-9.5 -13.5,-29.600004 -2.2,-37.400004 12,-8.3 17.3,29.400004 25.9,33.700004 8.700001,4.4 48.800001,-20.1 53.100001,-8.3 3.7,9.8 -3.2,28.5 -3.2,39.9 z"
       id="path202"
       style="fill:#ffffff;fill-opacity:1" />
    <path
       inkscape:connector-curvature="0"
       class="st0"
       d="m 37.799999,8.824224 c -0.8,0 -1.6,-0.1 -2.4,-0.2 -6.6,-1.4 -12.500001,-11.2 -18.100001,-20.7 -3.7,-6.2 -7.2,-12 -10.7,-15.3 -6.9,-6.5 -5.9,-14.6 -5.1,-21.7 0.3,-2.9 0.7,-5.6 0.5,-8.2 -0.2,-2.8 -1.5,-6.6 -2.9,-10.6 -3.3,-9.6 -7.3,-21.500004 0.9,-27.200004 1.7,-1.2 3.4,-1.5 5.1,-1.1 5,1.5 8.6,10.3 12.2,18.900004 2.9,7 5.9,14.2 9.1,15.8 3.500001,1.8 13.300001,-1.8 22.800001,-5.2 13.7,-4.9 27.9,-10.1 30.6,-2.8 2.2,6.1 0.5,15.5 -1.2,24.6 -1.1,5.7 -2.1,11.1 -2.1,15.4 0,9.7 -9.4,21.6 -18.7,29.1 -7.2,5.9 -14.5,9.2 -20,9.2 z M 3.699998,-95.37578 c -1,0 -2,0.4 -3.1,1.1 -7.6,5.2 -3.8,16.300004 -0.5,26.100004 1.4,4.1 2.7,8 2.9,10.9 0.2,2.6 -0.1,5.4 -0.5,8.4 -0.9,7.2 -1.7,14.7 4.8,20.9 3.6,3.4 7.1,9.3 10.8,15.5 5.6,9.3 11.400001,19 17.500001,20.3 5.3,1.1 13.4,-2.1 21.6,-8.8 9.1,-7.4 18.3,-19 18.3,-28.3 0,-4.5 1,-9.9 2.1,-15.6 1.7,-8.9 3.4,-18.2 1.3,-24.1 -2.3,-6.3 -16.6,-1.1 -29.3,3.4 -10.1,3.6 -19.7,7.1 -23.600001,5.1 -3.6,-1.8 -6.5,-8.9 -9.6,-16.3 -3.5,-8.300004 -7.0000004,-17.000004 -11.5,-18.300004 -0.4,-0.3 -0.8,-0.3 -1.2,-0.3 z"
       id="path204"
       style="fill:#ffffff;fill-opacity:1" />
    <path
       inkscape:connector-curvature="0"
       class="st0"
       d="m -3.500002,153.22422 c -19.3,0 -15.6,-16.7 -6.4,0.3 8.6,16.1 22.6,31.4 36.2,19.2 15.900001,-14.1 -10.4,-19.5 -29.8,-19.5 z"
       id="path206"
       style="fill:#ffffff;fill-opacity:1" />
    <path
       inkscape:connector-curvature="0"
       class="st0"
       d="m 16.099998,177.72422 c -0.8,0 -1.6,-0.1 -2.4,-0.2 -10.8,-1.9 -19.6,-15.7 -23.9,-23.7 -0.2,-0.4 -0.4,-0.7 -0.6,-1.1 -4.6,-1.5 -6.7,-4.1 -6.9,-5.6 -0.2,-0.9 0.3,-1.5 0.8,-1.6 1.2,-0.4 3.7,1.1 6.8,6.4 1.8,0.5 4.1,0.9 6.8,0.9 11.4999996,0 31.700001,2.1 34.800001,10.1 1.2,3.1 -0.4,6.5 -4.6,10.3 -3.600001,3 -7.100001,4.5 -10.800001,4.5 z m -25.7,-24.6 c 0,0.1 0.1,0.2 0.1,0.3 7.2,13.4 15.6,21.8 23.2,23.2 4.3,0.8 8.4,-0.6 12.2,-4.1 3.900001,-3.5 5.400001,-6.6 4.400001,-9.2 -2.5,-6.5 -19.300001,-9.5 -33.800001,-9.5 -2.3,-0.1 -4.4,-0.3 -6.1,-0.7 z m -7,-6.7 c 0,0 -0.1,0 -0.1,0 -0.2,0.1 -0.1,0.4 -0.1,0.5 0.2,1.1 1.7,3.1 5.1,4.4 -2.6,-4.1 -4.4,-4.9 -4.9,-4.9 z"
       id="path208"
       style="fill:#ffffff;fill-opacity:1" />
    <path
       inkscape:connector-curvature="0"
       class="st0"
       d="m 126.9,-6.275776 c 0,18.9 30,34.4 46,24.4 16.9,-10.5 24.3,-41 11.6,-56.3 -13.3,-16 -57.6,13.1 -57.6,31.9 z"
       id="path210"
       style="fill:#ffffff;fill-opacity:1" />
    <path
       inkscape:connector-curvature="0"
       class="st0"
       d="m 161,21.824224 c -5.8,0 -12.2,-1.7 -18.2,-5 -10.1,-5.6 -16.4,-14.4 -16.4,-23 0,-12.6 18.4,-28.7 34.9,-34.7 10.7,-3.9 19.1,-3 23.6,2.5 5.5,6.7 7.7,16.8 5.9,27.7 -2,12.6 -8.8,23.8 -17.6,29.3 -3.4,2.1 -7.6,3.2 -12.2,3.2 z m 12.3,-64.1 c -4.3,0 -8.6,1.2 -11.6,2.3 -15.8,5.7 -34.2,21.7 -34.2,33.7 0,8.2 6.1,16.7 15.9,22.1 10.4,5.8 21.9,6.5 29.4,1.9 8.6,-5.4 15.2,-16.3 17.2,-28.7 1.7,-10.7 -0.4,-20.5 -5.7,-26.9 -2.9,-3.3 -6.9,-4.4 -11,-4.4 z"
       id="path212"
       style="fill:#ffffff;fill-opacity:1" />
    <path
       inkscape:connector-curvature="0"
       class="st0"
       d="m -3.800002,-122.17578 c 19.4,0 29.8,-22.2 20.6,-39.4 -8.7000004,-16.2 -36.5,-23.5 -50.1,-11.3 -15.9,14.3 10,50.7 29.5,50.7 z"
       id="path214"
       style="fill:#ffffff;fill-opacity:1" />
    <path
       inkscape:connector-curvature="0"
       class="st0"
       d="m -3.800002,-121.67578 c -12.8,0 -27.6,-15.2 -32.8,-28.8 -3.7,-9.7 -2.6,-17.7 2.9,-22.7 6,-5.3 15.1,-7.4 25,-5.6 11.4,2 21.4,8.5 25.9,17 4.8,8.9 4.6,19.8 -0.5,28.3 -4.5,7.5 -12,11.8 -20.5,11.8 z m -11.7,-56.8 c -7,0 -13.1,2.1 -17.5,6 -5.3,4.7 -6.2,12.4 -2.7,21.6 5.1,13.3 19.4,28.1 31.8,28.1 8.2,0 15.4,-4.1 19.7,-11.3 4.9,-8.2 5.1,-18.7 0.5,-27.3 -4.4,-8.2 -14.1,-14.5 -25.2,-16.5 -2.2,-0.4 -4.4,-0.6 -6.6,-0.6 z"
       id="path216"
       style="fill:#ffffff;fill-opacity:1" />
    <path
       inkscape:connector-curvature="0"
       class="st0"
       d="m -150.6,107.22422 c 0,-19.499999 -7.6,3.5 9.1,7.1 12.9,2.8 48.4,-32.799996 59.4,-22.499999 11.499997,10.899999 11.599997,37.199999 12.499997,48.099999 0.9,11.5 -0.8,41 -14.699997,50.5 -14.8,10.1 -55.8,25.6 -66.4,20.4 -10.8,-5.3 13.1,-55.3 7.8,-69.8 -4.5,-11.8 -7.7,-19.7 -7.7,-33.8 z"
       id="path218"
       style="fill:#ffffff;fill-opacity:1" />
    <path
       inkscape:connector-curvature="0"
       class="st0"
       d="m -144.7,212.52422 c -2.6,0 -4.7,-0.3 -6.3,-1.1 -6.1,-3 -2,-18.6 2.4,-35.2 3.7,-13.9 7.5,-28.3 5.1,-34.9 l -0.7,-1.9 c -4,-10.7 -6.9,-18.5 -7,-31.3 -1.6,-2.8 -1.9,-5.8 -1.6,-7.6 0.2,-1.3 0.7,-1.5 1,-1.5 1.1,0.1 1.6,2.9 1.6,8.3 0,0.2 0,0.4 0,0.5 1.4,2.4 3.9,5.1 8.7,6.1 5.5,1.2 15.9,-5.2 26,-11.5 13.4,-8.299999 27.2,-16.899996 33.599997,-10.799999 10.3,9.699999 11.6,31.199999 12.3,43.999999 0.1,1.7 0.2,3.2 0.3,4.5 0.8,10 -0.3,41 -14.899997,51 -12,8.2 -44.5,21.4 -60.5,21.4 z m -5.4,-102.8 c 0.3,11.7 3.1,19.3 6.9,29.4 l 0.7,1.9 c 2.5,6.9 -1.3,21.4 -5.1,35.5 -4.1,15.4 -8.4,31.4 -2.9,34 10.5,5.2 51.8,-10.7 65.9,-20.3 14.199997,-9.7 15.199997,-40.2 14.499997,-50.1 -0.1,-1.3 -0.2,-2.8 -0.3,-4.5 -0.7,-12.7 -2,-33.8 -11.999997,-43.299999 -5.8,-5.499997 -19.4,2.9 -32.4,10.999999 -10.7,6.6 -20.8,12.9 -26.7,11.6 -4.1,-0.9 -6.9,-2.9 -8.6,-5.2 z m -1.6,-9.4 c -0.2,0.8 -0.2,2.8 0.6,5.1 0,0 0,0.1 0,0.1 -0.1,-2.9 -0.4,-4.5 -0.6,-5.2 z"
       id="path220"
       style="fill:#ffffff;fill-opacity:1" />
    <path
       inkscape:connector-curvature="0"
       class="st0"
       d="m -95.1,-180.17578 c 15.899997,0 30.099997,37.5 27.199997,51 -2.2,10.4 -42.799997,-1.1 -50.799997,8 -8,9.1 8.4,61.400004 -0.2,61.900004 -9,0.4 -47.9,-10.9 -54.9,-21.4 -7.7,-11.400004 25.8,-38.700004 29.4,-47.100004 3.8,-8.8 6.9,-18.2 18.1,-22.6 9.2,-3.8 20.1,-29.8 31.2,-29.8 z"
       id="path222"
       style="fill:#ffffff;fill-opacity:1" />
    <path
       inkscape:connector-curvature="0"
       class="st0"
       d="m -119.4,-58.775776 c -10,0 -47.9,-11.4 -54.8,-21.7 -5.4,-8.100004 8.1,-22.900004 19,-34.900004 4.9,-5.4 9.2,-10.1 10.3,-12.7 0.3,-0.7 0.6,-1.3 0.9,-2 3.4,-8.2 7,-16.7 17.5,-20.9 3.9,-1.5 8.1,-7.2 12.6,-13.3 6,-8.1 12.3,-16.5 18.8,-16.5 4.5,0 9.2,2.9 13.599997,8.4 9.2,11.3 16.3,33.1 14.1,43.3 -1.2,5.7 -12.6,5.3 -24.599997,4.8 -11.1,-0.4 -22.6,-0.9 -26.4,3.4 -3.9,4.4 -1.6,20.4 0.4,34.5 1.8,12.600004 3.4,23.600004 0.8,26.600004 -0.5,0.6 -1,0.9 -1.7,0.9 -0.1,0.1 -0.3,0.1 -0.5,0.1 z m 24.3,-120.900004 c -6,0 -12.1,8.2 -18,16.1 -4.6,6.2 -8.9,12 -13,13.6 -10.1,4 -13.6,12.3 -16.9,20.3 -0.3,0.7 -0.6,1.4 -0.9,2 -1.2,2.8 -5.5,7.5 -10.5,13 -10.1,11.1 -23.9,26.2 -18.9,33.700004 6.9,10.3 45.5,21.7 54.5,21.2 0.4,0 0.7,-0.2 1,-0.5 2.2,-2.7 0.6,-14.5 -1.1,-25.800004 -2.1,-15 -4.3,-30.5 -0.1,-35.3 4.1,-4.6 15.8,-4.2 27.1,-3.8 11.099997,0.4 22.499997,0.9 23.599997,-4.1 1.9,-9 -4.1,-30.3 -13.899997,-42.4 -4.3,-5.3 -8.7,-8 -12.9,-8 z"
       id="path224"
       style="fill:#ffffff;fill-opacity:1" />
    <path
       inkscape:connector-curvature="0"
       class="st0"
       d="m 190.3,-112.17578 c 0,16.9 -49.9,29.400004 -64.6,26.4 -11.5,-2.3 -11.3,-28.5 -20.7,-37.9 -10.400001,-10.4 -56.900001,-7.3 -57.500001,-17.2 -0.7,-10.5 14,-50.4 26.7,-59.3 13.3,-9.4 34.300001,36.1 43.600001,41.3 9.2,5.1 25.1,-1.9 29.6,11.3 3.7,10.9 42.9,23 42.9,35.4 z"
       id="path226"
       style="fill:#ffffff;fill-opacity:1" />
    <path
       inkscape:connector-curvature="0"
       class="st0"
       d="m 130.9,-84.77578 c -2.1,0 -3.9,-0.1 -5.3,-0.4 -6.8,-1.4 -9.5,-10.3 -12.5,-19.7 -2.2,-7 -4.5,-14.3 -8.5,-18.3 -5.000001,-5 -18.900001,-6.9 -31.200001,-8.5 -14,-1.9 -26.1,-3.5 -26.4,-9 -0.7,-10.4 14.1,-50.8 26.9,-59.8 1.7,-1.2 3.5,-1.6 5.6,-1.2 8.1,1.4 17.4,14.8 25.600001,26.6 5.1,7.3 9.9,14.2 13,16 3.4,1.9 7.8,2.1 12,2.3 7.3,0.4 14.9,0.7 17.8,9.3 1.6,4.8 10.9,10.1 19.9,15.3 11.3,6.5 23,13.3 23,20.3 0,3.6 -2.1,7.2 -6.4,10.7 -12.1,9.7 -39.2,16.4 -53.5,16.4 z m -52.900001,-116.2 c -1.3,0 -2.5,0.4 -3.6,1.2 -12.6,8.9 -27.2,48.6 -26.5,58.9 0.3,4.7 13.2,6.4 25.6,8.1 13.1,1.8 26.600001,3.6 31.800001,8.8 4.2,4.2 6.5,11.6 8.7,18.7 2.9,9.2 5.6,17.8 11.7,19 11.3,2.300004 44.3,-4.8 58,-16 4,-3.3 6,-6.6 6,-9.9 0,-6.5 -11.5,-13.1 -22.5,-19.5 -9.6,-5.5 -18.6,-10.7 -20.3,-15.8 -2.7,-7.9 -9.6,-8.2 -16.9,-8.6 -4.4,-0.2 -8.9,-0.4 -12.5,-2.4 -3.3,-1.9 -8,-8.5 -13.4,-16.3 -7.700001,-11 -17.200001,-24.8 -24.900001,-26.1 -0.4,0 -0.8,-0.1 -1.2,-0.1 z"
       id="path228"
       style="fill:#ffffff;fill-opacity:1" />
    <path
       inkscape:connector-curvature="0"
       class="st0"
       d="m 87.799999,132.12422 c -19.9,0 -4.9,24.6 -0.9,7.6 3.1,-12.9 11.4,-16.1 20.900001,-27.8 8.7,-10.8 -3,-68.699996 6.9,-69.299996 10.3,-0.6 28.2,37 36,49.199997 8.8,13.699999 -4.2,26.799999 -7.7,37.299999 -3.8,11.4 1.1,36.1 -11.9,42 -10.8,4.9 -29.6,-39 -43.300001,-39 z"
       id="path230"
       style="fill:#ffffff;fill-opacity:1" />
    <path
       inkscape:connector-curvature="0"
       class="st0"
       d="m 129.3,172.02422 c -5.5,0 -12.4,-9.1 -19.5,-18.7 -6.8,-9.1 -13.800001,-18.4 -19.800001,-20.3 -1,2 -1.9,4.2 -2.5,6.8 -1.5,6.3 -4.3,6.5 -5.5,6.3 -2.7,-0.4 -4.9,-4.1 -4.7,-7.6 0.2,-2.1 1.5,-6.9 10.6,-6.9 0.5,0 1.1,0.1 1.6,0.2 2.3,-4.1 5.5,-7.2 9.1,-10.8 2.700001,-2.6 5.700001,-5.6 8.900001,-9.4 4.2,-5.1 3.5,-22.199999 2.9,-37.199996 -0.7,-17.1 -1.2,-31.9 4.3,-32.3 0.1,0 0.2,0 0.3,0 8.2,0 20.5,21.8 29.4,37.7 2.7,4.8 5,8.899997 6.8,11.699997 6.6,10.299999 1.3,20.099999 -3.4,28.799999 -1.7,3.1 -3.3,6.1 -4.2,8.9 -1.2,3.7 -1.5,8.9 -1.9,14.5 -0.6,11.2 -1.4,23.8 -10.3,27.9 -0.7,0.2 -1.4,0.4 -2.1,0.4 z m -38.900001,-39.9 c 6.3,2.1 13.300001,11.5 20.100001,20.6 7.5,10 15.2,20.3 20.3,18 8.4,-3.8 9.1,-16.1 9.7,-27 0.3,-5.6 0.6,-10.9 1.9,-14.7 0.9,-2.8 2.6,-5.9 4.3,-9 4.6,-8.5 9.7,-18 3.5,-27.799999 -1.8,-2.8 -4.1,-6.999997 -6.8,-11.799997 -8.4,-15 -21.1,-37.6 -28.8,-37.2 -4.5,0.3 -3.9,16 -3.3,31.2 0.6,15.999997 1.2,32.499996 -3.2,37.899996 -3.2,3.9 -6.2,6.9 -8.900001,9.5 -3.5,3.3 -6.5,6.3 -8.8,10.3 z m -2.6,0.5 c -5.8,0 -9.3,2.2 -9.6,6 -0.2,2.9 1.7,6.2 3.8,6.5 1.9,0.3 3.5,-1.7 4.4,-5.6 0.6,-2.6 1.5,-4.9 2.5,-6.8 -0.3,-0.1 -0.7,-0.1 -1.1,-0.1 z"
       id="path232"
       style="fill:#ffffff;fill-opacity:1" />
    <path
       inkscape:connector-curvature="0"
       class="st0"
       d="m -178.4,-57.075776 c 12.6,0 -21.3,-16.1 -23.9,-5.4 -2,8.1 23.9,21.4 17.8,28.7 -11.7,14.1 -21.5,21 -31.5,5.6 -8.9,-13.8 -28.7,-52.2 -20.1,-60.000004 7.8,-6.9 44.1,31.100004 57.7,31.100004 z"
       id="path234"
       style="fill:#ffffff;fill-opacity:1" />
    <path
       inkscape:connector-curvature="0"
       class="st0"
       d="m -204,-18.875776 c -0.2,0 -0.4,0 -0.6,0 -4.2,-0.2 -8.1,-3.2 -11.9,-9 -8.2,-12.7 -29.2,-52.3 -20,-60.600004 4.4,-4 16.5,4.900004 29.4,14.400004 3.5,2.6 7,5.1 10.3,7.5 1.3,-0.1 2.8,0 4.5,0.3 7.1,1.1 17.3,5.7 17.1,8.3 -0.1,1.4 -2.5,1.4 -3.3,1.4 -4.5,0 -11.2,-3.9 -18.6,-9 -2.3,0.2 -4.3,1 -4.9,3.2 -0.8,3.5 4.3,8.4 9.2,13.1 5.9,5.7 12.1,11.6 8.5,15.9 -5.8,7.2 -12.8,14.5 -19.7,14.5 z m -29.5,-69.600004 c -0.9,0 -1.7,0.2 -2.2,0.7 -8.2,7.500004 10.8,45.000004 20.1,59.400004 3.6,5.5 7.2,8.3 11.1,8.5 6.6,0.4 13.7,-7 19.6,-14.2 3,-3.6 -2.8,-9.1 -8.5,-14.5 -5.4,-5.1 -10.4,-10 -9.5,-14 0.5,-2.1 2.1,-3.4 4.6,-3.8 -3.1,-2.2 -6.3,-4.5 -9.5,-6.9 -10,-7.5 -20.5,-15.200004 -25.7,-15.200004 z m 38.2,22.900004 c 6.8,4.6 12.9,8 16.9,8 1.9,0 2.3,-0.4 2.3,-0.5 0.1,-1.4 -8.1,-6 -16.2,-7.3 -0.9,-0.1 -1.9,-0.2 -3,-0.2 z"
       id="path236"
       style="fill:#ffffff;fill-opacity:1" />
    <path
       inkscape:connector-curvature="0"
       class="st0"
       d="m -26.300002,-265.27578 c 12.6,0 31.1,39.9 28.7,50.7 -1.8,8.2 -44.4,-4.1 -50.5,3.3 -11.7,14.1 -6.3,34.4 -16.300001,19 -8.9,-13.7 10.200001,-9.6 19.000001,-17.4 7.7,-7.2 5.4,-55.6 19.1,-55.6 z"
       id="path238"
       style="fill:#ffffff;fill-opacity:1" />
    <path
       inkscape:connector-curvature="0"
       class="st0"
       d="m -59.300002,-186.37578 c -1.3,0 -2.9,-1.7 -5.600001,-5.8 -2.2,-3.3 -2.8,-5.9 -2.1,-7.8 1.1,-2.8 5.000001,-3.9 9.400001,-5.1 1.9,-0.5 3.8,-1.1 5.7,-1.8 0.9,-1.7 2,-3.3 3.3,-4.9 0.9,-1.1 2.7,-1.8 4.9,-2.2 1.7,-4.5 2.8,-11.9 4,-19.6 2.4,-15.9 4.9,-32.3 13.3,-32.3 3.5,0 7.5,2.8 12,8.3 9.8,12.2 19,35.1 17.3,43 -1,4.6 -11.9,3.5 -24.6,2.3 -7.6,-0.7 -15.9,-1.6 -21.2,-0.8 -0.6,1.6 -1.4,2.8 -2.2,3.6 -1.7,1.5 -3.8,2.6 -6,3.5 -2.5,4.6 -3.8,9.4 -4.7,13.1 -1,3.9 -1.6,6.2 -3.2,6.5 -0.1,0 -0.2,0 -0.3,0 z m 6.8,-19.1 c -1.6,0.5 -3.2,1 -4.8,1.4 -4.2,1.2 -7.900001,2.2 -8.800001,4.5 -0.6,1.6 0,3.9 2,6.9 2.400001,3.6 4.000001,5.4 4.800001,5.3 0.9,-0.1 1.6,-2.7 2.4,-5.8 0.9,-3.3 2.1,-7.8 4.4,-12.3 z m 8.4,-7.3 c -1.7,0.4 -3,0.9 -3.7,1.8 -1,1.2 -1.8,2.4 -2.6,3.6 1.7,-0.7 3.2,-1.6 4.5,-2.8 0.7,-0.6 1.3,-1.5 1.8,-2.6 z m 6.4,-1.5 c 4.8,0 10.5,0.6 16.1,1.1 11.2,1.1 22.7,2.2 23.5,-1.5 1.7,-7.7 -7.4,-30.1 -17.1,-42.1 -4.2,-5.2 -8,-7.9 -11.2,-7.9 -7.6,0 -10.1,16.7 -12.3,31.4 -1.1,7.4 -2.2,14.6 -3.9,19.3 1.5,-0.3 3.1,-0.3 4.9,-0.3 z"
       id="path240"
       style="fill:#ffffff;fill-opacity:1" />
    <path
       inkscape:connector-curvature="0"
       class="st0"
       d="m -118.7,6.924224 c 0,-18.7 -10.2,-19.2 -26.1,-9.3 -16.8,10.5 -30.9,23.5 -18.3,38.8 13.1,15.8 44.4,-10.8 44.4,-29.5 z"
       id="path242"
       style="fill:#ffffff;fill-opacity:1" />
    <path
       inkscape:connector-curvature="0"
       class="st0"
       d="m -152.6,41.724224 c -4.4,0 -8.1,-1.7 -10.8,-5 -4,-4.8 -5.6,-9.7 -4.8,-14.6 1.3,-8 8.7,-15.9 23.1,-24.9 9.8,-6.1 16.8,-7.9 21.3,-5.4 3.7,2.1 5.6,7.2 5.6,15.1 0,12.2 -13.2,28.4 -27.1,33.4 -2.6,0.9 -5.1,1.4 -7.3,1.4 z m 24.2,-50 c -4,0 -9.5,2.1 -16.2,6.3 -14.2,8.9 -21.4,16.5 -22.7,24.2 -0.8,4.6 0.8,9.3 4.5,13.8 5,6 12,5.1 17,3.3 13.4,-4.8 26.5,-20.9 26.5,-32.5 0,-7.6 -1.7,-12.4 -5.1,-14.2 -1,-0.6 -2.4,-0.9 -4,-0.9 z"
       id="path244"
       style="fill:#ffffff;fill-opacity:1" />
    <path
       inkscape:connector-curvature="0"
       class="st0"
       d="m -219.1,43.524224 c -0.5,-20.6 4.1,0.4 19.2,14.3 14.6,13.4 21.5,-0.2 5.5,11.4 -13.4,9.7 -31,30.499996 -38.4,20.599997 -6.2,-8.299997 14,-33.199997 13.7,-46.299997 z"
       id="path246"
       style="fill:#ffffff;fill-opacity:1" />
    <path
       inkscape:connector-curvature="0"
       class="st0"
       d="m -227.7,93.024221 c -0.3,0 -0.5,0 -0.8,0 -1.9,-0.2 -3.4,-1.1 -4.7,-2.8 -3.7,-4.899997 1,-14.599997 6,-24.899997 3.8,-7.9 7.7,-16 7.6,-21.7 l 0,0 c -0.2,-7.3 0.3,-8.8 1.3,-9.1 1.2,-0.4 2.3,1.4 5.1,5.7 3,4.6 7.4,11.6 13.7,17.3 7.2,6.6 12.2,6.5 13.7,6.3 0.5,-0.2 0.9,-0.2 1.1,0 l 0.3,0.4 -0.3,0.3 c -0.1,0.1 -0.4,0.2 -0.9,0.3 -1.1,0.4 -3.9,1.7 -8.4,5 -3.4,2.5 -7.1,5.7 -10.7,8.8 -8.3,7 -16.8,14.399997 -23,14.399997 z m 9.1,-49.499997 c 0.1,5.9 -3.8,14.2 -7.7,22.2 -4.6,9.6 -9.4,19.5 -6.1,23.899997 1.1,1.4 2.4,2.2 4,2.4 5.8,0.6 14.5,-6.899997 22.9,-14.199997 3.6,-3.1 7.4,-6.4 10.8,-8.9 2.5,-1.8 4.8,-3.2 6.5,-4.2 -2.7,-0.3 -7,-1.8 -12.1,-6.5 -6.3,-5.8 -10.8,-12.8 -13.8,-17.5 -1.6,-2.5 -3.4,-5.3 -4,-5.3 0,0 0,0 0,0 -0.2,0.2 -0.6,1.4 -0.5,8.1 z"
       id="path248"
       style="fill:#ffffff;fill-opacity:1" />
    <path
       inkscape:connector-curvature="0"
       class="st0"
       d="m -100.6,197.22422 c -0.5,-20.6 22.299997,12.3 37.499998,26.2 14.6,13.4 52.5,14 36.5,25.6 -13.4,9.7 -43.500001,-0.8 -51.000001,-10.9 -6.299997,-8.6 -22.699997,-27.9 -22.999997,-40.9 z"
       id="path250"
       style="fill:#ffffff;fill-opacity:1" />
    <path
       inkscape:connector-curvature="0"
       class="st0"
       d="m -40.900002,253.52422 c -14.5,0 -31.700001,-7.9 -37.000001,-15.1 -0.8,-1.1 -1.8,-2.4 -3,-3.9 -7.399997,-9.7 -19.899997,-25.8 -20.099997,-37.3 l 0,0 c -0.1,-4 0.7,-6.2 2.3,-6.9 4.2,-1.7 12.6,7.7 22.399997,18.5 4.6,5.1 9.5,10.5 13.600001,14.3 6,5.5 15.8,8.8 24.5,11.6 8.6,2.9 15.5,5.1 16,8.8 0.3,1.8 -1,3.8 -4,6 -4,2.8 -9.2,4 -14.7,4 z M -97.6,191.12422 c -0.3,0 -0.5,0 -0.7,0.1 -1.2,0.5 -1.8,2.5 -1.7,5.9 l 0,0 c 0.3,11.2 12.6,27.2 19.899997,36.8 1.1,1.5 2.1,2.8 3,3.9 7,9.4 37.000001,20.6 50.300001,10.8 2.6,-1.9 3.9,-3.6 3.6,-5 -0.5,-3.1 -7.4,-5.4 -15.3,-8 -8.8,-2.9 -18.7,-6.2 -24.9,-11.9 -4.200001,-3.9 -9.000001,-9.2 -13.700001,-14.4 -8.199997,-8.9 -16.599997,-18.2 -20.499997,-18.2 z"
       id="path252"
       style="fill:#ffffff;fill-opacity:1" />
    <path
       inkscape:connector-curvature="0"
       class="st0"
       d="m 32.999999,238.02422 c -12.600001,0.1 -46.900001,-20.1 -44.500001,-31 1.8,-8.3 32,-15.9 38,-23.3 11.600001,-14.3 4.300001,7.9 14.400001,23.2 9,13.7 49,21.5 40.3,29.6 -7.9,7.4 -34.6,1.3 -48.2,1.5 z"
       id="path254"
       style="fill:#ffffff;fill-opacity:1" />
    <path
       inkscape:connector-curvature="0"
       class="st0"
       d="m 65.799999,240.72422 c -5.7,0 -12,-0.6 -18,-1.2 -5.6,-0.5 -10.8,-1.1 -14.9,-1 l 0,0 c 0,0 -0.1,0 -0.1,0 -10.300001,0 -33.200001,-12.5 -41.600001,-22.8 -2.7,-3.4 -3.9,-6.3 -3.3,-8.7 1,-4.9 11,-9.3 20.5999996,-13.6 7.3000004,-3.3 14.9000004,-6.7 17.5000004,-9.9 3.000001,-3.7 4.800001,-5.1 6.200001,-4.7 1.7,0.5 2.1,3.4 2.8,7.9 0.8,5.7 1.9,13.5 6.2,20.1 4.2,6.3 15.1,11.4 24.8,15.9 9.1,4.2 16.2,7.5 16.8,11.2 0.2,1.1 -0.3,2.2 -1.4,3.2 -3,2.7 -8.8,3.6 -15.6,3.6 z m -32.3,-3.2 c 4,0 9.1,0.5 14.5,1 12.9,1.3 27.5,2.7 32.9,-2.3 0.8,-0.8 1.2,-1.5 1.1,-2.3 -0.5,-3.1 -8.1,-6.7 -16.2,-10.4 -9.8,-4.5 -20.9,-9.7 -25.2,-16.3 -4.4,-6.7 -5.6,-14.7 -6.4,-20.5 -0.5,-3.6 -1,-6.8 -2,-7.1 -0.9,-0.2 -2.6,1.2 -5.2,4.4 -2.800001,3.4 -10.100001,6.7 -17.9000014,10.2 -9.3999996,4.2 -19.0999996,8.6 -19.9999996,12.9 -0.5,2.1 0.6,4.8 3.1,7.9 8.3,10.2 30.9,22.5 40.900001,22.5 0,0 0.2,0 0.4,0 z"
       id="path256"
       style="fill:#ffffff;fill-opacity:1" />
    <path
       inkscape:connector-curvature="0"
       class="st0"
       d="m 173.5,65.424224 c -12.6,0.1 -17,-0.6 -14.6,-11.4 1.8,-8.2 29.4,0 35.5,-7.5 11.6,-14.3 0.2,-29.4 10.3,-14.1 9.1,13.7 -11.5,-2.9 -20.1,5 -7.7,7.1 2.6,27.8 -11.1,28 z"
       id="path258"
       style="fill:#ffffff;fill-opacity:1" />
    <path
       inkscape:connector-curvature="0"
       class="st0"
       d="m 171.3,65.924224 c -6,0 -10.2,-0.4 -12.2,-2.8 -1.5,-1.8 -1.7,-4.7 -0.7,-9.2 1,-4.6 8.9,-4.5 17.2,-4.4 1.7,0 3.5,0 5.2,0 0,-4.8 0.4,-9.6 3.4,-12.4 3.8,-3.6 9.8,-2.5 14.7,-1.1 0.8,-3.5 0.6,-6.5 0.6,-8.2 -0.1,-1.5 -0.1,-2 0.5,-2.2 0.6,-0.2 0.9,0.3 3.3,3.9 0.5,0.8 1.1,1.6 1.8,2.7 2.1,3.2 2.7,4.9 2.1,5.8 -0.8,1.1 -3,0.5 -6.4,-0.5 -0.4,-0.1 -0.7,-0.2 -1.1,-0.3 -0.8,3 -2.3,6.3 -4.9,9.6 -2.3,2.8 -7.3,3.5 -13,3.6 0,0.3 0,0.6 0,1 0,7.1 0,14.4 -8.3,14.5 l 0,0 c -0.7,0 -1.5,0 -2.2,0 z m 0.7,-15.5 c -6.5,0 -11.9,0.4 -12.6,3.7 -0.9,4.3 -0.8,6.8 0.5,8.4 1.9,2.4 6.9,2.5 13.7,2.4 l 0,0 c 7.3,-0.1 7.3,-6.3 7.3,-13.5 0,-0.3 0,-0.6 0,-0.9 -1.7,0 -3.5,0 -5.2,0 -1.3,-0.1 -2.5,-0.1 -3.7,-0.1 z m 19.2,-14.7 c -2.4,0 -4.6,0.5 -6.3,2.1 -2.8,2.5 -3.1,7 -3.1,11.7 5.4,-0.1 10.2,-0.8 12.2,-3.3 2.6,-3.2 4,-6.4 4.7,-9.3 -2.3,-0.7 -5,-1.2 -7.5,-1.2 z m 8.8,0.5 c 0.4,0.1 0.8,0.2 1.2,0.3 2.3,0.6 4.9,1.4 5.3,0.8 0.2,-0.2 0.3,-1.1 -2.1,-4.7 -0.7,-1 -1.3,-1.9 -1.8,-2.7 -0.9,-1.3 -1.5,-2.4 -2,-3 0,0.2 0,0.4 0,0.7 0,1.9 0.2,4.9 -0.6,8.6 z"
       id="path260"
       style="fill:#ffffff;fill-opacity:1" />
    <path
       inkscape:connector-curvature="0"
       class="st0"
       d="m 228.1,-58.375776 c 0,20.6 -46.6,18.2 -61.4,3.9 -14.2,-13.8 0.8,-13.4 17.1,-24.6 13.6,-9.400004 -5.7,-12.700004 1.5,-2.4 6.2,8.8 42.8,10 42.8,23.1 z"
       id="path262"
       style="fill:#ffffff;fill-opacity:1" />
    <path
       inkscape:connector-curvature="0"
       class="st0"
       d="m 201.9,-42.775776 c -13.4,0 -28.3,-4.2 -35.5,-11.3 -4.4,-4.2 -6.2,-7.3 -5.8,-9.9 0.5,-3.4 4.7,-5.5 10.4,-8.3 3.8,-1.9 8.1,-4.1 12.6,-7.2 0.6,-0.4 1.2,-0.9 1.7,-1.3 -0.1,-0.1 -0.2,-0.3 -0.3,-0.4 -2.2,-3.200004 -1.9,-5.000004 -1.3,-5.900004 0.6,-0.9 1.8,-1.4 3.1,-1.2 1.3,0.2 2.3,1.1 2.6,2.3 0.3,1.2 -0.1,2.900004 -2.6,5.300004 3.2,2.9 10.3,5 17.7,7.2 11.9,3.5 24.2,7.1 24.2,15 l -0.5,0 0.5,0 c 0,5.6 -3.4,10 -9.7,12.7 -4.8,2 -10.8,3 -17.1,3 z m -16,-37.2 c -0.5,0.4 -1.1,0.9 -1.8,1.3 -4.5,3.1 -9.1,5.4 -12.7,7.2 -5.5,2.8 -9.4,4.7 -9.9,7.6 -0.3,2.2 1.4,5.1 5.5,9 10.3,9.9 37.2,14.2 51.4,8.1 4.1,-1.8 9.1,-5.2 9.1,-11.7 0,-7.2 -11.9,-10.7 -23.4,-14.1 -7.6,-2.1 -14.8,-4.3 -18.2,-7.4 z m 0.2,-7.300004 c -0.7,0 -1.3,0.3 -1.6,0.8 -0.6,1 -0.1,2.700004 1.3,4.800004 0.1,0.1 0.2,0.2 0.3,0.3 2.4,-2.2 2.5,-3.700004 2.3,-4.300004 -0.2,-0.9 -1.1,-1.4 -1.8,-1.6 -0.2,0 -0.4,0 -0.5,0 z"
       id="path264"
       style="fill:#ffffff;fill-opacity:1" />
    <path
       inkscape:connector-curvature="0"
       class="st0"
       d="m 49.299999,-192.17578 c 0,20.6 22.5,-12.7 7.7,-27 -14.2,-13.8 -36.400001,7 -20.1,-4.3 13.5,-9.5 34.7,-24.7 41.7,-14.3 6,8.6 -29.3,32.6 -29.3,45.6 z"
       id="path266"
       style="fill:#ffffff;fill-opacity:1" />
    <path
       inkscape:connector-curvature="0"
       class="st0"
       d="m 51.999999,-185.07578 c -0.2,0 -0.4,0 -0.6,-0.1 -1.8,-0.5 -2.6,-2.8 -2.6,-7 l 0,0 c 0,-5.4 5.6,-12.3 12.1,-19.4 -0.7,-2.7 -2,-5.1 -4.2,-7.2 -7.8,-7.5 -17.6,-4.5 -22.4,-2.3 -3.1,2 -3.3,1.8 -3.5,1.5 0,0 -0.3,-0.4 0.1,-0.8 0.3,-0.3 1.4,-1 3.1,-1.7 0.7,-0.5 1.6,-1 2.6,-1.8 l 1.1,-0.8 c 11.2,-7.9 26.6,-18.7 35.9,-17 2.3,0.4 4.1,1.6 5.4,3.5 3.3,4.8 -4.8,13.5 -13.4,22.8 -1.2,1.3 -2.5,2.7 -3.7,4 1.6,6.6 -0.2,14.3 -3.5,20.2 -2,3.8 -4.4,6.1 -6.4,6.1 z m -2.2,-7.1 c 0,3.5 0.7,5.7 1.9,6 1.5,0.4 3.9,-1.8 6,-5.5 2.6,-4.6 4.8,-12.1 3.5,-18.7 -6.1,6.8 -11.4,13.3 -11.4,18.2 l 0,0 z m -5,-32.3 c 4.2,0 8.7,1.2 12.6,5 2.1,2 3.5,4.4 4.3,7 1.1,-1.2 2.2,-2.4 3.3,-3.5 7.9,-8.5 16.1,-17.4 13.3,-21.5 -1.2,-1.7 -2.7,-2.7 -4.8,-3.1 -8.9,-1.6 -24.1,9 -35.2,16.8 l -0.4,0.3 c 2,-0.6 4.4,-1 6.9,-1 z"
       id="path268"
       style="fill:#ffffff;fill-opacity:1" />
    <path
       inkscape:connector-curvature="0"
       class="st0"
       d="m -29.700002,272.62422 c 17.3,0 9.3,-29.3 -1.7,-16.1 -13.9,16.8 8.7,14.6 -9.2,2.1 -15.6,-10.7 -6.8,14 10.9,14 z"
       id="path270"
       style="fill:#ffffff;fill-opacity:1" />
    <path
       inkscape:connector-curvature="0"
       class="st0"
       d="m -29.600002,273.12422 c -0.1,0 -0.1,0 0,0 -10.1,0 -17.4,-7.8 -19.1,-13 -0.7,-2 -0.5,-3.5 0.5,-4.2 1.4,-1.1 4.2,-0.2 7.9,2.4 2,1.4 3.5,2.7 4.6,3.8 0.7,-1.6 2,-3.5 3.9,-5.8 3.7,-4.4 6.7,-3.8 8.2,-3.1 3.4,1.7 5.3,7.4 4.1,12.4 -1.1,4.8 -4.8,7.5 -10.1,7.5 z m -17.1,-16.6 c -0.5,0 -0.8,0.1 -1,0.2 -0.6,0.4 -0.7,1.6 -0.2,3.1 1.7,5.2 9,12.3 18.2,12.3 l 0,0 c 0,0 0,0 0,0 6.6,0 8.6,-4.3 9.2,-6.8 1.1,-4.5 -0.6,-9.7 -3.6,-11.2 -2.1,-1.1 -4.5,-0.1 -7,2.9 -1.9,2.3 -3.2,4.3 -3.9,6 2.2,2.5 2.2,4.1 2,4.9 -0.2,0.7 -0.7,1.3 -1.4,1.3 -0.8,0.1 -1.5,-0.3 -2,-1.1 -0.4,-0.7 -0.8,-2.2 0.2,-4.9 -1.1,-1.2 -2.7,-2.5 -4.8,-4 -3,-2.2 -4.8,-2.7 -5.7,-2.7 z m 11.3,7.5 c -0.5,1.6 -0.5,2.8 -0.1,3.5 0.3,0.5 0.7,0.7 1,0.6 0.3,0 0.5,-0.3 0.6,-0.6 0.2,-0.7 -0.2,-1.9 -1.5,-3.5 z"
       id="path272"
       style="fill:#ffffff;fill-opacity:1" />
    <path
       inkscape:connector-curvature="0"
       class="st0"
       d="m 24.699998,249.82422 c 17.000001,0.1 52.000001,28.2 41.400001,41.5 -13.1,16.4 -67.600001,24.5 -84.500001,12 -15.3,-11.3 25.7,-53.6 43.1,-53.5 z"
       id="path274"
       style="fill:#ffffff;fill-opacity:1" />
    <path
       inkscape:connector-curvature="0"
       class="st0"
       d="m 8.5999976,309.82422 c -11.3999996,0 -21.5999996,-1.9 -27.2999996,-6.1 -3.6,-2.7 -4.5,-7.2 -2.5,-13.2 5.6,-17 32.6,-41.2 45.9,-41.2 0,0 0,0 0,0 12.900001,0.1 35.700001,15.9 42.000001,29.3 2.5,5.2 2.4,9.7 -0.3,13 -8.7,11.1 -35.7,18.2 -57.8000014,18.2 z m 16.1000004,-59.5 c -13,0 -39.5,23.8 -45,40.5 -1.8,5.6 -1.1,9.6 2.2,12 16.6,12.2 70.700001,4.6 83.800001,-11.9 2.4,-3.1 2.5,-7.1 0.2,-12 -6.3,-13 -28.6,-28.6 -41.200001,-28.6 l 0,0 c 0,0 0,0 0,0 z"
       id="path276"
       style="fill:#ffffff;fill-opacity:1" />
    <path
       inkscape:connector-curvature="0"
       class="st0"
       d="m -211.6,-22.875776 c 0,17 -26.6,25.5 -38.9,13.7 -17,-16.3 -12.8,-12.5 -0.2,-32.4 10.2,-16 39.1,1.1 39.1,18.7 z"
       id="path278"
       style="fill:#ffffff;fill-opacity:1" />
    <path
       inkscape:connector-curvature="0"
       class="st0"
       d="m -235.7,-3.275776 c -5.5,0 -11,-1.6 -15.2,-5.6 -13.8,-13.2 -13.9,-13.6 -6.5,-23.8 1.7,-2.4 3.8,-5.3 6.3,-9.2 3.8,-5.9 10.5,-8 18.5,-5.7 10.4,3 21.5,13.3 21.6,24.6 0,7.3 -4.9,13.8 -13,17.3 -3.6,1.5 -7.6,2.4 -11.7,2.4 z m -3,-44.2 c -4.9,0 -9,2.1 -11.5,6.1 -2.5,3.9 -4.6,6.8 -6.3,9.2 -7,9.7 -7,9.7 6.4,22.5 7,6.7 17.9,6.4 25.7,3 7.8,-3.3 12.4,-9.5 12.4,-16.4 l 0,0 c 0,-10.5 -10.8,-20.7 -20.8,-23.7 -2.2,-0.4 -4.1,-0.7 -5.9,-0.7 z"
       id="path280"
       style="fill:#ffffff;fill-opacity:1" />
    <path
       inkscape:connector-curvature="0"
       class="st0"
       d="m -207.3,35.724224 c 0,16.8 -42.9,38.3 -55.2,27 -16.7,-15.4 -9.4,-32.2 2.8,-51.4 9.8,-15.5 52.3,7.2 52.4,24.4 z"
       id="path282"
       style="fill:#ffffff;fill-opacity:1" />
    <path
       inkscape:connector-curvature="0"
       class="st0"
       d="m -252.5,66.324224 c -4.2,0 -7.8,-0.9 -10.4,-3.3 -17.7,-16.3 -8.3,-34.6 2.7,-52 3.4,-5.4 11.2,-6.8 21.3,-3.9 15.1,4.4 32,17.5 32,28.5 l 0,0 c 0,9.9 -13.6,20.3 -26.3,25.9 -6,2.8 -13.2,4.8 -19.3,4.8 z m 4.2,-59.6 c -5.1,0 -8.9,1.7 -11,4.9 -13.6,21.3 -18.4,36.4 -2.9,50.7 5.9,5.5 18.7,2.8 28.7,-1.6 12.8,-5.6 25.7,-16 25.7,-25 0,-10.6 -16.5,-23.3 -31.3,-27.6 -3.4,-1 -6.5,-1.4 -9.2,-1.4 z"
       id="path284"
       style="fill:#ffffff;fill-opacity:1" />
    <path
       inkscape:connector-curvature="0"
       class="st0"
       d="m 29.799999,-221.87578 c -17.300001,-0.2 -43.800001,-55.1 -32.700001,-68.3 14.1,-16.7 51.200001,-19.4 68.800001,-6.6 15.6,11.4 -18.4,75.1 -36.1,74.9 z"
       id="path286"
       style="fill:#ffffff;fill-opacity:1" />
    <path
       inkscape:connector-curvature="0"
       class="st0"
       d="m 29.899999,-221.37578 c 0,0 0,0 0,0 -9.800001,-0.1 -21.6000014,-16.5 -28.500001,-31.7 -5.9,-12.9 -10.6,-30.4 -4.6,-37.4 6.6,-7.8 19.1,-13.3 33.400001,-14.5 14.1,-1.2 27.6,1.7 36,7.9 5.2,3.8 5.6,13.5 1,27.3 -7.4,21.9 -25.6,48.4 -37.3,48.4 z m 6.8,-82.9 c -15.400001,0 -31.300001,5.1 -39.200001,14.4 -4.7,5.5 -2.8,19.8 4.8,36.4 6.7999996,14.9 18.3,31 27.500001,31.1 l 0,0 c 0,0 0.1,0 0.1,0 11,0 29.1,-26.2 36.3,-47.8 4.4,-13.1 4.2,-22.7 -0.6,-26.2 -7.3,-5.4 -18,-7.9 -28.9,-7.9 z"
       id="path288"
       style="fill:#ffffff;fill-opacity:1" />
    <path
       inkscape:connector-curvature="0"
       class="st0"
       d="m -24.100002,-252.17578 c -17.1,-0.2 -58.399998,-36.3 -47.600001,-49.5 13.300001,-16.3 73.600001,-18 90.600001,-5.6 15.000001,11 -25.6,55.4 -43,55.1 z"
       id="path290"
       style="fill:#ffffff;fill-opacity:1" />
    <path
       inkscape:connector-curvature="0"
       class="st0"
       d="m -24.000002,-251.67578 c 0,0 -0.1,0 -0.1,0 -13.2,-0.2 -40.500001,-21.5 -47.900001,-37.3 -2.6,-5.5 -2.6,-9.9 -0.1,-13 7.3,-8.9 27.600001,-12.9 44.300001,-13.8 20.5,-1 38.9,2.2 47,8.1 3.6,2.7 4.4,7.4 2.4,13.6 -6,17.6 -32.7,42.4 -45.6,42.4 z m 3.3,-63.2 c -21,0 -43.200001,4.4 -50.700001,13.5 -2.3,2.8 -2.2,6.8 0.2,12 7.3,15.6 34.100001,36.5 47.000001,36.7 l 0,0 c 0,0 0.1,0 0.1,0 12.6,0 38.8,-24.5 44.5,-41.7 2,-5.9 1.3,-10.1 -2,-12.5 -7.1,-5.3 -22.7,-8 -39.1,-8 z"
       id="path292"
       style="fill:#ffffff;fill-opacity:1" />
    <path
       inkscape:connector-curvature="0"
       class="st0"
       d="m 230.8,13.124224 c 0.4,-17 6.7,-35.3 18.7,-23.3 16.6,16.7 -10.9,13.8 -24,33.3 -10.6,15.9 4.9,7.6 5.3,-10 z"
       id="path294"
       style="fill:#ffffff;fill-opacity:1" />
    <path
       inkscape:connector-curvature="0"
       class="st0"
       d="m 222.4,32.124224 c -0.5,0 -0.7,-0.3 -0.8,-0.4 -1.1,-1.4 1.7,-6.1 3.5,-8.8 1.5,-2.2 3.1,-4.1 4.9,-5.8 0.2,-1.3 0.3,-2.6 0.4,-4 l 0.5,0 -0.5,0 c 0.3,-11.7 3.4,-24.7 9.7,-27.2 3,-1.2 6.3,0 9.8,3.6 4,4 5.6,7.1 5.3,9.8 -0.5,3.6 -4.7,5.9 -10,8.8 -4.4,2.4 -9.6,5.2 -14.2,9.6 -1.4,8.3 -6,13.7 -8,14.4 -0.3,0 -0.5,0 -0.6,0 z m 7.2,-13.2 c -1.3,1.4 -2.6,2.9 -3.7,4.6 -3.7,5.5 -3.7,7.4 -3.5,7.6 0,0 0.3,0 0.8,-0.4 1.7,-1.1 5,-5.4 6.4,-11.8 z m 12.7,-32.4 c -0.7,0 -1.3,0.1 -1.9,0.4 -5.9,2.3 -8.8,15.3 -9.1,26.3 0,1 -0.1,1.9 -0.2,2.9 4.4,-3.9 9.3,-6.6 13.5,-8.9 5.1,-2.8 9.1,-4.9 9.5,-8 0.3,-2.3 -1.2,-5.1 -5,-8.9 -2.4,-2.6 -4.7,-3.8 -6.8,-3.8 z"
       id="path296"
       style="fill:#ffffff;fill-opacity:1" />
    <path
       inkscape:connector-curvature="0"
       class="st0"
       d="m 185.4,-46.575776 c 0.4,-16.7 65.9,-47.100004 77.8,-35.4 16.3,15.8 -2,42.2 -14.7,61 -10.2,15.3 -63.5,-8.3 -63.1,-25.6 z"
       id="path298"
       style="fill:#ffffff;fill-opacity:1" />
    <path
       inkscape:connector-curvature="0"
       class="st0"
       d="m 236,-15.575776 c -4.5,0 -10,-0.9 -16,-2.9 -17.1,-5.4 -35.4,-17.7 -35.1,-28.2 l 0.5,0 -0.5,0 c 0.2,-9.6 21.1,-23.3 40.7,-31.3 14.5,-5.9 32.1,-10.200004 38,-4.4 16.2,15.8 -1.2,41.6 -13.9,60.5 l -0.8,1.1 c -2.2,3.5 -6.8,5.2 -12.9,5.2 z m 18.2,-68.500004 c -6.9,0 -16.8,2.400004 -28.3,7.100004 -19.3,7.9 -39.8,21.2 -40,30.4 -0.2,9.6 17.6,21.8 34.4,27.2 13.7,4.4 24.1,3.7 27.8,-1.9 l 0.8,-1.1 c 12.5,-18.6 29.6,-44 14,-59.2 -1.7,-1.7 -4.7,-2.500004 -8.7,-2.500004 z"
       id="path300"
       style="fill:#ffffff;fill-opacity:1" />
    <path
       inkscape:connector-curvature="0"
       class="st0"
       d="m 14.199998,92.324221 -2,0 c 0,-7.999997 -11.5,-16.299997 -21.7,-23.499997 -9.4,-6.7 -17.6,-12.5 -15.7,-17.7 0.4,-1.1 0.7,-1.9 0.9,-2.6 0.2,-0.6 0.4,-1.2 0.6,-1.6 -1.9,0 -6.4,-0.1 -13.7,-7.1 -0.8,-0.7 -2.4,-2.2 -3.6,-3.3 0.9,2.6 2.2,6.6 0.7,9.6 -0.8,1.6 -2.2,2.7 -4.2,3.4 -5.3,1.8 -12.4,-8 -21.400001,-20.4 -9.6,-13.2 -20.399997,-28.1 -29.099997,-28.1 l 0,-2 c 9.7,0 20.899997,15.4 30.699997,28.9 7.500001,10.3 15.200001,21 19.100001,19.7 1.5,-0.5 2.5,-1.3 3,-2.4 1.2,-2.5 -0.1,-6.2 -1,-8.5 -0.6,-1.8 -1,-2.8 -0.1,-3.3 1,-0.6 1.8,-0.1 7.1,5 6.9,6.5 10.8,6.5 12.4,6.5 0.7,0 1.4,0 1.8,0.6 0.5,0.7 0.2,1.4 -0.6,3.7 -0.3,0.7 -0.6,1.5 -0.9,2.6 -1.3,3.7 7,9.6 15,15.4 10.7,7.5 22.7,16.1 22.7,25.099997 z"
       id="path302"
       style="fill:#ffffff;fill-opacity:1" />
    <path
       inkscape:connector-curvature="0"
       class="st0"
       d="m -0.900002,89.524221 -2,0 c 0,-10.199997 8.2,-21.099997 15.5,-30.799997 6,-8 11.7,-15.5 10.3,-19.9 -1.5,-4.8 -5,-4.8 -7.9,-4.7 -1.6,0 -3,0.1 -3.5,-1.1 -0.5,-1.1 -0.1,-2.4 3.6,-7.2 1.1,-3.6 4.3,-7.4 5.5,-7.7 0.5,-0.1 1,0 1.2,0.4 0.4,0.6 0.7,1.1 -3.5,6.4 -0.5,0.7 -1,1.3 -1.5,1.8 -0.1,0.5 -0.2,1 -0.1,1.5 0.1,1.4 0.9,2.4 2.6,3 3.4,1.2 10.900001,-10.4 17.600001,-20.6 9.4,-14.4 19,-29.3 27.4,-29.3 l 0,2 c -7.3,0 -17.1,15.1 -25.7,28.4 -7.8,12 -13.300001,20.1 -17.600001,21.4 1.5,0.9 2.9,2.4 3.7,5 1.6,5.4 -4.1,13 -10.7,21.7 -6.8,9.6 -14.9,20.2 -14.9,29.699997 z m 14.3,-57.399997 c 0.4,0.1 1.1,0 1.6,0 0.5,0 1.1,0 1.8,0 -1,-0.8 -1.6,-1.8 -1.8,-2.7 -1.1,1.5 -1.5,2.3 -1.6,2.7 z"
       id="path304"
       style="fill:#ffffff;fill-opacity:1" />
    <path
       inkscape:connector-curvature="0"
       class="st0"
       d="m -57.100002,38.524224 c -3.8,0 -6.800001,-0.3 -8.800001,-1.1 -3.7,-1.4 -5.8,-3.8 -7.8,-6.1 -3,-3.4 -5.8,-6.7 -14.199997,-6.7 l 0,-2 c 9.299997,0 12.599997,3.7 15.699997,7.4 1.9,2.2 3.7,4.3 7,5.6 10.200001,3.9 56.100001,-4.2 67.100001,-17.7 12.7,-15.6 7.1999996,-51.4 2.7,-65.3 -1.2,-3.7 -3.7,-6.8 -6.3,-10.2 -4.7,-5.9 -10.1,-12.7 -10.1,-24.8 l 2,0 c 0,11.4 4.9,17.6 9.7,23.5 2.8,3.5 5.4,6.7 6.7,10.8 4.6,14.2 10.1,50.9 -3.1,67.1 -9.6,12 -43,19.5 -60.6,19.5 z"
       id="path306"
       style="fill:#ffffff;fill-opacity:1" />
    <path
       inkscape:connector-curvature="0"
       class="st0"
       d="m 68.699999,21.624224 c -9.7,0 -18.5,-11.8 -26.2,-22.1 -6.1,-8.1 -11.8,-15.8 -15.7,-14.4 -3.300001,1.1 -6.500001,3.3 -9.900001,5.6 -7.8000004,5.4 -16.7,11.6 -27.6,1.3 -14.8,-13.9 -17.5,-31.4 -13.6,-42.5 1.8,-5 0.8,-9.7 -0.5,-15.6 -1,-4.9 -2.2,-10.4 -2.2,-17.5 l 2,0 c 0,7 1.1,12.4 2.2,17.1 1.3,5.9 2.4,11.1 0.4,16.6 -3.6,10.5 -1,27 13.1,40.4 9.7,9.2 17.2,4 25.1,-1.5 3.3,-2.3 6.8,-4.7 10.4,-5.9 5.300001,-1.8 11.100001,6.1 17.900001,15.1 7.5,10 16,21.3 24.6,21.3 l 0,2.1 z"
       id="path308"
       style="fill:#ffffff;fill-opacity:1" />
    <path
       inkscape:connector-curvature="0"
       class="st0"
       d="m -157.3,-21.475776 -2,0 c 0,-12.7 7.3,-15.5 15.7,-18.6 5.8,-2.2 12.3,-4.6 17.8,-10.8 3.2,-3.6 5.2,-5 6.9,-4.8 1.8,0.2 2.6,2 3.6,4.1 1.8,3.6 4.2,8.5 12.5,8.5 l 0,2 c -9.6,0 -12.4,-5.8 -14.3,-9.6 -0.7,-1.5 -1.4,-2.9 -2.1,-3 -0.6,-0.1 -2,0.6 -5.2,4.1 -5.8,6.6 -12.6,9.1 -18.6,11.4 -8.3,3.1 -14.3,5.4 -14.3,16.7 z"
       id="path310"
       style="fill:#ffffff;fill-opacity:1" />
    <path
       inkscape:connector-curvature="0"
       class="st0"
       d="m -145.7,85.824224 c -0.1,0 -0.2,0 -0.2,0 -2.1,-0.1 -4.1,-1.1 -5.7,-2.9 -7.6,-8.6 1.4,-17.3 11,-26.6 7.9,-7.6 16.1,-15.5 16.1,-24 l 2,0 c 0,9.4 -8.5,17.6 -16.7,25.5 -9.2,8.9 -17.2,16.6 -10.9,23.8 1.3,1.5 2.7,2.2 4.3,2.3 4.8,0.2 11,-6 17.5,-12.6 7.8,-7.9 15.9,-16 24.1,-16 l 0,2 c -7.4,0 -15.2,7.8 -22.7,15.4 -6.7,6.8 -13.1,13.1 -18.8,13.1 z"
       id="path312"
       style="fill:#ffffff;fill-opacity:1" />
    <path
       inkscape:connector-curvature="0"
       class="st0"
       d="m -144.5,-24.775776 -2,0 c 0,-6.4 -16.5,-9.1 -29.8,-11.3 -13,-2.1 -20.3,-3.5 -21.4,-6.9 -1.9,-5.9 7.8,-15 18.1,-24.7 5.2,-4.9 10.1,-9.5 13.1,-13.4 7.8,-10.100004 15.3,-4.600004 23.2,1.2 6.1,4.5 13,9.6 21.8,9.6 l 0,2 c -9.4,0 -16.6,-5.3 -23,-10 -8,-5.900004 -13.8,-10.100004 -20.4,-1.6 -3.1,4 -8.1,8.7 -13.3,13.6 -8.9,8.4 -19.1,18 -17.6,22.6 0.8,2.4 10.9,4 19.9,5.5 15.4,2.7 31.4,5.3 31.4,13.4 z"
       id="path314"
       style="fill:#ffffff;fill-opacity:1" />
    <path
       inkscape:connector-curvature="0"
       class="st0"
       d="m -123.3,107.92422 c -14.3,0 -17.7,-6.6 -22.5,-15.599999 -2.1,-3.9 -4.4,-8.399997 -8,-13.099997 -9.7,-12.6 -7.9,-17.2 -5,-24.1 1.8,-4.5 4.2,-10.1 4.2,-20.1 l 2,0 c 0,10.4 -2.4,16.2 -4.3,20.9 -2.7,6.7 -4.3,10.4 4.8,22.1 3.7,4.9 6.1,9.4 8.2,13.399997 4.6,8.799999 7.6,14.499999 20.7,14.499999 l 0,2 z"
       id="path316"
       style="fill:#ffffff;fill-opacity:1" />
    <path
       inkscape:connector-curvature="0"
       class="st0"
       d="m -66.800003,151.72422 c -1.9,0 -3.7,-0.9 -5.4,-2.6 -3.1,-3.2 -6.5,-6.2 -9.799997,-9.2 -11.1,-9.9 -22.5,-20.1 -22.5,-35.1 l 2,0 c 0,14.1 10.6,23.6 21.799997,33.7 3.3,3 6.8,6.1 9.9,9.3 1.4,1.5 2.9,2.1 4.3,2 4.400001,-0.4 9.200001,-7.8 14.200001,-15.5 6.6,-10.2 14.1,-21.7 23.6,-21.7 l 0,2 c -8.4,0 -15.6,11.1 -21.9,20.8 -5.5,8.5 -10.3,15.9 -15.700001,16.4 -0.2,-0.1 -0.3,-0.1 -0.5,-0.1 z"
       id="path318"
       style="fill:#ffffff;fill-opacity:1" />
    <path
       inkscape:connector-curvature="0"
       class="st0"
       d="m 22.299998,149.92422 0,-2 c 11.600001,0 12.700001,-1.7 16.300001,-6.9 1.7,-2.5 3.9,-5.6 7.8,-9.7 4.8,-4.9 9.5,-7.3 13.3,-9.2 6.3,-3.2 10.1,-5.2 10.1,-15.8 l 2,0 c 0,11.9 -4.7,14.2 -11.2,17.6 -3.8,1.9 -8.1,4.1 -12.7,8.8 -3.8,3.9 -5.9,6.9 -7.6,9.4 -3.9,5.5 -5.4,7.8 -18.000001,7.8 z"
       id="path320"
       style="fill:#ffffff;fill-opacity:1" />
    <path
       inkscape:connector-curvature="0"
       class="st0"
       d="m -29.500002,190.32422 c -15.4,0 -18.8,-6.8 -23.1,-15.5 -2.7,-5.5 -5.9,-11.8 -12.700001,-18 -4.1,-3.7 -5.7,-6.2 -5.5,-8.4 0.3,-2.4 2.7,-3.7 5.4,-5.2 4.800001,-2.7 10.900001,-6.1 10.900001,-16.2 l 2,0 c 0,11.3 -7.2,15.3 -11.900001,18 -2.4,1.3 -4.3,2.4 -4.4,3.7 -0.2,1.4 1.4,3.6 4.8,6.7 7.200001,6.5 10.400001,12.9 13.200001,18.6 4.3,8.7 7.1,14.4 21.3,14.4 l 0,1.9 z"
       id="path322"
       style="fill:#ffffff;fill-opacity:1" />
    <path
       inkscape:connector-curvature="0"
       class="st0"
       d="m 29.599999,181.22422 c -0.8,0 -1.6,0 -2.5,0 l -2.600001,0 0,-2 2.600001,0 c 20.6,0 22.3,0 38.5,-14.5 2.4,-2.1 4.6,-4 6.5,-5.6 10.9,-9.3 15.4,-13.1 15.4,-30.2 l 2,0 c 0,18 -5,22.3 -16.1,31.8 -1.9,1.6 -4.1,3.5 -6.5,5.6 -16,14.3 -18.7,14.9 -37.3,14.9 z"
       id="path324"
       style="fill:#ffffff;fill-opacity:1" />
    <path
       inkscape:connector-curvature="0"
       class="st0"
       d="m 98.699999,93.124221 0,-2 C 110.9,91.124221 117.4,81.424224 124.3,71.124224 c 2.8,-4.2 5.8,-8.6 9.2,-12.5 2,-2.3 2.9,-4.4 2.8,-6.4 -0.4,-3.9 -4.8,-7.4 -9.8,-11.4 -7.1,-5.5 -15.1,-11.8 -15.1,-21.8 l 2,0 c 0,9 7.6,15 14.3,20.3 5.2,4.1 10.2,8 10.6,12.8 0.2,2.6 -0.8,5.2 -3.3,8 -3.3,3.8 -6.2,8.1 -9,12.3 -7.2,10.6 -14,20.699997 -27.300001,20.699997 z"
       id="path326"
       style="fill:#ffffff;fill-opacity:1" />
    <path
       inkscape:connector-curvature="0"
       class="st0"
       d="m 142.9,-26.075776 -2,0 c 0,-7.8 3.1,-15.2 6.1,-22.4 4.5,-10.8 8.4,-20.1 1.1,-28.4 -6,-6.8 -15,-1.8 -25.4,4.1 -7.5,4.2 -15.2,8.5 -22.4,8.5 l 0,-2 c 6.7,0 14.2,-4.2 21.5,-8.3 10.7,-6 20.8,-11.700004 27.9,-3.6 8.1,9.2 3.8,19.6 -0.8,30.5 -3,7 -6,14.2 -6,21.6 z"
       id="path328"
       style="fill:#ffffff;fill-opacity:1" />
    <path
       inkscape:connector-curvature="0"
       class="st0"
       d="m 150,81.424224 c -4,0 -7.8,-2.9 -12.1,-6.3 -5.6,-4.4 -11.9,-9.3 -20.6,-9.3 l 0,-2 c 9.4,0 16.3,5.4 21.9,9.7 4.3,3.4 8,6.3 11.6,5.8 2.2,-0.3 4.5,-1.9 6.8,-4.8 9.2,-11.9 12,-19.2 10,-26.1 -1.1,-3.7 1.3,-7.1 4.1,-11 3,-4.2 6.3,-8.9 6.3,-15.1 l 2,0 c 0,6.9 -3.7,12.1 -6.7,16.3 -2.6,3.6 -4.6,6.5 -3.8,9.3 2.6,8.8 -2.3,17.5 -10.4,27.9 -2.7,3.4 -5.3,5.2 -8.1,5.6 -0.3,0 -0.7,0 -1,0 z"
       id="path330"
       style="fill:#ffffff;fill-opacity:1" />
    <path
       inkscape:connector-curvature="0"
       class="st0"
       d="m 156.4,-36.775776 -2,0 c 0,-11.5 8.4,-22.5 16.6,-33.2 9.9,-13 19.2,-25.200004 11.1,-35.700004 -13.1,-17 -51.5,-18.3 -63,-18.3 l 0,-2 c 11.7,0 50.9,1.4 64.5,19.1 9.1,11.7 -0.7,24.600004 -11.1,38.200004 -7.9,10.3 -16.1,21.1 -16.1,31.9 z"
       id="path332"
       style="fill:#ffffff;fill-opacity:1" />
    <path
       inkscape:connector-curvature="0"
       class="st0"
       d="m 90.899999,-104.87578 -2,0 c 0,-11.3 -8.6,-15.7 -18.5,-20.7 -6.2,-3.1 -12.5,-6.4 -17.7,-11.6 -5.2,-5.3 -8.3,-12.9 -11.4,-20.3 -4.7,-11.2 -9.1,-21.8 -19.800001,-21.8 l 0,-2 c 12.100001,0 16.700001,11.2 21.700001,23 3,7.2 6.1,14.6 11,19.7 4.9,5 11.1,8.2 17.1,11.3 10.1,5 19.6,9.8 19.6,22.4 z"
       id="path334"
       style="fill:#ffffff;fill-opacity:1" />
    <path
       inkscape:connector-curvature="0"
       class="st0"
       d="m -68.100003,-106.47578 -2,0 c 0,-7.2 -4.8,-15.9 -9.5,-24.4 -6.699997,-12 -13.599997,-24.5 -5.699997,-32.5 7.699997,-7.8 19.899997,0 31.799998,7.6 8.6,5.5 17.6,11.2 24.8,11.2 l 0,2 c -7.8,0 -17,-5.9 -25.9,-11.6 -11.700001,-7.5 -22.700001,-14.5 -29.299998,-7.9 -6.9,7 -0.6,18.3 5.999997,30.2 4.9,8.7 9.8,17.6 9.8,25.4 z"
       id="path336"
       style="fill:#ffffff;fill-opacity:1" />
    <path
       inkscape:connector-curvature="0"
       class="st0"
       d="m 61.799999,-127.17578 -2,0 c 0,-4.3 0.1,-7.1 0.2,-8.9 0,-0.8 0.1,-1.5 0.1,-1.9 -1.6,0.1 -5.3,0.3 -13,-6.7 -8.5,-7.7 -9.5,-19.8 -10.4,-30.4 -1.1,-12.9 -1.9,-23.1 -14.300001,-23.1 l 0,-2 c 14.300001,0 15.300001,12.1 16.300001,24.9 0.8,10.3 1.8,21.9 9.7,29.1 7.2,6.5 10.3,6.3 11.6,6.1 0.5,0 1.1,-0.1 1.6,0.4 0.6,0.6 0.5,1.3 0.4,3.7 -0.1,1.9 -0.2,4.6 -0.2,8.8 z"
       id="path338"
       style="fill:#ffffff;fill-opacity:1" />
    <path
       inkscape:connector-curvature="0"
       class="st0"
       d="m -41.900002,-128.97578 -2,0 c 0,-9.4 -16.7,-21.8 -31.400001,-32.7 -13.999997,-10.4 -27.199997,-20.3 -27.599997,-28 -0.1,-2.1 0.7,-4 2.5,-5.6 13.7,-12.3 33.299997,-11.1 52.299998,-9.9 5.4,0.3 10.9,0.7 16.2,0.7 l 0,2 c -5.3,0 -10.9,-0.3 -16.3,-0.7 -18.600001,-1.1 -37.799998,-2.3 -50.799998,9.4 -1.3,1.2 -1.9,2.5 -1.8,4 0.3,6.7 13.8,16.8 26.799997,26.4 15.700001,11.8 32.100001,24 32.100001,34.4 z"
       id="path340"
       style="fill:#ffffff;fill-opacity:1" />
    <path
       inkscape:connector-curvature="0"
       class="st0"
       d="m 212.4,34.824224 c -2.4,0 -4.5,-0.9 -6,-2.5 -3.6,-3.9 -4.2,-11.9 -3.9,-20.5 -6.4,-9.2 -12.7,-18.7 -12.9,-24.1 -0.2,-6.1 6.4,-10.6 13,-14.2 -0.7,-5 -1,-8.9 1.3,-10.7 1.7,-1.4 4.6,-1.2 8.9,0.4 1.3,0.5 3,1.3 3.1,2.9 0.2,2.4 -3.4,4.3 -8.8,7.2 -0.8,0.4 -1.6,0.8 -2.4,1.3 0,0.3 0.1,0.5 0.1,0.8 0.5,3.3 1,7 1.1,10.8 l 0,0 c 0.1,3.7 -0.3,8.6 -0.7,13.7 -0.3,3.6 -0.6,7.5 -0.8,11.4 0,0.1 0.1,0.1 0.1,0.2 7.9,11.4 12.6,18.6 10.9,21.9 -0.2,0.5 -1.1,1.4 -3,1.4 z m -7.9,-20.3 c -0.1,7.1 0.6,13.4 3.4,16.4 1.2,1.3 2.7,1.9 4.6,1.9 0.8,0 1.2,-0.2 1.4,-0.5 1,-2.2 -4.4,-10.4 -9.4,-17.8 z m -1.5,-39 c -5.7,3.3 -11.5,7.3 -11.3,12.1 0.1,4.4 5.6,12.9 11.1,20.9 0.2,-2.9 0.4,-5.9 0.7,-8.8 0.4,-5.1 0.8,-9.9 0.7,-13.5 l 0,0 c -0.2,-3.8 -0.8,-7.5 -1.2,-10.7 0,0 0,0 0,0 z m 4,-11.8 c -0.8,0 -1.4,0.2 -1.8,0.5 -1.3,1.1 -1.2,4.2 -0.7,8.1 0.6,-0.3 1.2,-0.6 1.8,-0.9 3.3,-1.8 7.8,-4.2 7.7,-5.3 0,0 -0.1,-0.5 -1.8,-1.2 -2.2,-0.8 -3.9,-1.2 -5.2,-1.2 z"
       id="path342"
       style="fill:#ffffff;fill-opacity:1" />
    <path
       inkscape:connector-curvature="0"
       class="st0"
       d="m -190.9,25.624224 c -5.9,0 -11.2,-0.7 -14.9,-2.1 -3.8,-1.4 -8.6,-2 -13.3,-2.5 -10,-1.2 -20.3,-2.4 -20.6,-11.7 -0.1,-3.3 1.1,-6.3 3.7,-9 6.1,-6.3 18.4,-9.2 27.3,-9.2 21.3,-0.1 57.1,2 57.6,16.5 l 0,0 c 0.1,3.5 -1.8,6.7 -5.7,9.5 -7.9,5.6 -22.1,8.5 -34.1,8.5 z m -17,-32.5 c -0.3,0 -0.5,0 -0.8,0 -8.8,0 -20.5,3 -25.9,8.6 -2.2,2.2 -3.2,4.8 -3.1,7.5 0.2,7.6 9.3,8.7 18.8,9.8 4.8,0.6 9.8,1.2 13.8,2.6 10.9,4 36.2,1.7 47.2,-6.2 3.3,-2.4 4.9,-5 4.9,-7.8 l 0,0 c -0.6,-13.4 -41.2,-14.5 -54.9,-14.5 z"
       id="path344"
       style="fill:#ffffff;fill-opacity:1" />
    <path
       inkscape:connector-curvature="0"
       class="st0"
       d="m -1.700002,-183.37578 c -0.1,0 -0.2,0 -0.3,0 l 0,0 c -2.6,-0.1 -4.4,-1 -5.2,-2.6 -1.7,-3.2 0.8,-8.7 4.5,-15.2 -1.4,-3.4 -3.1,-7 -4.7,-10.4 -5,-10.6 -10.1,-21.6 -9.7,-28.1 0.2,-3.5 2.7,-5.5 6.9,-5.3 5.7,0.3 15.1,5 15,8.1 0,0.2 0,0.4 -0.1,0.6 2.9,0.7 5.9,1.7 7.8,3.4 2.3,2 2.9,4.6 1.7,7.4 -2,4.7 -5.7000004,10.5 -9.4,16.2 -1.7,2.7 -3.5,5.5 -5.1,8.2 3,7.2 4.6,12.9 2.7,15.7 -0.9,1.3 -2.3,2 -4.1,2 z m -0.3,-2 c 1.9,0.1 2.4,-0.7 2.6,-0.9 1.3,-1.9 -0.1,-6.7 -2.3,-12.4 -2.9,5.2 -4.9,9.7 -3.7,11.9 0.4,0.8 1.6,1.3 3.4,1.4 l 0,0 z m -8.9,-57.5 c -0.1,0 -0.3,0 -0.4,0 -3.3,0.1 -3.8,2 -3.8,3.4 -0.4,6 4.7,16.7 9.6,27.2 1.5,3.2 2.9,6.2 4.2,9.1 1.4,-2.3 2.9,-4.6 4.4,-7 3.6,-5.6 7.3,-11.3 9.2,-15.9 0.7,-1.6 0.6,-3 -0.2,-4.1 -2,-2.9 -7.8,-4.1 -11.4,-4.5 -3.3,-0.1 -3.7,-0.1 -3.9,-0.9 l -0.2,-0.7 0.6,-0.4 c 0.3,-0.2 1.9,-0.2 4,0.1 0.8,0 1.3,-0.1 1.4,-0.2 -0.7,-1.8 -8.1,-6.1 -13.5,-6.1 z"
       id="path346"
       style="fill:#ffffff;fill-opacity:1" />
    <path
       inkscape:connector-curvature="0"
       class="st0"
       d="m -4.600002,259.62422 c -1.7,0 -3.6,-0.2 -4.3,-1.6 -0.8,-1.8 1,-3.9 3.9,-7.2 0.7,-0.8 1.5,-1.7 2.2,-2.6 -0.2,-0.5 -0.4,-1 -0.6,-1.5 -0.8,-1.9 -1.5,-3.9 -2.2,-5.9 -1.9,-0.3 -3.1,-1 -3.6,-2.2 -0.6,-1.5 0.1,-3.5 2,-5.4 0,0 0.1,-0.1 0.1,-0.1 0,-1.7 0.2,-3.4 0.8,-4.9 2,-5.3 4.6,-5.6 6,-5.2 3.2,0.8 5.7,6.1 5.2,10.9 0,0.2 -0.1,0.4 -0.1,0.6 0.1,0.6 0.1,1.3 0.1,2.1 -0.1,4.4 -2.7,8.6 -5.5,12.1 1.5,3.9 2.3,7.1 0.9,9.2 -0.9,1.3 -2.4,1.9 -4.8,1.9 0,-0.2 -0.1,-0.2 -0.1,-0.2 z m 2.6,-9.3 c -0.5,0.6 -1,1.2 -1.5,1.8 -1.5,1.8 -3.8,4.4 -3.6,5.1 0,0 0.3,0.5 2.7,0.4 1.6,0 2.7,-0.4 3.2,-1.1 0.7,-1.1 0.2,-3.4 -0.8,-6.2 z m -1.4,-9.4 c 0.6,1.7 1.2,3.4 1.9,5.1 0.1,0.1 0.1,0.3 0.2,0.4 1.8,-2.4 3.4,-5 4,-7.6 -1.5,1.3 -3.5,2 -6.1,2.1 l 0,0 c 0,0 0,0 0,0 z m -0.7,-2 c 0.2,0 0.4,0 0.7,0 l 0,0 c 4.2,0 5.7,-2.4 6.2,-4.6 -0.2,-1.1 -0.7,-2 -1.6,-2.4 -1.7,-0.7 -4.3,0.4 -6.2,1.9 0.1,1.7 0.5,3.4 0.9,5.1 z m -2.7,-3.2 c -0.5,0.8 -0.7,1.5 -0.5,2 0.1,0.3 0.5,0.6 1.2,0.8 -0.4,-0.9 -0.6,-1.8 -0.7,-2.8 z m 5.7,-11 c -1.2,0 -2.4,1.4 -3.3,4 -0.3,0.8 -0.5,1.7 -0.6,2.6 2.2,-1.4 4.9,-2.2 7,-1.3 0.3,0.1 0.6,0.3 0.9,0.5 -0.5,-2.9 -2.1,-5.4 -3.6,-5.8 -0.2,0 -0.3,0 -0.4,0 z"
       id="path348"
       style="fill:#ffffff;fill-opacity:1" />
    <path
       inkscape:connector-curvature="0"
       class="st0"
       d="m -185.9,77.324224 c -5.6,-5.6 -9.7,-11.4 -13.3,-16.5 -7.6,-10.8 -13.7,-19.4 -29.5,-21.8 -13.3,-2 -28.1,5.9 -44.1,23.5 l -1.5,-1.3 c 16.5,-18.2 31.9,-26.3 45.9,-24.2 16.6,2.5 23.2,11.9 30.8,22.7 3.7,5.3 7.6,10.8 13.1,16.3 l -1.4,1.3 z"
       id="path350"
       style="fill:#ffffff;fill-opacity:1" />
    <path
       inkscape:connector-curvature="0"
       class="st0"
       d="m 192.3,57.024224 -1.6,-1.2 c 0.8,-1.1 1.6,-2.2 2.4,-3.2 8.2,-10.8 12.8,-16.8 28,-17.8 5.3,-0.3 10.6,-1.5 15.8,-2.7 12.2,-2.7 23.7,-5.2 33.4,3 l -1.3,1.5 c -8.9,-7.6 -20,-5.1 -31.6,-2.6 -5.2,1.2 -10.7,2.4 -16.1,2.7 -14.3,0.9 -18.4,6.3 -26.5,17 -0.9,1.1 -1.7,2.2 -2.5,3.3 z"
       id="path352"
       style="fill:#ffffff;fill-opacity:1" />
    <path
       inkscape:connector-curvature="0"
       class="st0"
       d="m 230.4,-78.275776 c -1.4,0 -3.3,-0.2 -5.8,-0.6 -1.3,-0.2 -2.4,-0.4 -3.5,-0.6 -11,-1.8 -11.3,-2 -16.1,-8.900004 -1.2,-1.7 -2.6,-3.8 -4.7,-6.4 l 1.6,-1.2 c 2,2.7 3.5,4.8 4.7,6.5 4.4,6.300004 4.4,6.300004 14.8,8.000004 1.1,0.2 2.2,0.4 3.5,0.6 7.9,1.4 8.1,0.6 8.8,-2.3 0.6,-2.600004 1.5,-6.600004 7.1,-11.200004 l 1.3,1.5 c -5.1,4.3 -5.9,7.7 -6.5,10.200004 -0.6,2.9 -1.4,4.4 -5.2,4.4 z"
       id="path354"
       style="fill:#ffffff;fill-opacity:1" />
    <path
       inkscape:connector-curvature="0"
       class="st0"
       d="m 59.299999,272.72422 c -4.6,-4.5 -14.9,-7.1 -24.8,-9.6 -14.300001,-3.6 -29.100001,-7.3 -29.200001,-17.4 -0.1,-10.8 14.3,-15.1 28.300001,-19.2 10.5,-3.1 21.3,-6.3 26,-12.1 l 1.6,1.3 c -5.1,6.3 -16.2,9.6 -27,12.7 -13.900001,4.1 -26.900001,7.9 -26.900001,17.3 0.1,8.5 14.1,12.1 27.700001,15.5 10.7,2.7 20.7,5.2 25.7,10.1 l -1.4,1.4 z"
       id="path356"
       style="fill:#ffffff;fill-opacity:1" />
    <path
       inkscape:connector-curvature="0"
       class="st0"
       d="m -90.8,254.52422 -1.6,-1.2 c 5.5,-7.3 19.799997,-6.1 33.599998,-4.9 10.9,1 21.1,1.9 24.8,-1.7 1,-1 1.5,-2.3 1.4,-4.1 -0.4,-9.6 -8.1,-13.5 -17,-17.9 -5.1,-2.5 -10.4,-5.2 -14.800001,-9.2 l 1.400001,-1.5 c 4.1,3.8 9.3,6.4 14.3,8.8 9.1,4.5 17.7,8.8 18.1,19.6 0.1,2.3 -0.6,4.2 -2.1,5.6 -4.4,4.2 -15.1,3.2 -26.4,2.2 -12.600001,-0.9 -26.899998,-2.2 -31.699998,4.3 z"
       id="path358"
       style="fill:#ffffff;fill-opacity:1" />
    <path
       inkscape:connector-curvature="0"
       class="st0"
       d="m -70.700003,-220.97578 -1.4,-1.4 c 5.5,-5.8 12.900001,-7.3 19.400001,-8.6 8.3,-1.7 14.9,-3.1 15.6,-12.3 0.9,-12.2 -4.4,-17.8 -11.7,-25.5 -2.1,-2.2 -4.2,-4.4 -6.4,-7.1 l 1.5,-1.3 c 2.2,2.6 4.3,4.8 6.4,7 7.4,7.8 13.2,13.9 12.3,27.1 -0.8,10.7 -8.8,12.4 -17.2,14.1 -6.6,1.3 -13.400001,2.6 -18.500001,8 z"
       id="path360"
       style="fill:#ffffff;fill-opacity:1" />
    <path
       inkscape:connector-curvature="0"
       class="st0"
       d="m -212,-63.075776 c -0.1,0 -0.2,0 -0.4,0 -2,-0.3 -3,-2.4 -4.2,-5.2 -2,-4.4 -4.5,-9.9 -12,-9.6 -1.2,0 -2.1,0.1 -2.9,0.2 -1.5,0.8 -3.4,0.9 -4,0.7 -0.6,-0.2 -0.8,-0.7 -0.7,-1.2 0.1,-0.6 0.2,-1.1 4.1,-1.5 0.2,-0.1 0.3,-0.3 0.4,-0.5 0.3,-0.5 0.4,-2.1 -3.6,-5.700004 l 1.3,-1.5 c 3.4,3 4.8,5.500004 4.3,7.500004 0.3,0 0.7,0 1,0 8.8,-0.4 11.9,6.4 13.9,10.8 0.9,1.9 1.8,3.9 2.6,4 0.4,0.1 1.6,-0.3 3.9,-3.2 l 1.6,1.3 c -2.1,2.6 -3.7,3.9 -5.3,3.9 z"
       id="path362"
       style="fill:#ffffff;fill-opacity:1" />
    <path
       inkscape:connector-curvature="0"
       class="st0"
       d="m 53.799999,-206.87578 c -9.3,-11.5 -8.6,-17.8 -7.2,-30.4 0.2,-1.6 0.4,-3.3 0.5,-5.1 1.2,-12.6 5,-15.4 11.3,-20 2.8,-2.1 6,-4.4 9.8,-8.1 l 1.4,1.4 c -3.9,3.9 -7.3,6.3 -10,8.3 -6.2,4.6 -9.4,6.9 -10.5,18.6 -0.2,1.8 -0.4,3.5 -0.5,5.1 -1.4,12.4 -2,18 6.8,28.9 l -1.6,1.3 z"
       id="path364"
       style="fill:#ffffff;fill-opacity:1" />
  </g>
</svg>
