<?xml version="1.0" encoding="UTF-8" standalone="no"?>
<!-- Created with Inkscape (http://www.inkscape.org/) -->

<svg
   xmlns:dc="http://purl.org/dc/elements/1.1/"
   xmlns:cc="http://creativecommons.org/ns#"
   xmlns:rdf="http://www.w3.org/1999/02/22-rdf-syntax-ns#"
   xmlns:svg="http://www.w3.org/2000/svg"
   xmlns="http://www.w3.org/2000/svg"
   xmlns:sodipodi="http://sodipodi.sourceforge.net/DTD/sodipodi-0.dtd"
   xmlns:inkscape="http://www.inkscape.org/namespaces/inkscape"
   width="210mm"
   height="297mm"
   viewBox="0 0 744.09448819 1052.3622047"
   id="svg8659"
   version="1.1"
   inkscape:version="0.91 r13725"
   sodipodi:docname="psych7.svg">
  <defs
     id="defs8661" />
  <sodipodi:namedview
     id="base"
     pagecolor="#ffffff"
     bordercolor="#666666"
     borderopacity="1.0"
     inkscape:pageopacity="0.0"
     inkscape:pageshadow="2"
     inkscape:zoom="0.35"
     inkscape:cx="135.90508"
     inkscape:cy="520"
     inkscape:document-units="px"
     inkscape:current-layer="layer1"
     showgrid="false"
     inkscape:window-width="928"
     inkscape:window-height="1028"
     inkscape:window-x="992"
     inkscape:window-y="24"
     inkscape:window-maximized="0" />
  <metadata
     id="metadata8664">
    <rdf:RDF>
      <cc:Work
         rdf:about="">
        <dc:format>image/svg+xml</dc:format>
        <dc:type
           rdf:resource="http://purl.org/dc/dcmitype/StillImage" />
        <dc:title></dc:title>
      </cc:Work>
    </rdf:RDF>
  </metadata>
  <g
     inkscape:label="Calque 1"
     inkscape:groupmode="layer"
     id="layer1">
    <polygon
       transform="translate(-393.24286,-443.67351)"
       class="st0"
       points="340.4,498.9 384.6,453.3 370.4,484.3 400.1,468.7 418,469.9 406.2,493.4 433.2,496.4 379.1,525.6 300,529.2 350.1,531.1 443.2,585.2 310,498.9 314.6,497.2 384.1,595.8 335.8,530.3 330.5,520.7 355.6,641.4 335.4,538.4 346.7,493.5 305.2,601.4 308,574.5 259.7,607.9 370,507.8 314.8,541.2 349.1,519 337.1,520.5 300.3,527 243.6,533 215.9,527.5 282.5,508.8 359.2,497.1 246.7,493.8 327,494.8 324.3,499.4 272.5,441.7 290,425.3 310.1,485.1 321.6,440.2 301.2,554.9 327.7,483.1 331.3,490.5 309.2,540.6 "
       id="polygon1111"
       style="fill:#ffffff;fill-opacity:1;stroke:none" />
    <polygon
       transform="translate(-393.24286,-443.67351)"
       class="st1"
       points="340.4,498.9 384.6,453.3 370.4,484.3 400.1,468.7 418,469.9 406.2,493.4 433.2,496.4 379.1,525.6 300,529.2 350.1,531.1 443.2,585.2 310,498.9 314.6,497.2 384.1,595.8 335.8,530.3 330.5,520.7 355.6,641.4 335.4,538.4 346.7,493.5 305.2,601.4 308,574.5 259.7,607.9 370,507.8 314.8,541.2 349.1,519 337.1,520.5 300.3,527 243.6,533 215.9,527.5 282.5,508.8 359.2,497.1 246.7,493.8 327,494.8 324.3,499.4 272.5,441.7 290,425.3 310.1,485.1 321.6,440.2 301.2,554.9 327.7,483.1 331.3,490.5 309.2,540.6 "
       id="polygon1113"
       style="fill:#ffffff;fill-opacity:1;stroke:none" />
    <polygon
       transform="translate(-393.24286,-443.67351)"
       class="st0"
       points="367.2,467.6 442.8,504.7 382.9,454.5 422.6,474.3 397.6,439.4 477.5,518.7 464.1,500.6 438.4,436.7 440.1,376 457.2,520.2 452.7,506.9 437,524.9 516.8,423.8 515.8,444.8 447.6,503 498.1,479.6 505.8,485.1 562.1,481.3 512.8,502.1 534.2,514.7 464.5,506 530.7,544.2 463.9,508.3 536.6,590.6 445.2,491.1 433.9,472.7 461.6,534 476.4,594.9 471.1,617.3 431.8,476.8 438.8,549.4 431.1,536.7 425,586 406.6,615.5 374.2,625.2 371.9,576.5 368,553 480.5,529.6 366.6,523.3 414.8,523.3 387.7,507.8 353.5,484.1 347.7,469.2 "
       id="polygon1115"
       style="fill:#ffffff;fill-opacity:1;stroke:none" />
    <polygon
       transform="translate(-393.24286,-443.67351)"
       class="st1"
       points="367.2,467.6 442.8,504.7 382.9,454.5 422.6,474.3 397.6,439.4 477.5,518.7 464.1,500.6 438.4,436.7 440.1,376 457.2,520.2 452.7,506.9 437,524.9 516.8,423.8 515.8,444.8 447.6,503 498.1,479.6 505.8,485.1 562.1,481.3 512.8,502.1 534.2,514.7 464.5,506 530.7,544.2 463.9,508.3 536.6,590.6 445.2,491.1 433.9,472.7 461.6,534 476.4,594.9 471.1,617.3 431.8,476.8 438.8,549.4 431.1,536.7 425,586 406.6,615.5 374.2,625.2 371.9,576.5 368,553 480.5,529.6 366.6,523.3 414.8,523.3 387.7,507.8 353.5,484.1 347.7,469.2 "
       id="polygon1117"
       style="fill:#ffffff;fill-opacity:1;stroke:none" />
    <polygon
       transform="translate(-393.24286,-443.67351)"
       class="st0"
       points="300.3,364.4 416.7,442.4 394.5,439.3 394.4,451.4 413.1,486.2 297.2,368.7 349.9,449 353.5,485.2 329.8,446.5 320.2,463.4 313.5,443.7 331.7,397.6 269.5,470 297.1,428 362.6,377.5 259.7,431.1 321.1,396.1 313.5,395.6 274.2,395.5 227.4,380.5 246.2,367.6 317.2,389.8 271.5,351.3 350.1,418.9 282.4,329.6 339.9,408 319.4,359.4 315,327.7 344.7,403.4 335.5,340.9 344.1,349.3 347.4,291.2 357.8,342.4 367.3,330.6 403.1,284.8 399.4,331.3 334.5,371.8 391.5,362.5 322.3,363.8 416.8,385.8 300.8,358.4 437.2,416.3 328.8,375.6 "
       id="polygon1119"
       style="fill:#ffffff;fill-opacity:1;stroke:none" />
    <polygon
       transform="translate(-393.24286,-443.67351)"
       class="st1"
       points="300.3,364.4 416.7,442.4 394.5,439.3 394.4,451.4 413.1,486.2 297.2,368.7 349.9,449 353.5,485.2 329.8,446.5 320.2,463.4 313.5,443.7 331.7,397.6 269.5,470 297.1,428 362.6,377.5 259.7,431.1 321.1,396.1 313.5,395.6 274.2,395.5 227.4,380.5 246.2,367.6 317.2,389.8 271.5,351.3 350.1,418.9 282.4,329.6 339.9,408 319.4,359.4 315,327.7 344.7,403.4 335.5,340.9 344.1,349.3 347.4,291.2 357.8,342.4 367.3,330.6 403.1,284.8 399.4,331.3 334.5,371.8 391.5,362.5 322.3,363.8 416.8,385.8 300.8,358.4 437.2,416.3 328.8,375.6 "
       id="polygon1121"
       style="fill:#ffffff;fill-opacity:1;stroke:none" />
    <polygon
       transform="translate(-393.24286,-443.67351)"
       class="st0"
       points="472.9,350.7 475,346.1 449.3,372.7 407.5,405.2 382.1,414.1 461.4,355.1 381.3,389.3 381.7,377.8 365.9,365.6 348.6,344.3 388.9,345.4 459.4,393 430.9,363.9 399.2,310.2 405.9,300.4 454.7,395.1 435.8,321.9 444,354.4 469,254.2 427.9,392.7 462.5,336.9 472.2,336.9 474.2,344.9 412.1,388.9 449.4,372.1 486.4,363.1 419.8,390.3 537.6,366.5 445.5,392.1 530.4,387.5 407.2,403.6 486.9,406.1 409.8,395.9 422.6,381.2 454.2,385.5 480.9,444.6 471.1,503 468.8,381.7 457.2,419.4 448.2,425 460.8,382.1 394.3,489.6 "
       id="polygon1123"
       style="fill:#ffffff;fill-opacity:1;stroke:none" />
    <polygon
       transform="translate(-393.24286,-443.67351)"
       class="st1"
       points="472.9,350.7 475,346.1 449.3,372.7 407.5,405.2 382.1,414.1 461.4,355.1 381.3,389.3 381.7,377.8 365.9,365.6 348.6,344.3 388.9,345.4 459.4,393 430.9,363.9 399.2,310.2 405.9,300.4 454.7,395.1 435.8,321.9 444,354.4 469,254.2 427.9,392.7 462.5,336.9 472.2,336.9 474.2,344.9 412.1,388.9 449.4,372.1 486.4,363.1 419.8,390.3 537.6,366.5 445.5,392.1 530.4,387.5 407.2,403.6 486.9,406.1 409.8,395.9 422.6,381.2 454.2,385.5 480.9,444.6 471.1,503 468.8,381.7 457.2,419.4 448.2,425 460.8,382.1 394.3,489.6 "
       id="polygon1125"
       style="fill:#ffffff;fill-opacity:1;stroke:none" />
    <polygon
       transform="translate(-393.24286,-443.67351)"
       class="st0"
       points="359.2,704.7 402.7,623 393.9,614.1 409.9,667.4 432.6,689.9 410.3,642.6 412.2,636.1 466.3,669.9 482.6,652.7 388.7,636.1 437,622.5 450.1,599.3 427,607.7 416.2,610.6 399.4,658 402.1,599.7 386.7,560.4 386.4,604.6 355,578.5 365,609.4 412.8,636.8 365.9,630.8 368.7,639 387.4,640.7 418.5,629.7 407.8,636.2 "
       id="polygon1127"
       style="fill:#ffffff;fill-opacity:1;stroke:none" />
    <polygon
       transform="translate(-393.24286,-443.67351)"
       class="st1"
       points="359.2,704.7 402.7,623 393.9,614.1 409.9,667.4 432.6,689.9 410.3,642.6 412.2,636.1 466.3,669.9 482.6,652.7 388.7,636.1 437,622.5 450.1,599.3 427,607.7 416.2,610.6 399.4,658 402.1,599.7 386.7,560.4 386.4,604.6 355,578.5 365,609.4 412.8,636.8 365.9,630.8 368.7,639 387.4,640.7 418.5,629.7 407.8,636.2 "
       id="polygon1129"
       style="fill:#ffffff;fill-opacity:1;stroke:none" />
    <polygon
       transform="translate(-393.24286,-443.67351)"
       class="st0"
       points="669.8,477.4 628.9,443.2 585.6,439.9 637.6,434.4 679.3,408.6 621.6,429.5 658.1,395.9 642,397.8 617.7,411.2 610.8,422.9 603,380.1 586.5,381.5 587.3,401.8 572.1,403.6 575.7,417.2 559.5,423.8 579.8,436.2 610.9,438.6 586.8,449.9 551.5,482 614.9,438.6 622.4,419.7 603,493.3 619,508.4 608.7,432.8 651.1,501 623,447.2 "
       id="polygon1131"
       style="fill:#ffffff;fill-opacity:1;stroke:none" />
    <polygon
       transform="translate(-393.24286,-443.67351)"
       class="st1"
       points="669.8,477.4 628.9,443.2 585.6,439.9 637.6,434.4 679.3,408.6 621.6,429.5 658.1,395.9 642,397.8 617.7,411.2 610.8,422.9 603,380.1 586.5,381.5 587.3,401.8 572.1,403.6 575.7,417.2 559.5,423.8 579.8,436.2 610.9,438.6 586.8,449.9 551.5,482 614.9,438.6 622.4,419.7 603,493.3 619,508.4 608.7,432.8 651.1,501 623,447.2 "
       id="polygon1133"
       style="fill:#ffffff;fill-opacity:1;stroke:none" />
    <polygon
       transform="translate(-393.24286,-443.67351)"
       class="st0"
       points="400.4,250.6 417.1,183.9 405.6,241.1 412,264.2 379.5,212 363.3,205.8 358.1,214.7 368.6,239.3 357.8,245.5 364.6,256.8 409.6,245.4 365.1,278.6 377.8,278.8 398.1,251.9 400.8,247 401.6,313.1 413,304.9 424,298.8 447.5,308 410.4,258.6 470.5,277.4 423.7,256.1 437.1,248.6 447.7,236.2 402.5,249 460.3,198.6 "
       id="polygon1135"
       style="fill:#ffffff;fill-opacity:1;stroke:none" />
    <polygon
       transform="translate(-393.24286,-443.67351)"
       class="st1"
       points="400.4,250.6 417.1,183.9 405.6,241.1 412,264.2 379.5,212 363.3,205.8 358.1,214.7 368.6,239.3 357.8,245.5 364.6,256.8 409.6,245.4 365.1,278.6 377.8,278.8 398.1,251.9 400.8,247 401.6,313.1 413,304.9 424,298.8 447.5,308 410.4,258.6 470.5,277.4 423.7,256.1 437.1,248.6 447.7,236.2 402.5,249 460.3,198.6 "
       id="polygon1137"
       style="fill:#ffffff;fill-opacity:1;stroke:none" />
    <polygon
       transform="translate(-393.24286,-443.67351)"
       class="st0"
       points="227.8,626 261.5,585.1 255.4,602.3 272.7,592.5 308.7,567.2 306.7,580.7 280.1,609.5 276,617.3 288.8,616.2 249.4,628.1 339.9,625.6 291.9,630 258.6,622.9 225.6,605.9 341.5,683.5 346.9,703.4 276.1,652.8 233.1,616.4 259.7,640 289.7,634.1 187.4,711.7 303,641.5 187.5,684.2 162.7,692 292.5,616.3 270.8,616.4 218.2,657 208.4,675.5 228.7,626.1 229.2,609 202.4,652.6 211.9,613.6 208.9,603.1 189.6,628.4 201.8,590.5 214.9,575.2 159.5,594 267.9,644.7 194,585.4 235.2,622.1 261,649.3 257.4,643.6 257.8,647.4 205.6,516.3 235.1,590.5 237,591.3 228.4,648.3 282.1,475.2 260.8,560 "
       id="polygon1139"
       style="fill:#ffffff;fill-opacity:1;stroke:none" />
    <polygon
       transform="translate(-393.24286,-443.67351)"
       class="st1"
       points="227.8,626 261.5,585.1 255.4,602.3 272.7,592.5 308.7,567.2 306.7,580.7 280.1,609.5 276,617.3 288.8,616.2 249.4,628.1 339.9,625.6 291.9,630 258.6,622.9 225.6,605.9 341.5,683.5 346.9,703.4 276.1,652.8 233.1,616.4 259.7,640 289.7,634.1 187.4,711.7 303,641.5 187.5,684.2 162.7,692 292.5,616.3 270.8,616.4 218.2,657 208.4,675.5 228.7,626.1 229.2,609 202.4,652.6 211.9,613.6 208.9,603.1 189.6,628.4 201.8,590.5 214.9,575.2 159.5,594 267.9,644.7 194,585.4 235.2,622.1 261,649.3 257.4,643.6 257.8,647.4 205.6,516.3 235.1,590.5 237,591.3 228.4,648.3 282.1,475.2 260.8,560 "
       id="polygon1141"
       style="fill:#ffffff;fill-opacity:1;stroke:none" />
    <polygon
       transform="translate(-393.24286,-443.67351)"
       class="st0"
       points="305.3,311.8 243.1,274.6 231.4,268.4 332.1,375.3 244.7,286.9 237.7,276.8 240.2,276 263.9,388.5 249,313.1 238,340.5 241.1,317.7 256.9,292.8 177.2,359.7 151.1,360.3 253.2,288.5 256.2,285.8 220.9,292.8 288.1,289.2 197.2,276.5 241.6,287.3 224.9,272.8 278.7,322.5 264.9,309.4 230.1,245.5 238,243.3 222.3,172.1 264.6,283.7 267.9,276 278.3,318.5 278.5,279.6 283.5,262.9 296.2,215.8 276,282.2 355.1,211.7 294.7,259.3 304.6,263.5 285.7,267.4 362.2,293.8 246.1,262.6 237.4,261.1 295,296.5 "
       id="polygon1143"
       style="fill:#ffffff;fill-opacity:1;stroke:none" />
    <polygon
       transform="translate(-393.24286,-443.67351)"
       class="st1"
       points="305.3,311.8 243.1,274.6 231.4,268.4 332.1,375.3 244.7,286.9 237.7,276.8 240.2,276 263.9,388.5 249,313.1 238,340.5 241.1,317.7 256.9,292.8 177.2,359.7 151.1,360.3 253.2,288.5 256.2,285.8 220.9,292.8 288.1,289.2 197.2,276.5 241.6,287.3 224.9,272.8 278.7,322.5 264.9,309.4 230.1,245.5 238,243.3 222.3,172.1 264.6,283.7 267.9,276 278.3,318.5 278.5,279.6 283.5,262.9 296.2,215.8 276,282.2 355.1,211.7 294.7,259.3 304.6,263.5 285.7,267.4 362.2,293.8 246.1,262.6 237.4,261.1 295,296.5 "
       id="polygon1145"
       style="fill:#ffffff;fill-opacity:1;stroke:none" />
    <polygon
       transform="translate(-393.24286,-443.67351)"
       class="st0"
       points="562.4,277.2 551,283.6 532.9,293.8 558.5,262.1 480.4,318.1 496.9,294.1 455.3,303.5 434.9,292.3 441.9,270.1 510.5,256.8 426.4,225 475.5,226 480,215 589.1,286.2 471.4,179.8 522.7,215.9 539.2,229.6 576.5,181.4 569.8,212 528.6,238 538.5,242.2 537,252.1 512.4,280.7 525.5,291.6 600.9,203.1 531.9,342.1 572.6,282.6 593.4,255.6 622.6,210 640.4,199.3 601.4,288 573.9,299.2 589.5,281.6 607.5,300.8 640.6,348.5 585.2,295.1 546.5,243.7 602.7,356.6 580.6,330.2 568.9,303.1 567.3,284.4 558.1,313.1 572.8,268.5 586.3,246.1 "
       id="polygon1147"
       style="fill:#ffffff;fill-opacity:1;stroke:none" />
    <polygon
       transform="translate(-393.24286,-443.67351)"
       class="st1"
       points="562.4,277.2 551,283.6 532.9,293.8 558.5,262.1 480.4,318.1 496.9,294.1 455.3,303.5 434.9,292.3 441.9,270.1 510.5,256.8 426.4,225 475.5,226 480,215 589.1,286.2 471.4,179.8 522.7,215.9 539.2,229.6 576.5,181.4 569.8,212 528.6,238 538.5,242.2 537,252.1 512.4,280.7 525.5,291.6 600.9,203.1 531.9,342.1 572.6,282.6 593.4,255.6 622.6,210 640.4,199.3 601.4,288 573.9,299.2 589.5,281.6 607.5,300.8 640.6,348.5 585.2,295.1 546.5,243.7 602.7,356.6 580.6,330.2 568.9,303.1 567.3,284.4 558.1,313.1 572.8,268.5 586.3,246.1 "
       id="polygon1149"
       style="fill:#ffffff;fill-opacity:1;stroke:none" />
    <polygon
       transform="translate(-393.24286,-443.67351)"
       class="st0"
       points="514.8,590.2 516.9,583.4 514.6,572.9 532.4,577.9 534.3,571.4 578.3,614.2 585,628.6 542.3,548.4 544.7,524.4 556.4,467 583.5,455.8 542.5,618 600.7,516.9 552.4,594.9 581.6,569.6 589.5,571.5 514.5,604.7 586.7,574.9 580.8,569.1 570.9,561.9 625.5,680.1 619.9,671.4 579.4,617 522.1,575.5 510.9,590.8 564.5,624.5 524.6,616.2 523.3,624.1 576.9,651.7 503.1,631.6 505.3,637.9 506.8,640.1 535.4,674.4 469.3,741.4 577.8,611.9 572.6,610 570.5,606.6 487,653 446.7,661.8 473.7,637 580.9,606.2 521.3,613.4 482,602.9 562.5,619.9 567.8,622.9 "
       id="polygon1151"
       style="fill:#ffffff;fill-opacity:1;stroke:none" />
    <polygon
       transform="translate(-393.24286,-443.67351)"
       class="st1"
       points="514.8,590.2 516.9,583.4 514.6,572.9 532.4,577.9 534.3,571.4 578.3,614.2 585,628.6 542.3,548.4 544.7,524.4 556.4,467 583.5,455.8 542.5,618 600.7,516.9 552.4,594.9 581.6,569.6 589.5,571.5 514.5,604.7 586.7,574.9 580.8,569.1 570.9,561.9 625.5,680.1 619.9,671.4 579.4,617 522.1,575.5 510.9,590.8 564.5,624.5 524.6,616.2 523.3,624.1 576.9,651.7 503.1,631.6 505.3,637.9 506.8,640.1 535.4,674.4 469.3,741.4 577.8,611.9 572.6,610 570.5,606.6 487,653 446.7,661.8 473.7,637 580.9,606.2 521.3,613.4 482,602.9 562.5,619.9 567.8,622.9 "
       id="polygon1153"
       style="fill:#ffffff;fill-opacity:1;stroke:none" />
    <polygon
       transform="translate(-393.24286,-443.67351)"
       class="st0"
       points="207.1,451.7 180.6,440.8 159.8,423.1 150.6,393.8 140,435.7 171.6,367.9 88.4,453.6 148.8,393.7 168.7,380 116.7,395.3 83.9,387.7 99.7,373.9 156.4,390.5 141.9,378.7 112.2,332.3 139.1,355.4 156.5,379.2 152.2,345.8 151.1,292.7 166.3,325.2 175.7,402.8 180.9,357.6 158.1,386.1 157.3,370.8 222,369.1 251.8,388.9 242.7,401.4 240.1,414.2 158.3,380.1 230.4,436.6 154.4,389.5 "
       id="polygon1155"
       style="fill:#ffffff;fill-opacity:1;stroke:none" />
    <polygon
       transform="translate(-393.24286,-443.67351)"
       class="st1"
       points="207.1,451.7 180.6,440.8 159.8,423.1 150.6,393.8 140,435.7 171.6,367.9 88.4,453.6 148.8,393.7 168.7,380 116.7,395.3 83.9,387.7 99.7,373.9 156.4,390.5 141.9,378.7 112.2,332.3 139.1,355.4 156.5,379.2 152.2,345.8 151.1,292.7 166.3,325.2 175.7,402.8 180.9,357.6 158.1,386.1 157.3,370.8 222,369.1 251.8,388.9 242.7,401.4 240.1,414.2 158.3,380.1 230.4,436.6 154.4,389.5 "
       id="polygon1157"
       style="fill:#ffffff;fill-opacity:1;stroke:none" />
    <polygon
       transform="translate(-393.24286,-443.67351)"
       class="st0"
       points="339,168.5 350.8,186.9 340.3,165.7 351.4,263.7 346.3,189.7 358.3,169.1 358.3,172.9 310,203.8 326.4,185.4 360.6,170 328,173.5 334.7,170.5 369.5,186.9 315.8,144.8 304,112.9 361.6,190.3 343,139.7 349.2,133.8 358.7,142.3 366.8,155.8 372.5,154.9 375.7,151.5 379,148.4 448,131.4 393.7,154.9 385.4,161.1 408.3,176.9 328.9,148.8 360.4,170.1 366.5,181 376.8,197.6 "
       id="polygon1159"
       style="fill:#ffffff;fill-opacity:1;stroke:none" />
    <polygon
       transform="translate(-393.24286,-443.67351)"
       class="st1"
       points="339,168.5 350.8,186.9 340.3,165.7 351.4,263.7 346.3,189.7 358.3,169.1 358.3,172.9 310,203.8 326.4,185.4 360.6,170 328,173.5 334.7,170.5 369.5,186.9 315.8,144.8 304,112.9 361.6,190.3 343,139.7 349.2,133.8 358.7,142.3 366.8,155.8 372.5,154.9 375.7,151.5 379,148.4 448,131.4 393.7,154.9 385.4,161.1 408.3,176.9 328.9,148.8 360.4,170.1 366.5,181 376.8,197.6 "
       id="polygon1161"
       style="fill:#ffffff;fill-opacity:1;stroke:none" />
    <polygon
       transform="translate(-393.24286,-443.67351)"
       class="st0"
       points="178.4,440.9 187.4,453.7 239.6,444.1 167.2,486.4 230.9,455.2 178.6,505.2 226.3,468.5 229.6,451.2 231.7,497 234.1,481 222.9,461.8 229,463.2 243.7,465.2 290.9,468.1 213.4,453.2 217.9,452 271.8,428.5 268.5,413.2 212.7,466.8 232.5,424 223.3,394.8 199.5,373 196.6,405 212.7,441.3 222,452.6 "
       id="polygon1163"
       style="fill:#ffffff;fill-opacity:1;stroke:none" />
    <polygon
       transform="translate(-393.24286,-443.67351)"
       class="st1"
       points="178.4,440.9 187.4,453.7 239.6,444.1 167.2,486.4 230.9,455.2 178.6,505.2 226.3,468.5 229.6,451.2 231.7,497 234.1,481 222.9,461.8 229,463.2 243.7,465.2 290.9,468.1 213.4,453.2 217.9,452 271.8,428.5 268.5,413.2 212.7,466.8 232.5,424 223.3,394.8 199.5,373 196.6,405 212.7,441.3 222,452.6 "
       id="polygon1165"
       style="fill:#ffffff;fill-opacity:1;stroke:none" />
    <polygon
       transform="translate(-393.24286,-443.67351)"
       class="st0"
       points="157,516.7 144.2,531.2 228.8,491.4 235.9,509.4 184.1,528.7 189.5,538.7 195.8,554.4 144.3,517.1 130.3,499.9 132,497.8 142.8,513.6 146.1,590.7 128.5,588.6 115.8,577.8 168.5,512.3 131.9,537.3 146.6,523.7 157.3,515.3 89.5,529.2 159.2,507.4 49,514.4 175.1,499.4 118.2,495.5 71,445.2 112.7,457 128.6,468.1 139.5,463 140.3,492.4 133.2,522.8 168.5,468.1 160.5,495.3 138.2,529.8 "
       id="polygon1167"
       style="fill:#ffffff;fill-opacity:1;stroke:none" />
    <polygon
       transform="translate(-393.24286,-443.67351)"
       class="st1"
       points="157,516.7 144.2,531.2 228.8,491.4 235.9,509.4 184.1,528.7 189.5,538.7 195.8,554.4 144.3,517.1 130.3,499.9 132,497.8 142.8,513.6 146.1,590.7 128.5,588.6 115.8,577.8 168.5,512.3 131.9,537.3 146.6,523.7 157.3,515.3 89.5,529.2 159.2,507.4 49,514.4 175.1,499.4 118.2,495.5 71,445.2 112.7,457 128.6,468.1 139.5,463 140.3,492.4 133.2,522.8 168.5,468.1 160.5,495.3 138.2,529.8 "
       id="polygon1169"
       style="fill:#ffffff;fill-opacity:1;stroke:none" />
    <polygon
       transform="translate(-393.24286,-443.67351)"
       class="st0"
       points="397.9,672.3 383.3,698.8 386.7,709.6 356.3,724.3 340.4,721.9 363.2,733.4 328,706.6 324.7,701.5 372.9,790.9 335.2,714.9 339.5,725.4 349.4,705.1 329.4,745.4 291.6,771.3 287.1,758.3 275.2,751.2 293.1,733 251.5,734.5 288.5,716.2 305.6,706 244.2,700.2 347.8,703.8 339.9,715 322.5,705.7 321.2,686.6 326.6,689.4 348.1,642.1 364,635.6 330.3,717.5 364.4,677 356.1,699.3 "
       id="polygon1171"
       style="fill:#ffffff;fill-opacity:1;stroke:none" />
    <polygon
       transform="translate(-393.24286,-443.67351)"
       class="st1"
       points="397.9,672.3 383.3,698.8 386.7,709.6 356.3,724.3 340.4,721.9 363.2,733.4 328,706.6 324.7,701.5 372.9,790.9 335.2,714.9 339.5,725.4 349.4,705.1 329.4,745.4 291.6,771.3 287.1,758.3 275.2,751.2 293.1,733 251.5,734.5 288.5,716.2 305.6,706 244.2,700.2 347.8,703.8 339.9,715 322.5,705.7 321.2,686.6 326.6,689.4 348.1,642.1 364,635.6 330.3,717.5 364.4,677 356.1,699.3 "
       id="polygon1173"
       style="fill:#ffffff;fill-opacity:1;stroke:none" />
    <polygon
       transform="translate(-393.24286,-443.67351)"
       class="st0"
       points="412,638.7 472.2,698.5 474.5,699.3 471.6,657 487.1,647.8 456.4,724.5 473.3,699.9 536.5,661.3 548,671.3 462.8,711.6 517.6,707.9 508.9,717 553.8,751.8 461.7,697.5 509.5,757.7 454.5,683.4 461.6,700.3 487,798.7 454.9,696.6 453.3,711.7 448.6,690.1 452.1,709.8 447.8,729.2 463.8,726.1 488.5,729.8 474.4,730 486.3,732.2 388.7,684.5 392.3,673 489.8,725.4 401.2,650 "
       id="polygon1175"
       style="fill:#ffffff;fill-opacity:1;stroke:none" />
    <polygon
       transform="translate(-393.24286,-443.67351)"
       class="st1"
       points="412,638.7 472.2,698.5 474.5,699.3 471.6,657 487.1,647.8 456.4,724.5 473.3,699.9 536.5,661.3 548,671.3 462.8,711.6 517.6,707.9 508.9,717 553.8,751.8 461.7,697.5 509.5,757.7 454.5,683.4 461.6,700.3 487,798.7 454.9,696.6 453.3,711.7 448.6,690.1 452.1,709.8 447.8,729.2 463.8,726.1 488.5,729.8 474.4,730 486.3,732.2 388.7,684.5 392.3,673 489.8,725.4 401.2,650 "
       id="polygon1177"
       style="fill:#ffffff;fill-opacity:1;stroke:none" />
    <polygon
       transform="translate(-393.24286,-443.67351)"
       class="st0"
       points="599.3,438.3 619.3,439 667.4,521.9 653,439.4 651,508.6 679.6,454 713.3,438.4 704.8,464 696.2,481.2 634.7,508.2 741.2,500.4 725.8,519.3 668.4,508.2 665.7,510.7 706.4,571 688,569.7 682.3,589.7 657.6,552.6 650.5,562.9 634.8,498.8 631.7,576.8 623.3,541.5 638.2,514 628.6,524.7 664.4,523.4 640.8,520.3 611.3,505.6 665.2,522.4 623.1,494.6 598.4,468.8 590.2,449.2 "
       id="polygon1179"
       style="fill:#ffffff;fill-opacity:1;stroke:none" />
    <polygon
       transform="translate(-393.24286,-443.67351)"
       class="st1"
       points="599.3,438.3 619.3,439 667.4,521.9 653,439.4 651,508.6 679.6,454 713.3,438.4 704.8,464 696.2,481.2 634.7,508.2 741.2,500.4 725.8,519.3 668.4,508.2 665.7,510.7 706.4,571 688,569.7 682.3,589.7 657.6,552.6 650.5,562.9 634.8,498.8 631.7,576.8 623.3,541.5 638.2,514 628.6,524.7 664.4,523.4 640.8,520.3 611.3,505.6 665.2,522.4 623.1,494.6 598.4,468.8 590.2,449.2 "
       id="polygon1181"
       style="fill:#ffffff;fill-opacity:1;stroke:none" />
    <polygon
       transform="translate(-393.24286,-443.67351)"
       class="st0"
       points="639.8,343 635.9,342 591.4,343.9 570.2,322.5 640.2,343.7 644.5,346.2 625.5,314.4 649.5,345.6 641.2,313.1 649.1,288.4 662.2,294 641.3,341.3 712.9,282.7 717.4,299.5 730.7,309 682.7,338.1 681.5,346.3 741.4,345.4 707.8,359.5 702.9,368.7 702.2,384 676,383.5 678.9,445 661.3,379.6 666.3,341.5 620.7,436.2 632.2,389.6 623.9,385.5 604.3,392.4 649.4,340.1 "
       id="polygon1183"
       style="fill:#ffffff;fill-opacity:1;stroke:none" />
    <polygon
       transform="translate(-393.24286,-443.67351)"
       class="st1"
       points="639.8,343 635.9,342 591.4,343.9 570.2,322.5 640.2,343.7 644.5,346.2 625.5,314.4 649.5,345.6 641.2,313.1 649.1,288.4 662.2,294 641.3,341.3 712.9,282.7 717.4,299.5 730.7,309 682.7,338.1 681.5,346.3 741.4,345.4 707.8,359.5 702.9,368.7 702.2,384 676,383.5 678.9,445 661.3,379.6 666.3,341.5 620.7,436.2 632.2,389.6 623.9,385.5 604.3,392.4 649.4,340.1 "
       id="polygon1185"
       style="fill:#ffffff;fill-opacity:1;stroke:none" />
    <polygon
       transform="translate(-393.24286,-443.67351)"
       class="st0"
       points="470.9,162.6 476.7,160.9 373.7,173.5 465.6,170.9 429.4,150.6 434.8,142.7 431.3,121.9 463.7,162.5 468.5,174.5 469.4,97.7 488.1,104.4 518.2,94.6 445,181.3 492.6,152 489,161.9 437.6,185.4 546.7,162.9 555.5,172.9 501.3,188.2 536.8,195.7 498.4,203 495.5,210.7 496.1,259.7 480.1,211.3 482.6,178.1 474.3,188.9 483.3,164.1 474.9,171.1 433.9,208.8 478.2,159.1 "
       id="polygon1187"
       style="fill:#ffffff;fill-opacity:1;stroke:none" />
    <polygon
       transform="translate(-393.24286,-443.67351)"
       class="st1"
       points="470.9,162.6 476.7,160.9 373.7,173.5 465.6,170.9 429.4,150.6 434.8,142.7 431.3,121.9 463.7,162.5 468.5,174.5 469.4,97.7 488.1,104.4 518.2,94.6 445,181.3 492.6,152 489,161.9 437.6,185.4 546.7,162.9 555.5,172.9 501.3,188.2 536.8,195.7 498.4,203 495.5,210.7 496.1,259.7 480.1,211.3 482.6,178.1 474.3,188.9 483.3,164.1 474.9,171.1 433.9,208.8 478.2,159.1 "
       id="polygon1189"
       style="fill:#ffffff;fill-opacity:1;stroke:none" />
    <polygon
       transform="translate(-393.24286,-443.67351)"
       class="st0"
       points="378.5,813.6 371.7,780.2 375,774.2 364.1,797.4 371.3,773.5 325.7,834.4 357.9,773.7 362.2,777.2 287.4,783.3 335.6,781.6 332,765.4 350.7,779.6 346.2,747.6 362.2,774.7 368.3,745.3 373.8,775.4 369.8,802.9 403.8,745.9 382.8,787.5 395.9,782.7 360.2,790.4 369.5,783.2 354.6,767 384.1,799.4 353.9,763.1 "
       id="polygon1191"
       style="fill:#ffffff;fill-opacity:1;stroke:none" />
    <polygon
       transform="translate(-393.24286,-443.67351)"
       class="st1"
       points="378.5,813.6 371.7,780.2 375,774.2 364.1,797.4 371.3,773.5 325.7,834.4 357.9,773.7 362.2,777.2 287.4,783.3 335.6,781.6 332,765.4 350.7,779.6 346.2,747.6 362.2,774.7 368.3,745.3 373.8,775.4 369.8,802.9 403.8,745.9 382.8,787.5 395.9,782.7 360.2,790.4 369.5,783.2 354.6,767 384.1,799.4 353.9,763.1 "
       id="polygon1193"
       style="fill:#ffffff;fill-opacity:1;stroke:none" />
    <polygon
       transform="translate(-393.24286,-443.67351)"
       class="st0"
       points="467.5,865.3 439.8,765.6 444.2,771.8 435.9,792.2 440.2,775.1 391.5,840.1 419,787.5 419,785.6 422.4,788.5 372.9,758.8 400.6,762.6 402.4,744.5 425.1,770.3 420.5,709.3 438.4,812.4 452.2,727.7 459.4,747.4 461.6,764.6 433.1,802.9 439.6,792.4 443.5,786.8 429.5,777.7 494.4,823.1 463.9,808.5 443.9,793.5 "
       id="polygon1195"
       style="fill:#ffffff;fill-opacity:1;stroke:none" />
    <polygon
       transform="translate(-393.24286,-443.67351)"
       class="st1"
       points="467.5,865.3 439.8,765.6 444.2,771.8 435.9,792.2 440.2,775.1 391.5,840.1 419,787.5 419,785.6 422.4,788.5 372.9,758.8 400.6,762.6 402.4,744.5 425.1,770.3 420.5,709.3 438.4,812.4 452.2,727.7 459.4,747.4 461.6,764.6 433.1,802.9 439.6,792.4 443.5,786.8 429.5,777.7 494.4,823.1 463.9,808.5 443.9,793.5 "
       id="polygon1197"
       style="fill:#ffffff;fill-opacity:1;stroke:none" />
    <polygon
       transform="translate(-393.24286,-443.67351)"
       class="st0"
       points="112.4,405.3 32.2,424.8 25,410.8 98.7,420.4 82.9,411.4 23.4,373.3 59.6,384.6 97.5,399.8 67.2,363.8 95.8,327.3 113.6,353.7 116.5,370.9 69.3,406.4 131.8,389.8 152.5,398.5 44.4,414.8 46.2,412.9 137.7,440 49.1,410.5 56.3,411.5 63.8,410.5 79.5,425.7 93.7,406.5 87.8,426.7 38.3,463.7 53,439.9 "
       id="polygon1199"
       style="fill:#ffffff;fill-opacity:1;stroke:none" />
    <polygon
       transform="translate(-393.24286,-443.67351)"
       class="st1"
       points="112.4,405.3 32.2,424.8 25,410.8 98.7,420.4 82.9,411.4 23.4,373.3 59.6,384.6 97.5,399.8 67.2,363.8 95.8,327.3 113.6,353.7 116.5,370.9 69.3,406.4 131.8,389.8 152.5,398.5 44.4,414.8 46.2,412.9 137.7,440 49.1,410.5 56.3,411.5 63.8,410.5 79.5,425.7 93.7,406.5 87.8,426.7 38.3,463.7 53,439.9 "
       id="polygon1201"
       style="fill:#ffffff;fill-opacity:1;stroke:none" />
    <polygon
       transform="translate(-393.24286,-443.67351)"
       class="st0"
       points="114.2,483.2 0,495 56,485.8 70.4,483.4 28.1,452.8 76.3,471.3 87.3,469.9 52.2,414.5 96.5,394.9 87.3,462.3 55.5,492.4 87.8,475.3 51.6,493 54.5,492 71.4,490.6 147.2,504.4 73.2,494.2 152.6,538.3 80.8,503 99.4,532.7 86.2,529.6 62.4,562.8 87.5,503 97.1,487.6 30.7,528.4 "
       id="polygon1203"
       style="fill:#ffffff;fill-opacity:1;stroke:none" />
    <polygon
       transform="translate(-393.24286,-443.67351)"
       class="st1"
       points="114.2,483.2 0,495 56,485.8 70.4,483.4 28.1,452.8 76.3,471.3 87.3,469.9 52.2,414.5 96.5,394.9 87.3,462.3 55.5,492.4 87.8,475.3 51.6,493 54.5,492 71.4,490.6 147.2,504.4 73.2,494.2 152.6,538.3 80.8,503 99.4,532.7 86.2,529.6 62.4,562.8 87.5,503 97.1,487.6 30.7,528.4 "
       id="polygon1205"
       style="fill:#ffffff;fill-opacity:1;stroke:none" />
    <polygon
       transform="translate(-393.24286,-443.67351)"
       class="st0"
       points="448.9,109.7 442.9,20 463.4,18.9 465.4,52.8 455.1,88.7 491.2,46.3 486,68.1 439.8,113.4 433,90.6 482.5,105 474.8,109.1 440.5,61.3 477.7,165.2 447.2,82.1 445,171.3 433,146.6 414.7,160 451.5,70.3 455.3,72.9 440.7,89.5 405.9,95.5 408.2,85.4 459,116.2 449.8,104.7 433.5,78.9 "
       id="polygon1207"
       style="fill:#ffffff;fill-opacity:1;stroke:none" />
    <polygon
       transform="translate(-393.24286,-443.67351)"
       class="st1"
       points="448.9,109.7 442.9,20 463.4,18.9 465.4,52.8 455.1,88.7 491.2,46.3 486,68.1 439.8,113.4 433,90.6 482.5,105 474.8,109.1 440.5,61.3 477.7,165.2 447.2,82.1 445,171.3 433,146.6 414.7,160 451.5,70.3 455.3,72.9 440.7,89.5 405.9,95.5 408.2,85.4 459,116.2 449.8,104.7 433.5,78.9 "
       id="polygon1209"
       style="fill:#ffffff;fill-opacity:1;stroke:none" />
    <polygon
       transform="translate(-393.24286,-443.67351)"
       class="st0"
       points="348.4,18.2 373.3,109.4 382.6,58.1 367.5,113.6 411.7,43.1 427.5,36.9 400.6,88 389.7,100.6 441.9,98.6 382.6,86.7 414.1,121.4 393.3,106.5 383.5,97.9 380.7,106.1 375.9,79.9 375.8,79.9 380.6,68.6 372.3,87.4 385.5,76.1 347.1,102.2 348.5,95.8 398.6,110.2 361.1,92.4 330.9,53.6 362.2,77.3 "
       id="polygon1211"
       style="fill:#ffffff;fill-opacity:1;stroke:none" />
    <polygon
       transform="translate(-393.24286,-443.67351)"
       class="st1"
       points="348.4,18.2 373.3,109.4 382.6,58.1 367.5,113.6 411.7,43.1 427.5,36.9 400.6,88 389.7,100.6 441.9,98.6 382.6,86.7 414.1,121.4 393.3,106.5 383.5,97.9 380.7,106.1 375.9,79.9 375.8,79.9 380.6,68.6 372.3,87.4 385.5,76.1 347.1,102.2 348.5,95.8 398.6,110.2 361.1,92.4 330.9,53.6 362.2,77.3 "
       id="polygon1213"
       style="fill:#ffffff;fill-opacity:1;stroke:none" />
    <polygon
       transform="translate(-393.24286,-443.67351)"
       class="st0"
       points="756.4,442.6 774,451.7 691.2,456 728.9,465.6 687,451.1 706.6,465.7 780.8,519.7 705.4,479.1 744.1,536.7 703.8,538 686.9,517.9 708.9,486 662.8,499.4 756,458.7 665.7,472.9 677.7,460.7 666.5,448.8 639.7,427.5 688.4,434.6 682.1,417 675.1,379.4 719.8,464 700,478.1 749.7,411.2 710.2,456.6 729.7,447.8 "
       id="polygon1215"
       style="fill:#ffffff;fill-opacity:1;stroke:none" />
    <polygon
       transform="translate(-393.24286,-443.67351)"
       class="st1"
       points="756.4,442.6 774,451.7 691.2,456 728.9,465.6 687,451.1 706.6,465.7 780.8,519.7 705.4,479.1 744.1,536.7 703.8,538 686.9,517.9 708.9,486 662.8,499.4 756,458.7 665.7,472.9 677.7,460.7 666.5,448.8 639.7,427.5 688.4,434.6 682.1,417 675.1,379.4 719.8,464 700,478.1 749.7,411.2 710.2,456.6 729.7,447.8 "
       id="polygon1217"
       style="fill:#ffffff;fill-opacity:1;stroke:none" />
    <polygon
       transform="translate(-393.24286,-443.67351)"
       class="st0"
       points="683.5,393.3 755.4,383 792.2,403.6 761.7,407.6 763.8,420.1 767.4,433.3 730.1,418.4 747.3,464.8 726.2,377.5 668.3,463.6 664.5,439.8 702.1,405.9 658.5,411.6 657.2,398.4 710.8,385.5 743.1,387 697.4,371.5 676.6,352.1 671.9,331.6 694.7,331.6 720.5,391.6 740.3,313.5 696.5,390.4 769.3,333 745.1,364.6 "
       id="polygon1219"
       style="fill:#ffffff;fill-opacity:1;stroke:none" />
    <polygon
       transform="translate(-393.24286,-443.67351)"
       class="st1"
       points="683.5,393.3 755.4,383 792.2,403.6 761.7,407.6 763.8,420.1 767.4,433.3 730.1,418.4 747.3,464.8 726.2,377.5 668.3,463.6 664.5,439.8 702.1,405.9 658.5,411.6 657.2,398.4 710.8,385.5 743.1,387 697.4,371.5 676.6,352.1 671.9,331.6 694.7,331.6 720.5,391.6 740.3,313.5 696.5,390.4 769.3,333 745.1,364.6 "
       id="polygon1221"
       style="fill:#ffffff;fill-opacity:1;stroke:none" />
    <path
       inkscape:connector-curvature="0"
       class="st0"
       d="m 15.85714,121.12649 -0.2,-2 23,-2 -122.6,-22.500004 2,17.000004 -14.5,7.8 -14.1,-34.500004 1.9,-0.8 13.2,32.500004 11.4,-6.1 -1.9,-16.300004 -1.5,-0.3 0.3,-2 0.9,0.1 -13.8,-116.599993 8.6,9.599999 19.8,44.7 -15.7,-61.999999 0,-0.1 -0.6,-33.8 40.4,100.599998 2.2,13.2 4.8,-10.9 1.9,0.8 -4.2,11.4 0.6,6.7 6.6,0.9 10.1,-8 1.3,1.5 -8.1,6.9 12.1,1.699996 98.5,-41.599995 -9.3,32.899999 -41.3,17.399995 -47.7,-6.699999 -14.3,5.999999 63.1,28.1 23.1,13.700004 -2.3,4.7 -86.5,-12.4 90.8,16.6 -38,3.8 z m -100.1,-28.700004 132.3,18.900004 0.8,-1.7 -21.4,-12.700004 -64.6,-28.8 -4,1.7 0.9,10.4 -2,0.3 -1.6,-9.6 -9.7,4.1 -13.9,11.8 5.2,-8.2 -2.3,1 3.5,-2.8 4.3,-6.8 5,-8.499999 -22.9,-10.199996 26,3.6 1.7,-3.8 -2.6,-16.1 -36.2,-90.199999 0.4,22.700001 18.5,73.299998 -1.9,0.6 -24.5,-55.299999 -4.1,-4.5 13.1,110.799994 z m 34.3,-30.099999 -5.1,8.699999 -1.2,1.8 10.8,-8.599999 -4.5,-1.9 z m 5.6,4.899999 -4.1,3.5 4.4,-1.8 -0.3,-1.7 z m 2.8,-1.1 0.1,1.5 1.7,-0.7 -1.8,-0.8 z m 0.6,-1.899999 3.8,1.699999 12.9,-5.499999 -10.5,-1.5 -6.2,5.3 z m 24.2,-4.8 43.8,6.1 39.9,-16.899996 7.9,-27.899999 -91.6,38.699995 z m -32.3,1.2 3.8,1.7 -0.8,-4.9 -1.5,-0.2 -1.5,3.4 z m 6.8,-2.7 0.3,3.7 3.9,-3.1 -4.2,-0.6 z m -18.7,-2.599996 10.1,4.499996 1.3,-2.899996 -11.4,-1.6 z m 14.3,-0.1 0.3,0 -0.1,-0.6 -0.2,0.6 z m 1.7,-3.8 0.2,1.4 -0.1,-1.6 -0.1,0.2 z"
       id="path1223"
       style="fill:#ffffff;fill-opacity:1;stroke:none" />
    <path
       inkscape:connector-curvature="0"
       class="st0"
       d="m -80.14286,117.52649 -0.1,-2 156,-11.1 10.600003,-11.400004 -24.600003,-7.9 24.600003,-16.8 -22.900003,-3.599999 -23.7,2.699999 -0.7,1.4 0.3,-1.4 -25.6,2.9 27.8,-11.899999 1.9,-7.499996 -117.3,30.199995 -0.6,-1.9 84.7,-28.299995 -32.7,-6 40.6,-1.9 -66.3,-30.799999 34.2,2.6 -28.7,-32.7 78,52.699999 1.6,-9.699999 -1,-1.2 -34.3999996,-92.499999 1.8,-0.9 32.5999996,54.799999 0,0.2 3.8,34.4 -0.7,4.5 3.2,3.8 17.9,-36.0000004 -11,44.1999994 2.1,2.5 21,-43.2999994 9.000003,-3.9 -1,37.6000004 7.6,-7.7 7.799998,-85.699999 2,0.2 -7.899998,86.399999 -11.600003,11.799999 1.1,-39.4999994 -5.4,2.4 -21.1,43.3999994 3.9,4.7 38.100001,-9.8 0.6,1.9 -32.900001,14.1 4.9,4.6 -1.2,1.599996 -7,-4.699996 -15.8,6.799996 -2.6,5.4 22.7,-2.6 0.1,0 28.000001,4.399999 -25.300001,17.3 23.700003,7.7 -13.300003,14.300004 -0.4,0 -156.4,11.2 z m 75.3,-71.599999 23.3,4.3 -65.2,21.799995 79.5,-20.499995 2.4,-14.8 -66,-44.4999994 21.8,24.8000004 -28,-2.2 63.6,29.599999 -31.4,1.5 z m 45.9,14.899996 -13.9,5.999999 12.7,-1.499999 1.2,-4.5 z m 7.4,-11.299996 -3.6,7.5 12.5,-5.4 -4.7,-3.2 -4.2,1.1 z m -9.5,-10.2 -6,12.1 11.2,-2.9 1.2,-5 -6.4,-4.2 z m 6.8,10.9 -0.1,0.3 0.1,-0.3 0,0 z m 13.2,-2.1 2,1.9 21.700003,-9.3 -24.600003,6.4 0.9,1 z m -3.8,-0.3 2.3,1.6 -1.5,-1.8 -0.8,0.2 z m -8,-3 -0.8,3.2 0.7,-0.2 1.1,-2.3 -1,-0.7 z m 2.7,1.8 -0.3,0.5 0.8,-0.2 -0.5,-0.3 z m 0.8,-1.8 2.2,1.5 1.6,-0.4 -2.8,-3.3 -1,2.2 z m -3,-2 1.4,0.9 1.4,-2.8 -1.8,-2.1 -1,4 z m -7.8,-5.3 6,4 1.2,-4.7 -4.3,-5.1 -2.9,5.8 z m -2.9,0.5 -0.2,1.4 0.6,-1.2 -0.4,-0.2 z m 0.4,-2.2 0.9,0.6 3.2,-6.299999 -2.6,-3.2 -1.5,8.899999 z m 6.4,-5.999999 3.9,4.699999 6.2,-25.0999994 -10.1,20.4000004 z M 7.3571404,-59.173507 37.55714,21.826492 l 0.3,-2.2 -3.8,-33.9 -26.6999996,-44.899999 z"
       id="path1225"
       style="fill:#ffffff;fill-opacity:1;stroke:none" />
    <path
       inkscape:connector-curvature="0"
       class="st0"
       d="m -99.34286,96.726486 -2,-0.1 0.7,-9.5 -1.5,-0.5 2.2,-9.6 6,-84.0999944 15.2,-32.8999986 -13.4,91.899998 -5.3,23.099995 43,-105.099993 -13,-19.7 1.6,-1.2 13.3,16.2 1.5,-3.6 -1.8,-1.5 2.1,0.8 6,-14.600001 1.9,0.7 -4.7,15.100001 105.3,41.2999986 -25.1,-22.9999996 2.3,-14.499999 -8.7,-12.8 10.8,-14.6 0.2,-0.1 37.7,-21.200004 -67.4999996,15.500004 -75.0000004,15.5 24,-17.5 -14.5,-6.200004 9.9,-12.3 4.6,-8.4 -44.6,-8.599999 0.4,-2 47.3,9.099999 -6.1,11.1 -8.3,10.3 15.3,6.500004 -19.4,14.099999 65.9000004,-13.599999 80.9000026,-18.600004 -49.500003,27.900004 -9.7,13.2 8.3,12.2 -2.2,14.299999 32.2,29.5999996 -108.6,-42.5999986 26.7,21.799999 34.6,38.6 -53.1,-35.5000004 -16.9,-20.5999986 -0.3,1 11.9,18.0999986 1.7,52.4999994 -2,0.2 -5.7,-37.0999994 -22.7,48.8999994 -8.8,-7.5 23.4,-74.799998 -0.2,-0.3 -45.2,110.599993 -1.1,14.1 z m 7.4,-103.2999944 -5.1,70.8999954 3,-12.799996 11.4,-78.199998 -9.3,20.0999986 z m 17.9,52.8999994 5.8,5 24.4,-52.4999994 4.2,27.1000004 -1.2,-35.2000004 -10.7,-16.3999986 -22.5,71.999998 z m 41.9,-56.1999994 39.6000004,26.5000004 -24.0000004,-26.8 -31.8,-25.999999 -1.5,4.7 17.7,21.5999986 z m -20.1,-20.4999986 0,0 0.3,-0.6 0,0 -0.3,0.6 z m -3.1,-4.7 1.8,2.7 0.1,-0.4 -1.9,-2.3 z"
       id="path1227"
       style="fill:#ffffff;fill-opacity:1;stroke:none" />
    <path
       inkscape:connector-curvature="0"
       class="st0"
       d="m -45.44286,39.226491 -1.5,-1.4 69.6,-77.799998 -48.4,29.199999 -1.1,-1.7 51.6,-33.399999 -104.2,-39.300004 0.6,-1.9 54.1,11.7 -19.2,-12.3 -33,-14.899999 -0.1,-3.6 -5.4,-0.4 0.2,-2 96.7,7.6 0.2,0.1 31.1,13.599999 0.4,-0.5 -0.2,0.6 2.5,1.1 -2.7,-0.4 -5.3,18.600004 4.8,10.799999 13.9,-14.299999 -8.2,13.099999 19.5,4.7 -1.3,-8.699999 1.9,-0.5 17.800003,54.3999986 -1,-95.6000016 2,-0.1 13.599997,132.900002 -2,0.2 -11.399997,-111.000003 0.9,86.5000026 -18.100003,-55.2999986 1.1,7.3 1.2,4.5 -0.5,0 8.700003,56.999999 -9.900003,-5.9 -23.3,-52.999999 -9.7,-0.7 -0.8,1.2 4.7,26.299999 -2,0.4 -5.2,-22.699999 -10.5,16.699999 -12.1,42.4 -22.5,9.099999 32.8,-52.399999 5.2,-18.099999 -75.5,77.899998 z m 68.1,-52.599999 -25.8,41.3 15.9,-6.5 9.9,-34.8 z m 52.1,24.2 5.700003,3.4 -8.100003,-53.299999 -20.1,-1.5 22.5,51.399999 z m -46.2,-54.199999 -39.9,44.5999986 42.3,-43.6999986 0.3,-0.9 -1.6,-0.6 -1.1,0.6 z m 4.2,1.9 -4.3,15 7.8,-12.5 -0.7,-2.9 -0.5,-0.1 -1.4,-0.5 -0.9,1 z m 18.6,-1.2 20.7,1.6 -0.3,-1.8 -2.3,-8.7 -19.5,-4.700001 -0.9,0.5 -2.1,3.400001 4.4,9.7 z m -9.9,-0.8 7.6,0.6 -3.3,-7.5 -4.3,6.9 z m -2.6,-0.2 0.3,0 5.6,-9 -0.2,-0.500001 -1.5,0.900001 -4.8,5 0.6,3.6 z m -11.7,-1.3 -1.2,0.8 1.2,-0.8 0,0 z m 7.1,-1.9 -0.4,1.3 0.7,-0.7 -0.2,-0.7 -0.1,0.1 z m -100.3,-35.300004 92.9,35.000004 6.5,-4.2 -5.6,-24.300004 1.6,-13.1 -104.4,-14.999999 0,0 32,14.399999 28.8,18.400004 -51.8,-11.200004 z m 103.2,29.100003 0.3,1.900001 4.3,-2.600001 1.7,-1.8 -4.1,-9.399999 -2.7,9.299999 0.3,1.8 1.8,-1.1 -1.6,1.9 z m -7.3,-22.800003 4.7,20.600003 0.1,-0.4 -2.5,-13.899999 3.2,-4.300004 -4.6,-10.4 -0.9,8.4 z m 4.5,6.800004 1.6,9 2.2,-7.7 -1.8,-4.000004 -2,2.700004 z m 3.4,-4.500004 1.2,2.800004 2.1,-7.200004 -3.3,4.4 z m -6.6,-15 5.6,12.9 8.2,-10.9 -13.8,-2 z m -0.9,-2.2 3.7,0.5 -20.1,-8.8 -90.3,-7.099999 106.2,15.399999 0.1,-0.9 0.4,0.9 z"
       id="path1229"
       style="fill:#ffffff;fill-opacity:1;stroke:none" />
    <polygon
       transform="translate(-393.24286,-443.67351)"
       class="st0"
       points="237.4,366 236.1,343 251.1,340.7 250.1,367.1 255.8,372.9 263.8,373.3 272.7,337 274.6,337.5 265.3,375.4 255,374.8 248.1,367.9 249,343 238.2,344.7 239.7,370 214.1,352.1 237.8,377.3 245.6,381.9 198.6,386.5 232.7,385.4 186.2,408.5 275,388.8 275.6,390.7 214.6,411.8 211.5,417 209.8,416 213.3,410.2 258.6,394.5 170.6,414 223.5,387.7 168,389.5 167.9,387.5 239.3,380.5 236.4,378.7 199.4,339.3 "
       id="polygon1231"
       style="fill:#ffffff;fill-opacity:1;stroke:none" />
    <path
       inkscape:connector-curvature="0"
       class="st0"
       d="m -119.94286,145.52649 -12.5,-39.3 5.4,28.2 -21.2,-34.700004 -11,39.000004 -12.7,-27.1 22,-27.900004 -14,0.4 -23,13.5 -21.5,-14.3 43.9,-1.2 13,-7.6 -20.1,-9.199999 -10.4,-10.899996 -14.8,-9 54.7,-3.8 0.1,2 -48.4,3.3 9.8,6 10.2,10.699996 21,9.599999 19.2,-11.299999 -11.6,14.799999 13.9,6.4 -19.3,0.5 -22.2,28.300004 9.9,21.2 10.8,-38.200004 17.8,29.200004 -6.6,-34.100004 1.9,-0.5 13.6,42.700004 -0.4,-31.6 2,0 0.5,44.9 z m -82.2,-60.500004 15.2,10.1 18.8,-11.1 -34,1 z m 52.7,-9.6 -11,6.5 12.1,-0.3 3.3,-4.2 -4.4,-2 z m 6.2,2.8 -2.6,3.2 9.1,-0.3 -6.5,-2.9 z m -4.1,-4.1 3.5,1.6 5.3,-6.8 -8.8,5.2 z"
       id="path1233"
       style="fill:#ffffff;fill-opacity:1;stroke:none" />
    <path
       inkscape:connector-curvature="0"
       class="st0"
       d="m -244.04286,-30.473507 -0.3,-2 40.3,-6.8 4.3,-6.4 -14.9,-4 25.9,-16.3 13.6,-7.900004 -6.6,-2.8 -22.5,3 -7.9,-7.6 -31.8,-23.799999 62.5,26.299999 7.4,-1 -56,-45.199999 34.4,15.1 -6.6,-54.8 24.7,43.1 30.9,-54.3 -3.7,33.9 0.5,12.5 0,0.1 -5.6,62.200003 0.1,0.1 10.7,-14.500004 1.6,1.2 -10.7,14.600004 2.7,2.2 -3.3,-1.4 -3.7,5.1 0.6,-6.4 -0.1,0 -15.2,-6.400004 -14.9,8.700004 -22,13.8 13.2,3.6 -6.3,9.4 -41.3,6.7 z m 77.2,-45.900004 9.5,7.600004 5.5,-60.800003 -0.5,-12.5 0,-0.1 2.7,-24.3 -27.8,49 -21.6,-37.6 5.8,48.6 -24,-10.5 45.9,36.999999 14,-1.9 -9.5,5.5 z m -3.9,2.3 7.3,3.100004 -5.3,-4.300004 -2,1.2 z m -7.2,-3 4.9,2 2.7,-1.6 -1.6,-1.3 -6,0.9 z m -51.8,-19.7 18.9,14.1 7.3,7 18.1,-2.4 -44.3,-18.7 z m 60.5,18.5 0.7,0.6 1.5,-0.9 -2.2,0.3 z"
       id="path1235"
       style="fill:#ffffff;fill-opacity:1;stroke:none" />
    <path
       inkscape:connector-curvature="0"
       class="st0"
       d="m -195.34286,153.52649 -1.8,-0.8 15,-39.4 -1.5,-13.1 -25,11.6 -43.1,5 67.5,-22.200004 -0.8,-6.6 -31.7,-2.1 -0.2,-0.1 -37.9,-21.999999 85,19.399999 -11.4,-10.4 -59.3,-20.199995 5.7,-3.7 0.5,-3.2 2,0.3 -0.6,4.1 -3,1.9 55.7,18.999995 0.2,0.1 13.7,12.6 8.8,-9.2 -5.7,12 0.4,0.3 -0.5,-0.1 -0.3,0.7 6.4,0.4 -7.9,2.6 -8.3,17.300004 14.7,28.5 0.6,-16.1 7.9,15.2 3,-72.200003 2,0.1 -3.3,79.700003 -7.9,-15 -0.6,16.2 -17.5,-33.9 -20.8,43.3 z m 13.6,-54.100004 1.6,14.300004 -6.5,17.1 11,-22.9 -4.7,-9.100004 -1.4,0.6 z m -2.3,-2.7 -48.4,15.900004 23.3,-2.7 25.3,-11.800004 -0.2,-1.4 z m 5.5,1.2 3.9,7.700004 6.8,-14.200004 -4.3,1.4 -3.6,3.8 -2.8,1.3 z m -3.6,-1.8 0.1,1.2 0.7,-0.3 -0.5,-1 -0.3,0.1 z m 2.3,-0.8 0.4,0.8 2.6,-1.2 0.8,-0.8 -3.8,1.2 z m -3.7,-7.1 2.8,5.4 7.6,-2.5 2,-2.1 -12.4,-0.8 z m 14.9,1 -0.5,0.6 1.5,-0.5 -1,-0.1 z m 1.8,-1.9 1,0.1 0.5,-1 -0.5,-0.1 -1,1 z m -17.8,-1.2 15.1,1 1.3,-1.4 -74.3,-16.9 26.3,15.2 30.8,2.1 -0.2,-1.7 1,1.7 z m 19.8,-1 0,0 0,0 0,0 z"
       id="path1237"
       style="fill:#ffffff;fill-opacity:1;stroke:none" />
    <polygon
       transform="translate(-393.24286,-443.67351)"
       class="st0"
       points="306.7,586.2 282.9,584.6 284.1,588.6 330.8,612.5 304.1,618.7 306,629.1 337.4,613.7 309.6,662.2 327.9,679.4 351,671.4 361.7,671 351.3,622 358.6,606.7 370.1,616.5 368.8,618.1 359.2,609.9 353.4,622.2 364.1,672.9 351.3,673.4 327.4,681.7 307.1,662.6 332.4,618.4 304.5,632 301.8,617.2 325,611.8 282.4,590 280.1,582.4 306.5,584.2 324.1,578.9 324.7,580.8 "
       id="polygon1239"
       style="fill:#ffffff;fill-opacity:1;stroke:none" />
    <path
       inkscape:connector-curvature="0"
       class="st0"
       d="m 44.55714,217.22649 -3.3,-28.1 2,-0.2 2.5,20.7 8.6,-20.1 9.8,-18.4 -18.3,-6.9 22.2,-0.4 2.4,-4.5 -4.3,0.8 -3.5,-11.5 17.500003,-11.1 1.1,1.7 -16.500003,10.1 2.5,8.3 4.1,-0.8 7.4,-14 -2.2,13 51.9,-10.1 -27.1,19.3 -26.4,0.5 -1.2,6.9 24.600001,9.2 -1.1,13.2 -21.000001,-15 4.800003,34.1 -1.900003,0.5 -9.7,-28.3 2.2,-12.5 -5.6,-2.1 -9.8,18.6 -11.7,27.1 z m 26.8,-31.1 6.2,18 -4,-28.4 22.000001,15.6 0.7,-8.2 -22.800001,-8.6 -2.1,11.6 z m -4.6,-16.2 5,1.9 1.1,-6.2 -3.8,0.1 -2.3,4.2 z m -10.6,-4 8.8,3.3 1.8,-3.5 -10.6,0.2 z m 16.6,-7.2 -2.6,5 3.1,-0.1 0.9,-5.2 -1.4,0.3 z m 3.5,-0.7 -1,5.6 25.4,-0.5 19.1,-13.6 -43.5,8.5 z m -1.5,-3 -0.8,1.4 0.5,-0.1 0.3,-1.3 z"
       id="path1241"
       style="fill:#ffffff;fill-opacity:1;stroke:none" />
    <path
       inkscape:connector-curvature="0"
       class="st0"
       d="m -25.54286,282.72649 -8.9,-17.5 -25.5,-55 -6.8,49.3 -2,-0.3 4.4,-37.9 -1.7,-17.1 -0.4,-0.1 -60.8,62.2 24.8,-41.9 -42.1,5.8 34.5,-26 -37.4,-22.3 80.4,20.1 0.2,-0.2 0.4,-1.2 -30,-16.4 -32.3,-15.6 58.3,5 -48.8,-7.9 0.3,-2 61.9,10.1 3.5,-10 -1.4,10.4 11.1,1.8 -0.2,2 -11.2,-1 -3.5,25.4 12.4,6.8 -12.9,-3.2 -0.1,0.6 26.8,57.8 4.5,8.9 -0.9,-14 3.7,-1.4 0.7,1.9 -2.3,0.9 1.3,22 z m -73,-60.8 -18.5,31.2 48.4,-49.4 -66.1,-16.5 28.3,16.9 -30.7,23.2 38.6,-5.4 z m 34.7,-17 1.2,11.5 1.3,-9.4 -0.7,-1.6 -1.8,-0.5 z m -0.3,-2.1 0.9,0.2 -0.4,-0.8 -0.6,-0.3 0.1,0.9 z m 2,-2.1 1.4,0.8 2.5,-18.2 -5.2,14.7 1.3,2.7 z m -55.9,-29.1 22.5,10.9 29,15.8 -0.9,-9.2 2.9,6.3 6.5,-18.5 -60,-5.3 z"
       id="path1243"
       style="fill:#ffffff;fill-opacity:1;stroke:none" />
    <path
       inkscape:connector-curvature="0"
       class="st0"
       d="m 130.65714,272.92649 -39.399997,-46 -2.6,-18.6 -6.7,0.5 -7.600003,41.5 -2,-0.4 0,0 7.4,-41 -2.4,0.2 -17.1,32.7 2,-31.6 -8.6,0.7 -7.7,61.3 -2,-0.2 12.5,-99.7 8.5,27.6 -0.5,7.9 13.4,-3.8 0.9,-1.8 -10.5,1.7 -2.1,-12.4 18.500003,-9.1 1.4,-7.7 0.9,6.6 13.499997,-6.6 -7.299999,-6.7 1.3,-1.5 9.499999,8.6 -16.699997,8.2 2.1,15.2 17.499997,-2.8 0.4,1.9 -17.399997,5 0.5,3.6 12.999997,-1 0.3,0.3 50.5,43.1 -30.3,-6.5 6.8,30.8 z m -37.499999,-46.8 33.799999,39.5 -5.7,-26.1 25.6,5.5 -44.1,-37.7 -12.099997,0.9 2.499998,17.9 z m -28.900001,-15.9 -1.5,22.5 12.2,-23.3 -10.7,0.8 z m -6.9,-28.3 -3.6,29 8.7,-2.5 0.5,-8.2 -5.6,-18.3 z m 19.2,24.6 -3.8,1.1 3.4,-0.3 0.4,-0.8 z m 2.6,-0.8 -0.7,1.4 1.700003,-0.1 0.3,-1.6 -1.300003,0.3 z m 3.600003,-1 -0.4,2.1 6,-0.5 -0.4,-3.2 -5.2,1.6 z m -1.8,-2.4 -0.5,1 0.4,-0.1 0.1,-0.9 z m 2.4,-0.8 -0.2,1 4.5,-1.3 -0.1,-0.4 -4.2,0.7 z m -15.000003,-8.8 1.5,9 10,-1.6 2.300003,-4.3 1.9,-10.8 -15.700003,7.7 z m 21.200003,7.8 0,0.1 1.1,-0.3 -1.1,0.2 z m -3.9,-11.4 -1.9,10.4 3.6,-0.6 -1.6,-11.5 -0.4,2.4 0.3,-0.7 z"
       id="path1245"
       style="fill:#ffffff;fill-opacity:1;stroke:none" />
    <path
       inkscape:connector-curvature="0"
       class="st0"
       d="m 167.35714,92.326486 -2,-0.2 1.4,-24.4 -7.9,1.4 -10.1,1.9 -1.4,-5.599999 -1.9,-0.2 1.8,-0.6 -7.1,-28.199996 1.9,-0.5 7,27.999996 16,-5 -4.4,-3.999996 11.7,1.7 49.7,-15.6 0.9,-6.1 -53.6,9.9 -25.4,-8.3 91.9,-12.499999 0.3,2 -83.2,11.299999 16.6,5.4 55.9,-10.3 -1.5,10.1 -51.3,16.099996 -0.6,3.8 3.4,3.1 32.3,2.599999 -0.1,2 -22,-1 -4.4,4.5 -6.7,-6.1 -3.3,-0.3 -3.9,25.1 z m 1.5,-25.3 -0.3,4.6 0.7,-4.5 -0.4,-0.1 z m 9,0.8 3.3,3 2.5,-2.6 -5.8,-0.4 z m -28.4,-2.299999 0.8,3.099999 11.6,-2.1 -12.4,-0.999999 z m 22.1,-0.2 0.6,0 -0.5,-0.5 -0.1,0.5 z m -15.8,-1.3 13.8,1.1 0.3,-1.9 -3,-2.7 -11.1,3.5 z m 13.3,-4.2 1.2,1.1 0.2,-1.5 -1.4,0.4 z m -2.1,-1.9 0.4,0.4 0.7,-0.2 -1.1,-0.2 z"
       id="path1247"
       style="fill:#ffffff;fill-opacity:1;stroke:none" />
    <path
       inkscape:connector-curvature="0"
       class="st0"
       d="m 181.05714,-32.273507 -35.3,-14.3 -1.7,11 -2,-0.3 1.8,-11.5 -1.5,-0.6 1.5,0.2 5.2,-33.100004 -9.4,-55.799989 14.3,26.09999 5.6,-13.4 15.4,45.599999 -5.4,8.600004 46.5,-23.000004 1,1.8 -45.1,26.600004 62,9.899999 -27.3,4.100001 32.7,16.6 -82.2,-10.4 24.4,9.9 -0.5,2 z m -35.2,-15.2 82.5,10.4 -28,-14.2 20.8,-3.100001 -51.7,-8.299999 -13.6,8.099999 -1.1,-1.7 8,-5.999999 0.8,-1.3 -4.6,-0.7 7.4,-3.6 6.6,-10.500004 -13.4,-39.699999 -5.2,12.4 -10.6,-19.4 7.5,44.499999 0,0.2 -5.4,32.900004 z m 19.9,-15.8 -0.5,0.8 1.1,-0.7 -0.6,-0.1 z m 1.1,-1.9 2.2,0.4 24.3,-14.400004 -25.6,12.700004 -0.9,1.3 z"
       id="path1249"
       style="fill:#ffffff;fill-opacity:1;stroke:none" />
    <path
       inkscape:connector-curvature="0"
       class="st0"
       d="m 165.25714,149.22649 -1.1,-9.5 1.9,-0.2 15.5,-50.700004 6.9,-12.5 -16.9,5.1 6.7,-8.7 -0.5,-7.499999 5.2,2.899999 1.2,-1.3 5,4.7 1.5,0.8 2.3,-4.1 -3.3,0.7 4.1,-2.1 19.8,-35.699994 -57.7,-1 0,-2 126.7,2.2 -33.8,8.699999 -12.4,8.3 -27.2,13.899996 -0.5,1.5 64.2,-13.999996 0.5,1.9 -67.3,20.299995 -2.7,8.4 9.6,5.3 -11.1,1.6 -0.6,-0.5 -0.1,0.3 -0.8,-0.7 -21.4,59.600004 -1.9,-0.6 19.2,-63.000004 -5.4,-5.2 -7.5,13.4 -18.1,59.700004 z m 32.7,-66.200004 -7.1,23.400004 8.1,-22.500004 -1,-0.9 z m 4,0.7 0.6,0.5 4.2,-0.6 -4.1,-2.2 -0.7,2.3 z m -3.3,-3.1 1.1,1 0.6,-1.5 -1.2,-0.7 -0.5,1.2 z m -3.7,-3.4 2,1.9 0.2,-0.7 -2.2,-1.2 z m 4.7,0.2 1.3,0.7 2.2,-6.2 -2.1,0.6 -1.4,4.9 z m -19.7,-8.5 0.3,4.6 -3.3,4.3 11.8,-3.6 -1.1,-1.1 -7.7,-4.2 z m 14.5,5.7 3.4,1.9 1,-3.2 -4.4,1.3 z m 1.1,-6.8 -2.9,5.3 6.8,-2.1 1.3,-4.3 -5.2,1.1 z m 7.5,-1.7 -1.3,4.2 2.2,-0.7 1.4,-3.999999 -2.3,0.499999 z m 4.9,-0.999999 -1.2,3.699999 41.4,-12.499995 -40.2,8.799996 z m -1.6,-16.699996 -9.5,16.999996 5.1,-2.6 4.4,-14.399996 z m 0.1,14.299996 -2.1,1.1 1.9,-0.4 0.2,-0.7 z m 7.2,-31.399995 -9.2,30.199995 3,-1.5 0.1,-0.2 0.2,0.1 27.7,-14.099996 12.5,-8.4 19.8,-5.1 -54.1,-0.999999 z"
       id="path1251"
       style="fill:#ffffff;fill-opacity:1;stroke:none" />
    <path
       inkscape:connector-curvature="0"
       class="st0"
       d="m 201.05714,-45.973507 -0.1,-2 56.5,-2.2 -44,-10.5 0.4,-2 52.4,8.399999 -64.4,-24.400003 -0.7,0.3 -0.3,-0.7 -20.8,-7.9 1.2,14 -2,0.2 -2,-15.3 -5.3,-2 0.6,-1.9 4.4,1 -10.4,-81.299999 2,-0.3 6.4,49.9 -1.6,-18.6 24.4,50.699999 -21.3,-72.299999 22.2,26.50001 7.8,23.59999 -3.9,8.3 65.7,-47.6 -34.2,38 55.6,-11.2 -62.9,31.899999 1.9,5.8 24.2,16.600004 -51,-12.000004 0.7,2.4 82.8,31.400004 -45.2,-7.200001 32,7.600001 -71.1,2.8 z m 0.1,-39.200004 41.7,9.8 -15.9,-10.9 -2.6,-8.1 51,-25.799999 -47.1,9.5 25.7,-28.5 -56.6,40.999999 3.8,13 z m -14.3,-1.3 12.7,4.8 -1,-2 -11.7,-2.8 z m -7.2,-3.8 17.8,4.2 -21.3,-44.399999 3.5,40.199999 z m 1.2,-63.799999 16.5,55.799999 6.8,-14.499999 -7.5,-22.49999 -15.8,-18.80001 z"
       id="path1253"
       style="fill:#ffffff;fill-opacity:1;stroke:none" />
    <path
       inkscape:connector-curvature="0"
       class="st0"
       d="m 79.65714,-134.17351 -0.7,-1.89999 15.300001,-5.70001 -16.500001,-7 1.1,5.8 -3,-6.6 -4.4,-1.9 -3.1,7.7 -0.7,-9.3 -7.1,-3 -7.1,4.8 -1.2,-1.6 5,-4.6 -8.9,-3.8 0.1,-12.7 17.7,3.5 -17.8,-38.6 -4.7,-10.7 -1.5,47.3 -2,-0.1 1.8,-56.2 8.2,18.8 15.8,34.2 -2.9,-39.6 2,-0.3 8.3,43.4 6.4,-5.8 7.200003,-18.3 16.099997,-0.2 -21.599997,19.9 -3.100003,7.9 44.5,9.4 -0.4,2 -45.1,-8.8 -1.9,4.8 2,10.3 22.300001,9.4 -20.100001,7.5 z m -7.5,-19.1 2.4,1 -1.5,-3.3 -0.9,2.3 z m -2.6,-1.1 0.7,0.3 1.6,-4 -2,-4.2 -0.9,0.6 0.6,7.3 z m -7,-3 5,2.1 -0.4,-5.2 -4.6,3.1 z m -12.2,-5.1 8.5,3.6 7.8,-7.1 -0.2,-2.3 -16.1,-3.2 0,9 z m 16.6,-1 -3.4,3.1 3.4,-2.3 0,-0.8 z m 4.7,0 1.3,2.8 0.4,-0.9 -0.5,-2.6 -1.2,0.7 z m -2.8,-1.3 0.1,0.8 0.2,-0.2 -0.3,-0.6 z m 5.7,-0.7 0.1,0.4 0.2,-0.6 -0.3,0.2 z m -4.3,-1.1 0.6,1.2 1.6,-1.1 -0.2,-0.9 -1,-0.2 -1,1 z m 3.7,-2.4 1.8,0.3 0.5,-0.3 1.9,-4.7 -4.3,3.9 0.1,0.8 z m -5.3,-1 2,0.4 1,-0.9 -5.3,-27.5 2,27.5 0.3,0.5 z m 19.600003,-24.2 -5.2,13.2 14.699998,-13.4 -9.499998,0.2 z"
       id="path1255"
       style="fill:#ffffff;fill-opacity:1;stroke:none" />
    <path
       inkscape:connector-curvature="0"
       class="st0"
       d="m -52.34286,-136.2735 -33.3,-4.80001 -8.4,-2.8 -6.3,-4.9 22.3,-16.6 21.2,-3.1 -0.7,-3.1 -16.1,-14.9 16.2,6.2 1.7,7.6 1.3,1.3 6.4,-33 2,0.3 -2.4,32.1 13.5,-23.9 3.7,13.7 6.6,-14.6 1.8,0.8 -8.9,19.7 -3.9,-14.4 -13.2,23.3 -0.1,0.8 8.8,8.4 -1.4,1.5 -7.7,-7.1 -1.7,23.3 -3.6,-16.9 -4,7 2.6,-13.5 -0.6,-2.8 -20.9,3.1 -19.6,14.9 4,3.1 8,2.6 33.1,4.7 -0.4,2.00001 z m -0.6,-23.50001 1.2,5.6 0.7,-8.9 -1.9,3.3 z m -0.8,-3.9 0.2,0.9 1.9,-3.3 -1,-0.9 -0.5,0.1 -0.6,3.2 z m 2,-5.4 1,1 1.4,-18.7 -3.3,17.2 0.6,0.6 0.3,-0.1 z m -3.2,0 0.1,0.4 0,0 0.1,-0.3 -0.2,-0.1 z m -9.7,-11.7 6.4,5.9 -0.8,-3.8 -5.6,-2.1 z"
       id="path1257"
       style="fill:#ffffff;fill-opacity:1;stroke:none" />
    <path
       inkscape:connector-curvature="0"
       class="st0"
       d="m 111.35714,-162.97351 -0.5,-1.9 15.7,-4.2 5.9,-3.2 17.5,2.6 -63.699997,-27.8 -13.500003,22.1 3.3,-14.2 -1.6,0.6 -6,-12.7 -11.6,-2.2 0.2,-2 9.4,0 -0.1,-0.3 -3.6,-1.6 0.6,-1.9 1.5,0.4 -10.7,-22.6 -6.8,-2.6 -6.1,-21.6 1.9,-0.5 5.8,20.6 6.6,2.5 11.8,24.8 2.3,0.6 -19.2,-76.1 1.9,-0.6 29.700003,67.3 2.7,-8.9 1.9,0.5 -4.7,19.9 6.9,0 31.599997,-52.2 1.7,1 -26.399999,46.8 51.899999,-37 1.2,1.6 -48,41.9 -10.799997,0 -0.3,0.2 -0.5,0.8 48.299997,12.2 -0.4,2 -45.999997,-8.6 73.199997,31.9 -31.8,-4.7 -5.6,3 -15.6,4.1 z m -30.899997,-36.5 -2.900003,12.2 6.700003,-11.1 -1.7,-0.7 -2.1,-0.4 z m -6.900003,-1.3 2.7,10.6 2.3,-9.7 -5,-0.9 z m 14.200003,0.6 18.799997,3.5 -18.199997,-4.6 -0.6,1.1 z m -16.900003,-1.1 1,2.2 -0.5,-2.1 -0.5,-0.1 z m 12.300003,0.3 2.5,0.5 0.7,-1.2 -5.1,-1.3 -0.3,1.1 2.2,0.9 z m -10.100003,-1.9 1.4,0.3 -1.5,-0.7 0.1,0.4 z m 3.4,-1.1 2.7,1.2 0.2,-0.8 -1.7,-0.4 -1.2,0 z m -6.6,0.5 1,0.2 -0.2,-0.6 -1.1,0 0.3,0.4 z m 15.900003,-0.5 1.7,0.4 0.3,-0.4 -2,0 z m -13.900003,-3.5 6.1,1.5 2,0 1.700003,-7.3 -26.400003,-59.8 16.6,65.6 z m 60.4,-26.5 -39.199999,28 7.199999,0 32,-28 z"
       id="path1259"
       style="fill:#ffffff;fill-opacity:1;stroke:none" />
    <path
       inkscape:connector-curvature="0"
       class="st0"
       d="m -155.64286,-164.47351 84,-22.4 -0.8,-6.7 2,-0.3 0.8,6 3,-5.4 -0.6,-1 -5.3,-1.9 -73,20.1 31.8,-23.3 -32.4,-25 73.7,26.1 1.5,-0.4 -19.6,-23 -10.2,-32.8 32.7,54.9 5.7,-1.6 13.6,-24.2 -1.2,20.7 4.7,-1.3 12.3,-44.4 4.3,-2.3 0.9,1.8 -3.6,1.9 -23,82.6 1.6,-28.7 -4.4,6.1 -4.1,1.1 0.8,1.4 -9.8,13.3 -1.4,-11.9 -68.2,18.4 74.1,-0.7 0,2 -89.9,0.9 z m 86.3,-20 0.8,6.2 6.1,-8.2 -0.4,-0.7 -5.7,1.5 -0.8,1.2 z m -65.7,-33.9 24.6,19 -25.1,18.4 59.7,-16.4 -59.2,-21 z m 84.8,20.5 -0.8,13.2 5.5,-19.7 -4.7,6.5 z m -15.2,6.5 -1.8,3.3 3.3,-0.9 -1.5,-2.4 z m 1.2,-1.9 2.3,3.8 3.9,-1.1 5.8,-8.1 0.2,-3.3 -8.9,2.4 -3.2,5.7 0.7,0.8 -0.8,-0.2 z m -1.3,-2.2 0.1,0.1 1.9,-3.3 -3.3,0.9 1.3,2.3 z m 15.5,-7 0,0.8 0.7,-1 -0.7,0.2 z m -1.1,-14.3 -8.4,14.9 7.6,-2.1 0.8,-12.8 z m -37.6,-5.9 15.5,18.1 -20.6,-34.5 5.1,16.4 z"
       id="path1261"
       style="fill:#ffffff;fill-opacity:1;stroke:none" />
    <path
       inkscape:connector-curvature="0"
       class="st0"
       d="m 304.55714,46.626491 -16.2,-53.5999994 -9.6,45.9999994 -16.4,5.6 -8.1,-25.599999 34.4,-35.7 -7,0.3 -9.8,-5.4 -28.6,-15.999999 -7.3,-28.5 39.9,35.7 2.2,-9.6 8.5,-3.2 21.9,-32.300004 14.1,7.500004 -11.2,34 12.6,6.7 13.3,9.299999 14.6,13.7999996 -30.7,9.1 -24,-6.8 9.4,48.4999994 -2,0.2 z m -48,-27.199999 7.1,22.499999 13.4,-4.6 10.4,-50.099999 -30.9,32.2 z m 31.9,-33.1 12.4,40.9 -6.3,-32.4000004 26.6,7.5 26.8,-7.9 -12,-11.2999996 -13.1,-9.099999 -13.9,-7.5 11.2,-34 -11,-5.900004 -21.3,31.300004 -8.1,3 -2.7,11.9 -37.5,-33.6 5.5,21.3 27.9,15.599999 9.3,5.2 8.5,-0.3 2.9,-3.1 13.9,4.4 -16,0.6 -3.1,3.4 z m 5.7,-6 -0.6,0.7 2.4,-0.1 -1.8,-0.6 z"
       id="path1263"
       style="fill:#ffffff;fill-opacity:1;stroke:none" />
    <path
       inkscape:connector-curvature="0"
       class="st0"
       d="m -238.64286,53.726491 -10,-23.099999 0.5,-10.7 -5.5,-1.7 -0.3,0.1 -12.5,11.7 -17.7,2.699999 -8.6,-11.499999 29.7,-10.5 0.1,-3.9000004 -32.8,-16.5 7.6,-20.9999986 23.5,17.699999 6.9,-28.199999 11.9,-3.7 0.2,51.2999986 1.6,2.2 -0.9,0.5 19.5,1.7000004 0,2 -20.6,1.5 -0.2,4.3 27.7,8.7 -15,3.7 -8.1,-2.9 3,25.599999 z m -8.1,-23.499999 4.5,10.399999 -1.8,-15.599999 10.6,3.7 7.5,-1.8 -20.4,-6.4 -0.4,9.7 z m -42.8,-8 6.3,8.4 15.9,-2.4 11.4,-10.7 -2.1,-0.6 -7.7,4.5 -1.1,-1.7 5.7,-3.8 -5.5,-1.7 -22.9,8 z m 38.8,-5.2 2.7,0.9 0.1,-2 -2.8,1.1 z m -5,-1.6 1.9,0.6 3.9,-1.6 -4.8,0.3 -1,0.7 z m -37.5,-26.1 32.3,16.2999996 -0.1,6.5000004 -3.9,1.4 8.2,-0.6 6.6,-4.4000004 2,0.2 1.4,-0.8 -0.7,-0.9 -0.2,-49.1999986 -8.3,2.5 -7.3,29.9999986 -23.8,-17.8999986 -6.2,16.899999 z m 45.5,21.4 -3,1.8 12.7,-0.9 -9.7,-0.9 z"
       id="path1265"
       style="fill:#ffffff;fill-opacity:1;stroke:none" />
    <path
       inkscape:connector-curvature="0"
       class="st0"
       d="m 12.95714,-271.87351 -2,-0.2 0.7,-27.1 -1.9999996,-2.4 -3,8.3 -3.1,1.1 -32.6000004,12.1 14.6,-15.7 2.8,-5.7 -34.4,-23 49.6000004,15.5 -0.4,-0.5 0.9,0.6 5.4,1.7 1.1999996,-3.5 -8.8999996,-6.5 -26.3000004,-46.7 32.4000004,33.6 6.9999996,-16.4 16.2,-18 -10.8,52.4 13.6,-2.6 29.2,9.5 -29.8,6.6 -10.5,3 29.4,20.6 -1.1,1.7 -34.3,-22.4 -3.8,24 z m -46.4,-46.6 24.4,16.3 -3.8,7.6 -9,9.6 24.7000004,-9.1 2.2,-0.8 3,-8.6 -2.3,-2.8 -39.2000004,-12.2 z m 47,21.7 -0.2,9.8 1.3,-8.4 -1.1,-1.4 z m 0.3,-2.8 2.8,3.5 1.5,-0.4 -4.3,-3.1 z m -0.2,-2.6 7,4.9 7.2,-2.1 -14.2,-4.4 0,1.6 z m 2.3,-7.1 13.2,9.6 3.6,-1 22.7,-5 -21.7,-7.1 -13.9,2.6 0,0.2 -3.9,0.7 z m -5.4,5 1.1,0.8 0,-0.9 -1,-0.3 -0.1,0.4 z m 3.2,-1.5 6.3,2 -6.2,-4.5 -0.1,2.5 z m -2.4,-0.8 0.4,0.1 0,-1.2 -0.4,1.1 z m 2.8,-13.6 -0.2,9.1 4.3,-0.8 9.5,-45.9 -10.9,12.3 -8.0999996,18.9 -23.6000004,-24.5 18.4000004,32.6 8.0999996,5.9 2.5,-7.6 z"
       id="path1267"
       style="fill:#ffffff;fill-opacity:1;stroke:none" />
    <path
       inkscape:connector-curvature="0"
       class="st0"
       d="m -26.94286,359.32649 10.4,-37.6 18.5000004,-12.1 0.5,-3.2 -43.7000004,-9 0.2,-2 45.0000004,1.7 0.8,-5.2 -5.50000037,-2.1 -16.90000003,-25.9 11,-24 13.5000004,38.5 0.1,-0.7 0.4,2 2.4,6.8 0.2,5 5.0999996,1.9 19.9,-50.3 1.9,0.6 -8.1,36.1 6.3,4 0.4,7.4 28,12.8 -26.5,3.6 4.7,9.5 -13,3.7 -7.3,2.3 0.9,35.2 -2,0.2 -9.3,-49.4 -1.9999996,5.1 -0.3,-8 -4.7,4.1 -4.70000037,29.7 -26.20000003,19.3 z m 12.1,-36.3 -8.7,31.3 20.8,-15.1 4.2000004,-26.9 -16.3000004,10.7 z m 27.1,-17.1 7.6,40.2 -0.6,-24.2 8.8,-2.8 10.7,-3.1 -4.8,-9.9 22.4,-3 -22.8,-10.4 -0.5,-7.6 -6.6,-4.2 5.6,-25 -15.2,38.4 15.8,5.9 -17.9,-0.7 -2.5,6.4 z m -7.7999996,0.9 -0.1,0.8 0.8,-0.7 -0.7,-0.1 z m 0.3,-2 3.7,0.8 -0.3,-6.3 -2.6,-0.1 -0.8,5.6 z m -33.8000004,-6.9 31.8000004,6.5 0.8,-5.3 -32.6000004,-1.2 z m 40.1,1.5 0.5,2.9 1.1,-2.8 -1.6,-0.1 z m 4.5,-1.9 4.7,0.2 -4.2,-1.6 -0.5,1.4 z m -4.9,-0.1 2.8,0.1 0.8,-2 -4.2,-1.6 0,0.1 0.6,3.4 z m -4.6999996,-0.2 2.2,0.1 -0.1,-3 -0.2,-1.1 -1.1,-0.4 -0.8,4.4 z m 1,-6.6 0.4,0.1 -0.2,-1.2 -0.2,1.1 z m -6.40000037,-2.4 4.50000037,1.7 1.1,-7.3 -13.1000004,-37.3 -8.5,18.5 16.00000003,24.4 z"
       id="path1269"
       style="fill:#ffffff;fill-opacity:1;stroke:none" />
    <path
       inkscape:connector-curvature="0"
       class="st0"
       d="m -254.04286,128.62649 -1.5,-1.3 30,-34.800004 -41.5,22.800004 -1.1,-1.7 44.4,-32.500004 -82.4,34.500004 -0.9,-1.8 9.6,-6.3 -51.8,-33.500004 1.1,-1.7 51.8,33.500004 3,-6.800004 -56.8,-31.1 46.9,9.1 7.2,-0.8 -4.5,-64.699994 22.5,15.8 -5.8,66.499994 1.2,-0.1 15.8,-15.5 28.6,-7 -57.4,37.500004 -0.1,0.2 -0.1,-0.1 -1.2,0.8 88,-36.900004 -45.6,33.300004 37.7,-20.700004 -37.1,43.300004 z m -83.9,-56.200004 47.2,25.8 -3.1,7.100004 45,-29.500004 -16.7,4.1 -15.9,15.6 -4.3,0.5 5.9,-67.699994 -18.2,-12.8 4.3,62.399994 -9.4,1.1 -0.1,0 -34.7,-6.6 z"
       id="path1271"
       style="fill:#ffffff;fill-opacity:1;stroke:none" />
    <path
       inkscape:connector-curvature="0"
       class="st0"
       d="m 299.05714,100.82649 -0.4,-11.700004 -11.1,-4.8 -9.8,4.9 -1,-1.7 6.7,-4.9 -27.7,-12 0.8,-1.8 28.8,12.4 10.2,-7.5 -33.8,-16.499999 0.9,-1.799996 35.5,16.299995 -2,-64.1999944 2,-0.2 7.9,58.7999944 10.7,-7.799999 25.3,-54.5999954 -6.3,43.1999994 -17.4,12.799996 -4.5,9.799999 48.5,-23.899995 -40.5,36.699995 26.9,-20.699999 1.2,1.6 -26.2,20.099999 5.3,2.4 -20.7,13.2 -0.5,-3.5 -4,3.1 -1.3,-1.5 4.9,-4.4 -0.7,-5.4 -2.6,2.5 -5.1,11.100004 z m 10.7,-6.700004 0.2,1.5 14.9,-9.6 -2.9,-1.3 -12.2,9.4 z m -9,-4.1 0.1,2.4 0.9,-1.9 -1,-0.5 z m 7.8,-4.4 0.7,5.4 8.8,-8 -4.6,-2.1 -4.9,4.7 z m -7.9,2.2 1.9,0.8 0,0 3.4,-7.4 -0.3,-2.4 -3.3,-1.6 -2,1 0.3,9.6 z m -10.7,-4.6 8.6,3.7 -0.3,-7.8 -8.3,4.1 z m 18.1,-1.8 0.2,1.7 2.2,-2.1 -1.8,-0.9 -0.6,1.3 z m -20.6,0.7 0.1,0 10.7,-5.3 -0.1,-1.8 -0.7,-0.3 -10,7.4 z m 22.6,-5 9.6,4.4 30.8,-28.099995 -38.1,18.799995 -2.3,4.9 z m -2.8,-1.3 1,0.4 1.2,-2.7 -2.3,1.2 0.1,1.1 z m -6.9,-3.2 3.4,1.5 1.2,-0.6 -0.5,-3.9 -4.1,3 z m 5.9,-4.3 0.6,4.4 4,-2 4,-8.699999 -8.6,6.299999 z m -7.6,-41.399994 1.4,43.399994 4.1,-3 -5.5,-40.399994 z m 39.3,-10 -18,38.899999 13.8,-10.2 4.2,-28.699999 z"
       id="path1273"
       style="fill:#ffffff;fill-opacity:1;stroke:none" />
    <path
       inkscape:connector-curvature="0"
       class="st0"
       d="m 317.25714,-84.673511 -23.6,-19.899999 -53.2,14.599999 12.7,-10.299999 -4.6,-0.6 1.7,-5.2 1.9,0.6 -1,2.9 6.8,0.9 -8.9,7.199999 42.6,-11.699999 -14.6,-12.3 23.7,9.8 4.7,-1.3 -0.2,-6.6 5.4,-14.9 1.9,0.5 -3.2,18.6 10.7,-2.1 -10.5,-23.6 1.8,-0.8 10.7,24 5,-1 0.5,1.9 -4.5,1.2 0.8,1.8 16,20.599999 -32,-13.299999 0.2,6.699999 10.6,10.9 -1.4,1.4 z m -9.5,-21.199999 26.2,10.799999 -11.6,-14.999999 -1,-2.2 -13.7,3.7 0.1,2.7 z m -11.7,0.6 10,8.399999 -0.2,-7.699999 -5,-2.1 -4.8,1.4 z m 8,-2.2 1.8,0.7 0,-1.2 -1.8,0.5 z m -15.7,-4.3 5.8,4.9 3.7,-1 -9.5,-3.9 z m 19.2,-4.5 0.1,4.2 1.4,-8.3 -1.5,4.1 z"
       id="path1275"
       style="fill:#ffffff;fill-opacity:1;stroke:none" />
    <path
       inkscape:connector-curvature="0"
       class="st0"
       d="m 32.35714,372.62649 -1.3,-1.5 54.000003,-50.4 -45.000003,-1.3 0,-2 46.000003,-1.8 -10.800003,-12.7 1.4,-1.4 15.200001,12.7 0.2,-0.3 -30.200001,-54.1 40.4,39.7 1.1,-1.5 6.7,-0.2 -2.3,-4.6 1.8,-0.9 2.7,5.4 10.4,-0.3 -5.3,10.6 8.6,17.5 -11.6,-11.4 -9.4,18.7 3,5.4 -1.6,1.1 -2.9,-3.4 -5.499999,11 -1.8,-0.9 5.899999,-11.7 -11.999997,-14.1 -13.100003,18.4 -0.1,0.1 -44.5,33.9 z m 53.200003,-49.7 -38.300003,35.8 28.1,-21.5 10.200003,-14.3 z m 13.899998,0.1 4.299999,7.7 1.5,-2.9 -5.799999,-4.8 z m -8.299998,-4.5 10.099997,11.8 -6.099999,-10.8 -2.6,-2.2 -0.6,0 -0.799998,1.2 z m 4.899998,-3.3 9.299999,12.4 7.5,-14.9 -10.3,-10.1 -8.099999,11.4 0.7,1.3 0.9,-0.1 z m -26.700001,3 19.100003,0.6 0.1,-0.2 -0.9,-1.1 -18.300003,0.7 z m 45.9,-6 3.7,3.6 -2.7,-5.6 -1,2 z m -30.999997,-1.8 4.3,5.1 1.7,-0.1 -6,-5 z m -13.800003,-39.5 22.900001,41.1 7.799999,-10.9 -30.7,-30.2 z m 33.3,30 10,9.8 1.4,-2.7 -4.1,-8.3 -6.6,0.2 -0.7,1 z m 9.5,-1.2 3,6.1 3.1,-6.3 -6.1,0.2 z"
       id="path1277"
       style="fill:#ffffff;fill-opacity:1;stroke:none" />
    <path
       inkscape:connector-curvature="0"
       class="st0"
       d="m -27.54286,382.72649 -55.3,-62.3 -9.1,5.5 35.6,38.7 -1.5,1.4 -35.9,-39 -1.3,0.8 0.6,-1.4 -17.5,-19 23.8,5 0.4,-0.9 -7.3,-4.9 8.6,2 10.6,-23.8 1.8,0.8 -10.4,23.4 11.4,2.6 29.3,-47.2 1.8,0.9 -19.6,47.3 33.4,-11.6 22.9,12.2 -5.4,15 -53.6,-12.6 -0.8,0.3 0.2,-0.4 -7.2,-1.7 -0.2,0.3 -4.2,2.5 22.1,15 26.8,51.1 z m -53.6,-63.3 44.2,49.8 -19,-36.2 -22.4,-15.2 -2.8,1.6 z m 20.4,-5 48.8,11.4 4.2,-11.7 -20.6,-11 -32.4,11.3 z m -45.4,-3.9 12.7,13.8 4.5,-10.1 -17.2,-3.7 z m 18.8,4.9 -3.3,7.3 6.4,-3.8 -3.1,-3.5 z m 0.9,-2 4,4.5 2.3,-1.4 -5.9,-4 -0.4,0.9 z m 1.5,-2.6 6.7,4.5 3.6,-2.1 -10.3,-2.4 z m 13.9,1.2 6.9,1.6 15.7,-37.9 -22.6,36.3 z"
       id="path1279"
       style="fill:#ffffff;fill-opacity:1;stroke:none" />
    <path
       inkscape:connector-curvature="0"
       class="st0"
       d="m -56.94286,-263.67351 -32.9,-45.9 -0.6,0.3 -10.8,-10.5 1.4,-1.4 5.5,5.4 -3.8,-5.3 1.5,-1.3 8.8,9.5 6.7,-3.4 -9.1,-1.7 16.6,-2.2 -4.2,-10.5 7.6,5 2.7,2.1 24.6,-24.9 -6.7,22.7 26.1,-1.2 0.2,2 -39.4,5.3 42.5,34.3 -1.1,1.6 -45.9,-26.1 15.4,38.4 -35.6,-38.1 32.2,44.8 -1.7,1.1 z m -29.4,-47.7 28.6,30.6 -12.4,-30.8 -7.2,-4.1 -0.6,-0.1 -8.4,4.4 z m 17.9,-1.5 37.3,21.2 -34.3,-27.7 -5.3,0.7 2.3,5.8 z m -7.1,-4 4.3,2.4 -1.5,-3.8 -2.8,1.4 z m 2,-8.6 1.8,4.4 2.5,-1.3 -2.1,-1.7 -2.2,-1.4 z m 7.6,3.2 1.1,0.9 18.5,-2.5 -6,0.3 5.2,-17.7 -18.8,19 z"
       id="path1281"
       style="fill:#ffffff;fill-opacity:1;stroke:none" />
    <polygon
       transform="translate(-393.24286,-443.67351)"
       class="st0"
       points="100.7,369.9 100.3,378.2 104.8,379.4 100.3,430.7 114.4,431.3 131,423.9 104.6,366.9 107.1,368 93.6,355.5 159.6,376.9 106,332.1 107.3,330.6 168.8,382 101.6,360.2 117.4,374.9 108.7,370.9 133.7,424.9 114.7,433.3 98.1,432.7 102.6,380.9 98.2,379.7 98.5,373.2 42.8,399.5 70.3,374.7 84.2,352 85.9,353 71.8,376 54.2,391.9 "
       id="polygon1283"
       style="fill:#ffffff;fill-opacity:1;stroke:none" />
    <polygon
       transform="translate(-393.24286,-443.67351)"
       class="st0"
       points="490.2,87.9 501.4,114 469.9,74.9 469.6,81.3 471.6,104.4 468,114 505,134.4 494,133.6 494.3,133.7 440.2,169.1 465,163.8 474.5,162.6 500.5,143.1 488.8,167.6 487,166.7 495.2,149.6 475.3,164.5 465.4,165.8 430.2,173.2 488.9,134.8 474.1,132.3 474.3,130.3 496.1,131.8 465.5,114.9 469.6,104.1 467.6,81.3 468.1,69.5 493.8,101.4 488.3,88.7 "
       id="polygon1285"
       style="fill:#ffffff;fill-opacity:1;stroke:none" />
  </g>
</svg>
