<?xml version="1.0" encoding="UTF-8" standalone="no"?>
<!-- Created with Inkscape (http://www.inkscape.org/) -->

<svg
   xmlns:dc="http://purl.org/dc/elements/1.1/"
   xmlns:cc="http://creativecommons.org/ns#"
   xmlns:rdf="http://www.w3.org/1999/02/22-rdf-syntax-ns#"
   xmlns:svg="http://www.w3.org/2000/svg"
   xmlns="http://www.w3.org/2000/svg"
   xmlns:sodipodi="http://sodipodi.sourceforge.net/DTD/sodipodi-0.dtd"
   xmlns:inkscape="http://www.inkscape.org/namespaces/inkscape"
   width="210mm"
   height="297mm"
   viewBox="0 0 744.09448819 1052.3622047"
   id="svg8659"
   version="1.1"
   inkscape:version="0.91 r13725"
   sodipodi:docname="psych6.svg">
  <defs
     id="defs8661" />
  <sodipodi:namedview
     id="base"
     pagecolor="#ffffff"
     bordercolor="#666666"
     borderopacity="1.0"
     inkscape:pageopacity="0.0"
     inkscape:pageshadow="2"
     inkscape:zoom="0.35"
     inkscape:cx="135.90508"
     inkscape:cy="520"
     inkscape:document-units="px"
     inkscape:current-layer="layer1"
     showgrid="false"
     inkscape:window-width="928"
     inkscape:window-height="1028"
     inkscape:window-x="992"
     inkscape:window-y="24"
     inkscape:window-maximized="0" />
  <metadata
     id="metadata8664">
    <rdf:RDF>
      <cc:Work
         rdf:about="">
        <dc:format>image/svg+xml</dc:format>
        <dc:type
           rdf:resource="http://purl.org/dc/dcmitype/StillImage" />
        <dc:title></dc:title>
      </cc:Work>
    </rdf:RDF>
  </metadata>
  <g
     inkscape:label="Calque 1"
     inkscape:groupmode="layer"
     id="layer1">
    <path
       inkscape:connector-curvature="0"
       class="st0"
       d="m -116.85423,-65.379629 c 4.6,-2.2 9.6,41.4 13.2,45 3.6,3.6 38.000003,-30.8 41.600003,-27.2 3.6,3.6 -0.5,7.8 3.1,11.4 3.6,3.6 1.5,5.7 5.1,9.3 3.6,3.6 -35.2,42.4 -31.6,46.1 3.6,3.6 41.8,-17.3 42,-12.2 0.1,4.8 -22.5,0.6 -25.9,4 -3.4,3.4 -13.4,-6.6 -16.8,-3.2 -3.4,3.4 26.3,33.1 22.9,36.5 -3.4,3.4 -40.100003,-33.3 -43.500003,-29.9 -3.4,3.4 40.800003,47.6 37.400003,51 -3.4,3.4 -26,-16.2 -30.3,-18.4 -4.700003,-2.4 -39.200003,-3 -39.300003,-8.3 -0.2,-5.3 31.6,-6.2 31.4,-11.4 -0.2,-5.3 -1.8,-5.2 -2,-10.5 -0.2,-5.3 -24.2,-4.6 -24.4,-9.8 -0.2,-5.3 15.2,-5.7 15,-10.9999996 -0.2,-5.3 26.300003,-6 26.100003,-11.3000004 -0.2,-5.3 -11.000003,-4 -13.000003,-8.9 -8.1,-19.8 -15.8,-38.9 -11,-41.2 z"
       id="path930"
       style="fill:#ffffff;fill-opacity:1;stroke:none" />
    <path
       inkscape:connector-curvature="0"
       class="st1"
       d="m -116.85423,-65.379629 c 4.6,-2.2 9.6,41.4 13.2,45 3.6,3.6 38.000003,-30.8 41.600003,-27.2 3.6,3.6 -0.5,7.8 3.1,11.4 3.6,3.6 1.5,5.7 5.1,9.3 3.6,3.6 -35.2,42.4 -31.6,46.1 3.6,3.6 41.8,-17.3 42,-12.2 0.1,4.8 -22.5,0.6 -25.9,4 -3.4,3.4 -13.4,-6.6 -16.8,-3.2 -3.4,3.4 26.3,33.1 22.9,36.5 -3.4,3.4 -40.100003,-33.3 -43.500003,-29.9 -3.4,3.4 40.800003,47.6 37.400003,51 -3.4,3.4 -26,-16.2 -30.3,-18.4 -4.700003,-2.4 -39.200003,-3 -39.300003,-8.3 -0.2,-5.3 31.6,-6.2 31.4,-11.4 -0.2,-5.3 -1.8,-5.2 -2,-10.5 -0.2,-5.3 -24.2,-4.6 -24.4,-9.8 -0.2,-5.3 15.2,-5.7 15,-10.9999996 -0.2,-5.3 26.300003,-6 26.100003,-11.3000004 -0.2,-5.3 -11.000003,-4 -13.000003,-8.9 -8.1,-19.8 -15.8,-38.9 -11,-41.2 z"
       id="path932"
       style="fill:#ffffff;fill-opacity:1;stroke:none" />
    <path
       inkscape:connector-curvature="0"
       class="st0"
       d="m -23.754227,67.120371 c -2,-5.1 -43.9,-4.6 -39.9,-8.4 4,-3.8 -1.2,-9.3 2.8,-13.1 4,-3.8 38.7,32.6 42.7,28.8 4,-3.8 -15.6,-24.3 -11.6,-28.1 4,-3.8 -17.8,-26.7 -13.8,-30.5 4,-3.8 27.5,52.8 33.1,52.9 5.4,0.1 20.2,-45.3 23.9,-41.4 3.7,3.9 2.3,5.2 6,9.1 3.7,3.9 -28.4,34.5 -24.7,38.3 3.7,3.9 34.4,-25.4 38.1,-21.5 3.7,3.9 24.1,25.9 22.2,30.9 -1.9,5 -33.9,-15.7 -39.2,-15.2 -5.3,0.4 -3.4,24.999999 -8.7,25.399999 -5.3,0.4 -4.5,10 -9.8,10.5 -5.3,0.4 -7,-21.499999 -12.3,-21.099999 -5.3,0.4 -8,-33.1 -13.3,-32.7 -5.3,0.4 -2.3,38.9 -7.6,39.299999 -5.3,0.4 -17.8,-11.699999 -13,-13.899999 12.6,-5.6 27,-4.3 25.1,-9.3 z"
       id="path934"
       style="fill:#ffffff;fill-opacity:1;stroke:none" />
    <path
       inkscape:connector-curvature="0"
       class="st1"
       d="m -23.754227,67.120371 c -2,-5.1 -43.9,-4.6 -39.9,-8.4 4,-3.8 -1.2,-9.3 2.8,-13.1 4,-3.8 38.7,32.6 42.7,28.8 4,-3.8 -15.6,-24.3 -11.6,-28.1 4,-3.8 -17.8,-26.7 -13.8,-30.5 4,-3.8 27.5,52.8 33.1,52.9 5.4,0.1 20.2,-45.3 23.9,-41.4 3.7,3.9 2.3,5.2 6,9.1 3.7,3.9 -28.4,34.5 -24.7,38.3 3.7,3.9 34.4,-25.4 38.1,-21.5 3.7,3.9 24.1,25.9 22.2,30.9 -1.9,5 -33.9,-15.7 -39.2,-15.2 -5.3,0.4 -3.4,24.999999 -8.7,25.399999 -5.3,0.4 -4.5,10 -9.8,10.5 -5.3,0.4 -7,-21.499999 -12.3,-21.099999 -5.3,0.4 -8,-33.1 -13.3,-32.7 -5.3,0.4 -2.3,38.9 -7.6,39.299999 -5.3,0.4 -17.8,-11.699999 -13,-13.899999 12.6,-5.6 27,-4.3 25.1,-9.3 z"
       id="path936"
       style="fill:#ffffff;fill-opacity:1;stroke:none" />
    <path
       inkscape:connector-curvature="0"
       class="st0"
       d="m 48.245773,-92.679629 c 2.1,5.1 -11.2,25.4 -15.1,29.3 -3.9,3.9 -35.6,-27.8 -39.5,-23.9 -3.9,3.9 8.9,16.7 5,20.6 -3.9,3.9 -10.8,-3.1 -14.7,0.8 -3.9,3.9 35.6,43.4 31.7,47.3 -3.9,3.9 -28.9,-15 -34.4,-15 -5.4,0.1 -12.3,0.7 -16,-3.1 -3.8,-3.8 11.8,-19.4 8,-23.2 -3.8,-3.8 -26.4,18.8 -30.2,15 -3.8,-3.8 -3.2,-4.4 -7,-8.2 -3.8,-3.8 34.5,-7.4 36.2,-12.4 1.7,-5 -22.6,0.7 -17.3,0.1 5.3,-0.5 6.9,14.5 12.1,14 5.3,-0.5 3.6,-16.5 8.9,-17 5.3,-0.5 0.7,-45.200001 5.9,-45.700001 5.3,-0.5 8.8,32.900001 14.1,32.300001 5.3,-0.5 1.5,-37.200001 6.8,-37.800001 5.3,-0.6 -4.4,3.3 0.6,1.3 15.6,-6 42.9,20.700001 44.9,25.600001 z"
       id="path938"
       style="fill:#ffffff;fill-opacity:1;stroke:none" />
    <path
       inkscape:connector-curvature="0"
       class="st1"
       d="m 48.245773,-92.679629 c 2.1,5.1 -11.2,25.4 -15.1,29.3 -3.9,3.9 -35.6,-27.8 -39.5,-23.9 -3.9,3.9 8.9,16.7 5,20.6 -3.9,3.9 -10.8,-3.1 -14.7,0.8 -3.9,3.9 35.6,43.4 31.7,47.3 -3.9,3.9 -28.9,-15 -34.4,-15 -5.4,0.1 -12.3,0.7 -16,-3.1 -3.8,-3.8 11.8,-19.4 8,-23.2 -3.8,-3.8 -26.4,18.8 -30.2,15 -3.8,-3.8 -3.2,-4.4 -7,-8.2 -3.8,-3.8 34.5,-7.4 36.2,-12.4 1.7,-5 -22.6,0.7 -17.3,0.1 5.3,-0.5 6.9,14.5 12.1,14 5.3,-0.5 3.6,-16.5 8.9,-17 5.3,-0.5 0.7,-45.200001 5.9,-45.700001 5.3,-0.5 8.8,32.900001 14.1,32.300001 5.3,-0.5 1.5,-37.200001 6.8,-37.800001 5.3,-0.6 -4.4,3.3 0.6,1.3 15.6,-6 42.9,20.700001 44.9,25.600001 z"
       id="path940"
       style="fill:#ffffff;fill-opacity:1;stroke:none" />
    <path
       inkscape:connector-curvature="0"
       class="st0"
       d="m 83.64577,62.120371 c -4.6,2.2 -23.399997,-28 -26.999997,-31.6 -3.6,-3.6 -4.7,-2.5 -8.4,-6.1 -3.6,-3.6 8.4,-15.7 4.8,-19.3 -3.6,-3.6 -28.3,21 -31.9,17.4 -3.6,-3.6 3,-10.2 -0.6,-13.8 -3.6,-3.6 -25.5,-13.8999996 -25.7,-19 -0.1,-4.8 39.1,0.3000004 42.5,-3.1 3.4,-3.4 -13.3,-20.1 -9.9,-23.5 3.4,-3.4 -7.3,-14.1 -3.9,-17.5 3.4,-3.4 47.499997,40.7 50.899997,37.3 3.4,-3.4 -0.1,-6.9 3.4,-10.3 3.4,-3.4 -29.199997,0 -24.999997,2.3 4.7,2.4 3,-21.3 3.2,-16.1 0.2,5.3 21.399997,4.7 21.599997,9.9 0.2,5.3 -31.299997,6.2 -31.099997,11.4 0.2,5.3 22.299997,4.6 22.499997,9.9000004 0.2,5.3 11.5,4.9 11.7,10.1999996 0.2,5.3 6.8,5.1 6.9,10.3 0.2,5.3 -35.999997,12.4 -33.999997,17.3 8.2,20.4 34.699997,32 29.999997,34.3 z"
       id="path942"
       style="fill:#ffffff;fill-opacity:1;stroke:none" />
    <path
       inkscape:connector-curvature="0"
       class="st1"
       d="m 83.64577,62.120371 c -4.6,2.2 -23.399997,-28 -26.999997,-31.6 -3.6,-3.6 -4.7,-2.5 -8.4,-6.1 -3.6,-3.6 8.4,-15.7 4.8,-19.3 -3.6,-3.6 -28.3,21 -31.9,17.4 -3.6,-3.6 3,-10.2 -0.6,-13.8 -3.6,-3.6 -25.5,-13.8999996 -25.7,-19 -0.1,-4.8 39.1,0.3000004 42.5,-3.1 3.4,-3.4 -13.3,-20.1 -9.9,-23.5 3.4,-3.4 -7.3,-14.1 -3.9,-17.5 3.4,-3.4 47.499997,40.7 50.899997,37.3 3.4,-3.4 -0.1,-6.9 3.4,-10.3 3.4,-3.4 -29.199997,0 -24.999997,2.3 4.7,2.4 3,-21.3 3.2,-16.1 0.2,5.3 21.399997,4.7 21.599997,9.9 0.2,5.3 -31.299997,6.2 -31.099997,11.4 0.2,5.3 22.299997,4.6 22.499997,9.9000004 0.2,5.3 11.5,4.9 11.7,10.1999996 0.2,5.3 6.8,5.1 6.9,10.3 0.2,5.3 -35.999997,12.4 -33.999997,17.3 8.2,20.4 34.699997,32 29.999997,34.3 z"
       id="path944"
       style="fill:#ffffff;fill-opacity:1;stroke:none" />
    <path
       inkscape:connector-curvature="0"
       class="st0"
       d="m -93.254227,89.720371 c -3.7,-3.7 -12.900003,14.899999 -17.900003,16.399999 -5,1.5 -3.5,6.6 -8.5,8.1 -5,1.5 -14.8,-30.799999 -19.8,-29.199999 -5,1.6 -9.6,18.499999 -11.1,23.599999 -1.4,4.7 29.4,-12 32.9,-8.5 3.5,3.5 -29.3,36.3 -25.8,39.8 3.5,3.5 22.9,-15.9 26.4,-12.4 3.5,3.5 -3.4,9.6 1.4,8.2 5,-1.5 38.800003,9.4 40.300003,4.4 1.5,-5 -37.900003,-16.9 -36.400003,-22 1.5,-5 7.5,-1.6 10.6,-5.8 7.200003,-9.7 11.600003,-18.9 7.900003,-22.599999 z"
       id="path946"
       style="fill:#ffffff;fill-opacity:1;stroke:none" />
    <path
       inkscape:connector-curvature="0"
       class="st1"
       d="m -93.254227,89.720371 c -3.7,-3.7 -12.900003,14.899999 -17.900003,16.399999 -5,1.5 -3.5,6.6 -8.5,8.1 -5,1.5 -14.8,-30.799999 -19.8,-29.199999 -5,1.6 -9.6,18.499999 -11.1,23.599999 -1.4,4.7 29.4,-12 32.9,-8.5 3.5,3.5 -29.3,36.3 -25.8,39.8 3.5,3.5 22.9,-15.9 26.4,-12.4 3.5,3.5 -3.4,9.6 1.4,8.2 5,-1.5 38.800003,9.4 40.300003,4.4 1.5,-5 -37.900003,-16.9 -36.400003,-22 1.5,-5 7.5,-1.6 10.6,-5.8 7.200003,-9.7 11.600003,-18.9 7.900003,-22.599999 z"
       id="path948"
       style="fill:#ffffff;fill-opacity:1;stroke:none" />
    <path
       inkscape:connector-curvature="0"
       class="st0"
       d="m 94.94577,93.52037 c -3.6,3.6 25.9,14.8 27.1,19.8 1.2,5 -46.9,16.2 -45.7,21.1 1.2,5 23.5,-0.2 24.6,4.8 1.2,5 13.1,-3.7 18.1,-2.5 5.3,1.2 -0.7,3.1 3.1,-0.7 3.8,-3.8 1.6,-6.1 5.4,-9.9 3.8,-3.8 21.4,13.7 25.2,9.9 3.8,-3.8 28.8,-22.9 27.6,-28.2 -1.2,-5 -35,-5.9 -40,-7.1 -5,-1.2 -11.2,25.4 -16.2,24.3 -5,-1.2 -6.4,-8.2 -10.5,-11.2 -11.3,-8.2 -15.1,-23.899999 -18.7,-20.3 z"
       id="path950"
       style="fill:#ffffff;fill-opacity:1;stroke:none" />
    <path
       inkscape:connector-curvature="0"
       class="st1"
       d="m 94.94577,93.52037 c -3.6,3.6 25.9,14.8 27.1,19.8 1.2,5 -46.9,16.2 -45.7,21.1 1.2,5 23.5,-0.2 24.6,4.8 1.2,5 13.1,-3.7 18.1,-2.5 5.3,1.2 -0.7,3.1 3.1,-0.7 3.8,-3.8 1.6,-6.1 5.4,-9.9 3.8,-3.8 21.4,13.7 25.2,9.9 3.8,-3.8 28.8,-22.9 27.6,-28.2 -1.2,-5 -35,-5.9 -40,-7.1 -5,-1.2 -11.2,25.4 -16.2,24.3 -5,-1.2 -6.4,-8.2 -10.5,-11.2 -11.3,-8.2 -15.1,-23.899999 -18.7,-20.3 z"
       id="path952"
       style="fill:#ffffff;fill-opacity:1;stroke:none" />
    <path
       inkscape:connector-curvature="0"
       class="st0"
       d="m 92.34577,-96.579629 c 3.7,3.7 -2,-17.100001 3.1,-18.600001 5,-1.5 12.1,21.800001 17.1,20.200001 5.1,-1.5 0.9,-15.400001 5.9,-16.900001 5.1,-1.5 1.9,7.2 3.4,2.1 1.4,-4.8 6,-1.2 2.4,-4.7 -3.5,-3.5 -22.9,15.800001 -26.4,12.3 -3.5,-3.5 24.6,-31.6 21,-35.1 -3.5,-3.5 -22.2,-35 -26.9,-33.6 -5,1.5 25.4,45.6 23.8,50.6 -1.5,5 -10.8,2.2 -12.4,7.3 -1.5,5.1 1,8 -1.5,12.6 -2.1,4.300001 -13.2,0.1 -9.5,3.800001 z"
       id="path954"
       style="fill:#ffffff;fill-opacity:1;stroke:none" />
    <path
       inkscape:connector-curvature="0"
       class="st1"
       d="m 92.34577,-96.579629 c 3.7,3.7 -2,-17.100001 3.1,-18.600001 5,-1.5 12.1,21.800001 17.1,20.200001 5.1,-1.5 0.9,-15.400001 5.9,-16.900001 5.1,-1.5 1.9,7.2 3.4,2.1 1.4,-4.8 6,-1.2 2.4,-4.7 -3.5,-3.5 -22.9,15.800001 -26.4,12.3 -3.5,-3.5 24.6,-31.6 21,-35.1 -3.5,-3.5 -22.2,-35 -26.9,-33.6 -5,1.5 25.4,45.6 23.8,50.6 -1.5,5 -10.8,2.2 -12.4,7.3 -1.5,5.1 1,8 -1.5,12.6 -2.1,4.300001 -13.2,0.1 -9.5,3.800001 z"
       id="path956"
       style="fill:#ffffff;fill-opacity:1;stroke:none" />
    <path
       inkscape:connector-curvature="0"
       class="st0"
       d="m -217.85423,-53.279629 c 5,-1.9 25.6,0.3 29.4,4.1 3.8,3.8 9,-1.4 12.8,2.4 3.8,3.8 -4.1,11.7 -0.3,15.5 3.8,3.8 8.2,-0.7 12,3.1 3.8,3.8 5.1,2.5 8.9,6.3 3.8,3.8 -33,40.6 -29.2,44.4 3.8,3.8 42,-15.2 42.1,-9.9 0.1,5.1 -19.9,5.4 -23.4,9 -3.6,3.6 -16.9,-9.7 -20.5,-6.1 -3.6,3.6 -17.4,-10.2 -21,-6.6 -3.6,3.6 -3.7,3.4 -7.3,7 -3.6,3.6 28.5,35.7 24.9,39.3 -3.6,3.6 11.7,18.9 8.1,22.5 -3.6,3.6 -35.4,14.699999 -40,12.699999 -4.8,-1.999999 11.9,-32.199999 11.8,-37.299999 -0.1,-5.2 -22.2,-4.5 -22.4,-9.7 -0.1,-5.2 43.2,-6.4 43.1,-11.6 -0.1,-5.2 -31.1,-4.3 -31.3,-9.5 -0.1,-5.2 -1.6,-5.1 -1.8,-10.3 -0.1,-5.2 44.1,-6.4 44,-11.6 -0.1,-5.1999996 -3,-5.0999996 -3.1,-10.2999996 -0.1,-5.2000004 -11.4,-4.8000004 -11.6,-10.0000004 -0.1,-5.2 -19.4,-4.5 -21,-9.5 -3.8,-12 -9.1,-22.1 -4.2,-23.9 z"
       id="path958"
       style="fill:#ffffff;fill-opacity:1;stroke:none" />
    <path
       inkscape:connector-curvature="0"
       class="st1"
       d="m -217.85423,-53.279629 c 5,-1.9 25.6,0.3 29.4,4.1 3.8,3.8 9,-1.4 12.8,2.4 3.8,3.8 -4.1,11.7 -0.3,15.5 3.8,3.8 8.2,-0.7 12,3.1 3.8,3.8 5.1,2.5 8.9,6.3 3.8,3.8 -33,40.6 -29.2,44.4 3.8,3.8 42,-15.2 42.1,-9.9 0.1,5.1 -19.9,5.4 -23.4,9 -3.6,3.6 -16.9,-9.7 -20.5,-6.1 -3.6,3.6 -17.4,-10.2 -21,-6.6 -3.6,3.6 -3.7,3.4 -7.3,7 -3.6,3.6 28.5,35.7 24.9,39.3 -3.6,3.6 11.7,18.9 8.1,22.5 -3.6,3.6 -35.4,14.699999 -40,12.699999 -4.8,-1.999999 11.9,-32.199999 11.8,-37.299999 -0.1,-5.2 -22.2,-4.5 -22.4,-9.7 -0.1,-5.2 43.2,-6.4 43.1,-11.6 -0.1,-5.2 -31.1,-4.3 -31.3,-9.5 -0.1,-5.2 -1.6,-5.1 -1.8,-10.3 -0.1,-5.2 44.1,-6.4 44,-11.6 -0.1,-5.1999996 -3,-5.0999996 -3.1,-10.2999996 -0.1,-5.2000004 -11.4,-4.8000004 -11.6,-10.0000004 -0.1,-5.2 -19.4,-4.5 -21,-9.5 -3.8,-12 -9.1,-22.1 -4.2,-23.9 z"
       id="path960"
       style="fill:#ffffff;fill-opacity:1;stroke:none" />
    <path
       inkscape:connector-curvature="0"
       class="st0"
       d="m 45.045773,-188.57963 c 2.1,4.6 20.3,29.1 16.7,32.6 -3.6,3.6 -53.3,-46.2 -56.9,-42.6 -3.6,3.6 38,45.2 34.4,48.8 -3.6,3.6 -27.7,-20.5 -31.3,-16.9 -3.6,3.6 8.7,15.9 5.1,19.4 -3.6,3.6 -6.8,-12 -11.8,-12.1 -5.4,-0.1 -2.9,9.2 -6.7,5.4 -3.8,-3.8 -28.8,21.2 -32.6,17.4 -3.8,-3.8 3.7,-11.3 -0.1,-15.1 -3.8,-3.8 -4.3,-3.3 -8.1,-7.1 -3.8,-3.8 12.7,-17.6 14.3,-22.8 1.5,-4.8 1.4,20.2 6.4,19.9 5.1,-0.3 1.8,-51.2 6.9,-51.6 5.1,-0.3 6,15.1 11.1,14.8 5.1,-0.3 8.2,49.4 13.3,49.1 5.1,-0.3 2.4,-42.6 7.4,-42.9 5.1,-0.3 6.3,19.9 11.4,19.5 5.1,-0.3 6.5,-7.1 11.3,-8.7 6,-1.7 7.1,-11.7 9.2,-7.1 z"
       id="path962"
       style="fill:#ffffff;fill-opacity:1;stroke:none" />
    <path
       inkscape:connector-curvature="0"
       class="st1"
       d="m 45.045773,-188.57963 c 2.1,4.6 20.3,29.1 16.7,32.6 -3.6,3.6 -53.3,-46.2 -56.9,-42.6 -3.6,3.6 38,45.2 34.4,48.8 -3.6,3.6 -27.7,-20.5 -31.3,-16.9 -3.6,3.6 8.7,15.9 5.1,19.4 -3.6,3.6 -6.8,-12 -11.8,-12.1 -5.4,-0.1 -2.9,9.2 -6.7,5.4 -3.8,-3.8 -28.8,21.2 -32.6,17.4 -3.8,-3.8 3.7,-11.3 -0.1,-15.1 -3.8,-3.8 -4.3,-3.3 -8.1,-7.1 -3.8,-3.8 12.7,-17.6 14.3,-22.8 1.5,-4.8 1.4,20.2 6.4,19.9 5.1,-0.3 1.8,-51.2 6.9,-51.6 5.1,-0.3 6,15.1 11.1,14.8 5.1,-0.3 8.2,49.4 13.3,49.1 5.1,-0.3 2.4,-42.6 7.4,-42.9 5.1,-0.3 6.3,19.9 11.4,19.5 5.1,-0.3 6.5,-7.1 11.3,-8.7 6,-1.7 7.1,-11.7 9.2,-7.1 z"
       id="path964"
       style="fill:#ffffff;fill-opacity:1;stroke:none" />
    <path
       inkscape:connector-curvature="0"
       class="st0"
       d="m 212.44577,71.020371 c -5.2,1.7 -2.9,-50.2 -6.8,-54.1 -3.9,-3.9 -38.3,30.5 -42.1,26.7 -3.9,-3.9 0.4,-8.1 -3.5,-12 -3.9,-3.9 12.3,-20 8.4,-23.9 -3.9,-3.9 -23.9,16.2 -27.8,12.3 -3.9,-3.9 21.9,-23.9999996 21.9,-29.4999996 0,-5.5000004 -18.9,-18.8000004 -15.1,-22.7000004 3.9,-3.9 4.3,-3.4 8.2,-7.3 3.9,-3.9 7.5,-0.3 11.3,-4.2 3.9,-3.9 27.2,19.4 31.1,15.6 3.9,-3.9 16.1,8.4 20,4.5 3.9,-3.9 -26.9,-19.6 -21.7,-17.9 4.9,1.6 19.8,-9.3 19.8,-4.2 0,5.2 22.4,5.2 22.4,10.3 0,5.2 -1.1,5.2 -1.1,10.3 0,5.2 -56.9,5.1 -56.9,10.3 0,5.2000004 -16.1,5.1000004 -16.1,10.3000004 0,5.1999996 56.4,5.1999996 56.4,10.3999996 0,5.2 2.4,5.2 2.4,10.3 0,5.2 -45.6,12.1 -44.1,17 6.7,22.5 38.1,36.2 33.3,37.8 z"
       id="path966"
       style="fill:#ffffff;fill-opacity:1;stroke:none" />
    <path
       inkscape:connector-curvature="0"
       class="st1"
       d="m 212.44577,71.020371 c -5.2,1.7 -2.9,-50.2 -6.8,-54.1 -3.9,-3.9 -38.3,30.5 -42.1,26.7 -3.9,-3.9 0.4,-8.1 -3.5,-12 -3.9,-3.9 12.3,-20 8.4,-23.9 -3.9,-3.9 -23.9,16.2 -27.8,12.3 -3.9,-3.9 21.9,-23.9999996 21.9,-29.4999996 0,-5.5000004 -18.9,-18.8000004 -15.1,-22.7000004 3.9,-3.9 4.3,-3.4 8.2,-7.3 3.9,-3.9 7.5,-0.3 11.3,-4.2 3.9,-3.9 27.2,19.4 31.1,15.6 3.9,-3.9 16.1,8.4 20,4.5 3.9,-3.9 -26.9,-19.6 -21.7,-17.9 4.9,1.6 19.8,-9.3 19.8,-4.2 0,5.2 22.4,5.2 22.4,10.3 0,5.2 -1.1,5.2 -1.1,10.3 0,5.2 -56.9,5.1 -56.9,10.3 0,5.2000004 -16.1,5.1000004 -16.1,10.3000004 0,5.1999996 56.4,5.1999996 56.4,10.3999996 0,5.2 2.4,5.2 2.4,10.3 0,5.2 -45.6,12.1 -44.1,17 6.7,22.5 38.1,36.2 33.3,37.8 z"
       id="path968"
       style="fill:#ffffff;fill-opacity:1;stroke:none" />
    <path
       inkscape:connector-curvature="0"
       class="st0"
       d="m -33.554227,190.32037 c -1.6,-5.2 -50.4,-19.5 -46.5,-23.4 3.8,-3.8 29.9,22.2 33.7,18.4 3.8,-3.8 -3,-10.6 0.9,-14.5 3.8,-3.8 31.2,23.6 35.1,19.7 3.8,-3.8 -22.9,-30.6 -19.1,-34.4 3.8,-3.8 0.6,-7.1 4.5,-10.9 3.8,-3.8 11.1,26.1 16.5,26 5.1,-0.1 1.1,-20.1 4.7,-16.4 3.6,3.6 27.4,-20.1 31,-16.5 3.6,3.6 -18.5,25.7 -14.8,29.3 3.6,3.6 25.1,-17.8 28.7,-14.2 3.6,3.6 1.3,6 4.9,9.6 3.6,3.6 -43.2,11.5 -44.7,16.4 -1.4,4.7 31,37.7 26.1,38.2 -4.9,0.5 -6.7,-17.2 -11.6,-16.7 -4.9,0.5 -2.6,22 -7.5,22.5 -4.9,0.5 -9.8,-47 -14.7,-46.5 -4.9,0.5 -5.4,-4.4 -10.2,-3.9 -4.9,0.5 -4.8,0.8 -9.7,1.3 -4.9,0.5 -0.5,42.1 -5.4,42.6 -4.9,0.5 -5.3,-4.1 -10.2,-3.5 -4.9,0.5 -10,15 -5.2,14 11,-2.2 15,-32.4 13.5,-37.1 z"
       id="path970"
       style="fill:#ffffff;fill-opacity:1;stroke:none" />
    <path
       inkscape:connector-curvature="0"
       class="st1"
       d="m -33.554227,190.32037 c -1.6,-5.2 -50.4,-19.5 -46.5,-23.4 3.8,-3.8 29.9,22.2 33.7,18.4 3.8,-3.8 -3,-10.6 0.9,-14.5 3.8,-3.8 31.2,23.6 35.1,19.7 3.8,-3.8 -22.9,-30.6 -19.1,-34.4 3.8,-3.8 0.6,-7.1 4.5,-10.9 3.8,-3.8 11.1,26.1 16.5,26 5.1,-0.1 1.1,-20.1 4.7,-16.4 3.6,3.6 27.4,-20.1 31,-16.5 3.6,3.6 -18.5,25.7 -14.8,29.3 3.6,3.6 25.1,-17.8 28.7,-14.2 3.6,3.6 1.3,6 4.9,9.6 3.6,3.6 -43.2,11.5 -44.7,16.4 -1.4,4.7 31,37.7 26.1,38.2 -4.9,0.5 -6.7,-17.2 -11.6,-16.7 -4.9,0.5 -2.6,22 -7.5,22.5 -4.9,0.5 -9.8,-47 -14.7,-46.5 -4.9,0.5 -5.4,-4.4 -10.2,-3.9 -4.9,0.5 -4.8,0.8 -9.7,1.3 -4.9,0.5 -0.5,42.1 -5.4,42.6 -4.9,0.5 -5.3,-4.1 -10.2,-3.5 -4.9,0.5 -10,15 -5.2,14 11,-2.2 15,-32.4 13.5,-37.1 z"
       id="path972"
       style="fill:#ffffff;fill-opacity:1;stroke:none" />
    <path
       inkscape:connector-curvature="0"
       class="st0"
       d="m -99.154227,-178.77963 c 2.5,4.1 5.6,-11.9 2.2,-8.5 -3.400003,3.4 -12.800003,-5.9 -16.200003,-2.5 -3.4,3.4 9.4,16.3 6,19.7 -3.4,3.4 -27.3,-20.5 -30.7,-17.1 -3.4,3.4 23.9,69.7 19.1,69.6 -5,-0.1 4.2,-47 0.7,-50.5 -3.5,-3.5 -23.6,16.5 -27.1,13 -3.5,-3.5 36,-43.1 32.5,-46.6 -3.5,-3.5 -4.3,37.1 -2.4,32.5 2,-4.8 -23,19 -17.9,18.5 5.2,-0.5 3,-23.5 8.2,-24 5.2,-0.5 3.5,-18.1 8.7,-18.6 5.2,-0.5 7.5,24.4 12.7,23.9 5.200003,-0.5 19.900003,-36.6 23.600003,-33 3.9,3.7 -22.100003,19.2 -19.4,23.6 z"
       id="path974"
       style="fill:#ffffff;fill-opacity:1;stroke:none" />
    <path
       inkscape:connector-curvature="0"
       class="st1"
       d="m -99.154227,-178.77963 c 2.5,4.1 5.6,-11.9 2.2,-8.5 -3.400003,3.4 -12.800003,-5.9 -16.200003,-2.5 -3.4,3.4 9.4,16.3 6,19.7 -3.4,3.4 -27.3,-20.5 -30.7,-17.1 -3.4,3.4 23.9,69.7 19.1,69.6 -5,-0.1 4.2,-47 0.7,-50.5 -3.5,-3.5 -23.6,16.5 -27.1,13 -3.5,-3.5 36,-43.1 32.5,-46.6 -3.5,-3.5 -4.3,37.1 -2.4,32.5 2,-4.8 -23,19 -17.9,18.5 5.2,-0.5 3,-23.5 8.2,-24 5.2,-0.5 3.5,-18.1 8.7,-18.6 5.2,-0.5 7.5,24.4 12.7,23.9 5.200003,-0.5 19.900003,-36.6 23.600003,-33 3.9,3.7 -22.100003,19.2 -19.4,23.6 z"
       id="path976"
       style="fill:#ffffff;fill-opacity:1;stroke:none" />
    <path
       inkscape:connector-curvature="0"
       class="st0"
       d="m 176.84577,-208.57963 c 2.5,4.1 -45.9,-10.3 -49.3,-6.8 -3.4,3.4 47.1,53.9 43.7,57.3 -3.4,3.4 -36,-29.1 -39.4,-25.7 -3.4,3.4 28.7,35.5 25.3,38.9 -3.4,3.4 -27.8,5.5 -32.7,5.4 -5,-0.1 12.3,-43 8.8,-46.5 -3.5,-3.5 -31.3,24.3 -34.8,20.7 -3.5,-3.5 14.4,-21.4 10.9,-25 -3.5,-3.5 5.4,11.3 7.3,6.7 2,-4.8 -14.3,-4.9 -9.1,-5.4 5.2,-0.5 3,-24 8.2,-24.5 5.2,-0.5 5.8,6.4 11,5.9 5.2,-0.5 8.4,33.5 13.6,33 5.2,-0.5 14.5,2.6 19.2,0.3 14.1,-6.8 14.6,-38.8 17.3,-34.3 z"
       id="path978"
       style="fill:#ffffff;fill-opacity:1;stroke:none" />
    <path
       inkscape:connector-curvature="0"
       class="st1"
       d="m 176.84577,-208.57963 c 2.5,4.1 -45.9,-10.3 -49.3,-6.8 -3.4,3.4 47.1,53.9 43.7,57.3 -3.4,3.4 -36,-29.1 -39.4,-25.7 -3.4,3.4 28.7,35.5 25.3,38.9 -3.4,3.4 -27.8,5.5 -32.7,5.4 -5,-0.1 12.3,-43 8.8,-46.5 -3.5,-3.5 -31.3,24.3 -34.8,20.7 -3.5,-3.5 14.4,-21.4 10.9,-25 -3.5,-3.5 5.4,11.3 7.3,6.7 2,-4.8 -14.3,-4.9 -9.1,-5.4 5.2,-0.5 3,-24 8.2,-24.5 5.2,-0.5 5.8,6.4 11,5.9 5.2,-0.5 8.4,33.5 13.6,33 5.2,-0.5 14.5,2.6 19.2,0.3 14.1,-6.8 14.6,-38.8 17.3,-34.3 z"
       id="path980"
       style="fill:#ffffff;fill-opacity:1;stroke:none" />
    <path
       inkscape:connector-curvature="0"
       class="st0"
       d="m -123.45423,-104.67963 c 3.6,-3.6 56.000003,10.400001 54.800003,5.400001 -1.1,-4.900001 -29.7,1.7 -30.8,-3.300001 -1.200003,-4.9 19.3,-9.7 18.2,-14.7 -1.2,-4.9 -28.600003,20.700001 -33.600003,19.500001 -5.2,-1.2 -14.1,-35.400001 -17.9,-31.600001 -3.8,3.8 -7.5,0.1 -11.3,3.9 -3.8,3.8 28,35.600001 24.2,39.400001 -3.8,3.8 -50.9,-3.1 -49.7,2.2 1.1,4.9 32.4,4 37.4,5.1 4.9,1.1 11.6,-27.500001 16.5,-26.300001 4.9,1.2 37.900003,11.700001 35.800003,7.100001 -5.5,-11.600001 -47.200003,-3.200001 -43.600003,-6.700001 z"
       id="path982"
       style="fill:#ffffff;fill-opacity:1;stroke:none" />
    <path
       inkscape:connector-curvature="0"
       class="st1"
       d="m -123.45423,-104.67963 c 3.6,-3.6 56.000003,10.400001 54.800003,5.400001 -1.1,-4.900001 -29.7,1.7 -30.8,-3.300001 -1.200003,-4.9 19.3,-9.7 18.2,-14.7 -1.2,-4.9 -28.600003,20.700001 -33.600003,19.500001 -5.2,-1.2 -14.1,-35.400001 -17.9,-31.600001 -3.8,3.8 -7.5,0.1 -11.3,3.9 -3.8,3.8 28,35.600001 24.2,39.400001 -3.8,3.8 -50.9,-3.1 -49.7,2.2 1.1,4.9 32.4,4 37.4,5.1 4.9,1.1 11.6,-27.500001 16.5,-26.300001 4.9,1.2 37.900003,11.700001 35.800003,7.100001 -5.5,-11.600001 -47.200003,-3.200001 -43.600003,-6.700001 z"
       id="path984"
       style="fill:#ffffff;fill-opacity:1;stroke:none" />
    <path
       inkscape:connector-curvature="0"
       class="st0"
       d="m -209.35423,-130.97963 c 5.3,-1.8 7.3,-6 11.4,-2.1 4,3.8 -13.8,22.7 -9.7,26.5 4.1,3.8 17.1,-9.9 21.2,-6.1 4.1,3.8 -14.9,3.2 -14.7,8.8 0.2,5.400001 25.4,9.000001 21.6,12.900001 -3.7,3.9 -37.6,-28.500001 -41.3,-24.600001 -3.7,3.9 5.3,12.5 1.6,16.400001 -3.7,3.9 11.4,41.9 6.3,40.2 -4.9,-1.6 -1.3,-19.7 -1.6,-24.9 -0.2,-5.1 -25.6,-4 -25.9,-9.2 -0.2,-5.2 33.8,-6.6 33.6,-11.800001 -0.2,-5.1 15.4,-5.8 15.1,-11 -0.2,-5.2 -42.3,2.7 -43.7,-2.2 -1,-3.5 21.2,-11.3 26.1,-12.9 z"
       id="path986"
       style="fill:#ffffff;fill-opacity:1;stroke:none" />
    <path
       inkscape:connector-curvature="0"
       class="st1"
       d="m -209.35423,-130.97963 c 5.3,-1.8 7.3,-6 11.4,-2.1 4,3.8 -13.8,22.7 -9.7,26.5 4.1,3.8 17.1,-9.9 21.2,-6.1 4.1,3.8 -14.9,3.2 -14.7,8.8 0.2,5.400001 25.4,9.000001 21.6,12.900001 -3.7,3.9 -37.6,-28.500001 -41.3,-24.600001 -3.7,3.9 5.3,12.5 1.6,16.400001 -3.7,3.9 11.4,41.9 6.3,40.2 -4.9,-1.6 -1.3,-19.7 -1.6,-24.9 -0.2,-5.1 -25.6,-4 -25.9,-9.2 -0.2,-5.2 33.8,-6.6 33.6,-11.800001 -0.2,-5.1 15.4,-5.8 15.1,-11 -0.2,-5.2 -42.3,2.7 -43.7,-2.2 -1,-3.5 21.2,-11.3 26.1,-12.9 z"
       id="path988"
       style="fill:#ffffff;fill-opacity:1;stroke:none" />
    <path
       inkscape:connector-curvature="0"
       class="st0"
       d="m -205.95423,120.52037 c 5.3,-1.8 14,-40.799999 18.1,-36.999999 4,3.8 -19.3,28.499999 -15.2,32.299999 4.1,3.8 28.6,-22.1 32.6,-18.2 4.1,3.8 -6.6,22.8 -6.3,28.3 0.2,5.4 9.1,21.5 5.4,25.4 -3.7,3.9 -22.9,-14.5 -26.7,-10.6 -3.7,3.9 -26.3,-17.7 -30,-13.8 -3.7,3.9 17.2,44.8 12,43.2 -4.9,-1.6 -12.3,-17.3 -12.5,-22.5 -0.2,-5.1 -3.1,-5 -3.3,-10.2 -0.2,-5.2 51.9,-7.4 51.7,-12.6 -0.2,-5.1 -38.5,-3.5 -38.7,-8.6 -0.2,-5.2 -15.2,-7 -13,-2.3 3.8,8.3 21,8.3 25.9,6.6 z"
       id="path990"
       style="fill:#ffffff;fill-opacity:1;stroke:none" />
    <path
       inkscape:connector-curvature="0"
       class="st1"
       d="m -205.95423,120.52037 c 5.3,-1.8 14,-40.799999 18.1,-36.999999 4,3.8 -19.3,28.499999 -15.2,32.299999 4.1,3.8 28.6,-22.1 32.6,-18.2 4.1,3.8 -6.6,22.8 -6.3,28.3 0.2,5.4 9.1,21.5 5.4,25.4 -3.7,3.9 -22.9,-14.5 -26.7,-10.6 -3.7,3.9 -26.3,-17.7 -30,-13.8 -3.7,3.9 17.2,44.8 12,43.2 -4.9,-1.6 -12.3,-17.3 -12.5,-22.5 -0.2,-5.1 -3.1,-5 -3.3,-10.2 -0.2,-5.2 51.9,-7.4 51.7,-12.6 -0.2,-5.1 -38.5,-3.5 -38.7,-8.6 -0.2,-5.2 -15.2,-7 -13,-2.3 3.8,8.3 21,8.3 25.9,6.6 z"
       id="path992"
       style="fill:#ffffff;fill-opacity:1;stroke:none" />
    <path
       inkscape:connector-curvature="0"
       class="st0"
       d="m -129.25423,191.82037 c -2.6,-4.1 -26.7,11.4 -23.3,7.9 3.4,-3.4 -9.7,-16.3 -6.3,-19.7 3.4,-3.4 3.8,-3 7.2,-6.5 3.4,-3.4 29.8,22.5 33.1,19 3.4,-3.4 -9.1,-45.7 -4.3,-45.6 5,0 16.9,17.5 20.4,20.9 3.600003,3.5 -17.9,25.4 -14.4,28.9 3.6,3.5 19.100003,-12.4 22.700003,-8.9 3.6,3.5 23.4,18.9 21.6,23.5 -1.9,4.8 -23.6,26.1 -28.700003,26.6 -5.2,0.5 -12.1,-65.5 -17.2,-65 -5.2,0.5 -0.5,45.3 -5.7,45.8 -5.2,0.5 -4.9,3.6 -10,4.1 -5.2,0.5 8.1,10 11.6,6.1 8,-9 -3.9,-32.7 -6.7,-37.1 z"
       id="path994"
       style="fill:#ffffff;fill-opacity:1;stroke:none" />
    <path
       inkscape:connector-curvature="0"
       class="st1"
       d="m -129.25423,191.82037 c -2.6,-4.1 -26.7,11.4 -23.3,7.9 3.4,-3.4 -9.7,-16.3 -6.3,-19.7 3.4,-3.4 3.8,-3 7.2,-6.5 3.4,-3.4 29.8,22.5 33.1,19 3.4,-3.4 -9.1,-45.7 -4.3,-45.6 5,0 16.9,17.5 20.4,20.9 3.600003,3.5 -17.9,25.4 -14.4,28.9 3.6,3.5 19.100003,-12.4 22.700003,-8.9 3.6,3.5 23.4,18.9 21.6,23.5 -1.9,4.8 -23.6,26.1 -28.700003,26.6 -5.2,0.5 -12.1,-65.5 -17.2,-65 -5.2,0.5 -0.5,45.3 -5.7,45.8 -5.2,0.5 -4.9,3.6 -10,4.1 -5.2,0.5 8.1,10 11.6,6.1 8,-9 -3.9,-32.7 -6.7,-37.1 z"
       id="path996"
       style="fill:#ffffff;fill-opacity:1;stroke:none" />
    <path
       inkscape:connector-curvature="0"
       class="st0"
       d="m 63.545773,201.02037 c -2.6,-4.1 11.999997,-11 15.399997,-14.4 3.4,-3.4 -13.199997,-19.7 -9.8,-23.1 3.4,-3.4 7.9,1 11.3,-2.4 3.4,-3.4 4.5,-2.3 7.9,-5.8 3.4,-3.5 14.3,-24.6 19.2,-24.6 5,0 17.6,18.7 21.1,22.2 3.6,3.5 -10,17.3 -6.4,20.8 3.6,3.5 -12,19.4 -8.5,22.9 3.6,3.5 -9.9,-26.5 -11.8,-21.9 -1.9,4.8 28.8,15.5 23.6,16 -5.2,0.5 -1.9,31.9 -7.1,32.5 -5.2,0.5 -8.2,-28.6 -13.4,-28.1 -5.2,0.5 -1.9,32.5 -7,33.1 -5.2,0.5 -14.4,-47.7 -19.2,-45.6 -10.4,4.7 -12.6,22.8 -15.299997,18.4 z"
       id="path998"
       style="fill:#ffffff;fill-opacity:1;stroke:none" />
    <path
       inkscape:connector-curvature="0"
       class="st1"
       d="m 63.545773,201.02037 c -2.6,-4.1 11.999997,-11 15.399997,-14.4 3.4,-3.4 -13.199997,-19.7 -9.8,-23.1 3.4,-3.4 7.9,1 11.3,-2.4 3.4,-3.4 4.5,-2.3 7.9,-5.8 3.4,-3.5 14.3,-24.6 19.2,-24.6 5,0 17.6,18.7 21.1,22.2 3.6,3.5 -10,17.3 -6.4,20.8 3.6,3.5 -12,19.4 -8.5,22.9 3.6,3.5 -9.9,-26.5 -11.8,-21.9 -1.9,4.8 28.8,15.5 23.6,16 -5.2,0.5 -1.9,31.9 -7.1,32.5 -5.2,0.5 -8.2,-28.6 -13.4,-28.1 -5.2,0.5 -1.9,32.5 -7,33.1 -5.2,0.5 -14.4,-47.7 -19.2,-45.6 -10.4,4.7 -12.6,22.8 -15.299997,18.4 z"
       id="path1000"
       style="fill:#ffffff;fill-opacity:1;stroke:none" />
    <path
       inkscape:connector-curvature="0"
       class="st0"
       d="m 196.04577,96.92037 c -5.3,1.7 -12.5,38.3 -16.4,34.4 -3.9,-4 4.9,-12.7 0.9,-16.7 -3.9,-4 -1.8,-6.1 -5.7,-10.1 -3.9,-4 -18,-7.7 -18.1,-13.3 -0.1,-5.399999 16.2,-7.599999 20,-11.399999 3.8,-3.8 27.4,19.899999 31.2,16.099999 3.8,-3.8 -26.4,-34.099999 -22.6,-37.899999 3.8,-3.8 3.4,27.4 8.4,29.2 4.9,1.7 27.5,-21.7 27.6,-16.6 0.1,5.2 13.9,4.9 14,10.1 0.1,5.2 -68.9,6.3 -68.8,11.499999 0.1,5.2 57.4,4.2 57.5,9.4 0.1,5.2 -1.1,8.2 -3.1,3.4 -3.7,-8.5 -20,-9.6 -24.9,-8.1 z"
       id="path1002"
       style="fill:#ffffff;fill-opacity:1;stroke:none" />
    <path
       inkscape:connector-curvature="0"
       class="st1"
       d="m 196.04577,96.92037 c -5.3,1.7 -12.5,38.3 -16.4,34.4 -3.9,-4 4.9,-12.7 0.9,-16.7 -3.9,-4 -1.8,-6.1 -5.7,-10.1 -3.9,-4 -18,-7.7 -18.1,-13.3 -0.1,-5.399999 16.2,-7.599999 20,-11.399999 3.8,-3.8 27.4,19.899999 31.2,16.099999 3.8,-3.8 -26.4,-34.099999 -22.6,-37.899999 3.8,-3.8 3.4,27.4 8.4,29.2 4.9,1.7 27.5,-21.7 27.6,-16.6 0.1,5.2 13.9,4.9 14,10.1 0.1,5.2 -68.9,6.3 -68.8,11.499999 0.1,5.2 57.4,4.2 57.5,9.4 0.1,5.2 -1.1,8.2 -3.1,3.4 -3.7,-8.5 -20,-9.6 -24.9,-8.1 z"
       id="path1004"
       style="fill:#ffffff;fill-opacity:1;stroke:none" />
    <path
       inkscape:connector-curvature="0"
       class="st0"
       d="m 199.94577,-85.879629 c -5.3,1.7 22.4,-31.900001 18.5,-35.800001 -3.9,-4 -5.5,-2.4 -9.5,-6.3 -3.9,-4 -27.2,19.2 -31.1,15.2 -3.9,-4 9.7,-0.7 9.6,-6.3 -0.1,-5.4 -34.8,-22.7 -31,-26.5 3.8,-3.8 -3.8,-11.5 0,-15.3 3.8,-3.8 17.5,9.9 21.3,6.2 3.8,-3.8 4.7,34.9 9.8,36.7 4.9,1.7 44.5,-26.5 44.6,-21.4 0.1,5.2 -56.2,6.1 -56.2,11.3 0.1,5.2 61.2,4.1 61.3,9.3 0.1,5.2 -36.2,5.8 -36.1,10.9 0.1,5.2 3.8,3.5 5.2,8.400001 1.8,6.4 -1.4,12.1 -6.4,13.6 z"
       id="path1006"
       style="fill:#ffffff;fill-opacity:1;stroke:none" />
    <path
       inkscape:connector-curvature="0"
       class="st1"
       d="m 199.94577,-85.879629 c -5.3,1.7 22.4,-31.900001 18.5,-35.800001 -3.9,-4 -5.5,-2.4 -9.5,-6.3 -3.9,-4 -27.2,19.2 -31.1,15.2 -3.9,-4 9.7,-0.7 9.6,-6.3 -0.1,-5.4 -34.8,-22.7 -31,-26.5 3.8,-3.8 -3.8,-11.5 0,-15.3 3.8,-3.8 17.5,9.9 21.3,6.2 3.8,-3.8 4.7,34.9 9.8,36.7 4.9,1.7 44.5,-26.5 44.6,-21.4 0.1,5.2 -56.2,6.1 -56.2,11.3 0.1,5.2 61.2,4.1 61.3,9.3 0.1,5.2 -36.2,5.8 -36.1,10.9 0.1,5.2 3.8,3.5 5.2,8.400001 1.8,6.4 -1.4,12.1 -6.4,13.6 z"
       id="path1008"
       style="fill:#ffffff;fill-opacity:1;stroke:none" />
    <path
       inkscape:connector-curvature="0"
       class="st0"
       d="m -236.55423,192.72037 c 3.3,3.3 36.9,-13.1 36.3,-8.5 -0.6,4.6 1.4,4.9 0.8,9.5 -0.6,4.6 -24.9,1.5 -25.5,6.1 -0.6,4.6 13.6,25.4 9.2,26.9 -4.5,1.5 3.6,-32.7 0.3,-36 -3.3,-3.4 -18.8,12 -22.1,8.7 -3.3,-3.4 9.8,-16.5 6.5,-19.8 -3.3,-3.4 -25.2,18.4 -28.5,15 -3.3,-3.4 25.6,-5.5 27.3,-9.9 1.7,-4.5 -15,18.4 -10.2,17.9 4.8,-0.4 -0.1,-53.4 4.7,-53.8 4.8,-0.4 -1.2,15.9 -2.5,20.5 -3.5,10.9 0.3,20 3.7,23.4 z"
       id="path1010"
       style="fill:#ffffff;fill-opacity:1;stroke:none" />
    <path
       inkscape:connector-curvature="0"
       class="st1"
       d="m -236.55423,192.72037 c 3.3,3.3 36.9,-13.1 36.3,-8.5 -0.6,4.6 1.4,4.9 0.8,9.5 -0.6,4.6 -24.9,1.5 -25.5,6.1 -0.6,4.6 13.6,25.4 9.2,26.9 -4.5,1.5 3.6,-32.7 0.3,-36 -3.3,-3.4 -18.8,12 -22.1,8.7 -3.3,-3.4 9.8,-16.5 6.5,-19.8 -3.3,-3.4 -25.2,18.4 -28.5,15 -3.3,-3.4 25.6,-5.5 27.3,-9.9 1.7,-4.5 -15,18.4 -10.2,17.9 4.8,-0.4 -0.1,-53.4 4.7,-53.8 4.8,-0.4 -1.2,15.9 -2.5,20.5 -3.5,10.9 0.3,20 3.7,23.4 z"
       id="path1012"
       style="fill:#ffffff;fill-opacity:1;stroke:none" />
    <path
       inkscape:connector-curvature="0"
       class="st0"
       d="m -180.45423,-207.27963 c -3.3,3.3 10.1,23.7 5.5,23.5 -4.6,-0.2 -5.2,11.1 -9.8,10.9 -4.6,-0.2 -3.6,-19.3 -8.3,-19.5 -4.6,-0.2 -24.2,7.1 -25.3,2.6 -1.3,-4.9 15.2,-12.4 18.8,-16 3.6,-3.6 13.8,6.6 17.4,2.9 3.6,-3.6 15,7.8 18.7,4.1 3.6,-3.6 9.5,2.2 13.1,-1.4 3.6,-3.6 -25.7,-15.1 -20.8,-13.6 4.6,1.4 17.6,-12 17.7,-7.2 0.1,4.8 8.7,4.6 8.8,9.3 0.1,4.8 -17.5,-16.7 -22.2,-16.5 -8.4,0.4 -10.2,17.5 -13.6,20.9 z"
       id="path1014"
       style="fill:#ffffff;fill-opacity:1;stroke:none" />
    <path
       inkscape:connector-curvature="0"
       class="st1"
       d="m -180.45423,-207.27963 c -3.3,3.3 10.1,23.7 5.5,23.5 -4.6,-0.2 -5.2,11.1 -9.8,10.9 -4.6,-0.2 -3.6,-19.3 -8.3,-19.5 -4.6,-0.2 -24.2,7.1 -25.3,2.6 -1.3,-4.9 15.2,-12.4 18.8,-16 3.6,-3.6 13.8,6.6 17.4,2.9 3.6,-3.6 15,7.8 18.7,4.1 3.6,-3.6 9.5,2.2 13.1,-1.4 3.6,-3.6 -25.7,-15.1 -20.8,-13.6 4.6,1.4 17.6,-12 17.7,-7.2 0.1,4.8 8.7,4.6 8.8,9.3 0.1,4.8 -17.5,-16.7 -22.2,-16.5 -8.4,0.4 -10.2,17.5 -13.6,20.9 z"
       id="path1016"
       style="fill:#ffffff;fill-opacity:1;stroke:none" />
    <path
       inkscape:connector-curvature="0"
       class="st0"
       d="m -210.25423,-147.17963 c -3.2,3.2 -5.9,34 -10.4,33.6 -4.5,-0.3 -4.8,4 -9.4,3.7 -4.5,-0.3 -3.4,-16.4 -8,-16.7 -4.6,-0.3 26.4,-26.9 25.2,-31.3 -1.3,-4.7 -17.5,17.4 -14.1,13.9 3.5,-3.5 -10.1,-17 -6.6,-20.5 3.5,-3.5 -6.2,-13.1 -2.7,-16.6 3.5,-3.5 22.9,15.9 26.4,12.4 3.5,-3.5 -5.8,-16 -1.1,-14.5 4.5,1.4 -12.1,4.8 -11.9,9.5 0.2,4.7 -11.1,5.1 -10.9,9.8 0.2,4.7 -13.1,11.6 -12.1,16.2 0.9,4.3 38.9,-2.8 35.6,0.5 z"
       id="path1018"
       style="fill:#ffffff;fill-opacity:1;stroke:none" />
    <path
       inkscape:connector-curvature="0"
       class="st1"
       d="m -210.25423,-147.17963 c -3.2,3.2 -5.9,34 -10.4,33.6 -4.5,-0.3 -4.8,4 -9.4,3.7 -4.5,-0.3 -3.4,-16.4 -8,-16.7 -4.6,-0.3 26.4,-26.9 25.2,-31.3 -1.3,-4.7 -17.5,17.4 -14.1,13.9 3.5,-3.5 -10.1,-17 -6.6,-20.5 3.5,-3.5 -6.2,-13.1 -2.7,-16.6 3.5,-3.5 22.9,15.9 26.4,12.4 3.5,-3.5 -5.8,-16 -1.1,-14.5 4.5,1.4 -12.1,4.8 -11.9,9.5 0.2,4.7 -11.1,5.1 -10.9,9.8 0.2,4.7 -13.1,11.6 -12.1,16.2 0.9,4.3 38.9,-2.8 35.6,0.5 z"
       id="path1020"
       style="fill:#ffffff;fill-opacity:1;stroke:none" />
    <path
       inkscape:connector-curvature="0"
       class="st0"
       d="m 207.14577,-159.17963 c -3.3,-3.4 6.5,-10.9 7.2,-15.6 0.7,-4.6 10.3,-3.3 11,-7.9 0.7,-4.6 21.7,-1.7 22.3,-6.3 0.7,-4.6 -33.7,-13.1 -29.2,-14.6 4.5,-1.4 17.9,-9.5 21.2,-6.1 3.3,3.4 4.5,2.2 7.8,5.6 3.3,3.4 -19.5,25.6 -16.2,29 3.3,3.4 20.6,-13.5 24,-10.1 3.3,3.4 1.2,13.2 -0.5,17.6 -1.7,4.5 -6.3,15.7 -11.1,16.1 -4.8,0.4 -3,21.5 -7.8,21.9 -4.8,0.4 9,-4.6 4.7,-2.4 -8.2,4.2 -30,-23.8 -33.4,-27.2 z"
       id="path1022"
       style="fill:#ffffff;fill-opacity:1;stroke:none" />
    <path
       inkscape:connector-curvature="0"
       class="st1"
       d="m 207.14577,-159.17963 c -3.3,-3.4 6.5,-10.9 7.2,-15.6 0.7,-4.6 10.3,-3.3 11,-7.9 0.7,-4.6 21.7,-1.7 22.3,-6.3 0.7,-4.6 -33.7,-13.1 -29.2,-14.6 4.5,-1.4 17.9,-9.5 21.2,-6.1 3.3,3.4 4.5,2.2 7.8,5.6 3.3,3.4 -19.5,25.6 -16.2,29 3.3,3.4 20.6,-13.5 24,-10.1 3.3,3.4 1.2,13.2 -0.5,17.6 -1.7,4.5 -6.3,15.7 -11.1,16.1 -4.8,0.4 -3,21.5 -7.8,21.9 -4.8,0.4 9,-4.6 4.7,-2.4 -8.2,4.2 -30,-23.8 -33.4,-27.2 z"
       id="path1024"
       style="fill:#ffffff;fill-opacity:1;stroke:none" />
    <path
       inkscape:connector-curvature="0"
       class="st0"
       d="m 160.84577,-196.37963 c -3.2,-3.3 47.8,-9.1 48.6,-13.6 0.7,-4.6 -15.9,-7.2 -15.2,-11.8 0.7,-4.6 -50.1,-12.6 -49.3,-17.2 0.8,-4.6 26.5,-15.4 31.1,-15.9 5.7,-0.6 5.3,15.5 9.3,19.6 4,4.1 -8.9,16.6 -5,20.7 4,4.1 10.1,-1.9 14.1,2.2 4,4.1 1.2,-6.1 0.3,-0.5 -0.7,4.7 6.2,-29.7 1.5,-29.3 -4.7,0.5 1.1,58.1 -3.6,58.6 -4.7,0.5 -25.1,-55.4 -29.2,-53 -10.1,6.2 0.7,43.5 -2.6,40.2 z"
       id="path1026"
       style="fill:#ffffff;fill-opacity:1;stroke:none" />
    <path
       inkscape:connector-curvature="0"
       class="st1"
       d="m 160.84577,-196.37963 c -3.2,-3.3 47.8,-9.1 48.6,-13.6 0.7,-4.6 -15.9,-7.2 -15.2,-11.8 0.7,-4.6 -50.1,-12.6 -49.3,-17.2 0.8,-4.6 26.5,-15.4 31.1,-15.9 5.7,-0.6 5.3,15.5 9.3,19.6 4,4.1 -8.9,16.6 -5,20.7 4,4.1 10.1,-1.9 14.1,2.2 4,4.1 1.2,-6.1 0.3,-0.5 -0.7,4.7 6.2,-29.7 1.5,-29.3 -4.7,0.5 1.1,58.1 -3.6,58.6 -4.7,0.5 -25.1,-55.4 -29.2,-53 -10.1,6.2 0.7,43.5 -2.6,40.2 z"
       id="path1028"
       style="fill:#ffffff;fill-opacity:1;stroke:none" />
    <path
       inkscape:connector-curvature="0"
       class="st0"
       d="m 148.64577,176.32037 c 3.3,-3.2 14.6,-2.2 19.2,-1.8 4.6,0.4 0.7,49.8 5.3,50.2 4.6,0.4 7.3,-34.8 11.9,-34.5 4.6,0.4 42.8,-14 43.9,-9.5 1.2,5 -63.6,-15 -67.3,-11.5 -3.7,3.5 8.5,16.3 4.8,19.8 -3.7,3.5 -7.6,-0.5 -11.3,3 -3.7,3.5 14.9,23 11.2,26.5 -3.7,3.5 3.1,-13.8 -1.8,-15.5 -4.5,-1.5 -25.7,16.1 -25.6,11.4 0,-4.8 8.8,-4.7 8.8,-9.5 0,-4.8 -11.7,6.4 -13.8,2.2 -4.8,-9.9 11.2,-27.5 14.7,-30.8 z"
       id="path1030"
       style="fill:#ffffff;fill-opacity:1;stroke:none" />
    <path
       inkscape:connector-curvature="0"
       class="st1"
       d="m 148.64577,176.32037 c 3.3,-3.2 14.6,-2.2 19.2,-1.8 4.6,0.4 0.7,49.8 5.3,50.2 4.6,0.4 7.3,-34.8 11.9,-34.5 4.6,0.4 42.8,-14 43.9,-9.5 1.2,5 -63.6,-15 -67.3,-11.5 -3.7,3.5 8.5,16.3 4.8,19.8 -3.7,3.5 -7.6,-0.5 -11.3,3 -3.7,3.5 14.9,23 11.2,26.5 -3.7,3.5 3.1,-13.8 -1.8,-15.5 -4.5,-1.5 -25.7,16.1 -25.6,11.4 0,-4.8 8.8,-4.7 8.8,-9.5 0,-4.8 -11.7,6.4 -13.8,2.2 -4.8,-9.9 11.2,-27.5 14.7,-30.8 z"
       id="path1032"
       style="fill:#ffffff;fill-opacity:1;stroke:none" />
    <path
       inkscape:connector-curvature="0"
       class="st0"
       d="m 187.04577,124.32037 c 3.3,-3.1 17.7,44.7 22.2,45.1 4.5,0.4 7.8,-33.9 12.3,-33.5 4.5,0.4 6.6,-20.9 11.1,-20.5 4.5,0.4 -8.4,27.9 -7.3,32.3 1.2,4.8 -15.4,-26.7 -19,-23.3 -3.6,3.4 40,49 36.4,52.4 -3.6,3.4 -22.5,-16.5 -26.1,-13.1 -3.6,3.4 13.3,21.1 9.8,24.5 -3.6,3.4 -24.1,7.8 -28.8,6.1 -4.4,-1.6 41.7,-21.2 41.7,-25.9 -0.1,-4.7 -22.6,-4.4 -22.7,-9.1 -0.1,-4.7 -7.9,-7.2 -10.4,-11.2 -8.1,-13.2 -22.6,-20.5 -19.2,-23.8 z"
       id="path1034"
       style="fill:#ffffff;fill-opacity:1;stroke:none" />
    <path
       inkscape:connector-curvature="0"
       class="st1"
       d="m 187.04577,124.32037 c 3.3,-3.1 17.7,44.7 22.2,45.1 4.5,0.4 7.8,-33.9 12.3,-33.5 4.5,0.4 6.6,-20.9 11.1,-20.5 4.5,0.4 -8.4,27.9 -7.3,32.3 1.2,4.8 -15.4,-26.7 -19,-23.3 -3.6,3.4 40,49 36.4,52.4 -3.6,3.4 -22.5,-16.5 -26.1,-13.1 -3.6,3.4 13.3,21.1 9.8,24.5 -3.6,3.4 -24.1,7.8 -28.8,6.1 -4.4,-1.6 41.7,-21.2 41.7,-25.9 -0.1,-4.7 -22.6,-4.4 -22.7,-9.1 -0.1,-4.7 -7.9,-7.2 -10.4,-11.2 -8.1,-13.2 -22.6,-20.5 -19.2,-23.8 z"
       id="path1036"
       style="fill:#ffffff;fill-opacity:1;stroke:none" />
    <path
       inkscape:connector-curvature="0"
       class="st0"
       d="m -60.154227,61.820371 c -3.1,0 -8,-3.4 -13.4,-7.1 -4.6,-3.2 -11.6,-7.9 -12.9,-6.6 -2.1,2.1 -3.6,2.6 -5.1,3.2 -1.3,0.5 -2.6,1 -4.4,2.7 l -1.4,-1.4 c 2.1,-2.1 3.6,-2.6 5.1,-3.2 1.3,-0.5 2.6,-1 4.4,-2.7 2.5,-2.5 8.5,1.6 15.5,6.4 4.6,3.2 11.6,7.9 12.9,6.6 2.2,-2.2 4.1,-2.4 5.8,-2.7 1.6,-0.2 3,-0.5 4.7,-2.1 0.8,-1.9 -8.1,-12.9 -13.9,-20.2 -11.6,-14.4 -16.1,-20.6 -13.8,-22.9 2,-2 3.4,-2.7 4.8,-3.4 1.2,-0.6 2.4,-1.2 4.2,-3 1.7,-1.7 2,-3.1 2.3,-4.6 0.2,-1.1999996 0.5,-2.4999996 1.4,-3.8999996 -3.5,2.2 -6,2.9 -7.3,1.6 -1.3,-1.3 -3.8,-0.3 -6.5,0.7 -3,1.1999996 -6.4,2.4999996 -8.7,0.3 -2.2,-2.2 2.5,-8.4 14.5,-23.1000004 6,-7.4 15.2,-18.5 14.6,-20.5 -1.5,-1.4 -2.8,-1.6 -4.3,-1.8 -1.7,-0.2 -3.6,-0.4 -5.6,-2.4 -1.2,-1.2 -7.6,3.1 -11.4,5.7 -6.2,4.2 -11.6,7.8 -13.9,5.4 -2.4,-2.4 1.3,-7.7 5.5,-14 2.6,-3.8 6.9,-10.2 5.7,-11.4 l 1.4,-1.4 c 2.4,2.4 -1.3,7.7 -5.5,14 -2.6,3.8 -6.9,10.2 -5.7,11.4 1.2,1.2 7.6,-3.1 11.4,-5.7 6.2,-4.2 11.5,-7.8 13.9,-5.4 1.5,1.5 2.9,1.7 4.4,1.8 1.7,0.2 3.6,0.4 5.6,2.4 2.2,2.2 -2.5,8.4 -14.5,23.1 -6,7.4 -15.2,18.5000004 -14.6,20.5000004 1.3,1.2 3.8,0.2 6.5,-0.8 3,-1.2 6.4,-2.5 8.7,-0.3 1.2,1.2 9.5,-4.9 13.9,-8.2000004 8.8,-6.4 14.2,-10.3 16.5,-8 1.3,1.3 5,-0.7 8.2,-2.5 4.3,-2.3 8.3,-4.4 10.6,-2.1 2.5,2.5 -0.6,9.2 -5.5,19.1000004 -2.2,4.5 -4.5,9.1999996 -4.6,10.8999996 0,0.7 -0.4,1.3 -0.9,1.6 -1.9,1.1 -6.3,-1.2 -13.9,-5.2 -5.3,-2.7999996 -14.2,-7.5999996 -15.6,-6.1999996 -1.7,1.7 -2,3.1 -2.3,4.5999996 -0.3,1.6 -0.7,3.5 -2.8,5.6 -2,2 -3.4,2.7 -4.8,3.4 -1.2,0.6 -2.4,1.2 -4.2,3 -0.8,1.9 8.1,12.9 13.9,20.2 11.6,14.4 16.1,20.6 13.8,22.9 -2.2,2.2 -4.1,2.4 -5.8,2.7 -1.6,0.2 -3,0.5 -4.7,2.1 -0.7,0.7 -1.4,0.9 -2.2,0.9 z m -0.1,-67.4999996 c 3.1,0.1 8.3,2.8 15.5,6.5999996 4.2,2.3 10.5,5.6 11.9,5.3 0.1,-2.3 2.3,-6.6999996 4.8,-11.6999996 2.8,-5.7000004 7.5,-15.2000004 5.9,-16.8000004 -1.3,-1.3 -5,0.7 -8.2,2.5 -4.3,2.3 -8.3,4.4 -10.6,2.1 -1.2,-1.2 -9.5,4.9 -13.9,8.2000004 -2,1.4 -3.8,2.7 -5.4,3.8 z"
       id="path1038"
       style="fill:#ffffff;fill-opacity:1;stroke:none" />
    <path
       inkscape:connector-curvature="0"
       class="st0"
       d="m -50.754227,81.720371 c -3,0 -8.9,-4.3 -19.5,-12.6 -6.3,-4.9 -16.8,-13.2 -18.4,-12.2 l -1.4,-1.4 c 2.3,-2.3 8.2,1.9 21.1,12 6.3,4.9 16.8,13.2 18.4,12.2 1.6,-1.6 1.2,-3.4 0.9,-5.6 -0.4,-2.4 -0.8,-5.1 1.4,-7.4 2,-2 3.2,-2.8 4.4,-3.6 1.2,-0.7 2.2,-1.4 4.1,-3.3 1.1,-1.5 -7,-11.9 -11.8,-18.1 -9.9,-12.7 -14,-18.4 -11.7,-20.7 1.8,-1.8 2.5,-2.9 3.2,-4.1 0.7,-1.2 1.5,-2.5 3.5,-4.5 2.5,-2.5 7.7,0.9 13.8,4.7 4.2,2.7 10,6.4 11.3,5 2.5,-2.5 8.1,1.2 14.5,5.5 2,1.3 4.5,3 6.7,4.2 1,-1.2 2,-2.5 3.1,-3.8 0.4,-0.5 0.8,-0.9 1.1,-1.4 -1,-2.6 -2.2,-5.4 -3.2,-7.7 -3.2,-7.2 -4.9,-11.4 -3.7,-13.4 0.4,-0.6 1,-0.9 1.7,-0.9 l 0.7,0 c 5.4,-0.2 14.4,-0.6 18.1,3.1 2.1,2.1 -1.6,7.3 -11.2,19.3 1.3,3.8 1.6,6.5 0.3,7.8 -1.3,1.3 -3.5,0.9 -6.2,-0.4 -4.8,6 -9.6,12.4 -9.1,13.9 1.9,1.9 2.4,3.4 2.9,4.7 0.4,1.2 0.9,2.4 2.5,4 1.2,1.2 7.9,-3.4 11.9,-6.2 7.5,-5.2 12.2,-8.2 14.5,-6 2.2,2.3 0.8,5.8 -0.4,8.9 -1.1,2.8 -2.2,5.4 -0.9,6.7 2.2,2.2 1,5.6 -0.2,8.6 -1,2.6 -2,5.1 -0.6,6.5 1.2,1.2 9.3,-4.7 13.6,-7.9 8.6,-6.3 14,-10 16.2,-7.7 l -1.4,1.4 c -1.2,-1.2 -9.3,4.7 -13.6,7.9 -8.6,6.3 -14,10 -16.2,7.7 -2.2,-2.2 -1,-5.6 0.2,-8.6 1,-2.6 2,-5.1 0.6,-6.5 -2.2,-2.2 -0.8,-5.8 0.4,-8.9 1.1,-2.8 2.2,-5.4 0.9,-6.7 -1.2,-1.2 -7.9,3.4 -11.9,6.2 -7.5,5.2 -12.2,8.2 -14.5,6 -1.9,-1.9 -2.5,-3.4 -3,-4.8 -0.4,-1.2 -0.9,-2.4 -2.5,-4 -1.9,-1.9 1,-6.4 8.7,-16.2 -2,-1.1 -4.2,-2.6 -6.5,-4.1 -4.3,-2.8 -10.7,-7.1 -12,-5.7 -2.5,2.5 -7.7,-0.9 -13.8,-4.7 -4.2,-2.7 -10,-6.4 -11.3,-5 -1.8,1.8 -2.5,2.9 -3.2,4.1 -0.7,1.2 -1.5,2.5 -3.5,4.5 -1.1,1.5 7,11.9 11.8,18.1 9.9,12.7 14,18.4 11.7,20.7 -2,2 -3.2,2.8 -4.4,3.6 -1.2,0.7 -2.2,1.4 -4.1,3.3 -1.6,1.6 -1.2,3.4 -0.9,5.6 0.4,2.4 0.8,5.1 -1.4,7.4 -0.5,0.3 -1,0.5 -1.7,0.5 z m 42.4,-49 c 1.7,0.8 3,1.1 3.5,0.6 0.6,-0.6 0.3,-2.3 -0.3,-4.5 -0.1,0.1 -0.2,0.3 -0.4,0.4 -0.9,1.1 -1.9,2.3 -2.8,3.5 z m 2.5,-26.4 c -1.7,0 -3.4,0.1 -4.7,0.1 l -0.7,0 c -0.1,0 -0.1,0 -0.1,0 -0.7,1 2.2,7.5 3.9,11.5 1.1,2.5 2.1,4.8 2.9,6.7 5.2,-6.5 11.1,-14.2 10.6,-15.7 -2.2,-2.1 -7.4,-2.6 -11.9,-2.6 z"
       id="path1040"
       style="fill:#ffffff;fill-opacity:1;stroke:none" />
    <path
       inkscape:connector-curvature="0"
       class="st0"
       d="m 2.945773,-5.8796286 c -0.1,0 -0.2,0 -0.3,0 -2.6,-0.4 -5.9,-6.7000004 -11.4,-17.9000004 -3.5,-7 -9.3,-18.7 -11.3,-18.7 0,0 0,0 0,0 -1.8,0.1 -4.9,10.4 -6.6,15.9 -2.9,9.5 -4.2,13.4 -6.2,13.9 -0.3,0.1 -1,0.1 -1.7,-0.5 -1.3,-1.3 -4.1,-0.1 -6.8,1 -3.3,1.4 -6.8,2.8000004 -9,0.6 -1.6,-1.6 -2.8,-2.1 -4,-2.6 -1.3,-0.5 -2.7,-1.1 -4.6,-3 -2.2,-2.2 2.7,-8.6 15.1,-23.7 6.1,-7.4 15.3,-18.5 15.2,-20.9 -2.5,0 -14.1,9.7 -22.5,16.8 -16.6,13.9 -23.1,19 -25.3,16.8 -2.3,-2.3 0,-6.5 2.5,-11 1.8,-3.3 4.1,-7.3 2.8,-8.6 -1.3,-1.3 -4.4,0.2 -7.5,1.7 -3.7,1.8 -7.5,3.6 -9.8,1.3 l 1.4,-1.4 c 1.3,1.3 4.4,-0.2 7.5,-1.7 3.7,-1.8 7.5,-3.6 9.8,-1.3 2.3,2.3 0,6.5 -2.5,11 -1.8,3.2 -4,7.2 -2.9,8.5 2.3,0.3 14,-9.6 22.6,-16.8 16.6,-13.9 23.1,-19 25.3,-16.8 2.2,2.2 -2.7,8.6 -15.1,23.7 -6.2,7.5 -15.6,18.9 -15.2,21 1.6,1.6 2.7,2.1 3.9,2.5 1.3,0.5 2.7,1.1 4.6,3 1.3,1.3 4.1,0.1 6.8,-1 3.3,-1.4 6.6,-2.8 8.9,-0.7 1.2,-1 3.2,-7.6 4.6,-12.5 3.2,-10.7 5.4,-17.2 8.4,-17.4 3,-0.1 6.5,6.3 13.2,19.8 3.2,6.5 8.1,16.2000004 9.8,16.8000004 2.3,-2.2000004 5.2,-1.6 7.7,-1 2.4,0.5 4.4,1 5.9,-0.5 2.3,-2.3000004 5,-1.8000004 7.4,-1.4000004 2.2,0.4 4.1,0.7 5.7,-0.8 1.4,-1.4 -1.3,-6 -3.4,-9.8 -2.9,-5 -5.6,-9.7 -3.1,-12.2 1.4,-1.4 -1.5,-6.2 -3.7,-10.1 -3,-5.2 -5.9,-10 -3.4,-12.5 1.3,-1.3 -2.8,-7.6 -5.5,-11.8 -4.1,-6.3 -7.7,-11.8 -5.2,-14.3 1.8,-1.8 2.3,-3 2.9,-4.3 0.6,-1.4 1.3,-2.8 3.3,-4.8 2.5,-2.5 8.4,1.5 15.2,6.2 4.5,3.1 11.3,7.7 12.7,6.4 l 1.4,1.4 c -2.5,2.5 -8.4,-1.5 -15.2,-6.2 -4.5,-3.1 -11.3,-7.7 -12.7,-6.4 -1.8,1.8 -2.3,3 -2.9,4.3 -0.6,1.4 -1.3,2.8 -3.3,4.8 -1.3,1.3 2.8,7.6 5.5,11.8 4.1,6.3 7.7,11.8 5.2,14.3 -1.4,1.4 1.5,6.2 3.7,10.1 3,5.2 5.9,10 3.4,12.5 -1.4,1.4 1.3,6 3.4,9.8 2.9,5 5.6,9.7 3.1,12.2 -2.3,2.3000004 -5,1.8000004 -7.4,1.4000004 -2.2,-0.4 -4.1,-0.7 -5.7,0.8 -2.3,2.3 -5.2,1.7 -7.8,1.1 -2.4,-0.5 -4.4,-1 -5.9,0.5 -0.1,0.5 -0.5,0.7 -1,0.7 z"
       id="path1042"
       style="fill:#ffffff;fill-opacity:1;stroke:none" />
    <path
       inkscape:connector-curvature="0"
       class="st0"
       d="m 69.64577,37.420371 c -2.3,-2.3 0.7,-7.2 4.3,-12.8 2.3,-3.6 5.7,-9.1 4.5,-10.3 -1.2,-1.2 -7.3,2.9 -11.3,5.6 -6.199997,4.1 -11.499997,7.7 -13.899997,5.4 -1.8,-1.8 -2.7,-2.8 -3.5,-3.7 -0.8,-1 -1.6,-1.9 -3.4,-3.6 -2.3,-2.3 0.1,-6.6 2.7,-11.2 1.9,-3.4 4.3,-7.4999996 3,-8.7999996 -1.6,-0.8 -11.2,6.7999996 -17,11.2999996 -12,9.4 -17.5,13.3 -19.6,11.1 -1.4,-1.4 -3.2,-1 -5.4,-0.5 -2.4,0.5 -5.1,1.1 -7.2,-1.1 -2.4,-2.4 1.1,-7.6 5.1,-13.6 2.6,-3.9 6.5,-9.8999996 5.3,-11.0999996 -1.3,-1.3 -7.7,-1.2 -12.7,-1 -7.5,0.2 -12.3,0.2 -14,-1.6 -0.5,-0.5 -0.7,-1.1 -0.7,-1.8000004 0.1,-3.6 1,-21.9 5.4,-26.3 2.5,-2.5 7.6,0.7 13,4 3.9,2.4 9.2,5.6 10.6,4.3 1.4,-1.4 1,-3.3 0.1,-6.4 -0.8,-2.8 -1.7,-6 0.6,-8.3 2.4,-2.4 6.7,-0.2 11.3,2.2 3.5,1.9 7.5,4 8.9,2.6 2.5,-2.5 7.2,0.3 12.3,3.3 3.8,2.2 8.5,4.9 9.9,3.6 1.4,-1.4 -0.4,-5.1 -2.1,-8.4 -2,-4.1 -4.1,-8.3 -1.7,-10.7 1.5,-1.5 0.6,-4 -0.2,-6.7 -1,-3 -2.1,-6.4 0.2,-8.7 l 1.4,1.4 c -1.5,1.5 -0.6,4 0.2,6.7 1,3 2.1,6.4 -0.2,8.7 -1.4,1.4 0.4,5.1 2.1,8.4 2,4.1 4.1,8.3 1.7,10.7 -2.5,2.5 -7.2,-0.3 -12.3,-3.3 -3.8,-2.2 -8.5,-4.9 -9.9,-3.6 -2.4,2.4 -6.7,0.2 -11.3,-2.2 -3.5,-1.9 -7.5,-4 -8.9,-2.6 -1.4,1.4 -1,3.3 -0.1,6.4 0.8,2.8 1.7,6 -0.6,8.3 -2.5,2.5 -7.6,-0.7 -13,-4 -3.9,-2.4 -9.2,-5.6 -10.6,-4.3 -3.2,3.2 -4.5,17.2 -4.8,25 0,0.1 0,0.2000004 0.1,0.3000004 1.3,1.3 7.5,1.1 12.5,1 7.6,-0.2 12.4,-0.2 14.2,1.6 2.4,2.4 -1.1,7.5999996 -5.1,13.5999996 -2.6,3.9 -6.5,9.9 -5.3,11.1 1.4,1.4 3.2,1 5.4,0.5 2.4,-0.5 5.1,-1.1 7.2,1.1 1.6,0.8 11.2,-6.8 17,-11.3 12,-9.3999996 17.5,-13.2999996 19.6,-11.0999996 2.3,2.3 -0.1,6.5999996 -2.7,11.1999996 -1.9,3.4 -4.3,7.5 -3,8.8 1.8,1.8 2.7,2.8 3.5,3.7 0.8,1 1.6,1.9 3.4,3.6 1.2,1.2 7.3,-2.9 11.3,-5.6 6.199997,-4.1 11.499997,-7.7 13.899997,-5.4 2.3,2.3 -0.7,7.2 -4.3,12.8 -2.3,3.6 -5.7,9.1 -4.5,10.3 l -1.4,1.4 z"
       id="path1044"
       style="fill:#ffffff;fill-opacity:1;stroke:none" />
    <path
       inkscape:connector-curvature="0"
       class="st0"
       d="m -57.254227,-98.679629 c -2.2,-2.200001 2.1,-8.100001 9.9,-18.300001 4.1,-5.3 10.9,-14.1 10.1,-15.7 -1.9,-1.9 -2.3,-3.6 -2.6,-5.1 -0.3,-1.4 -0.6,-2.6 -2.1,-4.1 -1.2,-1.2 -6,1.8 -9.5,4 -5.2,3.2 -9.7,6 -12,3.7 -1.9,-1.9 -1.2,-6.8 0.2,-14.7 0.8,-4.4 1.8,-10.4 0.9,-11.4 0,0 0,0 -0.1,0 -1.9,0.1 -4.9,-0.2 -8.3,-0.6 -6.4,-0.7 -15.2,-1.8 -17.5,0.6 -2.2,2.2 -4.3,2.4 -6.2,2.6 -1.7,0.2 -3.3,0.3 -5,2 -0.600003,2.2 10.5,15.4 18.6,25 15,17.8 20.8,25.3 18.4,27.7 -2.4,2.4 -6.2,0.9 -9.7,-0.6 -3.1,-1.3 -6.1,-2.5 -7.6,-1 l -1.4,-1.4 c 2.4,-2.4 6.2,-0.9 9.7,0.6 3.1,1.3 6.1,2.5 7.6,1 0.6,-2.2 -10.5,-15.4 -18.6,-25 -15,-17.8 -20.800003,-25.3 -18.400003,-27.7 2.200003,-2.2 4.300003,-2.4 6.200003,-2.6 1.7,-0.2 3.3,-0.3 5,-2 3,-3 11.6,-2 19.2,-1.1 3.2,0.4 6.2,0.7 7.9,0.6 0.7,0 1.3,0.2 1.7,0.7 1.5,1.7 0.8,6.1 -0.4,13.1 -0.9,4.9 -2,11.7 -0.8,13 1.2,1.2 6,-1.8 9.5,-4 5.2,-3.2 9.7,-6 12,-3.7 1.9,1.9 2.3,3.6 2.6,5.1 0.3,1.4 0.6,2.6 2.1,4.1 2.2,2.2 -2.1,8.1 -9.9,18.3 -4.1,5.3 -10.9,14.1 -10.1,15.700001 l -1.4,1.2 z"
       id="path1046"
       style="fill:#ffffff;fill-opacity:1;stroke:none" />
    <path
       inkscape:connector-curvature="0"
       class="st0"
       d="m -149.65423,-17.779629 c -1,0 -2,-0.3 -2.8,-1.1 -2.1,-2.1 1.7,-7.2 11.4,-19.4 4.7,-5.8 11.6,-14.5 11.5,-16.6 -2.6,0.3 -13.7,9.7 -22,16.7 -17.3,14.7 -22.7,18.7 -24.7,16.7 -0.4,-0.4 -0.6,-0.9 -0.5,-1.5 0.3,-2.5 5.9,-6.1 15,-11.8 5.7,-3.6 14.3,-9 14.4,-10.7 0.1,-2 -9.9,-9.6 -16.5,-14.7 -10.6,-8.1 -17.1,-13.2 -17.3,-16.2 0,-0.6 0.2,-1.1 0.5,-1.5 2.1,-2.1 3.8,-2.5 5.4,-2.9 1.5,-0.4 2.7,-0.7 4.4,-2.3 2.4,-2.4 6.7,0 11.3,2.5 3.4,1.8 7.6,4.1 8.9,2.8 2.4,-2.4 8.1,1.7 18,9.1 4.9,3.7 14.1,10.6 15.4,9.3 l 1.4,1.4 c -2.4,2.4 -8.1,-1.7 -18,-9.1 -4.9,-3.7 -14.1,-10.5 -15.4,-9.3 -2.4,2.4 -6.7,0 -11.3,-2.5 -3.4,-1.8 -7.6,-4.1 -8.9,-2.8 -2.1,2.1 -3.8,2.5 -5.4,2.9 -1.5,0.4 -2.7,0.7 -4.4,2.3 -0.2,1.8 9.9,9.6 16.5,14.7 10.1,7.7 16.5,12.8 17.2,15.8 11.5,-9.6 15.6,-12.1 17.2,-10.5 2.1,2.1 -1.7,7.2 -11.4,19.4 -4.8,6 -12,15 -11.5,16.8 1.1,1.1 3.7,0 6.2,-1.1 3.1,-1.3 6.3,-2.7 8.4,-0.6 l -1.4,1.4 c -1.2,-1.2 -3.7,-0.1 -6.2,1 -1.7,1 -3.7,1.8 -5.4,1.8 z m -11,-15.2 c -5.3,3.3 -13.1,8.2 -14,10.1 2,-0.4 7.9,-5.1 14,-10.1 z"
       id="path1048"
       style="fill:#ffffff;fill-opacity:1;stroke:none" />
    <path
       inkscape:connector-curvature="0"
       class="st0"
       d="m -83.854227,-125.47963 c -2.9,0 -8.6,-4.4 -19.700003,-13.4 -6.6,-5.4 -16.6,-13.5 -18.5,-12.9 l -1.3,-1.5 c 2.1,-2.1 7.8,2 21.1,12.8 6.500003,5.2 16.200003,13.1 18.300003,12.9 0,-2.4 -9.3,-13.5 -16.100003,-21.6 -13.3,-15.9 -18.2,-22.1 -16,-24.3 2.3,-2.3 7,0.7 12.4,4.1 3.5,2.2 8.700003,5.5 9.900003,4.4 1.7,-1.7 2.4,-2.6 3.2,-3.6 0.8,-1 1.5,-2 3.3,-3.7 2,-2 3.9,-2.1 5.6,-2.2 1.5,-0.1 2.9,-0.2 4.3,-1.6 0.7,-0.7 1.4,-0.6 1.7,-0.5 1.5,0.6 1.8,3.5 2.3,12.5 0.3,4.9 0.9,16.4 2.6,16.5 2.2,0 9.7,-14.1 14.7,-23.4 8.3,-15.5 12.2,-22.4 14.9,-22.8 0.6,-0.1 1.1,0.1 1.5,0.5 2.5,2.5 -0.2,7.4 -3.2,12.5 -2.2,3.9 -5,8.7 -3.5,10.1 2.5,2.5 -1.5,8.3 -8.2,17.6 -3.7,5.1 -9.8,13.6 -8.4,15 1.4,1.4 12.4,-7.1 18.3,-11.7 11.7,-9.1 18.5,-14.1 21,-11.6 l -1.4,1.4 c -1.4,-1.4 -12.4,7.1 -18.3,11.7 -11.7,9.1 -18.5,14.1 -21,11.6 -2.5,-2.5 1.5,-8.3 8.2,-17.6 3.7,-5.1 9.8,-13.6 8.4,-15 -2.5,-2.5 0.2,-7.4 3.2,-12.5 2.2,-3.8 4.8,-8.5 3.6,-10 -2.1,0.7 -8.6,12.8 -13.3,21.7 -8.9,16.8 -13.5,24.7 -16.6,24.5 -3.2,-0.2 -3.8,-7.1 -4.4,-18.4 -0.2,-3.7 -0.5,-8.6 -1,-10.3 -1.9,1.6 -3.6,1.7 -5.2,1.8 -1.5,0.1 -2.9,0.2 -4.3,1.6 -1.7,1.7 -2.4,2.6 -3.2,3.6 -0.8,1 -1.5,2 -3.3,3.7 -2.3,2.3 -7,-0.7 -12.400003,-4.1 -3.4,-2.2 -8.5,-5.4 -9.8,-4.4 -0.2,2.3 9.2,13.5 16.100003,21.7 13.3,15.9 18.2,22.1 16,24.3 -0.5,0.4 -1,0.6 -1.5,0.6 z"
       id="path1050"
       style="fill:#ffffff;fill-opacity:1;stroke:none" />
    <path
       inkscape:connector-curvature="0"
       class="st0"
       d="m -185.95423,-1.6796286 c -2.2,-2.2 -2.2,-4.4 -2.2,-6.4 0,-1.8 0,-3.4000004 -1.6,-5.0000004 -2.4,-2.4 -0.2,-6.6 1.8,-10.7 1.7,-3.3 3.6,-7 2.2,-8.4 -2.4,-2.4 2.1,-8.5 10.2,-19.1 0.5,-0.6 1,-1.3 1.5,-2 -3.2,-4.3 -7.3,-9.2 -10.5,-13.2 -13.2,-16.1 -18.3,-22.8 -15.9,-25.2 2.4,-2.4 9.8,3.4 27.4,18.2 1.9,1.6 4,3.3 6,5 0.3,-0.6 0.6,-1 0.9,-1.2 0.3,-0.2 1.3,-0.7 2.4,0.4 0.8,0.8 0.8,2 0.2,3.7 7,5.7 13.5,10.6 15.2,10.4 0.5,-2.2 -9.1,-14 -15.5,-21.9 -12.7,-15.6 -17.7,-22.2 -15.3,-24.600001 2.3,-2.3 8.4,2.000001 21.7,12.400001 6.5,5.1 17.4,13.7 19,12.6 l 1.4,1.4 c -2.3,2.3 -8.4,-2 -21.7,-12.4 -6.5,-5.1 -17.4,-13.700001 -19,-12.600001 -0.8,2.000001 9,14.000001 15.5,21.900001 12.8,15.6 17.7,22.3 15.4,24.6 -1.9,1.9 -6.8,-1.3 -17.5,-9.9 -0.5,0.9 -1.1,2 -1.9,3.2 -0.1,2.1 -0.1,4.2 -0.1,5.7 0.2,0.4 0.2,1 0.2,1.3 0,0.9 0,1.6 -0.9,1.7 l -0.3,0.1 c -0.2,1 -0.5,2.3 -0.7,3.5 1.7,2.9 2,4.7 1,5.6 -1.1,1.1 -2,0.8 -2.4,0.6 -1.1,-0.7 -1.1,-3.3 -0.7,-5.9 -0.7,-1.1 -1.6,-2.4 -2.6,-3.8 -0.4,0.5 -0.8,1 -1.1,1.5 -4.1,5.3 -11.6,15.2 -10.4,16.5 2.4,2.4 0.2,6.6 -1.8,10.7 -1.7,3.3 -3.6,7 -2.2,8.4 2.2,2.2 2.2,4.4 2.2,6.4000004 0,1.8 0,3.4 1.6,5 l -1.5,1.5 z m 14.5,-51.5000004 c 0.7,0.9 1.3,1.8 1.9,2.6 0.4,-1.9 0.9,-3.4 1,-3.8 0.1,-0.2 0.2,-0.4 0.3,-0.5 0,-0.8 0,-1.6 0,-2.6 -1,1.3 -2.1,2.7 -3.2,4.3 z m -27.6,-36.9 c -0.5,2.3 9.5,14.4 16.1,22.5 4.2,5.2 7.6,9.4 10.2,12.8 1.5,-2 3.2,-4.3 4.5,-6.3 0.1,-1.8 0.3,-3.6 0.6,-5.1 -2,-1.7 -4.3,-3.6 -6.7,-5.6 -9.4,-7.9 -22.2,-18.7 -24.7,-18.3 z m 33.6,23 c 0.1,0.1 0.2,0.2 0.4,0.3 0.1,-0.5 0.1,-0.8 0,-1 -0.2,0.2 -0.3,0.4 -0.4,0.7 z"
       id="path1052"
       style="fill:#ffffff;fill-opacity:1;stroke:none" />
    <path
       inkscape:connector-curvature="0"
       class="st0"
       d="m -130.85423,88.520371 c -2.3,-2.3 0.7,-7.1 4.2,-12.7 2.3,-3.6 5.7,-9 4.5,-10.2 -1.5,-1.5 -2.8,-1.7 -4.3,-2 -1.6,-0.2 -3.4,-0.5 -5.4,-2.5 -1.5,-1.5 -3,-1.3 -4.9,-1.2 -2,0.2 -4.4,0.4 -6.5,-1.7 -1.3,-1.3 -11.4,1.9 -17.5,3.9 -9.6,3.1 -15.2,4.8 -17.1,3.4 -0.5,-0.4 -0.8,-0.9 -0.7,-1.5 0.1,-5.7 6,-16.3 9.6,-19.9 1.4,-1.4 1,-3.4 0.5,-5.6 -0.5,-2.5 -1.2,-5.2 1,-7.4 2.2,-2.2 8.1,2.1 22,13.3 7,5.6 17.5,14.2 19.4,13.4 1.2,-1.2 -6.4,-11.1 -10,-15.9 -7.8,-10.3 -12.2,-16.2 -9.8,-18.5 l 1.4,1.4 c -1.2,1.2 6.4,11.1 10,15.9 7.8,10.3 12.2,16.2 9.8,18.5 -2.2,2.2 -8.1,-2.1 -22,-13.3 -7,-5.6 -17.6,-14.2 -19.4,-13.4 -1.4,1.4 -1,3.3 -0.5,5.6 0.5,2.5 1.2,5.2 -1,7.4 -3.7,3.7 -8.9,13.8 -9,18.5 1.4,0.8 9.7,-1.9 15.2,-3.7 10.7,-3.5 17.4,-5.5 19.5,-3.4 1.5,1.5 3,1.3 4.9,1.2 2,-0.2 4.4,-0.4 6.5,1.7 1.5,1.5 2.8,1.7 4.3,2 1.6,0.2 3.4,0.5 5.4,2.5 2.3,2.3 -0.7,7.1 -4.2,12.7 -2.3,3.6 -5.7,9 -4.5,10.2 l -1.4,1.3 z"
       id="path1054"
       style="fill:#ffffff;fill-opacity:1;stroke:none" />
    <path
       inkscape:connector-curvature="0"
       class="st0"
       d="m -30.854227,156.42037 c -2.8,0 -8.2,-4.1 -18.6,-12.3 -4.2,-3.4 -10,-8 -13.7,-10.3 -0.3,0.5 -0.6,1 -0.8,1.4 -1.1,1.8 -2.3,4 -3,5.7 1,3.2 1.3,4.3 0.3,4.8 -0.8,0.5 -1.7,-0.3 -1.9,-0.6 -1,-1 -1.1,-2.5 -0.5,-4.3 -0.7,-2.2 -1.3,-4.2 -1.6,-5.9 -2.4,1.6 -4.9,2.8 -4.9,2.8 -0.5,0.2 -1.5,0.6 -2.1,-0.2 -0.6,-0.8 0.3,-1.6 0.6,-2 1.9,-1.9 3.5,-2.3 4.9,-2.7 0.4,-0.1 0.8,-0.2 1.2,-0.4 0,-1 0.2,-1.8 0.6,-2.4 0.4,-0.6 1.1,-0.9 1.9,-0.9 0,0 0,0 0,0 1.1,0 1.6,0.5 1.8,0.9 0.7,0 1.6,0.3 2.8,0.8 1.3,-2.4 2.2,-4.7 1.4,-5.5 -1.2,-1.2 -2.9,-0.8 -5.6,0.1 -2.5,0.8 -5.4,1.7 -7.5,-0.3 -2.2,-0.3 -13.3,9 -20.6,15.1 -15.200003,12.6 -21.100003,17.2 -23.300003,15.1 l 1.4,-1.4 c -0.1,-0.1 -0.1,-0.1 -0.1,-0.1 2,0.4 13.3,-8.9 20.700003,-15.1 15.2,-12.6 21.1,-17.2 23.3,-15.1 1.2,1.2 2.9,0.8 5.6,-0.1 2.6,-0.8 5.5,-1.7 7.6,0.4 1.7,1.7 0.7,4.6 -1.1,7.9 3.2,1.9 7.7,5.4 14,10.5 6.2,5 15.7,12.5 17.4,11.9 1.1,-1.1 -3.5,-7.7 -6.2,-11.6 -5.1,-7.4 -8.1,-12 -5.9,-14.2 l 1.4,1.4 c -1.1,1.1 3.4,7.7 6.1,11.6 5.1,7.4 8.1,12 5.9,14.2 -0.5,0.6 -0.9,0.8 -1.5,0.8 z m -38.1,-22.6 c 0.2,1.3 0.6,2.8 1,4.2 0.6,-1.2 1.4,-2.5 2.2,-3.9 0.3,-0.5 0.5,-0.9 0.8,-1.4 -0.9,-0.5 -1.6,-0.7 -1.9,-0.5 -0.8,0.7 -1.4,1.2 -2.1,1.6 z"
       id="path1056"
       style="fill:#ffffff;fill-opacity:1;stroke:none" />
    <path
       inkscape:connector-curvature="0"
       class="st0"
       d="m -180.65423,137.02037 c -1.7,-1.7 -2.9,-2.3 -4.1,-2.8 -1.3,-0.6 -2.7,-1.2 -4.7,-3.2 -2.4,-2.4 0.7,-7.3 4.2,-13 2.4,-3.9 5.8,-9.3 4.5,-10.6 -2.4,-2.4 1.8,-8.1 9.2,-18.099999 3.5,-4.6 9.7,-12.9 9.6,-15.1 -1.7,-1 -3.6,-2.3 -5.6,-3.7 -3,-2 -7.6,-5.1 -9.7,-5.6 -4.8,1.8 -10.2,3.9 -14.7,5.7 -16.8,6.7 -24.4,9.5 -26.6,8 -0.5,-0.3 -0.7,-0.8 -0.8,-1.3 -0.3,-5.2 8.1,-24.6 11.7,-28.1 2.2,-2.2 7.2,1.3 15.2,7.1 4,2.9 11.6,8.4 12.6,7.3 0.5,-0.5 1.3,-0.8 2.1,-0.7 5.5,-2 9.2,-3 11.5,-3.2 -2.5,-3 -5.1,-6.1 -7.5,-8.8 -15.7,-18.4 -19.9,-24 -17.9,-26 2,-2 7.3,1.8 24.3,16.2 8.3,7 19.7,16.6 21.8,16.2 0,0 -0.1,0 -0.1,0.1 l 1.4,1.4 c -2,2 -7.3,-1.8 -24.3,-16.2 -8,-6.7 -18.9,-15.9 -21.5,-16.2 0.4,2.8 10.5,14.6 17.9,23.2 15.7,18.4 19.9,24 17.9,26 -1.2,1.2 -3.3,0.8 -5.9,-0.5 -0.7,3.1 -4.4,8.1 -9.8,15.299999 -3.7,5 -10.7,14.2 -9.4,15.5 2.4,2.4 -0.7,7.3 -4.2,13 -2.4,3.9 -5.8,9.3 -4.5,10.6 1.7,1.7 2.9,2.3 4.1,2.8 1.3,0.6 2.7,1.2 4.7,3.2 l -1.4,1.5 z m -36.6,-59.899999 c 2.3,0.6 15.2,-4.5 24.6,-8.3 3.6,-1.4 6.9,-2.7 9.8,-3.8 -2.6,-1.2 -6.2,-3.7 -10.6,-6.9 -4,-2.9 -11.6,-8.4 -12.6,-7.3 -3.2,3 -11.2,21.3 -11.2,26.3 z m 56.9,-4.3 c 2.1,1.2 3.9,2 4.6,1.6 0,-1.2 -2.5,-4.8 -6,-9.1 0,0.7 -0.1,1.3 -0.1,2 -0.2,1.9 -0.3,3.6 1.2,5.2 0.1,0 0.3,0.1 0.3,0.3 z m -14,-8.8 c 2.3,1.1 5,2.9 8,4.9 0.8,0.5 1.7,1.1 2.6,1.8 -0.3,-1.2 -0.1,-2.4 0,-3.6 0.2,-1.9 0.3,-3.6 -1.2,-5.2 -1,-0.6 -4.7,0.4 -9.4,2.1 z"
       id="path1058"
       style="fill:#ffffff;fill-opacity:1;stroke:none" />
    <path
       inkscape:connector-curvature="0"
       class="st0"
       d="m -40.354227,200.92037 c -2.6,0 -6,-1.9 -9.5,-3.9 -3.7,-2.1 -8.3,-4.7 -9.8,-3.2 -0.5,0.5 -1.1,0.7 -1.7,0.5 -2.5,-0.5 -5.3,-6.6 -9.9,-17.3 -3,-7 -8.1,-18.7 -10.2,-18.7 0,0 0,0 0,0 -0.1,0 -0.2,0 -0.2,0.1 -1,1.4 1.4,8.1 2.6,11.7 1.5,4.5 2,5.7 0.9,6.3 -0.8,0.5 -1.6,-0.3 -1.9,-0.5 -1.2,-1.2 -8,3.6 -12.1,6.4 -7.6,5.3 -12.400003,8.5 -14.700003,6.2 -2.2,-2.2 1.7,-7.6 11.900003,-20.3 5.1,-6.4 12.7,-16 12,-17.7 -1.7,-1.6 -2.7,-2.2 -3.8,-2.9 -1.2,-0.7 -2.3,-1.4 -4.2,-3.2 -1.2,-1.2 -6.2,1.8 -9.800003,4 -5.3,3.3 -9.9,6.1 -12.2,3.8 l 1.4,-1.4 c 1.2,1.2 6.2,-1.8 9.8,-4 5.300003,-3.3 9.900003,-6.1 12.200003,-3.8 1.7,1.7 2.7,2.3 3.8,2.9 1.2,0.7 2.3,1.4 4.2,3.2 2.2,2.2 -1.7,7.6 -11.9,20.3 -5.1,6.4 -12.700003,16 -12.000003,17.7 1.1,1.1 8.000003,-3.6 12.100003,-6.5 6.4,-4.4 10.7,-7.3 13.3,-6.9 -0.3,-0.9 -0.7,-2 -1,-3 -2.2,-6.4 -3.8,-11.4 -2.4,-13.5 0.4,-0.6 1,-0.9 1.8,-1 0,0 0.1,0 0.1,0 3.3,0 6.8,7.6 12.1,19.9 2.7,6.2 6.7,15.5 8.3,16.1 2.5,-2.4 7.2,0.2 12.1,2.9 3.7,2.1 8.3,4.7 9.8,3.2 1.4,-1.4 -5.3,-10.4 -9.3,-15.8 -7.2,-9.8 -11.5,-15.9 -9.1,-18.4 2.1,-2.1 3.8,-2.7 5.3,-3.3 1.4,-0.5 2.7,-1 4.6,-2.8 l 1.4,1.4 c -2.1,2.1 -3.8,2.7 -5.3,3.3 -1.4,0.5 -2.7,1 -4.6,2.8 -1.4,1.4 5.3,10.4 9.3,15.8 7.2,9.8 11.5,15.9 9.1,18.4 -0.6,0.9 -1.5,1.2 -2.5,1.2 z"
       id="path1060"
       style="fill:#ffffff;fill-opacity:1;stroke:none" />
    <path
       inkscape:connector-curvature="0"
       class="st0"
       d="m 94.04577,164.52037 c -3.2,0 -10,-5.3 -23.3,-16.1 -2.5,-2.1 -5.399997,-4.4 -8.299997,-6.7 -0.8,2 -1.8,4.3 -2.9,6.8 -1.1,2.6 -2.5,5.6 -3.4,8.2 0.8,2.7 1,4.6 0.4,5.6 -0.4,0.6 -1,0.9 -1.7,1 -0.7,0 -1.2,-0.2 -1.5,-0.7 -0.7,-1 -0.4,-2.7 0.7,-6 -0.9,-2.5 -2.1,-5.6 -3,-7.9 -1.3,-3.1 -2.3,-5.7 -3.1,-8 -7.9,5.9 -12.6,8.9 -14.7,6.8 -2.2,-2.2 -0.8,-5.5 0.6,-8.8 1.1,-2.6 2.3,-5.3 1,-6.6 -1.2,-1.1 -6.3,2 -9.6,4.1 -5.3,3.3 -9.8,6.1 -12.1,3.9 l 1.4,-1.4 c 1.2,1.2 6.3,-2 9.6,-4.1 5.3,-3.3 9.8,-6.1 12.1,-3.9 2.2,2.2 0.8,5.5 -0.6,8.8 -1.1,2.6 -2.3,5.3 -1,6.6 1,1 8.3,-4.2 12.6,-7.4 -1.1,-3.6 -1.2,-6 0.1,-7.3 1.2,-1.2 3.4,-0.5 7.3,2 5.1,-3.6 8.4,-5.1 10,-3.5 1.399997,1.4 0.7,4.8 -1.3,9.9 2.6,2 5.499997,4.4 8.799997,7.1 8,6.5 20.1,16.4 22.1,15.7 1.6,-1.6 1.4,-3.4 1.1,-5.5 -0.3,-2.3 -0.6,-4.9 1.7,-7.1 1.1,-1.5 -7.2,-12.2 -12.2,-18.5 -10.1,-12.9 -14.3,-18.9 -12,-21.2 l 1.4,1.4 c -1.1,1.5 7.2,12.2 12.2,18.5 10.1,12.9 14.3,18.9 12,21.2 -1.6,1.6 -1.4,3.4 -1.2,5.5 0.3,2.3 0.6,4.9 -1.7,7.1 -0.4,0.3 -0.9,0.5 -1.5,0.5 z m -38.999997,-4.3 c -0.1,0.3 -0.1,0.6 -0.1,0.8 0.1,-0.1 0.1,-0.4 0.1,-0.8 z m -5.4,-20.9 c 0.9,2.8 2.2,6 3.3,8.5 0.9,2.2 1.7,4.1 2.3,5.8 0.7,-1.7 1.6,-3.7 2.6,-6.1 0.9,-2 2,-4.7 3.1,-7.2 -2.2,-1.7 -4.4,-3.4 -6.2,-4.7 -2,1.4 -3.8,2.7 -5.1,3.7 z m 6.7,-4.8 c 1.5,1.1 3.3,2.4 5.2,3.9 1.3,-3.5 2.2,-6.5 1.5,-7.2 -0.5,-0.6 -3.5,1.1 -6.7,3.3 z m -7.4,-1.8 c -0.1,0 -0.2,0 -0.3,0 -0.6,0.6 -0.3,2.4 0.3,4.6 1.4,-1 2.7,-2 3.9,-2.8 -1.8,-1.2 -3.2,-1.8 -3.9,-1.8 z"
       id="path1062"
       style="fill:#ffffff;fill-opacity:1;stroke:none" />
    <path
       inkscape:connector-curvature="0"
       class="st0"
       d="m 147.44577,103.22037 c -3,0 -8.4,-3.9 -16.6,-10.2 -5,-3.799999 -14.4,-10.899999 -15.7,-9.699999 l -1.4,-1.4 c 2.3,-2.4 8.2,1.9 18.3,9.499999 5,3.8 14.4,10.9 15.7,9.7 2,-2 3.4,-2.6 4.8,-3.1 1.3,-0.5 2.4,-1 4.1,-2.7 1.4,-1.4 0.6,-3.8 -0.2,-6.299999 -0.9,-2.9 -2,-6.1 0.3,-8.4 0,-1.6 -8.6,-7 -14.3,-10.5 -10.2,-6.4 -16.5,-10.4 -16.3,-13.4 0.2,-3.3 5.7,-3.8 11.1,-4.4 1.8,-0.2 4.2,-0.4 5.2,-0.8 -1.7,-2.1 1.7,-6.9 10.1,-17.6 4.2,-5.3 10.4,-13.3 10.1,-15.1 -1.9,-0.3 -10.8,6.9 -16.7,11.6 -12.2,9.8 -17.3,13.5 -19.4,11.5 -1.1,-1.1 -2.7,-0.7 -5.3,0 -2.4,0.7 -5.2,1.6 -7.3,-0.5 l 1.4,-1.4 c 1.1,1.1 2.7,0.7 5.3,0 2.4,-0.7 5.2,-1.6 7.3,0.5 1.7,0.4 10.7,-6.8 16.7,-11.6 12.2,-9.8 17.3,-13.5 19.4,-11.5 2,2 -1.3,6.7 -9.9,17.8 -4.2,5.4 -10.6,13.6 -10,15.2 0.7,0.7 0.7,1.4 0.5,1.8 -0.5,1.4 -2.7,1.7 -7.1,2.1 -3.2,0.3 -9.2,0.9 -9.3,2.5 -0.1,1.9 9.2,7.7 15.3,11.6 9.2,5.8 14.9,9.4 15.2,12 0.1,0.6 -0.1,1.2 -0.6,1.6 -1.4,1.4 -0.6,3.8 0.2,6.3 0.9,2.899999 2,6.099999 -0.3,8.399999 -2,2 -3.4,2.6 -4.8,3.1 -1.3,0.5 -2.4,1 -4.1,2.7 -0.4,0.5 -1,0.7 -1.7,0.7 z"
       id="path1064"
       style="fill:#ffffff;fill-opacity:1;stroke:none" />
    <path
       inkscape:connector-curvature="0"
       class="st0"
       d="m 95.54577,194.72037 c -2.5,0 -6.4,-2.6 -11.9,-6.4 -3.8,-2.6 -10.2,-7 -11.3,-5.9 -0.7,0.7 -1.4,0.5 -1.6,0.5 -1.7,-0.6 -2.3,-4.1 -3.6,-14.1 -0.7,-5.2 -2.299997,-17.5 -3.999997,-17.6 -0.2,0 -0.3,0 -0.5,0.2 -1.5,1.4 -1.5,7.5 -1.6,12 0,5.8 -0.1,8.3 -1.6,8.9 -0.4,0.2 -1.2,0.2 -2,-0.6 -1.4,-1.4 -11.7,6.5 -17.3,10.8 -11.1,8.4 -17.5,13.1 -19.9,10.6 -2.6,-2.6 1.3,-8.4 5.8,-15.1 3,-4.5 7.5,-11.2 6.1,-12.6 -2.5,-2.5 2.1,-8.8 10.4,-19.7 4.2,-5.5 12,-15.7 10.6,-17.1 l 1.4,-1.4 c 2.5,2.5 -2.1,8.8 -10.4,19.7 -4.2,5.5 -12,15.7 -10.6,17.1 2.6,2.6 -1.3,8.4 -5.8,15.1 -3,4.5 -7.5,11.2 -6.1,12.6 1.4,1.4 11.7,-6.5 17.3,-10.8 10.8,-8.2 17.2,-12.9 19.8,-10.8 0.3,-1.2 0.3,-4.4 0.4,-6.8 0.1,-6.7 0.2,-11.6 2.2,-13.4 0.6,-0.5 1.3,-0.8 2,-0.7 2.999997,0.2 4.099997,6.4 5.799997,19.4 0.6,4.5 1.4,10.6 2.2,12.2 2.3,-1.6 6.7,1.3 13.5,5.9 3.8,2.6 10.2,7 11.3,5.9 1.1,-1.1 -3.3,-7.5 -5.9,-11.3 -4.9,-7.2 -7.9,-11.7 -5.7,-13.9 0.5,-1.7 -7.2,-11.3 -12.3,-17.7 -10.299997,-12.8 -14.199997,-18.2 -12.099997,-20.3 2.3,-2.3 7.399997,1.2 13.299997,5.1 3.6,2.4 9.7,6.5 10.8,5.4 1.6,-1.6 2.1,-2.6 2.6,-3.7 0.6,-1.2 1.2,-2.5 3,-4.3 l 1.4,1.4 c -1.6,1.6 -2.1,2.6 -2.6,3.7 -0.6,1.2 -1.2,2.5 -3,4.3 -2.3,2.3 -7.4,-1.2 -13.3,-5.1 -3.6,-2.4 -9.699997,-6.5 -10.799997,-5.4 -0.5,1.7 7.199997,11.3 12.299997,17.7 10.3,12.8 14.2,18.2 12.1,20.3 -1.1,1.1 3.3,7.5 5.9,11.3 4.9,7.2 7.9,11.7 5.7,13.9 -0.6,0.5 -1.2,0.7 -2,0.7 z"
       id="path1066"
       style="fill:#ffffff;fill-opacity:1;stroke:none" />
    <path
       inkscape:connector-curvature="0"
       class="st0"
       d="m 152.84577,104.62037 -1.4,-1.4 c 1.4,-1.4 -0.8,-5.5 -2.7,-9.1 -2.5,-4.599999 -4.8,-8.999999 -2.4,-11.499999 2.2,-2.2 4.2,-2.4 6,-2.6 1.7,-0.2 3.1,-0.4 4.8,-2.1 2.1,-2.1 3.8,-2.6 5.3,-3.1 1.5,-0.5 2.7,-0.8 4.5,-2.6 1.6,-1.6 1.3,-3.5 0.9,-5.7 -0.3,-2.2 -0.7,-4.6 0.9,-6.8 -1.3,0.1 -3.6,0.4 -5.5,0.7 -2.3,0.4 -4.4,0.7 -6.3,0.9 3.1,2.9 5.8,6.1 6,6.5 l 0.3,0.8 -0.7,0.5 c -0.7,0.5 -1.3,-0.1 -1.8,-0.6 -1.6,-1.6 -3,-1.7 -4.7,-1.8 -1.8,-0.1 -3.9,-0.3 -6,-2.4 -0.6,-0.6 -0.7,-1.7 -0.1,-3.1 -0.4,-0.2 -0.7,-0.3 -1,-0.6 -0.6,-0.5 -0.9,-1.1 -0.8,-1.9 0,-1.5 1.1,-1.9 1.4,-1.9 0.6,-0.1 1.4,0.2 2.4,0.7 2.6,-4 7.4,-10 14.5,-18.5 6.6,-8 16.6,-20 16.5,-22.5 -2.8,0.1 -16.4,11.7 -26.3,20.2 -20.6,17.6 -26.9,22.4 -29,20.2 l 1.4,-1.4 c -0.1,-0.1 -0.1,-0.1 -0.1,-0.1 2.4,0.5 16.3,-11.5 26.5,-20.2 20.6,-17.6 26.9,-22.4 29,-20.2 2.3,2.3 -3,9.1 -16.4,25.3 -4.7,5.7 -11.1,13.4 -14.4,18.3 0.4,0.3 0.9,0.7 1.3,1 2.6,-0.2 5.8,-0.6 8.1,-1 5.8,-0.9 7.7,-1.1 8.3,0.1 0.2,0.4 0.3,1.1 -0.6,1.9 -1.6,1.6 -1.3,3.5 -0.9,5.7 0.4,2.4 0.8,5.1 -1.5,7.4 -2.1,2.1 -3.8,2.6 -5.3,3.1 -1.5,0.5 -2.7,0.8 -4.5,2.6 -2.2,2.2 -4.2,2.4 -6,2.6 -1.7,0.2 -3.1,0.4 -4.8,2.1 -1.4,1.4 0.8,5.5 2.7,9.099999 2.5,4.6 4.9,9 2.4,11.4 z m -1.3,-41.699999 c 1.6,1.6 3,1.7 4.7,1.8 0.4,0 0.9,0.1 1.3,0.1 -1.1,-1.1 -2.2,-2.2 -3.3,-3.1 -0.9,0 -1.7,0 -2.3,-0.1 -0.4,0.5 -0.5,1 -0.4,1.3 z m -1.4,-4.2 c 0,0.1 0,0.2 0.2,0.3 0.1,0.1 0.3,0.2 0.5,0.3 0,-0.1 0.1,-0.2 0.1,-0.2 -0.3,-0.2 -0.6,-0.3 -0.8,-0.4 z"
       id="path1068"
       style="fill:#ffffff;fill-opacity:1;stroke:none" />
    <path
       inkscape:connector-curvature="0"
       class="st0"
       d="m 125.44577,-39.179629 c -1.2,0 -2.7,-0.5 -4.4,-1.4 -0.3,0.2 -0.6,0.3 -0.8,0.4 -0.7,0.2 -1.3,0 -1.8,-0.6 -0.5,-0.5 -0.7,-1.1 -0.8,-1.8 -1.2,-0.7 -2.4,-1.5 -3.7,-2.4 -3.9,-2.6 -9.9,-6.5 -11.1,-5.2 l -1.4,-1.4 c 2.4,-2.4 7.6,1 13.7,4.9 0.9,0.6 1.9,1.3 3,1.9 0.8,-2.6 3.1,-6 5.6,-9.7 2.6,-4 6.6,-10 5.4,-11.2 -2.3,-2.3 0.9,-7.1 6.3,-14.8 2.9,-4.1 7.7,-11 6.5,-12.2 -1.3,-1.3 -4.6,0.3 -7.5,1.7 -3.7,1.8 -7.5,3.6 -9.8,1.3 l 1.4,-1.4 c 1.3,1.3 4.6,-0.3 7.5,-1.7 3.7,-1.8 7.5,-3.6 9.8,-1.3 2.3,2.3 -0.9,7.1 -6.3,14.8 -2.9,4.1 -7.7,11 -6.5,12.2 1.3,1.3 0.9,3.4 -0.4,6 0.1,0.4 0.1,0.8 0.1,1 0,1.9 6.4,4.1 10.6,5.5 5.5,1.9 8.7,3 9.1,4.9 0.1,0.5 0.1,1.2 -0.6,1.9 -2.2,2.2 -5.1,1.5 -7.7,0.9 -2.7,-0.7 -4.4,-1 -5.8,0.3 -1.9,1.9 -3.1,2.7 -4.2,3.4 -1.1,0.7 -2.1,1.4 -3.9,3.2 -0.8,0.6 -1.5,0.8 -2.3,0.8 z m -3,-2.9 c 1.7,0.9 3.2,1.3 3.7,0.7 1.9,-1.9 3.1,-2.7 4.2,-3.4 1.1,-0.7 2.1,-1.4 3.9,-3.2 2.2,-2.2 5.1,-1.5 7.7,-0.9 2.7,0.7 4.4,1 5.8,-0.3 0.1,-0.1 0.1,-0.1 0.1,-0.1 -0.3,-0.8 -4.8,-2.4 -7.8,-3.4 -4.8,-1.6 -9.4,-3.2 -11.2,-5.4 -0.3,0.8 -0.6,1.8 -1,2.8 -2.2,6.5 -3.9,10.9 -5.4,13.2 z m -2.8,-1.5 c 0.3,0.2 0.7,0.4 1,0.6 1.3,-1.9 3,-6.5 4.2,-9.9 -1.9,3 -4.6,7 -5.2,9.3 z"
       id="path1070"
       style="fill:#ffffff;fill-opacity:1;stroke:none" />
    <path
       inkscape:connector-curvature="0"
       class="st0"
       d="m 59.045773,-124.97963 c -0.9,0 -1.8,-0.3 -2.4,-0.9 -2.1,-2.1 2.6,-8.3 14.699997,-22.9 6,-7.2 15,-18.1 14.7,-20.2 -3.6,-3.4 -24.499997,-15.3 -29.099997,-15.5 -1.3,1.7 0.6,14.8 1.9,23.4 2.3,15.5 3.1,22.5 1.3,24.4 -2.3,2.3 -6.4,0 -10.8,-2.5 -3.2,-1.8 -7.2,-4 -8.4,-2.8 -1.5,1.5 -1.6,2.8 -1.8,4.3 -0.2,1.6 -0.4,3.5 -2.3,5.5 -2.2,2.2 -5.5,0.9 -8.5,-0.3 -2.6,-1 -5.1,-2 -6.3,-0.7 l -1.4,-1.4 c 2.2,-2.2 5.5,-0.9 8.5,0.3 2.6,1 5.1,2 6.3,0.7 1.5,-1.5 1.6,-2.8 1.8,-4.3 0.2,-1.6 0.4,-3.5 2.3,-5.5 2.3,-2.3 6.4,0 10.8,2.5 3.2,1.8 7.2,4 8.4,2.8 1.3,-1.4 -0.6,-14.2 -1.9,-22.7 -2.1,-14.1 -3.3,-22.9 -1.4,-25.1 0.4,-0.4 0.8,-0.6 1.3,-0.6 0,0 0,0 0,0 5.3,0 27.299997,12.7 30.699997,16.1 2.1,2.1 -2.6,8.3 -14.7,22.9 -6,7.2 -14.999997,18.1 -14.699997,20.2 1.2,1.1 4.9,-0.9 7.8,-2.5 4.099997,-2.2 7.999997,-4.3 10.299997,-2.1 1.2,1.2 3.1,0.6 5.9,-0.4 2.7,-1 5.8,-2 8,0.1 l -1.4,1.4 c -1.2,-1.2 -3.1,-0.6 -5.9,0.4 -2.7,1 -5.8,2 -8,-0.1 -1.2,-1.2 -4.9,0.8 -7.9,2.5 -2.899997,1.5 -5.599997,3 -7.799997,3 z"
       id="path1072"
       style="fill:#ffffff;fill-opacity:1;stroke:none" />
    <path
       inkscape:connector-curvature="0"
       class="st0"
       d="m 164.54577,-45.979629 c -2.1,0 -4.8,-1.4 -7.4,-2.7 -3,-1.5 -6.4,-3.3 -7.6,-2.1 -2.2,2.2 -6.1,0.2 -9.9,-1.8 -3,-1.6 -6.4,-3.3 -7.6,-2.2 l -1.4,-1.4 c 2.2,-2.2 6.1,-0.2 9.9,1.8 3,1.6 6.4,3.3 7.6,2.2 2.2,-2.2 6.1,-0.2 9.9,1.8 3,1.5 6.4,3.3 7.6,2.1 2.1,-2.1 4.7,-1.5 7.1,-0.9 2.4,0.6 4,0.8 5.2,-0.4 2.1,-2.1 4.9,-1.3 7.4,-0.6 2.6,0.7 4.3,1.1 5.4,-0.1 0.4,-1.4 -6.8,-6.7 -10.7,-9.5 -7.2,-5.3 -11.6,-8.7 -11.7,-11.3 -0.1,-2.8 4.6,-6.9 12.4,-13.4 5.1,-4.2 11.4,-9.5 11.5,-11.5 0,-0.1 0,-0.2 -0.1,-0.2 -1.3,-1.3 -6.8,2.1 -10.8,4.6 -5.8,3.6 -10.8,6.8 -13.2,4.4 -2.4,-2.4 1.9,-8.3 8.9,-17.800001 3.6,-4.8 10.2,-13.7 9.2,-15.1 -2.4,-0.3 -15.3,10.5 -24.7,18.5 -17.6,14.900001 -25,20.700001 -27.3,18.400001 -1.4,-1.4 -4,-0.5 -6.7,0.5 -3,1.1 -6.4,2.3 -8.8,0 l 1.4,-1.4 c 1.4,1.4 4,0.5 6.7,-0.5 3,-1.1 6.4,-2.3 8.7,-0.1 2.4,0.4 15.3,-10.5 24.7,-18.500001 17.6,-14.9 25,-20.7 27.3,-18.4 2.4,2.4 -1.9,8.3 -8.9,17.8 -3.6,4.900001 -10.4,13.900001 -9.1,15.200001 1.3,1.3 6.8,-2.1 10.8,-4.6 5.8,-3.6 10.8,-6.8 13.2,-4.4 0.4,0.4 0.7,1 0.6,1.7 -0.1,2.7 -4.7,6.7 -12.2,13 -5,4.1 -11.8,9.8 -11.7,11.8 0.1,1.8 6.3,6.4 10.9,9.7 7,5.2 11.3,8.4 11.5,10.9 0,0.6 -0.2,1.2 -0.6,1.6 -2.1,2.1 -4.9,1.3 -7.4,0.6 -2.6,-0.7 -4.3,-1.1 -5.4,0.1 -2.1,2.1 -4.7,1.5 -7.1,0.9 -2.4,-0.6 -4,-0.8 -5.2,0.4 -0.6,0.6 -1.4,0.9 -2.4,0.9 z"
       id="path1074"
       style="fill:#ffffff;fill-opacity:1;stroke:none" />
    <path
       inkscape:connector-curvature="0"
       class="st0"
       d="m 72.04577,-130.77963 c -0.8,0 -1.5,-0.2 -2.1,-0.8 -1.9,-1.9 -2.5,-3.2 -3.1,-4.5 -0.5,-1.2 -1.099997,-2.3 -2.699997,-3.9 -2.1,-2.1 -2.1,-4.2 -2.1,-6.1 0,-1.7 0,-3.1 -1.5,-4.6 -2.1,-2.1 2.1,-7.8 17.699997,-26.2 7.6,-9 17.9,-21.2 17.7,-23.6 -3.5,-3.3 -24.7,-8.3 -29.6,-8 -2.899997,0.2 -6.399997,7.7 -8.999997,13.2 -2,4.2 -3.7,7.8 -5.3,9.5 -2.3,2.3 -4.5,2.4 -6.5,2.5 -1.8,0.1 -3.4,0.2 -5.2,1.9 -2,2 -2.9,3 -3.8,4.1 -0.9,1.1 -1.9,2.2 -3.9,4.2 -1.8,1.8 -1.9,3.3 -2.1,5 -0.2,1.8 -0.4,3.9 -2.7,6.2 l -1.4,-1.4 c 1.8,-1.8 1.9,-3.3 2.1,-5 0.2,-1.8 0.4,-3.9 2.7,-6.2 2,-2 2.9,-3 3.8,-4.1 0.9,-1.1 1.9,-2.2 3.9,-4.2 2.3,-2.3 4.5,-2.4 6.5,-2.5 1.8,-0.1 3.4,-0.2 5.2,-1.9 1.4,-1.4 3.1,-5.1 4.9,-8.9 3.2,-6.9 6.6,-14.1 10.699997,-14.3 5,-0.3 27.3,4.8 31.2,8.7 2.1,2.1 -2.1,7.8 -17.7,26.2 -7.6,9 -17.899997,21.2 -17.699997,23.6 2,2 2,4.1 2,6 0,1.7 0,3.1 1.5,4.6 1.899997,1.9 2.499997,3.2 3.099997,4.5 0.5,1.2 1.1,2.3 2.7,3.9 1.2,1.2 7,-2.6 10.8,-5.1 5.9,-3.9 11,-7.2 13.3,-4.8 l -1.4,1.4 c -1.2,-1.2 -7,2.6 -10.8,5.1 -4.4,2.9 -8.5,5.5 -11.2,5.5 z"
       id="path1076"
       style="fill:#ffffff;fill-opacity:1;stroke:none" />
    <path
       inkscape:connector-curvature="0"
       class="st0"
       d="m 165.34577,167.22037 c -0.8,0 -1.2,-0.2 -1.5,-0.9 -0.2,-0.3 -0.5,-1 -2.5,-2.4 -1.7,-1.1 -5.3,-0.3 -8.5,0.4 -3.5,0.8 -6.6,1.4 -8.3,0.2 -0.7,-0.5 -1.1,-1.2 -1.2,-2.1 -0.2,-1.5 0.8,-2.7 2.6,-3.8 0,0 -0.1,0 -0.1,-0.1 -0.5,-0.4 -0.7,-1 -0.6,-1.6 0.1,-1.5 1.6,-2.4 4.1,-3.1 -8.7,-7.8 -13.4,-20.2 -16.3,-28 -0.2,-0.6 -0.5,-1.3 -0.7,-1.9 -2.6,-2.2 -4.1,-3.9 -4.3,-5.2 -0.1,-0.6 0.1,-1.1 0.5,-1.5 l 0,0 c 0.7,-0.7 1.3,-0.7 1.7,-0.6 1.4,0.3 2.2,2 3.8,6.1 4.1,3.2 10.5,7.5 15.3,10.7 4.7,3.1 8.6,5.7 11.7,8 0.7,-1.7 1.4,-3.4 2.1,-4.9 6,-14.3 9,-20.7 12,-20.7 0,0 0.1,0 0.1,0 5.6,0.3 18.5,9.3 22.2,13 0.4,0.4 0.6,1 0.5,1.5 -0.3,2.4 -5,5.5 -12.6,10.5 -4.8,3.1 -12,7.7 -12.1,9.4 -0.1,1.2 -1,2 -2.5,2.6 0.6,0 0.9,0.2 1,0.7 0.2,0.4 0.2,1 -0.6,1.6 -1.8,1.4 -1.2,3.2 -0.1,5.9 0.7,1.7 1.4,3.3 0.6,4.6 -0.5,0.8 -1.4,1.2 -2.8,1.4 -0.8,0.1 -1.5,0.1 -2,0.2 -0.7,0 -1.1,0 -1.5,0 z m -6.5,-5.8 c 1.4,0 2.6,0.2 3.6,0.9 2.2,1.5 2.8,2.4 3.1,3 0.2,0 0.6,-0.1 1,-0.1 0.5,-0.1 1.2,-0.1 2,-0.2 0.8,-0.1 1.2,-0.3 1.3,-0.4 0.3,-0.4 -0.3,-1.8 -0.7,-2.8 -0.8,-1.9 -1.8,-4.5 -0.7,-6.6 -1.3,0.3 -2.9,0.7 -4.4,1.1 -6.4,1.6 -11.6,2.9 -14.9,3 -2.2,1 -3.9,2 -3.8,2.9 0.1,0.5 0.2,0.6 0.4,0.7 1,0.7 4,0.1 6.7,-0.5 2.1,-0.5 4.4,-1 6.4,-1 z m -11.7,-4.4 c 0.2,0.2 0.7,0.3 1.3,0.2 1,-0.4 2.2,-0.9 3.4,-1.3 -0.2,-0.1 -0.4,-0.3 -0.6,-0.4 -2.2,0.4 -3.9,0.9 -4.1,1.5 z m 15.7,-2.8 c -0.5,0.2 -1.1,0.4 -1.6,0.6 0.8,-0.2 1.6,-0.4 2.2,-0.6 0.3,-0.1 0.7,-0.2 1,-0.3 -0.5,0.2 -1,0.2 -1.6,0.3 z m -27.6,-27.9 c 3.1,8.4 7.8,20.2 16.5,27.1 1.1,-0.2 2.3,-0.3 3.6,-0.5 1.4,-2.2 3.1,-5.9 4.7,-9.7 -3.6,-2.6 -8.2,-5.7 -12,-8.2 -5.1,-3.4 -9.4,-6.3 -12.8,-8.7 z m 26.5,18.2 c -1.5,3.4 -2.8,6.1 -4,8.2 0.4,0 0.8,-0.1 1.2,-0.1 1,-0.1 2.1,-0.2 3.3,-0.3 2.4,-1 4.3,-2.1 4.2,-3.1 0,-0.9 -1.9,-2.6 -4.7,-4.7 z m 0.8,-1.9 c 3.7,2.8 5.8,4.8 5.9,6.3 0.1,1 -0.3,1.8 -1.1,2.6 2.1,-0.4 3.6,-0.9 3.7,-1.5 0.2,-2.5 5.1,-5.8 13,-10.9 4.4,-2.8 11.7,-7.5 11.7,-9 -3.8,-3.7 -16.1,-12 -20.8,-12.3 -1.9,0 -7.1,12.2 -10.1,19.5 -0.8,1.9 -1.5,3.7 -2.3,5.3 z m -33.3,-24.6 0.7,0.7 c 0,0 0,0 0.1,0 0,0 0,0 0,0 l -0.8,-0.7 z m 0.7,0.6 c 0,0 0,0 0,0 0.1,0 0.1,0 0,0 l 0,0 z"
       id="path1078"
       style="fill:#ffffff;fill-opacity:1;stroke:none" />
    <path
       inkscape:connector-curvature="0"
       class="st0"
       d="m -156.75423,-96.279629 c -0.3,0 -0.6,-0.1 -1,-0.3 -2.6,-1.9 -4.5,-14.800001 -7.3,-35.700001 -0.2,-1.6 -0.4,-3.3 -0.7,-5 -0.3,0.1 -0.6,0.2 -1,0.3 -2,0.2 -3.9,-1.6 -5.9,-5.1 0,0.3 0,0.7 0,1.1 -0.2,2.3 -5.1,6.4 -16.3,15.3 -3.2,2.5 -7.1,5.6 -10.4,8.4 -3.3,5.7 -5.4,8.5 -6.9,8.7 -0.5,0.1 -1,-0.1 -1.3,-0.4 -0.4,-0.4 -0.5,-0.8 -0.5,-1.3 0.1,-1.7 2.4,-4.2 7.2,-8.3 3.3,-5.7 7.2,-13.5 10.5,-19.9 1,-1.9 1.9,-3.7 2.8,-5.4 -3.9,-0.6 -6.2,-1.6 -6.4,-3.5 -0.3,-2.3 3.9,-4.9 12.9,-8.8 0.1,-0.1 0.1,-0.2 0.2,-0.3 -0.6,-0.6 -1.2,-1.2 -1.7,-1.7 -3.3,-3.2 -6.1,-6 -6,-8.2 0,-0.7 0.4,-1.3 0.9,-1.7 0.6,-0.5 1.3,-0.6 2.1,-0.4 2.1,0.5 4,3.6 6.6,8.8 3.7,-6.4 6.1,-9.4 7.7,-9.3 1.4,0.1 2.5,2.1 3.7,7.2 4.1,-1.7 8.7,-3.6 11.8,-5.1 1,-2.1 1.9,-3.5 3.1,-3.9 0.7,-0.3 1.4,-0.2 2.1,0.3 0.5,0.3 0.8,0.9 0.7,1.4 -0.1,1 -1.4,2.1 -4.3,3.6 -1.2,2.8 -2.3,6.9 -3.4,10.5 -1.5,5.2 -2.8,9.4 -4.1,12.5 0.6,0.5 1,1.1 1.1,1.8 0.1,0.9 0.4,1.2 0.4,1.3 0.2,0.1 0.7,-0.2 1,-0.4 0.5,-0.5 0.8,-0.5 1.3,-0.2 l 0.7,0.4 -0.3,0.8 c 0,0.1 -0.2,0.3 -0.3,0.5 l 0,0 c 0,0 0,0 0,0 0,0 0,0 -0.1,0.1 -0.1,0.1 -0.5,0.5 -1.1,1.1 l 0,0 c -1.5,1.6 0.6,13.7 2,21.7 2.4,13.8 3.1,18.700001 0.6,19.200001 -0.2,-0.1 -0.3,-0.1 -0.4,-0.1 z m -7.2,-42.600001 c 0.3,2 0.6,4.1 0.9,6.3 1.8,13.1 4.2,30.8 6.2,33.900001 0.4,-2.400001 -1.1,-10.400001 -2.1,-16.500001 -2,-11.6 -3.3,-19.3 -2.1,-22.4 -0.7,-0.3 -1.4,-1 -1.6,-2.9 0,0 0,-0.1 0,-0.1 -0.5,0.7 -0.9,1.2 -1.3,1.7 z m -21.6,-4.8 c -1.1,2.1 -2.1,4.1 -3.1,6 -3.2,6.2 -5.9,11.4 -8.1,15.5 1.9,-1.5 4,-3.3 6.4,-5.2 6.5,-5.1 15.4,-12.2 15.6,-13.9 0.1,-0.7 0,-1.2 0,-1.7 -1,-0.1 -1.9,-0.1 -2.8,-0.2 -3,-0.1 -5.7,-0.2 -8,-0.5 z m 15,1.1 c 1.4,2.2 2.7,3.6 3.7,3.5 0.3,0 0.6,-0.2 0.9,-0.4 -0.1,-0.9 -0.2,-1.7 -0.4,-2.6 -1.3,-0.2 -2.7,-0.4 -4.2,-0.5 z m 5.9,-1.1 c 0.3,0.1 0.7,0.2 0.9,0.3 1.5,-3.4 2.8,-8.2 4,-12.2 1,-3.4 1.9,-6.3 2.7,-8.7 -2.6,1.2 -6,2.6 -10.3,4.4 0.9,3.9 1.7,9.2 2.7,16.2 z m -7.2,-1 c 2,0.2 3.7,0.3 5.1,0.6 -0.8,-5.5 -1.6,-10.8 -2.5,-15 -2.4,1 -5.2,2.1 -8.1,3.4 0.1,0.2 0.2,0.5 0.3,0.7 1.4,1.7 2.3,3.3 2.2,4.7 0,0 0,0 0,0 1.1,1.9 2.1,3.8 3,5.6 z m -12.7,-0.9 c 2.5,0.2 5.1,0.4 7.2,0.5 0.7,0 1.3,0.1 2,0.1 -0.1,-0.1 -0.1,-0.3 -0.2,-0.4 -0.6,-1.1 -1.2,-2.4 -1.1,-4.6 -0.5,-1 -1,-2.1 -1.5,-3.3 -0.1,-0.2 -0.2,-0.4 -0.3,-0.7 -0.2,-0.3 -0.5,-0.6 -0.8,-0.9 -0.1,0.1 -0.2,0.1 -0.4,0.2 -1.6,2.9 -3.3,6 -4.9,9.1 z m 1.8,-7.7 c -5.1,2.3 -9.2,4.5 -9.3,5.7 0.1,0.9 2.4,1.4 5.4,1.8 1.4,-2.8 2.7,-5.3 3.9,-7.5 z m 4.7,-4.3 c 0,0 0,0 0,0 2.5,-1 5.2,-2.1 8.2,-3.3 0.1,0 0.2,-0.1 0.3,-0.1 -0.7,-3.2 -1.4,-5.4 -2,-6 -1.2,0.3 -3.6,4.2 -6.5,9.4 z m -8.2,-9 c -0.1,0 -0.2,0 -0.3,0.1 -0.1,0.1 -0.2,0.2 -0.2,0.2 -0.1,1.3 3.1,4.4 5.4,6.6 0,0 0,0 0,0 -1.8,-3.6 -3.6,-6.7 -4.9,-7 0,0.1 0,0.1 0,0.1 z"
       id="path1080"
       style="fill:#ffffff;fill-opacity:1;stroke:none" />
    <path
       inkscape:connector-curvature="0"
       class="st0"
       d="m 218.34577,-140.97963 c -3.5,0 -10.3,-4.6 -20.1,-11.4 -6.4,-4.5 -14.4,-10 -16.4,-9.8 -3.2,0.4 -5.1,-2.2 -6.8,-4.4 -0.3,0 -0.7,0 -1.1,0 -1.4,-0.1 -1.7,-1 -1.7,-1.4 -0.1,-0.4 0.1,-0.9 0.5,-1.4 -0.8,-0.7 -1.6,-1 -2.6,-0.9 -2,0.3 -4,4.3 -5.6,7.6 -1.7,3.4 -3,6.2 -4.9,6.4 -0.5,0.1 -1.4,0 -2.2,-0.9 l 0,0 c -0.7,-0.8 -2.3,-2.2 -4.2,-3.9 -9.8,-8.7 -19.2,-17.6 -17.7,-23 -0.3,0.1 -0.7,0 -1,-0.2 -0.9,-0.6 -0.8,-1.9 -0.6,-2.9 0.1,-0.5 0.4,-1 0.9,-1.3 2.6,-1.4 10.6,1.5 23.6,6.3 3.9,1.4 8.7,3.2 12.9,4.6 0,0 0.1,-0.1 0.1,-0.1 1,-1 4.3,0.3 6.9,1.6 2.1,-0.4 4.4,-1.1 6.5,-1.7 4.7,-1.4 8.5,-2.6 10.3,-1.2 0.5,0.4 1,1 0.9,2.3 -0.1,2.5 6.2,9.3 11.8,15.3 9.5,10.2 15.1,16.5 12.6,19.7 -0.7,0.4 -1.3,0.7 -2.1,0.7 z m -36.5,-23.3 c 2.8,0 8.5,3.9 17.5,10.2 5.9,4.1 18,12.6 19.3,11 1.6,-2 -6.9,-11.1 -12.5,-17.1 -7.8,-8.3 -12.5,-13.6 -12.3,-16.7 0,-0.5 -0.1,-0.6 -0.2,-0.6 -1,-0.8 -5.3,0.5 -8.4,1.5 -0.7,0.2 -1.5,0.5 -2.2,0.7 -0.1,0.5 -0.5,0.8 -0.8,1.1 -0.1,0.1 -0.2,0.1 -0.3,0.2 2.8,1.8 3.3,2.6 3,3.4 -0.1,0.4 -0.6,1 -1.7,0.9 -1.9,-0.1 -2.9,0.6 -4,1.4 -0.6,0.4 -1.2,0.9 -2,1.2 1.5,2 2.7,3.2 4.4,2.9 0,-0.1 0.1,-0.1 0.2,-0.1 z m -23.1,5.7 c 0.1,0.1 0.3,0.3 0.4,0.3 0.9,-0.1 2.4,-3.3 3.4,-5.4 2,-4.1 4.1,-8.3 7.2,-8.7 1.7,-0.2 3,0.4 4.1,1.3 1,-1 2.3,-2 3.5,-2.9 -0.1,0 -0.3,-0.1 -0.4,-0.1 -2.4,0.3 -4.4,0 -5.5,-1.5 -3.6,-1.2 -8.2,-2.8 -13.8,-4.9 -6.4,-2.4 -15.4,-5.8 -19.7,-6.5 0.7,0.7 0.2,1.6 -0.5,2.8 -2.3,4.4 10.7,15.9 16.9,21.4 2,1.9 3.6,3.3 4.4,4.2 l 0,0 z m 16.5,-11 c 0.2,0.2 0.4,0.5 0.6,0.8 0.8,-0.2 1.4,-0.7 2.1,-1.2 1,-0.7 2.1,-1.5 3.8,-1.7 -0.6,-0.4 -1.3,-0.9 -2.1,-1.3 -1.5,0.9 -3.2,2.3 -4.4,3.4 z m 8.3,-2.2 0,0 0,0 z m -47.8,-15.1 c 0,0.2 -0.1,0.3 -0.1,0.4 0.1,-0.1 0.2,-0.1 0.3,-0.2 0.2,-0.1 0.4,-0.3 0.6,-0.4 -0.4,0 -0.7,0.1 -0.8,0.2 z"
       id="path1082"
       style="fill:#ffffff;fill-opacity:1;stroke:none" />
    <path
       inkscape:connector-curvature="0"
       class="st0"
       d="m -183.55423,231.42037 c 0,0 0,0 0,0 -3.1,-0.1 -4.2,-4.6 -5.3,-9.3 -0.8,-3.3 -1.8,-7.7 -3.3,-7.8 -3.5,-0.1 -4.4,-5.8 -5.4,-11.8 -0.5,-3.2 -1,-6.6 -1.9,-7.9 -1.4,-2.1 -8.4,-3.4 -14.5,-4.6 -9.1,-1.8 -17,-3.3 -16.9,-7.6 0,-5.3 6.8,-13.6 11.8,-19.7 1.3,-1.6 2.5,-3 3.3,-4.1 0.3,-0.5 0.8,-0.7 1.4,-0.7 2.5,0.2 6.3,6.6 15,22.4 5.3,9.6 13.3,24 15.6,24.4 1.7,-1.6 0.6,-17.1 -0.1,-27.4 -1.4,-20.6 -1.7,-29 1.5,-29.6 0.8,-0.1 1.6,0 2.2,0.5 2.1,1.6 2.7,6.2 3.4,11.6 0.5,4.2 1.2,9 2.6,10.4 l 0,0 c 1.7,1.6 4.4,2 6.7,2.4 2.6,0.4 5.2,0.8 5,3.2 -0.2,2 2.9,3.9 5.8,5.6 3.5,2.1 7.2,4.3 6.6,7.6 -0.9,5.6 -7.2,16.5 -11.1,20.2 -0.8,0.8 -2.5,2.8 -4.4,5.1 -7.6,9.4 -14.4,17.1 -18,17.1 z m -30.8,-71.4 c -0.8,1.1 -1.9,2.4 -3.2,4 -4.5,5.5 -11.3,13.8 -11.3,18.4 0,2.6 8.8,4.3 15.3,5.6 7.4,1.4 13.9,2.7 15.8,5.4 1.1,1.7 1.7,5.1 2.3,8.7 0.7,4.2 1.6,10 3.5,10.1 3,0.1 4.1,4.6 5.2,9.3 0.8,3.3 1.8,7.7 3.3,7.8 0,0 0,0 0,0 2.9,0 12.2,-11 16.7,-16.3 2.1,-2.4 3.7,-4.3 4.6,-5.2 3.6,-3.5 9.7,-14 10.5,-19.1 0.3,-2 -2.8,-3.8 -5.7,-5.6 -3.5,-2.1 -7,-4.3 -6.8,-7.5 0,-0.6 -1.4,-0.8 -3.3,-1.1 -2.5,-0.4 -5.7,-0.8 -7.8,-2.9 l 0,0 c -1.9,-1.9 -2.5,-6.6 -3.2,-11.5 -0.6,-4.3 -1.2,-9.1 -2.6,-10.2 -0.2,-0.2 -0.4,-0.2 -0.7,-0.2 -1.7,1.3 -0.6,17 0.1,27.4 1.4,20.6 1.7,29 -1.5,29.6 -3.1,0.5 -7.7,-7.4 -17.7,-25.4 -5,-8.5 -11.3,-20 -13.5,-21.3 z"
       id="path1084"
       style="fill:#ffffff;fill-opacity:1;stroke:none" />
    <path
       inkscape:connector-curvature="0"
       class="st0"
       d="m -256.15423,-78.579629 -2,0 c 0,-2.8 0.6,-4.3 1.3,-5.7 0.6,-1.3 1.1,-2.4 1.1,-4.9 0,-3.3 7.2,-4.5 19.9,-6.2 6.3,-0.8 18.1,-2.4 18.1,-4.2 0,-3.100001 1.6,-4.600001 3.1,-6.000001 1.3,-1.2 2.4,-2.3 2.5,-4.5 0,-1.1 -5.3,-2.2 -10.8,-3.1 -3.1,5.3 -5.1,7.8 -6.6,7.9 -2.6,0.1 -4,-0.5 -5.2,-1 -1.2,-0.5 -2.2,-0.9 -4.3,-0.8 -3,0.1 -4.5,-3 -5.9,-5.7 -1.2,-2.4 -2.3,-4.7 -4,-4.6 -2.9,0.1 -4.4,-1.9 -5.7,-3.8 -1.4,-1.9 -2.3,-3.1 -4,-3 l -0.1,-2 c 2.9,-0.1 4.4,1.9 5.7,3.8 0.2,0.3 0.4,0.6 0.6,0.8 1.3,-2.9 9.2,-6.7 25.6,-14.2 6.2,-2.8 14,-6.4 18.7,-9 1.9,-3 3.3,-4.5 4.4,-4.6 0.5,-0.1 1,0.1 1.4,0.5 0.4,0.4 0.5,0.9 0.4,1.5 -0.2,1.1 -1.7,2.4 -4.7,4.2 -2.5,4.1 -5.9,10.6 -8.6,15.8 -2.6,5 -4.8,9.1 -6.6,12.4 7.6,1.2 11.7,2.5 11.7,5 0,3.1 -1.6,4.6 -3.1,6 -1.3,1.2 -2.4,2.3 -2.5,4.500001 0,3.3 -7.2,4.5 -19.9,6.2 -6.3,0.8 -18.1,2.4 -18.1,4.2 0,2.8 -0.6,4.3 -1.3,5.7 -0.5,1.2 -1,2.4 -1.1,4.8 z m 17.6,-30.400001 c 2.1,0 3.4,0.5 4.5,1 1.2,0.5 2.2,0.9 4.3,0.8 0.8,-0.2 2.6,-2.7 4.6,-6.2 -2.4,-0.4 -4.7,-0.7 -6.5,-0.9 -5.3,-0.7 -9.7,-1.3 -13.1,-2 0.6,0.9 1,1.8 1.5,2.8 1.2,2.4 2.3,4.7 4,4.6 0.2,-0.1 0.4,-0.1 0.7,-0.1 z m -9.3,-10.1 c 4.2,1.2 12,2.2 16.5,2.8 2.7,0.4 5.1,0.7 7.3,1 2.3,-4.1 4.9,-9 6.9,-13 2.8,-5.5 5.1,-9.8 7,-13 -3.8,2 -9.1,4.4 -15.9,7.5 -9.6,4.4 -24.2,11 -24.6,13.1 0,0.5 1.1,1 2.7,1.5 -0.1,0 0,0 0.1,0.1 z"
       id="path1086"
       style="fill:#ffffff;fill-opacity:1;stroke:none" />
    <path
       inkscape:connector-curvature="0"
       class="st0"
       d="m 102.84577,245.42037 c -0.2,-3.1 5.2,-4.6 14.2,-6.9 4.5,-1.1 12.8,-3.3 12.7,-4.8 -0.1,-1.6 -5.9,-2.4 -9.8,-3 -6,-0.9 -11.2,-1.7 -11.5,-4.8 -0.2,-2.9 6.7,-4.4 30.9,-8.3 11.7,-1.9 27.6,-4.4 29.2,-6.3 -0.6,-4.7 -15.5,-23.5 -19.2,-25.9 -1.9,-1.3 -7.9,6.1 -11.8,10.9 -4.7,5.8 -8.8,10.9 -11.8,11.3 -2.3,0.3 -3.2,3.3 -4.2,6.4 -1.1,3.4 -2.3,7.3 -5.8,7.8 -3.6,0.5 -5.8,-4.2 -8.1,-9.2 -1.8,-3.9 -3.8,-8.3 -6,-8.1 l -0.3,-2 c 3.6,-0.5 5.8,4.2 8.1,9.2 1.8,3.9 3.8,8.3 6,8.1 2.3,-0.3 3.2,-3.3 4.2,-6.4 1.1,-3.4 2.3,-7.3 5.8,-7.8 2.2,-0.3 6.7,-5.7 10.5,-10.5 5.9,-7.3 11,-13.6 14.4,-11.4 3.8,2.5 19.7,22.2 20.1,27.5 0.2,2.9 -6.7,4.4 -30.9,8.3 -11.7,1.9 -27.6,4.4 -29.2,6.3 0.4,1.5 6,2.3 9.7,2.9 6,0.9 11.2,1.7 11.5,4.8 0.2,3.1 -5.2,4.6 -14.2,6.9 -4.5,1.1 -12.8,3.3 -12.7,4.8 l -1.8,0.2 z"
       id="path1088"
       style="fill:#ffffff;fill-opacity:1;stroke:none" />
    <path
       inkscape:connector-curvature="0"
       class="st0"
       d="m 240.04577,148.62037 c -0.1,0 -0.2,0 -0.3,0 -3.5,-0.3 -4.2,-7.7 -5,-19.9 -0.3,-4.9 -0.8,-12.1 -1.8,-15.7 -3.3,0 -7.2,0 -10.4,0.2 -4.4,2.6 -6.3,3.4 -7.4,2.7 -0.3,-0.2 -0.8,-0.7 -0.7,-1.7 0.3,-1.8 2.8,-2.6 7.5,-2.9 0.9,-0.5 1.8,-1.1 2.7,-1.6 8.4,-5.2 13.7,-8.1 15.9,-5.9 1,1 1,1.9 0.8,2.5 -0.6,1.9 -3.8,2.8 -7.7,3.6 0.3,0.3 0.5,0.7 0.7,1.2 0.1,0 0.3,0 0.4,0 6.5,0 17.5,0.1 18.2,-1.4 0.2,-1.6 -3.7,-3.4 -6.8,-4.8 -4.3,-1.9 -8.3,-3.8 -7.9,-6.9 -1,-1.9 -14.9,-5.1 -24.1,-7.3 -18.5,-4.299999 -26,-6.399999 -25.6,-9.399999 l 2,0.3 c 0,-0.1 0,-0.1 0,-0.1 0.8,1.9 14.8,5.1 24.1,7.3 18.5,4.299999 26,6.399999 25.6,9.399999 -0.2,1.7 3.7,3.4 6.8,4.9 4.3,2 8.4,3.8 7.9,6.9 -0.4,3.1 -7.5,3.2 -19.9,3.1 0.9,3.4 1.3,8.8 1.8,15.6 0.5,6.7 1.2,17.8 3.2,18 2.1,0.2 4.1,-5.3 5.7,-9.6 2.1,-5.8 4.1,-11.2 7.7,-10.9 l -0.2,2 c -2.1,-0.2 -4.1,5.3 -5.7,9.6 -2.1,5.5 -4.1,10.8 -7.5,10.8 z m -10.4,-39.8 c -1.4,0.8 -2.7,1.6 -3.7,2.2 1.8,0 3.8,0 6,0 -0.1,-0.2 -0.3,-0.2 -0.5,-0.3 -1,-0.1 -2,-0.2 -2.1,-1.2 0,-0.3 0.1,-0.5 0.3,-0.7 z m 8.6,-3.9 c -1.5,0 -4.9,1.8 -8.1,3.6 0.5,-0.2 1.1,-0.3 2.1,-0.5 4.4,-0.9 6.7,-1.7 6.9,-2.4 0,-0.1 -0.1,-0.2 -0.3,-0.5 -0.1,-0.2 -0.3,-0.2 -0.6,-0.2 z"
       id="path1090"
       style="fill:#ffffff;fill-opacity:1;stroke:none" />
    <path
       inkscape:connector-curvature="0"
       class="st0"
       d="m -153.25423,259.62037 c 0,-2.5 -1.2,-3.7 -2.7,-5.1 -1.5,-1.5 -3.2,-3.2 -3.3,-6.5 0,-3.6 4.9,-5.3 9.7,-6.8 3.9,-1.3 8.4,-2.7 8.3,-4.9 0,-1.1 -1.7,-2.2 -4.1,-3.3 -0.8,2 -1.8,3.4 -3.7,3.6 -3,0.3 -5.7,-3.9 -8.3,-7.9 0,0 0,-0.1 -0.1,-0.1 -3.7,-1.4 -5.9,-2.6 -6.4,-4.2 -0.2,-0.5 -0.2,-1.3 0.4,-2.1 0.6,-0.8 1.3,-1 1.8,-1 1.7,0.1 3.2,2.2 5.4,5.6 1.2,0.5 2.5,0.9 3.7,1.3 2,0.7 4,1.4 5.8,2.1 0.2,-0.7 0.4,-1.5 0.5,-2.2 0.9,-3.8 1.8,-7.7 4.9,-8.1 2.9,-0.3 4.5,1.2 5.9,2.5 1.3,1.2 2.4,2.2 4.3,2 3.2,-0.3 5,4.7 6.9,10.1 1.4,3.8 3.2,9 4.8,8.8 l 0.2,2 c -3.2,0.3 -5,-4.7 -6.9,-10.1 -1.3,-3.7 -3.2,-8.8 -4.8,-8.8 0,0 -0.1,0 -0.1,0 -2.9,0.3 -4.5,-1.2 -5.9,-2.5 -1.3,-1.2 -2.4,-2.2 -4.3,-2 -1.7,0.2 -2.5,3.6 -3.2,6.5 -0.2,0.8 -0.4,1.7 -0.6,2.5 3.2,1.4 5.4,3.1 5.5,5.2 0,3.6 -4.9,5.3 -9.7,6.8 -3.9,1.3 -8.4,2.7 -8.3,4.9 0,2.5 1.2,3.7 2.7,5.1 1.5,1.5 3.2,3.2 3.3,6.5 l -1.7,0.1 z m -0.9,-29.9 c 1.7,2.6 3.7,5.1 5,5 0.9,-0.1 1.5,-1.1 2.1,-2.4 -1.9,-0.8 -4,-1.5 -5.8,-2.1 -0.5,-0.2 -0.9,-0.3 -1.3,-0.5 z m -7.3,-6.3 c 0,0 -0.1,0 -0.2,0.2 -0.2,0.2 -0.1,0.3 -0.1,0.3 0.2,0.5 1.1,1.1 2.5,1.8 -0.9,-1.3 -1.7,-2.4 -2.2,-2.3 z"
       id="path1092"
       style="fill:#ffffff;fill-opacity:1;stroke:none" />
    <path
       inkscape:connector-curvature="0"
       class="st0"
       d="m -239.15423,197.82037 c -2.8,0 -5,-8.4 -11.1,-37.9 -3,-14.2 -7,-33.5 -9.2,-36.1 -1.3,2.4 -0.6,16.3 0,26.6 1.1,20.6 1.3,28.5 -1.8,28.9 l -0.3,-2 c -0.1,0 -0.1,0 -0.1,0.1 1.6,-1.4 0.8,-16.1 0.2,-26.9 -1.1,-20.6 -1.3,-28.5 1.8,-28.9 2.9,-0.4 5,7.7 11.4,37.9 3,14.1 7,33.2 9.1,36.1 1.3,-2.9 0.2,-19.3 -0.7,-31.4 -1.8,-25.8 -1.8,-33.4 1.1,-33.8 2.6,-0.4 8.5,6.6 21.4,22.7 7,8.8 16.5,20.7 19,21.6 3,-4.9 4.3,-25.8 4.1,-31.5 -0.1,-2.2 -4,-3.4 -7.8,-4.5 -4.5,-1.3 -9.1,-2.7 -9.2,-6.3 -0.1,-2.3 -2.6,-3.4 -5.2,-4.7 -2.9,-1.4 -6.2,-2.9 -6.3,-6.4 l 2,-0.1 c 0.1,2.3 2.6,3.4 5.2,4.7 2.9,1.4 6.2,2.9 6.3,6.4 0.1,2.2 4,3.4 7.8,4.5 4.5,1.3 9.1,2.7 9.2,6.3 0.2,5.3 -1,27.8 -4.6,33 -0.3,0.4 -0.7,0.6 -1.2,0.7 -2.6,0.1 -8.4,-6.8 -20.8,-22.4 -7.2,-9 -17,-21.2 -19.4,-21.9 -1.4,2.2 -0.3,19.2 0.6,31.6 1.8,25.8 1.8,33.4 -1.1,33.8 -0.3,-0.1 -0.4,-0.1 -0.4,-0.1 z"
       id="path1094"
       style="fill:#ffffff;fill-opacity:1;stroke:none" />
    <path
       inkscape:connector-curvature="0"
       class="st0"
       d="m 141.64577,-183.17963 c -2.9,0 -4,-7.5 -6.4,-33.2 -0.1,-0.8 -0.2,-1.7 -0.2,-2.6 -3.5,-2.1 -6.2,-3.9 -8.1,-5.4 -1.2,11.3 -2.3,16.3 -4.9,16.4 0,0 0,0 0,0 -3,0 -4.1,-6.1 -6.2,-20.9 -1,-7.4 -2.6,-18.5 -4.2,-19.2 l 0,-2 c 0,0 0,0 0,0 3,0 4.1,6.1 6.2,20.9 1,7.4 2.6,18.5 4.2,19.2 1.3,-0.6 2.4,-9.2 3.1,-15.9 -1.3,-1.3 -1.9,-2.3 -1.8,-3.2 0.1,-1.2 1,-2.1 2.5,-2.8 1.3,-12.3 2.3,-17.7 5.1,-17.8 0,0 0,0 0,0 2.1,0 3.2,3.9 4.6,15.7 1.6,-0.2 3.3,-0.4 5,-0.5 6.1,-0.6 15.3,-1.5 15.5,-3.6 0.3,-3.6 4.6,-4.9 8.7,-6.1 3.5,-1 7.1,-2.1 7.3,-4.3 l 2,0.2 c -0.3,3.6 -4.6,4.9 -8.7,6.1 -3.5,1 -7.1,2.1 -7.3,4.3 -0.3,3.7 -8.2,4.5 -17.3,5.4 -1.5,0.2 -3.3,0.3 -5,0.5 0.4,3.4 0.8,7.3 1.2,11.9 4.4,2.7 9.4,5.6 13.5,7.9 15.4,8.8 24.9,14.4 25.4,17.5 0.1,0.6 -0.1,1.1 -0.4,1.5 -3.7,4 -29.5,9.9 -33.8,10 0,0 0,0 0,0 z m -4.5,-34.5 c 0,0.4 0.1,0.7 0.1,1.1 1.2,12.5 2.8,29.6 4.6,31.4 5.3,-0.2 28.9,-6.1 32,-9.3 -0.5,-2.4 -14.3,-10.3 -24.4,-16 -4.8,-2.8 -8.9,-5.2 -12.3,-7.2 z m -10,-9.1 c 1.7,1.4 4.4,3.3 7.6,5.2 -0.3,-3.4 -0.7,-7 -1.1,-10.4 -2.3,0.3 -4.6,0.7 -6.1,1.2 -0.1,0.6 -0.1,1.2 -0.2,1.8 0,0.9 -0.1,1.6 -0.2,2.2 z m -1.7,-2.8 c -0.1,0.2 -0.2,0.3 -0.2,0.5 0,0.1 0,0.3 0.1,0.4 0,-0.1 0,-0.3 0,-0.4 0.1,-0.1 0.1,-0.3 0.1,-0.5 z m 5.3,-18.2 c -1.3,0.9 -2.2,8.6 -2.9,15 1.6,-0.5 3.5,-0.8 5.7,-1.1 -0.9,-7 -1.9,-12.8 -2.8,-13.9 z"
       id="path1096"
       style="fill:#ffffff;fill-opacity:1;stroke:none" />
    <path
       inkscape:connector-curvature="0"
       class="st0"
       d="m -163.75423,-172.17963 c -0.4,0 -0.7,-0.1 -1,-0.3 -4.5,-3 -14.1,-32.2 -14.4,-36.5 -0.1,-2 -1,-2.9 -2.1,-4 -1.2,-1.2 -2.5,-2.5 -2.7,-5.3 -0.2,-2.9 7.6,-4.3 34.2,-7.9 12.6,-1.7 29.8,-3.9 32.3,-5.8 -2.5,-1.5 -17.4,-1.8 -28.4,-2 -23.5,-0.5 -30.4,-1 -30.6,-3.9 l 2,-0.1 c 0,-0.1 0,-0.2 -0.1,-0.2 1.4,1.7 17.2,2 28.7,2.2 23.5,0.5 30.4,1 30.6,3.9 0.1,2.3 -4.6,3.6 -19.4,5.8 2.7,1.2 4.6,6.4 6.5,11.7 1.8,4.9 3.9,11 6.1,10.7 3.7,-0.4 5.9,5.8 8.2,12.3 1.8,5 4,11.2 6.1,11 l 0.2,2 c -3.7,0.4 -5.9,-5.8 -8.2,-12.3 -1.8,-5 -4,-11.2 -6.1,-11 -3.7,0.4 -5.9,-5.6 -8.2,-12 -1.8,-4.9 -3.9,-11 -6.1,-10.7 -2.3,0.3 -8.8,15.6 -13.1,25.8 -6.7,15.8 -11,25.6 -14.1,26.5 0,0.1 -0.2,0.1 -0.4,0.1 z m -18.1,-46.1 c 0.2,1.9 1.1,2.8 2.1,3.8 1.2,1.2 2.5,2.5 2.7,5.3 0.3,5.1 9.9,32.3 13.4,34.9 2.3,-0.6 8.6,-15.5 12.8,-25.3 6.5,-15.3 10.4,-23.8 13.3,-26.2 -3.4,0.5 -7.3,1 -11.7,1.6 -13.1,1.7 -30.8,4.1 -32.6,5.9 z"
       id="path1098"
       style="fill:#ffffff;fill-opacity:1;stroke:none" />
    <path
       inkscape:connector-curvature="0"
       class="st0"
       d="m 210.84577,-110.97963 -2,-0.2 c 0.4,-3.5 3.7,-4.9 6.6,-6.1 2.7,-1.1 5.1,-2.1 5.4,-4.4 0.4,-3.2 1.8,-4.8 3.1,-6.2 1.2,-1.3 2.3,-2.4 2.5,-5 0.1,-1.2 0.7,-1.6 1.2,-1.8 0.5,-0.2 1.1,-0.1 1.8,0.3 1,-5.5 1.8,-14.2 2.5,-21.2 2,-20.5 3,-28.2 6,-28.2 0,0 0,0 0,0 3.1,0 4.2,5.2 5.7,13.6 0.8,4.5 2.2,11.9 3.7,11.9 0,0 0,0 0,0 1.6,0 2.9,-4.3 3.9,-7.7 1.4,-4.7 2.7,-9.2 5.8,-9.2 0,0 0,0 0,0 l 0,2 c 0,0 0,0 0,0 -1.6,0 -2.9,4.3 -3.9,7.7 -1.4,4.7 -2.7,9.2 -5.8,9.2 0,0 0,0 0,0 -3.1,0 -4.2,-5.2 -5.7,-13.6 -0.8,-4.4 -2.1,-11.6 -3.6,-11.9 -1.7,1.5 -3.1,15.9 -4.1,26.4 -1,10.7 -1.8,18 -2.7,22.4 1,1 2.3,2.4 3.9,4.2 0.7,0.8 1.5,1.7 2.3,2.5 5.8,1.7 8.8,3.1 9.3,4.8 0.2,0.6 0,1.3 -0.5,1.8 -0.5,0.6 -1.2,0.8 -2,0.9 -2.2,0 -5,-2.6 -7.9,-5.7 -2,-0.6 -4,-1.1 -5.1,-1.4 -3.6,-0.9 -4.6,-1.2 -4.8,-1.8 -0.3,0.4 -0.6,0.7 -1,1.1 -1.2,1.3 -2.3,2.4 -2.5,5 -0.4,3.5 -3.7,4.9 -6.6,6.1 -2.9,1.2 -5.3,2.2 -5.5,4.5 z m 29.5,-12.1 c 1.5,1.4 2.9,2.4 3.8,2.4 0.2,0 0.4,-0.1 0.5,-0.2 -0.3,-0.6 -2.1,-1.4 -4.3,-2.2 z m -10.8,-5.2 c 0.6,0.2 1.4,0.4 2,0.5 0.7,0.2 1.4,0.4 2.1,0.6 -0.1,-0.1 -0.1,-0.1 -0.2,-0.2 -0.9,-1 -2,-2.2 -3,-3.3 -0.2,1.1 -0.5,1.9 -0.9,2.4 z m -1.1,-4.3 c -0.2,1.5 -0.6,2.6 -1.1,3.5 0.2,0 0.3,0 0.4,0 0.4,-0.3 0.8,-1.4 1.2,-3.1 -0.2,-0.2 -0.4,-0.3 -0.5,-0.4 z"
       id="path1100"
       style="fill:#ffffff;fill-opacity:1;stroke:none" />
  </g>
</svg>
