<?xml version="1.0" encoding="UTF-8" standalone="no"?>
<!-- Created with Inkscape (http://www.inkscape.org/) -->

<svg
   xmlns:dc="http://purl.org/dc/elements/1.1/"
   xmlns:cc="http://creativecommons.org/ns#"
   xmlns:rdf="http://www.w3.org/1999/02/22-rdf-syntax-ns#"
   xmlns:svg="http://www.w3.org/2000/svg"
   xmlns="http://www.w3.org/2000/svg"
   xmlns:sodipodi="http://sodipodi.sourceforge.net/DTD/sodipodi-0.dtd"
   xmlns:inkscape="http://www.inkscape.org/namespaces/inkscape"
   width="210mm"
   height="297mm"
   viewBox="0 0 744.09448819 1052.3622047"
   id="svg8659"
   version="1.1"
   inkscape:version="0.91 r13725"
   sodipodi:docname="psych5.svg">
  <defs
     id="defs8661" />
  <sodipodi:namedview
     id="base"
     pagecolor="#ffffff"
     bordercolor="#666666"
     borderopacity="1.0"
     inkscape:pageopacity="0.0"
     inkscape:pageshadow="2"
     inkscape:zoom="0.35"
     inkscape:cx="-92.666354"
     inkscape:cy="291.42857"
     inkscape:document-units="px"
     inkscape:current-layer="layer1"
     showgrid="false"
     inkscape:window-width="928"
     inkscape:window-height="1028"
     inkscape:window-x="992"
     inkscape:window-y="24"
     inkscape:window-maximized="0" />
  <metadata
     id="metadata8664">
    <rdf:RDF>
      <cc:Work
         rdf:about="">
        <dc:format>image/svg+xml</dc:format>
        <dc:type
           rdf:resource="http://purl.org/dc/dcmitype/StillImage" />
        <dc:title></dc:title>
      </cc:Work>
    </rdf:RDF>
  </metadata>
  <g
     inkscape:label="Calque 1"
     inkscape:groupmode="layer"
     id="layer1">
    <path
       inkscape:connector-curvature="0"
       class="st0"
       d="m -63.857143,-26.632656 c 5.7,-2.7 7.6,6.6 12.1,11.1 4.5,4.5 4,5 8.5,9.4000003 4.5,4.5 3.1,3.7 3.3,9.9999997 0.2,6 -5.9,-2.3 -10.1,1.9 -4.2,4.2 0.4,8.8 -3.9,13.1 -4.2,4.2 0,10.3 -5.3,7.6 -5.8,-3 -4.2,-3.8 -4.4,-10.3 -0.2,-6.5 3.2,-6.6 3,-13.2 -0.2,-6.4999997 -8.6,-3.8999997 -10.5,-10.1999997 -2.7,-8.6000003 1.4,-16.6000003 7.3,-19.4000003 z"
       id="path745"
       style="fill:#ffffff;fill-opacity:1" />
    <path
       inkscape:connector-curvature="0"
       class="st0"
       d="m -57.257143,27.667344 c -0.5,0 -1.3,-0.2 -2.2,-0.8 -4.7,-2.4 -4.8,-3.5 -4.7,-7.3 0,-0.9 0.1,-2.1 0,-3.4 -0.1,-3.4 0.7,-5.1 1.5,-6.8 0.8,-1.6 1.5,-3.2 1.4,-6.4 -0.1,-3.0999997 -2.2,-3.8999997 -4.6,-4.8999997 -2.3,-0.9 -4.9,-1.9 -5.9,-5.2 -2.9,-9.3000003 1.7,-17.3000003 7.6,-20.1000003 4.2,-2 6.6,2 8.9,5.8 1.1,1.9 2.3,3.9 3.8,5.4 2.3,2.3 3.3,3.5 4.3,4.8 1,1.2 2,2.5000003 4.2,4.7000003 3.5,3.5 3.6,3.9 3.5,6.9999997 0,0.9 -0.1,1.9 0,3.4 0,1.3 -0.2,2.1 -0.8,2.5 -0.8,0.6 -2,0.1 -3.3,-0.4 -2,-0.8 -4.3,-1.7 -6.2,0.2 -2,2 -1.9,4 -1.8,6.2 0.1,2.3 0.2,4.6 -2.1,6.9 -1.8,1.8 -2,4 -2.1,5.7 -0.1,1.2 -0.1,2.2 -0.9,2.6 -0.1,0.1 -0.4,0.1 -0.6,0.1 z m -4.6,-54.3 c -0.5,0 -1.1,0.1 -1.8,0.5 l 0,0 c -5.5,2.6 -9.8,10.1 -7.1,18.9000003 0.9,2.8 3.1,3.7 5.3,4.5 2.5,1 5.1,2 5.2,5.7999997 0.1,3.4 -0.7,5.1 -1.5,6.8 -0.8,1.6 -1.5,3.2 -1.4,6.4 0,1.4 0,2.6 0,3.5 -0.1,3.4 -0.2,4.1 4.1,6.4 1.4,0.7 1.9,0.7 2,0.6 0.3,-0.1 0.3,-1 0.4,-1.8 0.1,-1.7 0.3,-4.2 2.3,-6.3 2,-2 1.9,-4 1.8,-6.2 -0.1,-2.3 -0.2,-4.6 2.1,-6.9 2.3,-2.3 5.2,-1.2 7.2,-0.4 1,0.4 2,0.8 2.4,0.5 0.1,-0.1 0.4,-0.5 0.4,-1.7 0,-1.5 0,-2.6 0,-3.5 0.1,-2.6999997 0.1,-2.9999997 -3.2,-6.1999997 -2.3,-2.3 -3.3,-3.5 -4.3,-4.8000003 -1,-1.2 -2,-2.5 -4.2,-4.7 -1.5,-1.5 -2.7,-3.6 -3.9,-5.6 -2.1,-3.4 -3.6,-5.8 -5.8,-5.8 z"
       id="path747"
       style="fill:#ffffff;fill-opacity:1" />
    <path
       inkscape:connector-curvature="0"
       class="st0"
       d="m -25.657143,46.067344 c -2.6,-6.3 -4.7,-1.9 0.1,-6.7 4.8,-4.8 4.3,-5.4 9.2,-10.2 4.8,-4.8 4.7,-2.4 11.5,-3.1 5.5,-0.6 7.5,-5.5 11.4,-1.6 3.9,3.9 -0.7,8.6 3.2,12.5 3.9,3.9 16.3,5.4 13.5,10.3 -3.3,5.7 -12.5,-10.2 -19.1,-9.5 -6.6,0.7 -5.8,8.2 -12.3999999,8.9 -6.6000001,0.7 -9.9000001,-9.3 -16.2000001,-7.1 -3.1,1 1.4,12.6 -1.2,6.5 z"
       id="path749"
       style="fill:#ffffff;fill-opacity:1" />
    <path
       inkscape:connector-curvature="0"
       class="st0"
       d="m 21.342857,49.067344 c -2.1,0 -4.6,-2.3 -7.5,-4.9 -3.2,-2.9 -6.8,-6.2 -9.7,-5.9 -3.1,0.3 -4.4,2.2 -5.8,4.2 -1.5,2.1 -3,4.3 -6.4999999,4.6 -3.4000001,0.4 -5.9000001,-1.8 -8.3000001,-4 -2.5,-2.2 -4.8,-4.2 -7.8,-3.2 -1.5,0.5 -0.6,5.3 -0.3,6.8 0.2,1.1 0.3,1.4 -0.2,1.6 -0.5,0.2 -0.6,0 -1.4,-2 -1,-2.5 -2,-3.2 -2.4,-3.5 -0.2,-0.2 -0.4,-0.3 -0.4,-0.7 0,-0.3 0.2,-0.5 0.7,-0.9 0.4,-0.4 1.2,-1 2.4,-2.2 2.4,-2.4 3.5,-3.8 4.5,-5.1 1.1,-1.3 2.2,-2.7 4.6,-5.1 3.4,-3.4 4.6,-3.3 7.0000001,-3.2 1.2,0.1 2.5999999,0.2 4.6999999,0 2,-0.2 3.6,-1.1 5,-1.8 2.2,-1.2 4.2,-2.3 6.8,0.4 2.1,2.1 1.9,4.4 1.8,6.6 -0.2,2.1 -0.3,4 1.5,5.8 1.4,1.4 4.1,2.6 6.7,3.7 3.4,1.4 6.5,2.8 7.2,4.8 0.3,0.8 0.2,1.6 -0.3,2.4 -0.5,0.8 -1.1,1.3 -1.9,1.5 -0.1,0 -0.2,0.1 -0.4,0.1 z m -16.7,-11.9 c 3.2,0 6.6,3.1 10,6.2 2.7,2.4 5.4,4.9 7.1,4.6 0.5,-0.1 0.9,-0.4 1.2,-1 0.3,-0.6 0.4,-1.1 0.2,-1.6 -0.5,-1.6 -3.7,-2.9 -6.7,-4.2 -2.7,-1.1 -5.5,-2.3 -7,-3.9 -2.1,-2.1 -1.9,-4.4 -1.8,-6.6 0.2,-2.1 0.3,-4 -1.5,-5.8 -2.1,-2.1 -3.5,-1.4 -5.6,-0.2 -1.4,0.8 -3.1,1.7 -5.3,1.9 -2.3,0.2 -3.6999999,0.1 -4.8999999,0 -2.3000001,-0.2 -3.1000001,-0.2 -6.3000001,2.9 -2.4,2.4 -3.5,3.8 -4.5,5.1 -0.9,1.2 -1.9,2.4 -3.8,4.3 3.4,-1.1 6.1,1.2 8.6,3.4 2.3,2 4.6,4 7.5000001,3.7 3.0999999,-0.3 4.3999999,-2.2 5.7999999,-4.2 1.5,-2.1 3,-4.3 6.5,-4.6 0.1,0.1 0.3,0 0.5,0 z m -32.4,4.9 c 0.4,0.3 1.1,0.9 1.8,2.3 -0.2,-1.4 -0.2,-2.9 0.1,-4 -0.9,0.8 -1.5,1.3 -1.8,1.6 0,0 0,0.1 -0.1,0.1 z"
       id="path751"
       style="fill:#ffffff;fill-opacity:1" />
    <path
       inkscape:connector-curvature="0"
       class="st0"
       d="m 27.042857,-56.532656 c 2.6,6.3 -16.5,4.6 -21.3,9.5 -4.8,4.8 2.5,12.2 -2.3,17.1 -4.8,4.8 -6.8,4.3 -13.6,5 -5.5,0.6 -4.5,-2.3 -8.5,-6.3 -3.9,-3.9 0.7,-8.6 -3.2,-12.5 -3.9,-3.9 -22.1,-3.4 -19.4,-8.2 3.3,-5.7 14.8,10.4 21.4,9.7 6.6,-0.7 5,-15.9 11.6000001,-16.6 6.5999999,-0.7 4.8999999,1.7 10.9999999,-0.7 10.9,-4.20001 21.7,-3.10001 24.3,3 z"
       id="path753"
       style="fill:#ffffff;fill-opacity:1" />
    <path
       inkscape:connector-curvature="0"
       class="st0"
       d="m -11.457143,-24.432656 c -2.9,0 -3.7,-1.3 -4.9,-3.1 -0.6,-1 -1.4,-2.1 -2.6,-3.4 -2.1,-2.1 -1.9,-4.4 -1.7,-6.7 0.1,-1.5 0.2,-2.9 -0.4,-4.3 -2.3,-0.4 -4.9,-2.1 -7.5,-4.1 -1.2,-0.3 -2.5,-0.5 -3.7,-0.8 -4.7,-0.9 -8.7,-1.7 -9.6,-3.6 -0.3,-0.6 -0.2,-1.3 0.2,-2 0.5,-0.8 1.1,-1.3 1.9,-1.4 2.4,-0.5 5.8,2.2 9.4,5.1 0.7,0.6 1.5,1.2 2.2,1.7 2.9,0.7 5.4,1.5 6.7,2.7 0.4,0.4 0.8,0.9 1,1.3 0.2,0 0.4,0 0.6,0 3,-0.3 4.1,-4 5.4,-8 1.3,-4.1 2.6,-8.3 6.2000001,-8.7 2.8999999,-0.3 4.1999999,0 5.2999999,0.2 1.3,0.3 2.2,0.4 5.6,-0.9 11.3,-4.30001 22.2,-2.90001 24.8,3.4 l 0,0 c 0.4,0.9 0.4,1.8 0,2.5 -1.2,2.2 -5.4,2.9 -10.3,3.8 -4.5,0.8 -9.1,1.7 -11.1,3.7 -2.2,2.2 -1.6,5.1 -1,8.1 0.7,3.1 1.3,6.4 -1.3,9 -4.3,4.3 -6.5,4.5 -11.3,4.9 -0.7999999,0.1 -1.5999999,0.1 -2.6,0.2 -0.4,0.4 -0.9,0.4 -1.3,0.4 z m -8.5,-17.4 c 0.5,1.4 0.4,2.9 0.2,4.3 -0.2,2.1 -0.3,4.1 1.5,5.9 1.3,1.3 2.1,2.5 2.7,3.5 1.3,2 1.9,2.9 5.3,2.6 1.0000001,-0.1 1.8000001,-0.2 2.6,-0.2 4.8,-0.4 6.6,-0.6 10.7,-4.6 2.2,-2.2 1.6,-5.1 1,-8.1 -0.7,-3.1 -1.3,-6.4 1.3,-9 2.2,-2.2 7,-3.1 11.6,-3.9 4.2,-0.8 8.6,-1.6 9.6,-3.3 0.3,-0.5 0.2,-1 0,-1.7 l 0,0 c -2.4,-5.70001 -12.8,-7.00001 -23.6,-2.8 -3.7,1.4 -4.7,1.2 -6.2,0.9 -1,-0.2 -2.3,-0.5 -4.9999999,-0.2 -3.0000001,0.3 -4.1000001,4 -5.4000001,8 -1.3,4.1 -2.6,8.3 -6.2,8.7 0,-0.1 0,-0.1 -0.1,-0.1 z m -5.9,-3.4 c 1.4,1 2.8,1.8 4.1,2.2 -0.1,-0.1 -0.2,-0.2 -0.3,-0.4 -0.8,-0.7 -2.2,-1.3 -3.8,-1.8 z m -13.3,-7.5 c -0.1,0 -0.3,0 -0.4,0 -0.5,0.1 -0.9,0.4 -1.2,0.9 -0.3,0.5 -0.2,0.8 -0.1,1 0.6,1.4 5,2.3 8.9,3 0.6,0.1 1.1,0.2 1.7,0.3 -0.2,-0.2 -0.4,-0.3 -0.6,-0.5 -3.2,-2.2 -6.3,-4.7 -8.3,-4.7 z"
       id="path755"
       style="fill:#ffffff;fill-opacity:1" />
    <path
       inkscape:connector-curvature="0"
       class="st0"
       d="m 43.542857,16.867344 c -5.7,2.7 -4.9,-0.7 -9.4,-5.2 -4.5,-4.5 -6.1,-2.8 -10.6,-7.3 -4.5,-4.4999997 3.6,-6.0999997 3.4,-12.3999997 -0.2,-6.0000003 -9.9,-8.9000003 -5.7,-13.1000003 4.2,-4.2 5.1,-3.4 9.3,-7.6 4.2,-4.2 7.8,-8.3 13.1,-5.5 5.8,3 7.2,7.4 7.4,14 0.2,6.5 -10.8,6.9 -10.6,13.4000003 0.2,6.5 3.8,6.2 5.5,12.4999997 1.6,5.9 3.5,8.4 -2.4,11.2 z"
       id="path757"
       style="fill:#ffffff;fill-opacity:1" />
    <path
       inkscape:connector-curvature="0"
       class="st0"
       d="m 40.242857,18.367344 c -1.6,0 -2.5,-1.1 -3.7,-2.8 -0.7,-1 -1.5,-2.2 -2.8,-3.5 -2.2,-2.2 -3.6,-2.8 -5.2,-3.6 -1.6,-0.7 -3.2,-1.5 -5.5,-3.8 -2.8,-2.8 -1.1,-4.7999997 0.5,-6.6999997 1.3,-1.6 2.8,-3.4 2.8,-6 -0.1,-2.5000003 -2,-4.5000003 -3.8,-6.3000003 -2.2,-2.2 -4.4,-4.5 -1.7,-7.2 2.2,-2.2 3.5,-3 4.7,-3.9 1.3,-0.9 2.5,-1.7 4.6,-3.8 l 0.7,-0.7 c 3.9,-4 7.7,-7.7 13,-4.9 6.2,3.2 7.5,7.9 7.7,14.4 0.1,3.6 -2.8,5.4 -5.6,7.1 -2.7,1.7 -5.2,3.3 -5.1,6.3000003 0.1,3.5 1.2,4.9 2.5,6.5 1.1,1.3999997 2.3,2.9999997 3,5.8999997 0.2,0.9 0.5,1.7 0.7,2.4 1.3,4.3 2,6.9 -3.4,9.5 l 0,0 c -1.4,0.8 -2.5,1.1 -3.4,1.1 z m 0,-53.1 c -3.1,0 -5.6,2.6 -8.7,5.6 l -0.7,0.7 c -2.2,2.2 -3.5,3 -4.7,3.9 -1.3,0.9 -2.5,1.7 -4.6,3.8 -1.9,1.9 -0.7,3.3 1.7,5.8 1.9,1.9 4,4.1 4.1,7.0000003 0.1,3 -1.6,5.1 -3,6.7 -1.7,1.9999997 -2.7,3.1999997 -0.6,5.3999997 2.2,2.2 3.6,2.8 5.2,3.6 1.5,0.7 3.2,1.5 5.5,3.8 1.3,1.3 2.2,2.6 2.9,3.6 1.7,2.4 2.3,3.2 5.9,1.5 l 0,0 c 4.7,-2.2 4.1,-4 2.9,-8.3 -0.2,-0.7 -0.5,-1.5 -0.7,-2.4 -0.7,-2.7 -1.8,-4.2 -2.9,-5.5 -1.3,-1.6999997 -2.6,-3.2999997 -2.7,-7.0999997 -0.1,-3.6000003 2.8,-5.4000003 5.6,-7.1000003 2.7,-1.7 5.2,-3.3 5.1,-6.3 -0.2,-6.2 -1.4,-10.6 -7.2,-13.5 -1,-0.9 -2.1,-1.2 -3.1,-1.2 z"
       id="path759"
       style="fill:#ffffff;fill-opacity:1" />
    <path
       inkscape:connector-curvature="0"
       class="st0"
       d="m -66.457143,64.967344 c -4.6,-4.6 -1.9,-2.8 -8.1,-0.9 -6.2,1.9 -19.8,-5.1 -21.7,1.2 -1.8,5.9 20.6,0.2 25,4.5 4.4,4.3 -4.6,16.1 1.3,14.4 6.2,-1.9 -2.7,-7.3 0.1,-13.1 2,-4.2 8,-1.5 3.4,-6.1 z"
       id="path761"
       style="fill:#ffffff;fill-opacity:1" />
    <path
       inkscape:connector-curvature="0"
       class="st0"
       d="m -71.057143,84.767344 c -0.5,0 -0.8,-0.1 -1.1,-0.4 -0.9,-0.9 -0.3,-2.7 0.4,-5.2 0.4,-1.3 0.8,-2.6 1,-4 -0.3,-1.1 -0.3,-2.3 0,-3.5 -0.2,-0.6 -0.5,-1.2 -0.9,-1.7 -1.9,-1.9 -7.9,-1.7 -13.2,-1.6 -5.5,0.2 -10.2,0.3 -11.6,-1.5 -0.4,-0.5 -0.5,-1.2 -0.3,-1.9 1.3,-4.1 6.9,-3.1 12.3,-2.1 3.6,0.7 7.3,1.3 9.7,0.6 1.9,-0.6 3,-1.2 3.7,-1.6 1.6,-0.9 1.8,-0.6 3.7,1.3 0.3,0.3 0.7,0.8 1.2,1.2 l 0,0 c 1.5,1.5 2,2.3 1.8,3 -0.2,0.7 -0.9,0.9 -1.8,1.2 -1.2,0.4 -2.6,0.8 -3.3,2.4 -0.1,0.2 -0.2,0.4 -0.3,0.6 0.2,1 0.2,2.2 0,3.4 0.3,1.1 0.8,2.2 1.3,3.2 0.8,1.7 1.5,3.2 1,4.4 -0.3,0.8 -1.1,1.4 -2.4,1.7 -0.4,0.5 -0.8,0.5 -1.2,0.5 z m 0.9,-7.6 c -0.2,0.8 -0.4,1.6 -0.7,2.4 -0.5,1.8 -1.1,3.8 -0.6,4.2 0.2,0.2 0.6,0.1 1.3,0 1,-0.3 1.6,-0.7 1.8,-1.2 0.4,-0.8 -0.3,-2.1 -1,-3.6 -0.2,-0.6 -0.5,-1.2 -0.8,-1.8 z m -10.2,-9.7 c 4.1,0 7.8,0.3 9.4,1.9 0.3,0.3 0.6,0.7 0.8,1.1 1,-1.7 2.7,-2.2 3.8,-2.6 0.4,-0.1 1.1,-0.3 1.1,-0.5 0,-0.1 0,-0.5 -1.5,-2.1 l 0,0 c -0.5,-0.5 -0.9,-0.9 -1.2,-1.2 -1.6,-1.6 -1.6,-1.6 -2.5,-1.1 -0.7,0.4 -1.8,1 -3.9,1.6 -2.6,0.8 -6.4,0.1 -10.1,-0.6 -5.3,-1 -10.2,-1.9 -11.2,1.4 -0.2,0.6 0,0.9 0.1,1 1.1,1.4 6,1.2 10.8,1.1 1.4,0 2.9,0 4.4,0 z"
       id="path763"
       style="fill:#ffffff;fill-opacity:1" />
    <path
       inkscape:connector-curvature="0"
       class="st0"
       d="m 73.942857,70.567344 c -4.5,4.5 -8,1.6 -6.5,7.8 1.5,6.2 0.3,11.3 6.5,12.699996 6.5,1.5 3.2,-7.799996 8,-12.599996 4.800003,-4.8 15.000003,-1.6 13.500003,-8.2 -1.4,-6.2 -8.3,-0.9 -14.400003,-2.8 -3.8,-1.2 -2.6,-1.4 -7.1,3.1 z"
       id="path765"
       style="fill:#ffffff;fill-opacity:1" />
    <path
       inkscape:connector-curvature="0"
       class="st0"
       d="m 75.142857,91.76734 c -0.4,0 -0.9,-0.1 -1.4,-0.2 -5.1,-1.2 -5.6,-4.799996 -6.1,-8.899996 -0.2,-1.3 -0.4,-2.7 -0.7,-4.2 -0.9,-4 0.1,-4.6 2.3,-5.5 1.2,-0.5 2.7,-1.1 4.4,-2.7 0.8,-0.8 1.4,-1.4 1.9,-2 2.2,-2.3 2.4,-2.4 4.7,-1.6 0.3,0.1 0.6,0.2 0.9,0.3 2.300003,0.7 4.800003,0.4 7.000003,0 3.4,-0.5 6.7,-1 7.7,3.2 0.3,1.3 0.2,2.3 -0.3,3.2 -1,1.5 -3.2,2 -5.8,2.5 -2.6,0.5 -5.6,1.1 -7.5,3 -1.900003,1.9 -2.500003,4.7 -2.900003,7.2 -0.4,2.3 -0.8,4.299996 -2.2,5.199996 -0.6,0.3 -1.2,0.5 -2,0.5 z m 3.3,-24.499996 c -0.6,0 -1,0.4 -2.2,1.7 -0.5,0.5 -1.1,1.2 -1.9,2 l 0,0 c -1.8,1.8 -3.5,2.5 -4.7,3 -1.8,0.7 -2.5,1 -1.7,4.3 0.3,1.5 0.5,2.9 0.7,4.2 0.6,4.3 1,7.1 5.4,8.099996 1.1,0.3 1.9,0.2 2.5,-0.2 1.1,-0.699996 1.4,-2.499996 1.8,-4.599996 0.5,-2.6 1.1,-5.5 3.2,-7.7 2.100003,-2.1 5.300003,-2.8 8.000003,-3.3 2.3,-0.5 4.3,-0.8 5.1,-2 0.4,-0.6 0.4,-1.4 0.2,-2.4 -0.7,-3.1 -2.7,-3 -6.6,-2.4 -2.3,0.3 -5,0.7 -7.500003,-0.1 -0.3,-0.1 -0.7,-0.2 -0.9,-0.3 -0.6,-0.1 -1.1,-0.3 -1.4,-0.3 z"
       id="path767"
       style="fill:#ffffff;fill-opacity:1" />
    <path
       inkscape:connector-curvature="0"
       class="st0"
       d="m 58.742857,-60.632656 c 4.6,4.6 3.5,-7.30001 9.8,-9.20001 6.3,-1.9 20.700003,11.20001 22.600003,4.9 1.8,-5.9 -5.6,-13.8 -9.900003,-18.2 -4.4,-4.4 -7.3,4.7 -13.2,6.5 -6.3,1.9 -9.6,-5.3 -12.9,0.4 -3.4,5.9 -1.1,11 3.6,15.60001 z"
       id="path769"
       style="fill:#ffffff;fill-opacity:1" />
    <path
       inkscape:connector-curvature="0"
       class="st0"
       d="m 60.542857,-59.032656 c -0.7,0 -1.4,-0.4 -2.2,-1.2 -5.6,-5.60001 -6.8,-10.70001 -3.7,-16.10001 2,-3.5 4.3,-2.6 6.6,-1.5 1.8,0.8 3.9,1.7 6.5,0.9 2.3,-0.7 4.2,-2.6 5.9,-4.3 1.8,-1.8 3.3,-3.4 5.1,-3.4 1,0 1.8,0.4 2.7,1.3 5.200003,5.2 11.900003,12.8 10.100003,18.7 -0.3,0.9 -0.8,1.5 -1.5,1.8 -2.2,0.9 -5.9,-0.9 -10.100003,-3 -4,-2 -8.6,-4.3 -11.3,-3.4 -2.8,0.8 -4,3.9 -5,6.4 -0.8,2.00001 -1.5,3.60001 -2.7,3.80001 -0.2,0 -0.3,0 -0.4,0 z m -2.4,-18.80001 c -0.9,0 -1.7,0.5 -2.6,2 -2.8,4.9 -1.7,9.6 3.5,14.90001 0.7,0.7 1.2,1 1.6,0.9 0.7,-0.1 1.3,-1.60001 2,-3.20001 1.1,-2.7 2.5,-6 5.7,-7 3,-0.9 7.6,1.3 12,3.5 3.700003,1.8 7.500003,3.7 9.300003,2.9 0.5,-0.2 0.8,-0.6 1,-1.2 1.6,-5.4 -4.8,-12.7 -9.800003,-17.7 -0.7,-0.7 -1.3,-1.1 -2,-1 -1.4,0 -2.8,1.4 -4.4,3.1 -1.7,1.8 -3.7,3.8 -6.3,4.6 -3,0.9 -5.3,-0.1 -7.2,-0.9 -1.1,-0.5 -2,-0.9 -2.8,-0.9 z"
       id="path771"
       style="fill:#ffffff;fill-opacity:1" />
    <path
       inkscape:connector-curvature="0"
       class="st0"
       d="m -135.85714,-34.632656 c 5,-2.9 12.4,10 16.5,14.1 4.1,4.1 0.5,7.8 4.6,11.9000003 4.1,4.1 9.7,-1.4000003 13.8,2.7 4.099997,4.1 2.699997,7.3999997 2.899997,13.1999997 0.2,5.5 0.4,7.8 -3.499997,11.7 -3.9,3.9 -5.4,2.3 -9.3,6.2 -3.9,3.9 -0.3,7.5 -4.2,11.4 -3.9,3.9 -10.3,6.7 -15,3.8 -5.5,-3.4 9.7,-8.6 9.5,-15.1 -0.2,-6.4 1.5,-6.5 1.4,-12.9 -0.2,-6.4 -5.4,-6.3 -5.5,-12.6999997 -0.2,-6.4 2.3,-8.7 0.1,-14.8000003 -4.2,-11 -16.8,-16.3 -11.3,-19.5 z"
       id="path773"
       style="fill:#ffffff;fill-opacity:1" />
    <path
       inkscape:connector-curvature="0"
       class="st0"
       d="m -125.65714,42.167344 c -1.6,0 -3.2,-0.4 -4.6,-1.3 -0.9,-0.6 -1.4,-1.2 -1.4,-2 -0.1,-1.7 2.1,-3.5 4.6,-5.6 2.9,-2.4 6.2,-5.1 6.1,-7.9 -0.1,-3.3 0.3,-5 0.7,-6.6 0.4,-1.6 0.8,-3.2 0.7,-6.3 -0.1,-3 -1.3,-4.5 -2.7,-6 -1.4,-1.6 -2.8,-3.3 -2.9,-6.6999997 -0.1,-2.5 0.3,-4.5 0.6,-6.2 0.5,-2.7 0.8,-4.9000003 -0.5,-8.4000003 -1.9,-5.1 -5.5,-9 -8.5,-12 -2.5,-2.6 -4.3,-4.5 -4.1,-6.3 0.1,-0.8 0.6,-1.5 1.6,-2 l 0,0 c 4.1,-2.4 9.2,4.3 13.3,9.6 1.4,1.8 2.7,3.5 3.8,4.6 2.2,2.2 2.3,4.3 2.5,6.3 0.1,1.9 0.2,3.7 2.2,5.6000003 1.9,1.9 4.1,1.6 6.5,1.2 2.5,-0.4 5.1,-0.7 7.3,1.5 3.299997,3.3 3.199997,6.2 3.099997,9.8999997 0,1.1 -0.1,2.3 -0.1,3.7 l 0,0.8 c 0.2,4.9 0.2,7.4 -3.599997,11.3 -2,2 -3.4,2.6 -4.8,3.2 -1.4,0.6 -2.6,1.1 -4.5,3 -1.8,1.8 -1.9,3.5 -2,5.4 -0.1,1.9 -0.2,3.9 -2.3,6 -2.9,2.9 -7.1,5.2 -11,5.2 z m -8.6,-76.8 c -0.5,0 -0.9,0.1 -1.3,0.4 l 0,0 c -0.7,0.4 -1.1,0.8 -1.1,1.3 -0.2,1.3 1.7,3.2 3.8,5.4 3,3.1 6.8,7.1 8.7,12.4 1.4,3.8 1,6.2000003 0.5,9.0000003 -0.3,1.7 -0.6,3.5 -0.5,6 0.1,2.9999997 1.3,4.4999997 2.7,5.9999997 1.4,1.6 2.8,3.3 2.9,6.7 0.1,3.3 -0.3,5 -0.7,6.6 -0.4,1.6 -0.8,3.2 -0.7,6.3 0.1,3.3 -3.4,6.2 -6.5,8.7 -2.1,1.7 -4.3,3.5 -4.2,4.7 0,0.4 0.3,0.8 0.9,1.2 4.5,2.8 10.6,0 14.3,-3.8 1.8,-1.8 1.9,-3.5 2,-5.4 0.1,-1.9 0.2,-3.9 2.3,-6 2,-2 3.4,-2.6 4.8,-3.2 1.4,-0.6 2.6,-1.1 4.5,-3 3.499997,-3.5 3.499997,-5.6 3.299997,-10.5 l 0,-0.8 c 0,-1.4 0,-2.6 0.1,-3.8 0.1,-3.6999997 0.2,-6.0999997 -2.799997,-9.1999997 -1.9,-1.9 -4.1,-1.6 -6.5,-1.2 -2.5,0.4 -5.1,0.7 -7.3,-1.5 -2.2,-2.2000003 -2.3,-4.3000003 -2.5,-6.3000003 -0.1,-1.9 -0.2,-3.7 -2.2,-5.6 -1.1,-1.1 -2.5,-2.9 -3.9,-4.7 -3.3,-4.4 -7.4,-9.7 -10.6,-9.7 z"
       id="path775"
       style="fill:#ffffff;fill-opacity:1" />
    <path
       inkscape:connector-curvature="0"
       class="st0"
       d="m 24.142857,-115.63267 c 2.6,5.7 3.3,5.4 -1.1,9.9 -4.5,4.5 -3.6,5.3 -8.1,9.800004 -4.5,4.5 -6.9,-0.6 -13.2,-0.2 -5.5,0.4 -5.4,3.2 -9.3,-0.8 -3.9,-3.900004 -6.4,-1.5 -10.3,-5.400004 -3.9,-3.9 -7.8,-8.1 -5.1,-13 3,-5.5 7.3,-8.5 13.6000001,-8.9 6.2999999,-0.4 6.2999999,0.1 12.5999999,-0.3 6.3,-0.4 9.7,18.6 15.8,16.8 4.5,-1.4 2.5,-13.6 5.1,-7.9 z"
       id="path777"
       style="fill:#ffffff;fill-opacity:1" />
    <path
       inkscape:connector-curvature="0"
       class="st0"
       d="m 11.242857,-93.632666 c -1.2,0 -2.3,-0.4 -3.5,-0.9 -1.6,-0.6 -3.5,-1.3 -5.9,-1.2 -1.9,0.1 -3.1,0.5 -4,0.9 -2,0.7 -3,0.9 -5.7,-1.8 -1.8999999,-1.9 -3.3,-2.2 -4.9,-2.6 -1.6,-0.4 -3.3,-0.800004 -5.4,-2.800004 -3.4,-3.4 -8.2,-8.2 -5.2,-13.6 3.2,-5.8 7.6,-8.7 14.0000001,-9.1 3.1999999,-0.2 4.7999999,-0.2 6.2999999,-0.2 1.5,0 3.1,0 6.3,-0.2 3.4,-0.2 5.9,4.4 8.3,8.9 2.3,4.3 4.7,8.7 7.4,7.9 2.1,-0.6 2.7,-4.2 3.1,-6.6 0.3,-1.8 0.4,-2.7 1.1,-2.8 0.6,-0.1 1.1,0.6 1.6,1.8 0.3,0.7 0.6,1.3 0.8,1.8 2,4.1 2,4.6 -2.1,8.6 -2.2,2.2 -3.1,3.5 -4,4.8 -0.9,1.300004 -1.8,2.700004 -4.1,5.000004 -1.5,1.6 -2.8,2.1 -4.1,2.1 z m -8.8,-3.1 c 2.3,0 4,0.7 5.6,1.3 2.5,0.9 4.1,1.6 6.5,-0.9 2.2,-2.2 3.1,-3.5 4,-4.800004 0.9,-1.3 1.8,-2.7 4.1,-5 3.7,-3.7 3.7,-3.7 1.9,-7.5 -0.3,-0.5 -0.5,-1.1 -0.8,-1.8 -0.2,-0.5 -0.4,-0.8 -0.5,-1 -0.1,0.4 -0.2,1.1 -0.3,1.7 -0.4,2.6 -1,6.6 -3.8,7.4 -3.5,1 -5.9,-3.5 -8.5,-8.4 -2.3,-4.2 -4.6,-8.6 -7.4,-8.4 -3.2,0.2 -4.8,0.2 -6.3,0.2 -1.5,0 -3.1,0 -6.2999999,0.2 -6.0000001,0.4 -10.2000001,3.1 -13.2000001,8.6 -2.4,4.4 0.9,8.2 5,12.4 1.9,1.9 3.3,2.2 4.9,2.6 1.6,0.400004 3.3000001,0.800004 5.4,2.800004 2.3,2.3 3,2.1 4.7,1.5 1,-0.3 2.3,-0.8 4.3,-0.9 0.2,0 0.5,0 0.7,0 z"
       id="path779"
       style="fill:#ffffff;fill-opacity:1" />
    <path
       inkscape:connector-curvature="0"
       class="st0"
       d="m 127.14286,25.667344 c -6.7,1.3 -4.9,-9 -9.7,-13.8 -4.8,-4.8 -9,-0.6 -13.8,-5.4 -4.8,-4.8 -12.4,-6.4 -12.4,-13.1999997 0,-6.8000003 11.2,-4.8000003 16,-9.6000003 4.8,-4.8 -1.7,-11.3 3.2,-16.1 4.8,-4.8 11,-12.5 17.7,-11.2 5.7,1.1 6.1,13.8 6.1,19.5 0,5.8 -2,5.8 -2,11.5 0,5.8000003 -4.4,5.8000003 -4.5,11.5000003 0,5.7999997 -4.7,6.4999997 -3.3,12.0999997 1.9,8.2 8.3,13.5 2.7,14.7 z"
       id="path781"
       style="fill:#ffffff;fill-opacity:1" />
    <path
       inkscape:connector-curvature="0"
       class="st0"
       d="m 125.94286,26.267344 c -3.4,0 -4.3,-3.3 -5.4,-6.8 -0.8,-2.6 -1.6,-5.4 -3.5,-7.3 -2.3,-2.3 -4.4,-2.4 -6.6,-2.5 -2.3,-0.1 -4.7,-0.3 -7.2,-2.8 -1.6,-1.6 -3.4,-2.8 -5.2,-4 -3.8,-2.5 -7.3,-4.7999997 -7.3,-9.5999997 0,-4.3000003 4.2,-5.4000003 8.2,-6.5000003 2.9,-0.8 6,-1.6 7.9,-3.5 2.2,-2.2 1.8,-4.8 1.4,-7.6 -0.4,-2.9 -0.9,-5.9 1.7,-8.5 0.6,-0.6 1.3,-1.3 2,-2 4.5,-4.7 10.1,-10.5 16.2,-9.3 4.3,0.9 6.5,7.6 6.5,20 0,3 -0.5,4.5 -1.1,5.9 -0.5,1.4 -1,2.8 -1,5.6 0,3.1000003 -1.2,4.6000003 -2.3,6.1000003 -1.1,1.4 -2.1,2.7 -2.1,5.5 0,2.7999997 -1.1,4.4999997 -2,5.9999997 -1.1,1.7 -2,3.1 -1.3,5.9 0.7,2.9 2.1,5.5 3.2,7.6 1.4,2.7 2.4,4.6 1.7,6 -0.4,0.8 -1.2,1.3 -2.5,1.5 l 0,0 c -0.5,0.2 -0.9,0.3 -1.3,0.3 z m 0.6,-69.5 c -5,0 -9.9,5 -13.8,9.1 -0.7,0.7 -1.3,1.4 -2,2 -2.2,2.2 -1.8,4.8 -1.4,7.6 0.4,2.9 0.9,5.9 -1.7,8.5 -2.1,2.1 -5.3,2.9 -8.3,3.7 -4,1 -7.5,2 -7.5,5.5000003 0,4.3 3.2,6.3 6.8,8.6999997 1.8,1.2 3.8,2.5 5.4,4.1 2.3,2.3 4.4,2.4 6.6,2.5 2.3,0.1 4.7,0.3 7.2,2.8 2.1,2.1 2.9,5 3.7,7.7 1.3,4.2 2.1,6.6 5.5,5.9 l 0,0 c 1,-0.2 1.5,-0.5 1.8,-1 0.5,-1 -0.5,-2.9 -1.7,-5.1 -1.1,-2.1 -2.5,-4.8 -3.2,-7.9 -0.8,-3.2 0.3,-5 1.4,-6.7 0.9,-1.4 1.9,-2.9 1.9,-5.4999997 0,-3.1 1.2,-4.6 2.3,-6.1 1.1,-1.4 2.1,-2.7000003 2.1,-5.5000003 0,-3 0.5,-4.5 1.1,-5.9 0.5,-1.4 1,-2.8 1,-5.6 0,-11.5 -2,-18.3 -5.7,-19 -0.6,0.3 -1,0.2 -1.5,0.2 z"
       id="path783"
       style="fill:#ffffff;fill-opacity:1" />
    <path
       inkscape:connector-curvature="0"
       class="st0"
       d="m -30.057143,119.06734 c -2.8,-5.2 -5.2,-2.2 -1.1,-6.4 4.2,-4.2 4.2,-4.1 8.4,-8.2 4.2,-4.2 10.4,2.1 14.6000001,-2.1 4.1999999,-4.2 -2.1000001,-7.7 3.7999999,-7.5 6.4,0.2 7.6,-3.6 12.1,0.9 4.5,4.5 -0.3,9.3 4.2,13.8 4.5,4.5 4.4,-1.4 2.6,4.7 -1.7,5.8 1.9,-0.5 -4.2,0.2 -6,0.6 -4.6,14.5 -10.6,15.1 -6,0.6 -6.8,-6.7 -12.8,-6.1 -6,0.6 -7.4,-6.2 -13.2,-4.6 -3.1,0.9 -1,5.6 -3.8,0.2 z"
       id="path785"
       style="fill:#ffffff;fill-opacity:1" />
    <path
       inkscape:connector-curvature="0"
       class="st0"
       d="m -0.857143,130.06734 c -2.8,0 -4.4,-1.6 -6,-3.2 -1.6999999,-1.6 -3.2,-3.2 -6,-2.9 -3.1,0.3 -5.1,-1.2 -6.8,-2.6 -1.9,-1.5 -3.5,-2.8 -6.3,-2 -1.1,0.3 -1.4,1.2 -1.6,1.8 -0.1,0.4 -0.3,0.8 -0.7,0.9 -0.6,0 -0.8,-0.4 -2.1,-2.8 l 0,0 c -1.1,-2 -2,-2.7 -2.6,-3.1 -0.4,-0.3 -0.7,-0.5 -0.7,-0.9 0,-0.5 0.3,-0.9 1.6,-2.2 l 0.7,-0.7 c 2.1,-2.1 3.1,-3.1 4.2,-4.1 1.1,-1 2.1,-2 4.2,-4.1 2.3,-2.3 5,-1.7 7.7,-1.2 2.5,0.5 4.9,1 6.8000001,-0.9 1.7999999,-1.8 1.3999999,-3.5 1.0999999,-4.8 -0.2,-0.8 -0.4,-1.6 0.1,-2.2 0.4,-0.5 1.3,-0.7 2.9,-0.7 2.3,0.1 3.9,-0.4 5.3,-0.8 2.3,-0.7 4.1,-1.2 7.2,1.8 2.4,2.4 2.3,4.9 2.3,7.3 -0.1,2.3 -0.1,4.4 2,6.5 1.6,1.6 2.7,1.9 3.1,1.6 l 0.3,-0.2 0.6,0.5 -0.2,0.4 c -0.4,0.7 -0.8,1.9 -1.1,2.8 -0.3,0.8 -0.4,1.4 -0.4,1.8 0,0.4 0,0.8 -0.2,0.9 l -0.3,0.2 -0.3,-0.2 c -0.2,-0.1 -0.3,-0.2 -0.2,-1 0,-0.2 -0.1,-0.4 -0.3,-0.6 -0.5,-0.5 -1.5,-0.8 -2.8,-0.6 -2.7,0.3 -3.8,3.6 -4.9,7.2 -1.2,3.7 -2.4,7.6 -5.7,7.9 -0.4,0.2 -0.7,0.2 -0.9,0.2 z m -11.4,-7.1 c 2.8000001,0 4.4,1.6 6,3.2 1.7,1.6 3.2,3.2 6,2.9 2.7,-0.3 3.8,-3.6 4.9,-7.2 1.2,-3.7 2.4,-7.6 5.7,-7.9 1.9,-0.2 3,0.3 3.5,0.8 0.1,-0.2 0.1,-0.4 0.2,-0.6 0.3,-0.9 0.5,-1.6 0.8,-2.2 -0.8,-0.1 -1.8,-0.6 -3.2,-2 -2.4,-2.4 -2.3,-4.9 -2.3,-7.3 0.1,-2.3 0.1,-4.4 -2,-6.5 -2.6,-2.6 -3.9,-2.2 -6.2,-1.6 -1.4,0.4 -3.1,0.9 -5.6,0.8 -1.5,-0.1 -2,0.2 -2.1,0.3 -0.2,0.2 0,0.7 0.1,1.3 0.3,1.4 0.8,3.5 -1.4,5.7 -2.3,2.3 -5,1.7 -7.7,1.2 -2.5,-0.5 -4.9,-1 -6.8,0.9 -2.1,2.1 -3.2,3.1 -4.2,4.1 -1.1,1 -2.1,2 -4.2,4.1 l -0.7,0.7 c -0.6,0.6 -1.1,1.1 -1.3,1.4 0.1,0.1 0.2,0.1 0.3,0.2 0.6,0.4 1.8,1.3 2.9,3.5 l 0,0 c 0.3,0.5 0.7,1.4 1.1,1.9 0.2,-0.7 0.7,-1.9 2.2,-2.3 3.3,-0.9 5.3,0.6 7.2,2.1 1.7,1.4 3.4,2.7 6.1,2.4 0.2,0.1 0.4,0.1 0.7,0.1 z"
       id="path787"
       style="fill:#ffffff;fill-opacity:1" />
    <path
       inkscape:connector-curvature="0"
       class="st0"
       d="m -59.657143,-115.43267 c 1.8,7.3 8.2,7.6 2.9,12.9 -5.3,5.300004 -8.3,-1.8 -15.8,-1.1 -6.2,0.6 -10.6,9.700004 -15,5.300004 -4.4,-4.400004 -3.3,-9.500004 -0.9,-15.200004 2.5,-6 6.1,6 12.6,5.4 6.4,-0.6 5.1,-8.4 11.1,-11 3.2,-1.4 3.6,-2.6 5.1,3.7 z"
       id="path789"
       style="fill:#ffffff;fill-opacity:1" />
    <path
       inkscape:connector-curvature="0"
       class="st0"
       d="m -84.957143,-96.732666 c -1,0 -1.9,-0.4 -2.9,-1.3 -4.7,-4.700004 -3.3,-10.400004 -1,-15.800004 0.5,-1.2 1.1,-1.8 1.8,-2 1.3,-0.2 2.5,1.1 4,2.7 1.9,2 4.3,4.6 7.2,4.3 3.2,-0.3 4.3,-2.5 5.6,-5 1.1,-2.2 2.4,-4.7 5.3,-5.9 0.4,-0.2 0.7,-0.3 1,-0.5 1,-0.5 1.8,-0.8 2.5,-0.5 0.8,0.4 1.3,1.5 2.2,5.1 l 0,0 c 0.7,2.7 2.1,4.5 3.2,5.9 1.8,2.2 3.1,4 -0.4,7.5 -3.3,3.300004 -5.9,2.1 -8.8,0.8 -2,-0.9 -4.3,-2 -7.3,-1.7 -2.5,0.2 -4.6,1.9 -6.8,3.500004 -1.7,1.4 -3.6,2.9 -5.6,2.9 z m -1.8,-18.100004 c 0,0 -0.1,0 -0.1,0 -0.5,0.1 -0.8,0.8 -1.1,1.4 -2.4,5.9 -3.2,10.6 0.8,14.700004 2.1,2.1 4.1,0.7 7.3,-1.700004 2.1,-1.6 4.5,-3.5 7.3,-3.7 3.3,-0.3 5.7,0.8 7.9,1.8 2.8,1.3 4.8,2.2 7.6,-0.6 2.9,-2.9 2,-4 0.3,-6.2 -1.2,-1.5 -2.6,-3.3 -3.4,-6.3 -0.6,-2.5 -1.1,-4.1 -1.7,-4.4 -0.3,-0.1 -0.9,0.1 -1.7,0.5 -0.3,0.2 -0.7,0.3 -1.1,0.5 -2.6,1.1 -3.7,3.3 -4.8,5.5 -1.3,2.5 -2.6,5.2 -6.4,5.5 -3.4,0.3 -5.9,-2.4 -8,-4.6 -1,-1.2 -2.1,-2.4 -2.9,-2.4 z"
       id="path791"
       style="fill:#ffffff;fill-opacity:1" />
    <path
       inkscape:connector-curvature="0"
       class="st0"
       d="m 104.64286,-124.73267 c 1.8,7.3 -7.2,8.8 -12.5,14 -5.3,5.3 -5.3,10.1 -12.700003,10.800004 -6.2,0.6 -1.2,-10.500004 -5.5,-14.900004 -4.3,-4.4 -18.4,-1.2 -16.1,-6.9 2.5,-6 10.5,3.4 17,2.8 6.4,-0.6 7.700003,1.8 13.800003,-0.3 9,-3 14.4,-11.8 16,-5.5 z"
       id="path793"
       style="fill:#ffffff;fill-opacity:1" />
    <path
       inkscape:connector-curvature="0"
       class="st0"
       d="m 78.942857,-99.332666 c -0.9,0 -1.6,-0.2 -2.1,-0.700004 -1.3,-1.2 -1.4,-3.5 -1.4,-6.3 0,-2.9 -0.1,-6.2 -1.9,-8.1 -1.8,-1.8 -5.7,-2.3 -9,-2.6 -3.3,-0.4 -6.2,-0.7 -7.2,-2.3 -0.4,-0.7 -0.4,-1.5 0,-2.5 0.4,-1.1 1.1,-1.8 2,-2.1 1.9,-0.7 4.4,0.5 7.2,2 2.6,1.3 5.6,2.9 8.2,2.6 2.8,-0.3 4.6,0 6.2,0.3 2.200003,0.3 4.000003,0.6 7.500003,-0.6 3.6,-1.2 6.6,-3.3 9,-5.1 2.6,-1.9 4.6,-3.2 6,-2.7 0.8,0.3 1.3,1.1 1.7,2.5 1.3,5.2 -2.6,7.7 -6.8,10.3 -2,1.3 -4.1,2.6 -5.8,4.3 -1.7,1.7 -2.8,3.4 -3.9,4.8 -2.2,3.2 -3.9,5.700004 -9.200003,6.200004 -0.2,0 -0.3,0 -0.5,0 z m -18.5,-23.800004 c -0.3,0 -0.6,0 -0.8,0.1 -0.6,0.2 -1.1,0.7 -1.4,1.6 -0.3,0.7 -0.3,1.2 -0.1,1.6 0.7,1.2 3.5,1.5 6.4,1.8 3.5,0.4 7.5,0.9 9.6,2.9 2.1,2.1 2.2,5.7 2.2,8.8 0,2.4 0.1,4.6 1.1,5.5 0.4,0.4 1,0.5 1.8,0.4 4.800003,-0.5 6.300003,-2.7 8.400003,-5.7 1,-1.5 2.2,-3.2 4,-5 1.8,-1.8 3.9,-3.1 6,-4.4 4.2,-2.6 7.5,-4.7 6.4,-9.2 -0.2,-1 -0.6,-1.6 -1.1,-1.8 -1,-0.4 -2.9,1 -5.1,2.5 -2.5,1.7 -5.6,3.9 -9.3,5.2 -3.7,1.3 -5.6,1 -7.900003,0.6 -1.6,-0.2 -3.3,-0.5 -6,-0.3 -2.9,0.3 -6,-1.3 -8.8,-2.7 -1.9,-0.9 -3.9,-1.9 -5.4,-1.9 z"
       id="path795"
       style="fill:#ffffff;fill-opacity:1" />
    <path
       inkscape:connector-curvature="0"
       class="st0"
       d="m -62.457143,-53.232656 c 4.5,-4.5 -3.3,-3.6 -4.7,-9.80001 -1.4,-6.1 8.9,-20.6 2.7,-22 -6.5,-1.5 -13.7,6.7 -18.4,11.4 -4.7,4.7 0.1,8.9 1.6,15.40001 1.4,6.1 2.7,0.7 8.4,3.3 5.5,2.5 6,6.2 10.4,1.7 z"
       id="path797"
       style="fill:#ffffff;fill-opacity:1" />
    <path
       inkscape:connector-curvature="0"
       class="st0"
       d="m -65.957143,-50.632656 c -1.2,0 -2.1,-0.7 -3.3,-1.6 -1,-0.7 -2.1,-1.5 -3.7,-2.2 -2.4,-1.1 -3.9,-0.7 -5,-0.4 -0.8,0.2 -1.4,0.4 -2.1,0 -0.7,-0.4 -1.1,-1.3 -1.5,-3.2 -0.5,-2 -1.2,-3.70001 -1.9,-5.30001 -1.6,-3.8 -3.1,-7 0.4,-10.5 0.4,-0.4 0.9,-0.9 1.4,-1.4 4.8,-4.9 11.3,-11.5 17.5,-10.1 0.9,0.2 1.6,0.7 1.9,1.4 1.2,2.2 -0.3,6.2 -1.9,10.5 -1.5,3.9 -3,8 -2.4,10.5 0.6,2.60001 2.4,3.90001 3.9,4.90001 1.1,0.8 2.1,1.5 2.2,2.5 0.1,0.8 -0.4,1.7 -1.5,2.8 -1.8,1.5 -3,2.1 -4,2.1 z m -10,-5.5 c 0.9,0 2.1,0.2 3.4,0.8 1.6,0.8 2.9,1.6 3.8,2.3 2.3,1.6 3.1,2.3 5.9,-0.6 0.9,-0.9 1.3,-1.5 1.2,-2 -0.1,-0.6 -0.8,-1.1 -1.8,-1.8 -1.5,-1.1 -3.6,-2.5 -4.3,-5.50001 -0.6,-2.8 0.9,-7 2.4,-11 1.4,-3.9 2.9,-7.9 2,-9.7 -0.2,-0.5 -0.7,-0.8 -1.3,-0.9 -5.6,-1.3 -11.9,5.1 -16.6,9.8 -0.5,0.5 -1,1 -1.4,1.4 -3,3 -1.9,5.7 -0.2,9.4 0.7,1.6 1.5,3.50001 2,5.50001 0.4,1.5 0.7,2.4 1.1,2.6 0.3,0.2 0.7,0.1 1.3,-0.1 0.8,0 1.5,-0.2 2.5,-0.2 z"
       id="path799"
       style="fill:#ffffff;fill-opacity:1" />
    <path
       inkscape:connector-curvature="0"
       class="st0"
       d="m -128.45714,-82.132666 c 6.6,-2.3 1.3,4.6 6.3,9.4 5,4.8 2.4,0.2 2.7,7.1 0.3,6.70001 11.1,9.80001 6.5,14.60001 -4.6,4.8 -10.5,12.4 -16.9,10.4 -6.1,-2 12,-13 11.7,-19.4 -0.3,-6.40001 -11.2,-5.60001 -13.1,-11.70001 -1.5,-5.6 -3.2,-8.3 2.8,-10.4 z"
       id="path801"
       style="fill:#ffffff;fill-opacity:1" />
    <path
       inkscape:connector-curvature="0"
       class="st0"
       d="m -127.65714,-39.732656 c -0.8,0 -1.5,-0.1 -2.3,-0.4 -0.9,-0.3 -1.4,-0.8 -1.6,-1.4 -0.5,-1.9 2.2,-4.6 5.6,-8 3.5,-3.6 7.5,-7.6 7.3,-10.4 -0.1,-3.00001 -3,-4.30001 -6,-5.70001 -3,-1.3 -6.1,-2.7 -7,-5.9 -0.2,-0.6 -0.4,-1.2 -0.5,-1.7 -1.4,-4.4 -2.3,-7.3 3.5,-9.3 l 0,0 c 1.7,-0.6 2.7,-0.6 3.4,-0.1 0.9,0.6 0.9,1.8 1,3.2 0.1,2 0.2,4.4 2.4,6.5 1.4,1.3 2.2,1.9 2.6,2.2 0.6,0.4 0.8,0.6 0.6,1.3 -0.1,0.4 -0.4,1.3 -0.3,3.9 0.1,2.8 2.3,5.00001 4.3,7.00001 2.4,2.5 4.9,5 2.1,8 -0.6,0.6 -1.1,1.2 -1.7,1.8 -3.8,4 -8.4,9 -13.4,9 z m 10.1,-20.7 c 0,0.1 0,0.2 0,0.4 0.1,3.3 -3.8,7.3 -7.6,11.2 -2.8,2.8 -5.7,5.8 -5.3,7.1 0,0.1 0.1,0.4 0.9,0.7 5.3,1.7 10.5,-3.9 14.6,-8.4 0.6,-0.6 1.2,-1.3 1.7,-1.9 2.1,-2.2 0.7,-3.9 -2,-6.6 -0.8,-0.8 -1.6,-1.6 -2.3,-2.5 z m -10.7,-21.30001 c -4.9,1.7 -4.3,3.6 -2.9,8.1 0.2,0.6 0.4,1.1 0.5,1.8 0.8,2.7 3.7,4 6.5,5.3 1.6,0.7 3.3,1.5 4.6,2.5 -0.1,-0.5 -0.2,-1 -0.3,-1.6 -0.1,-2.7 0.2,-3.7 0.4,-4.2 0,0 0,0 0,-0.1 -0.1,0 -0.2,-0.1 -0.2,-0.2 -0.4,-0.3 -1.3,-0.9 -2.7,-2.3 -2.4,-2.3 -2.6,-5.1 -2.7,-7.1 -0.1,-1.1 -0.1,-2.1 -0.6,-2.4 -0.5,-0.3 -1.3,-0.2 -2.6,0.2 l 0,0 z"
       id="path803"
       style="fill:#ffffff;fill-opacity:1" />
    <path
       inkscape:connector-curvature="0"
       class="st0"
       d="m -132.95714,54.567344 c 6.6,-2.3 3.9,11.2 8.9,16 5,4.8 6.1,0.3 6.4,7.2 0.3,6.7 -2.6,0.6 -7.2,5.4 -4.6,4.8 3,10.199996 -3.4,8.199996 -6.1,-1.999996 -3.9,-0.9 -4.2,-7.299996 -0.3,-6.4 10.4,-9 8.5,-15.1 -2.7,-8.8 -15.1,-12.3 -9,-14.4 z"
       id="path805"
       style="fill:#ffffff;fill-opacity:1" />
    <path
       inkscape:connector-curvature="0"
       class="st0"
       d="m -126.25714,92.36734 c -0.5,0 -1.2,-0.2 -2.2,-0.5 l -0.9,-0.3 c -3.5,-1.1 -3.9,-1.2 -3.7,-3.799996 0.1,-0.8 0.2,-2 0.1,-3.7 -0.1,-3.3 2.3,-5.6 4.7,-7.8 1.8,-1.7 3.6,-3.3 3.9,-5.2 -0.1,-0.1 -0.1,-0.1 -0.2,-0.2 -1.8,-1.7 -2.7,-4.6 -3.3,-7.4 -1.4,-1.5 -2.9,-2.7 -4.1,-3.8 -2.1,-1.7 -3.5,-2.9 -3.2,-4.1 0.2,-0.9 1.2,-1.4 2,-1.6 l 0,0 c 1.2,-0.4 2.2,-0.4 3,0.1 1.8,1 2.3,3.9 3,7.1 0.1,0.6 0.2,1.2 0.4,1.7 1.4,1.6 2.7,3.5 3.4,5.7 0.2,0.7 0.3,1.3 0.2,1.9 1.7,1.4 2.8,1.7 3.6,2 1.7,0.5 2.1,1 2.3,5 0.1,2 -0.1,3 -0.6,3.5 -0.5,0.5 -1.2,0.4 -1.9,0.4 -1.2,-0.1 -2.8,-0.2 -4.8,1.9 -2.1,2.2 -1.4,4.6 -0.9,6.3 0.3,0.999996 0.5,1.699996 0.1,2.199996 -0.2,0.5 -0.5,0.6 -0.9,0.6 z m 2.9,-20.499996 c -0.6,2 -2.4,3.6 -4.1,5.2 -2.2,2 -4.5,4.2 -4.4,7 0.1,1.7 0,2.9 -0.1,3.8 -0.2,1.7 -0.2,1.7 3,2.699996 l 0.9,0.3 c 1.7,0.5 2,0.4 2,0.4 0,-0.1 -0.2,-0.7 -0.3,-1.2 -0.5,-1.699996 -1.4,-4.599996 1.1,-7.199996 2.3,-2.4 4.3,-2.3 5.6,-2.2 0.6,0 1,0.1 1.1,-0.1 0.3,-0.3 0.4,-1.2 0.3,-2.8 -0.2,-3.7 -0.4,-3.8 -1.6,-4.1 -0.8,-0.2 -1.9,-0.5 -3.5,-1.8 z m -2.9,-6.5 c 0.5,1.7 1.1,3.2 2,4.3 0,-0.2 -0.1,-0.4 -0.1,-0.6 -0.5,-1.3 -1.1,-2.5 -1.9,-3.7 z m -5.4,-10.5 c -0.4,0 -0.7,0.1 -1.2,0.2 l 0,0 c -1.1,0.4 -1.3,0.7 -1.3,0.8 -0.1,0.6 1.4,1.9 2.9,3.1 1,0.8 2,1.7 3.1,2.7 0,-0.1 0,-0.1 0,-0.2 -0.6,-2.9 -1.1,-5.7 -2.5,-6.5 -0.3,0 -0.6,-0.1 -1,-0.1 z"
       id="path807"
       style="fill:#ffffff;fill-opacity:1" />
    <path
       inkscape:connector-curvature="0"
       class="st0"
       d="m -94.857143,128.76734 c -1.9,-7.2 1.5,-7.7 6.8,-13.1 5.3,-5.4 6.5,0.4 14,-0.4 6.2,-0.6 1.8,-1.4 6.2,3 4.4,4.4 14.6,1.6 12.3,7.4 -2.4,6 -8.6,-5.3 -15,-4.7 -6.4,0.7 -3.2,12.6 -9.3,14.9 -6.6,2.4 -13.4,-0.9 -15,-7.1 z"
       id="path809"
       style="fill:#ffffff;fill-opacity:1" />
    <path
       inkscape:connector-curvature="0"
       class="st0"
       d="m -84.257143,137.16734 c -1.9,0 -3.8,-0.4 -5.5,-1.3 -2.8,-1.5 -4.8,-3.9 -5.5,-7 l 0,0 c -1.5,-5.9 0.5,-7.7 3.8,-10.6 0.9,-0.8 2,-1.8 3.1,-2.9 3.3,-3.4 5.3,-2.6 7.7,-1.6 1.7,0.7 3.6,1.4 6.6,1.1 1.4,-0.1 2.2,-0.3 2.7,-0.4 0.9,-0.2 1.3,-0.2 1.7,0.6 0.2,0.4 0.5,1.3 2.2,2.9 1.8,1.8 4.7,2.3 7.2,2.8 2.5,0.5 4.6,0.9 5.3,2.3 0.4,0.8 0.4,1.7 -0.1,2.9 -0.5,1.1 -1.1,1.8 -1.9,2 -1.6,0.4 -3.4,-1 -5.6,-2.6 -2.5,-1.9 -5.2,-4 -8,-3.7 -3,0.3 -3.6,3.3 -4.4,6.8 -0.8,3.4 -1.5,6.9 -4.7,8.1 -1.5,0.3 -3.1,0.6 -4.6,0.6 z m 0.4,-23.3 c -1.1,0 -2.3,0.5 -3.9,2.2 -1.2,1.2 -2.2,2.1 -3.2,3 -3.3,2.9 -4.9,4.3 -3.5,9.6 l 0,0 c 0.7,2.8 2.5,5 5,6.3 2.8,1.4 6.1,1.6 9.3,0.4 2.7,-1 3.4,-4.2 4.1,-7.4 0.8,-3.5 1.6,-7.2 5.3,-7.5 3.1,-0.3 6.1,1.9 8.7,3.9 1.9,1.4 3.6,2.8 4.7,2.5 0.5,-0.1 0.9,-0.6 1.2,-1.4 0.4,-0.9 0.4,-1.5 0.1,-2 -0.5,-1 -2.5,-1.4 -4.7,-1.8 -2.7,-0.5 -5.7,-1.1 -7.7,-3.1 -1.8,-1.8 -2.2,-2.8 -2.4,-3.2 0,0 0,-0.1 0,-0.1 -0.1,0 -0.3,0 -0.5,0.1 -0.5,0.1 -1.4,0.2 -2.8,0.4 -3.2,0.3 -5.3,-0.5 -7,-1.2 -0.9,-0.4 -1.8,-0.7 -2.7,-0.7 z"
       id="path811"
       style="fill:#ffffff;fill-opacity:1" />
    <path
       inkscape:connector-curvature="0"
       class="st0"
       d="m 37.642857,122.56734 c -1.9,-7.2 21.3,-1.5 26.5,-6.8 5.2,-5.3 -3.1,-13.3 4.3,-14.1 6.2,-0.6 8.8,-3.4 13.2,0.9 4.400003,4.3 -2.5,4.1 -4.8,9.9 -2.4,6 1.8,-2.7 -4.6,-2 -6.4,0.7 -9,-2.6 -15.1,-0.5 -11.5,3.9 -17.9,18.9 -19.5,12.6 z"
       id="path813"
       style="fill:#ffffff;fill-opacity:1" />
    <path
       inkscape:connector-curvature="0"
       class="st0"
       d="m 38.842857,124.56734 c -0.1,0 -0.2,0 -0.3,0 -0.6,-0.2 -1.1,-0.8 -1.4,-1.9 l 0,0 c -0.3,-1 -0.1,-1.8 0.4,-2.5 1.1,-1.5 3.9,-1.9 7.3,-2.1 3.1,-3.2 7.1,-6.9 12.1,-8.5 3.5,-1.2 5.9,-0.7 8.4,-0.2 -0.1,-0.6 -0.2,-1.2 -0.3,-1.8 -0.4,-1.9 -0.7,-3.7 0.2,-4.9 0.6,-0.8 1.6,-1.2 3.1,-1.4 1.7,-0.2 3.2,-0.5 4.5,-0.8 3.4,-0.8 5.8,-1.4 9.200003,1.9 1.1,1.1 1.6,2 1.6,2.9 -0.1,1.2 -1.1,1.9 -2.300003,2.9 -1.4,1.1 -3.1,2.4 -4,4.6 -0.3,0.8 -0.5,1.3 -0.6,1.7 -0.2,0.5 -0.3,0.9 -0.8,0.8 -0.4,-0.1 -0.4,-0.5 -0.4,-0.7 0,-0.5 0.2,-2 -0.7,-2.8 -0.5,-0.5 -1.4,-0.7 -2.6,-0.6 -2.3,0.2 -4.1,0 -5.8,-0.3 0.1,1.9 -0.3,3.8 -2,5.5 -2.5,2.6 -8.7,2.7 -14.7,2.8 -1.5,0 -3,0.1 -4.4,0.1 -0.5,0.5 -1,1 -1.4,1.5 -2.2,2.2 -3.8,3.8 -5.1,3.8 z m 5.1,-5.4 c -2.6,0.2 -4.8,0.7 -5.5,1.7 -0.3,0.4 -0.4,1 -0.2,1.6 l 0,0 c 0.2,0.7 0.4,1.1 0.7,1.1 0.7,0.2 2.5,-1.7 4.4,-3.7 0.1,-0.2 0.3,-0.5 0.6,-0.7 z m 17.2,-9.4 c -1.2,0 -2.4,0.2 -3.9,0.7 -4.4,1.5 -8,4.6 -10.9,7.5 1.1,0 2.2,-0.1 3.4,-0.1 5.5,-0.1 11.8,-0.2 14,-2.5 1.5,-1.5 1.8,-3.3 1.7,-5 -0.1,0 -0.1,0 -0.2,0 -1.3,-0.3 -2.6,-0.6 -4.1,-0.6 z m 11.8,0.2 c 1.1,0 2,0.3 2.6,0.9 0.4,0.4 0.7,0.9 0.8,1.4 0,0 0,0 0,0 1,-2.5 2.8,-3.9 4.3,-5 1,-0.8 1.900003,-1.4 1.900003,-2.1 0,-0.5 -0.4,-1.2 -1.300003,-2.1 -3,-2.9 -5,-2.4 -8.3,-1.6 -1.3,0.3 -2.8,0.7 -4.6,0.9 -1.2,0.1 -2,0.5 -2.4,1 -0.7,0.9 -0.4,2.4 0,4.1 0.1,0.7 0.3,1.5 0.4,2.2 1.7,0.3 3.5,0.6 5.8,0.4 0.3,-0.1 0.6,-0.1 0.8,-0.1 z"
       id="path815"
       style="fill:#ffffff;fill-opacity:1" />
    <path
       inkscape:connector-curvature="0"
       class="st0"
       d="m 130.54286,82.167344 c -6.6,2.1 -13.6,-5.2 -18.5,-10.1 -4.9,-4.9 3.7,-9.6 3.5,-16.5 -0.1,-6.7 -2.5,-5.1 2.3,-9.8 4.7,-4.7 1.7,-5.6 8,-3.4 6.1,2.1 -0.8,0.9 -0.7,7.3 0.1,6.4 -2.9,7.8 -1.1,14 2.9,10.2 12.6,16.5 6.5,18.5 z"
       id="path817"
       style="fill:#ffffff;fill-opacity:1" />
    <path
       inkscape:connector-curvature="0"
       class="st0"
       d="m 128.14286,82.967344 c -5.9,0 -11.7,-5.9 -16.2,-10.3 l -0.3,-0.3 c -3.1,-3.1 -1.3,-6.1 0.6,-9.3 1.4,-2.3 2.8,-4.7 2.8,-7.5 0,-2.1 -0.3,-3.3 -0.5,-4.2 -0.5,-2.2 -0.3,-2.7 2.9,-5.9 1.5,-1.5 2.2,-2.6 2.6,-3.3 1.2,-1.8 1.6,-1.7 5.2,-0.4 l 0.6,0.2 c 2,0.7 2.7,1.1 2.8,1.7 0.1,0.5 -0.3,0.9 -0.8,1.3 -1,0.8 -2.4,1.9 -2.3,4.8 0,2.8 -0.5,4.7 -0.9,6.4 -0.6,2.2 -1.1,4.1 -0.2,7.5 1.2,4.3 3.7,7.9 5.6,10.8 2,2.9 3.4,5 2.8,6.6 -0.3,0.8 -1,1.4 -2.2,1.7 l 0,0 c -0.8,0.1 -1.7,0.2 -2.5,0.2 z m -6.1,-41.2 c -0.5,0 -0.7,0.3 -1.1,0.9 -0.5,0.8 -1.2,1.9 -2.8,3.4 -3,3 -3,3.2 -2.6,5 0.2,0.9 0.5,2.3 0.5,4.4 0.1,3.1 -1.5,5.7 -2.9,8.1 -1.9,3.1 -3.3,5.6 -0.8,8.1 l 0.3,0.3 c 4.9,4.9 11.5,11.6 17.7,9.6 0.9,-0.3 1.4,-0.6 1.6,-1.1 0.4,-1.1 -1,-3.2 -2.7,-5.7 -2,-2.9 -4.5,-6.6 -5.8,-11 -1,-3.7 -0.5,-5.8 0.2,-8 0.5,-1.7 1,-3.4 0.9,-6.1 -0.1,-3.4 1.7,-4.8 2.7,-5.6 0.1,-0.1 0.3,-0.2 0.4,-0.3 -0.3,-0.2 -1,-0.5 -2.1,-0.9 l -0.6,-0.2 c -1.6,-0.6 -2.4,-0.9 -2.9,-0.9 z"
       id="path819"
       style="fill:#ffffff;fill-opacity:1" />
    <path
       inkscape:connector-curvature="0"
       class="st0"
       d="m 122.64286,-64.332666 c -6.6,2.1 -7.6,10.10001 -12.5,5.20001 -4.9,-4.90001 1.8,-8.60001 1.7,-15.60001 -0.1,-6.7 -4.6,-8.1 0.1,-12.9 4.7,-4.7 8.2,-12.400004 14.5,-10.2 6.1,2.1 -1.6,10.7 -1.5,17.2 0.1,6.4 8.4,4.2 10,10.4 0.7,3 -6.2,3.9 -12.3,5.9 z"
       id="path821"
       style="fill:#ffffff;fill-opacity:1" />
    <path
       inkscape:connector-curvature="0"
       class="st0"
       d="m 112.94286,-57.132656 c -1,0 -2,-0.5 -3.2,-1.7 -3.2,-3.20001 -1.8,-6.00001 -0.4,-9.00001 0.9,-2 2,-4.2 2,-6.9 0,-2.4 -0.7,-4.1 -1.2,-5.6 -0.9,-2.5 -1.7,-4.4 1.5,-7.6 1.2,-1.2 2.3,-2.6 3.4,-3.9 3.2,-4 6.6,-8.200004 11.6,-6.4 1.1,0.4 1.9,1.1 2.3,1.9 0.9,2 -0.2,4.9 -1.4,8 -1,2.6 -2.1,5.3 -2,7.6 0.1,3 2.1,3.9 4.4,4.9 2.2,1 4.8,2.1 5.6,5.4 0.7,2.8 -3.6,3.9 -8.5,5.3 -1.4,0.4 -2.7,0.7 -4.1,1.2 -2.6,0.8 -4.3,2.60001 -5.7,4.10001 -1.6,1.5 -2.8,2.7 -4.3,2.7 0,0 0,0 0,0 z m 11.3,-40.60001 c -3.3,0 -5.9,3.2 -8.5,6.5 -1.1,1.4 -2.2,2.8 -3.5,4 -2.7,2.7 -2.2,4.2 -1.3,6.5 0.6,1.5 1.2,3.3 1.3,6 0,2.9 -1.1,5.3 -2.1,7.4 -1.4,3 -2.4,5.2 0.2,7.80001 1,1 1.8,1.4 2.5,1.4 1.1,0 2.1,-1 3.3,-2.4 1.5,-1.60001 3.3,-3.50001 6.2,-4.40001 l 0,0 c 1.4,-0.4 2.8,-0.8 4.1,-1.2 4.3,-1.2 8.3,-2.3 7.8,-4.1 -0.7,-2.8 -2.8,-3.7 -5,-4.7 -2.4,-1.1 -4.9,-2.2 -5,-5.8 0,-2.6 1.1,-5.3 2.1,-8 1.1,-2.9 2.2,-5.6 1.5,-7.3 -0.3,-0.6 -0.9,-1.1 -1.7,-1.4 -0.6,-0.2 -1.2,-0.3 -1.9,-0.3 z"
       id="path823"
       style="fill:#ffffff;fill-opacity:1" />
    <path
       inkscape:connector-curvature="0"
       class="st0"
       d="m -130.45714,103.96734 c 4.1,4.1 -1.8,8.3 -2.5,14.1 -0.8,5.8 2.3,4.8 -3.5,5.3 -7.3,0.7 -6.9,3.1 -12.1,-2.1 -5.2,-5.2 -7,-5.2 -6.1,-12.5 0.8,-5.9 6.6,6.5 12.2,4.3 7.3,-2.9 7.8,-13.3 12,-9.1 z"
       id="path825"
       style="fill:#ffffff;fill-opacity:1" />
    <path
       inkscape:connector-curvature="0"
       class="st0"
       d="m -143.45714,125.06734 c -1.6,0 -2.9,-0.8 -5.4,-3.4 -0.9,-0.9 -1.7,-1.7 -2.4,-2.3 -3.4,-3.1 -4.6,-4.3 -3.8,-10.5 0.1,-0.7 0.3,-1.7 1.1,-2 1,-0.4 2.2,0.7 3.9,2.3 2.2,2 5,4.6 7.5,3.6 3.3,-1.3 5.2,-4.3 6.7,-6.6 1.2,-1.9 2.2,-3.4 3.5,-3.5 0.8,-0.1 1.6,0.3 2.4,1.1 2.8,2.8 1.3,5.7 -0.2,8.8 -0.9,1.8 -1.9,3.7 -2.1,5.7 -0.3,2 -0.1,3.1 0.1,3.8 0.1,0.5 0.2,0.9 -0.1,1.2 -0.3,0.4 -0.8,0.4 -2.2,0.5 -0.5,0 -1,0.1 -1.7,0.1 -2,0.2 -3.5,0.5 -4.6,0.8 -1.2,0.2 -2,0.4 -2.7,0.4 z m -10.2,-17.3 c 0,0 0,0 0,0 -0.1,0 -0.4,0.2 -0.5,1.2 -0.8,5.7 0.2,6.7 3.5,9.7 0.7,0.7 1.5,1.4 2.5,2.4 3.5,3.5 4.2,3.4 7,2.7 1.2,-0.3 2.6,-0.6 4.7,-0.8 0.7,-0.1 1.3,-0.1 1.7,-0.1 0.7,0 1.2,-0.1 1.4,-0.2 0,-0.1 0,-0.3 -0.1,-0.5 -0.1,-0.7 -0.4,-2 -0.1,-4.1 0.3,-2.2 1.3,-4.3 2.2,-6 1.5,-3 2.7,-5.3 0.4,-7.6 l 0,0 c -0.6,-0.6 -1.1,-0.9 -1.6,-0.8 -0.9,0.1 -1.8,1.5 -2.8,3.1 -1.6,2.5 -3.5,5.5 -7.1,7 -3.1,1.3 -6.3,-1.6 -8.6,-3.8 -0.8,-1.1 -2.1,-2.2 -2.6,-2.2 z"
       id="path827"
       style="fill:#ffffff;fill-opacity:1" />
    <path
       inkscape:connector-curvature="0"
       class="st0"
       d="m -102.55714,127.96734 c 3.999997,4.1 0.7,10.3 -0.1,16 -0.8,5.7 -1.7,7.3 -7.4,7.9 -7,0.8 2.2,-9.3 -2.8,-14.3 -5,-5 -22.1,3.2 -21.1,-3.8 0.9,-5.8 11.8,4.5 17.1,2.1 8,-3.7 10.1,-12.1 14.3,-7.9 z"
       id="path829"
       style="fill:#ffffff;fill-opacity:1" />
    <path
       inkscape:connector-curvature="0"
       class="st0"
       d="m -110.75714,152.36734 c -1,0 -1.6,-0.2 -2.1,-0.7 -0.9,-1.1 -0.4,-2.9 0.2,-5.1 0.8,-3 1.7,-6.4 -0.5,-8.7 -0.9,-0.9 -2.2,-1.3 -3.7,-1.5 -1.2,0.4 -2.6,0.4 -4.1,0 -1.3,0.1 -2.6,0.2 -3.8,0.4 -4,0.5 -7.5,0.9 -8.9,-0.6 -0.6,-0.6 -0.8,-1.4 -0.6,-2.5 0.1,-0.9 0.5,-1.6 1.2,-1.9 1.5,-0.8 4.1,0.3 7.1,1.6 1.7,0.8 3.6,1.6 5.3,2 1.3,-0.1 2.7,-0.1 3.9,0 0,0 0,0 0,0 3.3,-1.5 5.6,-3.9 7.4,-5.7 1.8,-1.8 3.2,-3.3 4.8,-3.3 0,0 0,0 0,0 0.9,0 1.7,0.4 2.6,1.3 3.199997,3.2 2.099997,7.7 1,12 -0.4,1.5 -0.8,3 -1,4.4 -0.8,5.6 -1.7,7.6 -7.8,8.3 -0.5,0 -0.8,0 -1,0 z m -4.6,-16.7 c 1.2,0.3 2.2,0.8 2.9,1.5 2.7,2.7 1.6,6.5 0.8,9.6 -0.5,1.8 -0.9,3.5 -0.4,4.2 0.3,0.3 0.9,0.5 1.9,0.3 5.4,-0.6 6.1,-1.9 6.9,-7.5 0.2,-1.5 0.6,-3 1,-4.5 1.1,-4.2 2.1,-8.2 -0.7,-11.1 l 0,0 c -0.7,-0.7 -1.3,-1 -1.9,-1 0,0 0,0 0,0 -1.2,0 -2.5,1.3 -4.1,3 -1.6,1.9 -3.6,3.9 -6.4,5.5 z m -16.6,-3.2 c -0.3,0 -0.6,0.1 -0.8,0.2 -0.4,0.2 -0.6,0.6 -0.7,1.2 -0.1,0.7 0,1.3 0.4,1.7 1.1,1.2 4.5,0.8 8.1,0.3 0.5,-0.1 1,-0.1 1.5,-0.2 -1.1,-0.4 -2.1,-0.9 -3.2,-1.4 -2,-0.9 -4,-1.8 -5.3,-1.8 z"
       id="path831"
       style="fill:#ffffff;fill-opacity:1" />
    <path
       inkscape:connector-curvature="0"
       class="st0"
       d="m -95.857143,-115.03267 c -4,4.1 -11.399997,3.1 -17.199997,2.8 -5.7,-0.3 -2.8,-6.9 -5.4,-12 -2.3,-4.7 -8.7,-7.6 -4.9,-11.4 3.7,-3.8 14.4,6.8 18.1,3.1 3.7,-3.8 -4.5,-7.9 0.2,-5.3 5.199997,2.9 0.6,0.6 2.9,6.1 3.499997,8.8 10.499997,12.5 6.299997,16.7 z"
       id="path833"
       style="fill:#ffffff;fill-opacity:1" />
    <path
       inkscape:connector-curvature="0"
       class="st0"
       d="m -106.15714,-111.43267 c -1.7,0 -3.4,-0.1 -5,-0.2 -0.6,0 -1.2,-0.1 -1.8,-0.1 -4,-0.2 -4.3,-3.2 -4.5,-6.4 -0.2,-1.9 -0.3,-4 -1.3,-5.9 -0.8,-1.6 -2,-2.9 -3.2,-4.2 -2.2,-2.4 -4.5,-4.9 -1.7,-7.7 2.1,-2.1 5.9,-0.3 9.6,1.4 3.4,1.6 6.9,3.3 8.5,1.6 0.6,-0.6 0.9,-1.2 0.9,-1.9 0,-1.5 -1.5,-2.9 -2,-3.3 -0.2,-0.2 -0.5,-0.5 -0.2,-0.9 0.3,-0.4 0.5,-0.2 1.2,0.2 l 0.9,0.5 c 2.7,1.5 3.2,1.8 2.7,2.8 -0.2,0.4 -0.6,1.2 0.4,3.5 1.3,3.3 3.099997,5.8 4.599997,8 2.5,3.6 4.5,6.4 1.6,9.3 -2.7,2.7 -6.599997,3.3 -10.699997,3.3 z m -14.9,-24.5 c -0.7,0 -1.4,0.2 -1.8,0.7 -2,2 -0.7,3.7 1.7,6.4 1.2,1.3 2.5,2.8 3.3,4.4 1,2 1.2,4.3 1.4,6.2 0.3,3.5 0.6,5.4 3.6,5.5 0.6,0 1.2,0.1 1.8,0.1 5.4,0.3 11.499997,0.7 14.899997,-2.8 l 0,0 c 2.2,-2.2 1,-4.2 -1.7,-8 -1.5,-2.2 -3.399997,-4.8 -4.799997,-8.2 -1.1,-2.7 -0.6,-3.8 -0.4,-4.3 0,-0.1 0.1,-0.1 0.1,-0.2 -0.1,-0.1 -0.7,-0.4 -1.4,-0.8 0.4,0.6 0.6,1.3 0.7,2.1 0,0.9 -0.4,1.8 -1.2,2.6 -2.1,2.1 -5.9,0.3 -9.6,-1.4 -2.4,-1.1 -4.8,-2.3 -6.6,-2.3 z"
       id="path835"
       style="fill:#ffffff;fill-opacity:1" />
    <path
       inkscape:connector-curvature="0"
       class="st0"
       d="m -126.05714,-89.332666 c -4,4 -7.7,-7.7 -13.3,-8.1 -5.6,-0.4 -13.6,11.6 -16.2,6.5 -2.3,-4.5 12,-2.1 15.6,-5.7 3.6,-3.600004 1.8,-5.400004 5.4,-9.000004 3.6,-3.6 -4.3,-2.8 0.1,-0.3 5,2.9 2.9,-2.6 4.8,2.9 2.5,7.200004 7.7,9.600004 3.6,13.700004 z"
       id="path837"
       style="fill:#ffffff;fill-opacity:1" />
    <path
       inkscape:connector-curvature="0"
       class="st0"
       d="m -127.75714,-88.032666 c 0,0 -0.1,0 -0.1,0 -1.8,-0.1 -3.3,-1.9 -5.1,-4 -1.8,-2.1 -3.8,-4.5 -6.1,-4.9 -0.2,0.2 -0.4,0.4 -0.6,0.6 -1.2,1.2 -3.4,1.8 -5.9,2.2 -0.6,0.5 -1.3,1 -1.9,1.4 -2.7,2.1 -5.1,3.9 -6.9,3.5 -0.7,-0.2 -1.3,-0.7 -1.7,-1.5 -0.4,-0.7 -0.4,-1.4 -0.1,-1.9 0.8,-1.5 3.8,-1.8 7.2,-2.1 1,-0.1 2,-0.2 3,-0.4 2.2,-1.6 4.4,-2.9 6.4,-2.8 1,-1.3 1.4,-2.300004 1.7,-3.400004 0.4,-1.3 0.9,-2.7 2.6,-4.5 -0.9,-0.6 -1.3,-1.2 -1.2,-1.8 0.1,-0.5 0.6,-0.9 1.3,-1 0.7,-0.1 1.5,0.1 1.8,0.7 0.3,0.5 0.1,1.1 -0.4,1.8 1.7,0.8 2.2,0.4 2.4,0.2 0.1,-0.1 0.3,-0.3 0.7,-0.2 0.4,0.1 0.5,0.3 1,1.9 l 0.3,1 c 0.9,2.5 2.1,4.400004 3.1,6.100004 1.8,2.9 3.3,5.2 0.4,8.1 l 0,0 c -0.5,0.7 -1.2,1 -1.9,1 z m -10.6,-9.7 c 2.4,0.7 4.3,3 6.1,5.1 1.6,1.9 3.1,3.6 4.4,3.7 0.5,0 1,-0.2 1.4,-0.7 l 0,0 c 2.4,-2.4 1.3,-4 -0.5,-6.9 -1,-1.6 -2.3,-3.600004 -3.2,-6.300004 l -0.3,-1 c -0.1,-0.4 -0.3,-0.8 -0.4,-1.1 -0.6,0.4 -1.6,0.5 -3.4,-0.4 -1.7,1.7 -2.1,2.9 -2.5,4.3 -0.3,1 -0.7,2.100004 -1.6,3.300004 z m -9.1,3.8 c -0.4,0 -0.9,0.1 -1.3,0.1 -2.9,0.3 -5.9,0.6 -6.4,1.6 0,0.1 -0.2,0.4 0.1,1 0.3,0.5 0.6,0.8 1,0.9 1.4,0.3 3.8,-1.5 6.1,-3.3 0.1,0 0.3,-0.1 0.5,-0.3 z m 7,-2.9 c -0.9,0.2 -1.9,0.7 -2.9,1.3 1.2,-0.3 2.2,-0.7 2.9,-1.3 z m 5.8,-10.800004 c -0.1,0 -0.1,0 -0.2,0 -0.3,0 -0.5,0.2 -0.5,0.2 0,0.1 0.1,0.4 0.9,0.9 0.4,-0.5 0.4,-0.8 0.4,-0.9 -0.1,-0.1 -0.3,-0.2 -0.6,-0.2 z"
       id="path839"
       style="fill:#ffffff;fill-opacity:1" />
    <path
       inkscape:connector-curvature="0"
       class="st0"
       d="m 130.34286,-99.832666 c -4.1,-4.200004 0.4,-10.200004 1.2,-15.900004 0.8,-5.8 0.9,-1.4 6.7,-1.8 7.3,-0.6 -1.2,1.6 3.9,6.9 5.1,5.3 13.1,-2.7 12.1,4.6 -0.8,5.9 -0.1,5 -5.6,7.400004 -8.1,3.3 -14.1,3 -18.3,-1.2 z"
       id="path841"
       style="fill:#ffffff;fill-opacity:1" />
    <path
       inkscape:connector-curvature="0"
       class="st0"
       d="m 138.74286,-95.932666 c -3.5,0 -6.5,-1.2 -8.8,-3.6 l 0,0 c -3,-3.100004 -1.7,-7.100004 -0.4,-11.100004 0.6,-1.7 1.2,-3.5 1.4,-5.3 0.3,-2.2 0.5,-3 1.1,-3.3 0.5,-0.3 1,0 1.6,0.2 0.9,0.4 2.2,1 4.5,0.8 2.4,-0.2 3.2,-0.1 3.5,0.4 0.3,0.5 0,1 -0.2,1.5 -0.5,1.1 -1.4,2.7 1,5.2 2.3,2.4 5.2,1.8 7.6,1.4 1.7,-0.3 3.1,-0.5 4,0.3 0.6,0.6 0.8,1.6 0.6,3.3 -0.1,0.6 -0.2,1.2 -0.2,1.6 -0.5,3.9 -0.6,4 -4.3,5.500004 -0.4,0.2 -0.9,0.4 -1.4,0.6 -3.7,1.7 -7,2.5 -10,2.5 z m -8.1,-4.300004 c 4,4.100004 9.7,4.400004 17.7,1.000004 0.5,-0.2 1,-0.4 1.4,-0.6 3.3,-1.400004 3.3,-1.400004 3.7,-4.800004 0.1,-0.5 0.1,-1 0.2,-1.7 0.2,-1.2 0.1,-2.1 -0.3,-2.4 -0.5,-0.5 -1.7,-0.3 -3.1,0 -2.5,0.4 -5.9,1 -8.5,-1.7 -2.9,-3 -1.8,-5.1 -1.2,-6.3 0.1,-0.2 0.2,-0.3 0.2,-0.5 -0.3,-0.1 -0.9,-0.1 -2.6,0 -2.5,0.2 -4.1,-0.5 -5,-0.9 -0.3,-0.1 -0.6,-0.3 -0.7,-0.3 -0.2,0.2 -0.5,1.9 -0.6,2.6 -0.3,1.8 -0.9,3.7 -1.5,5.5 -1.1,3.9 -2.2,7.5 0.3,10.1 l 0,0 z"
       id="path843"
       style="fill:#ffffff;fill-opacity:1" />
    <path
       inkscape:connector-curvature="0"
       class="st0"
       d="m 106.54286,-127.83267 c -4,-4.1 10.4,-5.9 11.3,-11.5 0.9,-5.7 -12.9,-21.1 -7.2,-21.7 7.1,-0.7 -1.1,20.9 3.8,26 4.9,5.1 11.8,-4.6 10.7,2.4 -0.9,5.8 1.2,3.2 -4.3,5.3 -6.7,2.7 -10.2,3.7 -14.3,-0.5 z"
       id="path845"
       style="fill:#ffffff;fill-opacity:1" />
    <path
       inkscape:connector-curvature="0"
       class="st0"
       d="m 112.44286,-124.43267 c -2.2,0 -4.2,-0.8 -6.3,-3 -0.7,-0.7 -0.9,-1.4 -0.8,-2.1 0.3,-1.6 2.5,-2.8 5.2,-4.1 1,-0.5 2.1,-1.1 3.1,-1.7 -1.9,-2.8 -1.3,-8.4 -0.8,-13.8 0,-0.4 0.1,-0.8 0.1,-1.2 0,-0.1 -0.1,-0.1 -0.1,-0.2 -2.5,-4.4 -4.7,-8.2 -3.8,-10 0.3,-0.6 0.8,-0.9 1.6,-1 0.9,-0.1 1.7,0.1 2.3,0.7 1.6,1.6 1.4,5.6 1,10.3 2.4,4.3 4.8,8.6 4.4,11.2 -0.3,1.7 -1.5,3 -3.2,4.1 2.2,2 4.8,0.9 6.9,0.1 1.4,-0.6 2.4,-1 3.2,-0.4 0.6,0.4 0.7,1.3 0.4,3 -0.2,1.6 -0.3,2.5 -0.3,3.1 0,1.2 -0.2,1.4 -1.4,1.7 -0.6,0.1 -1.5,0.4 -2.9,0.9 -3.5,1.4 -6.2,2.4 -8.6,2.4 z m 1.8,-10.1 c -1.1,0.6 -2.2,1.2 -3.3,1.8 -2.2,1.1 -4.5,2.3 -4.7,3.4 -0.1,0.4 0.1,0.8 0.5,1.2 l 0,0 c 3.9,4 7.3,3 13.9,0.4 1.5,-0.6 2.5,-0.8 3,-1 0.3,-0.1 0.5,-0.1 0.6,-0.2 0,0 0,-0.3 0,-0.6 0,-0.6 0,-1.6 0.3,-3.2 0.3,-1.6 0,-2 -0.1,-2 -0.3,-0.2 -1.3,0.2 -2.2,0.6 -1.9,0.9 -5.2,2.2 -8,-0.4 z m -0.5,-14.3 c -0.5,4.9 -0.9,10.4 0.7,12.9 1.5,-1 2.7,-2.2 2.9,-3.5 0.3,-2.1 -1.6,-5.8 -3.6,-9.4 z m -2.7,-11.7 c -0.1,0 -0.2,0 -0.3,0 -0.6,0.1 -0.8,0.3 -0.8,0.4 -0.6,1.2 1.3,4.7 3.1,8 0.3,-3.6 0.3,-6.9 -0.8,-8 -0.3,-0.3 -0.7,-0.4 -1.2,-0.4 z"
       id="path847"
       style="fill:#ffffff;fill-opacity:1" />
    <path
       inkscape:connector-curvature="0"
       class="st0"
       d="m 93.04286,107.66734 c 4.1,-4 11.6,15.6 17.3,16 5.7,0.4 17.8,-16.3 20.2,-11.1 2.2,4.8 -4.9,14.8 -8.7,18.5 -3.8,3.7 -10.2,-3 -14,0.7 -3.8,3.7 -1.7,5.6 -6.2,2.9 -5.1,-3 1.5,-3.3 -0.8,-8.8 -3.9,-9.7 -12.1,-14.1 -7.8,-18.2 z"
       id="path849"
       style="fill:#ffffff;fill-opacity:1" />
    <path
       inkscape:connector-curvature="0"
       class="st0"
       d="m 104.34286,136.36734 c -0.6,0 -1.4,-0.4 -3,-1.3 -1.3,-0.8 -2,-1.5 -2.2,-2.2 -0.2,-0.8 0.2,-1.4 0.7,-2.1 0.7,-1.1 1.5,-2.3 0.5,-4.7 -1.5,-3.8 -3.8,-6.9 -5.6,-9.3 -2.8,-3.7 -5,-6.6 -2.1,-9.4 0.5,-0.5 1.1,-0.7 1.8,-0.7 2.3,0.2 4.7,3.8 7.6,7.9 2.7,4 5.9,8.4 8.3,8.6 2.4,0.2 6.5,-3.3 10.1,-6.5 3.8,-3.3 7,-6.1 9.1,-5.7 0.6,0.1 1.1,0.6 1.4,1.2 2.4,5.2 -5.2,15.6 -8.8,19 -2.1,2 -4.8,1.2 -7.5,0.5 -2.5,-0.7 -4.8,-1.4 -6.5,0.2 -1.3,1.2 -1.9,2.2 -2.3,3 -0.4,0.6 -0.6,1.1 -1.2,1.3 -0.1,0.2 -0.2,0.2 -0.3,0.2 z m -10.1,-28.7 c -0.3,0 -0.6,0.1 -0.9,0.4 l 0,0 c -2.1,2.1 -0.8,4.1 2.2,8.1 1.9,2.5 4.2,5.6 5.8,9.5 1.2,2.9 0.1,4.4 -0.6,5.6 -0.4,0.6 -0.6,1 -0.5,1.3 0.1,0.4 0.7,1 1.7,1.6 1,0.6 2.2,1.3 2.6,1.2 0.2,0 0.4,-0.4 0.6,-0.8 0.4,-0.7 1.1,-1.9 2.4,-3.2 2.1,-2 4.8,-1.2 7.5,-0.5 2.5,0.7 4.8,1.4 6.5,-0.2 4,-3.8 10.6,-13.5 8.6,-17.9 -0.2,-0.5 -0.5,-0.6 -0.7,-0.7 -1.6,-0.3 -5,2.6 -8.2,5.4 -3.9,3.4 -7.9,6.9 -10.8,6.7 -2.9,-0.2 -6,-4.7 -9,-9.1 -2.5,-3.6 -5.1,-7.3 -6.9,-7.5 -0.2,0.1 -0.3,0.1 -0.3,0.1 z"
       id="path851"
       style="fill:#ffffff;fill-opacity:1" />
    <path
       inkscape:connector-curvature="0"
       class="st0"
       d="m 134.54286,93.86734 c 4.1,-3.899996 -1.4,-5.899996 4.2,-5.399996 5.6,0.5 0.4,-0.8 2.8,4.299996 2.2,4.6 3.7,-1.7 0,1.8 -3.7,3.5 -0.1,7.2 -3.8,10.8 -3.7,3.5 -6,8.2 -10.4,5.5 -5,-3 -7,-8.2 -5.8,-13.9 0.7,-3.9 8.7,1 13,-3.1 z"
       id="path853"
       style="fill:#ffffff;fill-opacity:1" />
    <path
       inkscape:connector-curvature="0"
       class="st0"
       d="m 129.74286,112.16734 c -0.8,0 -1.7,-0.3 -2.7,-0.9 -5.1,-3.1 -7.3,-8.3 -6.1,-14.4 0.5,-2.4 3,-2.2 5.6,-2 2.6,0.2 5.6,0.5 7.6,-1.4 1.8,-1.7 1.6,-2.9 1.4,-3.799996 -0.1,-0.5 -0.2,-1 0.2,-1.4 0.4,-0.4 1.2,-0.5 3,-0.3 1,0.1 1.6,0.1 2,0.2 0.7,0 1,0.1 1.1,0.4 0.1,0.3 -0.1,0.6 -0.2,0.7 -0.2,0.3 -0.8,0.999996 0.3,3.399996 0.1,0.3 0.3,0.5 0.4,0.7 0.6,-0.3 1.1,-0.4 1.4,-0.2 0.3,0.2 0.5,0.6 0.4,1 -0.1,0.5 -0.5,0.9 -0.9,0.9 -0.3,0 -0.7,0 -1.1,-0.4 -0.1,0.1 -0.2,0.2 -0.4,0.3 -1.7,1.6 -1.7,3.3 -1.8,5 0,1.9 -0.1,3.8 -2.1,5.7 -0.8,0.7 -1.5,1.5 -2.2,2.3 -1.7,2.2 -3.5,4.2 -5.9,4.2 z m -5.4,-16.3 c -1.4,0 -2.2,0.3 -2.4,1.3 -1.1,5.6 0.9,10.5 5.6,13.3 2.9,1.8 4.7,0.1 7.5,-3.1 0.7,-0.8 1.4,-1.6 2.3,-2.4 1.7,-1.6 1.7,-3.3 1.8,-5 0,-1.9 0.1,-3.8 2.1,-5.7 0.1,-0.1 0.3,-0.3 0.4,-0.4 -0.2,-0.2 -0.3,-0.5 -0.5,-0.9 -0.9,-2 -0.8,-3.099996 -0.5,-3.899996 -0.4,0 -1,-0.1 -1.9,-0.1 -1.8,-0.2 -2.1,0 -2.2,0 0,0.1 0,0.3 0.1,0.5 0.2,0.999996 0.5,2.599996 -1.7,4.699996 l 0,0 c -2.3,2.2 -5.6,1.9 -8.3,1.7 -1,0 -1.7,0 -2.3,0 z m 18.8,-1.8 c 0,0 0,0 0,0 0.1,0 0.1,0 0.1,0 0,0 -0.1,0 -0.1,0 z"
       id="path855"
       style="fill:#ffffff;fill-opacity:1" />
    <path
       inkscape:connector-curvature="0"
       class="st0"
       d="m -59.057143,31.567344 -1.4,-1.4 c 2.4,-2.4 4.8,-2.4 7,-2.4 2,0 3.8,0 5.5,-1.8 2.3,-2.3 4.2,-2.8 5.8,-3.2 1.6,-0.4 3,-0.8 4.9,-2.7 1.7,-1.7 1.3,-3.9 0.8,-6.4 -0.5,-2.7 -1.2,-5.8 1.3,-8.2 2.4,-2.4 5.6,-1.8 8.3,-1.3 1.3,0.2 2.9,0.5 3.3,0.1 0.2,-0.2 0.3,-0.6 0.3,-1.3 -0.1,-2.3 -0.8,-2.4 -3.5,-2.4 -2.2,0 -4.9,0 -7.2,-2.2999997 -2.6,-2.6 -2.1,-5.6 -1.7,-8.3000003 0.4,-2.5 0.7,-4.7 -1.1,-6.6 -1.8,-1.8 -4.7,-0.7 -7.9,0.3 -3.4,1.2 -7.3,2.5 -10,-0.1 -2.6,-2.6 -2.2,-5.5 -1.8,-8.1 0.3,-2.5 0.6,-4.6 -1.3,-6.5 l 1.4,-1.4 c 2.6,2.6 2.2,5.5 1.8,8.1 -0.3,2.5 -0.6,4.6 1.3,6.5 1.8,1.8 4.7,0.7 7.9,-0.3 3.4,-1.2 7.3,-2.5 10,0.1 2.6,2.6 2.1,5.6 1.7,8.3000003 -0.4,2.5 -0.7,4.7 1.1,6.6 1.7,1.7 3.8,1.7 5.8,1.7 2.4,0 5.4,0 5.5,4.3999997 0,1.3 -0.3,2.3 -1,2.9 -1.2,1 -3,0.7 -5,0.3 -2.4,-0.4 -4.9,-0.9 -6.5,0.8 -1.7,1.7 -1.3,3.9 -0.8,6.4 0.5,2.7 1.2,5.8 -1.3,8.2 -2.3,2.3 -4.2,2.8 -5.8,3.2 -1.6,0.4 -3,0.8 -4.9,2.7 -2.4,2.4 -4.8,2.4 -7,2.4 -2,-0.1 -3.7,-0.1 -5.5,1.7 z"
       id="path857"
       style="fill:#ffffff;fill-opacity:1" />
    <path
       inkscape:connector-curvature="0"
       class="st0"
       d="m -42.257143,45.767344 -1.4,-1.4 c 2.4,-2.4 3.6,-3.6 4.8,-4.8 1.2,-1.2 2.4,-2.4 4.7,-4.8 2.7,-2.7 5.5,-2.7 7.9,-2.6 2.3,0 4.4,0 6.5,-2.1 2.4,-2.4 3.5,-3.6 4.6,-4.9 1.1,-1.2 2.3,-2.5 4.7,-4.9 1.9000001,-1.9 1.6000001,-4.7 1.3000001,-7.5 -0.2,-1.7 -0.3,-3.3 0,-4.6 0.5,-1.7 1.7999999,-2.6 3.7999999,-2.8 1.3,-0.1 2.3,0.1 3,0.7 1.2,1 1.2,2.7 1.3,4.5 0.1,2.1 0.1,4.2 1.6,5.7 1.6,1.6 3.5,1.3 5.7,0.9 2.4,-0.4 5.1,-0.8 7.4,1.5 1.7,1.7 3.1,1.9 4.7,2.2 1.7,0.3 3.7,0.5 5.9,2.7 1.9,1.9 3,2.6 4.1,3.3 1.2,0.8 2.5,1.6 4.5,3.6 l -1.4,1.4 c -1.9,-1.9 -3,-2.6 -4.1,-3.3 -1.2,-0.8 -2.5,-1.6 -4.5,-3.6 -1.7,-1.7 -3.1,-1.9 -4.7,-2.2 -1.7,-0.3 -3.7,-0.5 -5.9,-2.7 -1.6,-1.6 -3.5,-1.3 -5.7,-0.9 -2.4,0.4 -5.1,0.8 -7.4,-1.5 -2,-2 -2.1,-4.8 -2.2,-7 0,-1.4 -0.1,-2.6 -0.6,-3.1 -0.3,-0.2 -0.7,-0.3 -1.4,-0.2 -1.5,0.2 -1.9,0.8 -2.1,1.4 -0.3,1 -0.1,2.4 0,3.9 0.3,2.9 0.7,6.5 -1.8999999,9.1 -2.4000001,2.4 -3.5000001,3.6 -4.6000001,4.9 -1.1,1.2 -2.3,2.5 -4.7,4.9 -2.7,2.7 -5.4,2.7 -7.9,2.6 -2.4,0 -4.4,0 -6.5,2.1 -2.4,2.4 -3.6,3.6 -4.7,4.8 -1.2,1.1 -2.4,2.3 -4.8,4.7 z"
       id="path859"
       style="fill:#ffffff;fill-opacity:1" />
    <path
       inkscape:connector-curvature="0"
       class="st0"
       d="m -10.057143,-3.4326557 c -0.8,0 -1.5,-0.3 -2,-0.8 -1.6,-1.4 -1.5,-4.5 -1.5,-8.0000003 0.1,-3.3 0.1,-7 -1.4,-8.5 -2.1,-2.1 -2.7,-3.6 -3.2,-5.1 -0.5,-1.4 -1,-2.6 -2.7,-4.4 -1.6,-1.6 -3.3,-1.6 -5.1,-1.6 -2,0 -4.4,0.1 -6.6,-2.2 -2,-2 -2.9,-3.1 -3.7,-4.2 -0.8,-1.1 -1.6,-2.1 -3.5,-4 l 1.4,-1.4 c 2,2 2.9,3.1 3.7,4.2 0.8,1.1 1.6,2.1 3.5,4 1.6,1.6 3.3,1.6 5.1,1.6 2,0 4.4,-0.1 6.6,2.2 2.1,2.1 2.7,3.6 3.2,5.1 0.5,1.4 1,2.6 2.7,4.4 2.1,2.1 2,6.1 1.9,9.9 0,2.7000003 -0.1,5.7000003 0.8,6.5000003 0.1,0.1 0.4,0.3 0.9000001,0.2 4.7999999,-0.5 7.0999999,-3.2 10.0999999,-6.5000003 0.9,-1.1 1.9,-2.2 3,-3.3 l 9.5,-9.5 c 2,-2 1.5,-4.5 0.9,-7.5 -0.6,-3.1 -1.3,-6.5 1.4,-9.3 2.8,-2.8 6.8,-1.5 10.4,-0.4 3.3,1 6.4,2 8.4,0.1 l 1.4,1.4 c -2.8,2.8 -6.8,1.5 -10.4,0.4 -3.3,-1 -6.4,-2 -8.4,-0.1 -2,2 -1.5,4.5 -0.9,7.5 0.6,3.1 1.3,6.5 -1.4,9.3 l -9.5,9.5 c -1.1,1.1 -2,2.2 -2.9,3.2 -3.1,3.6000003 -5.9,6.6000003 -11.3999999,7.2000003 0,0.1 -0.1,0.1 -0.3000001,0.1 z"
       id="path861"
       style="fill:#ffffff;fill-opacity:1" />
    <path
       inkscape:connector-curvature="0"
       class="st0"
       d="m 31.842857,35.367344 c -2.3,-2.3 -3.1,-3.9 -3.9,-5.4 -0.7,-1.4 -1.4,-2.8 -3.5,-4.9 -2.2,-2.2 -3.3,-3.3 -4.5,-4.4 -1.1,-1.1 -2.3,-2.2 -4.5,-4.4 -2.6,-2.6 -1.6,-6.3 -0.6,-9.5 0.9,-2.9 1.7,-5.7 -0.1,-7.4999997 -1.7,-1.7 -3.6,-1.8 -5.5,-1.8 -2.2,0 -5,-0.1 -5.1,-4.5 -0.1,-4.0000003 1.4,-4.8000003 3.6,-5.6000003 1.2,-0.4 2.6,-0.9 4.1,-2.4 2.1,-2.1 3.4,-3.1 4.7,-3.9 1.2,-0.9 2.4,-1.7 4.4,-3.7 2.4,-2.4 5.2,-2.1 7.6,-1.9 2.3,0.2 4.2,0.5 6,-1.3 2,-2 2.9,-3.2 3.8,-4.3 0.9,-1.2 1.9,-2.4 4,-4.5 l 1.4,1.4 c -2,2 -2.9,3.2 -3.8,4.3 -0.9,1.2 -1.9,2.4 -4,4.5 -2.4,2.4 -5.2,2.1 -7.6,1.9 -2.3,-0.2 -4.2,-0.5 -6,1.3 -2.1,2.1 -3.4,3.1 -4.7,3.9 -1.2,0.9 -2.4,1.7 -4.4,3.7 -1.8,1.8 -3.6,2.5 -4.9,2.9 -1.8,0.6 -2.4,0.9000003 -2.3,3.7000003 0.1,2.5 0.8,2.5 3.1,2.5 1.9,0 4.6,0.1 6.9,2.4 2.6,2.5999997 1.6,6.2999997 0.6,9.4999997 -0.9,2.9 -1.7,5.7 0.1,7.5 2.2,2.2 3.3,3.3 4.5,4.3 1.1,1.1 2.3,2.2 4.5,4.4 2.3,2.3 3.1,3.9 3.9,5.4 0.7,1.4 1.4,2.8 3.5,4.9 l -1.3,1.5 z"
       id="path863"
       style="fill:#ffffff;fill-opacity:1" />
    <path
       inkscape:connector-curvature="0"
       class="st0"
       d="m -52.557143,-70.432666 -1.4,-1.4 c 2.1,-2.1 1.8,-4.5 1.4,-7.2 -0.4,-2.9 -0.8,-6.1 2,-8.9 3.3,-3.3 5.7,-1.9 8,-0.6 1.7,1 3.5,2 6.1,1.9 2.3,-0.1 4.4,-2 6.4,-3.7 2.7,-2.3 5.7,-4.9 8.8,-1.9 2.5,2.5 2.3,5.1 2.2,7.5 -0.1,2.2 -0.2,4.1 1.6,6 l -1.4,1.4 c -2.5,-2.5 -2.3,-5.1 -2.2,-7.5 0.1,-2.2 0.2,-4.1 -1.6,-6 -1.6,-1.6 -3,-0.7 -6.1,2 -2.2,1.9 -4.6,4 -7.6,4.2 -3.3,0.2 -5.5,-1.1 -7.3,-2.1 -2.2,-1.3 -3.3,-2 -5.6,0.3 -2.1,2.1 -1.8,4.5 -1.4,7.2 0.5,2.8 0.9,6 -1.9,8.8 z"
       id="path865"
       style="fill:#ffffff;fill-opacity:1" />
    <path
       inkscape:connector-curvature="0"
       class="st0"
       d="m -86.457143,-11.132656 c -1.8,-1.8 -3.2,-2.2 -4.8,-2.6 -1.6,-0.4 -3.5,-0.9 -5.7,-3.2 -4.299997,-4.3 -4.299997,-6.9 -3.899997,-12.9 0.1,-1.4 0.5,-2.5 1.299997,-3.2 1.3,-1.2 3.3,-1 5.4,-0.8 2.5,0.2 5.1,0.4 6.9,-1.4 2.3,-2.3 3.4,-3.5 4.5,-4.7 1.1,-1.2 2.2,-2.4 4.6,-4.8 l 1.4,1.4 c -2.3,2.3 -3.4,3.5 -4.5,4.7 -1.1,1.2 -2.2,2.4 -4.6,4.8 -2.5,2.5 -5.8,2.2 -8.5,2 -1.7,-0.1 -3.2,-0.3 -3.9,0.3 -0.4,0.3 -0.6,0.9 -0.6,1.8 -0.4,5.8 -0.3,7.6 3.4,11.3 1.8,1.8 3.2,2.2 4.8,2.6 1.6,0.4 3.5,0.9 5.7,3.2 l -1.5,1.5 z"
       id="path867"
       style="fill:#ffffff;fill-opacity:1" />
    <path
       inkscape:connector-curvature="0"
       class="st0"
       d="m -68.157143,-89.132666 -1.4,-1.4 c 2.5,-2.5 5.4,-2 8,-1.6 2.4,0.4 4.5,0.7 6.3,-1.1 1.7,-1.7 0.5,-4.7 -0.7,-8.000004 -1.4,-3.7 -2.9,-7.5 -0.3,-10.1 3.1,-3.1 5.9,-0.2 8.4,2.3 1.9,1.9 4,3.9 6.3,4.1 1.6,0.1 2.6,0.1 3.2,0.1 1.3,0 1.8,0.1 2.4,1.1 0.3,0.5 0.9,1.4 2.5,3 2.3,2.300004 4.1,2.800004 5.9,3.300004 2,0.6 4.1,1.2 6.8,3.8 l -1.4,1.4 c -2.3,-2.3 -4.1,-2.8 -5.9,-3.3 -2,-0.6 -4.1,-1.2 -6.8,-3.8 -1.8,-1.800004 -2.4,-2.800004 -2.8,-3.300004 0,-0.1 -0.1,-0.1 -0.1,-0.2 -0.1,0 -0.4,0 -0.6,0 -0.7,0 -1.7,0 -3.4,-0.1 -3.1,-0.2 -5.4,-2.6 -7.5,-4.7 -3.1,-3.1 -4.2,-3.7 -5.6,-2.3 -1.7,1.7 -0.5,4.7 0.7,8 1.4,3.700004 2.9,7.500004 0.3,10.100004 -2.5,2.5 -5.4,2 -8,1.6 -2.4,-0.4 -4.5,-0.7 -6.3,1.1 z"
       id="path869"
       style="fill:#ffffff;fill-opacity:1" />
    <path
       inkscape:connector-curvature="0"
       class="st0"
       d="m -102.45714,-13.332656 c -2.7,-2.7 -2.5,-5.6 -2.3,-8.2 0.2,-2.5 0.3,-4.6 -1.7,-6.6 -1.9,-1.9 -5.5,-1.7 -9,-1.6 -4.2,0.2 -9,0.3 -9.4,-4.2 -0.3,-4.3 3.1,-6 6.4,-7.6 1.8,-0.9 3.7,-1.8 5.1,-3.2 1.8,-1.8 2.3,-3.3 2.7,-4.7 0.5,-1.6 1,-3.4 3.2,-5.6 2.4,-2.4 5.3,-1.9 7.899997,-1.4 2.4,0.4 4.5,0.8 6.1,-0.8 l 1.4,1.4 c -2.4,2.4 -5.3,1.9 -7.9,1.4 -2.399997,-0.4 -4.499997,-0.8 -6.099997,0.8 -1.8,1.8 -2.3,3.3 -2.7,4.7 -0.5,1.6 -1,3.4 -3.2,5.6 -1.6,1.6 -3.7,2.6 -5.6,3.6 -3.4,1.7 -5.5,2.9 -5.3,5.7 0.2,2.3 2.5,2.5 7.3,2.3 3.7,-0.1 8,-0.3 10.4,2.2 2.7,2.7 2.5,5.6 2.3,8.2 -0.2,2.5 -0.3,4.6 1.7,6.6 l -1.3,1.4 z"
       id="path871"
       style="fill:#ffffff;fill-opacity:1" />
    <path
       inkscape:connector-curvature="0"
       class="st0"
       d="m -92.157143,54.267344 c -1.4,0 -2.7,-0.4 -3.8,-1.5 -1.1,-1.1 -2.2,-2 -3.3,-3 -3.499997,-3 -6.799997,-5.7 -6.799997,-10.9 0,-1.1 0.4,-1.9 1.1,-2.6 1.8,-1.5 5.299997,-1 9.299997,-0.4 4,0.6 8.6,1.3 10.3,-0.5 1.8,-1.8 0.6,-5 -0.6,-8.4 -1.4,-3.8 -2.8,-7.8 -0.1,-10.5 l 1.4,1.4 c -1.8,1.8 -0.6,5 0.6,8.4 1.4,3.8 2.8,7.8 0.1,10.5 -2.5,2.5 -7.4,1.8 -12.1,1.1 -3.1,-0.5 -6.599997,-1 -7.799997,0 -0.2,0.1 -0.4,0.4 -0.4,1.1 -0.1,4.2 2.8,6.6 5.999997,9.4 1.1,1 2.3,2 3.5,3.1 1.8,1.8 4.9,0.6 8.2,-0.6 3.7,-1.4 7.6,-2.8 10.3,-0.1 l -1.4,1.4 c -1.8,-1.8 -4.9,-0.6 -8.2,0.6 -2.1,0.6 -4.3,1.5 -6.3,1.5 z"
       id="path873"
       style="fill:#ffffff;fill-opacity:1" />
    <path
       inkscape:connector-curvature="0"
       class="st0"
       d="m -40.957143,97.26734 c -4.2,0 -5.1,-1.8 -6,-3.8 -0.6,-1.2 -1.2,-2.5 -2.7,-3.999996 -2.4,-2.4 -2.4,-4.9 -2.3,-7.1 0,-2.1 0.1,-3.8 -1.7,-5.6 l 1.4,-1.4 c 2.4,2.4 2.4,4.9 2.3,7.1 0,2.1 -0.1,3.8 1.7,5.6 1.7,1.7 2.5,3.299996 3.1,4.499996 0.9,1.9 1.3,2.7 4.4,2.7 5.6,-0.1 6,-0.5 10.1,-4.6 l 0.1,-0.1 c 2.4,-2.399996 4.9,-2.399996 7.1,-2.399996 2.1,0 3.9,0 5.7,-1.8 l 1.4,1.4 c -2.4,2.399996 -4.9,2.399996 -7.1,2.399996 -2.1,0 -3.9,0 -5.7,1.8 l -0.1,0.1 c -4.2,4.2 -5.1,5.1 -11.5,5.2 -0.1,0 -0.2,0 -0.2,0 z"
       id="path875"
       style="fill:#ffffff;fill-opacity:1" />
    <path
       inkscape:connector-curvature="0"
       class="st0"
       d="m -93.857143,67.467344 c -2.2,-2.2 -2.2,-4.5 -2.2,-6.5 0,-1.9 0,-3.5 -1.6,-5.1 -1.8,-1.8 -2.999997,-2.3 -4.399997,-2.8 -1.5,-0.6 -3,-1.2 -5.1,-3.2 -1.4,-1.4 -2.1,-0.9 -3,0.1 -0.3,0.3 -0.9,0.9 -1.6,0.5 -0.8,-0.4 -0.7,-1.2 -0.4,-3 0.4,-2.8 -0.1,-4.4 -0.5,-5.8 -0.7,-2.4 -1,-4.1 2.3,-7.4 2.9,-2.9 6.1,-2.8 8.8,-2.7 2.699997,0.1 4.999997,0.2 7.299997,-2.1 l 1.4,1.4 c -2.9,2.9 -6.1,2.8 -8.799997,2.7 -2.7,-0.1 -5,-0.2 -7.3,2.1 -2.7,2.7 -2.4,3.5 -1.8,5.5 0.4,1.4 1,3.3 0.6,6.4 1.5,-0.8 3,-0.5 4.5,1 1.8,1.8 3,2.3 4.4,2.8 1.499997,0.6 2.999997,1.2 5.099997,3.2 2.2,2.2 2.2,4.5 2.2,6.5 0,1.9 0,3.5 1.6,5.1 l -1.5,1.3 z"
       id="path877"
       style="fill:#ffffff;fill-opacity:1" />
    <path
       inkscape:connector-curvature="0"
       class="st0"
       d="m -33.857143,116.26734 c -2.3,0 -4.7,-1.7 -7,-3.3 -2.7,-1.9 -5.5,-3.9 -8.2,-3.5 -1.6,0.2 -2,0.6 -2,0.8 l -0.1,0.6 -0.6,0.2 c -0.6,0.2 -1,-0.3 -1.2,-0.5 -0.2,-0.2 -0.6,-0.7 -1.5,-1.6 -1.3,-1.3 -3.1,-1 -5.7,-0.4 -2.5,0.6 -5.4,1.3 -7.6,-0.9 -2.2,-2.2 -1.6,-5 -1,-7.5 0.5,-2.3 1,-4.2 -0.5,-5.7 l 1.4,-1.4 c 2.2,2.2 1.6,5 1,7.5 -0.5,2.3 -1,4.2 0.5,5.7 1.3,1.3 3.1,1 5.7,0.4 2.5,-0.6 5.4,-1.3 7.6,0.9 0.4,0.4 0.7,0.7 0.9,1 0.6,-0.5 1.6,-0.8 2.9,-1 3.6,-0.5 6.8,1.8 9.7,3.9 3.5,2.5 5.8,4 7.8,2 2.1,-2.1 1.7,-4.6 1.1,-7.6 -0.5,-3.1 -1.1,-6.5 1.7,-9.3 l 1.4,1.4 c -2.1,2.1 -1.7,4.6 -1.1,7.6 0.5,3.1 1.1,6.5 -1.7,9.3 -1.2,1 -2.3,1.4 -3.5,1.4 z"
       id="path879"
       style="fill:#ffffff;fill-opacity:1" />
    <path
       inkscape:connector-curvature="0"
       class="st0"
       d="m 22.042857,95.46734 c -1.1,0 -2.2,-0.4 -3.2,-1.4 -2.3,-2.3 -2.8,-4.299996 -3.2,-5.999996 -0.4,-1.7 -0.8,-3.1 -2.7,-5.1 l 1.4,-1.4 c 2.3,2.3 2.8,4.3 3.2,6 0.4,1.7 0.8,3.099996 2.7,5.099996 1.7,1.7 3.4,0.7 6.9,-1.8 2.3,-1.599996 4.8,-3.499996 7.7,-3.699996 3.1,-0.2 5.6,1 7.7,2.1 3,1.499996 4.5,2.099996 6.7,0 2,-2 1,-5.1 0,-8.4 -1.1,-3.5 -2.3,-7.6 0.5,-10.4 l 1.4,1.4 c -2,2 -1,5.1 0,8.4 1.1,3.5 2.3,7.6 -0.5,10.399996 -3.3,3.3 -6.2,1.8 -9,0.4 -2,-1 -4,-1.999996 -6.6,-1.899996 -2.3,0.1 -4.5,1.699996 -6.6,3.299996 -2.1,1.5 -4.3,3 -6.4,3 z"
       id="path881"
       style="fill:#ffffff;fill-opacity:1" />
    <path
       inkscape:connector-curvature="0"
       class="st0"
       d="m 70.842857,48.667344 -1.4,-1.4 c 2.7,-2.7 5.8,-2.2 8.6,-1.7 2.6,0.4 4.900003,0.8 6.900003,-1.2 1.7,-1.7 3.4,-2.7 4.7,-3.4 2.3,-1.3 3.5,-2 3.8,-5.7 0.3,-4.8 -0.8,-6 -4.2,-9.3 l -0.8,-0.8 c -1.9,-1.9 -3.1,-2.6 -4.3,-3.4 -1.3,-0.8 -2.600003,-1.6 -4.700003,-3.7 l 1.4,-1.4 c 1.900003,1.9 3.100003,2.6 4.300003,3.4 1.3,0.8 2.6,1.6 4.7,3.7 l 0.8,0.8 c 3.4,3.4 5.2,5.1 4.8,10.9 -0.3,4.7 -2.4,5.9 -4.7,7.3 -1.3,0.7 -2.7,1.6 -4.3,3.1 -2.7,2.7 -5.800003,2.2 -8.600003,1.7 -2.8,-0.5 -5,-0.9 -7,1.1 z"
       id="path883"
       style="fill:#ffffff;fill-opacity:1" />
    <path
       inkscape:connector-curvature="0"
       class="st0"
       d="m 39.642857,114.56734 c -0.2,0 -0.3,0 -0.5,0 -7.3,-0.6 -9,-1.6 -13.9,-6.6 -2.7,-2.7 -2.8,-5.5 -2.8,-8 0,-2.4 -0.1,-4.4 -2.2,-6.6 l 1.4,-1.4 c 2.7,2.7 2.8,5.5 2.8,8 0,2.4 0.1,4.4 2.2,6.6 4.7,4.7 5.9,5.5 12.7,6 0.5,0 1.1,0 1.3,-0.3 0.5,-0.5 0.3,-2.2 0.1,-3.8 -0.3,-2.8 -0.7,-6.2 1.6,-8.5 2.2,-2.2 3.7,-3 5.2,-3.7 1.4,-0.7 2.7,-1.3 4.7,-3.3 2.5,-2.5 5.4,-2 8,-1.6 2.4,0.4 4.5,0.7 6.3,-1 l 1.4,1.4 c -2.5,2.5 -5.4,2 -8,1.6 -2.4,-0.4 -4.5,-0.7 -6.3,1 -2.2,2.2 -3.7,3 -5.2,3.7 -1.4,0.7 -2.7,1.3 -4.7,3.3 -1.6,1.6 -1.3,4.4 -1,6.9 0.3,2.3 0.5,4.2 -0.7,5.4 -0.5,0.6 -1.3,0.9 -2.4,0.9 z"
       id="path885"
       style="fill:#ffffff;fill-opacity:1" />
    <path
       inkscape:connector-curvature="0"
       class="st0"
       d="m 89.14286,56.667344 -1.4,-1.4 c 2.3,-2.3 4.6,-2.3 6.6,-2.4 1.9,0 3.5,-0.1 5.2,-1.8 1.6,-1.6 1.4,-3.6 1,-5.8 -0.4,-2.4 -0.8,-5.2 1.6,-7.6 2.2,-2.2 7.5,-1.8 13.2,-1.4 3.9,0.3 8.8,0.7 10,-0.5 0.1,-0.1 0.2,-0.3 0.2,-0.6 -0.3,-4.2 -4.3,-7.3 -8.1,-10.2 -1.6,-1.3 -3.3,-2.6 -4.7,-4 -1.8,-1.8 -5.8,0 -9.7,1.7 -4.5,2 -9.1,4.1 -11.9,1.3 l 1.4,-1.4 c 1.8,1.8 5.8,0 9.7,-1.7 4.5,-2 9.1,-4.1 11.9,-1.3 1.3,1.3 2.9,2.5 4.5,3.8 4.2,3.2 8.5,6.6 8.8,11.7 0.1,0.8 -0.2,1.6 -0.8,2.2 -1.8,1.8 -6.3,1.4 -11.5,1.1 -4.5,-0.3 -10.1,-0.8 -11.6,0.8 -1.6,1.6 -1.4,3.6 -1,5.8 0.4,2.4 0.8,5.2 -1.6,7.6 -2.3,2.3 -4.6,2.3 -6.6,2.4 -1.8,0 -3.5,0 -5.2,1.7 z"
       id="path887"
       style="fill:#ffffff;fill-opacity:1" />
    <path
       inkscape:connector-curvature="0"
       class="st0"
       d="m 83.54286,-13.832656 -1.4,-1.4 c 2,-2 1.9,-4 1.8,-6.3 -0.1,-2.4 -0.2,-5.2 2.4,-7.8 2.1,-2.1 5.7,-3 9.1,-3.8 4.9,-1.2 8,-2.1 8,-4.8 0,-2.4 -3.3,-2.9 -8.5,-3.4 -4.1,-0.4 -8.3,-0.8 -10.5,-3 -2.1,-2.1 -3.400003,-2.9 -4.800003,-3.7 -1.4,-0.8 -2.9,-1.7 -5.2,-4 l 1.4,-1.4 c 2.1,2.1 3.4,2.9 4.8,3.7 1.400003,0.8 2.900003,1.7 5.200003,4 1.7,1.7 5.6,2.1 9.3,2.4 5.1,0.5 10.4,1 10.3,5.4 -0.1,4.5 -4.9,5.6 -9.5,6.7 -3.2,0.7 -6.4,1.5 -8.2,3.2 -2,2 -1.9,4 -1.8,6.3 0.1,2.5 0.2,5.3 -2.4,7.9 z"
       id="path889"
       style="fill:#ffffff;fill-opacity:1" />
    <path
       inkscape:connector-curvature="0"
       class="st0"
       d="m 17.042857,-81.932666 -1.4,-1.4 c 2.2,-2.2 3.4,-3.2 4.5,-4.2 1.2,-1 2.3,-2 4.4,-4.1 0.7,-0.7 1.4,-1.4 2,-2 2.9,-3.1 5,-5.4 10.5,-5.4 4.2,0 5.2,2.8 6.1,5.5 0.6,1.8 1.2,3.7 2.8,5.2 1.7,1.7 4.2,1 7.1,0.1 3.1,-0.9 6.5,-1.9 9,0.6 l -1.4,1.4 c -1.7,-1.7 -4.2,-1 -7.1,-0.1 -3.1,0.9 -6.5,1.9 -9,-0.6 -1.9,-1.9 -2.6,-4.1 -3.3,-6 -0.9,-2.8 -1.5,-4.2 -4.1,-4.2 0,0 -0.1,0 -0.1,0 -4.6,0 -6.2,1.7 -9.1,4.8 -0.6,0.6 -1.3,1.3 -2,2.1 -2.2,2.2 -3.4,3.2 -4.5,4.2 -1.2,1 -2.3,2 -4.4,4.1 z"
       id="path891"
       style="fill:#ffffff;fill-opacity:1" />
    <path
       inkscape:connector-curvature="0"
       class="st0"
       d="m 98.24286,-20.332656 -1.4,-1.4 c 2.8,-2.8 5.1,-3.4 7.2,-4 2,-0.5 3.9,-1 6.3,-3.5 2.9,-2.9 2.4,-5.4 1.8,-9 -0.4,-2.3 -0.9,-4.8 -0.4,-7.8 0.3,-1.7 0.8,-3.3 1.2,-4.6 1,-3.2 1.7,-5.3 -0.6,-7.6 -1.4,-1.4 -5.4,0.6 -8.9,2.5 -4.3,2.2 -8.7,4.6 -11.2,2.1 -2.4,-2.4 -1.2,-5.8 -0.2,-8.80001 0.9,-2.7 1.8,-5.3 0.3,-6.8 l 1.4,-1.4 c 2.4,2.4 1.2,5.8 0.2,8.8 -0.9,2.70001 -1.8,5.30001 -0.3,6.80001 1.4,1.4 5.4,-0.6 8.9,-2.5 4.3,-2.2 8.7,-4.60001 11.2,-2.1 3.1,3.1 2.1,6.3 1,9.6 -0.4,1.4 -0.9,2.8 -1.1,4.3 -0.4,2.7 0,5 0.4,7.2 0.7,3.7 1.3,7.1 -2.3,10.7 -2.8,2.8 -5.1,3.4 -7.2,4 -2,0.5 -3.9,1 -6.3,3.5 z"
       id="path893"
       style="fill:#ffffff;fill-opacity:1" />
    <path
       inkscape:connector-curvature="0"
       class="st0"
       d="m 30.742857,-89.632666 -1.4,-1.4 c 2.5,-2.5 3.9,-3.7 5.3,-4.8 1.4,-1.1 2.7,-2.2 5.2,-4.600004 2,-2 1.4,-4.2 0.9,-6.3 -0.4,-1.6 -0.8,-3.2 0.1,-4.4 0.6,-0.9 1.7,-1.4 3.3,-1.7 1.4,-0.2 2.4,-0.5 3.1,-0.7 2.4,-0.7 3.2,-0.6 6,2.2 2.1,2.1 2.3,4 2.5,5.7 0.2,1.6 0.3,3 1.9,4.6 1.5,1.500004 3.3,1.200004 5.3,0.9 2.3,-0.4 4.9,-0.8 7.1,1.400004 l -1.4,1.4 c -1.5,-1.5 -3.3,-1.2 -5.3,-0.9 -2.3,0.4 -4.9,0.8 -7.1,-1.4 -2.1,-2.100004 -2.3,-4.000004 -2.5,-5.700004 -0.2,-1.6 -0.3,-3 -1.9,-4.6 -2.2,-2.2 -2.3,-2.2 -4,-1.7 -0.8,0.2 -1.9,0.6 -3.4,0.8 -1,0.1 -1.7,0.4 -1.9,0.8 -0.4,0.5 -0.1,1.7 0.2,2.8 0.6,2.3 1.3,5.4 -1.5,8.200004 -2.5,2.5 -3.9,3.7 -5.3,4.8 -1.4,1.1 -2.7,2.2 -5.2,4.6 z"
       id="path895"
       style="fill:#ffffff;fill-opacity:1" />
    <path
       inkscape:connector-curvature="0"
       class="st0"
       d="m 106.64286,106.66734 c -1.1,0 -2.3,-0.6 -4.1,-1.6 -0.8,-0.4 -1.7,-0.9 -2.9,-1.5 -0.7,-0.3 -1.2,-0.6 -1.7,-0.8 -3.1,-1.4 -3.8,-1.9 -4.4,-6.4 -0.2,-1.6 -1.1,-3.5 -1.9,-5.4 -1.6,-3.599996 -3.3,-7.299996 -0.7,-9.999996 l 0,0 c 3.4,-3.6 7.9,-1.6 14,1.2 0.9,0.4 1.8,0.8 2.8,1.2 0.9,0.4 1.9,1 2.2,1.9 0.2,0.9 -0.4,1.6 -0.9,2.3 -0.8,0.9 -1.4,1.7 -0.6,3.299996 1.4,3 3.3,4.1 4.7,4.9 1,0.6 1.9,1.1 2,2.1 0.2,1.1 -0.5,2.2 -2.6,4.4 -2.9,3.1 -4.3,4.4 -5.9,4.4 z m -14.3,-24.399996 c -1.7,1.8 -0.3,4.7 1.1,7.799996 0.9,2 1.9,4.1 2.1,6 0.4,3.6 0.5,3.6 3.2,4.8 0.5,0.2 1.1,0.5 1.8,0.8 1.2,0.6 2.2,1.1 3,1.6 1.9,1 2.8,1.5 3.4,1.3 0.9,-0.2 2.1,-1.5 4.1,-3.6 1.9,-2 2.1,-2.6 2,-2.7 -0.1,-0.1 -0.6,-0.4 -1,-0.7 -1.4,-0.8 -3.8,-2.2 -5.5,-5.8 -1.3,-2.699996 0.1,-4.399996 0.9,-5.399996 0.1,-0.2 0.3,-0.4 0.4,-0.6 -0.1,-0.1 -0.4,-0.3 -1,-0.6 -1,-0.4 -1.9,-0.8 -2.8,-1.3 -6.3,-2.8 -9.4,-4 -11.7,-1.6 l 0,0 z"
       id="path897"
       style="fill:#ffffff;fill-opacity:1" />
    <path
       inkscape:connector-curvature="0"
       class="st0"
       d="m -105.55714,-83.932666 -0.6,-0.3 c -0.3,-0.1 -0.5,-0.5 -0.7,-1.1 -0.1,-0.2 -0.2,-0.4 -0.3,-0.7 -1.3,-2.7 -3.1,-4.4 -4.6,-6 -2.6,-2.6 -5.1,-5 -0.8,-9.600004 5.5,-5.9 9.5,-3.9 15.499997,-0.9 0.5,0.3 1.1,0.5 1.6,0.8 3.6,1.7 3.4,3.600004 3.1,5.800004 -0.1,1 -0.3,2.2 -0.1,3.7 0.1,1.1 0.2,2.2 -0.5,2.9 -0.7,0.7 -1.6,0.6 -2.4,0.5 -1.1,-0.1 -2.3,-0.2 -3.6,1.1 -0.8,0.8 -1.699997,1.6 -2.599997,1.3 -0.9,-0.2 -1.2,-1.2 -1.4,-2 -0.4,-1.4 -0.5,-1.5 -1,-1.4 -0.8,0.1 -1.1,0.5 -1.2,0.7 -0.4,0.8 -0.1,2.3 0.1,3.1 0.4,0.9 0.4,1.2 0,1.7 l -0.5,0.4 z m 1.8,-7.9 c 2,0 2.5,2 2.7,2.9 0,0.1 0.1,0.2 0.1,0.3 0.1,-0.1 0.3,-0.3 0.5,-0.5 1.899997,-2.1 3.999997,-1.8 5.299997,-1.7 0.3,0 0.6,0.1 0.8,0.1 0,-0.1 0.1,-0.5 0,-1.3 -0.2,-1.7 0,-3.1 0.1,-4.1 0.2,-2 0.3,-2.6 -2,-3.7 -0.6,-0.300004 -1.1,-0.600004 -1.7,-0.800004 -5.999997,-3 -8.699997,-4.3 -13.199997,0.5 -3,3.200004 -2,4.200004 0.7,6.900004 1,1 2.2,2.2 3.3,3.7 0.5,-1.2 1.4,-1.9 2.8,-2.1 0.3,-0.2 0.4,-0.2 0.6,-0.2 z"
       id="path899"
       style="fill:#ffffff;fill-opacity:1" />
    <path
       inkscape:connector-curvature="0"
       class="st0"
       d="m 95.74286,-92.532666 c -0.8,0 -1.4,-0.3 -2,-0.9 l 0,0 c -2.7,-2.9 0.1,-5.9 3.3,-9.400004 2,-2.1 4.2,-4.5 6.1,-7.5 1,-1.6 0.3,-3.4 -0.4,-5.3 -0.8,-2.1 -1.8,-5 1.4,-6.5 7.7,-3.5 12.2,-4 18.4,2.7 7.2,7.7 8.9,14.7 5.2,20.700004 -0.5,0.7 -1.1,1.2 -1.9,1.3 -2.1,0.4 -4.7,-1.6 -7.7,-3.800004 -2.6,-2 -5.6,-4.2 -7.4,-4 -1.8,0.2 -4.6,3.4 -7.1,6.300004 -3,3.5 -5.6,6.4 -7.9,6.4 0,0 0,0 0,0 z m -0.5,-2.2 c 0.2,0.2 0.4,0.2 0.5,0.3 1.4,0 4.2,-3.2 6.4,-5.700004 3,-3.4 5.8,-6.6 8.4,-6.9 2.7,-0.3 5.8,2.1 8.9,4.4 2.3,1.7 4.9,3.700004 6.1,3.400004 0.2,0 0.4,-0.1 0.6,-0.4 3.3,-5.200004 1.6,-11.200004 -5,-18.300004 -5.3,-5.7 -8.7,-5.6 -16.1,-2.2 -1.4,0.6 -1.3,1.4 -0.4,4 0.7,2.1 1.7,4.6 0.2,7 -2,3.2 -4.4,5.7 -6.4,7.8 -3.5,3.700004 -4.6,5.100004 -3.2,6.600004 l 0,0 z"
       id="path901"
       style="fill:#ffffff;fill-opacity:1" />
    <path
       inkscape:connector-curvature="0"
       class="st0"
       d="m -122.45714,127.06734 c -1.6,0 -3.1,-0.6 -4.8,-2.2 -4.5,-4.4 -0.8,-8.5 2.9,-12.5 1.7,-1.9 3.5,-3.8 4.7,-5.9 0.2,-0.4 0.9,-1.5 2,-1.5 1.2,0.1 1.8,1.4 2.5,3.1 1.1,2.5 2.1,4.5 3.7,4.2 1.9,-0.3 4.5,-5.5 6.3,-9.3 2.6,-5.2 4.3,-8.3 6.299997,-8.7 0.5,-0.1 1.2,0 1.9,0.7 l 0,0 c 2.9,2.9 0.5,6 -2.4,9.6 -1.599997,2 -3.299997,4.2 -4.799997,6.9 -0.9,1.6 -0.8,2.4 -0.7,3 0.2,1.6 -0.3,2.4 -2.8,3.6 -2.3,1.2 -4.3,2.8 -6.3,4.4 -2.7,2.3 -5.6,4.6 -8.5,4.6 z m 4.6,-19.8 c 0,0.1 -0.1,0.1 -0.2,0.2 -1.3,2.3 -3.2,4.3 -4.9,6.2 -4,4.4 -6,6.8 -3,9.7 3.3,3.3 6,1.4 10.7,-2.4 2,-1.6 4.2,-3.4 6.6,-4.6 1.6,-0.8 1.7,-1.1 1.8,-1.1 0,-0.1 0,-0.3 0,-0.4 -0.1,-0.8 -0.3,-2.1 0.9,-4.3 1.6,-2.8 3.4,-5.1 5,-7.2 3.099997,-3.9 4.099997,-5.5 2.599997,-6.9 l 0,0 c -0.1,-0.1 -0.2,-0.1 -0.2,-0.1 -1.1,0.2 -3.299997,4.5 -4.799997,7.6 -2.5,5.1 -4.9,9.9 -7.8,10.4 -3.4,0.6 -4.9,-3 -5.9,-5.4 -0.2,-0.6 -0.5,-1.3 -0.8,-1.7 z"
       id="path903"
       style="fill:#ffffff;fill-opacity:1" />
    <path
       inkscape:connector-curvature="0"
       class="st0"
       d="m -129.55714,-49.532656 -2,0 c 0,-2.4 -0.8,-3.5 -1.8,-4.9 -1.1,-1.4 -2.3,-3 -2.2,-6.1 0,-3.00001 1.2,-4.60001 2.2,-6.00001 0.9,-1.3 1.8,-2.5 1.8,-4.9 0,-0.7 -0.1,-1.2 -0.4,-1.4 -0.5,-0.5 -1.8,-0.5 -3.2,-0.4 -2.2,0 -4.9,0.1 -7.1,-1.8 -2.2,-2 -2.5,-4 -2.7,-5.4 -0.2,-1.5 -0.3,-1.8 -2.6,-1.7 -3,0.1 -4.5,0 -6,0 -1.5,-0.1 -2.9,-0.2 -5.7,0 l -0.1,-2 c 3,-0.1 4.5,0 6,0 1.5,0.1 2.9,0.2 5.7,0 3.8,-0.2 4.4,1.4 4.6,3.4 0.2,1.3 0.4,2.7 2,4.2 1.5,1.4 3.7,1.3 5.7,1.3 1.8,0 3.6,-0.1 4.7,1 0.7,0.7 1,1.6 1,2.9 0,3 -1.2,4.6 -2.2,6 -0.9,1.3 -1.8,2.5 -1.8,4.90001 0,2.4 0.8,3.5 1.8,4.9 1.1,1.3 2.3,2.9 2.3,6 z"
       id="path905"
       style="fill:#ffffff;fill-opacity:1" />
    <path
       inkscape:connector-curvature="0"
       class="st0"
       d="m 87.84286,149.66734 c -0.3,-3.5 2.3,-5.5 4.7,-7.2 2.2,-1.6 4,-3 3.9,-5.4 -0.1,-0.9 -0.1,-1.9 -0.2,-3 -0.3,-5.2 -0.6,-11.2 -4,-14.2 -1.5,-1.4 -4.2,0.8 -7.8,4 -2.700003,2.4 -5.500003,4.9 -8.100003,5.3 -3,0.4 -4.7,-0.5 -6.2,-1.2 -1.4,-0.7 -2.7,-1.4 -5.1,-1 l -0.3,-2 c 3,-0.4 4.7,0.5 6.2,1.2 1.4,0.7 2.7,1.4 5.1,1 2,-0.3 4.6,-2.6 7.100003,-4.8 3.7,-3.3 7.5,-6.7 10.5,-4 4.1,3.6 4.4,10 4.7,15.6 0.1,1 0.1,2 0.2,2.9 0.3,3.5 -2.3,5.5 -4.7,7.2 -2.2,1.6 -4,3 -3.9,5.4 l -2.1,0.2 z"
       id="path907"
       style="fill:#ffffff;fill-opacity:1" />
    <path
       inkscape:connector-curvature="0"
       class="st0"
       d="m 157.94286,88.967344 c -3.3,-0.3 -4.6,-3.6 -5.7,-6.6 -1,-2.6 -2,-5.1 -4,-5.3 -1.8,-0.2 -2.7,0 -3.4,0.2 -1.9,0.4 -2.4,-0.2 -4.4,-2.9 l -0.3,-0.4 c -2.4,-3.4 -2.6,-3.7 -2,-6.4 0.2,-0.7 0.4,-1.7 0.6,-3.1 0.4,-3.3 1.7,-4.8 2.8,-6.2 1.1,-1.4 2,-2.5 2.4,-5.2 l 2,0.3 c -0.4,3.3 -1.7,4.8 -2.8,6.2 -1.1,1.4 -2,2.5 -2.4,5.2 -0.2,1.5 -0.4,2.5 -0.6,3.3 -0.4,1.8 -0.4,1.8 1.7,4.8 l 0.3,0.4 c 0.6,0.8 1.5,2.1 1.8,2.2 0.1,0 0.3,0 0.5,-0.1 0.8,-0.2 1.9,-0.4 4,-0.2 3.3,0.3 4.6,3.6 5.7,6.6 1,2.6 2,5.1 4,5.3 l -0.2,1.9 z"
       id="path909"
       style="fill:#ffffff;fill-opacity:1" />
    <path
       inkscape:connector-curvature="0"
       class="st0"
       d="m -97.857143,160.46734 c 0,-3.2 2.4,-4.8 4.5,-6.3 1.9,-1.3 3.6,-2.4 3.6,-4.6 0,-2 -2.6,-3.5 -4.9,-4.7 -2.1,-1.1 -3.9,-2.1 -4.2,-3.8 -0.1,-0.8 0.2,-1.7 1,-2.5 1.5,-1.5 2.4,-3.5 3.4,-5.3 1.6,-3.3 3.3,-6.6 7.5,-7.1 3.6,-0.4 5.7,3 7.6,6 1.7,2.7 3.3,5.3 5.7,5 l 0.2,2 c -3.6,0.4 -5.7,-3 -7.6,-6 -1.7,-2.7 -3.3,-5.3 -5.7,-5 -3.2,0.3 -4.4,2.8 -6,6 -1,2 -2,4.1 -3.7,5.9 -0.3,0.3 -0.5,0.6 -0.4,0.8 0.1,0.6 1.9,1.6 3.1,2.3 2.6,1.4 5.9,3.2 6,6.5 0,3.2 -2.4,4.8 -4.5,6.3 -1.9,1.3 -3.6,2.4 -3.6,4.6 l -2,-0.1 z"
       id="path911"
       style="fill:#ffffff;fill-opacity:1" />
    <path
       inkscape:connector-curvature="0"
       class="st0"
       d="m -149.85714,107.16734 c -3,0 -5,-2.5 -6.8,-4.6 -1.8,-2.3 -3.4,-4.2 -5.8,-3.9 l -0.3,-2 c 3.5,-0.5 5.7,2.2 7.6,4.6 1.8,2.3 3.4,4.2 5.8,3.9 2.4,-0.4 2.8,-2.3 3.1,-5.8 0.3,-2.7 0.6,-5.7 2.6,-7.9 0.3,-0.3 0.5,-0.6 0.6,-0.7 -0.2,-0.1 -0.6,-0.2 -0.9,-0.2 -1.7,-0.4 -4.5,-1.199996 -4.6,-4.599996 -0.1,-3.2 2.2,-4.9 4.3,-6.4 1.9,-1.4 3.6,-2.6 3.5,-4.7 l 2,-0.1 c 0.1,3.2 -2.2,4.9 -4.3,6.4 -1.9,1.4 -3.6,2.6 -3.5,4.7 0.1,1.9 1.3,2.3 3.1,2.8 1,0.3 2.1,0.5 2.4,1.499996 0.3,1 -0.4,1.9 -1.1,2.7 -1.6,1.7 -1.8,4.3 -2.1,6.8 -0.3,3.3 -0.7,7 -4.8,7.6 -0.2,-0.1 -0.5,-0.1 -0.8,-0.1 z"
       id="path913"
       style="fill:#ffffff;fill-opacity:1" />
    <path
       inkscape:connector-curvature="0"
       class="st0"
       d="m 83.14286,-130.33267 c -3.300003,0 -5.100003,-1.9 -6.600003,-3.6 -1.5,-1.6 -2.8,-3 -5.3,-2.9 l 0,-2 c 3.5,0 5.2,1.9 6.8,3.6 1.5,1.6 2.8,3 5.300003,2.9 5.1,-0.1 5.5,-0.5 8.9,-3.5 l 1.1,-1 c 2,-1.7 1.8,-2.3 1.3,-3.9 -0.4,-1.1 -0.9,-2.7 -0.7,-5 0.3,-3.3 3.1,-4.7 5.6,-5.9 2.3,-1.1 4.3,-2.1 4.5,-4.2 l 2,0.2 c -0.3,3.3 -3.1,4.7 -5.6,5.9 -2.3,1.1 -4.3,2.1 -4.5,4.2 -0.2,1.9 0.2,3.1 0.6,4.2 0.7,2.1 0.9,3.6 -1.9,6 l -1.1,0.9 c -3.7,3.2 -4.6,3.9 -10.2,4 -0.1,0.1 -0.1,0.1 -0.2,0.1 z"
       id="path915"
       style="fill:#ffffff;fill-opacity:1" />
    <path
       inkscape:connector-curvature="0"
       class="st0"
       d="m -85.657143,-125.43267 c -0.8,0 -1.6,-0.4 -2.5,-1.2 -0.7,-0.7 -1.4,-1.2 -1.9,-1.7 -3,-2.6 -4.4,-3.9 -4.8,-9.2 -0.2,-3.4 1.8,-5.3 3.6,-6.9 1.7,-1.5 3.1,-2.9 3,-5.3 l 2,-0.1 c 0.2,3.4 -1.8,5.3 -3.6,6.9 -1.7,1.5 -3.1,2.9 -3,5.3 0.3,4.5 1.2,5.4 4.1,7.8 0.6,0.5 1.2,1.1 2,1.8 0.7,0.7 1.1,0.7 1.1,0.7 0.4,-0.1 1,-1 1.5,-1.8 1.1,-1.7 2.6,-4.1 5.6,-4.5 2.3,-0.3 3.4,-1.4 4.5,-2.6 1.3,-1.4 2.7,-2.9 5.8,-3.3 l 0.2,2 c -2.3,0.3 -3.4,1.4 -4.5,2.6 -1.3,1.4 -2.7,2.9 -5.8,3.3 -2.1,0.2 -3.1,1.9 -4.1,3.5 -0.8,1.3 -1.6,2.6 -2.9,2.8 -0.1,-0.1 -0.2,-0.1 -0.3,-0.1 z"
       id="path917"
       style="fill:#ffffff;fill-opacity:1" />
    <path
       inkscape:connector-curvature="0"
       class="st0"
       d="m 142.84286,-68.732666 -2,-0.2 c 0.3,-2.5 -0.1,-3.8 -0.6,-5.1 -0.5,-1.5 -0.9,-3 -0.6,-6 0.2,-2.1 -1.9,-4.6 -3.9,-6.9 -2,-2.3 -3.8,-4.6 -3.6,-6.6 0.1,-0.9 0.5,-1.7 1.3,-2.3 4.2,-3.4 8.3,-3.3 13.1,-3.2 0.9,0 1.8,0.1 2.7,0.1 3.6,0 5.3,3.2 6.8,6 1.4,2.7 2.7,5 5,5 l 0,2 c -3.6,0 -5.3,-3.2 -6.8,-6 -1.4,-2.7 -2.7,-5 -5,-5 -0.9,0 -1.9,0 -2.7,-0.1 -4.6,-0.1 -8.2,-0.3 -11.8,2.7 -0.5,0.4 -0.5,0.7 -0.6,0.9 -0.1,1.3 1.6,3.3 3.2,5.2 2.3,2.7 4.6,5.5 4.3,8.4 -0.3,2.5 0.1,3.8 0.6,5.1 0.4,1.5 0.9,3.1 0.6,6 z"
       id="path919"
       style="fill:#ffffff;fill-opacity:1" />
  </g>
</svg>
