<?xml version="1.0" encoding="UTF-8" standalone="no"?>
<!-- Created with Inkscape (http://www.inkscape.org/) -->

<svg
   xmlns:dc="http://purl.org/dc/elements/1.1/"
   xmlns:cc="http://creativecommons.org/ns#"
   xmlns:rdf="http://www.w3.org/1999/02/22-rdf-syntax-ns#"
   xmlns:svg="http://www.w3.org/2000/svg"
   xmlns="http://www.w3.org/2000/svg"
   xmlns:sodipodi="http://sodipodi.sourceforge.net/DTD/sodipodi-0.dtd"
   xmlns:inkscape="http://www.inkscape.org/namespaces/inkscape"
   width="210mm"
   height="297mm"
   viewBox="0 0 744.09448819 1052.3622047"
   id="svg3471"
   version="1.1"
   inkscape:version="0.91 r13725"
   sodipodi:docname="redMedium.svg">
  <defs
     id="defs3473" />
  <sodipodi:namedview
     id="base"
     pagecolor="#ffffff"
     bordercolor="#666666"
     borderopacity="1.0"
     inkscape:pageopacity="0.0"
     inkscape:pageshadow="2"
     inkscape:zoom="0.35"
     inkscape:cx="-120.71429"
     inkscape:cy="520"
     inkscape:document-units="px"
     inkscape:current-layer="layer1"
     showgrid="false"
     inkscape:window-width="2495"
     inkscape:window-height="1416"
     inkscape:window-x="65"
     inkscape:window-y="24"
     inkscape:window-maximized="1" />
  <metadata
     id="metadata3476">
    <rdf:RDF>
      <cc:Work
         rdf:about="">
        <dc:format>image/svg+xml</dc:format>
        <dc:type
           rdf:resource="http://purl.org/dc/dcmitype/StillImage" />
        <dc:title></dc:title>
      </cc:Work>
    </rdf:RDF>
  </metadata>
  <g
     inkscape:label="Calque 1"
     inkscape:groupmode="layer"
     id="layer1">
    <path
       inkscape:connector-curvature="0"
       class="st0"
       d="m -53.762443,316.13202 c -7.5,0 -14.9,-0.6 -22.3,-2.3 -23.599997,-5.4 -45.299997,-15.8 -66.299997,-26 l -1.1,-0.5 c -6.7,-3.2 -13.8,-6 -21.3,-9 -15.5,-6.1 -31.5,-12.5 -44.7,-23 -12.3,-9.9 -19.5,-24 -26.5,-37.7 -4.5,-8.8 -8.7,-17.2 -14,-23.8 -2,-2.5 -3.9,-4.9 -5.9,-7.3 -12.6,-15.6 -25.6,-31.7 -34.8,-50.8 -1.5,-3.1 -3.1,-6.3 -4.6,-9.4 -8.8,-17.9 -18,-36.499991 -22.6,-56.999991 -3.9,-17.100004 -3.2,-34.800004 -2.5,-51.900004 0.3,-6.499999 0.5,-13.1999994 0.5,-19.6999994 0,-8.3000006 -1,-16.8000006 -2,-25.7000006 -1.8,-15.399999 -3.7,-31.4 -0.2,-46.9 3.6,-15.8 12.7,-28.800005 21.6,-41.400005 5.3,-7.6 10.4,-14.7 13.9,-22.1 10.8,-22.4 21,-42.5 35.6,-60.9 10.3,-12.9 23.4,-21.5 36.1,-29.8 6.8,-4.4 13.2,-8.6 19.3,-13.5 6.6,-5.3 12,-13.7 17.6,-22.6 8.3,-13 16.9,-26.5 31.2,-33.4 17.8,-8.6 38,-12.9 57.6,-17.1 4.3,-0.9 8.699997,-1.9 12.999997,-2.8 15.1,-3.4 30.1,-0.4 44.7,2.5 9.6,1.9 18.7,3.7 27.4999999,3.7 8.2,0 16.8000001,-0.9 25.1000001,-1.9 15.00001,-1.7 30.60001,-3.4 46.100006,0.1 18.4,4.2 34.599997,12.6 50.299997,20.7 4.90001,2.6 10.00001,5.2 15.00001,7.6 15.9,7.7 28.4,18.7 40.5,29.4 4.9,4.4 10,8.9 15.2,13 6.7,5.3 15,9.3 23.9,13.6 13.5,6.5 27.4,13.2 37.2,25.5 9.9,12.4 14.4,27.4 18.8,41.9 2.7,8.9 5.2,17.3 8.9,24.8 3.2,6.7 7.1,13.2 11.2,20.1 8,13.5 16.4,27.400005 20.1,43.900005 1.7,7.3 4.2,14.9 6.9,22.900001 5.2,15.499999 10.5,31.399999 10.5,48.2999996 0,20.9999994 -3.1,44.8999994 -9.5,73.1000034 -4.6,20.1 -13.9,38.799991 -22.8,56.999991 -1.8,3.6 -3.5,7.1 -5.2,10.6 -6.9,14.3 -19.1,23.8 -30.9,33.1 -7.7,6 -15,11.8 -20.3,18.4 -5.3,6.7 -8.9,15.9 -12.8,25.6 -5.6,14.2 -11.4,28.9 -23.7,38.7 -12.4,9.9 -27.7,14.5 -42.4,18.9 -9.1,2.7 -17.6,5.3 -25.2,8.9 -4,1.9 -8.2,4 -12.1,6 -16.80001,8.4 -34.100007,17.1 -53.600007,21.5 -18.899996,4.3 -38.500006,4 -57.400006,3.8 -4.5000001,-0.1 -9.2000001,-0.1 -13.8000001,-0.1 -7.8999999,0 -16.2999999,0.7 -24.2999999,1.5 -8.4,0.7 -16.9,1.5 -25.5,1.5 z m -7.9,-616.2 c -3.4,0 -6.7,0.3 -9.9,1 -4.4,1 -8.8,2 -13.199997,2.9 -18.4,3.9 -37.4,8 -53.1,15.6 -9.2,4.4 -15.9,15 -23,26.2 -6.3,9.9 -12.8,20.2 -22,27.5 -6.8,5.4 -13.9,10.1 -20.8,14.6 -11.9,7.8 -23.1,15.1 -31.5,25.5 -13.4,16.8 -23,35.8 -33.3,57.1 -4.3,8.8 -10,17 -15.6,24.9 -8.1,11.500009 -15.7,22.400005 -18.5,34.300005 -2.8,12.1 -1.2,25.700001 0.5,40.1 1.1,9.1 2.2,18.6 2.2,28.1000006 0,6.9 -0.3,13.8000004 -0.5,20.4999994 -0.6,16.5 -1.3,32.2 2.1,46.699999 4.1,18.200005 12.7,35.700006 21.1,52.599996 1.6,3.2 3.1,6.4 4.7,9.6 8.2,17 19.9,31.6 32.4,46.9 2,2.5 4,4.9 6,7.4 6.6,8.3 11.5,17.9 16.2,27.3 6.2,12.3 12.2,24 21.1,31.1 10.8,8.6 24.8,14.2 39.6,20 7.5,3 15.3,6.1 22.7,9.6 l 1.1,0.5 c 20,9.6 40.7,19.6 61.999997,24.5 12.7,2.9 26.8,1.6 41.6,0.3 8.5,-0.8 17.3,-1.5 26.0999999,-1.5 4.7,0 9.5,0.1 14.0000001,0.1 18.6,0.3 36.10001,0.5 52.700006,-3.3 17.1,-3.9 32.6,-11.7 49.099997,-19.9 4,-2 8.20001,-4.1 12.40001,-6.1 9,-4.3 18.8,-7.3 28.2,-10.1 13.5,-4 26.3,-7.9 35.7,-15.3 8.1,-6.5 12.7,-18.1 17.5,-30.4 4.2,-10.7 8.5,-21.7 15.7,-30.7 6.7,-8.4 15.3,-15.1 23.6,-21.6 10.5,-8.2 20.3,-15.9 25.2,-26 1.7,-3.6 3.5,-7.2 5.3,-10.8 8.5,-17.09999 17.2,-34.799991 21.3,-52.499996 6.1,-26.699999 9,-49.099999 9,-68.5999984 0,-13.7000006 -4.8,-28.1000006 -9.5,-41.9999996 -2.7,-8.1 -5.5,-16.500001 -7.4,-24.800001 -3,-13.4 -10.2,-25.399996 -17.8,-38.100005 -4.1,-6.9 -8.4,-14.1 -12.1,-21.7 -4.3,-9 -7.2,-18.5 -10,-27.7 -4,-13.3 -7.8,-25.8 -15.3,-35.2 -7,-8.7 -18.3,-14.2 -30.2,-19.9 -9.5,-4.5 -19.2,-9.2 -27.7,-16 -5.6,-4.5 -10.9,-9.1 -16,-13.7 -11.6,-10.2 -22.5,-19.9 -35.9,-26.4 -5.3,-2.5 -10.50001,-5.2 -15.50001,-7.9 -15.199997,-7.9 -29.599997,-15.3 -45.599997,-19 -12.299996,-2.8 -25.499996,-1.3 -39.500006,0.2 -8.8,1 -17.9000001,2 -27.3000001,2 -10.7999999,0 -21.2999999,-2.1 -31.3999999,-4.1 -9.4,-2.1 -18.2,-3.8 -26.5,-3.8 z"
       id="path5"
       style="fill:#ed4024;fill-opacity:1" />
  </g>
</svg>
