<?xml version="1.0" encoding="UTF-8" standalone="no"?>
<!-- Created with Inkscape (http://www.inkscape.org/) -->

<svg
   xmlns:dc="http://purl.org/dc/elements/1.1/"
   xmlns:cc="http://creativecommons.org/ns#"
   xmlns:rdf="http://www.w3.org/1999/02/22-rdf-syntax-ns#"
   xmlns:svg="http://www.w3.org/2000/svg"
   xmlns="http://www.w3.org/2000/svg"
   xmlns:sodipodi="http://sodipodi.sourceforge.net/DTD/sodipodi-0.dtd"
   xmlns:inkscape="http://www.inkscape.org/namespaces/inkscape"
   width="210mm"
   height="297mm"
   viewBox="0 0 744.09448819 1052.3622047"
   id="svg6008"
   version="1.1"
   inkscape:version="0.91 r13725"
   sodipodi:docname="redSmall.svg">
  <defs
     id="defs6010" />
  <sodipodi:namedview
     id="base"
     pagecolor="#ffffff"
     bordercolor="#666666"
     borderopacity="1.0"
     inkscape:pageopacity="0.0"
     inkscape:pageshadow="2"
     inkscape:zoom="0.35"
     inkscape:cx="-120.71429"
     inkscape:cy="520"
     inkscape:document-units="px"
     inkscape:current-layer="layer1"
     showgrid="false"
     inkscape:window-width="1248"
     inkscape:window-height="1388"
     inkscape:window-x="1312"
     inkscape:window-y="24"
     inkscape:window-maximized="0" />
  <metadata
     id="metadata6013">
    <rdf:RDF>
      <cc:Work
         rdf:about="">
        <dc:format>image/svg+xml</dc:format>
        <dc:type
           rdf:resource="http://purl.org/dc/dcmitype/StillImage" />
        <dc:title></dc:title>
      </cc:Work>
    </rdf:RDF>
  </metadata>
  <g
     inkscape:label="Calque 1"
     inkscape:groupmode="layer"
     id="layer1">
    <path
       inkscape:connector-curvature="0"
       class="st0"
       d="m -1.314284,194.64792 c -22.5,0 -43.3,-9.1 -61.6,-17.1 -3.8,-1.7 -7.4,-3.2 -11,-4.7 -28.299996,-11.7 -47.799996,-23.9 -63.199996,-39.3 -15.4,-15.4 -27.9,-35.5 -39.3,-63.199999 l -1.1,-2.6 c -8.7,-20.8 -18.5,-44.3 -18.5,-69.9 0,-22.9 5.5,-47.8 16.3,-73.9 10.3,-24.700001 20.9,-48.400001 38.5,-66.000001 14.6,-14.6 34,-21.9 52.799996,-29 5.2,-1.9 10,-3.8 14.8,-5.8 27.3,-11.5 49.6,-16.5 72.3,-16.5 29.6,0 53.8,4.1 74,12.5 24.800004,10.3 44.100004,28.3 60.200004,44.4 1.6,1.6 3.3,3.2 4.9,4.9 16.1,16 32.8,32.5 41.9,54.400001 11.2,27.1 16.9,52.3 16.9,75 0,24.2 -5.6,51 -15.8,75.5 -8.4,20.3 -22.9,40.599999 -44.5,62.199999 -14.2,14.2 -32.6,20.9 -50.500004,27.4 -5.4,2 -11,4 -16.2,6.2 -5.9,2.4 -11.8,5.5 -18,8.7 -16.2,8.2 -33,16.8 -52.9,16.8 z m 0,-368 c -19.9,0 -39.9,4.6 -64.7,14.9 -5.1,2.1 -10.3,4.1 -15.4,6 -17.6,6.6 -34.199996,12.9 -45.699996,24.4 -15,15 -24.7,36.7 -34.2,59.500001 -9.8,23.7 -14.8,46 -14.8,66.3 0,21.6 8.6,42.3 16.9,62.2 l 1.1,2.6 c 10.5,25.3 21.6,43.299999 35,56.799999 13.5,13.5 30.999996,24.3 56.799996,35 3.8,1.6 7.6,3.2 11.3,4.9 17.3,7.6 35.3,15.4 53.6,15.4 15,0 29,-7.2 43.8,-14.8 6.3,-3.3 12.9,-6.6 19.5,-9.4 5.7,-2.3 11.5,-4.5 17.1,-6.5 16.500004,-6 32.200004,-11.7 43.200004,-22.7 19.7,-19.7 32.8,-37.899999 40.2,-55.699999 9.2,-22.1 14.2,-46.2 14.2,-67.8 0,-20 -5.2,-42.7 -15.4,-67.3 -7.5,-18.200001 -22.8,-33.300001 -37.5,-47.800001 -1.7,-1.6 -3.3,-3.3 -5,-4.9 -14.8,-14.7 -32.3,-31.2 -53.800004,-40.1 -17.6,-7.5 -39.3,-11 -66.2,-11 z"
       id="path37"
       style="stroke:none;fill:#ed4024;fill-opacity:1" />
  </g>
</svg>
