<?xml version="1.0" encoding="utf-8"?>
<!-- Generator: Adobe Illustrator 19.2.1, SVG Export Plug-In . SVG Version: 6.00 Build 0)  -->
<svg version="1.1" xmlns="http://www.w3.org/2000/svg" xmlns:xlink="http://www.w3.org/1999/xlink" x="0px" y="0px"
	 viewBox="0 0 1920 1080" style="enable-background:new 0 0 1920 1080;" xml:space="preserve">
<style type="text/css">
	.st0{stroke:#000000;stroke-miterlimit:10;}
	.st1{stroke:#000000;stroke-width:2;stroke-miterlimit:10;}
	.st2{opacity:0.14;stroke:#000000;stroke-miterlimit:10;}
	.st3{opacity:0.19;stroke:#000000;stroke-miterlimit:10;}
</style>
<g id="Calque_1">
	<polygon class="st0" points="323.5,93.5 323.5,-3.5 -0.5,-3.5 -0.5,389.5 102.5,389.5 102.5,220.5 179.5,220.5 179.5,183.5 
		6.5,183.5 6.5,159.5 140.5,159.5 140.5,151.5 6.5,151.5 6.5,127.5 121.5,127.5 121.5,118.5 6.5,118.5 6.5,93.5 	"/>
	<polygon class="st0" points="2107.5,93.5 2107.5,91.5 2164.5,91.5 2164.5,31.5 1761.5,31.5 1761.5,56.5 1704.5,56.5 1704.5,91.5 
		1542.5,91.5 1542.5,116.5 1485.5,116.5 1485.5,179.5 1578.5,179.5 1578.5,216.5 2016.5,216.5 2016.5,153.5 2200.5,153.5 
		2200.5,93.5 	"/>
	<polygon class="st1" points="98,467 98,497 -165,497 -165,528 363,528 363,497 585,497 585,467 	"/>
	<polygon class="st0" points="1853.5,935.5 1853.5,605.5 938.5,605.5 938.5,653.5 1442.5,653.5 1442.5,669.5 938.5,669.5 
		938.5,687.5 1581.5,687.5 1581.5,703.5 938.5,703.5 938.5,721.5 1733.5,721.5 1733.5,737.5 938.5,737.5 938.5,755.5 1793.5,755.5 
		1793.5,771.5 938.5,771.5 938.5,782.5 818.5,782.5 818.5,875.5 446.5,875.5 446.5,1080.5 1949.5,1080.5 1949.5,959.9 1949.5,935.5 
			"/>
</g>
<g id="Calque_2">
	<polygon class="st2" points="1244.5,174.5 1144.5,174.5 1144.5,152.5 1019.5,152.5 1019.5,110.5 815.5,110.5 815.5,55.5 
		614.5,55.5 614.5,79.5 572.5,79.5 572.5,110.5 494.5,110.5 494.5,202.5 269.5,202.5 269.5,238.5 494.5,238.5 494.5,293.5 
		637.3,293.5 698.5,293.5 698.5,311.5 737.5,311.5 737.5,353.5 899.5,353.5 899.5,369.5 1100.5,369.5 1100.5,210.5 1244.5,210.5 	
		"/>
	<polygon class="st3" points="1830.5,560.5 1807.5,560.5 1807.5,533.5 1779.5,533.5 1779.5,482.5 1733.5,482.5 1733.5,416.5 
		1688.5,416.5 1688.5,445.5 1678.5,445.5 1678.5,482.5 1661.5,482.5 1661.5,593.5 1610.5,593.5 1610.5,636.5 1661.5,636.5 
		1661.5,702.5 1693.8,702.5 1707.5,702.5 1707.5,724.5 1716.5,724.5 1716.5,775.5 1752.5,775.5 1752.5,794.5 1798.5,794.5 
		1798.5,603.5 1830.5,603.5 	"/>
	<polygon class="st0" points="522.5,676.5 522.5,667.5 359.5,667.5 359.5,659.5 482.5,659.5 482.5,650.5 359.4,650.5 352.5,650.5 
		352.5,651.5 239.5,651.5 239.5,659.5 311.5,659.5 311.5,668.5 239.5,668.5 239.5,676.5 352.5,676.5 352.5,685.5 239.5,685.5 
		239.5,693.5 330.5,693.5 330.5,701.5 239.5,701.5 239.5,708.5 301.5,708.5 301.5,717.5 239.5,717.5 239.5,722.5 350.5,722.5 
		350.5,731.5 239.5,731.5 239.5,739.5 391.5,739.5 391.5,742.5 472.5,742.5 472.5,733.5 359.5,733.5 359.5,726.5 501.5,726.5 
		501.5,718.5 359.5,718.5 359.5,710.5 522.5,710.5 522.5,701.5 359.5,701.5 359.5,693.5 482.5,693.5 482.5,684.5 359.5,684.5 
		359.5,676.5 	"/>
</g>
</svg>
